<?xml version="1.0" encoding="UTF-8"?><svg version="1.1" xmlns="http://www.w3.org/2000/svg" xmlns:xlink="http://www.w3.org/1999/xlink" viewBox="0 0 1500 1500" width="1500" height="1500" x="0px" y="0px">
              
              <!-- ITEM 0 -->
<g transform="translate(400.0 324.0) scale(2.4252491694352156 2.4252491694352156) rotate(6.0403960185354775 165.55000000000004 165.55000000000004)">
<g transform="translate(-0.0 -0.0)">


<g>
	<g>
		<g>
			<g>
				<g>
					<circle cx="326.1" cy="5" r="5" style="fill:#383A48;"/>
				</g>
			</g>
		</g>
		<g>
			<g>
				<g>
					<circle cx="326.1" cy="29.7" r="5" style="fill:#383A48;"/>
				</g>
			</g>
		</g>
		<g>
			<g>
				<g>
					<circle cx="326.1" cy="54.4" r="5" style="fill:#383A48;"/>
				</g>
			</g>
		</g>
		<g>
			<g>
				<g>
					<circle cx="326.1" cy="79.1" r="5" style="fill:#383A48;"/>
				</g>
			</g>
		</g>
		<g>
			<g>
				<g>
					<circle cx="326.1" cy="103.8" r="5" style="fill:#383A48;"/>
				</g>
			</g>
		</g>
		<g>
			<g>
				<g>
					<circle cx="326.1" cy="128.5" r="5" style="fill:#383A48;"/>
				</g>
			</g>
		</g>
		<g>
			<g>
				<g>
					<circle cx="326.1" cy="153.2" r="5" style="fill:#383A48;"/>
				</g>
			</g>
		</g>
		<g>
			<g>
				<g>
					<circle cx="326.1" cy="177.9" r="5" style="fill:#383A48;"/>
				</g>
			</g>
		</g>
		<g>
			<g>
				<g>
					<circle cx="326.1" cy="202.6" r="5" style="fill:#383A48;"/>
				</g>
			</g>
		</g>
		<g>
			<g>
				<g>
					<circle cx="326.1" cy="227.3" r="5" style="fill:#383A48;"/>
				</g>
			</g>
		</g>
		<g>
			<g>
				<g>
					<circle cx="326.1" cy="252" r="5" style="fill:#383A48;"/>
				</g>
			</g>
		</g>
		<g>
			<g>
				<g>
					<circle cx="326.1" cy="276.7" r="5" style="fill:#383A48;"/>
				</g>
			</g>
		</g>
		<g>
			<g>
				<g>
					<circle cx="326.1" cy="301.4" r="5" style="fill:#383A48;"/>
				</g>
			</g>
		</g>
		<g>
			<g>
				<g>
					<circle cx="326.1" cy="326.1" r="5" style="fill:#383A48;"/>
				</g>
			</g>
		</g>
		<g>
			<g>
				<g>
					<circle cx="301.4" cy="5" r="5" style="fill:#383A48;"/>
				</g>
			</g>
		</g>
		<g>
			<g>
				<g>
					<circle cx="301.4" cy="29.7" r="5" style="fill:#383A48;"/>
				</g>
			</g>
		</g>
		<g>
			<g>
				<g>
					<circle cx="301.4" cy="54.4" r="5" style="fill:#383A48;"/>
				</g>
			</g>
		</g>
		<g>
			<g>
				<g>
					<circle cx="301.4" cy="79.1" r="5" style="fill:#383A48;"/>
				</g>
			</g>
		</g>
		<g>
			<g>
				<g>
					<circle cx="301.4" cy="103.8" r="5" style="fill:#383A48;"/>
				</g>
			</g>
		</g>
		<g>
			<g>
				<g>
					<circle cx="301.4" cy="128.5" r="5" style="fill:#383A48;"/>
				</g>
			</g>
		</g>
		<g>
			<g>
				<g>
					<circle cx="301.4" cy="153.2" r="5" style="fill:#383A48;"/>
				</g>
			</g>
		</g>
		<g>
			<g>
				<g>
					<circle cx="301.4" cy="177.9" r="5" style="fill:#383A48;"/>
				</g>
			</g>
		</g>
		<g>
			<g>
				<g>
					<circle cx="301.4" cy="202.6" r="5" style="fill:#383A48;"/>
				</g>
			</g>
		</g>
		<g>
			<g>
				<g>
					<circle cx="301.4" cy="227.3" r="5" style="fill:#383A48;"/>
				</g>
			</g>
		</g>
		<g>
			<g>
				<g>
					<circle cx="301.4" cy="252" r="5" style="fill:#383A48;"/>
				</g>
			</g>
		</g>
		<g>
			<g>
				<g>
					<circle cx="301.4" cy="276.7" r="5" style="fill:#383A48;"/>
				</g>
			</g>
		</g>
		<g>
			<g>
				<g>
					<circle cx="301.4" cy="301.4" r="5" style="fill:#383A48;"/>
				</g>
			</g>
		</g>
		<g>
			<g>
				<g>
					<circle cx="301.4" cy="326.1" r="5" style="fill:#383A48;"/>
				</g>
			</g>
		</g>
		<g>
			<g>
				<g>
					<circle cx="276.7" cy="5" r="5" style="fill:#383A48;"/>
				</g>
			</g>
		</g>
		<g>
			<g>
				<g>
					<circle cx="276.7" cy="29.7" r="5" style="fill:#383A48;"/>
				</g>
			</g>
		</g>
		<g>
			<g>
				<g>
					<circle cx="276.7" cy="54.4" r="5" style="fill:#383A48;"/>
				</g>
			</g>
		</g>
		<g>
			<g>
				<g>
					<circle cx="276.7" cy="79.1" r="5" style="fill:#383A48;"/>
				</g>
			</g>
		</g>
		<g>
			<g>
				<g>
					<circle cx="276.7" cy="103.8" r="5" style="fill:#383A48;"/>
				</g>
			</g>
		</g>
		<g>
			<g>
				<g>
					<circle cx="276.7" cy="128.5" r="5" style="fill:#383A48;"/>
				</g>
			</g>
		</g>
		<g>
			<g>
				<g>
					<circle cx="276.7" cy="153.2" r="5" style="fill:#383A48;"/>
				</g>
			</g>
		</g>
		<g>
			<g>
				<g>
					<circle cx="276.7" cy="177.9" r="5" style="fill:#383A48;"/>
				</g>
			</g>
		</g>
		<g>
			<g>
				<g>
					<circle cx="276.7" cy="202.6" r="5" style="fill:#383A48;"/>
				</g>
			</g>
		</g>
		<g>
			<g>
				<g>
					<circle cx="276.7" cy="227.3" r="5" style="fill:#383A48;"/>
				</g>
			</g>
		</g>
		<g>
			<g>
				<g>
					<circle cx="276.7" cy="252" r="5" style="fill:#383A48;"/>
				</g>
			</g>
		</g>
		<g>
			<g>
				<g>
					<circle cx="276.7" cy="276.7" r="5" style="fill:#383A48;"/>
				</g>
			</g>
		</g>
		<g>
			<g>
				<g>
					<circle cx="276.7" cy="301.4" r="5" style="fill:#383A48;"/>
				</g>
			</g>
		</g>
		<g>
			<g>
				<g>
					<circle cx="276.7" cy="326.1" r="5" style="fill:#383A48;"/>
				</g>
			</g>
		</g>
		<g>
			<g>
				<g>
					<circle cx="252" cy="5" r="5" style="fill:#383A48;"/>
				</g>
			</g>
		</g>
		<g>
			<g>
				<g>
					<circle cx="252" cy="29.7" r="5" style="fill:#383A48;"/>
				</g>
			</g>
		</g>
		<g>
			<g>
				<g>
					<circle cx="252" cy="54.4" r="5" style="fill:#383A48;"/>
				</g>
			</g>
		</g>
		<g>
			<g>
				<g>
					<circle cx="252" cy="79.1" r="5" style="fill:#383A48;"/>
				</g>
			</g>
		</g>
		<g>
			<g>
				<g>
					<circle cx="252" cy="103.8" r="5" style="fill:#383A48;"/>
				</g>
			</g>
		</g>
		<g>
			<g>
				<g>
					<circle cx="252" cy="128.5" r="5" style="fill:#383A48;"/>
				</g>
			</g>
		</g>
		<g>
			<g>
				<g>
					<circle cx="252" cy="153.2" r="5" style="fill:#383A48;"/>
				</g>
			</g>
		</g>
		<g>
			<g>
				<g>
					<circle cx="252" cy="177.9" r="5" style="fill:#383A48;"/>
				</g>
			</g>
		</g>
		<g>
			<g>
				<g>
					<circle cx="252" cy="202.6" r="5" style="fill:#383A48;"/>
				</g>
			</g>
		</g>
		<g>
			<g>
				<g>
					<circle cx="252" cy="227.3" r="5" style="fill:#383A48;"/>
				</g>
			</g>
		</g>
		<g>
			<g>
				<g>
					<circle cx="252" cy="252" r="5" style="fill:#383A48;"/>
				</g>
			</g>
		</g>
		<g>
			<g>
				<g>
					<circle cx="252" cy="276.7" r="5" style="fill:#383A48;"/>
				</g>
			</g>
		</g>
		<g>
			<g>
				<g>
					<circle cx="252" cy="301.4" r="5" style="fill:#383A48;"/>
				</g>
			</g>
		</g>
		<g>
			<g>
				<g>
					<circle cx="252" cy="326.1" r="5" style="fill:#383A48;"/>
				</g>
			</g>
		</g>
		<g>
			<g>
				<g>
					<circle cx="227.3" cy="5" r="5" style="fill:#383A48;"/>
				</g>
			</g>
		</g>
		<g>
			<g>
				<g>
					<circle cx="227.3" cy="29.7" r="5" style="fill:#383A48;"/>
				</g>
			</g>
		</g>
		<g>
			<g>
				<g>
					<circle cx="227.3" cy="54.4" r="5" style="fill:#383A48;"/>
				</g>
			</g>
		</g>
		<g>
			<g>
				<g>
					<circle cx="227.3" cy="79.1" r="5" style="fill:#383A48;"/>
				</g>
			</g>
		</g>
		<g>
			<g>
				<g>
					<circle cx="227.3" cy="103.8" r="5" style="fill:#383A48;"/>
				</g>
			</g>
		</g>
		<g>
			<g>
				<g>
					<circle cx="227.3" cy="128.5" r="5" style="fill:#383A48;"/>
				</g>
			</g>
		</g>
		<g>
			<g>
				<g>
					<circle cx="227.3" cy="153.2" r="5" style="fill:#383A48;"/>
				</g>
			</g>
		</g>
		<g>
			<g>
				<g>
					<circle cx="227.3" cy="177.9" r="5" style="fill:#383A48;"/>
				</g>
			</g>
		</g>
		<g>
			<g>
				<g>
					<circle cx="227.3" cy="202.6" r="5" style="fill:#383A48;"/>
				</g>
			</g>
		</g>
		<g>
			<g>
				<g>
					<circle cx="227.3" cy="227.3" r="5" style="fill:#383A48;"/>
				</g>
			</g>
		</g>
		<g>
			<g>
				<g>
					<circle cx="227.3" cy="252" r="5" style="fill:#383A48;"/>
				</g>
			</g>
		</g>
		<g>
			<g>
				<g>
					<circle cx="227.3" cy="276.7" r="5" style="fill:#383A48;"/>
				</g>
			</g>
		</g>
		<g>
			<g>
				<g>
					<circle cx="227.3" cy="301.4" r="5" style="fill:#383A48;"/>
				</g>
			</g>
		</g>
		<g>
			<g>
				<g>
					<circle cx="227.3" cy="326.1" r="5" style="fill:#383A48;"/>
				</g>
			</g>
		</g>
		<g>
			<g>
				<g>
					<circle cx="202.6" cy="5" r="5" style="fill:#383A48;"/>
				</g>
			</g>
		</g>
		<g>
			<g>
				<g>
					<circle cx="202.6" cy="29.7" r="5" style="fill:#383A48;"/>
				</g>
			</g>
		</g>
		<g>
			<g>
				<g>
					<circle cx="202.6" cy="54.4" r="5" style="fill:#383A48;"/>
				</g>
			</g>
		</g>
		<g>
			<g>
				<g>
					<circle cx="202.6" cy="79.1" r="5" style="fill:#383A48;"/>
				</g>
			</g>
		</g>
		<g>
			<g>
				<g>
					<circle cx="202.6" cy="103.8" r="5" style="fill:#383A48;"/>
				</g>
			</g>
		</g>
		<g>
			<g>
				<g>
					<circle cx="202.6" cy="128.5" r="5" style="fill:#383A48;"/>
				</g>
			</g>
		</g>
		<g>
			<g>
				<g>
					<circle cx="202.6" cy="153.2" r="5" style="fill:#383A48;"/>
				</g>
			</g>
		</g>
		<g>
			<g>
				<g>
					<circle cx="202.6" cy="177.9" r="5" style="fill:#383A48;"/>
				</g>
			</g>
		</g>
		<g>
			<g>
				<g>
					<circle cx="202.6" cy="202.6" r="5" style="fill:#383A48;"/>
				</g>
			</g>
		</g>
		<g>
			<g>
				<g>
					<circle cx="202.6" cy="227.3" r="5" style="fill:#383A48;"/>
				</g>
			</g>
		</g>
		<g>
			<g>
				<g>
					<circle cx="202.6" cy="252" r="5" style="fill:#383A48;"/>
				</g>
			</g>
		</g>
		<g>
			<g>
				<g>
					<circle cx="202.6" cy="276.7" r="5" style="fill:#383A48;"/>
				</g>
			</g>
		</g>
		<g>
			<g>
				<g>
					<circle cx="202.6" cy="301.4" r="5" style="fill:#383A48;"/>
				</g>
			</g>
		</g>
		<g>
			<g>
				<g>
					<circle cx="202.6" cy="326.1" r="5" style="fill:#383A48;"/>
				</g>
			</g>
		</g>
		<g>
			<g>
				<g>
					<circle cx="177.9" cy="5" r="5" style="fill:#383A48;"/>
				</g>
			</g>
		</g>
		<g>
			<g>
				<g>
					<circle cx="177.9" cy="29.7" r="5" style="fill:#383A48;"/>
				</g>
			</g>
		</g>
		<g>
			<g>
				<g>
					<circle cx="177.9" cy="54.4" r="5" style="fill:#383A48;"/>
				</g>
			</g>
		</g>
		<g>
			<g>
				<g>
					<circle cx="177.9" cy="79.1" r="5" style="fill:#383A48;"/>
				</g>
			</g>
		</g>
		<g>
			<g>
				<g>
					<circle cx="177.9" cy="103.8" r="5" style="fill:#383A48;"/>
				</g>
			</g>
		</g>
		<g>
			<g>
				<g>
					<circle cx="177.9" cy="128.5" r="5" style="fill:#383A48;"/>
				</g>
			</g>
		</g>
		<g>
			<g>
				<g>
					<circle cx="177.9" cy="153.2" r="5" style="fill:#383A48;"/>
				</g>
			</g>
		</g>
		<g>
			<g>
				<g>
					<circle cx="177.9" cy="177.9" r="5" style="fill:#383A48;"/>
				</g>
			</g>
		</g>
		<g>
			<g>
				<g>
					<circle cx="177.9" cy="202.6" r="5" style="fill:#383A48;"/>
				</g>
			</g>
		</g>
		<g>
			<g>
				<g>
					<circle cx="177.9" cy="227.3" r="5" style="fill:#383A48;"/>
				</g>
			</g>
		</g>
		<g>
			<g>
				<g>
					<circle cx="177.9" cy="252" r="5" style="fill:#383A48;"/>
				</g>
			</g>
		</g>
		<g>
			<g>
				<g>
					<circle cx="177.9" cy="276.7" r="5" style="fill:#383A48;"/>
				</g>
			</g>
		</g>
		<g>
			<g>
				<g>
					<circle cx="177.9" cy="301.4" r="5" style="fill:#383A48;"/>
				</g>
			</g>
		</g>
		<g>
			<g>
				<g>
					<circle cx="177.9" cy="326.1" r="5" style="fill:#383A48;"/>
				</g>
			</g>
		</g>
		<g>
			<g>
				<g>
					<circle cx="153.2" cy="5" r="5" style="fill:#383A48;"/>
				</g>
			</g>
		</g>
		<g>
			<g>
				<g>
					<circle cx="153.2" cy="29.7" r="5" style="fill:#383A48;"/>
				</g>
			</g>
		</g>
		<g>
			<g>
				<g>
					<circle cx="153.2" cy="54.4" r="5" style="fill:#383A48;"/>
				</g>
			</g>
		</g>
		<g>
			<g>
				<g>
					<circle cx="153.2" cy="79.1" r="5" style="fill:#383A48;"/>
				</g>
			</g>
		</g>
		<g>
			<g>
				<g>
					<circle cx="153.2" cy="103.8" r="5" style="fill:#383A48;"/>
				</g>
			</g>
		</g>
		<g>
			<g>
				<g>
					<circle cx="153.2" cy="128.5" r="5" style="fill:#383A48;"/>
				</g>
			</g>
		</g>
		<g>
			<g>
				<g>
					<circle cx="153.2" cy="153.2" r="5" style="fill:#383A48;"/>
				</g>
			</g>
		</g>
		<g>
			<g>
				<g>
					<circle cx="153.2" cy="177.9" r="5" style="fill:#383A48;"/>
				</g>
			</g>
		</g>
		<g>
			<g>
				<g>
					<circle cx="153.2" cy="202.6" r="5" style="fill:#383A48;"/>
				</g>
			</g>
		</g>
		<g>
			<g>
				<g>
					<circle cx="153.2" cy="227.3" r="5" style="fill:#383A48;"/>
				</g>
			</g>
		</g>
		<g>
			<g>
				<g>
					<circle cx="153.2" cy="252" r="5" style="fill:#383A48;"/>
				</g>
			</g>
		</g>
		<g>
			<g>
				<g>
					<circle cx="153.2" cy="276.7" r="5" style="fill:#383A48;"/>
				</g>
			</g>
		</g>
		<g>
			<g>
				<g>
					<circle cx="153.2" cy="301.4" r="5" style="fill:#383A48;"/>
				</g>
			</g>
		</g>
		<g>
			<g>
				<g>
					<circle cx="153.2" cy="326.1" r="5" style="fill:#383A48;"/>
				</g>
			</g>
		</g>
		<g>
			<g>
				<g>
					<circle cx="128.5" cy="5" r="5" style="fill:#383A48;"/>
				</g>
			</g>
		</g>
		<g>
			<g>
				<g>
					<circle cx="128.5" cy="29.7" r="5" style="fill:#383A48;"/>
				</g>
			</g>
		</g>
		<g>
			<g>
				<g>
					<circle cx="128.5" cy="54.4" r="5" style="fill:#383A48;"/>
				</g>
			</g>
		</g>
		<g>
			<g>
				<g>
					<circle cx="128.5" cy="79.1" r="5" style="fill:#383A48;"/>
				</g>
			</g>
		</g>
		<g>
			<g>
				<g>
					<circle cx="128.5" cy="103.8" r="5" style="fill:#383A48;"/>
				</g>
			</g>
		</g>
		<g>
			<g>
				<g>
					<circle cx="128.5" cy="128.5" r="5" style="fill:#383A48;"/>
				</g>
			</g>
		</g>
		<g>
			<g>
				<g>
					<circle cx="128.5" cy="153.2" r="5" style="fill:#383A48;"/>
				</g>
			</g>
		</g>
		<g>
			<g>
				<g>
					<circle cx="128.5" cy="177.9" r="5" style="fill:#383A48;"/>
				</g>
			</g>
		</g>
		<g>
			<g>
				<g>
					<circle cx="128.5" cy="202.6" r="5" style="fill:#383A48;"/>
				</g>
			</g>
		</g>
		<g>
			<g>
				<g>
					<circle cx="128.5" cy="227.3" r="5" style="fill:#383A48;"/>
				</g>
			</g>
		</g>
		<g>
			<g>
				<g>
					<circle cx="128.5" cy="252" r="5" style="fill:#383A48;"/>
				</g>
			</g>
		</g>
		<g>
			<g>
				<g>
					<circle cx="128.5" cy="276.7" r="5" style="fill:#383A48;"/>
				</g>
			</g>
		</g>
		<g>
			<g>
				<g>
					<circle cx="128.5" cy="301.4" r="5" style="fill:#383A48;"/>
				</g>
			</g>
		</g>
		<g>
			<g>
				<g>
					<circle cx="128.5" cy="326.1" r="5" style="fill:#383A48;"/>
				</g>
			</g>
		</g>
		<g>
			<g>
				<g>
					<circle cx="103.8" cy="5" r="5" style="fill:#383A48;"/>
				</g>
			</g>
		</g>
		<g>
			<g>
				<g>
					<circle cx="103.8" cy="29.7" r="5" style="fill:#383A48;"/>
				</g>
			</g>
		</g>
		<g>
			<g>
				<g>
					<circle cx="103.8" cy="54.4" r="5" style="fill:#383A48;"/>
				</g>
			</g>
		</g>
		<g>
			<g>
				<g>
					<circle cx="103.8" cy="79.1" r="5" style="fill:#383A48;"/>
				</g>
			</g>
		</g>
		<g>
			<g>
				<g>
					<circle cx="103.8" cy="103.8" r="5" style="fill:#383A48;"/>
				</g>
			</g>
		</g>
		<g>
			<g>
				<g>
					<circle cx="103.8" cy="128.5" r="5" style="fill:#383A48;"/>
				</g>
			</g>
		</g>
		<g>
			<g>
				<g>
					<circle cx="103.8" cy="153.2" r="5" style="fill:#383A48;"/>
				</g>
			</g>
		</g>
		<g>
			<g>
				<g>
					<circle cx="103.8" cy="177.9" r="5" style="fill:#383A48;"/>
				</g>
			</g>
		</g>
		<g>
			<g>
				<g>
					<circle cx="103.8" cy="202.6" r="5" style="fill:#383A48;"/>
				</g>
			</g>
		</g>
		<g>
			<g>
				<g>
					<circle cx="103.8" cy="227.3" r="5" style="fill:#383A48;"/>
				</g>
			</g>
		</g>
		<g>
			<g>
				<g>
					<circle cx="103.8" cy="252" r="5" style="fill:#383A48;"/>
				</g>
			</g>
		</g>
		<g>
			<g>
				<g>
					<circle cx="103.8" cy="276.7" r="5" style="fill:#383A48;"/>
				</g>
			</g>
		</g>
		<g>
			<g>
				<g>
					<circle cx="103.8" cy="301.4" r="5" style="fill:#383A48;"/>
				</g>
			</g>
		</g>
		<g>
			<g>
				<g>
					<circle cx="103.8" cy="326.1" r="5" style="fill:#383A48;"/>
				</g>
			</g>
		</g>
		<g>
			<g>
				<g>
					<circle cx="79.1" cy="5" r="5" style="fill:#383A48;"/>
				</g>
			</g>
		</g>
		<g>
			<g>
				<g>
					<circle cx="79.1" cy="29.7" r="5" style="fill:#383A48;"/>
				</g>
			</g>
		</g>
		<g>
			<g>
				<g>
					<circle cx="79.1" cy="54.4" r="5" style="fill:#383A48;"/>
				</g>
			</g>
		</g>
		<g>
			<g>
				<g>
					<circle cx="79.1" cy="79.1" r="5" style="fill:#383A48;"/>
				</g>
			</g>
		</g>
		<g>
			<g>
				<g>
					<circle cx="79.1" cy="103.8" r="5" style="fill:#383A48;"/>
				</g>
			</g>
		</g>
		<g>
			<g>
				<g>
					<circle cx="79.1" cy="128.5" r="5" style="fill:#383A48;"/>
				</g>
			</g>
		</g>
		<g>
			<g>
				<g>
					<circle cx="79.1" cy="153.2" r="5" style="fill:#383A48;"/>
				</g>
			</g>
		</g>
		<g>
			<g>
				<g>
					<circle cx="79.1" cy="177.9" r="5" style="fill:#383A48;"/>
				</g>
			</g>
		</g>
		<g>
			<g>
				<g>
					<circle cx="79.1" cy="202.6" r="5" style="fill:#383A48;"/>
				</g>
			</g>
		</g>
		<g>
			<g>
				<g>
					<circle cx="79.1" cy="227.3" r="5" style="fill:#383A48;"/>
				</g>
			</g>
		</g>
		<g>
			<g>
				<g>
					<circle cx="79.1" cy="252" r="5" style="fill:#383A48;"/>
				</g>
			</g>
		</g>
		<g>
			<g>
				<g>
					<circle cx="79.1" cy="276.7" r="5" style="fill:#383A48;"/>
				</g>
			</g>
		</g>
		<g>
			<g>
				<g>
					<circle cx="79.1" cy="301.4" r="5" style="fill:#383A48;"/>
				</g>
			</g>
		</g>
		<g>
			<g>
				<g>
					<circle cx="79.1" cy="326.1" r="5" style="fill:#383A48;"/>
				</g>
			</g>
		</g>
		<g>
			<g>
				<g>
					<circle cx="54.4" cy="5" r="5" style="fill:#383A48;"/>
				</g>
			</g>
		</g>
		<g>
			<g>
				<g>
					<circle cx="54.4" cy="29.7" r="5" style="fill:#383A48;"/>
				</g>
			</g>
		</g>
		<g>
			<g>
				<g>
					<circle cx="54.4" cy="54.4" r="5" style="fill:#383A48;"/>
				</g>
			</g>
		</g>
		<g>
			<g>
				<g>
					<circle cx="54.4" cy="79.1" r="5" style="fill:#383A48;"/>
				</g>
			</g>
		</g>
		<g>
			<g>
				<g>
					<circle cx="54.4" cy="103.8" r="5" style="fill:#383A48;"/>
				</g>
			</g>
		</g>
		<g>
			<g>
				<g>
					<circle cx="54.4" cy="128.5" r="5" style="fill:#383A48;"/>
				</g>
			</g>
		</g>
		<g>
			<g>
				<g>
					<circle cx="54.4" cy="153.2" r="5" style="fill:#383A48;"/>
				</g>
			</g>
		</g>
		<g>
			<g>
				<g>
					<circle cx="54.4" cy="177.9" r="5" style="fill:#383A48;"/>
				</g>
			</g>
		</g>
		<g>
			<g>
				<g>
					<circle cx="54.4" cy="202.6" r="5" style="fill:#383A48;"/>
				</g>
			</g>
		</g>
		<g>
			<g>
				<g>
					<circle cx="54.4" cy="227.3" r="5" style="fill:#383A48;"/>
				</g>
			</g>
		</g>
		<g>
			<g>
				<g>
					<circle cx="54.4" cy="252" r="5" style="fill:#383A48;"/>
				</g>
			</g>
		</g>
		<g>
			<g>
				<g>
					<circle cx="54.4" cy="276.7" r="5" style="fill:#383A48;"/>
				</g>
			</g>
		</g>
		<g>
			<g>
				<g>
					<circle cx="54.4" cy="301.4" r="5" style="fill:#383A48;"/>
				</g>
			</g>
		</g>
		<g>
			<g>
				<g>
					<circle cx="54.4" cy="326.1" r="5" style="fill:#383A48;"/>
				</g>
			</g>
		</g>
		<g>
			<g>
				<g>
					<circle cx="29.7" cy="5" r="5" style="fill:#383A48;"/>
				</g>
			</g>
		</g>
		<g>
			<g>
				<g>
					<circle cx="29.7" cy="29.7" r="5" style="fill:#383A48;"/>
				</g>
			</g>
		</g>
		<g>
			<g>
				<g>
					<circle cx="29.7" cy="54.4" r="5" style="fill:#383A48;"/>
				</g>
			</g>
		</g>
		<g>
			<g>
				<g>
					<circle cx="29.7" cy="79.1" r="5" style="fill:#383A48;"/>
				</g>
			</g>
		</g>
		<g>
			<g>
				<g>
					<circle cx="29.7" cy="103.8" r="5" style="fill:#383A48;"/>
				</g>
			</g>
		</g>
		<g>
			<g>
				<g>
					<circle cx="29.7" cy="128.5" r="5" style="fill:#383A48;"/>
				</g>
			</g>
		</g>
		<g>
			<g>
				<g>
					<circle cx="29.7" cy="153.2" r="5" style="fill:#383A48;"/>
				</g>
			</g>
		</g>
		<g>
			<g>
				<g>
					<circle cx="29.7" cy="177.9" r="5" style="fill:#383A48;"/>
				</g>
			</g>
		</g>
		<g>
			<g>
				<g>
					<circle cx="29.7" cy="202.6" r="5" style="fill:#383A48;"/>
				</g>
			</g>
		</g>
		<g>
			<g>
				<g>
					<circle cx="29.7" cy="227.3" r="5" style="fill:#383A48;"/>
				</g>
			</g>
		</g>
		<g>
			<g>
				<g>
					<circle cx="29.7" cy="252" r="5" style="fill:#383A48;"/>
				</g>
			</g>
		</g>
		<g>
			<g>
				<g>
					<circle cx="29.7" cy="276.7" r="5" style="fill:#383A48;"/>
				</g>
			</g>
		</g>
		<g>
			<g>
				<g>
					<circle cx="29.7" cy="301.4" r="5" style="fill:#383A48;"/>
				</g>
			</g>
		</g>
		<g>
			<g>
				<g>
					<circle cx="29.7" cy="326.1" r="5" style="fill:#383A48;"/>
				</g>
			</g>
		</g>
		<g>
			<g>
				<g>
					<circle cx="5" cy="5" r="5" style="fill:#383A48;"/>
				</g>
			</g>
		</g>
		<g>
			<g>
				<g>
					<circle cx="5" cy="29.7" r="5" style="fill:#383A48;"/>
				</g>
			</g>
		</g>
		<g>
			<g>
				<g>
					<circle cx="5" cy="54.4" r="5" style="fill:#383A48;"/>
				</g>
			</g>
		</g>
		<g>
			<g>
				<g>
					<circle cx="5" cy="79.1" r="5" style="fill:#383A48;"/>
				</g>
			</g>
		</g>
		<g>
			<g>
				<g>
					<circle cx="5" cy="103.8" r="5" style="fill:#383A48;"/>
				</g>
			</g>
		</g>
		<g>
			<g>
				<g>
					<circle cx="5" cy="128.5" r="5" style="fill:#383A48;"/>
				</g>
			</g>
		</g>
		<g>
			<g>
				<g>
					<circle cx="5" cy="153.2" r="5" style="fill:#383A48;"/>
				</g>
			</g>
		</g>
		<g>
			<g>
				<g>
					<circle cx="5" cy="177.9" r="5" style="fill:#383A48;"/>
				</g>
			</g>
		</g>
		<g>
			<g>
				<g>
					<circle cx="5" cy="202.6" r="5" style="fill:#383A48;"/>
				</g>
			</g>
		</g>
		<g>
			<g>
				<g>
					<circle cx="5" cy="227.3" r="5" style="fill:#383A48;"/>
				</g>
			</g>
		</g>
		<g>
			<g>
				<g>
					<circle cx="5" cy="252" r="5" style="fill:#383A48;"/>
				</g>
			</g>
		</g>
		<g>
			<g>
				<g>
					<circle cx="5" cy="276.7" r="5" style="fill:#383A48;"/>
				</g>
			</g>
		</g>
		<g>
			<g>
				<g>
					<circle cx="5" cy="301.4" r="5" style="fill:#383A48;"/>
				</g>
			</g>
		</g>
		<g>
			<g>
				<g>
					<circle cx="5" cy="326.1" r="5" style="fill:#383A48;"/>
				</g>
			</g>
		</g>
	</g>
</g>

</g>
</g>

<!-- ITEM 1 -->
<g transform="translate(276.0 241.0) scale(1.7880627212948914 1.7808764940239044) rotate(353.60286313790783 197.69999999999996 251.00000000000003)">
<g transform="translate(-0.0 -0.0)">


<g id="Layer_1_1_-i1">
	<g>
		<g>
			<polygon points="390.4,497 5,497 5,5 262.3,5 390.2,132.9    " style="fill:#F3F6E6;"/>
			<path d="M390.4,502H5c-2.8,0-5-2.2-5-5V5c0-2.8,2.2-5,5-5h257.3c1.3,0,2.6,0.5,3.5,1.5l127.9,127.9     c0.9,0.9,1.5,2.2,1.5,3.5l0.2,364.1c0,1.3-0.5,2.6-1.5,3.5C393,501.5,391.7,502,390.4,502z M10,492h375.4l-0.2-357l-125-125H10     V492z" style="fill:#383A48;"/>
		</g>
		<g>
			<polygon points="262.3,5 390.4,132.9 262.3,132.9    " style="fill:#F3F6E6;"/>
			<path d="M390.4,137.9H262.3c-2.8,0-5-2.2-5-5V5c0-2,1.2-3.8,3.1-4.6c1.9-0.8,4-0.3,5.4,1.1l128.1,127.9     c1.4,1.4,1.9,3.6,1.1,5.4S392.4,137.9,390.4,137.9z M267.3,127.9h111l-111-110.8V127.9z" style="fill:#383A48;"/>
		</g>
	</g>
</g>
<g id="Isolation_Mode-i1">
</g>

</g>
</g>

<!-- ITEM 2 -->
<g transform="translate(529.0 706.0) scale(0.8991318726746589 0.9010408575423333) rotate(338.18874335113134 241.9 321.85)">
<g transform="translate(-0.0 -0.0)">


<g>
	<g>
		<path d="M460.8,197.5c-1.4,0-2.7-0.2-4.1-0.6c-41-11.6-73.9-29.5-97.5-53.2c-6.5-6.5-11.9-13-16.3-19.4    c-26.3,23.8-57,43.9-85.7,55.9c-22.2,9.3-40.6,12.9-55.7,12.9c-22.7,0-38.2-8-48.2-16.8c-12.7-11.1-21-24.2-26.1-37.9    c-10.6,5.1-21.7,9.2-32.6,11.9c-32.1,8-59.9,3.9-80.5-11.7c-6.6-5-7.9-14.4-2.9-21s14.4-7.9,21-2.9c9.2,7,26.2,13.7,55.2,6.5    c11.2-2.8,22.8-7.5,33.7-13.4c-0.8-14.6,1.3-28.7,4.9-40.4c7.6-24.5,21.6-40.2,37.4-42c16.1-1.8,25.4,11,28.7,16.6    c11.5,19.8,2.2,46.1-25.1,70.2c-4.2,3.7-8.7,7.3-13.4,10.6c3,10.6,8.7,21.6,19.4,30.9c19.8,17.2,54,6.7,72.7-1.1    c27.6-11.6,57.6-31.7,82.6-55.5c-3.1-8.1-4.9-15.5-6-21.8c-5-29.5,3.2-56.6,20.9-68.9C354.9-1.7,369-2.2,382,5.2    c12.2,7,18.5,18.9,17.6,33.5c-1.4,22.2-19,46.5-34.9,64.1c4,6.4,9.2,13.1,15.9,19.8c20,20,48.4,35.3,84.5,45.5    c8,2.3,12.6,10.5,10.4,18.5C473.4,193.2,467.4,197.5,460.8,197.5z M165.5,56.1c-3.6,3.2-9.9,12.8-13,28.3    c12.1-12.3,16.2-23,13.6-27.4C165.9,56.7,165.7,56.4,165.5,56.1z M363,30c-1.2,0-2,0.5-2.8,1c-5.2,3.6-12.1,17.5-8.5,39.3    c0,0.3,0.1,0.6,0.1,0.8c12-15.5,17.1-27.5,17.5-34.3c0.2-4-1-4.8-2.5-5.6C365.3,30.3,364,30,363,30z" style="fill:#E0719E;"/>
	</g>
	<g>
		
			<rect x="13" y="361.4" transform="matrix(0.7071 -0.7071 0.7071 0.7071 -240.1214 277.5747)" width="404" height="134.4" style="fill:#F6E049;"/>
		<path d="M119.7,624c-1.3,0-2.6-0.5-3.5-1.5l-95-95c-0.9-0.9-1.5-2.2-1.5-3.5s0.5-2.6,1.5-3.5l285.7-285.7    c2-2,5.1-2,7.1,0l95,95c0.9,0.9,1.5,2.2,1.5,3.5s-0.5,2.6-1.5,3.5L123.2,622.5C122.2,623.5,121,624,119.7,624z M31.7,523.9l88,88    l278.6-278.6l-88-88L31.7,523.9z" style="fill:#383A48;"/>
	</g>
	<g>
		<circle cx="72.2" cy="571.5" r="67.2" style="fill:#E0719E;"/>
		<path d="M72.2,643.7c-19.3,0-37.4-7.5-51.1-21.1C7.5,609,0,590.8,0,571.5s7.5-37.4,21.1-51.1    c28.2-28.1,74-28.2,102.1,0c13.6,13.6,21.1,31.8,21.1,51.1s-7.5,37.4-21.1,51.1C109.6,636.2,91.4,643.7,72.2,643.7z M72.2,509.3    c-15.9,0-31.9,6.1-44,18.2c-24.3,24.3-24.3,63.7,0,88s63.7,24.3,88,0s24.3-63.7,0-88C104,515.4,88.1,509.3,72.2,509.3z" style="fill:#383A48;"/>
	</g>
	<g>
		
			<rect x="350.1" y="199.8" transform="matrix(0.7071 -0.7071 0.7071 0.7071 -78.5284 344.5087)" width="53" height="134.4" style="fill:#E0719E;"/>
		<path d="M405.4,338.3c-1.3,0-2.6-0.5-3.5-1.5l-95-95c-2-2-2-5.1,0-7.1l37.5-37.5c0.9-0.9,2.2-1.5,3.5-1.5    s2.6,0.5,3.5,1.5l95,95c2,2,2,5.1,0,7.1l-37.5,37.5C407.9,337.8,406.6,338.3,405.4,338.3z M317.4,238.3l88,88l30.4-30.4l-88-88    L317.4,238.3z" style="fill:#383A48;"/>
	</g>
	<g>
		<polygon points="435.5,288.5 355.2,208.1 461.3,164.8 478.9,182.3   " style="fill:#E0719E;"/>
		<path d="M435.5,293.5c-1.3,0-2.6-0.5-3.5-1.5l-80.4-80.4c-1.2-1.2-1.7-2.9-1.4-4.5s1.5-3,3-3.6l106.1-43.3    c1.9-0.8,4-0.3,5.4,1.1l17.6,17.6c1.4,1.4,1.9,3.6,1.1,5.4l-43.3,106.1c-0.6,1.5-2,2.7-3.6,3C436.2,293.4,435.8,293.5,435.5,293.5    z M364,209.9l69.7,69.7l39.2-96.1L460,170.6L364,209.9z" style="fill:#383A48;"/>
	</g>
	<g>
		
			<rect x="287.7" y="262.7" transform="matrix(0.7071 -0.7071 0.7071 0.7071 -141.4402 318.3963)" width="51.9" height="134.4" style="fill:#F6E049;"/>
		<path d="M342.8,400.9c-1.3,0-2.6-0.5-3.5-1.5l-95-95c-2-2-2-5.1,0-7.1l36.6-36.7c2-2,5.1-2,7.1,0l95,95    c0.9,0.9,1.5,2.2,1.5,3.5s-0.5,2.6-1.5,3.5l-36.7,36.7C345.4,400.4,344.1,400.9,342.8,400.9z M254.8,300.8l88,88l29.7-29.7l-88-88    L254.8,300.8z" style="fill:#383A48;"/>
	</g>
	<g>
		<path d="M251.5,433.1l-57.3,57.3c-12.1,12.1-31.8,12.1-44,0l0,0c-12.1-12.1-12.1-31.8,0-44l57.3-57.3    c12.1-12.1,31.8-12.1,44,0l0,0C263.7,401.3,263.7,421,251.5,433.1z" style="fill:#E0719E;"/>
	</g>
</g>

</g>
</g>

              </svg>