<?xml version="1.0" encoding="UTF-8"?><svg version="1.1" id="Calque_1" xmlns:serif="http://www.serif.com/" xmlns="http://www.w3.org/2000/svg" xmlns:xlink="http://www.w3.org/1999/xlink" x="0px" y="0px" viewBox="0 0 800 800" style="enable-background:new 0 0 800 800;" xml:space="preserve" width="800px" height="800px">

<g id="Calque7">
	<g>
		<path d="M736.4,617.3H62.4c-1.2,0-2.1,0.9-2.1,2.1c0,1.2,0.9,2.1,2.1,2.1h674.1c1.2,0,2.1-0.9,2.1-2.1
			C738.6,618.2,737.6,617.3,736.4,617.3z" style="fill:#142664;"/>
		<path d="M127.8,410.7c-2.9,0-5.2,2.3-5.2,5.2c0,13.9,0,51.2,0,60.6c0,1.4,0.5,2.7,1.5,3.7
			c4.2,4.2,15.9,15.9,15.9,15.9h76.6c0,0,11.7-11.7,15.9-15.9c1-1,1.5-2.3,1.5-3.7c0-9.4,0-46.7,0-60.6c0-2.9-2.3-5.2-5.2-5.2
			C210.2,410.7,146.5,410.7,127.8,410.7L127.8,410.7z" style="fill:#00E6B3;"/>
		<circle cx="215.7" cy="426.9" r="7.3" style="fill:#142664;"/>
		<g>
			<path d="M167.9,419.9c0-0.7-0.3-1.3-0.7-1.8c-0.5-0.5-1.1-0.7-1.8-0.7c-7,0-26.7,0-33.7,0c-0.7,0-1.3,0.3-1.8,0.7
				c-0.5,0.5-0.7,1.1-0.7,1.8c0,5.5,0,18.5,0,24.1c0,0.7,0.3,1.3,0.7,1.8c0.5,0.5,1.1,0.7,1.8,0.7c7,0,26.7,0,33.7,0
				c0.7,0,1.3-0.3,1.8-0.7c0.5-0.5,0.7-1.1,0.7-1.8C167.9,438.4,167.9,425.4,167.9,419.9z" style="fill:#FFFFFF;"/>
			<g>
				<path d="M163.1,427.7c0.4-0.4,0.4-1.1,0-1.5c-1.2-1.2-3.4-3.4-4.5-4.5c-0.4-0.4-1.1-0.4-1.5,0
					c-1.2,1.2-3.4,3.4-4.5,4.5c-0.4,0.4-0.4,1.1,0,1.5c1.2,1.2,3.4,3.4,4.5,4.5c0.4,0.4,1.1,0.4,1.5,0
					C159.8,431.1,162,428.9,163.1,427.7z" style="fill:#FF2E93;"/>
				<path d="M148.4,431.7c0-0.3-0.1-0.6-0.3-0.8c-0.2-0.2-0.5-0.3-0.8-0.3c-2.6,0-9.3,0-11.9,0c-0.3,0-0.6,0.1-0.8,0.3
					c-0.2,0.2-0.3,0.5-0.3,0.8c0,2.2,0,7.2,0,9.4c0,0.3,0.1,0.6,0.3,0.8c0.2,0.2,0.5,0.3,0.8,0.3c2.6,0,9.3,0,11.9,0
					c0.3,0,0.6-0.1,0.8-0.3c0.2-0.2,0.3-0.5,0.3-0.8C148.4,439,148.4,433.9,148.4,431.7z" style="fill:#00E6B3;"/>
				<path d="M148.4,422.6c0-0.6-0.5-1.1-1.1-1.1c-2.6,0-9.3,0-11.9,0c-0.6,0-1.1,0.5-1.1,1.1c0,0.7,0,1.5,0,2.2
					c0,0.6,0.5,1.1,1.1,1.1c2.6,0,9.3,0,11.9,0c0.6,0,1.1-0.5,1.1-1.1C148.4,424.2,148.4,423.3,148.4,422.6z" style="fill:#142664;"/>
			</g>
		</g>
		<path d="M223.4,502.2c0-3.3-2.7-6.1-6.1-6.1c-16.3,0-61.1,0-77.4,0c-3.3,0-6.1,2.7-6.1,6.1c0,0,0,0,0,0L223.4,502.2
			L223.4,502.2z" style="fill:#142664;"/>
		<path d="M140.2,617.5V502.2h87.3c2.2,0,4,1.8,4,4c0,17.8,0,89.7,0,107.4c0,2.2-1.8,4-4,4H140.2z" style="fill:#142664;"/>
		<path d="M88.3,617.5c-2.2,0-4-1.8-4-4c0-13.4,0-56.3,0-65.3c0-1.1,0.4-2.1,1.2-2.8c6.3-6.3,35.8-35.8,42.1-42.1
			c0.7-0.7,1.8-1.2,2.8-1.2c11.1,0,74.2,0,74.2,0s-35,35-42.9,42.9c-1,1-1.6,2.4-1.6,3.8c0,12,0,68.7,0,68.7H88.3z" style="fill:#FF2E93;"/>
		<path d="M699,547.3c0-7.4-6-13.3-13.3-13.3c-63.7,0-336.9,0-400.7,0c-7.4,0-13.3,6-13.3,13.3c0,14.6,0,36.1,0,36.1
			H699L699,547.3L699,547.3z" style="fill:#FFFFFF;"/>
		<path d="M701.1,573.8v-26.5c0-8.5-6.9-15.4-15.4-15.4c-63.7,0-336.9,0-400.7,0c-8.5,0-15.4,6.9-15.4,15.4
			c0,11.6,0,26.5,0,26.5c0,1.2,0.9,2.1,2.1,2.1c1.2,0,2.1-0.9,2.1-2.1c0,0,0-15,0-26.5c0-6.2,5-11.2,11.2-11.2
			c63.7,0,336.9,0,400.7,0c6.2,0,11.2,5,11.2,11.2v26.5c0,1.2,0.9,2.1,2.1,2.1S701.1,575,701.1,573.8z" style="fill:#142664;"/>
		<path d="M256.3,598.2h-51.9c-4.1,0-7.4,3.3-7.4,7.4c0,4.1,3.3,7.4,7.4,7.4h51.9c4.1,0,7.4-3.3,7.4-7.4
			C263.7,601.5,260.4,598.2,256.3,598.2z" style="fill:#00E6B3;"/>
		<path d="M211.9,598.2c-2.6,1.5-4.4,4.2-4.4,7.4c0,3.2,1.8,5.9,4.4,7.4h-6.2c-1.5-2.1-2.4-4.6-2.4-7.4
			c0-2.8,0.9-5.3,2.4-7.4H211.9z" style="fill:#142664;"/>
		<path d="M223.7,598.2c-2.6,1.5-4.4,4.2-4.4,7.4c0,3.2,1.8,5.9,4.4,7.4h-6.2c-1.5-2.1-2.4-4.6-2.4-7.4
			c0-2.8,0.9-5.3,2.4-7.4H223.7z" style="fill:#142664;"/>
		<path d="M235.5,598.2c-2.6,1.5-4.4,4.2-4.4,7.4c0,3.2,1.8,5.9,4.4,7.4h-6.2c-1.5-2.1-2.4-4.6-2.4-7.4
			c0-2.8,0.9-5.3,2.4-7.4H235.5z" style="fill:#142664;"/>
		<path d="M247.3,598.2c-2.6,1.5-4.4,4.2-4.4,7.4c0,3.2,1.8,5.9,4.4,7.4H241c-1.5-2.1-2.4-4.6-2.4-7.4
			c0-2.8,0.9-5.3,2.4-7.4H247.3z" style="fill:#142664;"/>
		<path d="M254.1,586.9h-53.6c-1.8,0-3.2,1.4-3.2,3.2c0,1.8,1.4,3.2,3.2,3.2h53.6c1.8,0,3.2-1.4,3.2-3.2
			C257.3,588.4,255.9,586.9,254.1,586.9z" style="fill:#FF2E93;"/>
		<path d="M254.1,584.8h-7.8c-2.9,0-5.3,2.4-5.3,5.3c0,2.9,2.4,5.3,5.3,5.3h7.8c2.9,0,5.3-2.4,5.3-5.3
			C259.4,587.2,257.1,584.8,254.1,584.8z" style="fill:#142664;"/>
		<path d="M358.3,425.1c0,2.2,1.8,4,4,4c3.6,0,8.9,0,12.5,0c2.2,0,4-1.8,4-4v-3.6c0-1.7-1.4-3-3-3h0c-1.7,0-3-1.4-3-3
			c0-3.1,0-8.1,0-11.5c0-2.2-1.8-4-4-4c-2,0-4.4,0-6.4,0c-2.2,0-4,1.8-4,4C358.3,409.5,358.3,419.6,358.3,425.1L358.3,425.1z" style="fill:#142664;"/>
		<path d="M457.6,497.1c0-2.2-1.8-4-4-4c-2.4,0-5.4,0-7.8,0c-2.2,0-4,1.8-4,4v4.6c0,0.6,0.2,1.1,0.6,1.5
			c0.4,0.4,1,0.6,1.5,0.6c0,0,0,0,0,0c0.6,0,1.1,0.2,1.5,0.6c0.4,0.4,0.6,1,0.6,1.5c0,1.2,0,2.6,0,4c0,2.2,1.8,4,4,4
			c1.1,0,2.3,0,3.4,0c2.2,0,4-1.8,4-4C457.6,506.4,457.6,500.9,457.6,497.1L457.6,497.1z" style="fill:#142664;"/>
		<path d="M564.3,457.4c0-2.2-1.8-4-4-4c-5.4,0-14.8,0-20.2,0c-2.2,0-4,1.8-4,4c0,3.3,0,8,0,11.3c0,2.2,1.8,4,4,4
			c1,0,2,0,3,0c2.2,0,4,1.8,4,4c0,7.9,0,25.5,0,33.4c0,1.1,0.4,2.1,1.2,2.8c0.8,0.8,1.8,1.2,2.8,1.2c2.8,0,6.4,0,9.2,0
			c1.1,0,2.1-0.4,2.8-1.2c0.8-0.8,1.2-1.8,1.2-2.8C564.3,499.1,564.3,468.4,564.3,457.4L564.3,457.4z" style="fill:#142664;"/>
		<path d="M687.9,367.1c0,1.1-0.4,2.1-1.2,2.9c-0.8,0.8-1.8,1.2-2.9,1.2c-5.6,0-15.6,0-21.2,0c-1.1,0-2.1-0.4-2.9-1.2
			c-0.8-0.8-1.2-1.8-1.2-2.9c0-1.4,0-3,0-4.4c0-1.1-0.4-2.1-1.2-2.9c-0.8-0.8-1.8-1.2-2.9-1.2h-4.5c-2.3,0-4.1-1.8-4.1-4.1
			c0-0.6,0-1.3,0-1.9c0-2.3-1.8-4.1-4.1-4.1c-8.3,0-27.2,0-35.6,0c-2.2,0-4.1,1.8-4.1,4.1c0,8,0,25.9,0,33.9c0,2.3-1.8,4.1-4.1,4.1
			c-1.3,0-2.8,0-4.2,0c-2.3,0-4.1-1.8-4.1-4.1c0-1.6,0-3.5,0-5.1c0-2.2-1.8-4.1-4.1-4.1c-5.1,0-13.7,0-18.7,0
			c-1.1,0-2.1-0.4-2.9-1.2c-0.8-0.8-1.2-1.8-1.2-2.9c0-1.1,0-2.2,0-3.3c0-1.1-0.4-2.1-1.2-2.9c-0.8-0.8-1.8-1.2-2.9-1.2
			c-4.9,0-13.2,0-18.1,0c-2.2,0-4.1,1.8-4.1,4.1c0,5.9,0,16.8,0,22.7c0,1.1-0.4,2.1-1.2,2.9c-0.8,0.8-1.8,1.2-2.9,1.2h-14.5
			c-1.1,0-2.1-0.4-2.9-1.2c-0.8-0.8-1.2-1.8-1.2-2.9c0-7.8,0-24.8,0-32.6c0-2.2-1.8-4.1-4.1-4.1c-2.8,0-6.5,0-9.3,0
			c-2.3,0-4.1,1.8-4.1,4.1c0,2.9,0,6.7,0,9.5c0,2.2-1.8,4.1-4.1,4.1c-3.1,0-7.2,0-10.3,0c-2.3,0-4.1-1.8-4.1-4.1
			c0-6.1,0-17.5,0-23.5c0-1.1-0.4-2.1-1.2-2.9c-0.8-0.8-1.8-1.2-2.9-1.2c-4.7,0-12.4,0-17.1,0c-1.1,0-2.1,0.4-2.9,1.2
			c-0.8,0.8-1.2,1.8-1.2,2.9c0,10.5,0,38.4,0,48.8c0,1.1-0.4,2.1-1.2,2.9c-0.8,0.8-1.8,1.2-2.9,1.2c-7.9,0-25.1,0-33,0
			c-2.2,0-4.1-1.8-4.1-4.1c0-2.1,0-4.7,0-6.7c0-2.3-1.8-4.1-4.1-4.1c-6.5,0-19.3,0-25.9,0c-1.1,0-2.1-0.4-2.9-1.2
			c-0.8-0.8-1.2-1.8-1.2-2.9c0-0.8,0-1.7,0-2.5c0-1.1-0.4-2.1-1.2-2.9c-0.8-0.8-1.8-1.2-2.9-1.2c-4.9,0-12.9,0-17.8,0
			c-1.1,0-2.1-0.4-2.9-1.2c-0.8-0.8-1.2-1.8-1.2-2.9c0-2.8,0-6.5,0-9.3c0-1.1-0.4-2.1-1.2-2.9c-0.8-0.8-1.8-1.2-2.9-1.2
			c-2.5,0-5.8,0-8.4,0c-2.2,0-4.1,1.8-4.1,4.1c0,6.7,0,20,0,26.7c0,2.2-1.8,4.1-4.1,4.1c-1.8,0-4,0-5.9,0c-2.2,0-4.1,1.8-4.1,4.1
			c0,7.7,0,24.3,0,32c0,2.3-1.8,4.1-4.1,4.1c-4.9,0-13.1,0-18,0c-1.1,0-2.1-0.4-2.9-1.2c-0.8-0.8-1.2-1.8-1.2-2.9
			c0-3.4,0-8.2,0-11.6c0-2.2-1.8-4.1-4.1-4.1c-1.2,0-2.6,0-3.8,0c-1.1,0-2.1-0.4-2.9-1.2c-0.8-0.8-1.2-1.8-1.2-2.9
			c0-21.8,0-124.1,0-124.1h404.7L687.9,367.1L687.9,367.1z" style="fill:#00E6B3;"/>
		<path d="M547.1,365.9c8.4-26.8,33.4-46.3,63-46.3c31.5,0,57.8,22.1,64.4,51.6h-11.9c-1.1,0-2.1-0.4-2.9-1.2
			c-0.8-0.8-1.2-1.8-1.2-2.9c0-1.4,0-3,0-4.4c0-1.1-0.4-2.1-1.2-2.9c-0.8-0.8-1.8-1.2-2.9-1.2h-4.5c-2.3,0-4.1-1.8-4.1-4.1
			c0-0.6,0-1.3,0-1.9c0-2.3-1.8-4.1-4.1-4.1c-8.3,0-27.2,0-35.6,0c-2.2,0-4.1,1.8-4.1,4.1c0,8,0,25.9,0,33.9c0,2.3-1.8,4.1-4.1,4.1
			c-1.3,0-2.8,0-4.2,0c-2.3,0-4.1-1.8-4.1-4.1c0-1.6,0-3.5,0-5.1c0-2.2-1.8-4.1-4.1-4.1c-5.1,0-13.7,0-18.7,0
			c-1.1,0-2.1-0.4-2.9-1.2c-0.8-0.8-1.2-1.8-1.2-2.9c0-1.1,0-2.2,0-3.3c0-1.1-0.4-2.1-1.2-2.9c-0.8-0.8-1.8-1.2-2.9-1.2L547.1,365.9
			L547.1,365.9z" style="fill:#142664;"/>
		<path d="M563.9,375.8l57.2-68.1c1.6-1.8,4-2.6,6.4-2c2.3,0.6,4.1,2.5,4.5,4.9l6.7,37.9h-32.4c-2.2,0-4.1,1.8-4.1,4.1
			c0,8,0,25.9,0,33.9c0,2.3-1.8,4.1-4.1,4.1c-1.3,0-2.8,0-4.2,0c-2.3,0-4.1-1.8-4.1-4.1c0-1.6,0-3.5,0-5.1c0-2.2-1.8-4.1-4.1-4.1
			c-5.1,0-13.7,0-18.7,0c-1.1,0-2.1-0.4-2.9-1.2C564,376,564,375.9,563.9,375.8L563.9,375.8z" style="fill:#FF2E93;"/>
		<path d="M687.9,242.2c0-2.7-1.1-5.3-3-7.2c-1.9-1.9-4.5-3-7.2-3c-56.1,0-328.3,0-384.4,0c-2.7,0-5.3,1.1-7.2,3
			c-1.9,1.9-3,4.5-3,7.2c0,14.9,0,41,0,41h404.7V242.2L687.9,242.2z" style="fill:#142664;"/>
		<path d="M378.2,252.7c1.3-1.3,1.7-3.3,1-5c-0.7-1.7-2.4-2.8-4.2-2.8c-15.5,0-42.5,0-49.9,0c-1.2,0-2.4,0.5-3.2,1.3
			c-3,3-10.5,10.4-16.3,16.3c-1.3,1.3-1.7,3.3-1,5c0.7,1.7,2.4,2.8,4.2,2.8c15.5,0,42.5,0,49.9,0c1.2,0,2.4-0.5,3.2-1.3
			C364.9,266,372.4,258.5,378.2,252.7L378.2,252.7z" style="fill:#FFFFFF;"/>
		<path d="M476.8,241.1v32.4c0,1.2,0.9,2.1,2.1,2.1c1.2,0,2.1-0.9,2.1-2.1v-32.4c0-1.2-0.9-2.1-2.1-2.1
			C477.8,238.9,476.8,239.9,476.8,241.1L476.8,241.1z" style="fill:#00E6B3;"/>
		<path d="M527.2,241.1v32.4c0,1.2,0.9,2.1,2.1,2.1s2.1-0.9,2.1-2.1v-32.4c0-1.2-0.9-2.1-2.1-2.1
			S527.2,239.9,527.2,241.1L527.2,241.1z" style="fill:#00E6B3;"/>
		<path d="M469.2,255.1c0-0.6-0.2-1.1-0.6-1.5c-0.4-0.4-1-0.6-1.6-0.6c-5.7,0-20.8,0-26.5,0c-0.6,0-1.1,0.2-1.5,0.6
			s-0.6,1-0.6,1.5c0,1.5,0,3.4,0,4.9c0,0.6,0.2,1.1,0.6,1.5s1,0.6,1.5,0.6c5.7,0,20.8,0,26.5,0c0.6,0,1.1-0.2,1.6-0.6
			c0.4-0.4,0.6-1,0.6-1.5C469.2,258.5,469.2,256.6,469.2,255.1z" style="fill:#00E6B3;"/>
		<path d="M519.6,255.1c0-0.6-0.2-1.1-0.6-1.5c-0.4-0.4-1-0.6-1.5-0.6c-5.7,0-20.8,0-26.5,0c-0.6,0-1.1,0.2-1.5,0.6
			c-0.4,0.4-0.6,1-0.6,1.5c0,1.5,0,3.4,0,4.9c0,0.6,0.2,1.1,0.6,1.5c0.4,0.4,1,0.6,1.5,0.6c5.7,0,20.8,0,26.5,0
			c0.6,0,1.1-0.2,1.5-0.6c0.4-0.4,0.6-1,0.6-1.5C519.6,258.5,519.6,256.6,519.6,255.1z" style="fill:#00E6B3;"/>
		<path d="M570,255.1c0-0.6-0.2-1.1-0.6-1.5s-1-0.6-1.5-0.6c-5.7,0-20.8,0-26.5,0c-0.6,0-1.1,0.2-1.5,0.6
			c-0.4,0.4-0.6,1-0.6,1.5c0,1.5,0,3.4,0,4.9c0,0.6,0.2,1.1,0.6,1.5c0.4,0.4,1,0.6,1.5,0.6c5.7,0,20.8,0,26.5,0
			c0.6,0,1.1-0.2,1.5-0.6s0.6-1,0.6-1.5C570,258.5,570,256.6,570,255.1z" style="fill:#00E6B3;"/>
		<circle cx="615" cy="257.3" r="16.2" style="fill:#FF2E93;"/>
		<circle cx="290.6" cy="217.2" r="7.4" style="fill:#FF2E93;"/>
		<circle cx="314.5" cy="217.2" r="7.4" style="fill:#142664;"/>
		<circle cx="338.5" cy="217.2" r="7.4" style="fill:#00E6B3;"/>
		<circle cx="657.3" cy="257.3" r="16.2" style="fill:#FF2E93;"/>
		<path d="M341.9,307.3c0-1.1-0.4-2.2-1.2-2.9c-0.8-0.8-1.8-1.2-2.9-1.2c-3.6,0-8.7,0-12.3,0c-1.1,0-2.2,0.4-2.9,1.2
			c-0.8,0.8-1.2,1.8-1.2,2.9c0,2.6,0,6,0,8.6c0,1.1,0.4,2.2,1.2,2.9s1.8,1.2,2.9,1.2c3.6,0,8.7,0,12.3,0c1.1,0,2.2-0.4,2.9-1.2
			s1.2-1.8,1.2-2.9C341.9,313.3,341.9,309.9,341.9,307.3z" style="fill:#FFFFFF;"/>
		<path d="M492,307.3c0-2.3-1.9-4.2-4.2-4.2c-20.3,0-108.6,0-128.8,0c-2.3,0-4.2,1.9-4.2,4.2c0,2.6,0,6,0,8.6
			c0,2.3,1.9,4.2,4.2,4.2c20.3,0,108.6,0,128.8,0c2.3,0,4.2-1.9,4.2-4.2C492,313.3,492,309.9,492,307.3z" style="fill:#FFFFFF;"/>
		<path d="M551.6,307.3c0-2.3-1.9-4.2-4.2-4.2h-38.2c-2.3,0-4.2,1.9-4.2,4.2v8.6c0,2.3,1.9,4.2,4.2,4.2h38.2
			c2.3,0,4.2-1.9,4.2-4.2V307.3z" style="fill:#FFFFFF;"/>
		<path d="M654.8,250.6l0.7-2.9h3.8l0.7,2.9c0.1,0,0.2,0.1,0.3,0.1l2.5-1.6l2.7,2.7l-1.6,2.5c0,0.1,0.1,0.2,0.1,0.3
			l2.9,0.7v3.8l-2.9,0.7c0,0.1-0.1,0.2-0.1,0.3l1.6,2.5l-2.7,2.7l-2.5-1.6c-0.1,0-0.2,0.1-0.3,0.1l-0.7,2.9h-3.8l-0.7-2.9
			c-0.1,0-0.2-0.1-0.3-0.1l-2.5,1.6l-2.7-2.7l1.6-2.5c0-0.1-0.1-0.2-0.1-0.3l-2.9-0.7v-3.8l2.9-0.7c0-0.1,0.1-0.2,0.1-0.3l-1.6-2.5
			l2.7-2.7l2.5,1.6C654.6,250.7,654.7,250.7,654.8,250.6z M657.3,254c1.8,0,3.2,1.5,3.2,3.2c0,1.8-1.5,3.2-3.2,3.2
			c-1.8,0-3.2-1.5-3.2-3.2C654.1,255.5,655.5,254,657.3,254z" style="fill:#FFFFFF;"/>
		<path d="M340.2,344.9c0.7,0,1.5,0.3,2,0.8c0.5,0.5,0.8,1.2,0.8,2c0,0.5,0,1.1,0,1.6c0,0.7-0.3,1.5-0.8,2
			c-0.5,0.5-1.2,0.8-2,0.8c-4.2,0-12,0-16.1,0c-0.7,0-1.5-0.3-2-0.8c-0.5-0.5-0.8-1.2-0.8-2c0-0.5,0-1.1,0-1.6c0-0.7,0.3-1.5,0.8-2
			c0.5-0.5,1.2-0.8,2-0.8C328.3,344.9,336,344.9,340.2,344.9z M402,349.4c0,0.7-0.3,1.5-0.8,2s-1.2,0.8-2,0.8c-9.1,0-37.8,0-46.9,0
			c-0.7,0-1.5-0.3-2-0.8c-0.5-0.5-0.8-1.2-0.8-2c0-0.5,0-1.1,0-1.6c0-0.7,0.3-1.5,0.8-2c0.5-0.5,1.2-0.8,2-0.8c9.1,0,37.8,0,46.9,0
			c0.7,0,1.5,0.3,2,0.8s0.8,1.2,0.8,2C402,348.3,402,348.8,402,349.4z M452.8,352.2h-41.7c-0.7,0-1.5-0.3-2-0.8
			c-0.5-0.5-0.8-1.2-0.8-2c0-0.5,0-1.1,0-1.6c0-0.7,0.3-1.5,0.8-2c0.5-0.5,1.2-0.8,2-0.8c9.8,0,41.7,0,41.7,0V352.2z M498.3,349.4
			c0,0.7-0.3,1.5-0.8,2c-0.5,0.5-1.2,0.8-2,0.8c-2.9,0-7.5,0-10.4,0c-0.7,0-1.5-0.3-2-0.8c-0.5-0.5-0.8-1.2-0.8-2c0-0.5,0-1.1,0-1.6
			c0-0.7,0.3-1.5,0.8-2c0.5-0.5,1.2-0.8,2-0.8c2.9,0,7.5,0,10.4,0c0.7,0,1.5,0.3,2,0.8c0.5,0.5,0.8,1.2,0.8,2
			C498.3,348.3,498.3,348.8,498.3,349.4z M504.7,347.7c0-0.7,0.3-1.5,0.8-2c0.5-0.5,1.2-0.8,2-0.8c4.1,0,11.7,0,15.8,0
			c0.7,0,1.5,0.3,2,0.8c0.5,0.5,0.8,1.2,0.8,2c0,0.5,0,1.1,0,1.6c0,0.7-0.3,1.5-0.8,2c-0.5,0.5-1.2,0.8-2,0.8c-4.1,0-11.7,0-15.8,0
			c-0.7,0-1.5-0.3-2-0.8c-0.5-0.5-0.8-1.2-0.8-2C504.7,348.8,504.7,348.3,504.7,347.7L504.7,347.7z" style="fill:#142664;"/>
		<path d="M367.5,331.2c1.6,0,2.8,1.3,2.8,2.8c0,0.5,0,1.1,0,1.6c0,1.6-1.3,2.8-2.8,2.8c-8.7,0-34.8,0-43.4,0
			c-1.6,0-2.8-1.3-2.8-2.8c0-0.5,0-1.1,0-1.6c0-1.6,1.3-2.8,2.8-2.8C332.8,331.2,358.9,331.2,367.5,331.2z M389.9,335.7
			c0,0.7-0.3,1.5-0.8,2c-0.5,0.5-1.2,0.8-2,0.8c-2.2,0-5.3,0-7.5,0c-0.7,0-1.5-0.3-2-0.8c-0.5-0.5-0.8-1.2-0.8-2c0-0.5,0-1.1,0-1.6
			c0-0.7,0.3-1.5,0.8-2c0.5-0.5,1.2-0.8,2-0.8c2.2,0,5.3,0,7.5,0c0.7,0,1.5,0.3,2,0.8c0.5,0.5,0.8,1.2,0.8,2
			C389.9,334.6,389.9,335.1,389.9,335.7z M471.6,335.7c0,0.7-0.3,1.5-0.8,2c-0.5,0.5-1.2,0.8-2,0.8c-11.9,0-57.8,0-69.7,0
			c-0.7,0-1.5-0.3-2-0.8c-0.5-0.5-0.8-1.2-0.8-2c0-0.5,0-1.1,0-1.6c0-0.7,0.3-1.5,0.8-2c0.5-0.5,1.2-0.8,2-0.8c11.9,0,57.8,0,69.7,0
			c0.7,0,1.5,0.3,2,0.8c0.5,0.5,0.8,1.2,0.8,2C471.6,334.6,471.6,335.1,471.6,335.7z M477.9,334c0-0.7,0.3-1.5,0.8-2
			c0.5-0.5,1.2-0.8,2-0.8c8.5,0,34,0,42.5,0c0.7,0,1.5,0.3,2,0.8c0.5,0.5,0.8,1.2,0.8,2c0,0.5,0,1.1,0,1.6c0,0.7-0.3,1.5-0.8,2
			c-0.5,0.5-1.2,0.8-2,0.8c-8.5,0-34,0-42.5,0c-0.7,0-1.5-0.3-2-0.8c-0.5-0.5-0.8-1.2-0.8-2C477.9,335.1,477.9,334.6,477.9,334
			L477.9,334z" style="fill:#142664;"/>
		<path d="M335.3,358.6v7.3h-11.2c-0.7,0-1.5-0.3-2-0.8c-0.5-0.5-0.8-1.2-0.8-2c0-0.5,0-1.1,0-1.6c0-0.7,0.3-1.5,0.8-2
			c0.5-0.5,1.2-0.8,2-0.8C328.2,358.6,335.3,358.6,335.3,358.6z M405.7,363.1c0,1.6-1.3,2.8-2.8,2.8c-5.4,0-17.1,0-22.5,0
			c-1.6,0-2.8-1.3-2.8-2.8c0-0.5,0-1.1,0-1.6c0-1.6,1.3-2.8,2.8-2.8c5.4,0,17.1,0,22.5,0c1.6,0,2.8,1.3,2.8,2.8
			C405.7,362,405.7,362.5,405.7,363.1L405.7,363.1z M422.3,363.1c0,1.6-1.3,2.8-2.8,2.8c-1.4,0-3.2,0-4.6,0c-1.6,0-2.8-1.3-2.8-2.8
			c0-0.5,0-1.1,0-1.6c0-1.6,1.3-2.8,2.8-2.8c1.4,0,3.2,0,4.6,0c1.6,0,2.8,1.3,2.8,2.8C422.3,362,422.3,362.5,422.3,363.1z
			 M452.8,358.6v7.3h-21.3c-0.7,0-1.5-0.3-2-0.8c-0.5-0.5-0.8-1.2-0.8-2c0-0.5,0-1.1,0-1.6c0-0.7,0.3-1.5,0.8-2
			c0.5-0.5,1.2-0.8,2-0.8C437.9,358.6,452.8,358.6,452.8,358.6z M478.1,358.6h9.5c1.6,0,2.8,1.3,2.8,2.8c0,0.5,0,1.1,0,1.6
			c0,1.6-1.3,2.8-2.8,2.8c-3.6,0-9.5,0-9.5,0V358.6L478.1,358.6z M357.1,361.4c0-0.7,0.3-1.5,0.8-2c0.5-0.5,1.2-0.8,2-0.8
			c2.5,0,6,0,8.4,0c0.7,0,1.5,0.3,2,0.8c0.5,0.5,0.8,1.2,0.8,2c0,0.5,0,1.1,0,1.6c0,0.7-0.3,1.5-0.8,2c-0.5,0.5-1.2,0.8-2,0.8
			c-2.5,0-6,0-8.4,0c-0.7,0-1.5-0.3-2-0.8c-0.5-0.5-0.8-1.2-0.8-2C357.1,362.5,357.1,362,357.1,361.4z" style="fill:#142664;"/>
		<path d="M395.8,258.9c1.3-1.3,1.7-3.3,1-5c-0.7-1.7-2.4-2.8-4.2-2.8c-12.5,0-31.9,0-38,0c-1.2,0-2.4,0.5-3.2,1.3
			c-1,1-2.4,2.4-4,4c-1.3,1.3-1.7,3.3-1,5c0.7,1.7,2.4,2.8,4.2,2.8c12.5,0,31.9,0,38,0c1.2,0,2.4-0.5,3.2-1.3
			C392.8,261.8,394.3,260.4,395.8,258.9z" style="fill:#FF2E93;"/>
		<path d="M340.4,258.9c1.3-1.3,1.7-3.3,1-5c-0.7-1.7-2.4-2.8-4.2-2.8c-4,0-8.1,0-10.5,0c-1.2,0-2.4,0.5-3.2,1.3
			c-1,1-2.4,2.4-4,4c-1.3,1.3-1.7,3.3-1,5c0.7,1.7,2.4,2.8,4.2,2.8c4,0,8.1,0,10.5,0c1.2,0,2.4-0.5,3.2-1.3
			C337.5,261.8,338.9,260.4,340.4,258.9z" style="fill:#FF2E93;"/>
		<path d="M328.5,506.1c-1.6,0-2.8-1.3-2.8-2.8c0-6.1,0-20.3,0-27.2c0-1.1,0.4-2.1,1.2-2.8c0.8-0.8,1.8-1.2,2.8-1.2
			c2.2,0,4.9,0,7.1,0c2.2,0,4,1.8,4,4v1.8c0,1.1,0.4,2.1,1.2,2.8c0.8,0.8,1.8,1.2,2.8,1.2c0.7,0,1.4,0,2.1,0c1.1,0,2.1,0.4,2.8,1.2
			c0.8,0.8,1.2,1.8,1.2,2.8c0,5.6,0,15.6,0,21.1c0,1.1-0.4,2.1-1.2,2.8c-0.8,0.8-1.8,1.2-2.8,1.2c-1.2,0-2.4,0-3.6,0
			c-2.2,0-4,1.8-4,4c0,0.1,0,0.2,0,0.3c0,2.2-1.8,4-4,4c0,0,0,0,0,0c-2.2,0-4-1.8-4-4c0-2.1,0-4.6,0-6.4
			C331.4,507.3,330.1,506.1,328.5,506.1C328.5,506.1,328.5,506.1,328.5,506.1L328.5,506.1z" style="fill:#00E6B3;"/>
		<path d="M545.1,438.3c-1.1,0-1.9-0.9-1.9-1.9c0-4.7,0-16.8,0-22c0-1.3,1.1-2.4,2.4-2.4c1,0,2.2,0,3.3,0
			c0.7,0,1.4,0.3,1.9,0.8c0.5,0.5,0.8,1.2,0.8,1.9v0c0,0.7,0.3,1.4,0.8,1.9c0.5,0.5,1.2,0.8,1.9,0.8c0,0,0,0,0.1,0
			c0.7,0,1.5,0.3,2,0.8s0.8,1.2,0.8,2c0,2.6,0,6.5,0,9.4c0,1.1-0.4,2.1-1.2,2.8c-0.8,0.8-1.8,1.2-2.8,1.2c-0.2,0-0.4,0-0.5,0
			c-0.5,0-1,0.2-1.4,0.6s-0.6,0.9-0.6,1.4c0,0.3,0,0.5,0,0.8c0,0.5-0.2,1-0.6,1.4c-0.4,0.4-0.9,0.6-1.4,0.6
			C547.7,438.3,546.3,438.3,545.1,438.3L545.1,438.3z" style="fill:#FF2E93;"/>
		<path d="M314.2,454.7c0-1.1-0.4-2.1-1.2-2.8c-0.8-0.8-1.8-1.2-2.8-1.2H305c-1.1,0-2.1,0.4-2.8,1.2s-1.2,1.8-1.2,2.8
			v5.2c0,1.1,0.4,2.1,1.2,2.8c0.8,0.8,1.8,1.2,2.8,1.2h5.2c1.1,0,2.1-0.4,2.8-1.2c0.8-0.8,1.2-1.8,1.2-2.8V454.7z" style="fill:#FF2E93;"/>
		<path d="M605.7,265.9L605.7,265.9c0-4.3,0.8-7.8,6.4-8.7c-1.5-1-2.5-2.7-2.5-4.6c0-3,2.5-5.5,5.5-5.5s5.5,2.5,5.5,5.5
			c0,1.9-1,3.7-2.5,4.6c5.6,0.9,6.3,4.4,6.4,8.7c0,0.1,0,0.3-0.1,0.3c-0.1,0.1-0.2,0.1-0.3,0.1c-2.6,0-15.1,0-17.8,0
			c-0.1,0-0.2-0.1-0.3-0.1C605.7,266.2,605.7,266.1,605.7,265.9C605.7,265.9,605.7,265.9,605.7,265.9L605.7,265.9z" style="fill:#FFFFFF;"/>
		<path d="M368.6,415.9c0-1.1-0.4-2.1-1.2-2.8c-0.8-0.8-1.8-1.2-2.8-1.2c-4,0-10,0-14,0c-1.1,0-2.1,0.4-2.8,1.2
			c-0.8,0.8-1.2,1.8-1.2,2.8c0,5.4,0,14.8,0,20.2c0,1.1,0.4,2.1,1.2,2.8c0.8,0.8,1.8,1.2,2.8,1.2c4,0,10,0,14,0
			c1.1,0,2.1-0.4,2.8-1.2c0.8-0.8,1.2-1.8,1.2-2.8C368.6,430.7,368.6,421.2,368.6,415.9z" style="fill:#00E6B3;"/>
		<path d="M574.9,476.3c0-2.2-1.8-4-4-4H562c-2.2,0-4,1.8-4,4v26.2c0,2.2,1.8,4,4,4h8.9c2.2,0,4-1.8,4-4V476.3z" style="fill:#FF2E93;"/>
		<path d="M648.3,395.4c0-0.9-0.7-1.6-1.6-1.6c-0.8,0-1.8,0-2.6,0c-0.9,0-1.6,0.7-1.6,1.6c0,4.7,0,18.1,0,22.8
			c0,0.9,0.7,1.6,1.6,1.6c0.8,0,1.8,0,2.6,0c0.9,0,1.6-0.7,1.6-1.6C648.3,413.5,648.3,400.1,648.3,395.4z" style="fill:#FF2E93;"/>
		<path d="M520.9,465.8c0-0.9-0.7-1.6-1.6-1.6c-2.1,0-5.8,0-8,0c-0.9,0-1.6,0.7-1.6,1.6c0,3.5,0,11.8,0,15.4
			c0,0.9,0.7,1.6,1.6,1.6c2.1,0,5.8,0,8,0c0.9,0,1.6-0.7,1.6-1.6C520.9,477.7,520.9,469.4,520.9,465.8z" style="fill:#00E6B3;"/>
		<path d="M472.5,392.9c-2.2,0-4,1.8-4,4c0,6.7,0,20,0,26.6c0,2.2,1.8,4,4,4c1.8,0,4,0,5.8,0c2.2,0,4-1.8,4-4
			c0-2.1,0-4.6,0-6.4c0-0.6-0.2-1.2-0.7-1.6c-0.4-0.4-1-0.7-1.6-0.7c0,0,0,0,0,0c-0.6,0-1.2-0.2-1.6-0.7c-0.4-0.4-0.7-1-0.7-1.6
			c0-3.7,0-11.1,0-15.6c0-2.2-1.8-4-4-4C473.3,392.9,472.9,392.9,472.5,392.9z" style="fill:#FF2E93;"/>
		<path d="M632.2,394.3c2.2,0,4-1.8,4-4c0-5.9,0-16.9,0-22.8c0-1.1-0.4-2.1-1.2-2.8c-0.8-0.8-1.8-1.2-2.8-1.2h-7.6
			c-1.1,0-2.1,0.4-2.8,1.2c-0.8,0.8-1.2,1.8-1.2,2.8c0,2.5,0,5.5,0,7.7c0,1.5,1.2,2.6,2.6,2.6c0,0,0,0,0,0c0.7,0,1.4,0.3,1.9,0.8
			c0.5,0.5,0.8,1.2,0.8,1.9c0,2.6,0,6.8,0,9.8c0,2.2,1.8,4,4,4C630.6,394.3,631.4,394.3,632.2,394.3L632.2,394.3z" style="fill:#142664;"/>
		<path d="M610.3,428.5c-2.2,0-4,1.8-4,4c0,7.4,0,23,0,30.3c0,2.2,1.8,4,4,4c3.3,0,8.1,0,11.4,0c2.2,0,4-1.8,4-4
			c0-5.2,0-14.3,0-19.1c0-1.8-1.5-3.3-3.3-3.3c0,0,0,0,0,0c-1.8,0-3.3-1.5-3.3-3.3v-4.7c0-1.1-0.4-2.1-1.2-2.8
			c-0.8-0.8-1.8-1.2-2.8-1.2C613.7,428.5,611.9,428.5,610.3,428.5z" style="fill:#00E6B3;"/>
		<path d="M312.3,516.1c-2.2,0-4,1.8-4,4c0,8.7,0,28.7,0,28.7H326v-19.9c0-1.1-0.4-2.1-1.2-2.8
			c-0.8-0.8-1.8-1.2-2.8-1.2c0,0,0,0,0,0c-2.2,0-4-1.8-4-4c0-0.2,0-0.5,0-0.7c0-2.2-1.8-4-4-4C313.4,516.1,312.8,516.1,312.3,516.1
			L312.3,516.1z" style="fill:#142664;"/>
		<path d="M429.8,439c0-1.1-0.4-2.1-1.2-2.8c-0.8-0.8-1.8-1.2-2.8-1.2c-3.4,0-8.2,0-11.6,0c-2.2,0-4,1.8-4,4
			c0,8.8,0,29.9,0,38.7c0,2.2,1.8,4,4,4c2.5,0,5.6,0,8,0c2.2,0,4-1.8,4-4c0-1.2,0-2.5,0-3.5c0-0.7-0.3-1.3-0.8-1.8
			c-0.5-0.5-1.1-0.8-1.8-0.8c0,0,0,0,0,0c-0.7,0-1.3-0.3-1.8-0.8c-0.5-0.5-0.8-1.1-0.8-1.8c0-3.9,0-11.3,0-15.9
			c0-1.1,0.4-2.1,1.2-2.8c0.8-0.8,1.8-1.2,2.8-1.2c0.2,0,0.5,0,0.7,0c1.1,0,2.1-0.4,2.8-1.2c0.8-0.8,1.2-1.8,1.2-2.8
			C429.8,443.2,429.8,440.9,429.8,439L429.8,439z" style="fill:#00E6B3;"/>
		<path d="M722.6,587.4c0-5.2-4.2-9.4-9.4-9.4c-60.5,0-395.2,0-455.7,0c-5.2,0-9.4,4.2-9.4,9.4c0,8,0,19.2,0,25.4
			c0,1.2,0.5,2.4,1.4,3.3c0.9,0.9,2.1,1.4,3.3,1.4c46.1,0,419.1,0,465.1,0c1.2,0,2.4-0.5,3.3-1.4c0.9-0.9,1.4-2.1,1.4-3.3
			C722.6,606.6,722.6,595.4,722.6,587.4z" style="fill:#FF2E93;"/>
		<path d="M722.6,587.4c0-2.5-1-4.9-2.7-6.6c-1.8-1.8-4.1-2.7-6.6-2.7h-20.7c-2.5,0-4.9,1-6.6,2.7
			c-1.8,1.8-2.7,4.1-2.7,6.6v25.3c0,2.7,2.2,4.8,4.8,4.8h30c2.6,0,4.7-2.1,4.7-4.7V587.4z" style="fill:#142664;"/>
		<path d="M687.9,544.2c0-2.5-2-4.6-4.6-4.6H287.7c-2.5,0-4.6,2-4.6,4.6v0c0,2.5,2,4.6,4.6,4.6h395.6
			C685.8,548.7,687.9,546.7,687.9,544.2L687.9,544.2z" style="fill:#142664;"/>
		<path d="M632.1,548.7v-25.5c0-2.1,1.7-3.9,3.9-3.9c0,0,0,0,0,0c2.1,0,3.9-1.7,3.9-3.9c0-2.9,0-6.9,0-9.9
			c0-1.1,0.4-2.1,1.2-2.8c0.8-0.8,1.8-1.2,2.8-1.2h2.5c1.1,0,2.1,0.4,2.8,1.2c0.8,0.8,1.2,1.8,1.2,2.8c0,1,0,2.1,0,3.1
			c0,1.1,0.4,2.1,1.2,2.8s1.8,1.2,2.8,1.2c0.7,0,1.4,0,2.1,0c1.1,0,2.1,0.4,2.8,1.2c0.8,0.8,1.2,1.8,1.2,2.8c0,9.4,0,32,0,32H632.1
			L632.1,548.7z" style="fill:#00E6B3;"/>
		<path d="M414.9,467.4c0-2.2-1.8-4-4-4c-1.4,0-2.9,0-4.3,0c-2.2,0-4,1.8-4,4c0,6.2,0,18,0,24.4c0,1.2,0.5,2.3,1.3,3.1
			c0.8,0.8,1.9,1.3,3.1,1.3c1.2,0,2.4,0,3.6,0c1.2,0,2.3-0.5,3.1-1.3c0.8-0.8,1.3-1.9,1.3-3.1C414.9,485.4,414.9,473.6,414.9,467.4
			L414.9,467.4z" style="fill:#FF2E93;"/>
		<path d="M681.7,464.9c0-2.2-1.8-4-4-4H670c-2.2,0-4,1.8-4,4v7.7c0,2.2,1.8,4,4,4h7.7c2.2,0,4-1.8,4-4V464.9z" style="fill:#FF2E93;"/>
		<path d="M659.5,436.4c0-0.7-0.6-1.3-1.3-1.3h-3.8c-0.7,0-1.3,0.6-1.3,1.3v3.8c0,0.7,0.6,1.3,1.3,1.3h3.8
			c0.7,0,1.3-0.6,1.3-1.3V436.4z" style="fill:#142664;"/>
		<path d="M521.7,419.3c0-0.7-0.6-1.3-1.3-1.3h-3.8c-0.7,0-1.3,0.6-1.3,1.3v3.8c0,0.7,0.6,1.3,1.3,1.3h3.8
			c0.7,0,1.3-0.6,1.3-1.3V419.3z" style="fill:#142664;"/>
		<path d="M435.5,512.5c0-0.7-0.6-1.3-1.3-1.3c-0.5,0-1.1,0-1.7,0c-0.7,0-1.3,0.6-1.3,1.3c0,0.5,0,1.1,0,1.7
			c0,0.7,0.6,1.3,1.3,1.3c0.5,0,1.1,0,1.7,0c0.7,0,1.3-0.6,1.3-1.3V512.5z" style="fill:#142664;"/>
		<path d="M666,499c0-0.7-0.6-1.3-1.3-1.3c-0.5,0-1.1,0-1.7,0c-0.7,0-1.3,0.6-1.3,1.3c0,0.5,0,1.1,0,1.7
			c0,0.7,0.6,1.3,1.3,1.3c0.5,0,1.1,0,1.7,0c0.7,0,1.3-0.6,1.3-1.3V499z" style="fill:#142664;"/>
		<path d="M579.5,520.8c0-0.7-0.6-1.3-1.3-1.3c-0.5,0-1.1,0-1.7,0c-0.7,0-1.3,0.6-1.3,1.3c0,0.5,0,1.1,0,1.7
			c0,0.7,0.6,1.3,1.3,1.3c0.5,0,1.1,0,1.7,0c0.7,0,1.3-0.6,1.3-1.3V520.8z" style="fill:#142664;"/>
		<path d="M585.6,486.2c0-0.7-0.6-1.3-1.3-1.3c-0.5,0-1.1,0-1.7,0c-0.7,0-1.3,0.6-1.3,1.3c0,0.5,0,1.1,0,1.7
			c0,0.7,0.6,1.3,1.3,1.3c0.5,0,1.1,0,1.7,0c0.7,0,1.3-0.6,1.3-1.3V486.2z" style="fill:#00E6B3;"/>
		<path d="M624.8,403.6c0-0.7-0.6-1.3-1.3-1.3c-0.5,0-1.1,0-1.7,0c-0.7,0-1.3,0.6-1.3,1.3c0,0.5,0,1.1,0,1.7
			c0,0.7,0.6,1.3,1.3,1.3c0.5,0,1.1,0,1.7,0c0.7,0,1.3-0.6,1.3-1.3V403.6z" style="fill:#142664;"/>
		<path d="M399.9,420.1c0-0.7-0.6-1.3-1.3-1.3c-0.5,0-1.1,0-1.7,0c-0.7,0-1.3,0.6-1.3,1.3c0,0.5,0,1.1,0,1.7
			c0,0.7,0.6,1.3,1.3,1.3c0.5,0,1.1,0,1.7,0c0.7,0,1.3-0.6,1.3-1.3V420.1z" style="fill:#142664;"/>
		<path d="M351.5,458c0-0.7-0.6-1.3-1.3-1.3c-0.5,0-1.1,0-1.7,0c-0.7,0-1.3,0.6-1.3,1.3c0,0.5,0,1.1,0,1.7
			c0,0.7,0.6,1.3,1.3,1.3c0.5,0,1.1,0,1.7,0c0.7,0,1.3-0.6,1.3-1.3V458z" style="fill:#FF2E93;"/>
		<path d="M376.1,493.1c0-0.7-0.6-1.3-1.3-1.3c-0.5,0-1.1,0-1.7,0c-0.7,0-1.3,0.6-1.3,1.3c0,0.5,0,1.1,0,1.7
			c0,0.7,0.6,1.3,1.3,1.3c0.5,0,1.1,0,1.7,0c0.7,0,1.3-0.6,1.3-1.3V493.1z" style="fill:#FF2E93;"/>
		<path d="M444,523.3c0-0.7-0.6-1.3-1.3-1.3c-0.5,0-1.1,0-1.7,0c-0.7,0-1.3,0.6-1.3,1.3c0,0.5,0,1.1,0,1.7
			c0,0.7,0.6,1.3,1.3,1.3c0.5,0,1.1,0,1.7,0c0.7,0,1.3-0.6,1.3-1.3V523.3z" style="fill:#FF2E93;"/>
		<path d="M658,378.1c0-0.7-0.6-1.3-1.3-1.3c-0.5,0-1.1,0-1.7,0c-0.7,0-1.3,0.6-1.3,1.3c0,0.5,0,1.1,0,1.7
			c0,0.7,0.6,1.3,1.3,1.3c0.5,0,1.1,0,1.7,0c0.7,0,1.3-0.6,1.3-1.3V378.1z" style="fill:#FF2E93;"/>
		<path d="M507.5,457.9c0-0.7-0.6-1.3-1.3-1.3c-0.5,0-1.1,0-1.7,0c-0.7,0-1.3,0.6-1.3,1.3c0,0.5,0,1.1,0,1.7
			c0,0.7,0.6,1.3,1.3,1.3c0.5,0,1.1,0,1.7,0c0.7,0,1.3-0.6,1.3-1.3V457.9z" style="fill:#FF2E93;"/>
		<path d="M473.1,365.3c0-0.7-0.6-1.3-1.3-1.3c-0.5,0-1.1,0-1.7,0c-0.7,0-1.3,0.6-1.3,1.3c0,0.5,0,1.1,0,1.7
			c0,0.7,0.6,1.3,1.3,1.3c0.5,0,1.1,0,1.7,0c0.7,0,1.3-0.6,1.3-1.3V365.3z" style="fill:#FF2E93;"/>
		<path d="M369.1,393c0-0.7-0.6-1.3-1.3-1.3c-0.5,0-1.1,0-1.7,0c-0.7,0-1.3,0.6-1.3,1.3c0,0.5,0,1.1,0,1.7
			c0,0.7,0.6,1.3,1.3,1.3c0.5,0,1.1,0,1.7,0c0.7,0,1.3-0.6,1.3-1.3V393z" style="fill:#FF2E93;"/>
		<path d="M320.4,499.5c0-0.7-0.6-1.3-1.3-1.3c-0.5,0-1.1,0-1.7,0c-0.7,0-1.3,0.6-1.3,1.3c0,0.5,0,1.1,0,1.7
			c0,0.7,0.6,1.3,1.3,1.3c0.5,0,1.1,0,1.7,0c0.7,0,1.3-0.6,1.3-1.3V499.5z" style="fill:#00E6B3;"/>
		<path d="M496.5,515.7c0-0.7-0.6-1.3-1.3-1.3c-0.5,0-1.1,0-1.7,0c-0.7,0-1.3,0.6-1.3,1.3c0,0.5,0,1.1,0,1.7
			c0,0.7,0.6,1.3,1.3,1.3c0.5,0,1.1,0,1.7,0c0.7,0,1.3-0.6,1.3-1.3V515.7z" style="fill:#00E6B3;"/>
		<path d="M528,429.8c0-0.7-0.6-1.3-1.3-1.3c-0.5,0-1.1,0-1.7,0c-0.7,0-1.3,0.6-1.3,1.3c0,0.5,0,1.1,0,1.7
			c0,0.7,0.6,1.3,1.3,1.3c0.5,0,1.1,0,1.7,0c0.7,0,1.3-0.6,1.3-1.3V429.8z" style="fill:#00E6B3;"/>
		<path d="M571.9,403.6c0-0.7-0.6-1.3-1.3-1.3h-3.8c-0.7,0-1.3,0.6-1.3,1.3v3.8c0,0.7,0.6,1.3,1.3,1.3h3.8
			c0.7,0,1.3-0.6,1.3-1.3V403.6z" style="fill:#FF2E93;"/>
		<path d="M488.7,493c0-0.7-0.6-1.3-1.3-1.3h-3.8c-0.7,0-1.3,0.6-1.3,1.3v3.8c0,0.7,0.6,1.3,1.3,1.3h3.8
			c0.7,0,1.3-0.6,1.3-1.3V493z" style="fill:#FF2E93;"/>
		<path d="M634.9,484.6c0-0.7-0.6-1.3-1.3-1.3h-3.8c-0.7,0-1.3,0.6-1.3,1.3v3.8c0,0.7,0.6,1.3,1.3,1.3h3.8
			c0.7,0,1.3-0.6,1.3-1.3V484.6z" style="fill:#FF2E93;"/>
		<path d="M343.3,446.3c0-0.7-0.6-1.3-1.3-1.3h-3.8c-0.7,0-1.3,0.6-1.3,1.3v3.8c0,0.7,0.6,1.3,1.3,1.3h3.8
			c0.7,0,1.3-0.6,1.3-1.3V446.3z" style="fill:#142664;"/>
		<path d="M502.8,381.6c0-0.7-0.6-1.3-1.3-1.3h-3.8c-0.7,0-1.3,0.6-1.3,1.3v3.8c0,0.7,0.6,1.3,1.3,1.3h3.8
			c0.7,0,1.3-0.6,1.3-1.3V381.6z" style="fill:#142664;"/>
		<path d="M406.3,407.2c0-0.7-0.6-1.3-1.3-1.3h-3.8c-0.7,0-1.3,0.6-1.3,1.3v3.8c0,0.7,0.6,1.3,1.3,1.3h3.8
			c0.7,0,1.3-0.6,1.3-1.3V407.2z" style="fill:#00E6B3;"/>
		<path d="M591.8,494.8c0-0.7-0.6-1.3-1.3-1.3h-3.8c-0.7,0-1.3,0.6-1.3,1.3v3.8c0,0.7,0.6,1.3,1.3,1.3h3.8
			c0.7,0,1.3-0.6,1.3-1.3V494.8z" style="fill:#00E6B3;"/>
		<path d="M468.5,433.9c0-0.7-0.6-1.3-1.3-1.3c-1.1,0-2.7,0-3.8,0c-0.7,0-1.3,0.6-1.3,1.3c0,2.2,0,6.5,0,8.7
			c0,0.7,0.6,1.3,1.3,1.3c1.1,0,2.7,0,3.8,0c0.7,0,1.3-0.6,1.3-1.3C468.5,440.4,468.5,436.1,468.5,433.9z" style="fill:#142664;"/>
		<path d="M561.1,385.4c0-0.7-0.6-1.3-1.3-1.3c-1.1,0-2.7,0-3.8,0c-0.7,0-1.3,0.6-1.3,1.3c0,2.2,0,6.5,0,8.7
			c0,0.7,0.6,1.3,1.3,1.3c1.1,0,2.7,0,3.8,0c0.7,0,1.3-0.6,1.3-1.3C561.1,391.9,561.1,387.6,561.1,385.4z" style="fill:#00E6B3;"/>
		<path d="M468.1,373.3c0-0.7-0.6-1.3-1.3-1.3c-1.1,0-2.7,0-3.8,0c-0.7,0-1.3,0.6-1.3,1.3c0,2.2,0,6.5,0,8.7
			c0,0.7,0.6,1.3,1.3,1.3c1.1,0,2.7,0,3.8,0c0.7,0,1.3-0.6,1.3-1.3C468.1,379.8,468.1,375.5,468.1,373.3z" style="fill:#142664;"/>
		<path d="M294.6,481.9c0,0.7,0.6,1.3,1.3,1.3c1.1,0,2.7,0,3.8,0c0.7,0,1.3-0.6,1.3-1.3c0-2.2,0-6.5,0-8.7
			c0-0.7-0.6-1.3-1.3-1.3c-1.1,0-2.7,0-3.8,0c-0.7,0-1.3,0.6-1.3,1.3C294.6,475.4,294.6,479.8,294.6,481.9z" style="fill:#142664;"/>
		<path d="M356.5,391.6V383c0-0.7-0.6-1.3-1.3-1.3c-1.1,0-2.7,0-3.8,0c-0.7,0-1.3,0.6-1.3,1.3c0,0,0,1.4,0,2.5
			c0,0.6-0.5,1.2-1.2,1.2c-1.1,0-2.5,0-2.5,0c-0.7,0-1.3,0.6-1.3,1.3c0,1.1,0,2.7,0,3.8c0,0.7,0.6,1.3,1.3,1.3h8.7l0,0l0,0l0,0l0,0
			l0,0l0,0l0,0l0,0l0,0l0,0l0,0l0,0l0,0l0,0l0,0l0,0l0,0l0,0l0,0l0,0l0,0l0,0l0,0l0,0l0,0l0,0l0,0l0,0l0,0l0,0l0,0l0,0l0,0l0,0l0,0
			l0,0l0,0l0,0l0,0l0,0l0,0l0,0l0,0l0,0l0,0l0,0l0,0l0,0l0,0l0,0l0,0l0,0l0,0l0,0l0,0l0,0l0,0l0,0l0,0l0,0L356.5,391.6L356.5,391.6
			L356.5,391.6L356.5,391.6L356.5,391.6z" style="fill:#FF2E93;"/>
		<path d="M540.3,500.8v-8.7c0-0.7-0.6-1.3-1.3-1.3c-1.1,0-2.7,0-3.8,0c-0.7,0-1.3,0.6-1.3,1.3c0,0,0,1.4,0,2.5
			c0,0.6-0.5,1.2-1.2,1.2c-1.1,0-2.5,0-2.5,0c-0.7,0-1.3,0.6-1.3,1.3c0,1.1,0,2.7,0,3.8c0,0.7,0.6,1.3,1.3,1.3h8.7h0l0,0l0,0l0,0
			l0,0l0,0l0,0l0,0l0,0l0,0l0,0l0,0l0,0l0,0l0,0l0,0l0,0l0,0l0,0l0,0l0,0l0,0l0,0l0,0l0,0l0,0l0,0l0,0l0,0l0,0l0,0l0,0l0,0l0,0l0,0
			l0,0l0,0l0,0l0,0l0,0l0,0l0,0l0,0l0,0l0,0l0,0l0,0l0,0l0,0l0,0l0,0l0,0l0,0l0,0l0,0l0,0l0,0l0,0l0,0l0,0L540.3,500.8L540.3,500.8
			L540.3,500.8L540.3,500.8L540.3,500.8z" style="fill:#00E6B3;"/>
		<path d="M375.3,480.1h8.7c0.7,0,1.3-0.6,1.3-1.3c0-1.1,0-2.7,0-3.8c0-0.7-0.6-1.3-1.3-1.3c0,0-1.4,0-2.5,0
			c-0.6,0-1.2-0.5-1.2-1.2c0-1.1,0-2.5,0-2.5c0-0.7-0.6-1.3-1.3-1.3c-1.1,0-2.7,0-3.8,0c-0.7,0-1.3,0.6-1.3,1.3v8.7v0l0,0l0,0l0,0
			l0,0l0,0l0,0l0,0l0,0l0,0l0,0l0,0l0,0l0,0l0,0l0,0l0,0l0,0l0,0l0,0l0,0l0,0l0,0l0,0l0,0l0,0l0,0l0,0l0,0l0,0l0,0l0,0l0,0l0,0l0,0
			l0,0l0,0l0,0l0,0l0,0l0,0l0,0l0,0l0,0l0,0l0,0l0,0l0,0l0,0l0,0l0,0l0,0l0,0l0,0l0,0l0,0l0,0l0,0l0,0l0,0L375.3,480.1L375.3,480.1
			L375.3,480.1L375.3,480.1L375.3,480.1z" style="fill:#142664;"/>
		<path d="M613.4,529.7c0-1.1-0.4-2.1-1.2-2.8c-0.8-0.8-1.8-1.2-2.8-1.2c-1.2,0-2.6,0-3.9,0c-1.1,0-2.1,0.4-2.8,1.2
			c-0.8,0.8-1.2,1.8-1.2,2.8c0,6.6,0,19,0,19h11.9L613.4,529.7L613.4,529.7z" style="fill:#FF2E93;"/>
		<g>
			<path d="M614.9,605.4c0-0.5-0.2-1-0.6-1.3c-0.4-0.4-0.8-0.6-1.3-0.6h-5.4c-0.5,0-1,0.2-1.3,0.6
				c-0.4,0.4-0.6,0.8-0.6,1.3v5.4c0,0.5,0.2,1,0.6,1.3c0.4,0.4,0.8,0.6,1.3,0.6h5.4c0.5,0,1-0.2,1.3-0.6s0.6-0.8,0.6-1.3V605.4z" style="fill:#FFFFFF;"/>
			<path d="M621.2,598.1c0-0.5-0.2-1-0.6-1.3s-0.8-0.6-1.3-0.6c-0.1,0-0.2,0-0.3,0c-0.5,0-1,0.2-1.3,0.6
				s-0.6,0.8-0.6,1.3c0,1.6,0,3.8,0,5.4c0,0.5,0.2,1,0.6,1.3s0.8,0.6,1.3,0.6c0.1,0,0.2,0,0.3,0c0.5,0,1-0.2,1.3-0.6
				s0.6-0.8,0.6-1.3C621.2,601.9,621.2,599.7,621.2,598.1z" style="fill:#FFFFFF;"/>
			<path d="M662.1,605.4c0-0.5-0.2-1-0.6-1.3c-0.4-0.4-0.8-0.6-1.3-0.6c-0.1,0-0.2,0-0.3,0c-0.5,0-1,0.2-1.3,0.6
				c-0.4,0.4-0.6,0.8-0.6,1.3c0,1.6,0,3.8,0,5.4c0,0.5,0.2,1,0.6,1.3c0.4,0.4,0.8,0.6,1.3,0.6c0.1,0,0.2,0,0.3,0
				c0.5,0,1-0.2,1.3-0.6c0.4-0.4,0.6-0.8,0.6-1.3C662.1,609.3,662.1,607,662.1,605.4z" style="fill:#FFFFFF;"/>
			<path d="M670.6,605.4c0-0.5-0.2-1-0.6-1.3c-0.4-0.4-0.8-0.6-1.3-0.6c-0.8,0-1.6,0-2.4,0c-0.5,0-1,0.2-1.3,0.6
				c-0.4,0.4-0.6,0.8-0.6,1.3c0,1.6,0,3.8,0,5.4c0,0.5,0.2,1,0.6,1.3s0.8,0.6,1.3,0.6c0.8,0,1.6,0,2.4,0c0.5,0,1-0.2,1.3-0.6
				s0.6-0.8,0.6-1.3C670.6,609.3,670.6,607,670.6,605.4z" style="fill:#FFFFFF;"/>
			<path d="M655.8,598.1c0-0.5-0.2-1-0.6-1.3s-0.8-0.6-1.3-0.6c-1.5,0-3.7,0-5.2,0c-0.5,0-1,0.2-1.3,0.6
				s-0.6,0.8-0.6,1.3c0,1.6,0,3.8,0,5.4c0,0.5,0.2,1,0.6,1.3s0.8,0.6,1.3,0.6h5.2c0.5,0,1-0.2,1.3-0.6s0.6-0.8,0.6-1.3V598.1z" style="fill:#FFFFFF;"/>
			<path d="M644.6,605.4c0-0.5-0.2-1-0.6-1.3c-0.4-0.4-0.8-0.6-1.3-0.6c-4,0-13.3,0-17.3,0c-0.5,0-1,0.2-1.3,0.6
				c-0.4,0.4-0.6,0.8-0.6,1.3c0,1.6,0,3.8,0,5.4c0,0.5,0.2,1,0.6,1.3s0.8,0.6,1.3,0.6c4,0,13.3,0,17.3,0c0.5,0,1-0.2,1.3-0.6
				c0.4-0.4,0.6-0.8,0.6-1.3C644.6,609.3,644.6,607,644.6,605.4z" style="fill:#FFFFFF;"/>
		</g>
		<path d="M703,604v11.4c0,1.2-0.9,2.1-2.1,2.1c-1.2,0-2.1-0.9-2.1-2.1v-13.5c0-1.2,0.9-2.1,2.1-2.1h19.6
			c1.2,0,2.1,0.9,2.1,2.1c0,1.2-0.9,2.1-2.1,2.1H703z" style="fill:#00E6B3;"/>
		<g>
			<path d="M506.1,578h-14.8c0,0-7,7-11.3,11.4c-0.5,0.5-0.7,1.4-0.4,2.1c0.3,0.7,1,1.2,1.8,1.2c2.7,0,6,0,8.1,0
				c1.3,0,2.6-0.5,3.5-1.5C496.7,587.5,506.1,578,506.1,578z" style="fill:#142664;"/>
			<path d="M495.3,578.2l-6.1,6.1c-0.8,0.8-0.8,2.2,0,3c0.8,0.8,2.2,0.8,3,0l6.1-6.1c0.8-0.8,0.8-2.2,0-3
				C497.5,577.4,496.2,577.4,495.3,578.2L495.3,578.2z" style="fill:#00E6B3;"/>
		</g>
		<g>
			<path d="M527.6,578h-14.8c0,0-7,7-11.3,11.4c-0.5,0.5-0.7,1.4-0.4,2.1c0.3,0.7,1,1.2,1.8,1.2c2.7,0,6,0,8.1,0
				c1.3,0,2.6-0.5,3.5-1.5C518.2,587.5,527.6,578,527.6,578z" style="fill:#142664;"/>
			<path d="M516.8,578.2l-6.1,6.1c-0.8,0.8-0.8,2.2,0,3c0.8,0.8,2.2,0.8,3,0l6.1-6.1c0.8-0.8,0.8-2.2,0-3
				C519,577.4,517.7,577.4,516.8,578.2L516.8,578.2z" style="fill:#00E6B3;"/>
		</g>
		<g>
			<path d="M549.1,578h-14.8c0,0-7,7-11.3,11.4c-0.5,0.5-0.7,1.4-0.4,2.1c0.3,0.7,1,1.2,1.8,1.2c2.7,0,6,0,8.1,0
				c1.3,0,2.6-0.5,3.5-1.5C539.7,587.5,549.1,578,549.1,578z" style="fill:#142664;"/>
			<path d="M538.3,578.2l-6.1,6.1c-0.8,0.8-0.8,2.2,0,3c0.8,0.8,2.2,0.8,3,0l6.1-6.1c0.8-0.8,0.8-2.2,0-3
				C540.5,577.4,539.1,577.4,538.3,578.2L538.3,578.2z" style="fill:#00E6B3;"/>
		</g>
		<circle cx="302.4" cy="608.8" r="3.2" style="fill:#142664;"/>
		<circle cx="212.7" cy="529.8" r="3.2" style="fill:#00E6B3;"/>
		<circle cx="314.3" cy="608.8" r="3.2" style="fill:#142664;"/>
		<circle cx="560.5" cy="585" r="3.2" style="fill:#142664;"/>
		<circle cx="715" cy="592.4" r="3.2" style="fill:#00E6B3;"/>
		<path d="M387.1,564.8c0.5,0.7,0.5,1.6,0.1,2.3c-0.4,0.7-1.1,1.2-2,1.2H374c-0.8,0-1.6-0.5-2-1.2
			c-0.4-0.7-0.3-1.6,0.1-2.3c1.7-2.5,4-5.8,5.6-8.1c0.4-0.6,1.1-1,1.8-1s1.4,0.4,1.8,1C383,559,385.4,562.3,387.1,564.8z" style="fill:#142664;"/>
		<path d="M491.4,564.8c0.5,0.7,0.5,1.6,0.1,2.3c-0.4,0.7-1.1,1.2-2,1.2h-11.3c-0.8,0-1.6-0.5-2-1.2
			c-0.4-0.7-0.3-1.6,0.1-2.3c1.7-2.5,4-5.8,5.6-8.1c0.4-0.6,1.1-1,1.8-1c0.7,0,1.4,0.4,1.8,1C487.4,559,489.7,562.3,491.4,564.8z" style="fill:#142664;"/>
		<path d="M598.5,564.8c0.5,0.7,0.5,1.6,0.1,2.3c-0.4,0.7-1.1,1.2-2,1.2h-11.3c-0.8,0-1.6-0.5-2-1.2
			c-0.4-0.7-0.3-1.6,0.1-2.3c1.7-2.5,4-5.8,5.6-8.1c0.4-0.6,1.1-1,1.8-1s1.4,0.4,1.8,1C594.5,559,596.8,562.3,598.5,564.8z" style="fill:#142664;"/>
		<path d="M224.6,534.8v-19c0-3.4-2.7-6.1-6.1-6.1c-2.5,0-5.5,0-7.4,0c-1.6,0-3.2,0.6-4.3,1.8
			c-2.9,2.9-10.3,10.3-13.1,13.1c-1.1,1.1-1.8,2.7-1.8,4.3c0,1.5,0,3.9,0,5.9c0,1.6,0.6,3.2,1.8,4.3c1.1,1.1,2.7,1.8,4.3,1.8
			c5.4,0,15.1,0,20.5,0c1.6,0,3.2-0.6,4.3-1.8C224,538,224.6,536.5,224.6,534.8L224.6,534.8z M220.4,534.8c0,0.5-0.2,1-0.5,1.3
			c-0.3,0.3-0.8,0.5-1.3,0.5c-5.4,0-15.1,0-20.5,0c-0.5,0-1-0.2-1.3-0.5c-0.3-0.3-0.5-0.8-0.5-1.3c0-2,0-4.4,0-5.9
			c0-0.5,0.2-1,0.5-1.3c2.9-2.9,10.3-10.3,13.1-13.1c0.3-0.3,0.8-0.5,1.3-0.5c1.8,0,4.9,0,7.4,0c1,0,1.9,0.8,1.9,1.9L220.4,534.8
			L220.4,534.8z" style="fill:#00E6B3;"/>
		<g>
			<path d="M219.6,465.3c0-1.4-1.1-2.6-2.6-2.6h-8.9c-0.7,0-1.3,0.3-1.8,0.7c-0.5,0.5-0.7,1.1-0.7,1.8v18.5
				c0,1.4,1.1,2.6,2.6,2.6h8.9c0.7,0,1.3-0.3,1.8-0.7c0.5-0.5,0.7-1.1,0.7-1.8V465.3z" style="fill:#FFFFFF;"/>
			<path d="M214.5,466.6c0-0.3-0.1-0.6-0.3-0.8c-0.2-0.2-0.5-0.3-0.8-0.3c-0.9,0-2.3,0-3.3,0c-0.3,0-0.6,0.1-0.8,0.3
				c-0.2,0.2-0.3,0.5-0.3,0.8c0,0.7,0,1.6,0,2.3c0,0.3,0.1,0.6,0.3,0.8c0.2,0.2,0.5,0.3,0.8,0.3c0.9,0,2.3,0,3.3,0
				c0.3,0,0.6-0.1,0.8-0.3c0.2-0.2,0.3-0.5,0.3-0.8C214.5,468.1,214.5,467.3,214.5,466.6z" style="fill:#FF2E93;"/>
			<path d="M216.1,473.4c0-0.3-0.1-0.6-0.3-0.8c-0.2-0.2-0.5-0.3-0.8-0.3c-1.3,0-3.5,0-4.8,0c-0.3,0-0.6,0.1-0.8,0.3
				c-0.2,0.2-0.3,0.5-0.3,0.8c0,0.7,0,1.6,0,2.3c0,0.3,0.1,0.6,0.3,0.8c0.2,0.2,0.5,0.3,0.8,0.3c1.3,0,3.5,0,4.8,0
				c0.3,0,0.6-0.1,0.8-0.3c0.2-0.2,0.3-0.5,0.3-0.8C216.1,475,216.1,474.1,216.1,473.4z" style="fill:#FF2E93;"/>
			<path d="M212.6,480.3c0-0.6-0.5-1.1-1.1-1.1c-0.4,0-0.9,0-1.3,0c-0.6,0-1.1,0.5-1.1,1.1c0,0.7,0,1.6,0,2.3
				c0,0.6,0.5,1.1,1.1,1.1c0.4,0,0.9,0,1.3,0c0.6,0,1.1-0.5,1.1-1.1C212.6,481.9,212.6,481,212.6,480.3z" style="fill:#FF2E93;"/>
		</g>
		<path d="M131.9,600H88.1c-1.2,0-2.1-0.9-2.1-2.1c0-1.2,0.9-2.1,2.1-2.1H134c1.2,0,2.1,0.9,2.1,2.1v17.6
			c0,1.2-0.9,2.1-2.1,2.1c-1.2,0-2.1-0.9-2.1-2.1V600z M143.3,561.8V555l-18.2-18.2c-0.8-0.8-0.8-2.2,0-3c0.8-0.8,2.2-0.8,3,0
			l18.8,18.8c0.4,0.4,0.6,0.9,0.6,1.5v22.7l14.1,14.1c0.8,0.8,0.8,2.2,0,3c-0.8,0.8-2.2,0.8-3,0L144,579.1c-0.4-0.4-0.6-0.9-0.6-1.5
			v-11.6h-8.4l-10,10c-0.4,0.4-0.9,0.6-1.5,0.6H88.1c-1.2,0-2.1-0.9-2.1-2.1s0.9-2.1,2.1-2.1h34.4l10-10c0.4-0.4,0.9-0.6,1.5-0.6
			H143.3L143.3,561.8z" style="fill:#142664;"/>
		<g>
			<path d="M108.1,537.4c-1.2,0-2.2-0.7-2.7-1.8c-0.5-1.1-0.2-2.3,0.6-3.2c7.3-7.3,20.3-20.3,23.7-23.7
				c0.5-0.5,1.3-0.9,2.1-0.9c6.6,0,38.3,0,52.6,0.1c1.2,0,2.2,0.7,2.7,1.8s0.2,2.3-0.6,3.2c-7.3,7.3-20.2,20.2-23.7,23.7
				c-0.5,0.5-1.3,0.9-2.1,0.9H108.1L108.1,537.4z" style="fill:#FFFFFF;"/>
			<path d="M126.6,532.9c-0.5,0-1-0.3-1.2-0.8c-0.2-0.5-0.1-1,0.3-1.4c3.8-3.8,11.6-11.6,13.4-13.4
				c0.2-0.2,0.6-0.4,0.9-0.4c2.7,0,15.4,0,21.3,0c0.5,0,1,0.3,1.2,0.8c0.2,0.5,0.1,1-0.3,1.4c-3.8,3.8-11.6,11.6-13.3,13.3
				c-0.2,0.2-0.6,0.4-0.9,0.4C145.2,532.9,132.5,532.9,126.6,532.9L126.6,532.9z" style="fill:#142664;"/>
			<path d="M159.5,533.2l12-12c0.8-0.8,0.8-2.2,0-3c-0.8-0.8-2.2-0.8-3,0l-12,12c-0.8,0.8-0.8,2.2,0,3
				C157.3,534,158.6,534,159.5,533.2z" style="fill:#142664;"/>
			<path d="M171.5,515.1c-0.5,0-1-0.3-1.2-0.8s-0.1-1,0.3-1.4c0.8-0.8,1.6-1.6,2.1-2.1c0.2-0.2,0.6-0.4,0.9-0.4
				c1.1,0,3.8,0,5.9,0c0.5,0,1,0.3,1.2,0.8c0.2,0.5,0.1,1-0.3,1.4c-0.8,0.8-1.6,1.6-2.1,2.1c-0.2,0.2-0.6,0.4-0.9,0.4
				C176.3,515.1,173.7,515.1,171.5,515.1z" style="fill:#00E6B3;"/>
			<path d="M158.2,515.1c-0.5,0-1-0.3-1.2-0.8c-0.2-0.5-0.1-1,0.3-1.4c0.8-0.8,1.6-1.6,2.1-2.1c0.2-0.2,0.6-0.4,0.9-0.4
				c1.1,0,3.8,0,5.9,0c0.5,0,1,0.3,1.2,0.8c0.2,0.5,0.1,1-0.3,1.4c-0.8,0.8-1.6,1.6-2.1,2.1c-0.2,0.2-0.6,0.4-0.9,0.4
				C163,515.1,160.4,515.1,158.2,515.1L158.2,515.1z" style="fill:#FF2E93;"/>
			<path d="M145.1,515.1c-0.5,0-1-0.3-1.2-0.8s-0.1-1,0.3-1.4c0.8-0.8,1.6-1.6,2.1-2.1c0.2-0.2,0.6-0.4,0.9-0.4
				c1.1,0,3.8,0,5.9,0c0.5,0,1,0.3,1.2,0.8c0.2,0.5,0.1,1-0.3,1.4c-0.8,0.8-1.6,1.6-2.1,2.1c-0.2,0.2-0.6,0.4-0.9,0.4
				C150,515.1,147.3,515.1,145.1,515.1z" style="fill:#142664;"/>
			<path d="M125.9,521.8c1.8,0,2.4,1,1.2,2.1c-1.2,1.2-3.6,2.1-5.5,2.1s-2.4-0.9-1.2-2.1
				C121.6,522.8,124,521.8,125.9,521.8z" style="fill:#142664;"/>
			<path d="M131.8,516c1.8,0,2.4,0.9,1.2,2.1c-1.2,1.2-3.6,2.1-5.5,2.1c-1.8,0-2.4-0.9-1.2-2.1
				C127.5,516.9,129.9,516,131.8,516z" style="fill:#142664;"/>
			<path d="M137.4,510.3c1.8,0,2.4,0.9,1.2,2.1c-1.2,1.2-3.6,2.1-5.5,2.1s-2.4-0.9-1.2-2.1
				C133.1,511.3,135.5,510.3,137.4,510.3z" style="fill:#00E6B3;"/>
		</g>
		<path d="M362.2,604.1l6.3-6.3H399l6.3,6.3v13.4h-43.1V604.1z" style="fill:#00E6B3;"/>
		<path d="M377.1,612.7h13.3c1.8,0,3.2-1.4,3.2-3.2s-1.4-3.2-3.2-3.2h-13.3c-1.8,0-3.2,1.4-3.2,3.2
			S375.4,612.7,377.1,612.7z" style="fill:#142664;"/>
		<path d="M372.5,595.7l-7.7-7.7h-17c-1.2,0-2.1-0.9-2.1-2.1v-5.7c0-1.2,0.9-2.1,2.1-2.1c1.2,0,2.1,0.9,2.1,2.1v3.6
			h15.8c0.6,0,1.1,0.2,1.5,0.6l11.3,11.3h15.3v-15.5c0-1.2,0.9-2.1,2.1-2.1c1.2,0,2.1,0.9,2.1,2.1v15.5h1c0.6,0,1.1,0.2,1.5,0.6
			l6.3,6.3c0.4,0.4,0.6,0.9,0.6,1.5v11.3c0,1.2-0.9,2.1-2.1,2.1c-1.2,0-2.1-0.9-2.1-2.1V605l-5.1-5.1h-28.7l-5.1,5.1v10.4
			c0,1.2-0.9,2.1-2.1,2.1c-1.2,0-2.1-0.9-2.1-2.1v-11.3c0-0.6,0.2-1.1,0.6-1.5l6.3-6.3c0.4-0.4,0.9-0.6,1.5-0.6L372.5,595.7
			L372.5,595.7z M558,604.2v-6.5c0-0.6,0.2-1.1,0.6-1.5l17.7-17.7c0.8-0.8,2.2-0.8,3,0c0.8,0.8,0.8,2.2,0,3l-17.1,17.1v16.7
			c0,1.2-0.9,2.1-2.1,2.1c-1.2,0-2.1-0.9-2.1-2.1v-6.9H526v6.9c0,1.2-0.9,2.1-2.1,2.1c-1.2,0-2.1-0.9-2.1-2.1v-9.1
			c0-1.2,0.9-2.1,2.1-2.1H558z M625.5,586.1l9.1-7.3c0.9-0.7,2.2-0.6,3,0.3c0.7,0.9,0.6,2.2-0.3,3l-9.6,7.8
			c-0.4,0.3-0.8,0.5-1.3,0.5h-19.8L592,604.8v10.6c0,1.2-0.9,2.1-2.1,2.1c-1.2,0-2.1-0.9-2.1-2.1v-11.5c0-0.6,0.2-1.1,0.6-1.5
			l15.7-15.7c0.4-0.4,0.9-0.6,1.5-0.6L625.5,586.1L625.5,586.1z M450.1,595.7l5.1-5.1c0.4-0.4,0.9-0.6,1.5-0.6h11.6v-9.8
			c0-1.2,0.9-2.1,2.1-2.1c1.2,0,2.1,0.9,2.1,2.1V592c0,1.2-0.9,2.1-2.1,2.1h-12.8L446,605.8v9.6c0,1.2-0.9,2.1-2.1,2.1
			c-1.2,0-2.1-0.9-2.1-2.1v-10.5c0-0.6,0.2-1.1,0.6-1.5l4.7-4.7l-4.5-4.5l-14.5,14.5c-0.6,0.6-1.5,0.8-2.3,0.5
			c-0.8-0.3-1.3-1.1-1.3-2v-26.9c0-1.2,0.9-2.1,2.1-2.1c1.2,0,2.1,0.9,2.1,2.1V602l12.3-12.3c0.8-0.8,2.2-0.8,3,0L450.1,595.7
			L450.1,595.7z M302.4,592.6v6.9c0,1.2-0.9,2.1-2.1,2.1h-26.4v13.8c0,1.2-0.9,2.1-2.1,2.1c-1.2,0-2.1-0.9-2.1-2.1v-15.9
			c0-1.2,0.9-2.1,2.1-2.1h26.4v-17.2c0-1.2,0.9-2.1,2.1-2.1c1.2,0,2.1,0.9,2.1,2.1v8.2h6.8v-8.2c0-1.2,0.9-2.1,2.1-2.1
			c1.2,0,2.1,0.9,2.1,2.1v10.3c0,1.2-0.9,2.1-2.1,2.1L302.4,592.6L302.4,592.6z M678,584.1l16.7,16.7c0.8,0.8,0.8,2.2,0,3
			c-0.8,0.8-2.2,0.8-3,0l-17.3-17.3c-0.4-0.4-0.6-0.9-0.6-1.5v-5.5c0-1.2,0.9-2.1,2.1-2.1s2.1,0.9,2.1,2.1V584.1z" style="fill:#142664;"/>
		<g>
			<path d="M174.7,555.8c0-0.5-0.2-1-0.6-1.3c-0.4-0.4-0.8-0.6-1.3-0.6c-1.3,0-3.1,0-4.5,0c-0.5,0-1,0.2-1.3,0.6
				c-0.4,0.4-0.6,0.8-0.6,1.3c0,1.7,0,4.3,0,6c0,0.5,0.2,1,0.6,1.3c0.4,0.4,0.8,0.6,1.3,0.6c1.3,0,3.1,0,4.5,0c0.5,0,1-0.2,1.3-0.6
				c0.4-0.4,0.6-0.8,0.6-1.3C174.7,560.1,174.7,557.5,174.7,555.8z" style="fill:#FFFFFF;"/>
			<path d="M180.4,548c0-0.5-0.2-1-0.5-1.3c-0.3-0.3-0.8-0.5-1.3-0.5c0,0,0,0,0,0c-0.5,0-1,0.2-1.3,0.5
				c-0.3,0.3-0.5,0.8-0.5,1.3c0,1.7,0,4.4,0,6.1c0,0.5,0.2,1,0.5,1.3c0.3,0.3,0.8,0.5,1.3,0.5c0,0,0,0,0,0c0.5,0,1-0.2,1.3-0.5
				c0.3-0.3,0.5-0.8,0.5-1.3C180.4,552.3,180.4,549.7,180.4,548z" style="fill:#FFFFFF;"/>
			<path d="M217.1,555.8c0-0.5-0.2-1-0.5-1.3c-0.3-0.3-0.8-0.5-1.3-0.5c0,0,0,0,0,0c-0.5,0-1,0.2-1.3,0.5
				c-0.3,0.3-0.5,0.8-0.5,1.3c0,1.7,0,4.4,0,6.1c0,0.5,0.2,1,0.5,1.3c0.3,0.3,0.8,0.5,1.3,0.5c0,0,0,0,0,0c0.5,0,1-0.2,1.3-0.5
				c0.3-0.3,0.5-0.8,0.5-1.3C217.1,560.1,217.1,557.5,217.1,555.8z" style="fill:#FFFFFF;"/>
			<path d="M224.7,555.8c0-0.5-0.2-1-0.6-1.3c-0.4-0.4-0.8-0.6-1.3-0.6c-0.6,0-1.2,0-1.8,0c-0.5,0-1,0.2-1.3,0.6
				c-0.4,0.4-0.6,0.8-0.6,1.3c0,1.7,0,4.3,0,6c0,0.5,0.2,1,0.6,1.3c0.4,0.4,0.8,0.6,1.3,0.6c0.6,0,1.2,0,1.8,0c0.5,0,1-0.2,1.3-0.6
				c0.4-0.4,0.6-0.8,0.6-1.3C224.7,560.1,224.7,557.5,224.7,555.8z" style="fill:#FFFFFF;"/>
			<path d="M211.4,548c0-0.5-0.2-1-0.6-1.3c-0.4-0.4-0.8-0.6-1.3-0.6c-1.3,0-3,0-4.3,0c-0.5,0-1,0.2-1.3,0.6
				c-0.4,0.4-0.6,0.8-0.6,1.3c0,1.7,0,4.3,0,6c0,0.5,0.2,1,0.6,1.3c0.4,0.4,0.8,0.6,1.3,0.6c1.3,0,3,0,4.3,0c0.5,0,1-0.2,1.3-0.6
				c0.4-0.4,0.6-0.8,0.6-1.3C211.4,552.3,211.4,549.8,211.4,548z" style="fill:#FFFFFF;"/>
			<path d="M201.3,555.8c0-0.5-0.2-1-0.6-1.3c-0.4-0.4-0.8-0.6-1.3-0.6c-3.6,0-11.5,0-15.1,0c-0.5,0-1,0.2-1.3,0.6
				c-0.4,0.4-0.6,0.8-0.6,1.3c0,1.7,0,4.3,0,6c0,0.5,0.2,1,0.6,1.3c0.4,0.4,0.8,0.6,1.3,0.6c3.6,0,11.5,0,15.1,0
				c0.5,0,1-0.2,1.3-0.6c0.4-0.4,0.6-0.8,0.6-1.3C201.3,560.1,201.3,557.5,201.3,555.8z" style="fill:#FFFFFF;"/>
		</g>
		<path d="M177.5,590.2l19-19c0.4-0.4,0.9-0.6,1.5-0.6h30.7c1.2,0,2.1,0.9,2.1,2.1s-0.9,2.1-2.1,2.1h-29.8l-18.3,18.3
			v22.2c0,1.2-0.9,2.1-2.1,2.1c-1.2,0-2.1-0.9-2.1-2.1v-20.9h-13.9c-1.2,0-2.1-0.9-2.1-2.1c0-1.2,0.9-2.1,2.1-2.1L177.5,590.2
			L177.5,590.2z" style="fill:#00E6B3;"/>
		<path d="M234.4,501.6c0,0,1.3-0.8,3.1-1.9c0.9-0.6,2-1.3,3-2.1c0.6-0.4,1.1-0.9,1.7-1.4c2.1-1.8,3.7-3.5,3.7-3.5
			c0.7-0.5,0.8-1.5,0.3-2.2c-0.5-0.7-1.5-0.8-2.2-0.3c0,0-2,1.2-4.3,2.7c-0.6,0.4-1.2,0.8-1.8,1.3c-1,0.8-1.9,1.6-2.8,2.4
			c-1.6,1.4-2.7,2.5-2.7,2.5c-0.7,0.5-0.8,1.5-0.3,2.2C232.7,502,233.7,502.1,234.4,501.6L234.4,501.6z" style="fill:#00E6B3;"/>
		<path d="M237.6,507.3c0,0,0.7,0,1.7-0.2c0.5-0.1,1.1-0.2,1.6-0.4c0.3-0.1,0.6-0.3,0.9-0.4c1.2-0.6,2.1-1.2,2.1-1.2
			c0.8-0.3,1.2-1.2,0.9-2c-0.3-0.8-1.2-1.2-2-0.9c0,0-1.1,0.1-2.4,0.4c-0.3,0.1-0.7,0.1-1,0.3c-0.6,0.2-1.1,0.5-1.5,0.7
			c-0.9,0.5-1.5,0.9-1.5,0.9c-0.8,0.3-1.2,1.2-0.9,2S236.8,507.6,237.6,507.3z" style="fill:#00E6B3;"/>
		<g>
			<path d="M200.7,437.6c0-1.4-1.1-2.6-2.6-2.6h-56.5c-1.4,0-2.6,1.1-2.6,2.6V475c0,1.4,1.1,2.6,2.6,2.6h56.5
				c1.4,0,2.6-1.1,2.6-2.6V437.6z" style="fill:#142664;"/>
			<path d="M145.6,444h5.4c1.2,0,2.1-0.9,2.1-2.1c0-1.2-0.9-2.1-2.1-2.1h-5.4c-1.2,0-2.1,0.9-2.1,2.1
				C143.5,443.1,144.4,444,145.6,444z" style="fill:#FF2E93;"/>
			<path d="M157.8,444h24.3c1.2,0,2.1-0.9,2.1-2.1c0-1.2-0.9-2.1-2.1-2.1h-24.3c-1.2,0-2.1,0.9-2.1,2.1
				C155.6,443.1,156.6,444,157.8,444L157.8,444z" style="fill:#00E6B3;"/>
			<path d="M152.1,451.4h10.9c1.2,0,2.1-0.9,2.1-2.1c0-1.2-0.9-2.1-2.1-2.1h-10.9c-1.2,0-2.1,0.9-2.1,2.1
				C150,450.4,151,451.4,152.1,451.4z" style="fill:#FFFFFF;"/>
			<path d="M169.7,451.4h3.4c1.2,0,2.1-0.9,2.1-2.1c0-1.2-0.9-2.1-2.1-2.1h-3.4c-1.2,0-2.1,0.9-2.1,2.1
				C167.6,450.4,168.5,451.4,169.7,451.4z" style="fill:#FFFFFF;"/>
			<path d="M179.9,451.4h9.8c1.2,0,2.1-0.9,2.1-2.1c0-1.2-0.9-2.1-2.1-2.1h-9.8c-1.2,0-2.1,0.9-2.1,2.1
				C177.8,450.4,178.7,451.4,179.9,451.4z" style="fill:#00E6B3;"/>
			<path d="M152.1,458.7h3.5c1.2,0,2.1-0.9,2.1-2.1c0-1.2-0.9-2.1-2.1-2.1h-3.5c-1.2,0-2.1,0.9-2.1,2.1
				C150,457.7,151,458.7,152.1,458.7L152.1,458.7z" style="fill:#00E6B3;"/>
			<path d="M162,458.7h21.1c1.2,0,2.1-0.9,2.1-2.1c0-1.2-0.9-2.1-2.1-2.1H162c-1.2,0-2.1,0.9-2.1,2.1
				C159.9,457.7,160.8,458.7,162,458.7z" style="fill:#FF2E93;"/>
			<path d="M161.6,466h16.8c1.2,0,2.1-0.9,2.1-2.1c0-1.2-0.9-2.1-2.1-2.1h-16.8c-1.2,0-2.1,0.9-2.1,2.1
				C159.4,465.1,160.4,466,161.6,466z" style="fill:#00E6B3;"/>
			<path d="M184.5,466h3.9c1.2,0,2.1-0.9,2.1-2.1c0-1.2-0.9-2.1-2.1-2.1h-3.9c-1.2,0-2.1,0.9-2.1,2.1
				C182.4,465.1,183.3,466,184.5,466z" style="fill:#FFFFFF;"/>
		</g>
		<path d="M215.6,430l3.1-3.1c0.8-0.8,0.8-2.2,0-3c-0.8-0.8-2.2-0.8-3,0l-3.1,3.1c-0.8,0.8-0.8,2.2,0,3
			C213.5,430.8,214.8,430.8,215.6,430L215.6,430z" style="fill:#FF2E93;"/>
		<g>
			<circle cx="204.1" cy="434.2" r="11.6" style="fill:#FFFFFF;"/>
			<path d="M204.1,426.8c4.1,0,7.4,3.3,7.4,7.4c0,2-0.8,3.9-2.2,5.2l-3-3c0.6-0.6,0.9-1.4,0.9-2.2
				c0-1.8-1.4-3.2-3.2-3.2V426.8z" style="fill:#FF2E93;"/>
			<path d="M204.1,431.1c-0.2,0-0.5,0-0.7,0.1c-0.6,0.1-1.1,0.4-1.5,0.8l0,0l-3-3c1.3-1.3,3.2-2.2,5.2-2.2V431.1
				L204.1,431.1z" style="fill:#142664;"/>
			<path d="M198.8,429l3,3c-0.6,0.6-0.9,1.4-0.9,2.3c0,1.7,1.4,3.2,3.2,3.2c0.9,0,1.7-0.4,2.3-0.9l3,3
				c-1.3,1.3-3.2,2.2-5.2,2.2c-4.1,0-7.4-3.3-7.4-7.4C196.6,432.2,197.5,430.3,198.8,429L198.8,429z" style="fill:#00E6B3;"/>
		</g>
		<path d="M227,497.6c0,0,9.4-9.4,13.1-13.1c1.4-1.4,2.1-3.2,2.1-5.2v-69.1c0-1.9-0.8-3.8-2.1-5.2
			c-1.4-1.4-3.2-2.1-5.2-2.1H121.7c-1.9,0-3.8,0.8-5.2,2.1c-1.4,1.4-2.1,3.2-2.1,5.2c0,15.2,0,58.9,0,69.1c0,1.9,0.8,3.8,2.1,5.2
			c3.8,3.8,13.1,13.1,13.1,13.1c0.8,0.8,2.2,0.8,3,0c0.8-0.8,0.8-2.2,0-3c0,0-9.4-9.4-13.1-13.1c-0.6-0.6-0.9-1.4-0.9-2.2
			c0-10.2,0-53.9,0-69.1c0-0.8,0.3-1.6,0.9-2.2c0.6-0.6,1.4-0.9,2.2-0.9c20.2,0,93.1,0,113.3,0c0.8,0,1.6,0.3,2.2,0.9
			c0.6,0.6,0.9,1.4,0.9,2.2c0,15.2,0,58.9,0,69.1c0,0.8-0.3,1.6-0.9,2.2c-3.8,3.8-13.1,13.1-13.1,13.1c-0.8,0.8-0.8,2.2,0,3
			C224.9,498.4,226.2,498.4,227,497.6z" style="fill:#00E6B3;"/>
		<circle cx="147.2" cy="488.9" r="2.6" style="fill:#142664;"/>
		<circle cx="156.7" cy="488.9" r="2.6" style="fill:#142664;"/>
		<circle cx="166.2" cy="488.9" r="2.6" style="fill:#142664;"/>
		<g>
			<path d="M87.1,488.2h25.8c0,0,0,10.1,0,17.1c0,3.5-2.9,6.4-6.4,6.4h-2.1v0.8c0,1.1-0.9,1.9-1.9,1.9
				c-3.3,0-10.1,0-13.4,0c-1.1,0-1.9-0.9-1.9-1.9C87.1,506.4,87.1,488.2,87.1,488.2L87.1,488.2z" style="fill:#FF2E93;"/>
			<path d="M77.6,616.1c0,0.4,0.2,0.8,0.4,1c0.3,0.3,0.6,0.4,1,0.4c3.2,0,10.8,0,13.5,0c0.6,0,1.1-0.4,1.1-1
				c-0.1-1.1-0.5-3.1-2.6-5.1c-0.5-0.5-1.1-0.7-1.8-0.7c-2.1,0-7.1,0-9.9,0c-1,0-1.9,0.8-1.9,1.9C77.6,613.6,77.6,615,77.6,616.1
				L77.6,616.1z" style="fill:#00E6B3;"/>
			<path d="M102.7,616.1c0,0.4,0.2,0.8,0.4,1c0.3,0.3,0.6,0.4,1,0.4c3.2,0,10.8,0,13.5,0c0.6,0,1.1-0.4,1.1-1
				c-0.1-1.1-0.5-3.1-2.6-5.1c-0.5-0.5-1.1-0.7-1.8-0.7c-2.1,0-7.1,0-9.9,0c-1,0-1.9,0.8-1.9,1.9C102.7,613.6,102.7,615,102.7,616.1
				L102.7,616.1z" style="fill:#00E6B3;"/>
			<path d="M117.1,559.2c0,0-1,39.9-1.2,49.4c0,1.1-0.9,2-2.1,2c-2.6,0-7.2,0-9.8,0c-1.1,0-2-0.9-2.1-2
				c-0.3-7.3-1.3-32.1-1.3-32.1c0-0.2,0-0.4,0-0.6l0-0.1c-0.3-2.8-8.2-2.7-8.4,0l0,0.1c0,0.1,0,0.3,0,0.4l0,0l-1.5,34.2H77L76,559.2
				H117.1z" style="fill:#142664;"/>
			<path d="M70.1,520.5c0.2-0.4,0.5-0.9,1-1.4c8.7-8.7,42.6-8.8,49-0.1l0,0.1c4.7,7.8,8.2,17.4,15.4,9.1
				c4.5-5.1,11.9,1.9,8.3,6.9c-3.9,5.4-17,15.5-26.3,8.6l-0.5,19.1c0,1.6-1.3,2.8-2.9,2.8c-7.5,0-28,0-35.5,0
				c-1.6,0-2.9-1.3-2.9-2.8l-0.5-20.5c-1.6-1.6-3-3.8-4.2-6.7C71.2,535.5,67,525.7,70.1,520.5L70.1,520.5z" style="fill:#00E6B3;"/>
			<path d="M116.7,542.7c0,0-1-0.8-2.3-2.2c-0.6-0.7-1.3-1.5-2-2.5c-0.4-0.5-0.7-1-1.1-1.5c-0.8-1.2-1.6-2.4-2.1-4
				c-0.2-0.8-1.1-1.3-1.9-1.1c-0.8,0.2-1.3,1.1-1.1,1.9c0.3,2,0.9,3.7,1.6,5.2c0.4,0.7,0.8,1.4,1.2,2c0.9,1.2,1.9,2.1,2.8,2.8
				c1.9,1.5,3.4,2.1,3.4,2.1c0.8,0.4,1.7,0.1,2.1-0.7C117.8,544.1,117.5,543.1,116.7,542.7L116.7,542.7z" style="fill:#142664;"/>
			<path d="M139.2,523.8c1.5-1.7,4.6-5.5,6.1-4.8c4.3,2.1,5.2,7.6-1.1,15.6c-5,6.4-7.6-7.3-7.6-7.3l0,0
				c-0.6-2.4,0-4,0.9-4.6C138.2,522.2,139,522.5,139.2,523.8L139.2,523.8z" style="fill:#FF2E93;"/>
			<path d="M92.1,480.7c4.2,0.9,5.2-2.2,9.2-3.1l0.4-0.1c0.3-0.1,0.7-0.1,1.1-0.1c0.6,0,1.3,0.1,1.8,0.3
				c0.5,0.2,1.1,0,1.5-0.4c1.3-1.6,4.4-3.5,6.6-3.6c6-0.2,8.6,3.1,8.6,8.2c0,4-5.7,8.4-9.7,8.4c-0.2,0-0.4,0-0.6,0
				c-4,0.1-4.4,4.8-4.4,7.2c0,2.6-3.3,2.5-3.3,0s-3.3-3.6-3.3,0c0,3.6-1.6,9.4-9.1,9.5c-9.1,0.1-9.9-14.1-8.5-16.7l0,0
				c0.3-0.7,0.8-1.4,1.4-1.9c0.5-0.4,0.8-1.1,0.7-1.8l0,0C84.3,483.7,87.3,480,92.1,480.7L92.1,480.7L92.1,480.7z" style="fill:#142664;"/>
			<path d="M75.7,538.5c0,0,0.2-0.6,0.3-1.4c0.1-0.4,0.1-0.9,0.1-1.4c0-0.3-0.1-0.6-0.1-0.8c-0.2-1.1-0.5-1.9-0.5-1.9
				c0-0.9-0.8-1.5-1.6-1.5c-0.9,0-1.5,0.8-1.5,1.6c0,0-0.2,0.9-0.4,2c0,0.3-0.1,0.6-0.1,0.8c0,0.5,0.1,1,0.2,1.4
				c0.2,0.8,0.4,1.4,0.4,1.4c0,0.9,0.8,1.5,1.6,1.5C75,540.1,75.7,539.3,75.7,538.5z" style="fill:#142664;"/>
		</g>
		<path d="M475.7,514.1c-2.2,0-4,1.8-4,4v30.7h16.7v-19.4c0-1.6-1.3-2.8-2.8-2.8c0,0,0,0,0,0c-1.6,0-2.8-1.3-2.8-2.8
			c0-1.7,0-3.8,0-5.6c0-2.2-1.8-4-4-4C477.8,514.1,476.7,514.1,475.7,514.1L475.7,514.1z" style="fill:#00E6B3;"/>
		<path d="M388.5,478.2c0-0.7-0.6-1.3-1.3-1.3h-3.8c-0.7,0-1.3,0.6-1.3,1.3v3.8c0,0.7,0.6,1.3,1.3,1.3h3.8
			c0.7,0,1.3-0.6,1.3-1.3V478.2z" style="fill:#00E6B3;"/>
	</g>
</g>
</svg>