<?xml version="1.0" encoding="UTF-8"?><svg version="1.1" id="Calque_1" xmlns:serif="http://www.serif.com/" xmlns="http://www.w3.org/2000/svg" xmlns:xlink="http://www.w3.org/1999/xlink" x="0px" y="0px" viewBox="0 0 800 800" enable-background="new 0 0 800 800" xml:space="preserve" width="800px" height="800px">
<g>
	<g>
		<path fill="#00E6B3" d="M320,662.3c0,3.4-1.8,6.5-4.7,8.1c-16.2,9.3-70,40.4-95.9,55.4c-2.9,1.7-13,2.1-15.9,0.4
			c-2.9-1.7,1.8-5.2,1.8-8.6c0-27.9,0-83.5,0-101.1c0-3.4,1.8-6.5,4.7-8.1c16.2-9.3,62.6-40.6,88.5-55.5c2.9-1.7,13.9-1.5,16.8,0.2
			s4.7,4.8,4.7,8.1C320,589.1,320,644.7,320,662.3L320,662.3z"/>
		<path fill="#142664" d="M312.3,662.3c0,3.4-1.8,6.5-4.7,8.1c-16.2,9.3-70,40.4-95.9,55.4c-2.9,1.7-6.5,1.7-9.4,0s-4.7-4.8-4.7-8.1
			c0-27.9,0-83.5,0-101.1c0-3.4,1.8-6.5,4.7-8.1c16.2-9.3,70-40.4,95.9-55.4c2.9-1.7,6.5-1.7,9.4,0s4.7,4.8,4.7,8.1
			C312.3,589.1,312.3,644.7,312.3,662.3L312.3,662.3z"/>
		<path fill="#00E6B3" d="M237,640.8l-34.3-23.4c-1.1-0.7-1.4-2.3-0.7-3.4c0.7-1.1,2.3-1.4,3.4-0.7l51.6,33.4
			c1.6-3.3,4.3-8.7,7.7-15.4c2.8-5.6,6-11.9,9.4-18.6c13.2-25.8,28.7-55.5,28.7-55.5c0.6-1.2,2.1-1.7,3.3-1.1
			c1.2,0.6,1.7,2.1,1.1,3.3c0,0-14.6,30.2-27.3,56.2c-1.1,2.2-2.2,4.5-3.3,6.6c2.1,2.3,5.9,6.5,10.1,11.3c1.6,1.8,3.3,3.7,4.9,5.7
			c2.8,3.4,5.4,6.8,7.8,9.8c4.4,5.7,7.5,10,7.5,10c0.9,1,0.7,2.6-0.3,3.4c-1,0.9-2.6,0.7-3.4-0.3c0,0-3.6-3.9-8.4-9.3
			c-2.5-2.9-5.4-6.1-8.2-9.5c-1.6-2-3.2-4-4.7-5.9c-3.1-3.9-5.8-7.6-7.8-10.1c-1.2,2.4-2.3,4.7-3.4,6.9c-5.5,11-9.4,18.6-9.4,18.6
			c-0.4,0.8-1.2,1.4-2.1,1.7c-0.9,0.2-1.8,0.1-2.6-0.4l-15.2-10.4c-1.9,4.8-5.6,14.4-10,25.1c-1.6,3.9-3.3,8-5,12.1
			c-3,7-6.1,13.9-8.8,20c-5.1,11.5-9.1,19.9-9.1,19.9c-0.5,1.2-2,1.8-3.2,1.3s-1.8-2-1.3-3.2c0,0,3.3-8.7,8-20.3
			c2.5-6.2,5.3-13.2,8.3-20.2c1.7-4.1,3.5-8.1,5.2-12C230.5,655,235,645.1,237,640.8L237,640.8z"/>
	</g>
	<g>
		<path fill="#142664" d="M510.7,742.2l-8,0.1l-1.1-19.4h7.3v-92.3c0-2.6,1.4-5,3.6-6.3L621,561.6v-7.4h14.5h0.5
			c1.2,0,2.4,0.4,3.4,1c2.3,1.3,3.6,3.7,3.6,6.3c0,0,0,41.8,0,59.2c0,4.9-1.3,9.7-3.7,14c-7.1,12.3-22.6,39.1-29.7,51.4
			c-2.5,4.3-6,7.8-10.2,10.2l-71,41c-0.1,0-0.1,0.1-0.2,0.1l-0.7,0.4c-5.4,3-11.5,4.1-15.7,4.2L510.7,742.2
			C510.8,742.2,510.7,742.2,510.7,742.2L510.7,742.2z"/>
		<path fill="#FFFFFF" d="M595.3,686.2c-2.5,4.3-6,7.8-10.2,10.2c-20,11.6-79.6,45.9-79.6,45.9c-2.3,1.3-5,1.3-7.3,0
			s-3.6-3.7-3.6-6.3c0-24.1,0-90.4,0-105.4c0-2.6,1.4-5,3.6-6.3c17.3-10,91.4-52.8,119.6-69c2.3-1.3,5-1.3,7.3,0s3.6,3.7,3.6,6.3
			c0,0,0,41.8,0,59.2c0,4.9-1.3,9.7-3.7,14C617.9,647.2,602.5,673.9,595.3,686.2L595.3,686.2z"/>
		<path fill="#142664" d="M529.4,608.9c29.4-17,70.3-40.6,89.6-51.7c1.1-0.6,1.4-2,0.8-3s-2-1.4-3-0.8
			c-19.3,11.2-60.2,34.8-89.6,51.7c-1.1,0.6-1.4,2-0.8,3C527,609.2,528.3,609.5,529.4,608.9z"/>
		<path fill="#142664" d="M507.1,739.6c-3.2,0.2-5.6-0.7-7.2-1.9c-2.5-1.9-3.4-4.7-3.3-6c0-3.6,0.1-7.7,0.2-12.4c0-3.8,0.1-8,0-12.4
			c0-3.6-0.1-7.3-0.1-11.2c-0.1-8.3-0.3-17.2-0.5-26.1c0-0.9-0.7-1.6-1.6-1.6s-1.6,0.7-1.6,1.6c-0.2,8.9-0.3,17.7-0.5,26.1
			c-0.1,3.8-0.1,7.6-0.1,11.2c0,4.4,0,8.6,0,12.4c0,4.7,0.1,8.9,0.2,12.4c0,1.9,1.3,6.2,5.2,8.9c2.2,1.5,5.3,2.6,9.6,2.2
			c0.9-0.1,1.6-0.8,1.5-1.7C508.8,740.2,508,739.5,507.1,739.6L507.1,739.6z"/>
		<path fill="#142664" d="M592.7,677c6-10.4,19-32.9,25-43.4c2.3-3.9,3.5-8.4,3.5-12.9c0-14.7,0-42.2,0-42.2c0-3-1.6-5.7-4.2-7.2
			c-2.6-1.5-5.8-1.5-8.4,0c-23.8,13.7-86.2,49.8-100.8,58.2c-2.6,1.5-4.2,4.3-4.2,7.2c0,12.7,0,60.8,0,81.1c0,3,1.6,5.7,4.2,7.2
			s5.8,1.5,8.4,0c0,0,50.2-29,67.1-38.7C587.2,684.2,590.5,680.9,592.7,677z M588.9,674.8c-1.9,3.2-4.6,5.9-7.8,7.8
			c-16.9,9.8-67.1,38.7-67.1,38.7c-1.2,0.7-2.7,0.7-3.9,0c-1.2-0.7-2-2-2-3.4c0-20.3,0-68.4,0-81.1c0-1.4,0.8-2.7,2-3.4
			c14.6-8.4,77-44.5,100.8-58.2c1.2-0.7,2.7-0.7,3.9,0s2,2,2,3.4c0,0,0,27.5,0,42.2c0,3.8-1,7.4-2.9,10.7
			C607.9,641.8,594.9,664.4,588.9,674.8L588.9,674.8z"/>
		<path fill="#142664" d="M555.9,621.2c7.5-7.5,19.6-7.5,27,0c7.5,7.5,7.5,19.6,0,27l-36.3,36.3c-5.2,5.2-13.6,5.2-18.8,0
			s-5.2-13.6,0-18.8l36.2-36.2c3-3,7.9-3,10.9,0s3,7.9,0,10.9l-34.7,34.7c-0.9,0.9-2.3,0.9-3.1,0c-0.9-0.9-0.9-2.3,0-3.1l34.7-34.7
			c1.3-1.3,1.3-3.4,0-4.7s-3.4-1.3-4.7,0L531,668.9c-3.5,3.5-3.5,9.1,0,12.5c3.5,3.5,9.1,3.5,12.5,0l36.3-36.3
			c5.7-5.7,5.7-15,0-20.8c-5.7-5.7-15-5.7-20.8,0l-25.3,25.3c-0.9,0.9-2.3,0.9-3.1,0c-0.9-0.9-0.9-2.3,0-3.1L555.9,621.2
			L555.9,621.2z M565.6,631.1L565.6,631.1z"/>
	</g>
	<g>
		<path fill="#142664" d="M255.3,380.9c0.1,0,0.2,0,0.3,0l0,0l0,0c0.8,0,1.6,0.3,2.4,0.7c1.6,0.9,2.6,2.6,2.6,4.4c0,0,0,29.2,0,41.4
			c0,3.4-0.9,6.8-2.6,9.8c-5,8.6-15.8,27.4-20.8,36c-1.7,3-4.2,5.4-7.2,7.2c-14,8.1-55.7,32.2-55.7,32.2c-0.3,0.2-0.7,0.4-1.1,0.5
			v0.2h-1.3c-0.1,0-0.3,0-0.4,0h-10V499h5.1v-64.6c0-1.8,1-3.5,2.6-4.4l76-43.9V381h10.1V380.9z"/>
		<path fill="#FF2E93" d="M227.1,473.3c-1.7,3-4.2,5.4-7.2,7.2c-14,8.1-55.7,32.2-55.7,32.2c-1.6,0.9-3.5,0.9-5.1,0
			c-1.6-0.9-2.6-2.6-2.6-4.4c0-16.9,0-63.3,0-73.8c0-1.8,1-3.5,2.6-4.4c12.1-7,64-36.9,83.7-48.3c1.6-0.9,3.5-0.9,5.1,0
			s2.6,2.6,2.6,4.4c0,0,0,29.2,0,41.4c0,3.4-0.9,6.8-2.6,9.8C242.9,445.9,232.1,464.6,227.1,473.3L227.1,473.3z"/>
		<path fill="#142664" d="M225.9,467.1c4.2-7.3,13.3-23.1,17.5-30.4c1.6-2.8,2.5-6.1,2.5-9.4c0-10.3,0-29.5,0-29.5
			c0-2.3-1.2-4.5-3.3-5.6c-2-1.2-4.5-1.2-6.5,0c-16.6,9.6-60.4,34.8-70.6,40.7c-2,1.2-3.3,3.3-3.3,5.6c0,8.9,0,42.6,0,56.8
			c0,2.3,1.2,4.5,3.3,5.6c2,1.2,4.5,1.2,6.5,0c0,0,35.1-20.3,47-27.1C221.9,472.3,224.2,470,225.9,467.1L225.9,467.1z M222.1,464.9
			c-1.3,2.2-3.1,4-5.2,5.2c-11.8,6.8-47,27.1-47,27.1c-0.6,0.4-1.4,0.4-2.1,0c-0.6-0.4-1-1.1-1-1.8c0-14.2,0-47.9,0-56.8
			c0-0.7,0.4-1.4,1-1.8c10.2-5.9,53.9-31.1,70.6-40.7c0.6-0.4,1.4-0.4,2.1,0c0.6,0.4,1,1.1,1,1.8c0,0,0,19.2,0,29.5
			c0,2.5-0.7,5-1.9,7.1C235.4,441.9,226.3,457.6,222.1,464.9L222.1,464.9z"/>
		<path fill="#142664" d="M199.1,427.3c5.5-5.5,14.4-5.5,19.8,0c5.5,5.5,5.5,14.4,0,19.8l-25.4,25.4c-3.9,3.9-10.2,3.9-14.1,0
			c-3.9-3.9-3.9-10.2,0-14.1l25.4-25.4c2.4-2.4,6.2-2.4,8.6,0c2.4,2.4,2.4,6.2,0,8.6L189.1,466c-0.9,0.9-2.3,0.9-3.1,0
			c-0.9-0.9-0.9-2.3,0-3.1l24.3-24.3c0.6-0.6,0.6-1.7,0-2.4c-0.6-0.6-1.7-0.6-2.4,0l-25.4,25.4c-2.2,2.2-2.2,5.7,0,7.8
			c2.2,2.2,5.7,2.2,7.8,0l25.4-25.4c3.8-3.8,3.8-9.8,0-13.6c-3.8-3.8-9.8-3.8-13.6,0l-17.7,17.7c-0.9,0.9-2.3,0.9-3.1,0
			c-0.9-0.9-0.9-2.3,0-3.1L199.1,427.3z M206.3,434.7h1.6H206.3z M206.3,434.7v-1.6V434.7z"/>
	</g>
	<g>
		<path fill="#00E6B3" d="M216.2,339.4c0,3.4-1.8,6.5-4.7,8.1c-12.3,7.1-45.9,26.5-65.2,37.6c-2.9,1.7-6.5,1.7-9.4,0
			s-4.7-4.8-4.7-8.1v-68.2c0-3.4,1.8-6.5,4.7-8.1c12.3-7.1,45.9-26.5,65.2-37.6c2.9-1.7,6.5-1.7,9.4,0s4.7,4.8,4.7,8.1V339.4
			L216.2,339.4z"/>
		<path fill="#142664" d="M210.6,339.4c0,3.4-1.8,6.5-4.7,8.1c-12.3,7.1-45.9,26.5-65.2,37.6c-2.9,1.7-6.5,1.7-9.4,0
			s-4.7-4.8-4.7-8.1v-68.2c0-3.4,1.8-6.5,4.7-8.1c12.3-7.1,45.9-26.5,65.2-37.6c2.9-1.7,6.5-1.7,9.4,0s4.7,4.8,4.7,8.1V339.4z"/>
		<path fill="#00E6B3" d="M169.7,328.2c1.2-2.4,3-6.1,5.2-10.4c2-4.1,4.4-8.7,6.9-13.6c9.7-18.9,21.2-40.6,21.2-40.6
			c0.6-1.2,2.1-1.7,3.3-1.1s1.7,2.1,1.1,3.3c0,0-10.5,22.2-19.8,41.3c-2.4,4.9-4.7,9.6-6.7,13.7c-4,8-6.9,13.6-6.9,13.6
			c-0.4,0.8-1.2,1.4-2.1,1.7c-0.9,0.2-1.8,0.1-2.6-0.4L130,308.6c-1.1-0.7-1.4-2.3-0.7-3.4s2.3-1.4,3.4-0.7L169.7,328.2L169.7,328.2
			z"/>
	</g>
	<g>
		<path fill="#142664" d="M489.4,190.3c0.3,0,0.6,0,0.9,0l0,0l0,0c1.2,0.1,2.4,0.4,3.5,1c2.4,1.4,4,4,4,6.8c0,26.1,0,82,0,98.3
			c0,2.8-1.5,5.4-4,6.8c-18.7,10.8-99,57.2-129.6,74.8c-1.3,0.7-2.7,1.1-4.1,1.1l0,0h-9.8l3-4.3c-0.6-1.1-0.9-2.3-0.9-3.6
			c0-26.1,0-82,0-98.3c0-2.8,1.5-5.4,4-6.8l119.4-68.9l4.8-6.9L489.4,190.3L489.4,190.3z"/>
		<path fill="#00E6B3" d="M487.9,296.5c0,2.8-1.5,5.4-4,6.8c-18.7,10.8-99,57.2-129.6,74.8c-2.4,1.4-5.5,1.4-7.9,0s-4-4-4-6.8
			c0-26.1,0-82,0-98.3c0-2.8,1.5-5.4,4-6.8c18.7-10.8,99-57.2,129.6-74.8c2.4-1.4,5.5-1.4,7.9,0s4,4,4,6.8
			C487.9,224.4,487.9,280.2,487.9,296.5z"/>
		<path fill="#FFFFFF" d="M463.7,210.5c9.4-5.1,17.1-1.6,17.1,7.8c0,9.4-7.7,21.3-17.1,26.4c-9.4,5.1-17.1,1.6-17.1-7.8
			C446.7,227.4,454.3,215.6,463.7,210.5L463.7,210.5z"/>
		<path fill="#FF2E93" d="M463.7,218.5c5-2.7,9.1-0.9,9.1,4.1s-4.1,11.3-9.1,14s-9.1,0.9-9.1-4.1
			C454.7,227.5,458.7,221.2,463.7,218.5L463.7,218.5z"/>
		<path fill="#142664" d="M360.3,329.4l19.2-11.1c1.6-0.9,2.1-2.9,1.2-4.5s-2.9-2.1-4.5-1.2L357,323.7c-1.6,0.9-2.1,2.9-1.2,4.5
			C356.6,329.8,358.7,330.3,360.3,329.4z"/>
		<path fill="#142664" d="M387.9,313.5l8.7-5c1.6-0.9,2.1-2.9,1.2-4.5s-2.9-2.1-4.5-1.2l-8.7,5c-1.6,0.9-2.1,2.9-1.2,4.5
			C384.3,313.8,386.3,314.4,387.9,313.5z"/>
		<path fill="#142664" d="M360.3,343.1l37-21.3c1.6-0.9,2.1-2.9,1.2-4.5s-2.9-2.1-4.5-1.2l-37,21.3c-1.6,0.9-2.1,2.9-1.2,4.5
			C356.6,343.5,358.7,344,360.3,343.1z"/>
		<path fill="#142664" d="M360.3,356.3l25.4-14.7c1.6-0.9,2.1-2.9,1.2-4.5s-2.9-2.1-4.5-1.2L357,350.6c-1.6,0.9-2.1,2.9-1.2,4.5
			C356.6,356.6,358.7,357.2,360.3,356.3z"/>
		<path fill="#142664" d="M428,241.3c1.7-4.1,4.1-6.6,6.7-8c2.7-1.5,5.8-1.8,9-1.1c4.2,0.8,8-1.3,9.5-5.3c0.4-1.1,1.7-1.7,2.8-1.3
			c1.1,0.4,1.7,1.7,1.3,2.8c-2.3,6.1-8.1,9.4-14.5,8.1c-2.1-0.4-4.2-0.3-6.1,0.7s-3.5,2.9-4.7,5.8c-0.5,1.1-1.8,1.6-2.9,1.2
			C428,243.7,427.5,242.4,428,241.3L428,241.3z"/>
		<path fill="#142664" d="M428,253c1.7-4.1,4.1-6.6,6.7-8c2.7-1.5,5.8-1.8,9-1.1c4.2,0.8,8-1.3,9.5-5.3c0.4-1.1,1.7-1.7,2.8-1.3
			c1.1,0.4,1.7,1.7,1.3,2.8c-2.3,6.1-8.1,9.4-14.5,8.1c-2.1-0.4-4.2-0.3-6.1,0.7s-3.5,2.9-4.7,5.8c-0.5,1.1-1.8,1.6-2.9,1.2
			C428,255.4,427.5,254.1,428,253L428,253z"/>
		<path fill="#142664" d="M428,264.6c1.7-4.1,4.1-6.6,6.7-8c2.7-1.5,5.8-1.8,9-1.1c4.2,0.8,8-1.3,9.5-5.3c0.4-1.1,1.7-1.7,2.8-1.3
			c1.1,0.4,1.7,1.7,1.3,2.8c-2.3,6.1-8.1,9.4-14.5,8.1c-2.1-0.4-4.2-0.3-6.1,0.7s-3.5,2.9-4.7,5.8c-0.5,1.1-1.8,1.6-2.9,1.2
			C428,267.1,427.5,265.8,428,264.6L428,264.6z"/>
	</g>
	<g>
		<path fill="#FF2E93" d="M687.7,156.6c0.6,0,1.2,0,1.8,0l0,0l0,0c2.2,0.1,4.5,0.8,6.5,1.9c4.5,2.6,7.3,7.5,7.3,12.7
			c0,48.6,0,152.4,0,182.8c0,5.3-2.8,10.1-7.3,12.7C661.1,386.9,511.9,473,455.1,505.8c-2.4,1.4-5,2-7.7,2l0,0h-18.3l5.5-8
			c-1-2-1.6-4.3-1.6-6.7c0-48.6,0-152.4,0-182.8c0-5.3,2.8-10.1,7.3-12.7l221.9-128.1l8.9-12.9L687.7,156.6L687.7,156.6z"/>
		<path fill="#142664" d="M685,354c0,5.3-2.8,10.1-7.3,12.7C642.8,386.9,493.6,473,436.8,505.8c-4.5,2.6-10.1,2.6-14.7,0
			c-4.5-2.6-7.3-7.5-7.3-12.7c0-48.6,0-152.4,0-182.8c0-5.3,2.8-10.1,7.3-12.7c34.8-20.1,184.1-106.3,240.9-139.1
			c4.5-2.6,10.1-2.6,14.7,0s7.3,7.5,7.3,12.7C685,219.9,685,323.7,685,354L685,354z"/>
		<path fill="#FF2E93" d="M494.4,356.3l-63-45.9c-1.5-1-1.8-3.1-0.7-4.6c1-1.5,3.1-1.8,4.6-0.7l113.2,80
			c3.6-6.8,11.1-21.1,20.8-39.2c6.9-13,14.9-27.9,23.3-43.4c32.5-60.5,70.4-130,70.4-130c0.8-1.6,2.8-2.2,4.4-1.3
			c1.6,0.8,2.2,2.8,1.3,4.4c0,0-31.7,60.6-61.8,117.9c4.5,3.4,13.6,10.4,24,18.4c3.7,2.9,7.6,5.9,11.4,9
			c6.5,5.3,12.9,10.8,18.5,15.6c10.6,9,18.3,15.8,18.3,15.8c1.4,1.1,1.6,3.2,0.5,4.6s-3.2,1.6-4.6,0.5c0,0-8.3-6.2-19.2-14.7
			c-5.8-4.5-12.5-9.7-19-15c-3.8-3.1-7.6-6.3-11.1-9.3c-9.2-7.8-17.4-14.9-21.9-18.8c-1.2,2.3-2.4,4.6-3.6,6.8
			C591.8,322,583.9,337,577,350c-13.6,25.5-23.3,43.4-23.3,43.4c-0.6,1.1-1.6,1.9-2.8,2.2c-1.2,0.3-2.5,0-3.5-0.7l-47.5-34.6
			c-3.8,7.7-12.7,25.9-23,46.6c-3.5,7-7.1,14.3-10.9,21.6c-6.4,12.4-13,24.8-18.8,35.6c-10.9,20.4-19.1,35.5-19.1,35.5
			c-0.8,1.6-2.8,2.2-4.4,1.4c-1.6-0.8-2.2-2.8-1.4-4.4c0,0,7.5-15.4,17.7-36.2c5.5-11,11.7-23.5,18.1-36c3.7-7.3,7.5-14.5,11.2-21.4
			C480.7,381.7,490.7,363.2,494.4,356.3L494.4,356.3z"/>
	</g>
	<g>
		<path fill="#142664" d="M725.9,423c0.2,0,0.4,0,0.5,0l0,0l0,0c0.7,0,1.4,0.2,2,0.6c1.4,0.8,2.3,2.3,2.3,3.9c0,15,0,47,0,56.3
			c0,1.6-0.9,3.1-2.3,3.9c-10.7,6.2-56.7,32.7-74.2,42.8c-0.7,0.4-1.6,0.6-2.4,0.6l0,0h-5.6l1.7-2.5c-0.3-0.6-0.5-1.3-0.5-2.1
			c0-15,0-47,0-56.3c0-1.6,0.9-3.1,2.3-3.9L718,427l2.7-4H725.9L725.9,423z"/>
		<path fill="#FF2E93" d="M725,483.8c0,1.6-0.9,3.1-2.3,3.9c-10.7,6.2-56.7,32.7-74.2,42.8c-1.4,0.8-3.1,0.8-4.5,0s-2.3-2.3-2.3-3.9
			c0-15,0-47,0-56.3c0-1.6,0.9-3.1,2.3-3.9c10.7-6.2,56.7-32.7,74.2-42.8c1.4-0.8,3.1-0.8,4.5,0s2.3,2.3,2.3,3.9
			C725,442.5,725,474.5,725,483.8z"/>
		<g>
			<path fill="#FFFFFF" d="M715.4,434.5c-0.7-1.2-0.3-2.8,1-3.5l0,0c1.2-0.7,2.8-0.3,3.6,1c0.3,0.6,0.4,1.2,0.3,1.8
				c1.2,0.2,2.1,1.3,2.1,2.5l0,0c0,1.4-1.2,2.6-2.6,2.6c1.4,0,2.6,1.2,2.6,2.6l0,0c0,0.9-0.5,1.7-1.1,2.1c0.7,0.5,1.1,1.3,1.1,2.1
				l0,0c0,1.4-1.2,2.6-2.6,2.6c-0.6,0-1.2-0.2-1.7-0.6c0.5,1.2,0,2.6-1.1,3.2l0,0c-1.2,0.7-2.8,0.3-3.5-1c0.7,1.2,0.3,2.8-1,3.5l0,0
				c-1.2,0.7-2.8,0.3-3.5-0.9c0.7,1.2,0.3,2.8-1,3.5l0,0c-1.1,0.6-2.4,0.4-3.2-0.5c-0.1,0.8-0.5,1.5-1.2,2c-1.2,0.7-2.8,0.4-3.6-0.9
				l0,0c-0.7-1.2-0.4-2.8,0.9-3.6c0.3-0.2,0.7-0.3,1-0.4c-1.4-0.1-2.4-1.2-2.4-2.6l0,0c0-1.4,1.2-2.6,2.6-2.6
				c-1.4,0-2.6-1.2-2.6-2.6l0,0c0-1.4,1.2-2.6,2.6-2.6h0.1l-0.1-0.1c-0.7-1.2-0.3-2.8,1-3.5l0,0c1.2-0.7,2.8-0.3,3.5,0.9
				c-0.7-1.2-0.3-2.8,1-3.5l0,0c1.2-0.7,2.8-0.3,3.5,0.9c-0.7-1.2-0.3-2.8,1-3.5l0,0C713.1,432.8,714.7,433.3,715.4,434.5
				L715.4,434.5z"/>
			<path fill="#00E6B3" d="M718.2,445c0,0.3-0.1,0.5-0.4,0.6c-1.8,1-9.9,5.9-12.8,7.6c-0.2,0.1-0.5,0.1-0.7,0s-0.4-0.4-0.4-0.6v-8.9
				c0-0.3,0.1-0.5,0.4-0.6c1.8-1,9.9-5.9,12.8-7.6c0.2-0.1,0.5-0.1,0.7,0s0.4,0.4,0.4,0.6V445z"/>
		</g>
		<path fill="#142664" d="M652.1,502.9l5.3-3.1c1.1-0.6,1.4-2,0.8-3c-0.6-1.1-2-1.4-3-0.8l-5.3,3.1c-1.1,0.6-1.4,2-0.8,3
			C649.7,503.2,651,503.5,652.1,502.9z"/>
		<path fill="#142664" d="M662.2,497.1l10.6-6.1c1.1-0.6,1.4-2,0.8-3c-0.6-1.1-2-1.4-3-0.8l-10.6,6.1c-1.1,0.6-1.4,2-0.8,3
			C659.8,497.3,661.2,497.7,662.2,497.1L662.2,497.1z"/>
		<path fill="#142664" d="M652.1,510.7l15.6-9c1.1-0.6,1.4-2,0.8-3c-0.6-1.1-2-1.4-3-0.8l-15.6,9c-1.1,0.6-1.4,2-0.8,3
			C649.7,511,651,511.3,652.1,510.7z"/>
		<path fill="#142664" d="M672.1,499.2l0.8-0.4c1.1-0.6,1.4-2,0.8-3c-0.6-1.1-2-1.4-3-0.8l-0.8,0.4c-1.1,0.6-1.4,2-0.8,3
			C669.7,499.4,671,499.8,672.1,499.2z"/>
		<path fill="#142664" d="M652.1,518.3l14.6-8.4c1.1-0.6,1.4-2,0.8-3c-0.6-1.1-2-1.4-3-0.8l-14.6,8.4c-1.1,0.6-1.4,2-0.8,3
			S651,518.9,652.1,518.3z"/>
		<path fill="#142664" d="M693.9,453.5c0.6-1.4,1.4-2.4,2.3-2.9c0.9-0.5,1.8-0.5,2.8-0.3c4.1,0.8,7.9-1.3,9.4-5.2
			c0.4-1.1-0.1-2.4-1.3-2.8c-1.1-0.4-2.4,0.1-2.8,1.3c-0.7,1.9-2.4,2.8-4.4,2.5c-2-0.4-4-0.2-5.8,0.8c-1.7,0.9-3.2,2.5-4.3,5
			c-0.5,1.1,0.1,2.4,1.2,2.9S693.4,454.7,693.9,453.5z"/>
		<path fill="#142664" d="M693.9,460.2c0.6-1.4,1.4-2.4,2.3-2.9c0.9-0.5,1.8-0.5,2.8-0.3c4.1,0.8,7.9-1.3,9.4-5.2
			c0.4-1.1-0.1-2.4-1.3-2.8c-1.1-0.4-2.4,0.1-2.8,1.3c-0.7,1.9-2.4,2.8-4.4,2.5c-2-0.4-4-0.2-5.8,0.8c-1.7,0.9-3.2,2.5-4.3,5
			c-0.5,1.1,0.1,2.4,1.2,2.9C692.1,461.9,693.4,461.3,693.9,460.2L693.9,460.2z"/>
		<path fill="#142664" d="M693.9,466.9c0.6-1.4,1.4-2.4,2.3-2.9c0.9-0.5,1.8-0.5,2.8-0.3c4.1,0.8,7.9-1.3,9.4-5.2
			c0.4-1.1-0.1-2.4-1.3-2.8c-1.1-0.4-2.4,0.1-2.8,1.3c-0.7,1.9-2.4,2.8-4.4,2.5c-2-0.4-4-0.2-5.8,0.8c-1.7,0.9-3.2,2.5-4.3,5
			c-0.5,1.1,0.1,2.4,1.2,2.9S693.4,468,693.9,466.9z"/>
	</g>
	<path fill="#00E6B3" d="M131.4,453.6c0,0.3-0.2,0.6-0.4,0.7c-1.9,1.1-10.1,5.9-13.3,7.7c-0.3,0.1-0.6,0.1-0.8,0
		c-0.3-0.1-0.4-0.4-0.4-0.7v-10.1c0-0.3,0.2-0.6,0.4-0.7c1.9-1.1,10.1-5.9,13.3-7.7c0.3-0.1,0.6-0.1,0.8,0c0.3,0.1,0.4,0.4,0.4,0.7
		V453.6L131.4,453.6z"/>
	<path fill="#142664" d="M111.6,515.8c0,0.4-0.2,0.8-0.6,1c-2.7,1.5-14.1,8.2-18.5,10.7c-0.3,0.2-0.8,0.2-1.1,0
		c-0.3-0.2-0.6-0.6-0.6-1v-14c0-0.4,0.2-0.8,0.6-1c2.7-1.5,14.1-8.2,18.5-10.7c0.3-0.2,0.8-0.2,1.1,0c0.3,0.2,0.6,0.6,0.6,1V515.8z"/>
	<path fill="#142664" d="M489.5,513.9c0,0.3-0.2,0.6-0.4,0.7c-1.9,1.1-10.1,5.9-13.3,7.7c-0.3,0.1-0.6,0.1-0.8,0
		c-0.3-0.1-0.4-0.4-0.4-0.7v-10.1c0-0.3,0.2-0.6,0.4-0.7c1.9-1.1,10.1-5.9,13.3-7.7c0.3-0.1,0.6-0.1,0.8,0c0.3,0.1,0.4,0.4,0.4,0.7
		V513.9L489.5,513.9z"/>
	<path fill="#142664" d="M674.9,563.7c0-0.4,0.2-0.8,0.6-1c2.7-1.6,14.4-8.3,18.9-10.9c0.4-0.2,0.8-0.2,1.2,0s0.6,0.6,0.6,1v14.3
		c0,0.4-0.2,0.8-0.6,1c-2.7,1.6-14.4,8.3-18.9,10.9c-0.4,0.2-0.8,0.2-1.2,0s-0.6-0.6-0.6-1V563.7z"/>
	<path fill="#142664" d="M260.9,275.1c0-0.4,0.2-0.8,0.6-1c2.7-1.6,14.4-8.3,18.9-10.9c0.4-0.2,0.8-0.2,1.2,0c0.4,0.2,0.6,0.6,0.6,1
		v14.3c0,0.4-0.2,0.8-0.6,1c-2.7,1.6-14.4,8.3-18.9,10.9c-0.4,0.2-0.8,0.2-1.2,0c-0.4-0.2-0.6-0.6-0.6-1V275.1L260.9,275.1z"/>
	<path fill="#00E6B3" d="M349,717.6c0,0.3-0.2,0.6-0.4,0.7c-1.9,1.1-10.2,5.9-13.4,7.7c-0.3,0.1-0.6,0.1-0.8,0
		c-0.3-0.1-0.4-0.4-0.4-0.7v-10.2c0-0.3,0.2-0.6,0.4-0.7c1.9-1.1,10.2-5.9,13.4-7.7c0.3-0.1,0.6-0.1,0.8,0c0.3,0.1,0.4,0.4,0.4,0.7
		V717.6z"/>
	<path fill="#FF2E93" d="M446.3,547.5c0,0.3-0.2,0.6-0.4,0.7c-1.9,1.1-10.2,5.9-13.3,7.7c-0.3,0.1-0.6,0.1-0.8,0
		c-0.3-0.1-0.4-0.4-0.4-0.7v-10.1c0-0.3,0.2-0.6,0.4-0.7c1.9-1.1,10.1-5.9,13.3-7.7c0.3-0.1,0.6-0.1,0.8,0c0.3,0.1,0.4,0.4,0.4,0.7
		V547.5L446.3,547.5z"/>
	<path fill="#FF2E93" d="M275.5,474.5c0,0.3-0.2,0.6-0.4,0.7c-1.9,1.1-10.1,5.9-13.3,7.7c-0.3,0.1-0.6,0.1-0.8,0
		c-0.3-0.1-0.4-0.4-0.4-0.7v-10.1c0-0.3,0.2-0.6,0.4-0.7c1.9-1.1,10.1-5.9,13.3-7.7c0.3-0.1,0.6-0.1,0.8,0c0.3,0.1,0.4,0.4,0.4,0.7
		V474.5L275.5,474.5z"/>
	<path fill="#142664" d="M293.2,415.1c0,0.4-0.2,0.7-0.5,0.9c-2.5,1.4-13,7.5-17,9.8c-0.3,0.2-0.7,0.2-1,0s-0.5-0.5-0.5-0.9V412
		c0-0.4,0.2-0.7,0.5-0.9c2.5-1.4,13-7.5,17-9.8c0.3-0.2,0.7-0.2,1,0s0.5,0.5,0.5,0.9V415.1z"/>
	<path fill="#00E6B3" d="M305,288.2c0,0.6-0.3,1.1-0.8,1.4c-3.7,2.1-19.7,11.4-25.7,14.9c-0.5,0.3-1.1,0.3-1.6,0s-0.8-0.8-0.8-1.4
		v-24.6c0-0.6,0.3-1.1,0.8-1.4c3.7-2.1,19.7-11.4,25.7-14.9c0.5-0.3,1.1-0.3,1.6,0s0.8,0.8,0.8,1.4V288.2z"/>
	<path fill="#FF2E93" d="M131.5,233.3c0,0.5-0.2,0.9-0.6,1.1c-3,1.8-16.1,9.3-21,12.1c-0.4,0.2-0.9,0.2-1.3,0s-0.6-0.7-0.6-1.1
		v-20.1c0-0.5,0.2-0.9,0.6-1.1c3-1.8,16.1-9.3,21-12.1c0.4-0.2,0.9-0.2,1.3,0c0.4,0.2,0.6,0.7,0.6,1.1V233.3z"/>
	<path fill="#FF2E93" d="M621.8,469.1c0,0.5-0.3,1-0.7,1.2c-3.3,1.9-17.4,10-22.7,13.1c-0.4,0.2-1,0.2-1.4,0s-0.7-0.7-0.7-1.2V465
		c0-0.5,0.3-1,0.7-1.2c3.3-1.9,17.4-10,22.7-13.1c0.4-0.2,1-0.2,1.4,0s0.7,0.7,0.7,1.2V469.1z"/>
	<path fill="#FF2E93" d="M698.2,408.8c0,0.2-0.1,0.4-0.3,0.5c-1.3,0.7-6.6,3.8-8.6,5c-0.2,0.1-0.4,0.1-0.5,0
		c-0.2-0.1-0.3-0.3-0.3-0.5v-6.6c0-0.2,0.1-0.4,0.3-0.5c1.3-0.7,6.6-3.8,8.6-5c0.2-0.1,0.4-0.1,0.5,0c0.2,0.1,0.3,0.3,0.3,0.5V408.8
		L698.2,408.8z"/>
	<path fill="#00E6B3" d="M83.7,338.8c0,0.2-0.1,0.4-0.3,0.5c-1.3,0.7-6.6,3.8-8.6,5c-0.2,0.1-0.4,0.1-0.5,0
		c-0.2-0.1-0.3-0.3-0.3-0.5v-6.6c0-0.2,0.1-0.4,0.3-0.5c1.3-0.7,6.6-3.8,8.6-5c0.2-0.1,0.4-0.1,0.5,0c0.2,0.1,0.3,0.3,0.3,0.5V338.8
		z"/>
	<path fill="#142664" d="M353,213.8c0,0.2-0.1,0.4-0.3,0.5c-1.3,0.7-6.6,3.8-8.6,5c-0.2,0.1-0.4,0.1-0.5,0c-0.2-0.1-0.3-0.3-0.3-0.5
		v-6.6c0-0.2,0.1-0.4,0.3-0.5c1.3-0.7,6.6-3.8,8.6-5c0.2-0.1,0.4-0.1,0.5,0c0.2,0.1,0.3,0.3,0.3,0.5V213.8z"/>
	<path fill="#142664" d="M107.9,212.7c0,0.2-0.1,0.4-0.3,0.5c-1.3,0.7-6.6,3.8-8.6,5c-0.2,0.1-0.4,0.1-0.5,0
		c-0.2-0.1-0.3-0.3-0.3-0.5v-6.6c0-0.2,0.1-0.4,0.3-0.5c1.3-0.7,6.6-3.8,8.6-5c0.2-0.1,0.4-0.1,0.5,0c0.2,0.1,0.3,0.3,0.3,0.5V212.7
		z"/>
	<path fill="#00E6B3" d="M462.4,556.8c0,0.2-0.1,0.4-0.3,0.5c-1.3,0.7-6.6,3.8-8.6,5c-0.2,0.1-0.4,0.1-0.5,0
		c-0.2-0.1-0.3-0.3-0.3-0.5v-6.6c0-0.2,0.1-0.4,0.3-0.5c1.3-0.7,6.6-3.8,8.6-5c0.2-0.1,0.4-0.1,0.5,0s0.3,0.3,0.3,0.5V556.8z"/>
	<path fill="#00E6B3" d="M544.1,206.4c0,0.2-0.1,0.4-0.3,0.5c-1.3,0.7-6.6,3.8-8.6,5c-0.2,0.1-0.4,0.1-0.5,0
		c-0.2-0.1-0.3-0.3-0.3-0.5v-6.6c0-0.2,0.1-0.4,0.3-0.5c1.3-0.7,6.6-3.8,8.6-5c0.2-0.1,0.4-0.1,0.5,0c0.2,0.1,0.3,0.3,0.3,0.5V206.4
		z"/>
	<path fill="#00E6B3" d="M227.8,145.1c0,0.2-0.1,0.4-0.3,0.5c-1.3,0.7-6.6,3.8-8.6,5c-0.2,0.1-0.4,0.1-0.5,0
		c-0.2-0.1-0.3-0.3-0.3-0.5v-6.6c0-0.2,0.1-0.4,0.3-0.5c1.3-0.7,6.6-3.8,8.6-5c0.2-0.1,0.4-0.1,0.5,0c0.2,0.1,0.3,0.3,0.3,0.5V145.1
		z"/>
	<path fill="#142664" d="M655,125.2c0,0.2-0.1,0.4-0.3,0.5c-1.3,0.7-6.6,3.8-8.6,5c-0.2,0.1-0.4,0.1-0.5,0c-0.2-0.1-0.3-0.3-0.3-0.5
		v-6.6c0-0.2,0.1-0.4,0.3-0.5c1.3-0.7,6.6-3.8,8.6-5c0.2-0.1,0.4-0.1,0.5,0c0.2,0.1,0.3,0.3,0.3,0.5V125.2z"/>
	<path fill="#142664" d="M391,625.5c0,0.2-0.1,0.4-0.3,0.5c-1.3,0.7-6.6,3.8-8.6,5c-0.2,0.1-0.4,0.1-0.5,0c-0.2-0.1-0.3-0.3-0.3-0.5
		v-6.6c0-0.2,0.1-0.4,0.3-0.5c1.3-0.7,6.6-3.8,8.6-5c0.2-0.1,0.4-0.1,0.5,0c0.2,0.1,0.3,0.3,0.3,0.5V625.5z"/>
	<path fill="#FF2E93" d="M78.1,684.4c0,0.2-0.1,0.4-0.3,0.5c-1.3,0.7-6.6,3.8-8.6,5c-0.2,0.1-0.4,0.1-0.5,0
		c-0.2-0.1-0.3-0.3-0.3-0.5v-6.6c0-0.2,0.1-0.4,0.3-0.5c1.3-0.7,6.6-3.8,8.6-5c0.2-0.1,0.4-0.1,0.5,0c0.2,0.1,0.3,0.3,0.3,0.5V684.4
		z"/>
	<path fill="#00E6B3" d="M664.7,649.1c0,0.2-0.1,0.4-0.3,0.5c-1.3,0.7-6.6,3.8-8.6,5c-0.2,0.1-0.4,0.1-0.5,0
		c-0.2-0.1-0.3-0.3-0.3-0.5v-6.6c0-0.2,0.1-0.4,0.3-0.5c1.3-0.7,6.6-3.8,8.6-5c0.2-0.1,0.4-0.1,0.5,0c0.2,0.1,0.3,0.3,0.3,0.5V649.1
		z"/>
	<path fill="#FF2E93" d="M703.3,578c0-0.3,0.2-0.5,0.4-0.7c1.9-1.1,9.9-5.7,12.9-7.4c0.2-0.1,0.5-0.1,0.8,0c0.2,0.1,0.4,0.4,0.4,0.7
		v9.8c0,0.3-0.2,0.5-0.4,0.7c-1.9,1.1-9.9,5.7-12.9,7.4c-0.2,0.1-0.5,0.1-0.8,0c-0.2-0.1-0.4-0.4-0.4-0.7V578z"/>
	<path fill="#142664" d="M667.4,400.5c0-0.3,0.2-0.5,0.4-0.7c1.9-1.1,9.9-5.7,12.9-7.4c0.2-0.1,0.5-0.1,0.8,0
		c0.2,0.1,0.4,0.4,0.4,0.7v9.8c0,0.3-0.2,0.5-0.4,0.7c-1.9,1.1-9.9,5.7-12.9,7.4c-0.2,0.1-0.5,0.1-0.8,0c-0.2-0.1-0.4-0.4-0.4-0.7
		V400.5z"/>
	<path fill="#FF2E93" d="M108.7,444.2c0,0.4-0.2,0.7-0.5,0.9c-2.4,1.4-12.8,7.4-16.7,9.6c-0.3,0.2-0.7,0.2-1,0s-0.5-0.5-0.5-0.9
		v-12.7c0-0.4,0.2-0.7,0.5-0.9c2.4-1.4,12.8-7.4,16.7-9.6c0.3-0.2,0.7-0.2,1,0s0.5,0.5,0.5,0.9V444.2L108.7,444.2z"/>
	<path fill="#FF2E93" d="M530.9,154.8c0,0.3-0.2,0.6-0.5,0.8c-2.2,1.3-11.8,6.8-15.4,8.9c-0.3,0.2-0.7,0.2-0.9,0
		c-0.3-0.2-0.5-0.5-0.5-0.8V152c0-0.3,0.2-0.6,0.5-0.8c2.2-1.3,11.8-6.8,15.4-8.9c0.3-0.2,0.7-0.2,0.9,0c0.3,0.2,0.5,0.5,0.5,0.8
		V154.8L530.9,154.8z"/>
	<path fill="#142664" d="M156.8,87.4c0,0.4-0.2,0.8-0.6,1c-2.8,1.6-14.6,8.4-19.1,11c-0.4,0.2-0.8,0.2-1.2,0s-0.6-0.6-0.6-1V84
		c0-0.4,0.2-0.8,0.6-1c2.8-1.6,14.6-8.4,19.1-11c0.4-0.2,0.8-0.2,1.2,0s0.6,0.6,0.6,1V87.4L156.8,87.4z"/>
	<path fill="#142664" d="M421.4,736.9c0,0.4-0.2,0.8-0.6,1c-2.6,1.5-13.8,8-18.1,10.4c-0.3,0.2-0.8,0.2-1.1,0
		c-0.3-0.2-0.6-0.6-0.6-1v-13.7c0-0.4,0.2-0.8,0.6-1c2.6-1.5,13.8-8,18.1-10.4c0.3-0.2,0.8-0.2,1.1,0c0.3,0.2,0.6,0.6,0.6,1V736.9z"/>
	<path fill="#FF2E93" d="M157,706.7c0,0.3-0.2,0.6-0.5,0.8c-2.2,1.3-11.6,6.7-15.2,8.8c-0.3,0.2-0.6,0.2-0.9,0
		c-0.3-0.2-0.5-0.5-0.5-0.8V704c0-0.3,0.2-0.6,0.5-0.8c2.2-1.3,11.6-6.7,15.2-8.8c0.3-0.2,0.6-0.2,0.9,0c0.3,0.2,0.5,0.5,0.5,0.8
		V706.7L157,706.7z"/>
	<g>
		<path fill="#142664" d="M518,564.7c0.2,0,0.5,0,0.7,0l0,0l0,0c0.9,0.1,1.8,0.3,2.6,0.8c1.8,1,2.9,3,2.9,5.1c0,19.4,0,60.8,0,72.9
			c0,2.1-1.1,4-2.9,5.1c-13.9,8-73.4,42.4-96.1,55.5c-0.9,0.5-2,0.8-3.1,0.8l0,0h-7.3l2.2-3.2c-0.4-0.8-0.6-1.7-0.6-2.7
			c0-19.4,0-60.8,0-72.9c0-2.1,1.1-4,2.9-5.1l88.5-51.1l3.5-5.1L518,564.7L518,564.7z"/>
		<path fill="#FF2E93" d="M516.9,643.5c0,2.1-1.1,4-2.9,5.1c-13.9,8-73.4,42.4-96.1,55.5c-1.8,1-4,1-5.9,0c-1.8-1-2.9-3-2.9-5.1
			c0-19.4,0-60.8,0-72.9c0-2.1,1.1-4,2.9-5.1c13.9-8,73.4-42.4,96.1-55.5c1.8-1,4-1,5.9,0c1.8,1,2.9,3,2.9,5.1
			C516.9,590,516.9,631.4,516.9,643.5L516.9,643.5z"/>
		<path fill="#142664" d="M461.3,638.4c1.6-2.6,4.2-6.6,7.3-11.5c2.8-4.3,6-9.2,9.4-14.3c13.2-19.9,28.6-42.6,28.6-42.6
			c1-1.5,3-2,4.5-1s2,3,1,4.5c0,0-14.3,23.5-26.9,43.7c-3.2,5.2-6.4,10.2-9.1,14.5c-5.4,8.5-9.4,14.3-9.4,14.3
			c-1.1,1.7-3.3,2.4-5.2,1.7L415.3,628c-1.7-0.7-2.5-2.6-1.8-4.2c0.7-1.7,2.6-2.5,4.2-1.8L461.3,638.4L461.3,638.4z"/>
	</g>
	<g>
		<path fill="#142664" d="M274.2,158c0.2,0,0.5,0,0.7,0l0,0l0,0c0.9,0.1,1.8,0.3,2.7,0.8c1.9,1.1,3.1,3.1,3.1,5.3
			c0,20.2,0,63.3,0,75.9c0,2.2-1.2,4.2-3.1,5.3c-14.5,8.4-76.4,44.1-100,57.7c-1,0.6-2.1,0.8-3.2,0.8l0,0h-7.6l2.3-3.3
			c-0.4-0.8-0.7-1.8-0.7-2.8c0-20.2,0-63.3,0-75.9c0-2.2,1.2-4.2,3.1-5.3l92.1-53.2l3.7-5.4L274.2,158L274.2,158z"/>
		<path fill="#FFFFFF" d="M273,240c0,2.2-1.2,4.2-3.1,5.3c-14.5,8.4-76.4,44.1-100,57.7c-1.9,1.1-4.2,1.1-6.1,0
			c-1.9-1.1-3.1-3.1-3.1-5.3c0-20.2,0-63.3,0-75.9c0-2.2,1.2-4.2,3.1-5.3c14.5-8.4,76.4-44.1,100-57.7c1.9-1.1,4.2-1.1,6.1,0
			s3.1,3.1,3.1,5.3C273,184.3,273,227.4,273,240L273,240z"/>
		<path fill="#142664" d="M162.5,278.2l0.5-56.4c0-0.7,0.2-1.4,0.5-2s0.8-1.1,1.4-1.4c5.1-3,16.1-9.3,29.2-16.9
			c13.7-8,29.6-17.4,43.6-25.7c0.8-0.5,1-1.4,0.6-2.2c-0.5-0.8-1.4-1-2.2-0.6c-14.2,8-30.3,17.1-44.1,24.9
			c-13.2,7.5-24.2,13.9-29.3,16.8c-1.3,0.7-2.3,1.8-3,3s-1.1,2.7-1.1,4.1l0.5,56.4c0,0.9,0.7,1.6,1.6,1.6
			C161.7,279.9,162.5,279.1,162.5,278.2L162.5,278.2z"/>
		<path fill="#142664" d="M176.3,232l-9.4-9.5c-1-0.9-1-2.5,0-3.5c0.9-1,2.5-1,3.5,0l19.2,18.1c4.2-2.5,15-9,25.8-15.3
			c11.9-6.9,23.9-13.7,27.1-15.5l20.5-42.1c0.6-1.2,2-1.8,3.3-1.2s1.8,2,1.2,3.3L256,191.5c0.6,2,1.8,6.1,3.1,11
			c1,3.8,2.2,8.1,3.3,12.4c0.6,2.5,1.1,5.1,1.7,7.5c2,9.6,3.5,17.7,3.5,17.7c0.3,1.3-0.5,2.6-1.8,2.9c-1.3,0.3-2.6-0.5-2.9-1.8
			c0,0-2.3-7.8-4.9-17.4c-0.6-2.4-1.3-4.9-1.9-7.5c-1-4.4-1.9-8.7-2.7-12.6c-0.3-1.6-0.6-3-0.9-4.4l-4.7,10.4
			c-0.3,0.6-0.7,1.1-1.3,1.4c0,0-13.8,8.2-27.8,16.2s-28,15.8-28,15.8c-1.1,0.7-2.6,0.5-3.5-0.4l-6.3-6.3c-0.3,2.8-0.8,6.7-1.4,11
			c-0.7,5-1.4,10.6-2.3,16.2c-0.5,3.3-1.1,6.5-1.7,9.7c-2.3,12.3-4.4,22.5-4.4,22.5c-0.2,1.3-1.5,2.2-2.8,2s-2.2-1.5-2-2.8
			c0,0,1.2-10.3,2.9-22.7c0.4-3.2,0.9-6.4,1.4-9.7c0.9-5.6,2-11.2,2.9-16.1C174.6,239.9,175.7,234.5,176.3,232L176.3,232z"/>
	</g>
	<g>
		<path fill="#142664" d="M401.9,536.6c0.1,0,0.2,0,0.3,0l0,0l0,0c0.4,0,0.8,0.1,1.2,0.4c0.9,0.5,1.4,1.4,1.4,2.4
			c0,9.2,0,36.9,0,42.7c0,1-0.5,1.9-1.4,2.4c-6.6,3.8-35,20.2-45.8,26.4c-0.5,0.3-1,0.4-1.5,0.4l0,0h-3.5l1.1-1.5
			c-0.2-0.4-0.3-0.8-0.3-1.3c0-9.2,0-36.9,0-42.7c0-1,0.5-1.9,1.4-2.4L397,539l1.7-2.5h3.2V536.6z"/>
		<path fill="#00E6B3" d="M401.4,582.1c0,1-0.5,1.9-1.4,2.4c-6.6,3.8-35,20.2-45.8,26.4c-0.9,0.5-1.9,0.5-2.8,0s-1.4-1.4-1.4-2.4
			c0-9.2,0-36.9,0-42.7c0-1,0.5-1.9,1.4-2.4c6.6-3.8,35-20.2,45.8-26.4c0.9-0.5,1.9-0.5,2.8,0s1.4,1.4,1.4,2.4
			C401.4,548.6,401.4,576.3,401.4,582.1L401.4,582.1z"/>
		<path fill="#142664" d="M358.4,574.6l-4.8-5.4c-0.6-0.7-0.6-1.7,0.1-2.3s1.7-0.6,2.3,0.1l11.5,12.1c1.9-1.1,5.4-3.3,8.6-5.1
			c2.6-1.5,5-2.9,6.1-3.5c0.9-2,3.6-8,6.3-13.9c3.4-7.3,6.8-14.6,6.8-14.6c0.4-0.8,1.3-1.2,2.2-0.8c0.8,0.4,1.2,1.3,0.8,2.2
			c0,0-3,7.4-6.1,14.8l-0.3,0.7c0.4,1,1,2.6,1.7,4.5c0.6,1.7,1.3,3.6,1.9,5.6c0.4,1.1,0.7,2.3,0.9,3.4c1.1,4.4,1.9,8.1,1.9,8.1
			c0.3,0.9-0.2,1.8-1.1,2c-0.9,0.3-1.8-0.2-2-1.1c0,0-1.4-3.5-2.9-7.8c-0.4-1.1-0.8-2.2-1.1-3.4c-0.6-2-1.1-4-1.5-5.7
			c0-0.1-0.1-0.2-0.1-0.4c-2.1,4.9-3.7,8.8-3.7,8.8c-0.2,0.4-0.5,0.8-0.9,1c0,0-3.1,1.8-6.7,3.9c-4.7,2.7-10.1,5.7-10.1,5.7
			c-0.8,0.5-1.9,0.3-2.5-0.4l-4.4-5c-0.2,1.1-0.4,2.4-0.6,3.8c-0.4,2.2-0.8,4.8-1.3,7.3c-0.3,1.5-0.7,2.9-1,4.3
			c-1.4,5.5-2.6,10.1-2.6,10.1c-0.2,0.9-1.1,1.4-1.9,1.3c-0.9-0.2-1.4-1.1-1.3-1.9c0,0,0.7-4.7,1.7-10.3c0.2-1.4,0.5-2.9,0.8-4.4
			c0.5-2.5,1.2-5,1.7-7.2C357.5,578.1,358.1,575.8,358.4,574.6L358.4,574.6z"/>
	</g>
	<g>
		<path fill="#142664" d="M625,63.1c0.2,0,0.3,0,0.5,0l0,0l0,0c0.6,0,1.2,0.2,1.8,0.5c1.3,0.7,2.1,2.1,2.1,3.6c0,13.6,0,54.4,0,62.9
			c0,1.5-0.8,2.8-2.1,3.6c-9.8,5.6-51.6,29.8-67.5,39c-0.7,0.4-1.4,0.6-2.2,0.5l0,0h-5.1l1.5-2.2c-0.3-0.6-0.4-1.2-0.4-1.9
			c0-13.6,0-54.4,0-62.9c0-1.5,0.8-2.8,2.1-3.6l62.2-35.9l2.5-3.6L625,63.1L625,63.1z"/>
		<path fill="#FF2E93" d="M624.2,130.1c0,1.5-0.8,2.8-2.1,3.6c-9.8,5.6-51.6,29.8-67.5,39c-1.3,0.7-2.8,0.7-4.1,0s-2.1-2.1-2.1-3.6
			c0-13.6,0-54.4,0-62.9c0-1.5,0.8-2.8,2.1-3.6c9.8-5.6,51.6-29.8,67.5-39c1.3-0.7,2.8-0.7,4.1,0c1.3,0.7,2.1,2.1,2.1,3.6
			C624.2,80.8,624.2,121.6,624.2,130.1L624.2,130.1z"/>
		<path fill="#142664" d="M559.8,119l-8.1-12.2c-0.8-1.1-0.5-2.6,0.6-3.4s2.6-0.5,3.4,0.6l12.6,17.4c3.3-2,9.8-5.9,16.4-9.7
			c7.6-4.4,15.3-8.8,17.9-10.3l14-34.4c0.5-1.3,1.9-1.9,3.2-1.4s1.9,1.9,1.4,3.2l-8.4,23.3c0.5,1.6,1.4,4.5,2.4,8
			c0.8,2.9,1.7,6.1,2.5,9.4c0.5,1.9,0.8,3.9,1.2,5.7c1.4,7.3,2.4,13.5,2.4,13.5c0.3,1.3-0.5,2.6-1.8,2.9c-1.3,0.3-2.6-0.5-2.9-1.8
			c0,0-1.8-5.9-3.8-13.1c-0.5-1.8-1-3.7-1.5-5.7c-0.7-3.2-1.4-6.4-1.9-9.3l-1.1,3.1c-0.3,0.7-0.8,1.3-1.4,1.6c0,0-9.3,5.5-18.8,10.9
			c-9.4,5.4-19,10.6-19,10.6c-1.3,0.8-3,0.4-3.9-0.9l-1.1-1.7c-0.2,1.6-0.5,3.4-0.7,5.3c-0.5,3.7-1.2,7.9-1.9,12.1
			c-0.4,2.4-1,4.9-1.5,7.2c-2,9.2-3.8,16.7-3.8,16.7c-0.2,1.3-1.5,2.2-2.8,2s-2.2-1.5-2-2.8c0,0,1-7.7,2.4-17
			c0.4-2.4,0.7-4.8,1.2-7.2c0.8-4.2,1.7-8.3,2.5-12C558.4,124.8,559.3,120.9,559.8,119L559.8,119z"/>
	</g>
	<g>
		<path fill="#00E6B3" d="M233.7,531.2c5,0,9.1,4.1,9.1,9.1c0,17.7,0,56.5,0,70.6c0,3.2-1.7,6.2-4.5,7.9
			c-14.5,8.4-59.7,34.4-72.9,42c-2.4,1.4-5,2.1-7.8,2.1c-12.4,0-49,0-66.1,0c-2.4,0-4.7-1-6.4-2.7c-1.7-1.7-2.7-4-2.7-6.4
			c0-17.7,0-56.5,0-70.6c0-3.2,1.7-6.2,4.5-7.9c15.2-8.8,63.9-36.9,74.4-43c1.3-0.8,2.9-1.2,4.4-1.2
			C175.8,531.2,215.6,531.2,233.7,531.2L233.7,531.2z"/>
		<path fill="#142664" d="M160.1,614.5c0-3.2,0.1-20,0.3-36.9c0.2-18.7,0.6-37.4,0.6-37.4c0-1.4,1.1-2.4,2.4-2.4
			c1.4,0,2.4,1.1,2.4,2.4c0,0,0.4,18.7,0.6,37.4c0.2,14,0.2,27.9,0.3,34.1c3.8,0,10.4,0.1,18.1,0.1c21,0.2,49.9,0.7,49.9,0.7
			c1.4,0,2.4,1.1,2.4,2.4s-1.1,2.4-2.4,2.4c0,0-28.9,0.5-49.9,0.7c-11.1,0.1-19.9,0.1-21.2,0.1c-2.9,1.8-9,5.6-16.4,10.1
			c-5.6,3.4-12,7.3-18.4,11.1c-3.8,2.2-7.6,4.3-11.2,6.4c-14.3,8-26.4,14.6-26.4,14.6c-1.2,0.7-2.7,0.3-3.3-0.9
			c-0.7-1.2-0.3-2.7,0.9-3.3c0,0,11.6-7.3,25.6-15.8c3.6-2.2,7.3-4.4,11.1-6.6c6.5-3.8,13-7.4,18.7-10.6
			C151,619.4,156.8,616.3,160.1,614.5L160.1,614.5z"/>
		<path fill="#142664" d="M82.4,597.1l76.9-44.9c1.3-0.7,2.7-1.1,4.1-1.1h79.4v16.4h-77.2l-83.3,48.6v-19H82.4z"/>
		<path fill="#FFFFFF" d="M236.2,587c0-1-0.4-1.9-1.1-2.6c-0.7-0.7-1.6-1.1-2.6-1.1c-6.2,0-18.9,0-25.2,0c-1,0-1.9,0.4-2.6,1.1
			c-0.7,0.7-1.1,1.6-1.1,2.6c0,3.8,0,9.8,0,13.6c0,1,0.4,1.9,1.1,2.6c0.7,0.7,1.6,1.1,2.6,1.1c6.2,0,18.9,0,25.2,0
			c1,0,1.9-0.4,2.6-1.1c0.7-0.7,1.1-1.6,1.1-2.6C236.2,596.8,236.2,590.8,236.2,587z"/>
		<path fill="#142664" d="M209.8,592.2h20.3c1.2,0,2.2-1,2.2-2.2s-1-2.2-2.2-2.2h-20.3c-1.2,0-2.2,1-2.2,2.2
			S208.6,592.2,209.8,592.2z"/>
		<path fill="#142664" d="M209.8,599.9h14.3c1.2,0,2.2-1,2.2-2.2s-1-2.2-2.2-2.2h-14.3c-1.2,0-2.2,1-2.2,2.2
			S208.6,599.9,209.8,599.9z"/>
	</g>
	<g>
		<path fill="#FF2E93" d="M436.1,57.3c5,0,9.1,4.1,9.1,9.1c0,17.7,0,56.5,0,70.6c0,3.2-1.7,6.2-4.5,7.9c-14.5,8.4-59.7,34.4-72.9,42
			c-2.4,1.4-5,2.1-7.8,2.1c-17.2,0-83,0-107.2,0c-5,0-9.1-4.1-9.1-9.1v-70.6c0-3.2,1.7-6.2,4.5-7.9c15.2-8.8,63.9-36.9,74.4-43
			c1.3-0.8,2.9-1.2,4.4-1.2h109.1V57.3z"/>
		<path fill="#142664" d="M321.4,140.6l0.8-74.2c0-1.4,1.1-2.4,2.4-2.4c1.4,0,2.4,1.1,2.4,2.4l0.8,71.5c6.6,0,22.5,0,40,0.1
			c30.1,0.2,64.9,0.7,64.9,0.7c1.4,0,2.4,1.1,2.4,2.4c0,1.4-1.1,2.4-2.4,2.4c0,0-34.8,0.5-64.9,0.7c-21.5,0.1-40.7,0.1-43,0.1
			c-2.9,1.8-9,5.6-16.5,10.2c-5.6,3.4-12,7.3-18.4,11.1c-3.8,2.2-7.6,4.3-11.2,6.4c-14.3,8-26.4,14.6-26.4,14.6
			c-1.2,0.7-2.7,0.3-3.3-0.9c-0.7-1.2-0.3-2.7,0.9-3.3c0,0,11.6-7.3,25.6-15.8c3.6-2.2,7.3-4.4,11.1-6.6c6.5-3.8,13-7.4,18.7-10.6
			C312.3,145.6,318.1,142.4,321.4,140.6L321.4,140.6z"/>
		<path fill="#FFFFFF" d="M437.6,72c0-2-1.6-3.6-3.6-3.6c-7.4,0-24.1,0-31.5,0c-2,0-3.6,1.6-3.6,3.6c0,5.6,0,16.3,0,21.9
			c0,2,1.6,3.6,3.6,3.6c7.4,0,24.1,0,31.5,0c2,0,3.6-1.6,3.6-3.6C437.6,88.2,437.6,77.6,437.6,72z"/>
		<path fill="#142664" d="M405.8,85.4h25.7c1.2,0,2.2-1,2.2-2.2s-1-2.2-2.2-2.2h-25.7c-1.2,0-2.2,1-2.2,2.2S404.5,85.4,405.8,85.4z"/>
		<path fill="#142664" d="M405.8,77.7h25.7c1.2,0,2.2-1,2.2-2.2s-1-2.2-2.2-2.2h-25.7c-1.2,0-2.2,1-2.2,2.2
			C403.5,76.7,404.5,77.7,405.8,77.7z"/>
		<path fill="#142664" d="M405.8,93.1H424c1.2,0,2.2-1,2.2-2.2s-1-2.2-2.2-2.2h-18.2c-1.2,0-2.2,1-2.2,2.2S404.5,93.1,405.8,93.1z"/>
		<path fill="#142664" d="M268.3,189l89.9-52.5V57.3h16.4v83.9c0,2.9-1.6,5.6-4.1,7.1L300.9,189H268.3L268.3,189z"/>
	</g>
	<path fill="#142664" d="M721.6,669.2c5,0,9.1,4.1,9.1,9.1c0,8.6,0,21.1,0,28.2c0,3.2-1.7,6.2-4.5,7.9c-8.1,4.7-25,14.4-32.4,18.7
		c-2.4,1.4-5,2.1-7.8,2.1c-9.7,0-33.8,0-47,0c-5,0-9.1-4.1-9.1-9.1c0-8.6,0-21.1,0-28.1c0-3.2,1.7-6.2,4.5-7.9
		c8.8-5.1,27.7-16,33.9-19.6c1.3-0.8,2.9-1.2,4.4-1.2C680.8,669.2,707.4,669.2,721.6,669.2L721.6,669.2z"/>
	<path fill="#FFFFFF" d="M667.2,710.2l0.8-32.4c0-1.4,1.1-2.4,2.4-2.4c1.4,0,2.4,1.1,2.4,2.4l0.7,30c1.8,0,4.2,0,7.1,0
		c3.1,0,6.6,0,10.2,0.1c14.2,0.3,30.7,0.7,30.7,0.7c1.4,0,2.4,1.1,2.4,2.4s-1.1,2.4-2.4,2.4c0,0-16.4,0.5-30.7,0.7
		c-3.7,0.1-7.2,0.1-10.2,0.1c-5.8,0-9.9-0.1-10.2-0.1c-1.3,0.9-3.3,2.2-5.6,3.8c-2.2,1.5-4.8,3.1-7.4,4.7c-1.5,0.9-3.1,1.7-4.6,2.5
		c-5.9,3.1-10.9,5.5-10.9,5.5c-1.2,0.7-2.7,0.3-3.3-0.9s-0.3-2.7,0.9-3.3c0,0,4.6-3.2,10.2-6.8c1.4-0.9,2.9-1.9,4.5-2.8
		c2.6-1.5,5.3-2.9,7.7-4.2C663.9,711.8,665.8,710.9,667.2,710.2L667.2,710.2z"/>
	<path fill="#FFFFFF" d="M726.1,678.3c0-2-1.6-3.6-3.6-3.6c-4.5,0-12.1,0-16.7,0c-2,0-3.6,1.6-3.6,3.6c0,3,0,7.1,0,10.1
		c0,2,1.6,3.6,3.6,3.6c4.5,0,12.2,0,16.7,0c2,0,3.6-1.6,3.6-3.6C726.1,685.5,726.1,681.3,726.1,678.3z"/>
	<path fill="#142664" d="M707.9,682.5h12.9c1.2,0,2.2-1,2.2-2.2s-1-2.2-2.2-2.2h-12.9c-1.2,0-2.2,1-2.2,2.2
		C705.7,681.6,706.7,682.5,707.9,682.5z"/>
	<path fill="#142664" d="M707.9,689.2h9.1c1.2,0,2.2-1,2.2-2.2s-1-2.2-2.2-2.2h-9.1c-1.2,0-2.2,1-2.2,2.2S706.7,689.2,707.9,689.2z"/>
	<path fill="#142664" d="M512.9,73.8c0,0.3-0.2,0.6-0.4,0.8c-2.1,1.2-21.2,12.1-24.5,14c-0.3,0.2-0.6,0.2-0.9,0s-0.4-0.4-0.4-0.8
		V77.1c0-0.3,0.2-0.6,0.4-0.8c2.1-1.2,21.2-12.1,24.5-14c0.3-0.2,0.6-0.2,0.9,0s0.4,0.4,0.4,0.8V73.8z"/>
	<path fill="#00E6B3" d="M640.4,445.8c0,0.3-0.2,0.6-0.4,0.8c-2.1,1.2-21.3,12.2-24.6,14.1c-0.3,0.2-0.6,0.2-0.9,0
		c-0.3-0.2-0.4-0.4-0.4-0.8v-10.8c0-0.3,0.2-0.6,0.4-0.8c2.1-1.2,21.3-12.2,24.6-14.1c0.3-0.2,0.6-0.2,0.9,0
		c0.3,0.2,0.4,0.4,0.4,0.8V445.8L640.4,445.8z"/>
	<path fill="#FF2E93" d="M621.8,704.7c0,0.2-0.1,0.4-0.3,0.4c-1.2,0.7-12.5,7.1-14.5,8.3c-0.2,0.1-0.4,0.1-0.5,0
		c-0.2-0.1-0.3-0.3-0.3-0.4v-6.4c0-0.2,0.1-0.4,0.3-0.4c1.2-0.7,12.5-7.1,14.5-8.3c0.2-0.1,0.4-0.1,0.5,0c0.2,0.1,0.3,0.3,0.3,0.4
		V704.7z"/>
	<path fill="#00E6B3" d="M378.9,648.5c0,0.2-0.1,0.4-0.3,0.4c-1.2,0.7-12.5,7.1-14.5,8.3c-0.2,0.1-0.4,0.1-0.5,0
		c-0.2-0.1-0.3-0.3-0.3-0.4v-6.4c0-0.2,0.1-0.4,0.3-0.4c1.2-0.7,12.5-7.1,14.5-8.3c0.2-0.1,0.4-0.1,0.5,0c0.2,0.1,0.3,0.3,0.3,0.4
		V648.5z"/>
	<path fill="#FF2E93" d="M299.9,525.2c0,0.2-0.1,0.4-0.3,0.4c-1.2,0.7-12.5,7.1-14.5,8.3c-0.2,0.1-0.4,0.1-0.5,0
		c-0.2-0.1-0.3-0.3-0.3-0.4v-6.4c0-0.2,0.1-0.4,0.3-0.4c1.2-0.7,12.5-7.1,14.5-8.3c0.2-0.1,0.4-0.1,0.5,0c0.2,0.1,0.3,0.3,0.3,0.4
		V525.2L299.9,525.2z"/>
	<path fill="#00E6B3" d="M99.8,690.5c0,0.2-0.1,0.4-0.3,0.4c-1.2,0.7-12.5,7.1-14.5,8.3c-0.2,0.1-0.4,0.1-0.5,0
		c-0.2-0.1-0.3-0.3-0.3-0.4v-6.4c0-0.2,0.1-0.4,0.3-0.4c1.2-0.7,12.5-7.1,14.5-8.3c0.2-0.1,0.4-0.1,0.5,0c0.2,0.1,0.3,0.3,0.3,0.4
		V690.5z"/>
	<path fill="#142664" d="M101.3,315.4c0,0.2-0.1,0.4-0.3,0.4c-1.2,0.7-12.5,7.1-14.5,8.3c-0.2,0.1-0.4,0.1-0.5,0
		c-0.2-0.1-0.3-0.3-0.3-0.4v-6.4c0-0.2,0.1-0.4,0.3-0.4c1.2-0.7,12.5-7.1,14.5-8.3c0.2-0.1,0.4-0.1,0.5,0c0.2,0.1,0.3,0.3,0.3,0.4
		V315.4L101.3,315.4z"/>
	<path fill="#00E6B3" d="M411.6,204.2c0,0.2-0.1,0.4-0.3,0.4c-1.2,0.7-12.5,7.1-14.5,8.3c-0.2,0.1-0.4,0.1-0.5,0
		c-0.2-0.1-0.3-0.3-0.3-0.4v-6.4c0-0.2,0.1-0.4,0.3-0.4c1.2-0.7,12.5-7.1,14.5-8.3c0.2-0.1,0.4-0.1,0.5,0c0.2,0.1,0.3,0.3,0.3,0.4
		V204.2z"/>
	<path fill="#00E6B3" d="M130.2,275.1c0,0.2-0.1,0.4-0.3,0.4c-1.2,0.7-12.5,7.1-14.5,8.3c-0.2,0.1-0.4,0.1-0.5,0
		c-0.2-0.1-0.3-0.3-0.3-0.4V277c0-0.2,0.1-0.4,0.3-0.4c1.2-0.7,12.5-7.1,14.5-8.3c0.2-0.1,0.4-0.1,0.5,0c0.2,0.1,0.3,0.3,0.3,0.4
		V275.1z"/>
	<path fill="#00E6B3" d="M90.9,492.7c0,0.3-0.2,0.6-0.4,0.8c-2.1,1.2-21.3,12.2-24.6,14.1c-0.3,0.2-0.6,0.2-0.9,0s-0.4-0.4-0.4-0.8
		V496c0-0.3,0.2-0.6,0.4-0.8c2.1-1.2,21.3-12.2,24.6-14.1c0.3-0.2,0.6-0.2,0.9,0s0.4,0.4,0.4,0.8V492.7L90.9,492.7z"/>
	<path fill="#FF2E93" d="M293.2,714.6c0-0.2,0.1-0.4,0.3-0.5c1.5-0.9,15.4-8.8,17.9-10.2c0.2-0.1,0.4-0.1,0.6,0s0.3,0.3,0.3,0.5v7.8
		c0,0.2-0.1,0.4-0.3,0.5c-1.5,0.9-15.4,8.8-17.9,10.2c-0.2,0.1-0.4,0.1-0.6,0s-0.3-0.3-0.3-0.5V714.6L293.2,714.6z"/>
	<path fill="#00E6B3" d="M241,504.8c0-0.2,0.1-0.4,0.3-0.5c1.5-0.9,15.4-8.8,17.9-10.2c0.2-0.1,0.4-0.1,0.6,0s0.3,0.3,0.3,0.5v7.8
		c0,0.2-0.1,0.4-0.3,0.5c-1.5,0.9-15.4,8.8-17.9,10.2c-0.2,0.1-0.4,0.1-0.6,0s-0.3-0.3-0.3-0.5L241,504.8L241,504.8z"/>
	<path fill="#FF2E93" d="M304.6,333.2c0-0.2,0.1-0.4,0.3-0.5c1.5-0.9,15.4-8.8,17.9-10.2c0.2-0.1,0.4-0.1,0.6,0s0.3,0.3,0.3,0.5v7.8
		c0,0.2-0.1,0.4-0.3,0.5c-1.5,0.9-15.4,8.8-17.9,10.2c-0.2,0.1-0.4,0.1-0.6,0s-0.3-0.3-0.3-0.5V333.2L304.6,333.2z"/>
	<path fill="#00E6B3" d="M512.9,86.3c0-0.2,0.1-0.4,0.3-0.5c1.5-0.9,15.4-8.8,17.9-10.2c0.2-0.1,0.4-0.1,0.6,0
		c0.2,0.1,0.3,0.3,0.3,0.5v7.8c0,0.2-0.1,0.4-0.3,0.5c-1.5,0.9-15.4,8.8-17.9,10.2c-0.2,0.1-0.4,0.1-0.6,0c-0.2-0.1-0.3-0.3-0.3-0.5
		V86.3L512.9,86.3z"/>
	<path fill="#142664" d="M174.8,690.3c0,0.3-0.2,0.6-0.4,0.8c-2.1,1.2-21.3,12.2-24.6,14.1c-0.3,0.2-0.6,0.2-0.9,0
		c-0.3-0.2-0.4-0.4-0.4-0.8v-10.8c0-0.3,0.2-0.6,0.4-0.8c2.1-1.2,21.3-12.2,24.6-14.1c0.3-0.2,0.6-0.2,0.9,0
		c0.3,0.2,0.4,0.4,0.4,0.8V690.3z"/>
	<path fill="#00E6B3" d="M188.3,89.9c0,0.3-0.2,0.6-0.4,0.8c-2.1,1.2-21.3,12.2-24.6,14.1c-0.3,0.2-0.6,0.2-0.9,0
		c-0.3-0.2-0.4-0.4-0.4-0.8V93.2c0-0.3,0.2-0.6,0.4-0.8c2.1-1.2,21.3-12.2,24.6-14.1c0.3-0.2,0.6-0.2,0.9,0c0.3,0.2,0.4,0.4,0.4,0.8
		V89.9z"/>
	<g>
		<path fill="#00E6B3" d="M318.9,442.4l34.8-20.1c2.1-1.2,2.8-3.9,1.6-6c-1.2-2.1-3.9-2.8-6-1.6l-34.8,20.1c-2.1,1.2-2.8,3.9-1.6,6
			C314,442.9,316.7,443.6,318.9,442.4z"/>
		<path fill="#00E6B3" d="M365.1,415.7l68.7-39.7c2.1-1.2,2.8-3.9,1.6-6c-1.2-2.1-3.9-2.8-6-1.6l-68.7,39.7c-2.1,1.2-2.8,3.9-1.6,6
			C360.2,416.2,362.9,416.9,365.1,415.7L365.1,415.7z"/>
		<path fill="#00E6B3" d="M318.9,459.9l54.2-31.3c2.1-1.2,2.8-3.9,1.6-6c-1.2-2.1-3.9-2.8-6-1.6l-54.2,31.3c-2.1,1.2-2.8,3.9-1.6,6
			C314,460.4,316.7,461.1,318.9,459.9z"/>
		<path fill="#00E6B3" d="M385.7,421.3l1.2-0.7c2.1-1.2,2.8-3.9,1.6-6s-3.9-2.8-6-1.6l-1.2,0.7c-2.1,1.2-2.8,3.9-1.6,6
			S383.6,422.5,385.7,421.3z"/>
		<path fill="#00E6B3" d="M398.9,413.7l34.9-20.2c2.1-1.2,2.8-3.9,1.6-6c-1.2-2.1-3.9-2.8-6-1.6L394.5,406c-2.1,1.2-2.8,3.9-1.6,6
			C394.1,414.2,396.8,414.9,398.9,413.7L398.9,413.7z"/>
		<path fill="#00E6B3" d="M318.9,477.4l25.4-14.6c2.1-1.2,2.8-3.9,1.6-6c-1.2-2.1-3.9-2.8-6-1.6l-25.4,14.6c-2.1,1.2-2.8,3.9-1.6,6
			C314,477.9,316.7,478.6,318.9,477.4z"/>
		<path fill="#00E6B3" d="M355.8,456l78-45c2.1-1.2,2.8-3.9,1.6-6c-1.2-2.1-3.9-2.8-6-1.6l-78,45c-2.1,1.2-2.8,3.9-1.6,6
			C351,456.5,353.7,457.2,355.8,456z"/>
		<path fill="#00E6B3" d="M318.9,495.9l75.9-43.8c2.1-1.2,2.8-3.9,1.6-6c-1.2-2.1-3.9-2.8-6-1.6l-75.9,43.8c-2.1,1.2-2.8,3.9-1.6,6
			C314,496.4,316.7,497.1,318.9,495.9z"/>
	</g>
	<g>
		<path fill="#FF2E93" d="M120.8,169.1l24-13.8c1.1-0.6,1.4-2,0.8-3c-0.6-1.1-2-1.4-3-0.8l-24,13.8c-1.1,0.6-1.4,2-0.8,3
			S119.7,169.7,120.8,169.1z"/>
		<path fill="#FF2E93" d="M152.5,150.7l47.3-27.3c1.1-0.6,1.4-2,0.8-3c-0.6-1.1-2-1.4-3-0.8l-47.3,27.3c-1.1,0.6-1.4,2-0.8,3
			C150.1,151,151.5,151.3,152.5,150.7z"/>
		<path fill="#FF2E93" d="M197.6,106.9l-32,18.5c-1.1,0.6-1.4,2-0.8,3c0.6,1,2,1.4,3,0.8l32-18.5c1.1-0.6,1.4-2,0.8-3
			C200,106.6,198.7,106.3,197.6,106.9z"/>
		<path fill="#FF2E93" d="M157.7,129.9l-18.2,10.5c-1.1,0.6-1.4,2-0.8,3c0.6,1.1,2,1.4,3,0.8l18.2-10.5c1.1-0.6,1.4-2,0.8-3
			S158.8,129.3,157.7,129.9z"/>
		<path fill="#FF2E93" d="M130.6,145.6l-12,6.9c-1.1,0.6-1.4,2-0.8,3c0.6,1.1,2,1.4,3,0.8l12-6.9c1.1-0.6,1.4-2,0.8-3
			C133,145.3,131.6,145,130.6,145.6z"/>
		<path fill="#FF2E93" d="M120.8,181.7l42.2-24.4c1.1-0.6,1.4-2,0.8-3c-0.6-1.1-2-1.4-3-0.8l-42.2,24.4c-1.1,0.6-1.4,2-0.8,3
			C118.4,182,119.7,182.3,120.8,181.7L120.8,181.7z"/>
		<path fill="#FF2E93" d="M171.1,152.7l28.7-16.6c1.1-0.6,1.4-2,0.8-3c-0.6-1.1-2-1.4-3-0.8l-28.7,16.6c-1.1,0.6-1.4,2-0.8,3
			S170.1,153.3,171.1,152.7z"/>
		<path fill="#FF2E93" d="M120.8,194.5l56.8-32.8c1.1-0.6,1.4-2,0.8-3c-0.6-1.1-2-1.4-3-0.8l-56.8,32.8c-1.1,0.6-1.4,2-0.8,3
			S119.7,195.1,120.8,194.5z"/>
	</g>
	<g>
		<path fill="#142664" d="M535.5,538.6l23.3-13.5c1.6-0.9,2.1-2.9,1.2-4.5s-2.9-2.1-4.5-1.2l-23.3,13.5c-1.6,0.9-2.1,2.9-1.2,4.5
			C531.8,539,533.9,539.5,535.5,538.6L535.5,538.6z"/>
		<path fill="#142664" d="M568.2,519.7l32.8-18.9c1.6-0.9,2.1-2.9,1.2-4.5s-2.9-2.1-4.5-1.2L564.9,514c-1.6,0.9-2.1,2.9-1.2,4.5
			S566.7,520.6,568.2,519.7z"/>
		<path fill="#142664" d="M535.5,570.3l6.6-3.8c1.6-0.9,2.1-2.9,1.2-4.5c-0.9-1.6-2.9-2.1-4.5-1.2l-6.6,3.8
			c-1.6,0.9-2.1,2.9-1.2,4.5C531.8,570.7,533.9,571.2,535.5,570.3z"/>
		<path fill="#142664" d="M550.8,561.4l33.8-19.5c1.6-0.9,2.1-2.9,1.2-4.5c-0.9-1.6-2.9-2.1-4.5-1.2l-33.8,19.5
			c-1.6,0.9-2.1,2.9-1.2,4.5C547.2,561.8,549.2,562.3,550.8,561.4z"/>
		<path fill="#142664" d="M535.5,554.5l65.5-37.8c1.6-0.9,2.1-2.9,1.2-4.5c-0.9-1.6-2.9-2.1-4.5-1.2l-65.5,37.8
			c-1.6,0.9-2.1,2.9-1.2,4.5C531.8,554.8,533.9,555.4,535.5,554.5L535.5,554.5z"/>
	</g>
</g>
</svg>