<?xml version="1.0" encoding="UTF-8"?><svg version="1.1" id="Calque_1" xmlns:serif="http://www.serif.com/" xmlns="http://www.w3.org/2000/svg" xmlns:xlink="http://www.w3.org/1999/xlink" x="0px" y="0px" viewBox="0 0 800 800" style="enable-background:new 0 0 800 800;" xml:space="preserve" width="800px" height="800px">

<g>
	<g id="Calque7">
		<g>
			<path d="M315.2,564.2c0-2.2-0.9-4.4-2.5-6c-1.6-1.6-3.7-2.5-6-2.5H163.7c-4.7,0-8.5,3.8-8.5,8.5
				c0,15.9,0,50.3,0,68.9c0,2.8,1.4,5.4,3.7,7c2.3,1.6,5.3,1.9,7.9,0.9c32-12.7,120.4-47.9,143.1-56.9c3.2-1.3,5.3-4.4,5.3-7.9
				L315.2,564.2L315.2,564.2z" style="fill:#00E6B3;"/>
			<path d="M166.8,565.5h2.2c1.2,0,2.2-1,2.2-2.2c0-1.2-1-2.2-2.2-2.2h-2.2c-1.2,0-2.2,1-2.2,2.2
				C164.7,564.5,165.6,565.5,166.8,565.5z M182,565.5h2.2c1.2,0,2.2-1,2.2-2.2c0-1.2-1-2.2-2.2-2.2H182c-1.2,0-2.2,1-2.2,2.2
				C179.8,564.5,180.8,565.5,182,565.5z M197.1,565.5h2.2c1.2,0,2.2-1,2.2-2.2c0-1.2-1-2.2-2.2-2.2h-2.2c-1.2,0-2.2,1-2.2,2.2
				C195,564.5,195.9,565.5,197.1,565.5z M212.3,565.5h2.2c1.2,0,2.2-1,2.2-2.2c0-1.2-1-2.2-2.2-2.2h-2.2c-1.2,0-2.2,1-2.2,2.2
				C210.1,564.5,211.1,565.5,212.3,565.5z M227.4,565.5h2.2c1.2,0,2.2-1,2.2-2.2c0-1.2-1-2.2-2.2-2.2h-2.2c-1.2,0-2.2,1-2.2,2.2
				C225.3,564.5,226.2,565.5,227.4,565.5z M242.6,565.5h2.2c1.2,0,2.2-1,2.2-2.2c0-1.2-1-2.2-2.2-2.2h-2.2c-1.2,0-2.2,1-2.2,2.2
				C240.4,564.5,241.4,565.5,242.6,565.5z" style="fill:#142664;"/>
			<path d="M167.6,633.7c0,0,0.7-0.3,2-0.8c1.1-0.4,1.7-1.7,1.3-2.8c-0.4-1.1-1.7-1.7-2.8-1.3c-1.3,0.5-2,0.8-2,0.8
				c-1.1,0.4-1.7,1.7-1.3,2.8C165.2,633.5,166.5,634.1,167.6,633.7L167.6,633.7z M181.8,628.3c0.7-0.2,1.3-0.5,2-0.8
				c1.1-0.4,1.7-1.7,1.3-2.8c-0.4-1.1-1.7-1.7-2.8-1.3c-0.7,0.3-1.4,0.5-2,0.8c-1.1,0.4-1.7,1.7-1.3,2.8
				C179.4,628.2,180.6,628.8,181.8,628.3L181.8,628.3z M196,623c0.7-0.3,1.4-0.5,2-0.8c1.1-0.4,1.7-1.7,1.3-2.8
				c-0.4-1.1-1.7-1.7-2.8-1.3c-0.7,0.3-1.3,0.5-2,0.8c-1.1,0.4-1.7,1.7-1.3,2.8C193.6,622.9,194.8,623.4,196,623L196,623z
				 M210.1,617.7c0.7-0.3,1.4-0.5,2-0.8c1.1-0.4,1.7-1.7,1.3-2.8c-0.4-1.1-1.7-1.7-2.8-1.3c-0.7,0.2-1.3,0.5-2,0.8
				c-1.1,0.4-1.7,1.7-1.3,2.8C207.8,617.5,209,618.1,210.1,617.7z" style="fill:#142664;"/>
			<ellipse cx="268.5" cy="294" rx="173.8" ry="7.4" style="fill:#142664;"/>
			<path d="M177.6,452.4c-0.1-2.7-0.1-5.4-0.1-8.2c0,0,0-17.8,0-27.8c0-2.3-1.7-4.3-4-4.5c-34.6-3.5-30.8-59-12.7-59
				c15.6,0,16.8,22.4,16.8,29.9c0,0.6,0.2,1.2,0.6,1.7c0.4,0.4,1,0.7,1.6,0.7c2.8,0,7.5,0,10.3,0c1.2,0,2.3-1,2.3-2.3
				c0.6-95.4,36.8-68.5,77.6-78.8c68.8-17.3,72,4.3,101.3-0.5v140.7c0,49.8-11.3,87.6-75.2,94.3v17.2H177.6L177.6,452.4L177.6,452.4
				L177.6,452.4z" style="fill:#FF2E93;"/>
			<path d="M228.9,352c0,0,4.6-4.3,14.3-5.8c4.3-0.7,9.5-0.8,15.8,0.3c1.8,0.2,3.4-1.1,3.6-2.9c0.2-1.8-1.1-3.4-2.9-3.6
				c-7.1-0.4-12.8,0.3-17.5,1.5c-10.9,2.9-15.5,8.4-15.5,8.4c-0.6,0.6-0.6,1.6,0.1,2.2C227.3,352.6,228.3,352.6,228.9,352L228.9,352
				z" style="fill:#142664;"/>
			<path d="M363.5,349.9c0,0-4.7-5.5-15.5-8.4c-4.6-1.2-10.4-1.9-17.5-1.5c-1.8,0.2-3.1,1.8-2.9,3.6
				c0.2,1.8,1.8,3.1,3.6,2.9c6.3-1,11.5-0.9,15.8-0.3c9.7,1.5,14.3,5.8,14.3,5.8c0.6,0.6,1.6,0.7,2.2,0.1
				C364.1,351.5,364.1,350.5,363.5,349.9L363.5,349.9z" style="fill:#142664;"/>
			<path d="M288.6,408.3c5,0.6,8.5,2,10.8,3.7c3.4,2.5,4.2,6,4.1,9.2c0.1,3.2-1.3,6.5-4.4,9c-2.4,1.9-5.8,3.3-10.5,4
				c-0.9,0.1-1.5,0.9-1.4,1.8c0.1,0.9,0.9,1.5,1.8,1.4c7-0.5,11.7-2.8,14.6-5.8c3-3,4.2-6.7,4.3-10.3c0-3.7-1-7.6-3.9-10.6
				c-2.8-2.8-7.4-5-15-5.5c-0.9-0.1-1.7,0.6-1.7,1.4C287,407.4,287.7,408.2,288.6,408.3L288.6,408.3z" style="fill:#142664;"/>
			<path d="M161.7,383.7c0,0,0.3-1.6,0.6-3.9c0.1-1.2,0.3-2.5,0.3-3.9c0-0.8-0.1-1.6-0.1-2.3c-0.3-3-0.7-5.4-0.7-5.4
				c0-1.3-1.1-2.4-2.4-2.4s-2.4,1.1-2.4,2.4c0,0-0.4,2.4-0.7,5.4c-0.1,0.8-0.1,1.5-0.1,2.3c0,1.4,0.2,2.7,0.3,3.9
				c0.2,2.3,0.6,3.9,0.6,3.9c0,1.3,1.1,2.4,2.4,2.4S161.7,385,161.7,383.7z" style="fill:#142664;"/>
			<path d="M303.9,477.7l-22.5-0.3c-0.9,0-1.6-0.7-1.6-1.6s0.7-1.6,1.6-1.6l30.7-0.5c1.2,0,2.2-0.5,2.9-1.3
				c0.7-0.8,1.2-1.8,1.2-2.9l0-4.1c0-1.1-0.5-2.2-1.2-2.9c-0.7-0.8-1.8-1.2-2.9-1.2l-39.2-0.5c-0.9,0-1.6-0.7-1.6-1.6
				c0-0.9,0.7-1.6,1.6-1.6l39.2-0.5c2.3,0,4.4,0.9,6,2.4c1.5,1.5,2.5,3.6,2.5,6l0,4.1c0,2.3-1,4.4-2.5,5.9c-1.5,1.5-3.6,2.4-5.9,2.4
				l-4.6-0.1c0.1,0.7,0.1,1.5,0.2,2.3c0.1,1.3,0.2,2.8,0.2,4.3c0,0.9,0,1.8-0.1,2.6c-0.2,3.3-0.5,6.1-0.5,6.1c0,0.9-0.7,1.6-1.6,1.6
				s-1.6-0.7-1.6-1.6c0,0-0.3-2.7-0.5-6.1c0-0.8-0.1-1.7-0.1-2.6c0-1.5,0.1-3,0.2-4.3C303.7,479.2,303.8,478.4,303.9,477.7
				L303.9,477.7z" style="fill:#142664;"/>
			<path d="M375.5,291.4c1.2,0,2.4,0.7,2.9,1.8c2.1,4.6,7,17,5.1,28.4c-0.2,1.1-1,2.1-2.1,2.4c-1.1,0.4-2.3,0.1-3.1-0.7
				c-3.8-3.6-9.9-8.3-16.3-8c-1.4,0.1-2.5,1.1-2.8,2.4c-0.8,3.2-2.9,9.4-7.9,12.9c-1.4,0.9-3.3,0.6-4.3-0.8
				c-2.6-3.6-8.5-10.5-18.9-15.3c-0.8-0.4-1.8-0.4-2.6,0c-0.8,0.4-1.5,1-1.7,1.9c-1.6,4.7-5.4,13.4-12.6,17.9
				c-0.8,0.5-1.7,0.6-2.6,0.3c-0.9-0.3-1.6-1-1.9-1.8c-1.9-4.6-5.5-13.1-9.2-17.9c-0.7-0.8-1.8-1.2-2.8-1c-1.1,0.2-2,0.9-2.4,1.9
				c-1,2.4-2.4,5.5-4,8.3c-0.6,0.9-1.7,1.5-2.8,1.4c-1.1,0-2.1-0.7-2.6-1.7c-1.3-2.4-3.3-5.2-6.2-7c-0.8-0.5-1.7-0.6-2.6-0.3
				c-0.9,0.3-1.6,0.9-1.9,1.7c-1.8,4-6.3,11.2-16.5,16.1c-0.8,0.4-1.8,0.4-2.7,0c-0.8-0.4-1.5-1.1-1.8-2
				c-1.5-4.8-4.7-13.5-10.5-18.7c-0.7-0.6-1.7-0.9-2.7-0.7c-1,0.2-1.8,0.9-2.2,1.8c-1.6,3.4-4.8,8.6-10.9,13
				c-0.8,0.6-1.7,0.7-2.6,0.5s-1.7-0.9-2.1-1.7c-2.1-4.4-6.5-10.8-13.2-4.5c-9.3,8.6-11,33.6-11.6,61.7c0,1.7-1.4,3.1-3.2,3.1
				c-3.4,0-8.7,0-12,0c-1.7,0-3.2-1.4-3.2-3.2c-0.1-8.2-1.8-29.8-15.2-29.8c-16.6,0-14,25.6-10.1,35.8c3.5,9.2,15.1,18.6,24,20.4
				c1.5,0.3,2.7,1.6,2.6,3.2c0,1.6,0,4.1,0,7.9c0,7.2,0.1,41.9,0.1,62.8c0,1.5-1.1,2.8-2.5,3.1c-1.5,0.3-2.9-0.5-3.6-1.8
				c-4.5-10.7-10.6-27.1-15.7-46.3c-0.4-1.4-1.6-2.3-3-2.4c-1.4,0-2.7,0.8-3.1,2.2c-0.3,0.9-0.6,1.9-0.8,3c-0.3,1.2-1.2,2.2-2.5,2.5
				c-1.2,0.3-2.5-0.3-3.2-1.3c-6-8.7-14.1-26.4-8.3-53.3c0.3-1.3-0.3-2.5-1.4-3.2c-1.1-0.7-2.5-0.6-3.5,0.2c0,0,0,0,0,0
				c-0.8,0.7-2,0.8-3,0.4c-1-0.4-1.6-1.4-1.7-2.5c-0.4-12.9,1-38.5,15.3-54.8c0.9-1,1-2.4,0.2-3.5c-0.8-1.1-2.2-1.4-3.4-0.9
				c-0.1,0-0.2,0.1-0.2,0.1c-0.7,0.3-1.5,0.2-2.1-0.2c-0.6-0.5-0.9-1.2-0.7-2c2.2-7.2,8.4-20.9,24.6-31.4c0.5-0.3,1.1-0.5,1.7-0.5
				C176.1,291.4,354.6,291.4,375.5,291.4L375.5,291.4z" style="fill:#142664;"/>
			<path d="M262.4,370c0-6.9-5.6-12.5-12.5-12.5h-6.8c-6.9,0-12.5,5.6-12.5,12.5v39.8c0,6.9,5.6,12.5,12.5,12.5h6.8
				c6.9,0,12.5-5.6,12.5-12.5V370z" style="fill:#FFFFFF;"/>
			<path d="M360.1,370c0-6.9-5.6-12.5-12.5-12.5h-6.8c-6.9,0-12.5,5.6-12.5,12.5v39.8c0,6.9,5.6,12.5,12.5,12.5h6.8
				c6.9,0,12.5-5.6,12.5-12.5V370z" style="fill:#FFFFFF;"/>
			<path d="M256.4,384.8c0-2.7-2.2-4.9-4.9-4.9c0,0,0,0,0,0c-2.7,0-4.9,2.2-4.9,4.9c0,3.1,0,7.1,0,10.3
				c0,2.7,2.2,4.9,4.9,4.9c0,0,0,0,0,0c2.7,0,4.9-2.2,4.9-4.9C256.4,391.9,256.4,387.9,256.4,384.8z" style="fill:#142664;"/>
			<path d="M354.1,384.8c0-2.7-2.2-4.9-4.9-4.9l0,0c-2.7,0-4.9,2.2-4.9,4.9c0,3.1,0,7.1,0,10.3c0,2.7,2.2,4.9,4.9,4.9
				l0,0c2.7,0,4.9-2.2,4.9-4.9C354.1,391.9,354.1,387.9,354.1,384.8z" style="fill:#142664;"/>
			<path d="M296,536.9c0,0-11.2,0.7-25.9-1.1c-3.3-0.4-6.7-0.9-10.2-1.5c-2.2-0.4-4.5-0.9-6.8-1.4
				c-9.1-2.1-18.4-5.2-26.6-10.2c-0.7-0.5-1.7-0.3-2.2,0.5c-0.5,0.7-0.3,1.7,0.5,2.2c7.3,4.8,15.5,8.3,23.7,10.6
				c3.6,1,7.3,1.9,10.8,2.5c6.6,1.2,12.9,1.7,18.4,1.9c10.9,0.5,18.5-0.4,18.5-0.4c0.9-0.1,1.5-0.9,1.5-1.7
				C297.6,537.5,296.8,536.8,296,536.9L296,536.9z" style="fill:#142664;"/>
			<path d="M180.4,555.7h112.9c1.2,0,2.2-1,2.2-2.2s-1-2.2-2.2-2.2H180.4c-1.2,0-2.2,1-2.2,2.2S179.2,555.7,180.4,555.7
				L180.4,555.7z" style="fill:#142664;"/>
			<path d="M444.9,291c0-4.4-3.6-7.9-7.9-7.9c-47.1,0-289.7,0-336.8,0c-4.4,0-7.9,3.6-7.9,7.9c0,0,0,0,0,0
				c0,1.7,1.4,3,3,3c32.4,0,314.2,0,346.6,0C443.5,294,444.9,292.7,444.9,291C444.9,291,444.9,291,444.9,291z" style="fill:#00E6B3;"/>
			<path d="M161.1,238.7c2-20.4,19.2-36.3,40.1-36.3h0c8.6,0,16.6-4.7,20.7-12.4c8.9-16.6,26.5-28,46.7-28
				s37.8,11.3,46.7,28c4.1,7.6,12,12.4,20.7,12.4c0,0,0,0,0,0c20.9,0,38.1,15.9,40.1,36.3h0.2v49.8H160.9v-49.8L161.1,238.7
				L161.1,238.7z" style="fill:#00E6B3;"/>
			<rect x="160.9" y="257" width="215.3" height="26" style="fill:#FF2E93;"/>
			<path d="M233.5,624.5c-1.5,0.4-3.1,0-4.2-1.1c-1.1-1.1-1.5-2.7-1.1-4.2c3.7-12.4,12.4-37.3,25.2-50
				c10.5-10.5,23.5-10,31.8-1.7c8.3,8.3,8.8,21.3-1.7,31.8C270.7,612.2,245.9,620.8,233.5,624.5L233.5,624.5z" style="fill:#00E6B3;"/>
			<path d="M338.7,624.5c1.5,0.4,3.1,0,4.2-1.1c1.1-1.1,1.5-2.7,1.1-4.2c-3.7-12.4-12.4-37.3-25.2-50
				c-10.5-10.5-23.5-10-31.8-1.7c-8.3,8.3-8.8,21.3,1.7,31.8C301.6,612.2,326.4,620.8,338.7,624.5L338.7,624.5z" style="fill:#00E6B3;"/>
			<circle cx="286.1" cy="570.5" r="24.4" style="fill:#00E6B3;"/>
			<path d="M228.2,613.3c6.6-16.1,15.6-33.6,26.7-44.7c0.8-0.8,0.8-2.2,0-3.1c-0.8-0.8-2.2-0.8-3.1,0
				c-11.5,11.5-20.8,29.5-27.7,46.1c-0.5,1.1,0.1,2.4,1.2,2.8C226.5,614.9,227.8,614.4,228.2,613.3z" style="fill:#142664;"/>
			<path d="M276.5,590.5c-7.4-3.6-12.6-11.2-12.6-20c0-1.5,0.2-3,0.5-4.5c0.2-1.2-0.5-2.3-1.7-2.6
				c-1.2-0.2-2.3,0.5-2.6,1.7c-0.4,1.7-0.5,3.5-0.5,5.3c0,10.5,6.1,19.6,15,23.9c1.1,0.5,2.4,0.1,2.9-1
				C278,592.4,277.6,591.1,276.5,590.5z" style="fill:#142664;"/>
			<path d="M308,566.6c0.2,1.3,0.3,2.6,0.3,3.9c0,8.8-5.1,16.4-12.6,20c-1.1,0.5-1.5,1.8-1,2.9c0.5,1.1,1.8,1.5,2.9,1
				c8.9-4.3,15-13.4,15-23.9c0-1.6-0.1-3.2-0.4-4.7c-0.2-1.2-1.3-2-2.5-1.7C308.6,564.3,307.8,565.4,308,566.6z" style="fill:#142664;"/>
			<path d="M248.1,615.9c0,0,2.8-1.3,6.6-3.2c2-1,4.3-2.2,6.5-3.5c1.3-0.7,2.5-1.6,3.7-2.3c4.7-3.1,8.5-5.8,8.5-5.8
				c1.1-0.7,1.5-2.1,0.9-3.3c-0.7-1.1-2.1-1.5-3.3-0.9c0,0-4.2,2-9.2,4.6c-1.3,0.7-2.6,1.4-3.9,2.1c-2.2,1.3-4.3,2.7-6.2,4
				c-3.5,2.3-6,4.2-6,4.2c-1.1,0.7-1.5,2.1-0.9,3.3C245.4,616.2,246.9,616.6,248.1,615.9z" style="fill:#142664;"/>
			<path d="M325,611.8c0,0-2.5-1.8-6-4.2c-1.9-1.2-4-2.7-6.2-4c-1.3-0.8-2.6-1.4-3.9-2.1c-5-2.6-9.2-4.6-9.2-4.6
				c-1.1-0.7-2.6-0.3-3.3,0.9c-0.7,1.1-0.3,2.6,0.9,3.3c0,0,3.8,2.7,8.5,5.8c1.2,0.8,2.4,1.6,3.7,2.3c2.2,1.3,4.5,2.4,6.5,3.5
				c3.8,1.9,6.6,3.2,6.6,3.2c1.1,0.7,2.6,0.3,3.3-0.9C326.5,613.9,326.1,612.5,325,611.8z" style="fill:#142664;"/>
			<path d="M291.3,575.8c-0.3-0.8-1-2.7-2.7-5c-1.1-1.4-2.5-3-4.5-4.5c-0.9-0.8-2-1.5-3.1-2.3c-2.3-1.5-5-2.9-8.3-4
				c-0.8-0.2-1.3-1.1-1.1-2c0.2-0.8,1.1-1.3,2-1.1c3.8,0.9,7,2.1,9.5,3.6c1.4,0.8,2.6,1.6,3.7,2.5c2.3,1.9,3.9,3.8,5,5.6
				c1.3,2.1,2,3.9,2.4,5.2c2.1-1.7,4.2-3.8,6-6.5c0.4-0.8,1.4-1,2.2-0.6c0.8,0.4,1,1.4,0.6,2.2c-1.9,3.6-4.2,6.4-6.7,8.6
				c-1.2,1.1-2.5,2-3.8,2.8c-2.5,1.5-5,2.4-7.2,2.9c-4.5,1.2-7.8,1-7.8,1c-0.9,0-1.6-0.7-1.6-1.6c0-0.9,0.7-1.6,1.6-1.6
				c0,0,2.8-0.3,6.6-1.6c1.9-0.7,4-1.6,6.2-2.9C290.6,576.3,291,576,291.3,575.8L291.3,575.8z" style="fill:#142664;"/>
			<path d="M160.9,259.2h215.3c1.2,0,2.2-1,2.2-2.2s-1-2.2-2.2-2.2H160.9c-1.2,0-2.2,1-2.2,2.2S159.7,259.2,160.9,259.2
				z" style="fill:#142664;"/>
			<path d="M160.9,283.7h215.3c1.2,0,2.2-1,2.2-2.2c0-1.2-1-2.2-2.2-2.2H160.9c-1.2,0-2.2,1-2.2,2.2
				C158.7,282.7,159.7,283.7,160.9,283.7z" style="fill:#142664;"/>
			<path d="M350.5,267.9h-0.4c-1.2,0-2.2,1-2.2,2.2s1,2.2,2.2,2.2h0.4c1.2,0,2.2-1,2.2-2.2S351.7,267.9,350.5,267.9z
				 M337.1,267.9h-0.4c-1.2,0-2.2,1-2.2,2.2s1,2.2,2.2,2.2h0.4c1.2,0,2.2-1,2.2-2.2S338.3,267.9,337.1,267.9z M296.8,267.9h-0.4
				c-1.2,0-2.2,1-2.2,2.2s1,2.2,2.2,2.2h0.4c1.2,0,2.2-1,2.2-2.2S298,267.9,296.8,267.9z M283.4,267.9H283c-1.2,0-2.2,1-2.2,2.2
				s1,2.2,2.2,2.2h0.4c1.2,0,2.2-1,2.2-2.2S284.6,267.9,283.4,267.9z M216.3,267.9h-0.4c-1.2,0-2.2,1-2.2,2.2s1,2.2,2.2,2.2h0.4
				c1.2,0,2.2-1,2.2-2.2S217.5,267.9,216.3,267.9z M323.7,267.9h-0.4c-1.2,0-2.2,1-2.2,2.2s1,2.2,2.2,2.2h0.4c1.2,0,2.2-1,2.2-2.2
				S324.9,267.9,323.7,267.9z M310.3,267.9h-0.4c-1.2,0-2.2,1-2.2,2.2s1,2.2,2.2,2.2h0.4c1.2,0,2.2-1,2.2-2.2
				S311.5,267.9,310.3,267.9z M256.6,267.9h-0.4c-1.2,0-2.2,1-2.2,2.2s1,2.2,2.2,2.2h0.4c1.2,0,2.2-1,2.2-2.2
				S257.8,267.9,256.6,267.9z M243.2,267.9h-0.4c-1.2,0-2.2,1-2.2,2.2s1,2.2,2.2,2.2h0.4c1.2,0,2.2-1,2.2-2.2
				S244.4,267.9,243.2,267.9z M229.7,267.9h-0.4c-1.2,0-2.2,1-2.2,2.2s1,2.2,2.2,2.2h0.4c1.2,0,2.2-1,2.2-2.2
				S230.9,267.9,229.7,267.9z M202.9,267.9h-0.4c-1.2,0-2.2,1-2.2,2.2s1,2.2,2.2,2.2h0.4c1.2,0,2.2-1,2.2-2.2
				S204.1,267.9,202.9,267.9z M189.5,267.9H189c-1.2,0-2.2,1-2.2,2.2s1,2.2,2.2,2.2h0.4c1.2,0,2.2-1,2.2-2.2
				S190.7,267.9,189.5,267.9z M176.1,267.9h-0.4c-1.2,0-2.2,1-2.2,2.2s1,2.2,2.2,2.2h0.4c1.2,0,2.2-1,2.2-2.2
				S177.3,267.9,176.1,267.9z M270,267.9h-0.4c-1.2,0-2.2,1-2.2,2.2s1,2.2,2.2,2.2h0.4c1.2,0,2.2-1,2.2-2.2S271.2,267.9,270,267.9z
				 M364,267.9h-0.4c-1.2,0-2.2,1-2.2,2.2s1,2.2,2.2,2.2h0.4c1.2,0,2.2-1,2.2-2.2S365.1,267.9,364,267.9z" style="fill:#FFFFFF;"/>
			<path d="M245.8,263.5c0-3.6-2.9-6.5-6.5-6.5c-5.8,0-14.4,0-20.3,0c-3.6,0-6.5,2.9-6.5,6.5c0,4,0,9.1,0,13.1
				c0,3.6,2.9,6.5,6.5,6.5c5.8,0,14.4,0,20.3,0c3.6,0,6.5-2.9,6.5-6.5C245.8,272.6,245.8,267.5,245.8,263.5z" style="fill:#142664;"/>
			<path d="M234.8,268.9c0-1.8-1.4-3.2-3.2-3.2c-1.5,0-3.2,0-4.7,0c-1.8,0-3.2,1.4-3.2,3.2c0,0.7,0,1.5,0,2.3
				c0,1.8,1.4,3.2,3.2,3.2c1.5,0,3.2,0,4.7,0c1.8,0,3.2-1.4,3.2-3.2C234.8,270.4,234.8,269.7,234.8,268.9z" style="fill:#FF2E93;"/>
		</g>
	</g>
	<g id="Calque8">
		<g>
			<path d="M616.5,359.7l-24.3,24.4c-1.7,1.7-4.4,1.7-6.1,0s-1.7-4.4,0-6.1l24.4-24.4l0.2-0.2
				c4.8-4.3,7.8-10.5,7.8-17.4c0-12.9-10.5-23.4-23.4-23.4c-12.9,0-23.4,10.5-23.4,23.4c0,2.4-1.9,4.3-4.3,4.3s-4.3-1.9-4.3-4.3
				c0-17.7,14.4-32.1,32.1-32.1c17.7,0,32.1,14.4,32.1,32.1C627,345.4,622.9,353.9,616.5,359.7L616.5,359.7z" style="fill:#FF2E93;"/>
			<path d="M634.7,359.7l-24.4,24.4c-1.7,1.7-4.4,1.7-6.1,0c-1.7-1.7-1.7-4.4,0-6.1l24.4-24.4l0.2-0.2
				c4.8-4.3,7.8-10.5,7.8-17.4c0-12.9-10.5-23.4-23.4-23.4c-12.9,0-23.4,10.5-23.4,23.4c0,2.4-1.9,4.3-4.3,4.3
				c-2.4,0-4.3-1.9-4.3-4.3c0-17.7,14.4-32.1,32.1-32.1s32.1,14.4,32.1,32.1C645.2,345.4,641.2,353.9,634.7,359.7L634.7,359.7z" style="fill:#142664;"/>
			<path d="M551.2,452.5h-71.1c0,0,6.6-6.6,10.8-10.8c2.1-2.1,5-3.3,8-3.3h33.5c3,0,5.9,1.2,8,3.3
				C544.6,445.9,551.2,452.5,551.2,452.5z" style="fill:#142664;"/>
			<path d="M272.9,421.1c0,0-11.1,0.1-11.8,0l0,0l0,0c-15.5-1.1-27.8-14.1-27.8-29.9c0-15.8,12.3-28.8,27.8-29.9v-0.1
				h11.8V421.1L272.9,421.1z" style="fill:#142664;"/>
			<circle cx="272.9" cy="391.2" r="30" style="fill:#142664;"/>
			<path d="M303.2,415c0,0-27.5,0-28.1,0h0l0,0c-12.3-0.9-22.1-11.2-22.1-23.8s9.8-22.9,22.1-23.8v-0.1h28.1L303.2,415
				L303.2,415z" style="fill:#00E6B3;"/>
			<path d="M439.2,452.5h-64.9c-4.1,0-7.9-1.6-10.8-4.5c-4.8-4.8-12.3-12.3-17.1-17.1c-2.9-2.9-6.8-4.5-10.8-4.5
				c-10.6,0-32.3,0-47.1,0c-4.1,0-7.9-1.6-10.8-4.5c-2.9-2.9-4.5-6.8-4.5-10.8c0-5.5,0-11.4,0-15.7c0-4.1,1.6-7.9,4.5-10.8
				c6.4-6.4,18.2-18.2,24.7-24.7c2.9-2.9,6.8-4.5,10.8-4.5h54c0,0,0-2.4,0-5.1c0-3.7,3-6.7,6.7-6.7h41.3v11.8h24.1V452.5
				L439.2,452.5z M410.8,371.2l-13.4,13.4c-2.9,2.9-4.5,6.8-4.5,10.8c0,6.9,0,17.8,0,24.7c0,4.1,1.6,7.9,4.5,10.8l6.8,6.8
				L410.8,371.2L410.8,371.2z" style="fill:#142664;"/>
			<path d="M500.2,355.5h-51.3c3.1-11.2,13.4-19.4,25.6-19.4h25.6V355.5z" style="fill:#FF2E93;"/>
			<path d="M452.8,347.4h27.1c1.2,0,2.2,1,2.2,2.2c0,1.2-1,2.2-2.2,2.2h-29.6C451,350.2,451.8,348.7,452.8,347.4
				L452.8,347.4z" style="fill:#142664;"/>
			<path d="M462.4,339h25.2c1.2,0,2.2,1,2.2,2.2c0,1.2-1,2.2-2.2,2.2h-31.3C458.1,341.6,460.2,340.1,462.4,339z" style="fill:#142664;"/>
			<path d="M532,355.5h35.4v-22.2h-9c-2.7,0-5.2,1.1-7.1,2.9C545.2,342.2,532,355.5,532,355.5z" style="fill:#142664;"/>
			<path d="M427.7,335.2c0-2.4-2-4.4-4.4-4.4c-9.3,0-30.8,0-40.1,0c-2.4,0-4.4,2-4.4,4.4c0,3.7,0,8.5,0,8.5h49V335.2z" style="fill:#FF2E93;"/>
			<path d="M392.9,334.5c0-0.2-0.1-0.5-0.3-0.6c-0.2-0.2-0.4-0.3-0.6-0.3c-1.6,0-5.2,0-7.7,0c-0.7,0-1.5,0.3-2,0.8
				c-0.5,0.5-0.8,1.2-0.8,2c0,1.6,0,3.5,0,4.6c0,0.2,0.1,0.5,0.3,0.6s0.4,0.3,0.6,0.3c2.1,0,7.4,0,9.6,0c0.2,0,0.5-0.1,0.6-0.3
				c0.2-0.2,0.3-0.4,0.3-0.6C392.9,339.3,392.9,336.1,392.9,334.5z" style="fill:#142664;"/>
			<path d="M296.3,408.7v15.1c0,1.2-1,2.2-2.2,2.2s-2.2-1-2.2-2.2v-17.2c0-1.2,1-2.2,2.2-2.2h36.9c1.2,0,2.2,1,2.2,2.2
				v17.2c0,1.2-1,2.2-2.2,2.2c-1.2,0-2.2-1-2.2-2.2v-15.1H296.3z" style="fill:#00E6B3;"/>
			<path d="M309.6,419.6h6c1.2,0,2.2-1,2.2-2.2s-1-2.2-2.2-2.2h-6c-1.2,0-2.2,1-2.2,2.2S308.4,419.6,309.6,419.6z" style="fill:#00E6B3;"/>
			<circle cx="347" cy="399.4" r="4.1" style="fill:#FF2E93;"/>
			<circle cx="361.8" cy="399.4" r="4.1" style="fill:#FF2E93;"/>
			<circle cx="376.7" cy="399.4" r="4.1" style="fill:#FF2E93;"/>
			<path d="M382.2,354.6v-5c0-0.1,0-0.1,0-0.2c0,0,0.2-2.4,1.4-4.5c0.6-1,1.9-1.4,3-0.8c1,0.6,1.4,1.9,0.8,3
				c-0.6,1.1-0.8,2.3-0.8,2.6v5.8c0,0.6-0.2,1.1-0.6,1.5l-3.7,3.7H398c0.9,0,1.7,0.5,2,1.3c0.3,0.8,0.1,1.7-0.5,2.4l-12.2,12.2
				c-0.4,0.4-1,0.6-1.5,0.6h-24.2c-1.2,0-2.2-1-2.2-2.2s1-2.2,2.2-2.2h23.3l7.9-7.9H377c-0.9,0-1.7-0.5-2-1.3
				c-0.3-0.8-0.2-1.7,0.5-2.4L382.2,354.6L382.2,354.6z" style="fill:#00E6B3;"/>
			<path d="M301.9,390.4l15.4-15.4c0.8-0.8,2.2-0.8,3.1,0c0.8,0.8,0.8,2.2,0,3.1l-16.1,16.1c-0.4,0.4-1,0.6-1.5,0.6
				h-18.7l-9.5,8.6c-0.9,0.8-2.3,0.7-3.1-0.1c-0.8-0.9-0.7-2.3,0.1-3.1l10.1-9.2c0.4-0.4,0.9-0.6,1.5-0.6H301.9z" style="fill:#00E6B3;"/>
			<path d="M546.9,355.5c1.9,0,3.8-0.8,5.1-2.1c1.4-1.4,2.1-3.2,2.1-5.1c0-3,0-6.4,0-9.3c0-3.1,2.6-5.7,5.7-5.7
				c9.7,0,29.4,0,39.2,0c3.1,0,5.7,2.6,5.7,5.7c0,3.5,0,8,0,11.4c0,3.3,1.3,6.4,3.6,8.7c6.5,6.5,19.9,19.9,26.4,26.4
				c2.3,2.3,3.6,5.5,3.6,8.7c0,7.1,0,20,0,27.1c0,3.3-1.3,6.4-3.6,8.7c-5,5-13.9,13.9-18.8,18.8c-2.3,2.3-5.5,3.6-8.7,3.6
				c-13.2,0-48.4,0-61.7,0c-3.3,0-6.4-1.3-8.7-3.6c-2.1-2.1-4.8-4.8-6.9-6.9c-2.3-2.3-5.5-3.6-8.7-3.6c-3.3,0-7.7,0-11,0
				c-3.3,0-6.4,1.3-8.7,3.6c-2.1,2.1-4.8,4.8-6.9,6.9c-2.3,2.3-5.5,3.6-8.7,3.6h-61.7c-3.3,0-6.4-1.3-8.7-3.6
				c-5-5-13.9-13.9-18.8-18.8c-2.3-2.3-3.6-5.5-3.6-8.7c0-7.1,0-20,0-27.1c0-3.3,1.3-6.4,3.6-8.7c6.5-6.5,19.9-19.9,26.4-26.4
				c2.3-2.3,5.5-3.6,8.7-3.6H546.9L546.9,355.5z" style="fill:#00E6B3;"/>
			<path d="M586.4,434.5c-17.8-1.3-31.8-16.1-31.8-34.2c0-18.1,14-32.9,31.8-34.2V366h21.1v68.5h-16.1
				c-0.8,0.1-1.7,0.1-2.5,0.1C588.1,434.6,587.2,434.5,586.4,434.5L586.4,434.5L586.4,434.5z" style="fill:#142664;"/>
			<path d="M623.9,376.5v47.6" style="fill:none;stroke:#142664;stroke-width:4;stroke-linecap:round;stroke-linejoin:round;stroke-miterlimit:1.5;"/>
			<path d="M438.1,429.6c-1,0-2-0.4-2.7-1.1c-2.8-2.8-10.3-10.3-13.2-13.2c-0.7-0.7-1.1-1.7-1.1-2.7c0-5,0-20.2,0-25.2
				c0-1,0.4-2,1.1-2.7c3.5-3.5,14.3-14.3,14.3-14.3h14.8l-15.4,15.4v28.3l15.4,15.4L438.1,429.6L438.1,429.6z" style="fill:#142664;"/>
			<path d="M494.3,429.6c1,0,2-0.4,2.7-1.1c2.8-2.8,10.3-10.3,13.2-13.2c0.7-0.7,1.1-1.7,1.1-2.7c0-5,0-20.2,0-25.2
				c0-1-0.4-2-1.1-2.7c-3.5-3.5-14.3-14.3-14.3-14.3h-44.5l-15.4,15.4v28.3l15.4,15.4L494.3,429.6L494.3,429.6z" style="fill:#FFFFFF;"/>
			<path d="M485.8,410c0.6-0.7,1-1.6,1-2.6c0-3.5,0-11.4,0-14.9c0-1.1-0.4-2.1-1.2-2.8c-2.9-2.6-9.7-8.8-9.7-8.8h12
				c0.9,0,1.9,0.4,2.5,1c2,1.9,6.4,5.8,8.6,7.8c0.8,0.7,1.2,1.7,1.2,2.8c0,3.5,0,11.4,0,14.9c0,1.1-0.4,2.1-1.2,2.8
				c-2.2,2-6.5,5.9-8.6,7.8c-0.7,0.6-1.6,1-2.5,1h-12L485.8,410L485.8,410z" style="fill:#142664;"/>
			<path d="M474.4,419.1c0.9,0,1.9-0.4,2.5-1c2-1.9,6.4-5.8,8.6-7.8c0.8-0.7,1.2-1.7,1.2-2.8c0-3.5,0-11.4,0-14.9
				c0-1.1-0.5-2.1-1.2-2.8c-2.9-2.6-9.7-8.8-9.7-8.8h-18l-10.9,9.9v18.3l10.9,9.9L474.4,419.1L474.4,419.1z" style="fill:#FF2E93;"/>
			<path d="M439.2,349.1c0-3-2.4-5.4-5.4-5.4h-23.5c-1.4,0-2.8,0.6-3.8,1.6s-1.6,2.4-1.6,3.8v6.4h34.3V349.1
				L439.2,349.1z" style="fill:#00E6B3;"/>
			<path d="M439.6,441.6v8.7c0,1.2-1,2.2-2.2,2.2c-1.2,0-2.2-1-2.2-2.2v-10.9c0-1.2,1-2.2,2.2-2.2H465
				c1.2,0,2.2,1,2.2,2.2v10.9c0,1.2-1,2.2-2.2,2.2c-1.2,0-2.2-1-2.2-2.2v-8.7H439.6z" style="fill:#142664;"/>
			<path d="M471.2,355.5c3.1-11.2,13.4-19.4,25.6-19.4c12.2,0,22.5,8.2,25.6,19.4H471.2z" style="fill:#142664;"/>
			<path d="M487.1,355.5c1.2-4.2,5.1-7.4,9.7-7.4c4.6,0,8.5,3.1,9.7,7.4H487.1z" style="fill:#FF2E93;"/>
			<circle cx="570.1" cy="347.5" r="5.3" style="fill:#FFFFFF;"/>
			<circle cx="588.7" cy="347.5" r="5.3" style="fill:#142664;"/>
			<circle cx="478.4" cy="441" r="3.6" style="fill:#142664;"/>
			<path d="M535.8,374.6h-20.1c-1.2,0-2.2-1-2.2-2.2v-16.9c0-1.2,1-2.2,2.2-2.2c1.2,0,2.2,1,2.2,2.2v14.8h18.9
				c0.6,0,1.1,0.2,1.5,0.6l19.1,19.1c0.8,0.8,0.8,2.2,0,3.1c-0.8,0.8-2.2,0.8-3.1,0L535.8,374.6z" style="fill:#142664;"/>
			<path d="M546.6,428.9l19.9,19.9c0.8,0.8,0.8,2.2,0,3.1c-0.8,0.8-2.2,0.8-3.1,0l-20.5-20.5c-0.4-0.4-0.6-1-0.6-1.5
				v-23.6c0-1.2,1-2.2,2.2-2.2h10.7c1.2,0,2.2,1,2.2,2.2c0,1.2-1,2.2-2.2,2.2h-8.5L546.6,428.9L546.6,428.9z" style="fill:#142664;"/>
			<path d="M573.8,445.4c0.5-1.8,2.2-3.2,4.2-3.2c2,0,3.7,1.3,4.2,3.2v7.1h-8.4L573.8,445.4L573.8,445.4z" style="fill:#142664;"/>
			<path d="M587.2,445.4c0.5-1.8,2.2-3.2,4.2-3.2c2,0,3.7,1.3,4.2,3.2v7.1h-8.4L587.2,445.4L587.2,445.4L587.2,445.4z" style="fill:#142664;"/>
			<path d="M600.7,445.4c0.5-1.8,2.2-3.2,4.2-3.2c2,0,3.7,1.3,4.2,3.2v7.1h-8.4L600.7,445.4L600.7,445.4L600.7,445.4z" style="fill:#142664;"/>
			<path d="M417.4,423.9L402,439.3c-0.8,0.8-2.2,0.8-3.1,0c-0.8-0.8-0.8-2.2,0-3.1l16-16c0.4-0.4,1-0.6,1.5-0.6H433
				c1.2,0,2.2,1,2.2,2.2s-1,2.2-2.2,2.2H417.4z" style="fill:#142664;"/>
			<circle cx="607.6" cy="400.3" r="34.3" style="fill:#FFFFFF;"/>
			<path d="M623.9,424.1h-11.2c-0.6,0-1.2,0.1-1.7,0.1c-0.6,0-1.2,0-1.7-0.1l0,0l0,0c-12.3-0.9-22.1-11.2-22.1-23.8
				s9.8-22.9,22.1-23.8v-0.1h14.7V424.1L623.9,424.1z" style="fill:#142664;"/>
			<circle cx="623.9" cy="400.3" r="23.8" style="fill:#FFFFFF;"/>
			<circle cx="623.9" cy="400.3" r="13.3" style="fill:#FF2E93;"/>
			<g>
				<path d="M340.7,374.4c0.5-1.5,1.7-3,2.9-4.2c1.6-1.6,9,1.3,9,1.3s5.1-6.9,9.2-6.9c4.1,0,4.7,2.6,4.7,4.4l0,0
					c0,0.1,0,0.2,0,0.3c0,1.5,0,0.4,0,1.3c0,0.5-0.2,1-0.6,1.4c-1.6,1.6-6,6-7.6,7.6c-0.4,0.4-0.9,0.6-1.4,0.6c-2.6,0-10.8,0-14.6,0
					c-1.1,0-2-0.9-2-2c0-1.6,0-1.3,0-2.9C340.4,375,340.5,374.7,340.7,374.4L340.7,374.4z" style="fill:#FFFFFF;"/>
				<path d="M364.6,367.4c0.5-0.5,0.6-1.1,0.3-1.7c-0.2-0.6-0.8-1-1.5-1c-4.5,0-11.5,0-13.7,0c-0.4,0-0.8,0.2-1.1,0.5
					c-1.1,1.1-3.8,3.8-5.9,5.9c-0.5,0.5-0.6,1.1-0.3,1.7c0.2,0.6,0.8,1,1.5,1c4.5,0,11.5,0,13.7,0c0.4,0,0.8-0.2,1.1-0.5
					C359.7,372.2,362.5,369.5,364.6,367.4L364.6,367.4z" style="fill:#FF2E93;"/>
			</g>
			<g>
				<path d="M306.3,374.4c0.5-1.5,1.7-3,2.9-4.2c1.6-1.6,9,1.3,9,1.3s5.1-6.9,9.2-6.9c4.1,0,4.7,2.6,4.7,4.4l0,0
					c0,0.1,0,0.2,0,0.3c0,1.5,0,0.4,0,1.3c0,0.5-0.2,1-0.6,1.4c-1.6,1.6-6,6-7.6,7.6c-0.4,0.4-0.9,0.6-1.4,0.6c-2.6,0-10.8,0-14.6,0
					c-1.1,0-2-0.9-2-2c0-1.6,0-1.3,0-2.9C306.1,375,306.2,374.7,306.3,374.4L306.3,374.4z" style="fill:#FFFFFF;"/>
				<path d="M330.3,367.4c0.5-0.5,0.6-1.1,0.3-1.7c-0.2-0.6-0.8-1-1.5-1c-4.5,0-11.5,0-13.7,0c-0.4,0-0.8,0.2-1.1,0.5
					c-1.1,1.1-3.8,3.8-5.9,5.9c-0.5,0.5-0.6,1.1-0.3,1.7c0.2,0.6,0.8,1,1.5,1c4.5,0,11.5,0,13.7,0c0.4,0,0.8-0.2,1.1-0.5
					C325.4,372.2,328.2,369.5,330.3,367.4L330.3,367.4z" style="fill:#00E6B3;"/>
			</g>
			<path d="M385.8,377.3h28.8c1.2,0,2.2-1,2.2-2.2s-1-2.2-2.2-2.2h-28.8c-1.2,0-2.2,1-2.2,2.2S384.6,377.3,385.8,377.3z
				" style="fill:#00E6B3;"/>
			<path d="M407.4,378.7l14.9,14.9c0.8,0.8,2.2,0.8,3.1,0c0.8-0.8,0.8-2.2,0-3.1l-14.9-14.9c-0.8-0.8-2.2-0.8-3.1,0
				C406.6,376.5,406.6,377.8,407.4,378.7z" style="fill:#142664;"/>
			<path d="M357.6,414.5h18.7v131.2c0,58.9,34.9,85.7,76.4,85.7s76.4-26.9,76.4-85.7v-93.1h18.7v93.1
				c0,52.5-42.6,95.1-95.1,95.1s-95.1-42.6-95.1-95.1V414.5L357.6,414.5z" style="fill:#142664;"/>
			<path d="M379.1,598.9c0.9,1.2,1.8,2.4,2.7,3.6c0.8,0.9,2.1,1,3.1,0.3c0.9-0.8,1-2.1,0.3-3.1c-0.9-1-1.7-2.2-2.5-3.3
				c-0.7-1-2.1-1.2-3-0.5C378.6,596.6,378.4,598,379.1,598.9z M372.2,587.6c0.6,1.1,1.3,2.4,2.1,3.9c0.6,1,1.9,1.4,3,0.8
				c1-0.6,1.4-1.9,0.8-3c-0.8-1.4-1.5-2.7-2.1-3.7c-0.6-1.1-1.9-1.5-2.9-0.9C372,585.2,371.6,586.6,372.2,587.6L372.2,587.6z
				 M367.7,574.9c0.4,1.4,0.8,2.8,1.2,4.2c0.3,1.1,1.5,1.8,2.7,1.5c1.1-0.3,1.8-1.5,1.5-2.7c-0.4-1.4-0.8-2.7-1.1-4.1
				c-0.3-1.2-1.5-1.8-2.6-1.5C368.1,572.6,367.4,573.8,367.7,574.9z M365.2,561.9c0.2,1.5,0.4,2.9,0.7,4.4c0.2,1.2,1.3,2,2.5,1.8
				c1.2-0.2,2-1.3,1.8-2.5c-0.2-1.4-0.5-2.8-0.6-4.2c-0.2-1.2-1.2-2-2.4-1.9C365.8,559.6,365,560.7,365.2,561.9L365.2,561.9z
				 M364.4,548.7v1.3c0,1.1,0,2.1,0.1,3.1c0,1.2,1,2.1,2.2,2.1c1.2,0,2.1-1,2.1-2.2c0-1,0-2,0-3v-1.3c0-1.2-1-2.2-2.2-2.2
				C365.4,546.5,364.4,547.5,364.4,548.7L364.4,548.7z M364.4,535.7v4.3c0,1.2,1,2.2,2.2,2.2c1.2,0,2.2-1,2.2-2.2v-4.3
				c0-1.2-1-2.2-2.2-2.2C365.4,533.5,364.4,534.5,364.4,535.7z M364.4,522.7v4.3c0,1.2,1,2.2,2.2,2.2c1.2,0,2.2-1,2.2-2.2v-4.3
				c0-1.2-1-2.2-2.2-2.2C365.4,520.5,364.4,521.5,364.4,522.7z M364.4,509.7v4.3c0,1.2,1,2.2,2.2,2.2c1.2,0,2.2-1,2.2-2.2v-4.3
				c0-1.2-1-2.2-2.2-2.2C365.4,507.5,364.4,508.5,364.4,509.7z M364.4,496.7v4.3c0,1.2,1,2.2,2.2,2.2c1.2,0,2.2-1,2.2-2.2v-4.3
				c0-1.2-1-2.2-2.2-2.2C365.4,494.6,364.4,495.5,364.4,496.7z M364.4,483.7v4.3c0,1.2,1,2.2,2.2,2.2c1.2,0,2.2-1,2.2-2.2v-4.3
				c0-1.2-1-2.2-2.2-2.2C365.4,481.6,364.4,482.5,364.4,483.7z M364.4,470.7v4.3c0,1.2,1,2.2,2.2,2.2c1.2,0,2.2-1,2.2-2.2v-4.3
				c0-1.2-1-2.2-2.2-2.2C365.4,468.6,364.4,469.6,364.4,470.7z M364.4,457.8v4.3c0,1.2,1,2.2,2.2,2.2c1.2,0,2.2-1,2.2-2.2v-4.3
				c0-1.2-1-2.2-2.2-2.2C365.4,455.6,364.4,456.6,364.4,457.8z M364.4,444.8v4.3c0,1.2,1,2.2,2.2,2.2c1.2,0,2.2-1,2.2-2.2v-4.3
				c0-1.2-1-2.2-2.2-2.2C365.4,442.6,364.4,443.6,364.4,444.8z M364.4,431.8v4.3c0,1.2,1,2.2,2.2,2.2c1.2,0,2.2-1,2.2-2.2v-4.3
				c0-1.2-1-2.2-2.2-2.2C365.4,429.6,364.4,430.6,364.4,431.8z M364.4,418.8v4.3c0,1.2,1,2.2,2.2,2.2c1.2,0,2.2-1,2.2-2.2v-4.3
				c0-1.2-1-2.2-2.2-2.2C365.4,416.6,364.4,417.6,364.4,418.8z" style="fill:#FF2E93;"/>
			<path d="M516.1,605.5c-0.9,1.1-1.9,2.1-2.8,2.9c-0.9,0.8-1,2.1-0.2,3.1c0.8,0.9,2.1,1,3.1,0.2
				c1.1-0.9,2.2-2.1,3.3-3.3c0.8-0.9,0.7-2.3-0.2-3.1C518.2,604.5,516.9,604.6,516.1,605.5z M523.4,595.2c-0.6,1-1.4,2.2-2.3,3.6
				c-0.7,1-0.4,2.3,0.6,3c1,0.7,2.3,0.4,3-0.6c0.9-1.4,1.7-2.7,2.4-3.7c0.6-1,0.3-2.4-0.7-3C525.4,593.9,524,594.2,523.4,595.2
				L523.4,595.2z M529,583.9c-0.5,1.3-1.1,2.6-1.7,3.9c-0.5,1.1,0,2.4,1.1,2.9c1.1,0.5,2.4,0,2.9-1.1c0.6-1.3,1.2-2.7,1.8-4.1
				c0.5-1.1-0.1-2.4-1.2-2.8C530.7,582.3,529.5,582.8,529,583.9z M533,571.9c-0.3,1.4-0.7,2.7-1.1,4.1c-0.3,1.1,0.3,2.4,1.4,2.7
				c1.1,0.3,2.4-0.3,2.7-1.4c0.4-1.4,0.8-2.8,1.2-4.3c0.3-1.2-0.4-2.3-1.6-2.6C534.5,570,533.3,570.7,533,571.9L533,571.9z
				 M535.3,559.4c-0.2,1.4-0.3,2.8-0.6,4.2c-0.2,1.2,0.6,2.3,1.8,2.5c1.2,0.2,2.3-0.6,2.5-1.8c0.2-1.5,0.4-2.9,0.6-4.4
				c0.1-1.2-0.7-2.3-1.9-2.4C536.5,557.4,535.4,558.2,535.3,559.4L535.3,559.4z M535.9,546.7v2.2c0,0.7,0,1.4,0,2.1
				c0,1.2,0.9,2.2,2.1,2.2c1.2,0,2.2-0.9,2.2-2.1c0-0.7,0-1.5,0-2.2c0,0,0-0.8,0-2.2c0-1.2-1-2.2-2.2-2.2
				C536.8,544.5,535.9,545.5,535.9,546.7L535.9,546.7z M535.9,533.7v4.3c0,1.2,1,2.2,2.2,2.2c1.2,0,2.2-1,2.2-2.2v-4.3
				c0-1.2-1-2.2-2.2-2.2C536.8,531.5,535.9,532.5,535.9,533.7z M535.9,520.7v4.3c0,1.2,1,2.2,2.2,2.2c1.2,0,2.2-1,2.2-2.2v-4.3
				c0-1.2-1-2.2-2.2-2.2C536.8,518.5,535.9,519.5,535.9,520.7z M535.9,507.7v4.3c0,1.2,1,2.2,2.2,2.2c1.2,0,2.2-1,2.2-2.2v-4.3
				c0-1.2-1-2.2-2.2-2.2C536.8,505.6,535.9,506.5,535.9,507.7z M535.9,494.7v4.3c0,1.2,1,2.2,2.2,2.2c1.2,0,2.2-1,2.2-2.2v-4.3
				c0-1.2-1-2.2-2.2-2.2C536.8,492.6,535.9,493.5,535.9,494.7z M535.9,481.7v4.3c0,1.2,1,2.2,2.2,2.2c1.2,0,2.2-1,2.2-2.2v-4.3
				c0-1.2-1-2.2-2.2-2.2C536.8,479.6,535.9,480.5,535.9,481.7z M535.9,468.8v4.3c0,1.2,1,2.2,2.2,2.2c1.2,0,2.2-1,2.2-2.2v-4.3
				c0-1.2-1-2.2-2.2-2.2C536.8,466.6,535.9,467.6,535.9,468.8z M535.9,455.8v4.3c0,1.2,1,2.2,2.2,2.2c1.2,0,2.2-1,2.2-2.2v-4.3
				c0-1.2-1-2.2-2.2-2.2C536.8,453.6,535.9,454.6,535.9,455.8z" style="fill:#FF2E93;"/>
			<path d="M547.8,452.5h6.8v93.1c0,52.5-42.6,95.1-95.1,95.1c-1.1,0-2.3,0-3.4-0.1c50.9-1.8,91.7-43.7,91.7-95.1V452.5
				L547.8,452.5z M376.4,545.6V417.1c0-1.4,1.2-2.6,2.6-2.6c0.5,0,1.1,0,1.6,0c1.4,0,2.6,1.2,2.6,2.6v128.6c0,57.2,33,84.2,73,85.7
				c-1.1,0-2.3,0.1-3.4,0.1C411.2,631.4,376.4,604.5,376.4,545.6L376.4,545.6z" style="fill:#FF2E93;"/>
			<path d="M357.1,435.5v-18.7c0-1.2-1-2.2-2.2-2.2s-2.2,1-2.2,2.2v18.7c0,1.2,1,2.2,2.2,2.2S357.1,436.7,357.1,435.5z" style="fill:#FF2E93;"/>
			<path d="M651.2,384.4c0,0,5.2-1.3,12.2-3.1c3.7-1,7.9-2.1,12.1-3.2c2.4-0.7,4.9-1.4,7.2-2.1
				c9.2-2.8,16.8-5.3,16.8-5.3c0.8-0.2,1.3-1.1,1.1-2c-0.2-0.8-1.1-1.3-2-1.1c0,0-7.7,1.9-17,4.3c-2.4,0.6-4.8,1.3-7.3,2
				c-4.2,1.2-8.4,2.5-12,3.6c-6.9,2.1-12,3.8-12,3.8c-0.8,0.2-1.3,1.1-1.1,2S650.3,384.6,651.2,384.4z" style="fill:#FF2E93;"/>
			<path d="M644.5,378c0,0,2.3-1.2,5.3-2.9c1.6-0.9,3.4-1.9,5.2-3c1-0.6,2.1-1.3,3-2c3.8-2.6,6.9-4.9,6.9-4.9
				c0.7-0.5,1-1.5,0.5-2.2c-0.5-0.7-1.5-1-2.2-0.5c0,0-3.4,1.8-7.4,4.1c-1,0.6-2.1,1.2-3.1,1.8c-1.8,1.1-3.5,2.3-5,3.4
				c-2.9,2-4.9,3.5-4.9,3.5c-0.7,0.5-1,1.5-0.5,2.2C642.8,378.2,643.8,378.4,644.5,378L644.5,378z" style="fill:#FF2E93;"/>
			<path d="M665,434c0,0-2.1-1.5-4.9-3.5c-1.5-1.1-3.2-2.2-5-3.4c-1-0.7-2.1-1.3-3.1-1.8c-4-2.3-7.4-4.1-7.4-4.1
				c-0.7-0.5-1.7-0.2-2.2,0.5c-0.5,0.7-0.2,1.7,0.5,2.2c0,0,3.1,2.3,6.9,4.9c1,0.7,2,1.4,3,2c1.8,1.1,3.6,2.1,5.2,3
				c3,1.7,5.3,2.9,5.3,2.9c0.7,0.5,1.7,0.2,2.2-0.5C666,435.4,665.8,434.4,665,434L665,434z" style="fill:#FF2E93;"/>
			<path d="M699.5,429.9c0,0-5.1-1.7-12-3.8c-3.7-1.1-7.8-2.4-12-3.6c-2.4-0.7-4.9-1.4-7.3-2c-9.3-2.4-17-4.3-17-4.3
				c-0.8-0.2-1.7,0.3-2,1.1c-0.2,0.8,0.3,1.7,1.1,2c0,0,7.6,2.5,16.8,5.3c2.3,0.7,4.8,1.5,7.2,2.1c4.2,1.2,8.4,2.3,12.1,3.2
				c7,1.8,12.2,3.1,12.2,3.1c0.8,0.2,1.7-0.3,2-1.1C700.8,431,700.3,430.1,699.5,429.9L699.5,429.9z" style="fill:#FF2E93;"/>
			<path d="M471,409.1c0,0,0.9-0.6,2-1.5c0.6-0.5,1.3-1,1.9-1.6c0.4-0.4,0.7-0.8,1-1.1c1.2-1.5,2.2-2.8,2.2-2.8
				c0.6-0.6,0.6-1.6,0-2.3c-0.6-0.6-1.6-0.6-2.3,0c0,0-1.3,0.9-2.8,2.2c-0.4,0.3-0.8,0.6-1.1,1c-0.6,0.6-1.2,1.3-1.6,1.9
				c-0.9,1.2-1.5,2-1.5,2c-0.6,0.6-0.6,1.6,0,2.3C469.3,409.7,470.3,409.7,471,409.1L471,409.1z" style="fill:#FFFFFF;"/>
			<path d="M473,394.6c0,0,0.5-0.1,1.3-0.5c0.4-0.2,0.8-0.4,1.1-0.7c0.2-0.2,0.3-0.4,0.5-0.7c0.6-1,0.8-1.8,0.8-1.8
				c0.9-0.9,0.9-2.5,0-3.4s-2.5-0.9-3.4,0c0,0-0.8,0.2-1.8,0.8c-0.2,0.1-0.5,0.3-0.7,0.5c-0.3,0.3-0.5,0.8-0.7,1.1
				c-0.4,0.8-0.5,1.3-0.5,1.3c-0.9,0.9-0.9,2.5,0,3.4C470.5,395.6,472,395.6,473,394.6L473,394.6z" style="fill:#FFFFFF;"/>
			<path d="M457.9,409.7c0,0,1.3-0.8,2.9-2.1c0.8-0.7,1.8-1.4,2.7-2.3c0.5-0.5,1-1,1.4-1.6c1.7-2.1,3-4,3-4
				c0.9-0.9,0.9-2.5,0-3.4c-0.9-0.9-2.5-0.9-3.4,0c0,0-1.8,1.2-4,3c-0.5,0.4-1.1,0.9-1.6,1.4c-0.9,0.9-1.6,1.8-2.3,2.7
				c-1.3,1.6-2.1,2.9-2.1,2.9c-0.9,0.9-0.9,2.5,0,3.4C455.5,410.6,457,410.6,457.9,409.7L457.9,409.7z" style="fill:#FFFFFF;"/>
			<path d="M494.7,383.7l5.8-5.8c0.8-0.8,0.8-2.2,0-3.1c-0.8-0.8-2.2-0.8-3.1,0l-5.8,5.8c-0.8,0.8-0.8,2.2,0,3.1
				C492.5,384.5,493.9,384.5,494.7,383.7L494.7,383.7z" style="fill:#142664;"/>
			<path d="M500.8,389.7l5.8-5.8c0.8-0.8,0.8-2.2,0-3.1c-0.8-0.8-2.2-0.8-3.1,0l-5.8,5.8c-0.8,0.8-0.8,2.2,0,3.1
				C498.6,390.6,500,390.6,500.8,389.7L500.8,389.7z" style="fill:#142664;"/>
			<path d="M474.2,428.5v-8.2c0-1.2-1-2.2-2.2-2.2s-2.2,1-2.2,2.2v8.2c0,1.2,1,2.2,2.2,2.2S474.2,429.7,474.2,428.5z" style="fill:#142664;"/>
			<path d="M657.8,403.5H669c1.8,0,3.2-1.5,3.2-3.2s-1.5-3.2-3.2-3.2h-11.3c-1.8,0-3.2,1.5-3.2,3.2
				S656,403.5,657.8,403.5z" style="fill:#FF2E93;"/>
			<path d="M695.2,403.5h39c1.8,0,3.2-1.5,3.2-3.2s-1.5-3.2-3.2-3.2h-39c-1.8,0-3.2,1.5-3.2,3.2
				S693.5,403.5,695.2,403.5z" style="fill:#FF2E93;"/>
			<path d="M681.4,403.5h1.6c1.8,0,3.2-1.5,3.2-3.2s-1.5-3.2-3.2-3.2h-1.6c-1.8,0-3.2,1.5-3.2,3.2
				S679.6,403.5,681.4,403.5z" style="fill:#FF2E93;"/>
			<path d="M561.1,393.7h-3.3c-1.2,0-2.2-1-2.2-2.2c0-1.2,1-2.2,2.2-2.2h6c0.7,0,1.3,0.3,1.7,0.9s0.5,1.3,0.3,1.9
				c0,0-2.1,6.6,0,13.3c0.2,0.7,0.1,1.4-0.3,1.9c-0.4,0.6-1.1,0.9-1.7,0.9h-6.6c-1.2,0-2.2-1-2.2-2.2c0-1.2,1-2.2,2.2-2.2h3.8
				C560.4,399.9,560.7,396.1,561.1,393.7L561.1,393.7z" style="fill:#FF2E93;"/>
		</g>
	</g>
</g>
</svg>