<?xml version="1.0" encoding="UTF-8"?><svg version="1.1" id="Calque_1" xmlns:serif="http://www.serif.com/" xmlns="http://www.w3.org/2000/svg" xmlns:xlink="http://www.w3.org/1999/xlink" x="0px" y="0px" viewBox="0 0 800 800" style="enable-background:new 0 0 800 800;" xml:space="preserve" width="800px" height="800px">

<g id="Calque3">
	<rect x="290.8" y="52.3" width="93.6" height="17.7" style="fill:#142664;"/>
	<path d="M432.4,48.6c4.1,0,7.9,2.4,9.6,6.2c4.5,10.1,12.9,29,12.9,29h-39.4c-0.7,0-1.3-0.3-1.8-0.7
		c-3.5-3.5-18.9-18.8-28-27.8c-1.1-1.1-1.5-2.8-0.9-4.3c0.6-1.5,2.1-2.4,3.7-2.4C388.4,48.6,418.5,48.6,432.4,48.6L432.4,48.6z" style="fill:#142664;"/>
	<path d="M372.7,51.5c-0.3-0.6-0.2-1.4,0.1-2c0.4-0.6,1-0.9,1.7-0.9c7.8,0,27.3,0,27.3,0c4.1,0,7.9,2.4,9.6,6.2
		c4.5,10.1,12.9,29,12.9,29H258.1l-17.8-17.6c-0.7-0.7-1.7-1.1-2.8-1.1c0,0-24.1,0-32.6,0c-1.9,0-3.7-0.7-5-2.1
		c-2.9-2.9-7.7-7.7-7.7-7.7c-1.1-1.1-1.5-2.8-0.9-4.3c0.6-1.5,2.1-2.4,3.7-2.4h92.9c0.8,0,1.5,0.5,1.9,1.2c1.2,2.7,4.1,9.1,5.3,11.8
		c0.3,0.7,1.1,1.2,1.9,1.2c2.9,0,9.9,0,14.1,0c0.7,0,1.3-0.4,1.7-0.9c0.4-0.6,0.4-1.3,0.1-2c-1.1-2.5-2.7-6-3.8-8.4
		c-0.3-0.6-0.2-1.4,0.1-2c0.4-0.6,1-0.9,1.7-0.9c2.8,0,6.7,0,8.8,0c0.8,0,1.5,0.5,1.9,1.2c1.2,2.7,4.1,9.1,5.3,11.8
		c0.3,0.7,1.1,1.2,1.9,1.2c2.9,0,9.9,0,14.1,0c0.7,0,1.3-0.4,1.7-0.9c0.4-0.6,0.4-1.3,0.1-2c-1.1-2.5-2.7-6-3.8-8.4
		c-0.3-0.6-0.2-1.4,0.1-2c0.4-0.6,1-0.9,1.7-0.9c2.8,0,6.7,0,8.8,0c0.8,0,1.5,0.5,1.9,1.2c1.2,2.7,4.1,9.1,5.3,11.8
		c0.3,0.7,1.1,1.2,1.9,1.2c2.9,0,9.9,0,14.1,0c0.7,0,1.3-0.4,1.7-0.9c0.4-0.6,0.4-1.3,0.1-2C375.4,57.5,373.8,54,372.7,51.5
		L372.7,51.5z" style="fill:#FF2E93;"/>
	<path d="M493.7,285.2h25.6c0,0,13.9,13.8,23,22.8c1.3,1.3,1.7,3.2,1,4.8c-0.7,1.7-2.3,2.7-4.1,2.7h-13.9
		c-0.7,0-1.3-0.3-1.8-0.7C518.9,310.3,493.7,285.2,493.7,285.2L493.7,285.2z" style="fill:#142664;"/>
	<path d="M424.2,285.2h84.2c0,0,13.9,13.8,23,22.8c1.3,1.3,1.7,3.2,1,4.8c-0.7,1.7-2.3,2.7-4.1,2.7
		c-20.1,0-62.3,0-71.6,0c-1.2,0-2.3-0.5-3.1-1.3C447.7,308.5,424.2,285.2,424.2,285.2L424.2,285.2z" style="fill:#FF2E93;"/>
	<rect x="314.9" y="285.2" width="181.6" height="463.7" style="fill:#00E6B3;"/>
	<path d="M405.5,285.2h-21.1c0,0-17.9,17.7-26.3,26.1c-0.7,0.7-0.9,1.8-0.6,2.7c0.4,0.9,1.3,1.6,2.3,1.6
		c4,0,9.1,0,12.2,0c1.8,0,3.5-0.7,4.8-2C383.7,306.9,405.5,285.2,405.5,285.2L405.5,285.2z" style="fill:#142664;"/>
	<path d="M283.7,172.7c0,0-25.5,25.5-45.1,45.1c-5.9,5.9-9.2,13.8-9.2,22.1c0,8.3,3.3,16.3,9.2,22.1
		c1.3,1.3,2.6,2.6,3.9,3.9c5.9,5.9,13.8,9.2,22.1,9.2c8.3,0,16.3-3.3,22.1-9.2c19.6-19.6,45.1-45.1,45.1-45.1L283.7,172.7
		L283.7,172.7z" style="fill:#142664;"/>
	<path d="M165.3,99.8v57.3h51.8l32.9-32.9V99.8H165.3z" style="fill:#142664;"/>
	<g>
		<path d="M133.3,224.7c-5.8,0-11.2-2.2-15.3-6.3c-4.1-4.1-6.3-9.5-6.3-15.3s2.2-11.2,6.3-15.3l14.9-14.9
			c0,0,0.1-0.1,0.1-0.1c1.7-1.7,2.6-4,2.6-6.4v-39.7c0-8.1,6.6-14.7,14.7-14.7h8.1c1.5,0,2.7,1.2,2.7,2.7c0,1.5-1.2,2.7-2.7,2.7
			h-8.1c-5.1,0-9.2,4.1-9.2,9.2v39.7c0,3.9-1.5,7.6-4.3,10.4c0,0-0.1,0.1-0.2,0.1l-14.7,14.7c-3.1,3.1-4.7,7.1-4.7,11.4
			c0,4.3,1.7,8.4,4.7,11.4c3.1,3.1,7.1,4.7,11.4,4.7c4.3,0,8.4-1.7,11.4-4.7l22-22c1.1-1.1,2.8-1.1,3.8,0c1.1,1.1,1.1,2.8,0,3.8
			l-22,22C144.5,222.4,139.1,224.7,133.3,224.7z" style="fill:#00E6B3;"/>
	</g>
	<g>
		<path d="M141.6,198.1c-3.4,0-6.7-1.3-9.3-3.8l-17.1-17.1c-6.8-6.8-8.8-16.9-5.1-25.8c3.7-8.9,12.3-14.6,21.9-14.6h27
			c1.5,0,2.7,1.2,2.7,2.7s-1.2,2.7-2.7,2.7h-27c-7.4,0-14,4.4-16.9,11.3c-2.8,6.8-1.3,14.7,4,19.9l17.1,17.1c3,3,7.9,3,10.9,0
			l9.5-9.5c1.1-1.1,2.8-1.1,3.8,0c1.1,1.1,1.1,2.8,0,3.8l-9.5,9.5C148.3,196.8,144.9,198.1,141.6,198.1z" style="fill:#142664;"/>
	</g>
	<path d="M596.6,127.7c2.9,0,5.6,1.7,6.8,4.4c5.5,12.4,20.9,47.1,24.3,54.9c0.5,1,1.1,1.9,2,2.7
		c5.2,4.4,24.8,20.9,31.9,26.9c1.7,1.4,2.7,3.5,2.7,5.7v29.8c0,2-0.8,3.9-2.2,5.3c-5.6,5.6-20.2,20.2-25.7,25.7
		c-1.4,1.4-3.3,2.2-5.3,2.2c-26.5,0-214.8,0-214.8,0L289.6,76.1h233.5l23.3,51.6H596.6L596.6,127.7z" style="fill:#142664;"/>
	<path d="M240.8,232.9c-1.9,1.9-5,1.9-6.9,0c-1.7-1.7-3.6-3.6-4.9-4.9c-0.9-0.9-2.1-1.4-3.4-1.4c-6.2,0-25.2,0-31.4,0
		c-1.3,0-2.5-0.5-3.4-1.4c-6.7-6.7-34.9-34.9-41.5-41.5c-0.9-0.9-1.4-2.1-1.4-3.4c0-4.3,0-14.5,0-20.6c0-2.7,2.2-4.8,4.8-4.8h60.1
		c1.3,0,2.5-0.5,3.4-1.4c5.4-5.4,24.7-24.7,30.1-30.1c0.9-0.9,1.4-2.1,1.4-3.4c0-3.2,0-9.7,0-14.1c0-2.7-2.2-4.8-4.8-4.8
		c-19,0-88,0-100.7,0c-1.3,0-2.5-0.5-3.4-1.4c-2.9-2.9-9.6-9.6-15.1-15.1c-1.4-1.4-1.8-3.5-1.1-5.3c0.8-1.8,2.5-3,4.5-3
		c39.5,0,166.9,0,188.5,0c1.9,0,3.6,1.1,4.4,2.9c4.1,9,16.7,36.9,20.8,45.9c0.8,1.7,2.5,2.9,4.4,2.9c9.8,0,40,0,49.9,0
		c1.9,0,3.7,1.1,4.4,2.9c4.9,11,22.2,50.2,25.3,57c0.3,0.7,0.7,1.3,1.3,1.7c4.6,3.9,26.9,22.7,33.3,28.1c1.1,0.9,1.7,2.3,1.7,3.7
		c0,6.6,0,25.8,0,32c0,1.3-0.5,2.5-1.4,3.4c-5.1,5.1-22.2,22.2-27.3,27.3c-0.9,0.9-2.1,1.4-3.4,1.4c-16.1,0-124.6,0-140.8,0
		c-1.3,0-2.5-0.5-3.4-1.4c-2.9-2.9-9.4-9.4-13.4-13.4c-1.9-1.9-1.9-5,0-6.9c5.5-5.5,15.6-15.6,15.6-15.6c3.2-3.2,3.2-8.5,0-11.8
		s-8.5-3.2-11.8,0c0,0-10.1,10.1-15.6,15.6c-1.9,1.9-5,1.9-6.9,0c-0.1-0.1-0.2-0.2-0.2-0.2c-1.9-1.9-1.9-5,0-6.9
		c5.5-5.5,15.6-15.6,15.6-15.6c3.2-3.2,3.2-8.5,0-11.8s-8.5-3.2-11.8,0C256.5,217.3,246.3,227.4,240.8,232.9L240.8,232.9z" style="fill:#FF2E93;"/>
	<path d="M390.4,612.8l0.6,75.7c-0.4,2.3,1.2,4.4,3.5,4.8c2.3,0.4,4.4-1.2,4.8-3.5c0,0,3-9.7,5.5-30.8
		c1.4-11.8,2.1-27.2,2.7-46.3c0-4.7-3.8-8.6-8.6-8.6C394.2,604.2,390.4,608.1,390.4,612.8z" style="fill:#142664;"/>
	<path d="M390.4,623.2c0,0,16.8,0.1,16.7,0c0,0-0.2,4.6-0.2,4.6l-16.4,0C390.5,627.8,390.3,624.7,390.4,623.2
		L390.4,623.2z" style="fill:#00E6B3;"/>
	<path d="M413.7,612.8l0.6,75.7c-0.4,2.3,1.2,4.4,3.5,4.8c2.3,0.4,4.4-1.2,4.8-3.5c0,0,3-9.7,5.5-30.8
		c1.4-11.8,2.1-27.2,2.7-46.3c0-4.7-3.8-8.6-8.6-8.6C417.5,604.2,413.7,608.1,413.7,612.8z" style="fill:#142664;"/>
	<path d="M430.4,534.1c-0.5,26.8,5,50.8,5,50.8l11.1-2c0,0-5.5-19.2-4.9-47.3L430.4,534.1L430.4,534.1z" style="fill:#FFFFFF;"/>
	<path d="M370.6,533.4c-3.7,13.2-2.5,48.9-2.5,48.9l11.3-0.4c0,0-1.4-33.1,2.1-45.4L370.6,533.4z" style="fill:#FFFFFF;"/>
	<path d="M419.9,502.8c5.6,0.5,10.9,2.8,15.1,7.9c4.2,5.1,8,13.3,9.9,25.7c0.1,0.8-0.4,1.6-1.2,1.7
		c-3,0.5-9.7,1.7-12.7,2.3c-0.2,0-0.4,0-0.6,0c0,0.1-0.1,0.3-0.1,0.4c-4.4,14.6-3.3,23.8-1.2,32.4c3.5,13.7,8,39.2,8.5,48.3
		c0,0.4-0.2,0.9-0.5,1.2c-0.3,0.3-0.7,0.5-1.2,0.5c-8.2,0-42.9,0-51.1,0c-0.5,0-0.9-0.2-1.2-0.5c-0.3-0.3-0.5-0.8-0.5-1.2
		c0.5-9.1,4-34.6,7.4-48.2c2.2-8.5,4.6-20.8,0-36c-1-3.3-1.4-6.4-1.3-9.2c-2.4,3-4.5,6.8-6.3,11.6c-0.3,0.9-1.3,1.4-2.1,1.1
		c-2.9-0.8-8.9-2.5-11.9-3.3c-0.5-0.1-0.8-0.4-1.1-0.8c-0.2-0.4-0.3-0.9-0.2-1.4c3.2-11.3,8.2-19.1,14.2-24.3
		c5.8-5.1,12.8-7.6,20.5-8.1C402.7,502.8,419.9,502.8,419.9,502.8L419.9,502.8z" style="fill:#142664;"/>
	<path d="M402,502.8c1.4-0.2,18.3-0.2,19.2,0c-1.7,9.1-8,42.6-8,42.6S405.5,512,402,502.8z" style="fill:#00E6B3;"/>
	<g>
		<path d="M387.3,599c-1,0-1.8-0.8-1.8-1.8v-3.4c0-2-0.4-3.4-1.1-4.1c-1.3-1.2-4.1-1.2-7.3-1.1c-1.6,0-3.3,0-4.9,0
			c-3.3-0.1-6.1-0.1-7.3,1.1c-0.8,0.7-1.1,2.1-1.1,4.1v3.4c0,1-0.8,1.8-1.8,1.8s-1.8-0.8-1.8-1.8v-3.4c0-3.1,0.7-5.3,2.2-6.7
			c2.4-2.3,6-2.2,9.9-2.2c1.5,0,3.2,0,4.8,0c3.9-0.1,7.6-0.2,10,2.2c1.5,1.5,2.2,3.7,2.2,6.7v3.4C389.1,598.2,388.3,599,387.3,599z" style="fill:#142664;"/>
	</g>
	<path d="M401.9,599.2c0-0.8-0.3-1.6-0.9-2.1s-1.3-0.9-2.1-0.9c-2,0-4.5,0-6.5,0c-0.8,0-1.6,0.3-2.1,0.9
		c-0.6,0.6-0.9,1.3-0.9,2.1c0,7.3,0,25.7,0,32.9c0,0.8,0.3,1.6,0.9,2.1s1.3,0.9,2.1,0.9c2,0,4.5,0,6.5,0c0.8,0,1.6-0.3,2.1-0.9
		c0.6-0.6,0.9-1.3,0.9-2.1C401.9,624.9,401.9,606.5,401.9,599.2z" style="fill:#FF2E93;"/>
	<path d="M379.3,581.2c0,5.6,4,12.1-3.3,12c-8.2-0.2-7.9,1.5-7.9-12C368.1,581.2,379.3,577.5,379.3,581.2z" style="fill:#FFFFFF;"/>
	<path d="M435.5,585c0.6,5.2,3,5.2,3.4,3.5c0.6-2.5,4.6-2.3,2.3,2.6c-1.7,3.5,8.1,7,5.4-8.2
		C446.6,582.9,439.1,578.1,435.5,585L435.5,585z" style="fill:#FFFFFF;"/>
	<path d="M430.6,529.4c0,1.2-0.2,2.5-0.4,3.8c-0.1,0.4-0.1,0.8-0.1,1.2c0,0.4-0.1,0.8-0.1,1.2c-0.1,0.9-0.2,1.7-0.5,2.6
		c-0.4,0.8,0,1.8,0.8,2.2c0.8,0.4,1.8,0,2.2-0.8c0.8-1.1,1.3-2.3,1.7-3.5c0.2-0.5,0.3-1.1,0.4-1.7c0.1-0.8,0.1-1.5,0-2.2
		c-0.1-1.1-0.3-2.2-0.6-3.2c-0.1-0.9-1-1.6-1.9-1.4C431.2,527.7,430.5,528.5,430.6,529.4L430.6,529.4z" style="fill:#00E6B3;"/>
	<path d="M387.7,530.3c0,0,0-0.1,0.1-0.1c0.3-0.5,0.6-0.9,0.9-1.3c0.8-1,1.6-1.8,2.5-2.7c0.6-0.7,1.6-0.8,2.3-0.3
		c0.7,0.6,0.8,1.6,0.3,2.3c-0.6,1-1,1.9-1.5,2.9c-0.2,0.4-0.4,0.8-0.6,1.2c-0.4,0.7-0.8,1.3-1.2,1.9c-0.1,0.2-0.2,0.3-0.3,0.5
		c-0.5-2.4-0.8-4.7-0.7-6.9C388.8,528.7,388.3,529.5,387.7,530.3L387.7,530.3z" style="fill:#00E6B3;"/>
	<path d="M400,521.6l-9.4-14.1c-0.4-0.6-0.3-1.3,0.3-1.7c0.6-0.4,1.3-0.3,1.7,0.3l11.1,15.2c0.3,0.4,0.4,0.9,0.2,1.3
		c-0.1,0.5-0.4,0.9-0.9,1.1l-2.3,1.2c1,1.4,2.5,3.6,4.2,6.1c2.8,4.1,5.9,8.9,7.8,11.6c0.6,0.8,1,1.4,1.2,1.8c0.1,0,0.2,0.1,0.1,0.2
		c0.3,0.3,0.4,0.7,0.3,1.1c-0.1,0.4-0.3,0.7-0.6,0.8c-0.2,0.1-0.8,0.5-1.5-0.2c-0.1,0-0.2-0.2-0.3-0.3c-0.3-0.3-0.8-1-1.5-1.9
		c-2-2.6-5.4-7.2-8.3-11.2c-2.9-4.1-5.4-7.6-5.4-7.6c-0.3-0.4-0.4-0.9-0.2-1.4c0.1-0.5,0.4-0.9,0.9-1.1L400,521.6L400,521.6z
		 M412.8,544.2c-0.3,0.1-0.6,0.3-0.7,0.7C412.2,544.5,412.5,544.3,412.8,544.2z M413.8,544.2c0.1,0.1,0.2,0.1,0.3,0.2c0,0,0,0.1,0,0
		l0,0c0,0,0,0,0,0c0,0,0,0,0,0l-0.1-0.1C413.9,544.2,413.8,544.2,413.8,544.2L413.8,544.2z M413.6,544.1c-0.2-0.1-0.4-0.1-0.6-0.1
		c0.1,0,0.3,0,0.4,0C413.5,544.1,413.6,544.1,413.6,544.1z" style="fill:#00E6B3;"/>
	<path d="M424,524.9l-1.3-0.7c-0.8-0.4-1.1-1.4-0.7-2.2l8-15.7c0.3-0.6,1-0.9,1.7-0.6c0.6,0.3,0.9,1,0.6,1.7l-6.6,14.5
		l1.6,0.8c0.4,0.2,0.7,0.6,0.9,1c0.1,0.5,0.1,0.9-0.2,1.3c0,0-2.1,3.5-4.7,7.6c-2.6,4-5.6,8.7-7.3,11.3c-0.6,0.9-1.1,1.6-1.3,1.9
		c-1,1.4-2.4-0.1-2.4-0.3c-0.1-0.4,0-0.8,0.3-1.1l0,0c0.2-0.3,0.6-1,1.1-1.9c1.6-2.7,4.4-7.4,6.8-11.5
		C421.7,528.5,423.1,526.3,424,524.9L424,524.9z" style="fill:#00E6B3;"/>
	<path d="M405.1,498.6c-3.9-4.6-6.1-12.6-6.1-20.9c0-8.5,6.9-15.4,15.4-15.4s15.9,6.9,15.4,15.4
		c-0.6,11.5-5.5,20-11.5,23.2v2.5c0,0.4-0.2,0.8-0.5,1.1c-0.3,0.3-0.7,0.5-1.1,0.5c-2.5,0-7.5,0-10.1,0c-0.4,0-0.8-0.2-1.1-0.5
		c-0.3-0.3-0.5-0.7-0.5-1.1L405.1,498.6L405.1,498.6z" style="fill:#FFFFFF;"/>
	<path d="M407.6,514.4c-0.2,0-0.4,0-0.7-0.1c-0.3-0.1-0.5-0.3-0.6-0.4c-0.5-0.4-0.5-0.9-0.5-1.3c0-0.2,0.1-1.1,1.4-1.5
		c0,0,0.1,0,0.2,0c0,0,0.1,0,0.1,0c0.2,0,0.5-0.1,0.9-0.1c0.7-0.1,1.6-0.3,2.7-0.4c0.6,0,1.2-0.1,1.8-0.1c0.8,0,1.6,0.1,2.2,0.2
		c1.3,0.2,2.2,0.4,2.2,0.4c0.9,0,1.7,0.8,1.7,1.7c0,0.9-0.8,1.7-1.7,1.7c0,0-0.9,0.2-2.2,0.4c-0.7,0.1-1.4,0.2-2.2,0.2
		c-0.6,0-1.2,0-1.8-0.1c-1.1-0.1-2-0.3-2.7-0.4c-0.3,0-0.5-0.1-0.7-0.2l0,0C407.8,514.4,407.7,514.4,407.6,514.4L407.6,514.4
		c0,0.2,0,0.3-0.1,0.5L407.6,514.4z" style="fill:#142664;"/>
	<path d="M423,477.6c0,0-0.2,0.4-0.4,1c-0.1,0.3-0.2,0.7-0.2,1c0,0.2,0,0.4,0.1,0.6c0.2,0.8,0.5,1.4,0.5,1.4
		c0,0.9,0.7,1.7,1.7,1.7s1.7-0.7,1.7-1.7c0,0,0.3-0.6,0.5-1.4c0-0.2,0.1-0.4,0.1-0.6c0-0.4-0.1-0.7-0.2-1c-0.2-0.6-0.4-1-0.4-1
		c0-0.9-0.7-1.7-1.7-1.7S423,476.7,423,477.6L423,477.6z" style="fill:#142664;"/>
	<path d="M421.3,487.2c0,0-0.4-0.2-1-0.4c-0.3-0.1-0.7-0.2-1-0.2c-0.2,0-0.4,0-0.6,0.1c-0.8,0.2-1.4,0.5-1.4,0.5
		c-0.9,0-1.7,0.7-1.7,1.7c0,0.9,0.7,1.7,1.7,1.7c0,0,0.6,0.3,1.4,0.5c0.2,0,0.4,0.1,0.6,0.1c0.4,0,0.7-0.1,1-0.2
		c0.6-0.2,1-0.4,1-0.4c0.9,0,1.7-0.7,1.7-1.7C423,487.9,422.2,487.2,421.3,487.2z" style="fill:#142664;"/>
	<path d="M411.5,477.6c0,0-0.2,0.4-0.4,1c-0.1,0.3-0.2,0.7-0.2,1c0,0.2,0,0.4,0.1,0.6c0.2,0.8,0.5,1.4,0.5,1.4
		c0,0.9,0.7,1.7,1.7,1.7s1.7-0.7,1.7-1.7c0,0,0.3-0.6,0.5-1.4c0-0.2,0.1-0.4,0.1-0.6c0-0.4-0.1-0.7-0.2-1c-0.2-0.6-0.4-1-0.4-1
		c0-0.9-0.7-1.7-1.7-1.7S411.5,476.7,411.5,477.6L411.5,477.6z" style="fill:#142664;"/>
	<path d="M404.5,497.7c-7.2-0.1-12.5-9.5-14-21.9c-1.5-12.5-1.3-19.1-1.3-25.7v0c0-2.5,0.1-4.9,0.1-7.3
		c0.3-9.3,0.7-23.8,0.7-23.8c0-1.3,1.1-2.4,2.4-2.4c1.3,0,2.4,1.1,2.4,2.4c0,0,0.2,2.8,0.3,7.1c0,0,0,0,0,0.1c0.2,4,6.2,4.4,6-1
		c0,0,0,0,0,0c-0.1-1.7,0-3.2,0.1-5.6c0.4-9.3,1-17,1-17c0-1.8,1.4-3.2,3.2-3.2c1.8,0,3.2,1.4,3.2,3.2c0,0,0.3,5.2,0.6,12.1
		c0.2,4,4.1,3.4,4.2,0.8l0.2-4.7c0-1.3,1.1-2.4,2.4-2.4c1.3,0,2.4,1.1,2.4,2.4c0,0,0.4,7.7,0.7,17c0,1.4,0.1,3.2,0.1,5.4v0
		c0,2.4,3.4,2.7,3.5,0.4l0.1-3.6c0-1.8,1.4-3.2,3.2-3.2c1.8,0,3.2,1.4,3.2,3.2c0,0,0.6,11.1,1,20.4c0.1,2.4,0.2,4.8,0.2,7.3
		c0,4.2-0.2,8.5-0.4,12.2c-0.2,3.5-0.4,6.6-0.5,8.8v0l0,0c0,0.1,0,0.3,0,0.4l0,0c0-0.5,0.1-0.9,0.1-1.4c0-3.6-1.2-6.9-3.3-9.6
		c-0.4-0.5-0.9-0.9-1.5-1.2c-2-0.9-4.7-1.5-8.5-1.6c-0.1,0-0.2,0-0.3,0c-6.2,0-10.8,2.6-9.9,8.5c0.1,0.4,0.1,0.8,0.1,1
		c0.1,2.2-4.2,3.4-4,1.5c0.2-1.9-2.8-1.5-3.4,1.8c0,0.3,0,0.6,0,0.9C399,486,404.5,489.6,404.5,497.7L404.5,497.7L404.5,497.7
		L404.5,497.7z" style="fill:#142664;"/>
	<path d="M462.9,470.2c0.2,0.3,0.3,0.6,0.3,1c-4,36-32.2,39.4-48.9,38.8c-0.7,0-1.3-0.6-1.3-1.4c0-0.5,0-1.1,0-1.6
		c0-0.7,0.6-1.3,1.3-1.4c13.4-1,32.5-8.8,31.9-35.5c0-0.4,0.1-0.7,0.4-1c1.3-1.4,5.7-6,7.8-8.2c0.3-0.3,0.7-0.5,1.1-0.4
		c0.4,0,0.8,0.2,1,0.6C458.1,463.5,461.8,468.7,462.9,470.2L462.9,470.2z" style="fill:#142664;"/>
	<path d="M412,545.3c0,0-0.2,8-0.3,18.7c-0.1,5.7-0.1,12.2-0.1,18.7c0,3.8,0,7.6,0.1,11.2c0.1,14.3,0.4,26.2,0.4,26.2
		c0,0.7,0.6,1.3,1.3,1.3s1.3-0.6,1.3-1.3c0,0,0.2-11.9,0.4-26.2c0-3.6,0.1-7.4,0.1-11.2c0-6.5-0.1-13-0.1-18.7
		c-0.1-10.7-0.3-18.7-0.3-18.7c0-0.7-0.6-1.3-1.3-1.3S412,544.6,412,545.3L412,545.3z" style="fill:#00E6B3;"/>
	<path d="M393.3,599.2c0-0.8-0.3-1.6-0.9-2.1s-1.3-0.9-2.1-0.9c-8.2,0-30.8,0-39,0c-0.8,0-1.6,0.3-2.1,0.9
		c-0.6,0.6-0.9,1.3-0.9,2.1c0,7.3,0,25.7,0,32.9c0,0.8,0.3,1.6,0.9,2.1c0.6,0.6,1.3,0.9,2.1,0.9c8.2,0,30.8,0,39,0
		c0.8,0,1.6-0.3,2.1-0.9c0.6-0.6,0.9-1.3,0.9-2.1C393.3,624.9,393.3,606.5,393.3,599.2z" style="fill:#142664;"/>
	<path d="M424.4,673.8c0.5,0,1,0.2,1.4,0.6c0.4,0.4,0.5,0.9,0.5,1.5c-2.5,22.2-7.5,22.8-9.9,22.4
		c-1.6-0.2-2.7-3.1-2.7-9.5c0-7.5-0.1-11.3-0.1-13.2c0-0.5,0.2-1,0.5-1.3c0.4-0.4,0.8-0.6,1.3-0.6
		C417.7,673.8,421.9,673.8,424.4,673.8z" style="fill:#FFFFFF;"/>
	<path d="M401.1,673.8c0.5,0,1,0.2,1.4,0.6c0.4,0.4,0.5,0.9,0.5,1.5c-2.5,22.2-7.5,22.8-9.9,22.4
		c-1.6-0.2-2.7-3.1-2.7-9.5c0-7.5-0.1-11.3-0.1-13.2c0-0.5,0.2-1,0.5-1.3c0.4-0.4,0.8-0.6,1.3-0.6
		C394.4,673.8,398.6,673.8,401.1,673.8z" style="fill:#FFFFFF;"/>
	<path d="M420.6,683.9c0,0,0.5,0.2,1.3,0.4c0.4,0.1,0.8,0.2,1.3,0.2c0.2,0,0.5,0,0.8-0.1c0.6-0.1,1.2-0.3,1.8-0.5
		c0.9,0,1.7-0.7,1.7-1.7c0-0.9-0.7-1.7-1.7-1.7c-0.6-0.2-1.2-0.4-1.8-0.5c-0.3-0.1-0.5-0.1-0.8-0.1c-0.5,0-0.9,0.1-1.3,0.2
		c-0.8,0.2-1.3,0.4-1.3,0.4c-0.9,0-1.7,0.7-1.7,1.7C418.9,683.2,419.6,683.9,420.6,683.9z" style="fill:#142664;"/>
	<path d="M397.3,683.9c0,0,0.5,0.2,1.3,0.4c0.4,0.1,0.8,0.2,1.3,0.2c0.2,0,0.5,0,0.8-0.1c0.6-0.1,1.2-0.3,1.8-0.5
		c0.9,0,1.7-0.7,1.7-1.7c0-0.9-0.7-1.7-1.7-1.7c-0.6-0.2-1.2-0.4-1.8-0.5c-0.3-0.1-0.5-0.1-0.8-0.1c-0.5,0-0.9,0.1-1.3,0.2
		c-0.8,0.2-1.3,0.4-1.3,0.4c-0.9,0-1.7,0.7-1.7,1.7C395.6,683.2,396.3,683.9,397.3,683.9z" style="fill:#142664;"/>
	<path d="M420.2,690.9c0,0,0.3,0.2,0.9,0.4c0.3,0.1,0.6,0.2,0.9,0.2c0.2,0,0.4,0,0.6-0.1c0.8-0.2,1.3-0.5,1.3-0.5
		c0.9,0,1.7-0.7,1.7-1.7s-0.7-1.7-1.7-1.7c0,0-0.5-0.3-1.3-0.5c-0.2,0-0.4-0.1-0.6-0.1c-0.3,0-0.7,0.1-0.9,0.2
		c-0.6,0.2-0.9,0.4-0.9,0.4c-0.9,0-1.7,0.7-1.7,1.7C418.5,690.2,419.3,690.9,420.2,690.9z" style="fill:#142664;"/>
	<path d="M396.9,690.9c0,0,0.3,0.2,0.9,0.4c0.3,0.1,0.6,0.2,0.9,0.2c0.2,0,0.4,0,0.6-0.1c0.8-0.2,1.3-0.5,1.3-0.5
		c0.9,0,1.7-0.7,1.7-1.7s-0.7-1.7-1.7-1.7c0,0-0.5-0.3-1.3-0.5c-0.2,0-0.4-0.1-0.6-0.1c-0.3,0-0.7,0.1-0.9,0.2
		c-0.6,0.2-0.9,0.4-0.9,0.4c-0.9,0-1.7,0.7-1.7,1.7C395.2,690.2,396,690.9,396.9,690.9z" style="fill:#142664;"/>
	<path d="M413.7,623.2c0,0,16.8,0.1,16.7,0c0,0-0.2,4.6-0.2,4.6l-16.4,0C413.8,627.8,413.6,624.7,413.7,623.2
		L413.7,623.2z" style="fill:#00E6B3;"/>
	<circle cx="413.3" cy="541.6" r="4.5" style="fill:#00E6B3;"/>
	<circle cx="413.3" cy="568.7" r="4.5" style="fill:#00E6B3;"/>
	<circle cx="413.3" cy="595.7" r="4.5" style="fill:#00E6B3;"/>
	<path d="M372.3,127.7h-30.1l-23.3-51.6h30.1L372.3,127.7z" style="fill:#142664;"/>
	<path d="M317.7,101.4c0.8,1.8,0,3.9-1.7,4.7c-1.8,0.8-3.9,0-4.7-1.7c-0.8-1.8,0-3.9,1.7-4.7
		C314.8,98.9,316.9,99.6,317.7,101.4z" style="fill:#142664;"/>
	<path d="M241,216.3c0.8,1.8,0,3.9-1.7,4.7c-1.8,0.8-3.9,0-4.7-1.7c-0.8-1.8,0-3.9,1.7-4.7
		C238.1,213.7,240.2,214.5,241,216.3L241,216.3z" style="fill:#142664;"/>
	<path d="M597.3,197.6c0.8,1.8,0,3.9-1.7,4.7c-1.8,0.8-3.9,0-4.7-1.7c-0.8-1.8,0-3.9,1.7-4.7
		C594.3,195.1,596.4,195.8,597.3,197.6L597.3,197.6z" style="fill:#FFFFFF;"/>
	<path d="M436.7,60.6c1.5,3.3,0.1,7.1-3.2,8.7c-3.3,1.5-7.1,0.1-8.7-3.2c-1.5-3.3-0.1-7.1,3.2-8.7
		C431.3,55.9,435.2,57.4,436.7,60.6z" style="fill:#00E6B3;"/>
	<path d="M610.2,197.6c0.8,1.8,0,3.9-1.7,4.7c-1.8,0.8-3.9,0-4.7-1.7c-0.8-1.8,0-3.9,1.7-4.7
		C607.2,195.1,609.4,195.8,610.2,197.6L610.2,197.6z" style="fill:#FF2E93;"/>
	<path d="M311.9,88.7c0.8,1.8,0,3.9-1.7,4.7c-1.8,0.8-3.9,0-4.7-1.7c-0.8-1.8,0-3.9,1.7-4.7
		C308.9,86.2,311,87,311.9,88.7L311.9,88.7z" style="fill:#142664;"/>
	<g>
		<path d="M384.4,228c-1,0-1.8-0.8-1.8-1.8v-15.1c0-0.5,0.2-0.9,0.5-1.3l25.2-25.2l-13-13c-0.7-0.7-0.7-1.9,0-2.6
			l14.3-14.3c0.7-0.7,1.8-0.7,2.6,0c0.7,0.7,0.7,1.9,0,2.6l-13,13l13,13c0.7,0.7,0.7,1.9,0,2.6l-25.9,25.9v14.4
			C386.2,227.2,385.4,228,384.4,228z" style="fill:#142664;"/>
	</g>
	<g>
		<path d="M386.1,166.2h-39.8c-0.5,0-0.9-0.2-1.3-0.5l-35.9-35.9c-0.7-0.7-0.7-1.9,0-2.6l22.1-22.1
			c0.7-0.7,1.9-0.7,2.6,0c0.7,0.7,0.7,1.9,0,2.6L313,128.5l34.1,34.1h38.3l19.2-19.2c0.7-0.7,1.8-0.7,2.6,0c0.7,0.7,0.7,1.9,0,2.6
			l-19.7,19.7C387.1,166,386.6,166.2,386.1,166.2z" style="fill:#142664;"/>
	</g>
	<g>
		<path d="M394.6,271.9c-13.7,0-24.9-11.2-24.9-24.9c0-13.7,11.2-24.9,24.9-24.9c13.7,0,24.9,11.2,24.9,24.9
			C419.5,260.7,408.3,271.9,394.6,271.9z M394.6,225.6c-11.8,0-21.3,9.6-21.3,21.3c0,11.8,9.6,21.3,21.3,21.3
			c11.8,0,21.3-9.6,21.3-21.3C415.9,235.2,406.4,225.6,394.6,225.6z" style="fill:#142664;"/>
	</g>
	<g>
		<path d="M378.3,265.2c-0.5,0-0.9-0.2-1.3-0.5c-0.7-0.7-0.7-1.9,0-2.6l6.9-6.9c-1.8-2.3-2.8-5.2-2.8-8.2
			c0-7.4,6-13.4,13.4-13.4c6.8,0,12.4,5.1,13.3,11.6h9.8c1,0,1.8,0.8,1.8,1.8c0,1-0.8,1.8-1.8,1.8h-11.5c-1,0-1.8-0.8-1.8-1.8
			c0-5.4-4.4-9.8-9.8-9.8c-5.4,0-9.8,4.4-9.8,9.8c0,2.7,1,5.1,3,7c0.3,0.3,0.5,0.8,0.5,1.3c0,0.5-0.2,0.9-0.5,1.3l-8.1,8.1
			C379.3,265,378.8,265.2,378.3,265.2z" style="fill:#142664;"/>
	</g>
	<path d="M449.8,222.2c0-0.9-0.4-1.8-1-2.4c-0.6-0.6-1.5-1-2.4-1h-15.2c-1.4,0-2.6,0.8-3.1,2.1
		c-0.5,1.3-0.2,2.7,0.7,3.7c4.5,4.5,10.7,10.7,15.2,15.2c1,1,2.4,1.3,3.7,0.7c1.3-0.5,2.1-1.8,2.1-3.1
		C449.8,232.3,449.8,226,449.8,222.2L449.8,222.2z" style="fill:#FFFFFF;"/>
	<circle cx="394.6" cy="247" r="4.5" style="fill:#142664;"/>
	<path d="M366.9,208.2c0.9,0.9,1.4,2.2,1.4,3.4c0,1.3-0.6,2.5-1.6,3.3c-8.9,7.8-14.5,19.2-14.5,32c0,1,0,2,0.1,2.9
		c0.1,1.3-0.4,2.7-1.3,3.6c-2.8,2.8-8.7,8.7-11.4,11.4c-0.9,0.9-2.1,1.4-3.3,1.4c-5.4,0-20.9,0-28.7,0c-1.2,0-2.4-0.5-3.3-1.4
		c-0.9-0.9-1.4-2.1-1.4-3.3c0-8.1,0-24.7,0-30.3c0-1.2-0.5-2.4-1.4-3.3c-6.2-6.2-32.3-32.3-41.6-41.6c-1.8-1.8-1.8-4.7,0-6.6
		c7.9-7.9,28.1-28.1,36.1-36.1c1.8-1.8,4.7-1.8,6.6,0C314.3,155.7,354.5,195.8,366.9,208.2L366.9,208.2z" style="fill:#142664;"/>
	<path d="M337.2,197.9c1.3,1.3,1.6,3.2,1,4.8c-0.7,1.7-2.3,2.7-4.1,2.7c-11.4,0-28.7,0-34.3,0c-1.2,0-2.3-0.5-3.1-1.3
		c-3.4-3.4-12.7-12.7-17.6-17.6c-0.8-0.8-1.3-2-1.3-3.1c0-1.2,0.5-2.3,1.3-3.1c4.5-4.5,12.7-12.7,17.2-17.2c1.7-1.7,4.5-1.7,6.3,0
		C309.6,170.3,327.1,187.8,337.2,197.9L337.2,197.9z" style="fill:#00E6B3;"/>
	<g>
		<path d="M251.8,155.6c-0.5,0-0.9-0.2-1.3-0.5l-18-18c-0.7-0.7-0.7-1.9,0-2.6c0.7-0.7,1.9-0.7,2.6,0l16.7,16.7
			l26.3-26.3V77.3c0-1,0.8-1.8,1.8-1.8c1,0,1.8,0.8,1.8,1.8v48.4c0,0.5-0.2,0.9-0.5,1.3l-28.1,28.1
			C252.7,155.4,252.3,155.6,251.8,155.6z" style="fill:#142664;"/>
	</g>
	<g>
		<path d="M288.5,153.1c-0.5,0-0.9-0.2-1.3-0.5l-17.1-17.1c-0.7-0.7-0.7-1.9,0-2.6c0.7-0.7,1.9-0.7,2.6,0l17.1,17.1
			c0.7,0.7,0.7,1.9,0,2.6C289.5,153,289,153.1,288.5,153.1z" style="fill:#142664;"/>
	</g>
	<g>
		<path d="M320.2,287.1c-1,0-1.8-0.8-1.8-1.8v-19c0-1,0.8-1.8,1.8-1.8s1.8,0.8,1.8,1.8v19
			C322,286.2,321.2,287.1,320.2,287.1z" style="fill:#142664;"/>
	</g>
	<g>
		<path d="M183.1,214.8c-0.5,0-0.9-0.2-1.3-0.5c-0.7-0.7-0.7-1.9,0-2.6l25-25l-12.1-12.1c-0.3-0.3-0.5-0.8-0.5-1.3
			v-18.5c0-1,0.8-1.8,1.8-1.8s1.8,0.8,1.8,1.8v17.8l12.9,12.9c0.7,0.7,0.7,1.9,0,2.6l-26.2,26.2C184,214.6,183.6,214.8,183.1,214.8z
			" style="fill:#142664;"/>
	</g>
	<g>
		<path d="M199.8,198.1c-0.5,0-0.9-0.2-1.3-0.5l-17.4-17.4c-0.3-0.3-0.5-0.8-0.5-1.3v-24.1c0-1,0.8-1.8,1.8-1.8
			s1.8,0.8,1.8,1.8v23.4l16.9,16.9c0.7,0.7,0.7,1.9,0,2.6C200.7,198,200.3,198.1,199.8,198.1z" style="fill:#142664;"/>
	</g>
	<path d="M174.7,112.4v28.7c0,2.5,2,4.5,4.5,4.5s4.5-2,4.5-4.5v-28.7c0-2.5-2-4.5-4.5-4.5S174.7,109.9,174.7,112.4z" style="fill:#00E6B3;"/>
	<path d="M193,112.4v28.7c0,2.5,2,4.5,4.5,4.5s4.5-2,4.5-4.5v-28.7c0-2.5-2-4.5-4.5-4.5S193,109.9,193,112.4z" style="fill:#00E6B3;"/>
	<path d="M211.4,112.4v19.2c0,2.5,2,4.5,4.5,4.5s4.5-2,4.5-4.5v-19.2c0-2.5-2-4.5-4.5-4.5S211.4,109.9,211.4,112.4z" style="fill:#00E6B3;"/>
	<path d="M229.7,112.4v5.7c0,2.5,2,4.5,4.5,4.5c2.5,0,4.5-2,4.5-4.5v-5.7c0-2.5-2-4.5-4.5-4.5
		C231.8,107.9,229.7,109.9,229.7,112.4z" style="fill:#00E6B3;"/>
	<path d="M390.2,285.2h-84.2c0,0-13.9,13.8-23,22.8c-1.3,1.3-1.7,3.2-1,4.8c0.7,1.7,2.3,2.7,4.1,2.7
		c20.1,0,62.3,0,71.6,0c1.2,0,2.3-0.5,3.1-1.3C366.7,308.5,390.2,285.2,390.2,285.2L390.2,285.2z" style="fill:#FF2E93;"/>
	<path d="M166.4,105.9c0,0-5.1,2.2-7.6,3.2c-0.9,0.4-1.4,1.2-1.4,2.1c0,1.9,0,5,0,6.9c0,0.9,0.6,1.8,1.4,2.1
		c2.5,1.1,7.6,3.2,7.6,3.2V105.9L166.4,105.9z" style="fill:#142664;"/>
	<path d="M166.4,130.6c0,0-5.1,2.2-7.6,3.2c-0.9,0.4-1.4,1.2-1.4,2.1c0,1.9,0,5,0,6.9c0,0.9,0.6,1.8,1.4,2.1
		c2.5,1.1,7.6,3.2,7.6,3.2V130.6L166.4,130.6z" style="fill:#142664;"/>
	<g>
		<path d="M352.6,578.5c0,0,0.5-5.8,0.7-12.5c0.4-8.7,0.5-18.7,0.5-18.7c0-1.2-1-2.3-2.3-2.3s-2.3,1-2.3,2.3
			c0,0,0.1,10,0.5,18.7c0.3,6.7,0.7,12.5,0.7,12.5c0,0.6,0.5,1.1,1.1,1.1S352.6,579.1,352.6,578.5L352.6,578.5z" style="fill:#FFFFFF;"/>
		<path d="M374.4,440.9c0,0,0.5-8.8,0.7-18.9c0.4-13.1,0.5-28.3,0.5-28.3c0-1.2-1-2.3-2.3-2.3c-1.2,0-2.3,1-2.3,2.3
			c0,0,0.1,15.2,0.5,28.3c0.3,10,0.7,18.9,0.7,18.9c0,0.6,0.5,1.1,1.1,1.1C373.9,442,374.4,441.5,374.4,440.9L374.4,440.9z" style="fill:#FFFFFF;"/>
		<path d="M445.3,426.4c0,0,0.5-11.1,0.7-23.7c0.4-16.5,0.5-35.5,0.5-35.5c0-1.2-1-2.3-2.3-2.3s-2.3,1-2.3,2.3
			c0,0,0.1,19,0.5,35.5c0.3,12.6,0.7,23.7,0.7,23.7c0,0.6,0.5,1.1,1.1,1.1C444.9,427.5,445.3,427,445.3,426.4L445.3,426.4z" style="fill:#FFFFFF;"/>
		<path d="M340.2,541.2c0,0,0.4-1.9,0.7-4.2c0.4-2.9,0.5-6.3,0.5-6.3c0-1.2-1-2.3-2.3-2.3s-2.3,1-2.3,2.3
			c0,0,0.1,3.4,0.5,6.3c0.3,2.3,0.7,4.2,0.7,4.2c0,0.6,0.5,1.1,1.1,1.1C339.7,542.3,340.2,541.8,340.2,541.2L340.2,541.2z" style="fill:#FFFFFF;"/>
		<path d="M349.3,472.8c0,0,0.4-1.9,0.7-4.2c0.4-2.9,0.5-6.3,0.5-6.3c0-1.2-1-2.3-2.3-2.3s-2.3,1-2.3,2.3
			c0,0,0.1,3.4,0.5,6.3c0.3,2.3,0.7,4.2,0.7,4.2c0,0.6,0.5,1.1,1.1,1.1C348.8,473.9,349.3,473.4,349.3,472.8L349.3,472.8z" style="fill:#FFFFFF;"/>
		<path d="M427.5,399.3c0,0,0.4-1.9,0.7-4.2c0.4-2.9,0.5-6.3,0.5-6.3c0-1.2-1-2.3-2.3-2.3c-1.2,0-2.3,1-2.3,2.3
			c0,0,0.1,3.4,0.5,6.3c0.3,2.3,0.7,4.2,0.7,4.2c0,0.6,0.5,1.1,1.1,1.1S427.5,399.9,427.5,399.3L427.5,399.3z" style="fill:#FFFFFF;"/>
		<path d="M396.6,361.1c0,0,0.4-1.9,0.7-4.2c0.4-2.9,0.5-6.3,0.5-6.3c0-1.2-1-2.3-2.3-2.3s-2.3,1-2.3,2.3
			c0,0,0.1,3.4,0.5,6.3c0.3,2.3,0.7,4.2,0.7,4.2c0,0.6,0.5,1.1,1.1,1.1C396.1,362.2,396.6,361.7,396.6,361.1L396.6,361.1z" style="fill:#FFFFFF;"/>
		<path d="M451.2,449.8c0,0,0.5-3.4,0.7-7.2c0.4-5,0.5-10.8,0.5-10.8c0-1.2-1-2.3-2.3-2.3c-1.2,0-2.3,1-2.3,2.3
			c0,0,0.1,5.8,0.5,10.8c0.3,3.9,0.7,7.2,0.7,7.2c0,0.6,0.5,1.1,1.1,1.1C450.7,450.9,451.2,450.4,451.2,449.8L451.2,449.8z" style="fill:#FFFFFF;"/>
		<path d="M385.7,384.3c0,0,0.5-4.1,0.7-8.8c0.4-6.1,0.5-13.2,0.5-13.2c0-1.2-1-2.3-2.3-2.3c-1.2,0-2.3,1-2.3,2.3
			c0,0,0.1,7.1,0.5,13.2c0.3,4.7,0.7,8.8,0.7,8.8c0,0.6,0.5,1.1,1.1,1.1C385.2,385.4,385.7,384.9,385.7,384.3L385.7,384.3z" style="fill:#FFFFFF;"/>
		<path d="M369.2,501.1c0,0,0.4-0.7,0.7-1.7c0.3-1.2,0.5-2.6,0.5-2.6c0-1.2-1-2.3-2.3-2.3s-2.3,1-2.3,2.3
			c0,0,0.1,1.4,0.5,2.6c0.3,1,0.7,1.7,0.7,1.7c0,0.6,0.5,1.1,1.1,1.1S369.2,501.7,369.2,501.1L369.2,501.1z" style="fill:#FFFFFF;"/>
		<path d="M360.1,411.6c0,0,0.4-0.7,0.7-1.7c0.3-1.2,0.5-2.6,0.5-2.6c0-1.2-1-2.3-2.3-2.3s-2.3,1-2.3,2.3
			c0,0,0.1,1.4,0.5,2.6c0.3,1,0.7,1.7,0.7,1.7c0,0.6,0.5,1.1,1.1,1.1S360.1,412.2,360.1,411.6L360.1,411.6z" style="fill:#FFFFFF;"/>
		<path d="M465.6,422.5c0,0,0.4-0.7,0.7-1.7c0.3-1.2,0.5-2.6,0.5-2.6c0-1.2-1-2.3-2.3-2.3c-1.2,0-2.3,1-2.3,2.3
			c0,0,0.1,1.4,0.5,2.6c0.3,1,0.7,1.7,0.7,1.7c0,0.6,0.5,1.1,1.1,1.1C465.1,423.6,465.6,423.1,465.6,422.5L465.6,422.5z" style="fill:#FFFFFF;"/>
		<path d="M451.8,560.1c0,0,0.4-0.7,0.7-1.7c0.3-1.2,0.5-2.6,0.5-2.6c0-1.2-1-2.3-2.3-2.3s-2.3,1-2.3,2.3
			c0,0,0.1,1.4,0.5,2.6c0.3,1,0.7,1.7,0.7,1.7c0,0.6,0.5,1.1,1.1,1.1S451.8,560.7,451.8,560.1L451.8,560.1z" style="fill:#FFFFFF;"/>
		<path d="M358.5,507c0,0,0.5-4.4,0.7-9.4c0.4-6.5,0.5-14.1,0.5-14.1c0-1.2-1-2.3-2.3-2.3s-2.3,1-2.3,2.3
			c0,0,0.1,7.6,0.5,14.1c0.3,5,0.7,9.4,0.7,9.4c0,0.6,0.5,1.1,1.1,1.1C358.1,508.1,358.5,507.6,358.5,507L358.5,507z" style="fill:#FFFFFF;"/>
		<path d="M459.3,532.5c0,0,0.5-3.7,0.7-7.9c0.4-5.5,0.5-11.9,0.5-11.9c0-1.2-1-2.3-2.3-2.3c-1.2,0-2.3,1-2.3,2.3
			c0,0,0.1,6.4,0.5,11.9c0.3,4.2,0.7,7.9,0.7,7.9c0,0.6,0.5,1.1,1.1,1.1C458.8,533.5,459.3,533,459.3,532.5L459.3,532.5z" style="fill:#FFFFFF;"/>
	</g>
	<path d="M448.3,467.1l13.2,13.2c-0.5,1.7-1,3.3-1.6,4.8L446,471.2c0-0.4,0-0.8,0-1.1c0-0.4,0.1-0.7,0.4-1L448.3,467.1
		L448.3,467.1z" style="fill:#FF2E93;"/>
	<path d="M444.8,482l11.1,11c-0.9,1.3-1.8,2.5-2.8,3.6l-9.9-9.9C443.8,485.3,444.4,483.7,444.8,482L444.8,482z" style="fill:#FF2E93;"/>
	<path d="M438.6,494.2l8.1,8.1c-1.3,0.9-2.6,1.7-4,2.4l-7.3-7.3C436.6,496.4,437.6,495.3,438.6,494.2z" style="fill:#FF2E93;"/>
	<path d="M428.1,502l6,6c-1.8,0.5-3.5,0.8-5.3,1.1l-5.3-5.3C425.1,503.3,426.6,502.7,428.1,502z" style="fill:#FF2E93;"/>
	<path d="M496.5,315.6h-35.6c-3.9,0-7.6-1.5-10.3-4.3c-8.4-8.4-26.3-26.1-26.3-26.1h72.3V315.6z" style="fill:#142664;"/>
	<path d="M293.6,287.5h336.3c1.2,0,2.3-1,2.3-2.3c0-1.2-1-2.3-2.3-2.3H293.6c-1.2,0-2.3,1-2.3,2.3
		C291.4,286.5,292.4,287.5,293.6,287.5z" style="fill:#142664;"/>
	<path d="M461.2,218.8h38.7c1,0,2,0.4,2.7,1.1c0.7,0.7,1.1,1.7,1.1,2.7c0,2.8,0,6.6,0,8.7c0,1-0.4,2-1.1,2.7
		c-1.5,1.5-4.2,4.2-5.7,5.7c-0.7,0.7-1.7,1.1-2.7,1.1c-6.8,0-33,0-33,0L461.2,218.8L461.2,218.8z" style="fill:#00E6B3;"/>
	<path d="M664.4,222.1c0-0.9-0.3-1.7-1-2.3c-0.6-0.6-1.4-1-2.3-1c-7.8,0-27.2,0-35.5,0c-1,0-2,0.4-2.7,1.1
		c-0.7,0.7-1.1,1.7-1.1,2.7c0,2.8,0,6.6,0,8.7c0,1,0.4,2,1.1,2.7c1.5,1.5,4.2,4.2,5.7,5.7c0.7,0.7,1.7,1.1,2.7,1.1c6.8,0,33,0,33,0
		L664.4,222.1L664.4,222.1z" style="fill:#00E6B3;"/>
	<path d="M461.2,255.1h18.4c1.7,0,3.1-1.4,3.1-3.1c0,0,0,0,0,0c0-1.7-1.4-3.1-3.1-3.1c-6,0-18.4,0-18.4,0V255.1
		L461.2,255.1z" style="fill:#FFFFFF;"/>
	<path d="M664.4,252.4c0,0.7-0.3,1.4-0.8,1.9c-0.5,0.5-1.2,0.8-1.9,0.8H646c-1.7,0-3.1-1.4-3.1-3.1c0,0,0,0,0,0
		c0-1.7,1.4-3.1,3.1-3.1c6,0,18.4,0,18.4,0V252.4L664.4,252.4z" style="fill:#FFFFFF;"/>
	<g>
		<path d="M645.8,272.1h-50.9c-0.7,0-1.4-0.4-1.7-1.1c-0.3-0.7-0.1-1.5,0.4-2l13.6-13.6v-12.9h-88.6v13.7
			c0,0.5-0.2,0.9-0.5,1.3l-14.1,14.1c-0.3,0.3-0.8,0.5-1.3,0.5H446c-1,0-1.8-0.8-1.8-1.8c0-1,0.8-1.8,1.8-1.8h55.9l13-13v-14.7
			c0-1,0.8-1.8,1.8-1.8H609c1,0,1.8,0.8,1.8,1.8v15.5c0,0.5-0.2,0.9-0.5,1.3l-11,11h46.6c1,0,1.8,0.8,1.8,1.8
			C647.6,271.3,646.8,272.1,645.8,272.1z" style="fill:#FF2E93;"/>
	</g>
	<g>
		<path d="M434.8,146.5h-29c-1,0-1.8-0.8-1.8-1.8s0.8-1.8,1.8-1.8h29c1,0,1.8,0.8,1.8,1.8S435.8,146.5,434.8,146.5z" style="fill:#FF2E93;"/>
	</g>
	<g>
		<path d="M439.9,157.9h-29c-1,0-1.8-0.8-1.8-1.8c0-1,0.8-1.8,1.8-1.8h29c1,0,1.8,0.8,1.8,1.8
			C441.7,157.1,440.9,157.9,439.9,157.9z" style="fill:#FF2E93;"/>
	</g>
	<g>
		<path d="M431.1,287.1c-0.5,0-0.9-0.2-1.3-0.5c-0.7-0.7-0.7-1.9,0-2.6l29.6-29.6v-34.7L424.2,190
			c-0.2-0.2-0.4-0.4-0.5-0.6l-27-60.9c-0.4-0.9,0-2,0.9-2.4c0.9-0.4,2,0,2.4,0.9l26.8,60.5l35.6,30c0.4,0.3,0.6,0.8,0.6,1.4v36.3
			c0,0.5-0.2,0.9-0.5,1.3l-30.1,30.1C432,286.9,431.6,287.1,431.1,287.1z" style="fill:#142664;"/>
	</g>
	<path d="M572,275c-1.7,1.7-4,2.7-6.4,2.7c-8.8,0-30.9,0-42.8,0c-1.3,0-2.5-0.8-3-2c-0.5-1.2-0.2-2.6,0.7-3.6
		c5.7-5.7,14.2-14.2,18.5-18.5c1.7-1.7,4-2.7,6.4-2.7c8.8,0,30.9,0,42.8,0c1.3,0,2.5,0.8,3,2c0.5,1.2,0.2,2.6-0.7,3.6
		C584.8,262.2,576.3,270.7,572,275L572,275z" style="fill:#FF2E93;"/>
	<g>
		<path d="M562.7,201.5h-42.8c-2.9,0-5.6-1.1-7.7-3.2l-19.5-19.5c-0.5-0.5-0.7-1.3-0.4-2c0.3-0.7,0.9-1.1,1.7-1.1h54.5
			c0.5,0,0.9,0.2,1.3,0.5l16.5,16.5c1.5,1.5,1.9,3.6,1.1,5.6C566.6,200.2,564.7,201.5,562.7,201.5z M498.3,179.3l16.4,16.4
			c1.4,1.4,3.2,2.1,5.1,2.1h42.8c0.6,0,1.1-0.4,1.4-0.9c0.2-0.6,0.1-1.2-0.3-1.6l-16-16H498.3z" style="fill:#FF2E93;"/>
	</g>
	<g>
		<path d="M535.1,272.7c-0.5,0-0.9-0.2-1.3-0.5c-0.7-0.7-0.7-1.9,0-2.6l13.1-13.1c0.7-0.7,1.8-0.7,2.6,0
			c0.7,0.7,0.7,1.9,0,2.6l-13.1,13.1C536.1,272.5,535.6,272.7,535.1,272.7z" style="fill:#142664;"/>
	</g>
	<g>
		<path d="M548.9,272.7c-0.5,0-0.9-0.2-1.3-0.5c-0.7-0.7-0.7-1.9,0-2.6l13.1-13.1c0.7-0.7,1.8-0.7,2.6,0
			c0.7,0.7,0.7,1.9,0,2.6l-13.1,13.1C549.8,272.5,549.4,272.7,548.9,272.7z" style="fill:#142664;"/>
	</g>
	<g>
		<path d="M562.7,272.7c-0.5,0-0.9-0.2-1.3-0.5c-0.7-0.7-0.7-1.9,0-2.6l13.1-13.1c0.7-0.7,1.8-0.7,2.6,0
			c0.7,0.7,0.7,1.9,0,2.6L564,272.1C563.6,272.5,563.2,272.7,562.7,272.7z" style="fill:#142664;"/>
	</g>
	<path d="M448.1,84.9c81.9,0,118.8,14.5,157.4,92.4c1.2,2.4,1.1,5.3-0.4,7.5c-1.4,2.3-3.9,3.7-6.6,3.7
		c-96.8,0-128.7,0-139.1,0c-3.1,0-5.9-1.8-7.1-4.6c-5-11.3-17.9-40.3-22.9-51.7c-1.2-2.8-4-4.6-7.1-4.6c-10.5,0-34.5,0-45,0
		c-3.1,0-5.8-1.8-7.1-4.6c-2.9-6.4-8.3-18.4-12.3-27.2c-1.1-2.4-0.9-5.2,0.6-7.4c1.4-2.2,3.9-3.6,6.5-3.6L448.1,84.9L448.1,84.9z" style="fill:#00E6B3;"/>
	<path d="M505.9,89.2c7.2,1.4,13.9,3.1,20.2,5.3l-78.7,78.7l-7.9-17.7L505.9,89.2L505.9,89.2z" style="fill:#FFFFFF;"/>
	<path d="M534.2,97.6c2.9,1.3,5.8,2.7,8.6,4.2l-86.3,86.3c-1.9-0.7-3.4-2.2-4.3-4.1l-1.4-3.1L534.2,97.6z" style="fill:#FFFFFF;"/>
	<path d="M331.1,216.6c-1,0-2,0.6-2.5,1.4c-0.5,0.9-0.5,2,0,2.9c2.6,4.3,9.2,5.4,13.1,5.7c0.8,0.1,1.6-0.2,2.1-0.8
		c0.6-0.5,0.9-1.3,0.9-2.1c0-1.4,0-3,0-4.3c0-0.8-0.3-1.5-0.8-2c-0.5-0.5-1.3-0.8-2-0.8C339,216.6,334.3,216.6,331.1,216.6z" style="fill:#00E6B3;"/>
	<g>
		<path d="M423.9,287.1c-0.5,0-0.9-0.2-1.3-0.5l-18.1-18.1c-0.7-0.7-0.7-1.9,0-2.6c0.7-0.7,1.8-0.7,2.6,0l18.1,18.1
			c0.7,0.7,0.7,1.9,0,2.6C424.9,286.9,424.4,287.1,423.9,287.1z" style="fill:#142664;"/>
	</g>
	<path d="M488.1,227.4c0-0.5,0.2-0.9,0.5-1.2c0.3-0.3,0.8-0.5,1.2-0.5h7.8c0.7,0,1.3,0.4,1.6,1.1
		c0.3,0.6,0.1,1.4-0.4,1.9c-2.3,2.3-5.5,5.5-7.8,7.8c-0.5,0.5-1.2,0.6-1.9,0.4c-0.6-0.3-1.1-0.9-1.1-1.6
		C488.1,232.6,488.1,229.4,488.1,227.4L488.1,227.4z" style="fill:#142664;"/>
	<path d="M637.6,227.4c0-0.5-0.2-0.9-0.5-1.2c-0.3-0.3-0.8-0.5-1.2-0.5h-7.8c-0.7,0-1.3,0.4-1.6,1.1
		c-0.3,0.6-0.1,1.4,0.4,1.9c2.3,2.3,5.5,5.5,7.8,7.8c0.5,0.5,1.2,0.6,1.9,0.4c0.6-0.3,1.1-0.9,1.1-1.6
		C637.6,232.6,637.6,229.4,637.6,227.4L637.6,227.4z" style="fill:#142664;"/>
	<path d="M313.6,174.3l-23.4,23.4l-6.4-6.4l23.4-23.4L313.6,174.3z" style="fill:#FFFFFF;"/>
	<path d="M295,202.5l23.4-23.4l3.2,3.2l-23,23c-0.7-0.2-1.4-0.6-1.9-1.1L295,202.5z" style="fill:#FFFFFF;"/>
	<path d="M264.3,295.4c0-0.1-0.1-0.2-0.1-0.2c-0.3-0.9-0.8-2-1.5-3.2c-0.9-1.6-2-3.4-3.4-5.3c-0.5-0.7-0.4-1.8,0.4-2.3
		c0.7-0.5,1.8-0.4,2.3,0.4c3,3.9,5,7.2,5.7,9.4c0.7,2.1,0.3,3.6-0.5,4.4c-0.8,0.8-2.2,1.2-4.3,0.6c-2.1-0.6-5.3-2.4-9.2-5.1
		c-6.1-4.3-14-11.1-22.2-19.1c-9.7-9.9-17.5-19.3-21.5-25.7c-1.8-2.9-2.8-5.2-3-6.7c-0.2-1.5,0.2-2.5,0.8-3.2c0.7-0.7,2-1.1,3.9-0.6
		c1.9,0.5,4.8,2.1,8.2,4.6c0.8,0.5,0.9,1.6,0.4,2.3c-0.5,0.8-1.6,0.9-2.3,0.4c-2.9-1.9-6.1-4.2-7.4-4.4c0.1,0.3,0.2,0.9,0.4,1.4
		c1,2.5,3.5,6.1,7,10.5c4.2,5.3,10,11.6,16.6,18.1c6.5,6.6,12.8,12.3,18.2,16.5c4.4,3.5,8,6,10.5,7
		C263.8,295.2,264.1,295.3,264.3,295.4L264.3,295.4z M264.5,295.9c-0.1,0.1-0.2,0.2-0.1,0.2C264.5,296.1,264.5,296,264.5,295.9z
		 M210.8,241.5c-0.3,0-0.4,0.1-0.4,0.4c0,0.1,0.2-0.1,0.3-0.2C210.7,241.7,210.7,241.6,210.8,241.5z" style="fill:#00E6B3;"/>
	<path d="M247.1,297c0.6-0.3,1.4-0.2,1.9,0.3c0.7,0.7,0.7,1.7,0,2.4c-0.5,0.5-1.4,0.9-2.6,0.7c-1.1-0.2-2.8-0.9-4.9-2.1
		c-3-1.8-7-4.8-11.4-8.6c-2.2-1.9-4.6-4.1-6.9-6.4c-2.3-2.4-4.5-4.7-6.4-6.9c-3.8-4.4-6.8-8.4-8.6-11.4c-1.3-2.1-2-3.8-2.1-4.9
		c-0.2-1.2,0.2-2,0.7-2.6c0.7-0.7,1.7-0.7,2.4,0c0.5,0.5,0.6,1.3,0.3,2c0.1,0.2,0.3,0.8,0.5,1.2c1.1,2.1,3.4,5.3,6.6,9
		c2.8,3.2,6.1,6.8,9.9,10.4c3.7,3.8,7.3,7.1,10.5,9.9c3.7,3.2,6.8,5.6,9,6.6c0.3,0.2,0.8,0.5,1,0.6c-0.1,0.1-0.2,0.2-0.2,0.2
		c0.1-0.1,0.2-0.1,0.2-0.2l0,0C246.9,297,247.1,296.9,247.1,297c-0.1,0-0.1,0.1-0.2,0.1C247,297.1,247.1,297.1,247.1,297
		C247.1,297,247.1,297,247.1,297L247.1,297z" style="fill:#00E6B3;"/>
	<g>
		<path d="M431.2,77.9H250.2c-1,0-1.8-0.8-1.8-1.8s0.8-1.8,1.8-1.8h180.9c1,0,1.8,0.8,1.8,1.8S432.2,77.9,431.2,77.9z" style="fill:#142664;"/>
	</g>
	<path d="M427.3,731.7c0,0,0.4-0.7,0.7-1.7c0.3-1.2,0.5-2.6,0.5-2.6c0-1.2-1-2.3-2.3-2.3c-1.2,0-2.3,1-2.3,2.3
		c0,0,0.1,1.4,0.5,2.6c0.3,1,0.7,1.7,0.7,1.7c0,0.6,0.5,1.1,1.1,1.1C426.8,732.8,427.3,732.3,427.3,731.7L427.3,731.7z" style="fill:#142664;"/>
	<path d="M366.2,742.5c0,0,0.4-0.7,0.7-1.7c0.3-1.2,0.5-2.6,0.5-2.6c0-1.2-1-2.3-2.3-2.3c-1.2,0-2.3,1-2.3,2.3
		c0,0,0.1,1.4,0.5,2.6c0.3,1,0.7,1.7,0.7,1.7c0,0.6,0.5,1.1,1.1,1.1C365.7,743.6,366.2,743.1,366.2,742.5L366.2,742.5z" style="fill:#142664;"/>
	<path d="M395.1,729.5c0,0,0.6-0.6,1.1-1.7c0.5-1.2,0.7-2.6,0.7-2.6c0-1.9-1.5-3.4-3.4-3.4c-1.9,0-3.4,1.5-3.4,3.4
		c0,0,0.2,1.4,0.7,2.6c0.5,1.2,1.1,1.7,1.1,1.7c0,0.9,0.7,1.6,1.6,1.6S395.1,730.4,395.1,729.5z" style="fill:#142664;"/>
	<circle cx="350.9" cy="703.6" r="2.3" style="fill:#142664;"/>
	<circle cx="336" cy="728.3" r="3.1" style="fill:#142664;"/>
	<circle cx="467.2" cy="711.8" r="3.1" style="fill:#142664;"/>
	<circle cx="402.3" cy="720.7" r="2.3" style="fill:#142664;"/>
	<circle cx="448.9" cy="735.7" r="2.3" style="fill:#142664;"/>
	<circle cx="481.2" cy="730.1" r="2.3" style="fill:#142664;"/>
	<path d="M460.5,725.8c0,0,0.6-1.2,1.1-2.9c0.5-2,0.7-4.4,0.7-4.4c0-1.9-1.5-3.4-3.4-3.4s-3.4,1.5-3.4,3.4
		c0,0,0.2,2.4,0.7,4.4c0.4,1.7,1.1,2.9,1.1,2.9c0,0.9,0.7,1.6,1.6,1.6S460.5,726.7,460.5,725.8z" style="fill:#142664;"/>
	<path d="M357,742.5c0,0,0.6-1.2,1.1-2.9c0.5-2,0.7-4.4,0.7-4.4c0-1.9-1.5-3.4-3.4-3.4s-3.4,1.5-3.4,3.4
		c0,0,0.2,2.4,0.7,4.4c0.4,1.7,1.1,2.9,1.1,2.9c0,0.9,0.7,1.6,1.6,1.6S357,743.4,357,742.5z" style="fill:#142664;"/>
	<path d="M421,741.6c0,0,0.4-1.3,0.7-2.9c0.4-2,0.5-4.4,0.5-4.4c0-1.2-1-2.3-2.3-2.3c-1.2,0-2.3,1-2.3,2.3
		c0,0,0.1,2.4,0.5,4.4c0.3,1.6,0.7,2.9,0.7,2.9c0,0.6,0.5,1.1,1.1,1.1S421,742.2,421,741.6L421,741.6z" style="fill:#142664;"/>
	<path d="M359.6,725.1c0,0,0.4-1.3,0.7-2.9c0.4-2,0.5-4.4,0.5-4.4c0-1.2-1-2.3-2.3-2.3s-2.3,1-2.3,2.3
		c0,0,0.1,2.4,0.5,4.4c0.3,1.6,0.7,2.9,0.7,2.9c0,0.6,0.5,1.1,1.1,1.1S359.6,725.7,359.6,725.1L359.6,725.1z" style="fill:#142664;"/>
	<ellipse cx="405.7" cy="749" rx="90.8" ry="9.1" style="fill:#142664;"/>
	<path d="M341.9,303c0,0.6-0.2,1.1-0.6,1.5c-0.4,0.4-0.9,0.6-1.5,0.6c-3.2,0-9.4,0-14.7,0c-1,0-1.8-0.7-2.1-1.6
		c-0.2-1,0.2-1.9,1.1-2.4c5-2.5,11.1-5.5,14.7-7.3c0.7-0.3,1.4-0.3,2.1,0.1c0.6,0.4,1,1.1,1,1.8C341.9,298,341.9,301,341.9,303z" style="fill:#142664;"/>
</g>
</svg>