<?xml version="1.0" encoding="UTF-8"?><svg version="1.1" id="Layer_1" xmlns:serif="http://www.serif.com/" xmlns="http://www.w3.org/2000/svg" xmlns:xlink="http://www.w3.org/1999/xlink" x="0px" y="0px" viewBox="0 0 800 768" style="enable-background:new 0 0 800 768;" xml:space="preserve" width="800px" height="768px">

<rect id="monocolor" x="16" width="767.1" height="767.1" style="fill:none;"/>
<g>
	<g>
		<g>
			<path d="M581,312.1c0,0-4.8-1-11.1-1.7c-2.3-0.3-4.9-0.5-7.4-0.5c-2.5,0-5.1,0.3-7.4,0.6c-6.3,0.7-11.1,1.6-11.1,1.6
				c-1.2,0-2.2,1-2.2,2.2c0,1.2,1,2.2,2.2,2.2c0,0,4.8,0.9,11.1,1.6c2.3,0.3,4.9,0.6,7.4,0.6c2.5,0,5.1-0.2,7.4-0.5
				c6.3-0.7,11.1-1.7,11.1-1.7c1.2,0,2.2-1,2.2-2.2C583.2,313,582.2,312.1,581,312.1L581,312.1z" style="fill-rule:evenodd;clip-rule:evenodd;fill:#FF2E93;"/>
			<path d="M570.9,313.4c0,0-2.2-0.4-5-0.7c-1.1-0.1-2.2-0.2-3.3-0.2c-1.1,0-2.3,0.1-3.3,0.2c-2.8,0.3-5,0.7-5,0.7
				c-0.5,0-0.9,0.4-0.9,0.9c0,0.5,0.4,0.9,0.9,0.9c0,0,2.2,0.4,5,0.7c1.1,0.1,2.2,0.2,3.3,0.2c1.1,0,2.3-0.1,3.3-0.2
				c2.9-0.3,5-0.7,5-0.7c0.5,0,0.9-0.4,0.9-0.9C571.8,313.8,571.4,313.4,570.9,313.4L570.9,313.4z" style="fill-rule:evenodd;clip-rule:evenodd;fill:#FFFFFF;"/>
			<path d="M620.3,304.2c0,1.8,0.8,3.6,2.3,4.7s3.3,1.6,5.1,1.2c3.4-0.7,7.2-1.6,9-2.4c3.5-1.6,9.8-3,14-0.9v0
				c0.5,0.3,1,0.6,1.4,0.9l11.1,7.2c0.5,0.2,0.8,0.7,0.8,1.3c0,0.5-0.4,1-1,1.1l-5.4,1.3c-1,0.2-5.3,1.6-6.4,2
				c-9.1,3.2-19.7,8.4-19.7,8.4c-3.2,1.5-6.6,2.3-10.2,2.3h-14.6c-1.3,0-2.6-0.1-3.8-0.3h0c-1.1-0.2-2.2-0.5-3.3-0.8l-30.8-7.5
				c-0.6-0.1-1-0.7-1-1.3c0,0,0,0,0,0c0-0.5-0.3-1-0.8-1.2c-1-0.4-2.6-1-3.6-1.5c-0.5-0.2-0.9-0.8-0.9-1.3c0-1.6,0-4.8,0-6.4
				c0-0.6,0.4-1.1,0.9-1.3c1-0.4,2.6-1,3.5-1.4c0.5-0.2,0.9-0.7,0.9-1.3c0,0,0,0,0,0c0-0.8,0.6-1.4,1.4-1.4c0,0,6-0.1,10.3-0.1
				c2.4,0,4.4-1.7,4.9-4c5.5-27,26-37.6,34-40.8c0.6-0.2,1.2-0.1,1.6,0.4c0.3,0.3,0.4,0.6,0.4,0.9l0,0l0,0c0,0.1,0,0.2,0,0.3
				L620.3,304.2L620.3,304.2z" style="fill-rule:evenodd;clip-rule:evenodd;fill:#142664;"/>
			<path d="M598.7,330.1l10-10c0.3-0.3,0.8-0.5,1.3-0.5h28.7c1,0,1.8,0.8,1.8,1.8v3.7c-1.3,0.5-2.5,1.1-3.5,1.6v-3.5
				h-26.2l-8,8c-1.1-0.2-2.1-0.4-3.1-0.8L598.7,330.1L598.7,330.1z M655.5,310l5.4,3.5c-0.1,0-0.2,0-0.3,0h-13.2
				c-1,0-1.8-0.8-1.8-1.8c0-1,0.8-1.8,1.8-1.8L655.5,310L655.5,310z M609.2,265.3l6.2,6.2c1.7-1.2,3.4-2.2,4.9-3v4.1
				c-8.2,4.9-19.4,14.5-24,32.4c0,0.1-0.1,0.3-0.2,0.4l0,0c-0.1,0.1-0.2,0.3-0.3,0.4c-0.2,0.2-0.5,0.4-0.8,0.5l0,0
				c-0.3,0.1-0.6,0.1-0.9,0c-0.1,0-0.3-0.1-0.4-0.2l0,0c-0.1-0.1-0.3-0.2-0.4-0.3l-8.1-8.1c0.4-1.3,0.8-2.6,1.2-3.8l7.3,7.3
				c1-3.1,2.1-5.9,3.4-8.5l-7.1-7.1c0.6-1.1,1.2-2.1,1.9-3.2l7,7c1.6-2.7,3.3-5.1,5-7.3l-6.7-6.7c0.8-0.9,1.6-1.7,2.4-2.6l6.6,6.6
				c2.1-2.2,4.2-4.1,6.3-5.8l-6.3-6.3C607.2,266.6,608.2,265.9,609.2,265.3z" style="fill-rule:evenodd;clip-rule:evenodd;fill:#FF2E93;"/>
			<circle cx="590.1" cy="320.8" r="2.6" style="fill-rule:evenodd;clip-rule:evenodd;fill:#FF2E93;"/>
			<circle cx="581.2" cy="320.8" r="2.6" style="fill-rule:evenodd;clip-rule:evenodd;fill:#FF2E93;"/>
		</g>
		<g>
			<path d="M543.4,303.9c-0.2,0.3-0.6,0.5-0.9,0.4c-0.7-0.1-1.7-0.2-2.5-0.3c-0.5-0.1-0.8-0.5-0.8-1
				c0.1-1,0.3-2.6,0.4-3.8c0-0.3,0.2-0.6,0.5-0.7c0.3-0.1,0.6-0.1,0.9,0c1,0.6,2.5,1.4,3.4,1.9c0.2,0.1,0.4,0.3,0.4,0.6
				c0.1,0.2,0,0.5-0.1,0.7C544.3,302.4,543.7,303.3,543.4,303.9L543.4,303.9z" style="fill-rule:evenodd;clip-rule:evenodd;fill:#142664;"/>
			<path d="M643,339.5c-0.1,0.4-0.4,0.6-0.8,0.6c-0.4,0-1,0.1-1.4,0.1c-0.5,0-0.9-0.3-1-0.8c-0.1-0.6-0.2-1.4-0.3-2.1
				c0-0.3,0.1-0.6,0.3-0.8c0.2-0.2,0.6-0.3,0.9-0.2c0.7,0.2,1.5,0.4,2.1,0.6c0.2,0.1,0.4,0.2,0.6,0.5c0.1,0.2,0.1,0.5,0.1,0.7
				C643.3,338.6,643.1,339.1,643,339.5z" style="fill-rule:evenodd;clip-rule:evenodd;fill:#142664;"/>
			<path d="M529.6,293.6c-0.4,0-0.7-0.2-0.8-0.6c-0.2-0.4-0.4-0.9-0.5-1.3c-0.2-0.5,0-1,0.5-1.2
				c0.6-0.2,1.3-0.6,1.9-0.9c0.3-0.1,0.6-0.1,0.9,0.1c0.3,0.2,0.4,0.5,0.4,0.8c0,0.7,0,1.5,0,2.2c0,0.2-0.1,0.5-0.3,0.7
				c-0.2,0.2-0.4,0.3-0.7,0.3C530.6,293.6,530,293.6,529.6,293.6z" style="fill-rule:evenodd;clip-rule:evenodd;fill:#142664;"/>
			<path d="M628.1,350.4c0.1-0.1,0.2-0.2,0.3-0.3c0.1,0,0.3,0,0.4,0.1c0.8,0.6,2.4,1.9,3.3,2.7c0.1,0.1,0.2,0.3,0.2,0.5
				c0,0.2-0.2,0.3-0.4,0.4c-1.4,0.3-3.9,1-5.3,1.4c-0.2,0-0.4,0-0.5-0.2c-0.1-0.1-0.1-0.4-0.1-0.5
				C626.7,353.3,627.6,351.4,628.1,350.4L628.1,350.4z" style="fill-rule:evenodd;clip-rule:evenodd;fill:#142664;"/>
			<path d="M590.7,344.5c0,0.1-0.1,0.3-0.2,0.4c-0.1,0.1-0.3,0.1-0.4,0.1c-0.7-0.2-1.9-0.6-2.7-0.8
				c-0.2-0.1-0.3-0.2-0.3-0.4s0-0.4,0.2-0.5c0.8-0.6,2-1.5,2.9-2.2c0.2-0.1,0.4-0.1,0.5,0c0.2,0.1,0.3,0.3,0.3,0.5
				C590.8,342.4,590.7,343.7,590.7,344.5z" style="fill-rule:evenodd;clip-rule:evenodd;fill:#142664;"/>
			<path d="M559.6,275.6c-0.1-0.1-0.2-0.3-0.1-0.4c0-0.1,0.1-0.3,0.2-0.4c0.9-0.5,2.6-1.6,3.6-2.3
				c0.2-0.1,0.4-0.1,0.5,0c0.2,0.1,0.3,0.3,0.2,0.4c-0.1,1.4-0.2,4-0.3,5.5c0,0.2-0.1,0.4-0.3,0.4c-0.2,0.1-0.4,0-0.5-0.1
				C561.9,277.8,560.4,276.3,559.6,275.6z" style="fill-rule:evenodd;clip-rule:evenodd;fill:#142664;"/>
		</g>
	</g>
	<g>
		<path d="M400.3,297.3c170.7,0.4,309.2,139.2,309.2,310H400.3L400.3,297.3L400.3,297.3z" style="fill-rule:evenodd;clip-rule:evenodd;fill:#FF2E93;"/>
		<path d="M400.3,560.2c1.5,0.1,3,0.2,4.5,0.1c3.2-0.1,6.2-0.6,8.9-1.4c2.3-0.7,4.3-1.6,6-2.6c0.4-0.2,0.9-0.6,1.5-1
			l0,0l0,0l0,0c0.5-0.4,1.1-0.8,1.7-1.2l0,0c2.5-1.6,5.5-3,8.9-4c3.4-1,7.2-1.6,11.1-1.7c4-0.1,7.8,0.3,11.3,1.1
			c4.4,1,8.1,2.7,11.1,4.8c1.9,1.3,4.4,2.3,7.2,2.9c2.6,0.6,5.4,0.8,8.5,0.7c3-0.1,5.8-0.6,8.3-1.3c2.7-0.8,4.9-1.9,6.7-3.3l0.6-0.4
			c2.9-2.1,6.6-3.9,10.8-5.1c3.6-1,7.5-1.6,11.7-1.8c4.2-0.1,8.2,0.4,11.9,1.2c4.7,1.1,8.7,3,11.9,5.2l0.7,0.4
			c1.6,0.9,3.6,1.6,5.8,2.1c2.4,0.6,5.1,0.8,7.9,0.7c2.8-0.1,5.4-0.6,7.7-1.2c2.3-0.7,4.3-1.7,5.9-2.9l0.6-0.5
			c3.1-2.3,7-4.2,11.6-5.5c3.7-1.1,7.9-1.7,12.3-1.8c5.4-0.2,10.6,0.6,15,2c4,1.2,7.4,2.9,10.2,4.9l0.6,0.4c1.4,0.8,3.1,1.3,5,1.8
			c2.2,0.5,4.7,0.7,7.3,0.6c2.5-0.1,4.9-0.5,7.1-1.2c2-0.6,3.7-1.5,5-2.5c2.8-2.2,6.3-4.1,10.4-5.5c4.6-1.6,9.9-2.6,15.5-2.7
			c5.7-0.2,11.1,0.7,15.8,2.1c4.2,1.3,7.9,3.1,10.9,5.2c1.2,0.9,2.9,1.3,4.8,1.8c0.5,0.1,1.1,0.2,1.7,0.3c1.6,8.8,2.9,17.7,3.7,26.7
			c-5.3-0.3-10.3-1.2-14.7-2.8c-4.2-1.5-7.8-3.4-10.7-5.7c-1.2-1-2.8-1.8-4.6-2.3c-2.1-0.6-4.4-1.1-6.8-1.1c-2.5-0.1-4.8,0.1-7,0.6
			c-1.7,0.4-3.3,0.9-4.6,1.6l-0.8,0.5c-2.9,2-6.3,3.8-10.3,4.9c-4.6,1.3-9.8,2.2-15.4,2c-4.5-0.1-8.8-0.8-12.6-1.9
			c-5-1.5-9.3-3.6-12.6-6.1l-0.6-0.4c-1.3-0.9-3-1.7-4.9-2.3c-2.3-0.7-4.7-1.1-7.4-1.2c-2.7-0.1-5.2,0.1-7.6,0.6
			c-2.3,0.5-4.4,1.2-6,2.3c-2.7,1.9-6,3.6-9.9,4.7c-4.3,1.3-9.3,2-14.6,1.9c-4.3-0.1-8.4-0.7-12-1.8c-4.7-1.4-8.7-3.3-11.8-5.8
			l-0.6-0.5c-1.5-1.1-3.4-2-5.6-2.6c-2.4-0.7-5.1-1.2-8-1.3c-2.9-0.1-5.7,0.1-8.2,0.7c-2.3,0.5-4.4,1.3-6.1,2.3l-0.7,0.5
			c-3.1,2.1-7,3.9-11.5,5c-3.5,0.8-7.5,1.3-11.6,1.2c-4.1-0.1-8-0.7-11.4-1.7c-4.2-1.2-7.8-3-10.6-5.1l-0.7-0.5
			c-1.8-1.3-4.1-2.4-6.7-3.2c-2.6-0.8-5.5-1.3-8.6-1.4c-3.1-0.1-6.1,0.2-8.8,0.8c-3,0.7-5.6,1.7-7.6,3.1c-2.8,2-6.5,3.6-10.7,4.6
			c-3.4,0.8-7.1,1.2-11,1.1c-1.5,0-3-0.2-4.5-0.3L400.3,560.2L400.3,560.2z M400.3,501.4c1.5,0.1,3,0.2,4.5,0.1
			c3.2-0.1,6.2-0.6,8.9-1.4c2.3-0.7,4.3-1.6,6-2.6c0.4-0.2,0.9-0.6,1.5-1l0,0l0,0l0,0c0.5-0.4,1.1-0.8,1.7-1.2l0,0
			c2.5-1.6,5.5-3,8.9-4c3.4-1,7.2-1.6,11.1-1.7c4-0.1,7.8,0.3,11.3,1.1c4.4,1,8.1,2.7,11.1,4.8c1.9,1.3,4.4,2.3,7.2,2.9
			c2.6,0.6,5.4,0.8,8.5,0.7c3-0.1,5.8-0.6,8.3-1.3c2.7-0.8,4.9-1.9,6.7-3.3l0.6-0.4c2.9-2.1,6.6-3.9,10.8-5.1
			c3.6-1,7.5-1.6,11.7-1.8c4.2-0.1,8.2,0.4,11.9,1.2c4.7,1.1,8.7,3,11.9,5.2l0.7,0.4c1.6,0.9,3.6,1.6,5.8,2.1
			c2.4,0.6,5.1,0.8,7.9,0.7c2.8-0.1,5.4-0.6,7.7-1.2c2.3-0.7,4.3-1.7,5.9-2.9l0.6-0.5c3.1-2.3,7-4.2,11.6-5.5
			c3.7-1.1,7.9-1.7,12.3-1.8c5.4-0.2,10.6,0.6,15,2c4,1.2,7.4,2.9,10.2,4.9l0.6,0.4c1.4,0.8,3.1,1.3,5,1.8c2.2,0.5,4.7,0.7,7.3,0.6
			c2.5-0.1,4.9-0.5,7.1-1.2c2-0.6,3.7-1.5,5-2.5c2.8-2.2,6.3-4.1,10.4-5.5c4.6-1.6,9.9-2.6,15.5-2.7c4.5-0.1,8.8,0.4,12.6,1.3
			c4.7,10.7,8.7,21.7,12.2,32.9c-0.9-0.3-1.8-0.5-2.6-0.8c-4.2-1.5-7.8-3.4-10.7-5.7c-1.2-1-2.8-1.8-4.6-2.3
			c-2.1-0.6-4.4-1.1-6.8-1.1c-2.5-0.1-4.8,0.1-7,0.6c-1.7,0.4-3.3,0.9-4.6,1.6l-0.8,0.5c-2.9,2-6.3,3.8-10.3,4.9
			c-4.6,1.3-9.8,2.2-15.4,2c-4.5-0.1-8.8-0.8-12.6-1.9c-5-1.5-9.3-3.6-12.6-6.1l-0.6-0.4c-1.3-0.9-3-1.7-4.9-2.3
			c-2.3-0.7-4.7-1.1-7.4-1.2c-2.7-0.1-5.2,0.1-7.6,0.6c-2.3,0.5-4.4,1.2-6,2.3c-2.7,1.9-6,3.6-9.9,4.7c-4.3,1.3-9.3,2-14.6,1.9
			c-4.3-0.1-8.4-0.7-12-1.8c-4.7-1.4-8.7-3.3-11.8-5.8l-0.6-0.5c-1.5-1.1-3.4-2-5.6-2.6c-2.4-0.7-5.1-1.2-8-1.3
			c-2.9-0.1-5.7,0.1-8.2,0.7c-2.3,0.5-4.4,1.3-6.1,2.3l-0.7,0.5c-3.1,2.1-7,3.9-11.5,5c-3.5,0.8-7.5,1.3-11.6,1.2
			c-4.1-0.1-8-0.7-11.4-1.7c-4.2-1.2-7.8-3-10.6-5.1l-0.7-0.5c-1.8-1.3-4.1-2.4-6.7-3.2c-2.6-0.8-5.5-1.3-8.6-1.4
			c-3.1-0.1-6.1,0.2-8.8,0.8c-3,0.7-5.6,1.7-7.6,3.1c-2.8,2-6.5,3.6-10.7,4.6c-3.4,0.8-7.1,1.2-11,1.1c-1.5,0-3-0.2-4.5-0.3
			L400.3,501.4L400.3,501.4z M400.3,440c1.5,0.1,3,0.2,4.5,0.1c3.2-0.1,6.2-0.6,8.9-1.4c2.3-0.7,4.3-1.6,6-2.6
			c0.4-0.2,0.9-0.6,1.5-1l0,0l0,0l0,0c0.5-0.4,1.1-0.8,1.7-1.2l0,0c2.5-1.6,5.5-3,8.9-4c3.4-1,7.2-1.6,11.1-1.7
			c4-0.1,7.8,0.3,11.3,1.1c4.4,1,8.1,2.7,11.1,4.8c1.9,1.3,4.4,2.3,7.2,2.9c2.6,0.6,5.4,0.8,8.5,0.7c3-0.1,5.8-0.6,8.3-1.3
			c2.7-0.8,4.9-1.9,6.7-3.3l0.6-0.4c2.9-2.1,6.6-3.9,10.8-5.1c3.6-1,7.5-1.6,11.7-1.8c4.2-0.1,8.2,0.4,11.9,1.2
			c4.7,1.1,8.7,3,11.9,5.2l0.7,0.4c1.6,0.9,3.6,1.6,5.8,2.1c2.4,0.6,5.1,0.8,7.9,0.7c2.8-0.1,5.4-0.6,7.7-1.2
			c2.3-0.7,4.3-1.7,5.9-2.9l0.6-0.5c3.1-2.3,7-4.2,11.6-5.5c3.7-1.1,7.9-1.7,12.3-1.8c5.4-0.2,10.6,0.6,15,2c4,1.2,7.4,2.9,10.2,4.9
			l0.6,0.4c1.4,0.8,3.1,1.3,5,1.8c2.2,0.5,4.7,0.7,7.3,0.6c2.5-0.1,4.9-0.5,7.1-1.2c2-0.6,3.7-1.5,5-2.5c1.6-1.3,3.5-2.4,5.5-3.5
			c4.7,6.5,9.1,13.1,13.3,20c-1.7,0.4-3.2,0.8-4.5,1.5l-0.8,0.5c-2.9,2-6.3,3.8-10.3,4.9c-4.6,1.3-9.8,2.2-15.4,2
			c-4.5-0.1-8.8-0.8-12.6-1.9c-5-1.5-9.3-3.6-12.6-6.1l-0.6-0.4c-1.3-0.9-3-1.7-4.9-2.3c-2.3-0.7-4.7-1.1-7.4-1.2
			c-2.7-0.1-5.2,0.1-7.6,0.6c-2.3,0.5-4.4,1.2-6,2.3c-2.7,1.9-6,3.6-9.9,4.7c-4.3,1.3-9.3,2-14.6,1.9c-4.3-0.1-8.4-0.7-12-1.8
			c-4.7-1.4-8.7-3.3-11.8-5.8l-0.6-0.5c-1.5-1.1-3.4-2-5.6-2.6c-2.4-0.7-5.1-1.2-8-1.3c-2.9-0.1-5.7,0.1-8.2,0.7
			c-2.3,0.5-4.4,1.3-6.1,2.3L504,444c-3.1,2.1-7,3.9-11.5,5c-3.5,0.8-7.5,1.3-11.6,1.2c-4.1-0.1-8-0.7-11.4-1.7
			c-4.2-1.2-7.8-3-10.6-5.1l-0.7-0.5c-1.8-1.3-4.1-2.4-6.7-3.2c-2.6-0.8-5.5-1.3-8.6-1.4c-3.1-0.1-6.1,0.2-8.8,0.8
			c-3,0.7-5.6,1.7-7.6,3.1c-2.8,2-6.5,3.6-10.7,4.6c-3.4,0.8-7.1,1.2-11,1.1c-1.5,0-3-0.2-4.5-0.3L400.3,440L400.3,440z
			 M591.6,364.1c11.8,9.3,22.8,19.4,33.1,30.3c-1.4-0.3-2.8-0.6-4.2-1c-5-1.5-9.3-3.6-12.6-6.1l-0.6-0.4c-1.3-0.9-3-1.7-4.9-2.3
			c-2.3-0.7-4.7-1.1-7.4-1.2c-2.7-0.1-5.2,0.1-7.6,0.6c-2.3,0.5-4.4,1.2-6,2.3c-2.7,1.9-6,3.6-9.9,4.7c-4.3,1.3-9.3,2-14.6,1.9
			c-4.3-0.1-8.4-0.7-12-1.8c-4.7-1.4-8.7-3.3-11.8-5.8l-0.6-0.5c-1.5-1.1-3.4-2-5.6-2.6c-2.4-0.7-5.1-1.2-8-1.3
			c-2.9-0.1-5.7,0.1-8.2,0.7c-2.3,0.5-4.4,1.3-6.1,2.3l-0.7,0.5c-3.1,2.1-7,3.9-11.5,5c-3.5,0.8-7.5,1.3-11.6,1.2
			c-4.1-0.1-8-0.7-11.4-1.7c-4.2-1.2-7.8-3-10.6-5.1l-0.7-0.5c-1.8-1.3-4.1-2.4-6.7-3.2c-2.6-0.8-5.5-1.3-8.6-1.4
			c-3.1-0.1-6.1,0.2-8.8,0.8c-3,0.7-5.6,1.7-7.6,3.1c-2.8,2-6.5,3.6-10.7,4.6c-3.4,0.8-7.1,1.2-11,1.1c-1.5,0-3-0.2-4.5-0.3v-7.4
			c1.5,0.1,3,0.2,4.5,0.1c3.2-0.1,6.2-0.6,8.9-1.4c2.3-0.7,4.3-1.6,6-2.6c0.4-0.2,0.9-0.6,1.5-1l0,0l0,0l0,0
			c0.5-0.4,1.1-0.8,1.7-1.2l0,0c2.5-1.6,5.5-3,8.9-4c3.4-1,7.2-1.6,11.1-1.7c4-0.1,7.8,0.3,11.3,1.1c4.4,1,8.1,2.7,11.1,4.8
			c1.9,1.3,4.4,2.3,7.2,2.9c2.6,0.6,5.4,0.8,8.5,0.7c3-0.1,5.8-0.6,8.3-1.3c2.7-0.8,4.9-1.9,6.7-3.3l0.6-0.4
			c2.9-2.1,6.6-3.9,10.8-5.1c3.6-1,7.5-1.6,11.7-1.8c4.2-0.1,8.2,0.4,11.9,1.2c4.7,1.1,8.7,3,11.9,5.2l0.7,0.4
			c1.6,0.9,3.6,1.6,5.8,2.1c2.4,0.6,5.1,0.8,7.9,0.7c2.8-0.1,5.4-0.6,7.7-1.2c2.3-0.7,4.3-1.7,5.9-2.9l0.6-0.5
			c3.1-2.3,7-4.2,11.6-5.5C585.5,364.9,588.5,364.3,591.6,364.1L591.6,364.1z" style="fill-rule:evenodd;clip-rule:evenodd;fill:#FFFFFF;"/>
	</g>
	<path d="M399.3,299.4C229.4,299.9,91.6,437.6,91.6,607.3h307.7V299.4L399.3,299.4z" style="fill-rule:evenodd;clip-rule:evenodd;fill:#FFFFFF;"/>
	<path d="M400.3,299.2v308.1H91.5c0-170,138-308.1,308.1-308.1L400.3,299.2L400.3,299.2z" style="fill:none;stroke:#00E6B3;stroke-width:3.8352;stroke-linecap:round;stroke-linejoin:round;stroke-miterlimit:1.4382;"/>
	<g>
		<path d="M195,372.9c-11.1-3.7-18.7-14.1-18.7-25.9V216.3c0-13.3,8.9-25,21.7-28.5c1.7-0.5,3.5-1,5.2-1.5
			c12.8-3.6,21.7-15.2,21.7-28.5v-2.1c0-7.9,3.1-15.4,8.7-21c5.6-5.6,13.1-8.7,21-8.7c8.5,0,17.9,0,26.4,0c7.9,0,15.4,3.1,21,8.7
			c5.6,5.6,8.7,13.1,8.7,21v25.1c0,11.5,6.6,21.9,17,26.8c1.3,0.6,2.6,1.2,3.9,1.8c10.4,4.9,17,15.3,17,26.8v112.6
			c0,10.5-5.9,20.1-15.3,24.8c-0.8,0.4-1.6,0.8-2.4,1.2c-5.1,2.6-9,7.1-10.6,12.6c0,0,0,0,0,0c-3.1,10.6-12.9,17.8-23.9,17.8
			c-16.9,0-41.8,0-58.3,0c-10.7,0-20.6-5.8-25.8-15.1c-1.1-2-2.2-3.9-3.2-5.7C205.9,379,201,374.9,195,372.9
			C195,372.9,195,372.9,195,372.9L195,372.9z" style="fill-rule:evenodd;clip-rule:evenodd;fill:#00E6B3;"/>
		<path d="M291.5,309.9l-5.2,5.4c-0.7,0.7-0.7,1.8,0.1,2.5c0.7,0.7,1.8,0.7,2.5-0.1l5.2-5.4c0.7-0.7,0.7-1.8-0.1-2.5
			C293.3,309.2,292.2,309.2,291.5,309.9z" style="fill-rule:evenodd;clip-rule:evenodd;fill:#FFFFFF;"/>
		<path d="M278.7,220.2l-5.2,5.4c-0.7,0.7-0.7,1.8,0.1,2.5c0.7,0.7,1.8,0.7,2.5-0.1l5.2-5.4c0.7-0.7,0.7-1.8-0.1-2.5
			C280.5,219.5,279.4,219.5,278.7,220.2z" style="fill-rule:evenodd;clip-rule:evenodd;fill:#FFFFFF;"/>
		<path d="M227.4,229.8l5.2,5.4c0.7,0.7,1.8,0.7,2.5,0.1c0.7-0.7,0.7-1.8,0.1-2.5l-5.2-5.4c-0.7-0.7-1.8-0.7-2.5-0.1
			C226.7,228,226.7,229.1,227.4,229.8z" style="fill-rule:evenodd;clip-rule:evenodd;fill:#FFFFFF;"/>
		<path d="M203.5,337.4l5.2,5.4c0.7,0.7,1.8,0.7,2.5,0.1c0.7-0.7,0.7-1.8,0.1-2.5l-5.2-5.4c-0.7-0.7-1.8-0.7-2.5-0.1
			C202.9,335.6,202.9,336.7,203.5,337.4z" style="fill-rule:evenodd;clip-rule:evenodd;fill:#FFFFFF;"/>
		<path d="M243.6,151.5l5.2,5.4c0.7,0.7,1.8,0.7,2.5,0.1c0.7-0.7,0.7-1.8,0.1-2.5l-5.2-5.4c-0.7-0.7-1.8-0.7-2.5-0.1
			C243,149.7,242.9,150.8,243.6,151.5z" style="fill-rule:evenodd;clip-rule:evenodd;fill:#FFFFFF;"/>
		<path d="M303.8,377.1l-5.2,5.4c-0.7,0.7-0.7,1.8,0.1,2.5c0.7,0.7,1.8,0.7,2.5-0.1l5.2-5.4c0.7-0.7,0.7-1.8-0.1-2.5
			C305.6,376.4,304.5,376.4,303.8,377.1z" style="fill-rule:evenodd;clip-rule:evenodd;fill:#FFFFFF;"/>
		<path d="M319.7,245.1l-5.2,5.4c-0.7,0.7-0.7,1.8,0.1,2.5c0.7,0.7,1.8,0.7,2.5-0.1l5.2-5.4c0.7-0.7,0.7-1.8-0.1-2.5
			C321.5,244.4,320.4,244.4,319.7,245.1L319.7,245.1z" style="fill-rule:evenodd;clip-rule:evenodd;fill:#FFFFFF;"/>
		<path d="M295.9,294.9l-2.6,2.7c-0.7,0.7-0.7,1.8,0.1,2.5c0.7,0.7,1.8,0.7,2.5-0.1l2.6-2.7c0.7-0.7,0.7-1.8-0.1-2.5
			C297.6,294.2,296.5,294.2,295.9,294.9z" style="fill-rule:evenodd;clip-rule:evenodd;fill:#FFFFFF;"/>
		<path d="M281.3,201.3l-2.6,2.7c-0.7,0.7-0.7,1.8,0.1,2.5c0.7,0.7,1.8,0.7,2.5-0.1l2.6-2.7c0.7-0.7,0.7-1.8-0.1-2.5
			C283.1,200.6,282,200.6,281.3,201.3z" style="fill-rule:evenodd;clip-rule:evenodd;fill:#FFFFFF;"/>
		<path d="M295,164.9l-2.6,2.7c-0.7,0.7-0.7,1.8,0.1,2.5c0.7,0.7,1.8,0.7,2.5-0.1l2.6-2.7c0.7-0.7,0.7-1.8-0.1-2.5
			C296.8,164.2,295.7,164.2,295,164.9z" style="fill-rule:evenodd;clip-rule:evenodd;fill:#FFFFFF;"/>
		<path d="M212,237.8l2.6,2.7c0.7,0.7,1.8,0.7,2.5,0.1c0.7-0.7,0.7-1.8,0.1-2.5l-2.6-2.7c-0.7-0.7-1.8-0.7-2.5-0.1
			C211.4,236,211.4,237.1,212,237.8z" style="fill-rule:evenodd;clip-rule:evenodd;fill:#FFFFFF;"/>
		<path d="M210.4,361.8l2.6,2.7c0.7,0.7,1.8,0.7,2.5,0.1c0.7-0.7,0.7-1.8,0.1-2.5l-2.6-2.7c-0.7-0.7-1.8-0.7-2.5-0.1
			C209.8,360,209.8,361.1,210.4,361.8z" style="fill-rule:evenodd;clip-rule:evenodd;fill:#FFFFFF;"/>
		<path d="M224.5,194.3l2.6,2.7c0.7,0.7,1.8,0.7,2.5,0.1c0.7-0.7,0.7-1.8,0.1-2.5l-2.6-2.7c-0.7-0.7-1.8-0.7-2.5-0.1
			C223.8,192.4,223.8,193.5,224.5,194.3L224.5,194.3z" style="fill-rule:evenodd;clip-rule:evenodd;fill:#FFFFFF;"/>
		<path d="M232.7,291.1l2.6,2.7c0.7,0.7,1.8,0.7,2.5,0.1c0.7-0.7,0.7-1.8,0.1-2.5l-2.6-2.7c-0.7-0.7-1.8-0.7-2.5-0.1
			C232,289.3,232,290.4,232.7,291.1L232.7,291.1z" style="fill-rule:evenodd;clip-rule:evenodd;fill:#FFFFFF;"/>
		<path d="M321,228.7l-2.6,2.7c-0.7,0.7-0.7,1.8,0.1,2.5c0.7,0.7,1.8,0.7,2.5-0.1l2.6-2.7c0.7-0.7,0.7-1.8-0.1-2.5
			C322.8,228,321.7,228,321,228.7z" style="fill-rule:evenodd;clip-rule:evenodd;fill:#FFFFFF;"/>
		<path d="M324.1,300.7l-2.6,2.7c-0.7,0.7-0.7,1.8,0.1,2.5c0.7,0.7,1.8,0.7,2.5-0.1l2.6-2.7c0.7-0.7,0.7-1.8-0.1-2.5
			C325.9,300,324.7,300,324.1,300.7z" style="fill-rule:evenodd;clip-rule:evenodd;fill:#FFFFFF;"/>
	</g>
	<g>
		<path d="M254.7,339.3c0.1-6.4,0.3-12.8,0.5-19.1c1.2-30.2,3-56.7,3-56.7c0-2.3,1.9-4.2,4.2-4.2c2.3,0,4.2,1.9,4.2,4.2
			c0,0,1.9,26.5,3,56.7c0.3,8.4,0.5,17,0.6,25.5c0.1,7.1,0.2,14.1,0.3,20.6c2.8-2.7,5.9-5.7,9.1-8.7c3.2-3,6.5-6.1,9.8-9
			c11.9-10.5,22.7-19.1,22.7-19.1c1.4-1.4,3.6-1.4,5,0c1.4,1.4,1.4,3.6,0,5c0,0-8.6,10.8-19.1,22.7c-2.9,3.3-6,6.6-9,9.8
			c-7.3,7.8-14.3,14.9-18.3,18.9c0.1,11.8,0.1,19.4,0.1,19.4V548c0,4.6-3.8,8.4-8.4,8.4c-4.6,0-8.4-3.8-8.4-8.4V405.2
			c0,0,0-20.8,0.4-46.5c-4-4.1-11.6-11.8-19.6-20.2c-3.2-3.3-6.4-6.8-9.5-10.2c-11-12.4-20.1-23.7-20.1-23.7c-1.4-1.4-1.4-3.6,0-5
			c1.4-1.4,3.6-1.4,5,0c0,0,8.2,6.6,18.3,15.3c1-0.9,2.7-2.5,4.6-4.1c0.8-0.7,1.7-1.4,2.6-2c3.4-2.2,6.5-3.5,6.5-3.5
			c1.1-1.1,2.9-1.1,4.1,0c1.1,1.1,1.1,2.9,0,4.1c0,0-1.3,3-3.5,6.5c-0.6,0.9-1.3,1.7-2,2.6c-1.4,1.6-2.7,3.1-3.7,4.1
			c2.4,2.2,4.7,4.4,7.1,6.6C247.9,332.7,251.5,336.2,254.7,339.3L254.7,339.3z" style="fill-rule:evenodd;clip-rule:evenodd;fill:#142664;"/>
		<path d="M261.1,489.4v-3.7c0-1-0.8-1.8-1.8-1.8s-1.8,0.8-1.8,1.8v3.7c0,1,0.8,1.8,1.8,1.8S261.1,490.3,261.1,489.4z" style="fill-rule:evenodd;clip-rule:evenodd;fill:#00E6B3;"/>
		<path d="M241.5,332.2l-2.6-2.6c-0.7-0.7-1.8-0.7-2.5,0c-0.7,0.7-0.7,1.8,0,2.5l2.6,2.6c0.7,0.7,1.8,0.7,2.5,0
			C242.2,334,242.2,332.9,241.5,332.2z" style="fill-rule:evenodd;clip-rule:evenodd;fill:#00E6B3;"/>
		<path d="M265.9,418.2v-3.7c0-1-0.8-1.8-1.8-1.8c-1,0-1.8,0.8-1.8,1.8v3.7c0,1,0.8,1.8,1.8,1.8
			C265.1,420,265.9,419.2,265.9,418.2z" style="fill-rule:evenodd;clip-rule:evenodd;fill:#00E6B3;"/>
		<path d="M264.6,474.4v-1.3c0-1-0.8-1.8-1.8-1.8c-1,0-1.8,0.8-1.8,1.8v1.3c0,1,0.8,1.8,1.8,1.8
			C263.9,476.2,264.6,475.4,264.6,474.4z" style="fill-rule:evenodd;clip-rule:evenodd;fill:#00E6B3;"/>
		<path d="M284.4,365.5l0.9-0.9c0.7-0.7,0.7-1.8,0-2.5c-0.7-0.7-1.8-0.7-2.5,0l-0.9,0.9c-0.7,0.7-0.7,1.8,0,2.5
			C282.6,366.2,283.7,366.2,284.4,365.5z" style="fill-rule:evenodd;clip-rule:evenodd;fill:#00E6B3;"/>
		<path d="M270.5,361.3c0,1.7,0,3.3,0.1,5c0.3-0.3,0.6-0.6,1-0.9l-3.7,3.8c-0.7,0.7-1.8,0.7-2.5,0.1
			c-0.7-0.7-0.7-1.8-0.1-2.5L270.5,361.3z" style="fill-rule:evenodd;clip-rule:evenodd;fill:#00E6B3;"/>
	</g>
	<g>
		<path d="M159.4,539.3c0.6-1.1,1-2.3,1.3-3.6c5.2-24.1,26.7-42.2,52.3-42.2c25.5,0,46.9,17.9,52.2,41.7
			c1.4,6.3,6.7,11.1,13.1,11.8c28.5,3.4,52.3,30.2,52.3,58.8c0,0.5,0,1,0,1.4H115.9c0.1-25.3,13.7-47.4,33.9-59.7
			c5.8-3.3,13-6.3,21.6-8.1c1-0.2,1.6-1.1,1.4-2.1c-0.2-1-1.1-1.6-2.1-1.4C166.6,536.9,162.9,538,159.4,539.3L159.4,539.3z" style="fill-rule:evenodd;clip-rule:evenodd;fill:#00E6B3;"/>
		<path d="M183.4,528.9l5.2,5.4c0.7,0.7,1.8,0.7,2.5,0.1c0.7-0.7,0.7-1.8,0.1-2.5l-5.2-5.4c-0.7-0.7-1.8-0.7-2.5-0.1
			C182.8,527.1,182.8,528.2,183.4,528.9L183.4,528.9z" style="fill-rule:evenodd;clip-rule:evenodd;fill:#FFFFFF;"/>
		<path d="M131.8,592.7l5.2,5.4c0.7,0.7,1.8,0.7,2.5,0.1c0.7-0.7,0.7-1.8,0.1-2.5l-5.2-5.4c-0.7-0.7-1.8-0.7-2.5-0.1
			C131.2,590.9,131.1,592,131.8,592.7z" style="fill-rule:evenodd;clip-rule:evenodd;fill:#FFFFFF;"/>
		<path d="M254.3,552.5l-5.2,5.4c-0.7,0.7-0.7,1.8,0.1,2.5c0.7,0.7,1.8,0.7,2.5-0.1l5.2-5.4c0.7-0.7,0.7-1.8-0.1-2.5
			C256.1,551.8,255,551.8,254.3,552.5L254.3,552.5z" style="fill-rule:evenodd;clip-rule:evenodd;fill:#FFFFFF;"/>
		<path d="M186.3,595l5.2,5.4c0.7,0.7,1.8,0.7,2.5,0.1c0.7-0.7,0.7-1.8,0.1-2.5l-5.2-5.4c-0.7-0.7-1.8-0.7-2.5-0.1
			C185.7,593.2,185.6,594.3,186.3,595L186.3,595z" style="fill-rule:evenodd;clip-rule:evenodd;fill:#FFFFFF;"/>
		<path d="M241.8,529.3l-5.2,5.4c-0.7,0.7-0.7,1.8,0.1,2.5c0.7,0.7,1.8,0.7,2.5-0.1l5.2-5.4c0.7-0.7,0.7-1.8-0.1-2.5
			C243.6,528.6,242.5,528.6,241.8,529.3L241.8,529.3z" style="fill-rule:evenodd;clip-rule:evenodd;fill:#FFFFFF;"/>
		<path d="M188.6,516.6l2.6,2.7c0.7,0.7,1.8,0.7,2.5,0.1c0.7-0.7,0.7-1.8,0.1-2.5l-2.6-2.7c-0.7-0.7-1.8-0.7-2.5-0.1
			C188,514.8,187.9,515.9,188.6,516.6L188.6,516.6z" style="fill-rule:evenodd;clip-rule:evenodd;fill:#FFFFFF;"/>
		<path d="M136.8,573.5l2.6,2.7c0.7,0.7,1.8,0.7,2.5,0.1c0.7-0.7,0.7-1.8,0.1-2.5l-2.6-2.7c-0.7-0.7-1.8-0.7-2.5-0.1
			C136.1,571.6,136.1,572.8,136.8,573.5z" style="fill-rule:evenodd;clip-rule:evenodd;fill:#FFFFFF;"/>
		<path d="M242.4,516.4l-2.6,2.7c-0.7,0.7-0.7,1.8,0.1,2.5c0.7,0.7,1.8,0.7,2.5-0.1l2.6-2.7c0.7-0.7,0.7-1.8-0.1-2.5
			C244.2,515.7,243.1,515.7,242.4,516.4L242.4,516.4z" style="fill-rule:evenodd;clip-rule:evenodd;fill:#FFFFFF;"/>
		<path d="M226.7,502.8l-2.6,2.7c-0.7,0.7-0.7,1.8,0.1,2.5c0.7,0.7,1.8,0.7,2.5-0.1l2.6-2.7c0.7-0.7,0.7-1.8-0.1-2.5
			C228.5,502.1,227.4,502.1,226.7,502.8z" style="fill-rule:evenodd;clip-rule:evenodd;fill:#FFFFFF;"/>
		<path d="M146.2,593.5l2.6,2.7c0.7,0.7,1.8,0.7,2.5,0.1c0.7-0.7,0.7-1.8,0.1-2.5l-2.6-2.7c-0.7-0.7-1.8-0.7-2.5-0.1
			C145.5,591.7,145.5,592.8,146.2,593.5L146.2,593.5z" style="fill-rule:evenodd;clip-rule:evenodd;fill:#FFFFFF;"/>
		<path d="M240.1,593.5l-2.6,2.7c-0.7,0.7-0.7,1.8,0.1,2.5c0.7,0.7,1.8,0.7,2.5-0.1l2.6-2.7c0.7-0.7,0.7-1.8-0.1-2.5
			C241.9,592.8,240.8,592.8,240.1,593.5z" style="fill-rule:evenodd;clip-rule:evenodd;fill:#FFFFFF;"/>
		<path d="M256.2,576.7l-2.6,2.7c-0.7,0.7-0.7,1.8,0.1,2.5c0.7,0.7,1.8,0.7,2.5-0.1l2.6-2.7c0.7-0.7,0.7-1.8-0.1-2.5
			C258,576,256.9,576,256.2,576.7z" style="fill-rule:evenodd;clip-rule:evenodd;fill:#FFFFFF;"/>
		<path d="M289,587l-5.2,5.4c-0.7,0.7-0.7,1.8,0.1,2.5c0.7,0.7,1.8,0.7,2.5-0.1l5.2-5.4c0.7-0.7,0.7-1.8-0.1-2.5
			C290.8,586.2,289.7,586.3,289,587L289,587z" style="fill-rule:evenodd;clip-rule:evenodd;fill:#FFFFFF;"/>
		<path d="M284,567.7l-2.6,2.7c-0.7,0.7-0.7,1.8,0.1,2.5c0.7,0.7,1.8,0.7,2.5-0.1l2.6-2.7c0.7-0.7,0.7-1.8-0.1-2.5
			C285.8,567,284.7,567,284,567.7z" style="fill-rule:evenodd;clip-rule:evenodd;fill:#FFFFFF;"/>
	</g>
	<g>
		<path d="M213.4,530.2c3,0,5.5,1,5.5,5.9c0,4.9-2.5,11.8-5.5,11.8c-3,0-5.5-6.9-5.5-11.8
			C207.9,531.3,210.3,530.2,213.4,530.2z" style="fill-rule:evenodd;clip-rule:evenodd;fill:#142664;"/>
		<path d="M213.3,571.8c-3,0-5.5-1-5.5-5.9c0-4.9,2.5-11.8,5.5-11.8c3,0,5.5,6.9,5.5,11.8
			C218.8,570.8,216.4,571.8,213.3,571.8z" style="fill-rule:evenodd;clip-rule:evenodd;fill:#142664;"/>
		<path d="M198.2,535.9c2.2-2.2,4.6-3.2,8.1,0.3s6.6,10.1,4.5,12.2c-2.2,2.2-8.8-1-12.2-4.5
			C195,540.5,196,538.1,198.2,535.9L198.2,535.9z" style="fill-rule:evenodd;clip-rule:evenodd;fill:#FFFFFF;"/>
		<path d="M228.6,566.1c-2.2,2.2-4.6,3.2-8.1-0.3c-3.5-3.5-6.6-10.1-4.4-12.2c2.2-2.2,8.8,1,12.2,4.5
			C231.7,561.5,230.7,564,228.6,566.1z" style="fill-rule:evenodd;clip-rule:evenodd;fill:#FFFFFF;"/>
		<path d="M228.6,535.9c-2.2-2.2-4.6-3.2-8.1,0.3s-6.6,10.1-4.4,12.2c2.2,2.2,8.8-1,12.2-4.5
			C231.7,540.5,230.7,538.1,228.6,535.9L228.6,535.9z" style="fill-rule:evenodd;clip-rule:evenodd;fill:#FFFFFF;"/>
		<path d="M198.2,566.1c2.2,2.2,4.6,3.2,8.1-0.3c3.5-3.5,6.6-10.1,4.5-12.2c-2.2-2.2-8.8,1-12.2,4.5
			C195,561.5,196,564,198.2,566.1z" style="fill-rule:evenodd;clip-rule:evenodd;fill:#FFFFFF;"/>
		<path d="M234.4,551.1c0,3-1,5.5-5.9,5.5c-4.9,0-11.8-2.5-11.8-5.5c0-3,6.9-5.5,11.8-5.5
			C233.4,545.6,234.4,548,234.4,551.1z" style="fill-rule:evenodd;clip-rule:evenodd;fill:#142664;"/>
		<path d="M192.3,551.1c0,3,1,5.5,5.9,5.5c4.9,0,11.8-2.5,11.8-5.5c0-3-6.9-5.5-11.8-5.5
			C193.4,545.6,192.3,548,192.3,551.1z" style="fill-rule:evenodd;clip-rule:evenodd;fill:#142664;"/>
		<circle cx="213.4" cy="551" r="5.6" style="fill-rule:evenodd;clip-rule:evenodd;fill:#00E6B3;"/>
		<path d="M211.6,580.3V564c0-1,0.8-1.8,1.8-1.8s1.8,0.8,1.8,1.8v11.9l5.5-2.4c0.6-0.3,1.3-0.1,1.7,0.5
			c0.4,0.5,0.3,1.2-0.1,1.7l-7.1,7.9v23.7c0,1-0.8,1.8-1.8,1.8s-1.8-0.8-1.8-1.8v-15.4l-7.8-13.3c-0.3-0.5-0.2-1.2,0.2-1.7
			c0.4-0.4,1.1-0.5,1.7-0.2L211.6,580.3z" style="fill-rule:evenodd;clip-rule:evenodd;fill:#142664;"/>
	</g>
	<g>
		<path d="M172.6,591.3V564c0-1,0.8-1.8,1.8-1.8s1.8,0.8,1.8,1.8v43.3c0,1-0.8,1.8-1.8,1.8s-1.8-0.8-1.8-1.8v-6.7
			l-6.1-7.8c-0.3-0.4-0.4-1.1-0.1-1.5c0.3-0.5,0.8-0.8,1.4-0.7L172.6,591.3z" style="fill-rule:evenodd;clip-rule:evenodd;fill:#142664;"/>
		<g>
			<path d="M174.4,558.5c0.5-0.7,1.1-1.3,1.7-1.9c3.8-3.8,8.1-4.3,10.5-1.9c2.4,2.4,2,6.7-1.9,10.5
				c-0.6,0.6-1.2,1.1-1.9,1.7c0.7,0.5,1.3,1.1,1.9,1.7c3.8,3.8,4.3,8.1,1.9,10.5c-2.4,2.4-6.7,2-10.5-1.9c-0.6-0.6-1.1-1.2-1.7-1.9
				c-0.5,0.7-1.1,1.3-1.7,1.9c-3.8,3.8-8.1,4.3-10.5,1.9c-2.4-2.4-2-6.7,1.9-10.5c0.6-0.6,1.2-1.1,1.9-1.7c-0.7-0.5-1.3-1.1-1.9-1.7
				c-3.8-3.8-4.3-8.1-1.9-10.5c2.4-2.4,6.7-2,10.5,1.9C173.3,557.2,173.9,557.8,174.4,558.5z" style="fill-rule:evenodd;clip-rule:evenodd;fill:#FFFFFF;"/>
			<circle cx="174.4" cy="566.9" r="4.8" style="fill-rule:evenodd;clip-rule:evenodd;fill:#142664;"/>
		</g>
	</g>
	<g>
		<path d="M543.6,557.8c1.9,0,3.5,0.7,3.5,3.8c0,3.1-1.6,7.6-3.5,7.6c-1.9,0-3.5-4.4-3.5-7.6
			C540,558.5,541.6,557.8,543.6,557.8z" style="fill-rule:evenodd;clip-rule:evenodd;fill:#142664;"/>
		<path d="M553.3,561.5c-1.4-1.4-3-2-5.2,0.2s-4.2,6.5-2.8,7.8c1.4,1.4,5.6-0.6,7.8-2.8
			C555.3,564.5,554.7,562.9,553.3,561.5z" style="fill-rule:evenodd;clip-rule:evenodd;fill:#142664;"/>
		<path d="M559.3,593.5c-1.4,1.4-3,2-5.2-0.2c-2.2-2.2-4.2-6.5-2.8-7.8c1.4-1.4,5.6,0.6,7.8,2.8
			C561.3,590.6,560.7,592.2,559.3,593.5z" style="fill-rule:evenodd;clip-rule:evenodd;fill:#142664;"/>
		<path d="M530.1,571.2c0,1.9,0.7,3.5,3.8,3.5c3.1,0,7.6-1.6,7.6-3.5c0-1.9-4.4-3.5-7.6-3.5
			C530.7,567.7,530.1,569.3,530.1,571.2z" style="fill-rule:evenodd;clip-rule:evenodd;fill:#142664;"/>
		<path d="M535.2,592.7c0.6-1.2,1.4-2.3,2.4-3.3c0.6-0.6,1.3-1.3,1.9-1.9c1.7-1.7,2.6-3.9,2.6-6.3c0-3.2,0-6.9,0-6.9
			c0-1,0.8-1.8,1.8-1.8c1,0,1.8,0.8,1.8,1.8c0,0,0,3.7,0,6.9c0,3.3-1.3,6.4-3.6,8.8c-0.6,0.6-1.3,1.3-1.9,1.9
			c-1.7,1.7-2.6,3.9-2.6,6.3v7.3c0,1-0.8,1.8-1.8,1.8s-1.8-0.8-1.8-1.8v-5.2l-4.8-8.2c-0.3-0.5-0.2-1.2,0.2-1.7
			c0.4-0.4,1.1-0.5,1.7-0.2L535.2,592.7L535.2,592.7z" style="fill-rule:evenodd;clip-rule:evenodd;fill:#142664;"/>
		<circle cx="543.6" cy="571.2" r="3.6" style="fill-rule:evenodd;clip-rule:evenodd;fill:#142664;"/>
	</g>
	<path d="M571.1,607.3v-6.3c0-1-0.8-1.8-1.8-1.8c-1,0-1.8,0.8-1.8,1.8v6.3c0,1,0.8,1.8,1.8,1.8
		C570.3,609.1,571.1,608.3,571.1,607.3z" style="fill-rule:evenodd;clip-rule:evenodd;fill:#142664;"/>
	<path d="M658.6,607.3v-6.3c0-1-0.8-1.8-1.8-1.8s-1.8,0.8-1.8,1.8v6.3c0,1,0.8,1.8,1.8,1.8S658.6,608.3,658.6,607.3z" style="fill-rule:evenodd;clip-rule:evenodd;fill:#142664;"/>
	<path d="M578.3,607.3v-12.5c0-1-0.8-1.8-1.8-1.8c-1,0-1.8,0.8-1.8,1.8v12.5c0,1,0.8,1.8,1.8,1.8
		C577.5,609.1,578.3,608.3,578.3,607.3z" style="fill-rule:evenodd;clip-rule:evenodd;fill:#142664;"/>
	<g>
		<path d="M611.5,538.3c0.5,0.5,1.3,0.6,2,0.3c0.7-0.3,1.1-1,1.1-1.7c0-10.9,0-39.4,0-51.4c0-0.8,0.5-1.5,1.3-1.8
			c0.8-0.3,1.6,0,2.1,0.6c0.7,0.9,1.4,1.8,2.1,2.7c0.4,0.6,1.1,0.8,1.8,0.7c0.7-0.1,1.3-0.6,1.5-1.3c1-3.2,2.5-7.8,3.4-10.8
			c0.2-0.7,0.8-1.2,1.5-1.3s1.4,0.2,1.8,0.8c0.8,1.4,1.4,3,1.4,4.8v23.5c0,0.7,0.4,1.3,1,1.6c0.6,0.3,1.3,0.2,1.9-0.2c0,0,0,0,0,0
			c2.8-2.2,5.5-4.1,7.6-5.6c0.3-0.2,0.6-0.3,0.9-0.3c0.9-0.1,2.8-0.3,4.4-0.4c0.6-0.1,1.2,0.2,1.6,0.7c0.4,0.5,0.5,1.1,0.4,1.7
			c-0.6,2.3-1.5,5.4-1.8,6.4c-0.1,0.2-0.2,0.4-0.3,0.6c-1.2,1.7-2.7,3.7-4.2,5.7c-1.4,1.8-2.9,3.5-4.5,5.2c-2.3,2.6-4.6,5-6.5,7
			c-0.3,0.3-0.5,0.8-0.5,1.3c0,8.2,0,80.2,0,80.2c0,0.3-16.8,0.3-16.8,0v-45.5c0-0.5-0.2-1-0.5-1.3c-3.1-3.2-7.6-7.8-12.3-12.9
			c-2.3-2.4-4.6-4.9-6.7-7.5c-2.2-2.6-4.2-5.1-6-7.3c-0.2-0.2-0.3-0.5-0.4-0.7c-0.1-0.3-0.2-0.9-0.3-1.5c-0.2-0.8,0.1-1.6,0.8-2
			c0.7-0.4,1.5-0.4,2.1,0.1c1,0.7,2,1.5,3,2.2c0.5,0.4,1.2,0.4,1.7,0.1c0.6-0.3,0.9-0.9,0.8-1.5c0,0,0,0,0,0c0-0.7,0.3-1.3,0.9-1.6
			c0.6-0.3,1.3-0.2,1.8,0.2c1.4,1.1,2.8,2.3,4.2,3.5c2.5,2.1,5,4.5,7.5,6.7C611.3,538.1,611.4,538.2,611.5,538.3L611.5,538.3z" style="fill-rule:evenodd;clip-rule:evenodd;fill:#142664;"/>
		<path d="M614.3,560.4l7.2,7.5c0.7,0.7,0.7,1.8-0.1,2.5s-1.8,0.7-2.5-0.1l-4.3-4.4v-4.4
			C614.7,561.1,614.5,560.7,614.3,560.4L614.3,560.4z" style="fill-rule:evenodd;clip-rule:evenodd;fill:#142664;"/>
		<path d="M623.1,594.8v-3.7c0-1-0.8-1.8-1.8-1.8c-1,0-1.8,0.8-1.8,1.8v3.7c0,1,0.8,1.8,1.8,1.8
			C622.3,596.6,623.1,595.8,623.1,594.8z" style="fill-rule:evenodd;clip-rule:evenodd;fill:#FF2E93;"/>
		<path d="M623.1,521.8v-1.1c0-1-0.8-1.8-1.8-1.8c-1,0-1.8,0.8-1.8,1.8v1.1c0,1,0.8,1.8,1.8,1.8
			C622.3,523.5,623.1,522.7,623.1,521.8z" style="fill-rule:evenodd;clip-rule:evenodd;fill:#FF2E93;"/>
		<path d="M627.5,582.4V581c0-1-0.8-1.8-1.8-1.8c-1,0-1.8,0.8-1.8,1.8v1.3c0,1,0.8,1.8,1.8,1.8
			C626.7,584.1,627.5,583.3,627.5,582.4z" style="fill-rule:evenodd;clip-rule:evenodd;fill:#FF2E93;"/>
	</g>
	<g>
		<path d="M193,209.4c2-0.9,1.1,0.8,0.6,1.9l0,0c-3.9,7.2-6.1,15.5-6.1,24.2c0,10.9,3.4,21,9.3,29.3
			c4.6-0.3,7.1-1.7,11.9-3.9c4.7-2.2,14.8-4,17.6,3.1c0,0.1,0.1,0.1,0.1,0.2l0,0c0.3,0.8,1.2,3.9,0.1,8.5c-9.7,3-23,9.5-23,9.5
			c-3.2,1.5-6.6,2.3-10.2,2.3h-14.6c-3.1,0-6.2-0.6-9.1-1.8c-4.4-1.9-11-4.7-14.9-6.3c-2-0.8-4.1-1.3-6.3-1.3h-11.1
			c-1.9,0-3.7-0.6-5.3-1.6c-1.1-0.8-2.5-1.7-3.6-2.5c-0.4-0.3-0.5-0.7-0.4-1.2c0.1-0.4,0.5-0.7,1-0.7c7.1,0,23,0,23,0
			s3.6-1.1,10.8-2.2c-4.3-4-7.3-8.7-8.1-13.5c9.4,2.8,11.2,0,11.2,0c-13.4-7.9-11.2-21.8-11.2-21.8c4.6,7.9,13.1,9.5,13.1,9.5
			c-6.6-14,3-25.4,3-25.4c-0.6,12.1,4.9,16.1,4.9,16.1c2.8-13,11.4-19.4,16.2-22.1c0.1,0,0.1-0.1,0.2-0.1
			C192.5,209.6,192.7,209.5,193,209.4L193,209.4z" style="fill-rule:evenodd;clip-rule:evenodd;fill:#FFFFFF;"/>
		<path d="M200.6,264.3c0.6,0.9,1.5,2,2.3,2.7c0.8,0.6,0.9,1.7,0.3,2.5c-0.6,0.8-1.7,0.9-2.5,0.3
			c-1.6-1.3-3.2-3.6-4-4.9l0,0C198.2,264.8,199.4,264.6,200.6,264.3z" style="fill-rule:evenodd;clip-rule:evenodd;fill:#142664;"/>
		<path d="M226.4,264.3l8.9,3.9c0.5,0.2,0.8,0.7,0.8,1.3c0,0.5-0.4,1-1,1.1l-5.4,1.3c-1,0.2-2,0.5-3.1,0.9
			C227.6,268.3,226.7,265.2,226.4,264.3L226.4,264.3z" style="fill-rule:evenodd;clip-rule:evenodd;fill:#142664;"/>
		<path d="M148.3,273.5h0.2c2.4,0,4.8,0.5,7,1.4c3.8,1.6,10.5,4.4,14.9,6.3c0.9,0.4,1.3,1.4,0.9,2.3
			c-0.4,1.2-1.5,1.3-1.8,1.3c0,0-5.7,1.2-13.1,0.8c-4.1-0.2-8.6-0.9-12.9-2.3c-1-0.3-1.6-1.3-1.3-2.3c0.3-1,1.3-1.6,2.3-1.3
			c3.2,0.7,6.5,0.9,9.6,0.9c2,0,3.9,0,5.7-0.1l-5.6-2.4c-1.8-0.7-3.7-1.1-5.6-1.1c-3.2,0-8,0-11.1,0c-2.2,0-4.4-0.7-6.3-1.9
			c-1.1-0.8-2.5-1.7-3.6-2.5c-1-0.7-1.5-2-1.1-3.2c0.4-1.2,1.5-2,2.7-2h22.7c0.8-0.2,3.2-0.9,7.4-1.6c-3.3-3.7-5.5-7.9-6.2-12.1
			c-0.1-0.6,0.1-1.2,0.6-1.6c0.5-0.4,1.1-0.5,1.7-0.4c3.1,0.9,5.3,1.2,6.8,1.2c-11.2-8.7-9.1-21.5-9.1-21.5c0.1-0.7,0.7-1.3,1.4-1.5
			c0.7-0.1,1.5,0.2,1.9,0.8c2.4,4.2,6,6.4,8.6,7.5c-4.1-13.4,4.7-23.7,4.7-23.7c0.5-0.6,1.3-0.8,2-0.5c0.7,0.3,1.1,1,1.1,1.7
			c-0.2,7.8,3.7,13.8,4.8,16.2c0.4,0.9,0,1.9-0.9,2.4c-0.9,0.4-1.9,0-2.4-0.9c-0.2-0.4-0.5-0.9-0.9-1.6c-1.8,1.5-3.6,3.3-5,5.3
			c0.3,1,0.7,2,1.2,3.1c0.3,0.6,0.2,1.3-0.2,1.8c-0.4,0.5-1.1,0.8-1.7,0.7c0,0-0.8-0.1-2.1-0.6c-0.9,2.2-1.7,4.5-2.1,7.1
			c1,0.9,2.2,1.7,3.5,2.5c0.4,0.2,0.7,0.7,0.8,1.1s0,1-0.2,1.4c0,0-0.9,1.7-4.4,2c0.2,3.1,0.8,6.4,1.9,10c1.5,1.1,4.8,3.3,9.8,5.2
			c0.9,0.3,1.4,1.3,1.1,2.3s-1.3,1.4-2.3,1.1c-6-2.2-9.8-4.9-11.2-6.1c-6.5,1-9.8,2-9.8,2c-0.2,0-0.3,0.1-0.5,0.1h-3.7L148.3,273.5
			L148.3,273.5z M176.4,229.9c3.2-11.6,11.2-17.5,15.7-20c0.1,0,0.1-0.1,0.2-0.1c0.3-0.1,0.5-0.3,0.7-0.4c2-0.9,1.1,0.8,0.6,1.9l0,0
			c-2.4,4.4-4.1,9.1-5.1,14.2C184.8,225.9,180.5,227.3,176.4,229.9L176.4,229.9z" style="fill-rule:evenodd;clip-rule:evenodd;fill:#142664;"/>
		<circle cx="218.6" cy="264.7" r="2.1" style="fill-rule:evenodd;clip-rule:evenodd;fill:#142664;"/>
	</g>
	<g>
		<path d="M411.4,439.2c-7.6,0-13.8,15.8-13.8,35.3c0,19.5,6.2,35.3,13.8,35.3h-37.1c-2,0-4,0.3-5.9,0.9
			c-11.7,3.7-55.2,17.6-55.2,17.6c-0.6,0.2-1.3,0.5-1.8,0.9c-1.5,1.1-2.5,2.8-2.7,4.7c-1.9,18.4-3.8,36.8-5.7,55.2
			c-0.1,1,0,1.9,0.2,2.9l3.5,12.4h-14.8c0,0,7.4-66.6,9.2-82.5c0.2-2.1,1.5-4,3.3-5c4.7-2.6,13.8-7.7,18.7-10.4
			c2-1.1,3.3-3.2,3.3-5.5c0-7.5,0-23.7,0-23.7s-1.4,7.1-8.1,6.7c-7.5-0.5-6.9-8.2-6.9-8.2c0-12.1,8.7-22.9,20.2-25
			c0,0,51.1-9.6,60.2-11.3c0.9-0.2,1.8-0.3,2.8-0.3L411.4,439.2L411.4,439.2z" style="fill-rule:evenodd;clip-rule:evenodd;fill:#FFFFFF;"/>
		<path d="M303.1,591.2c0,0.2,0.1,0.5,0.2,0.7l3.5,12.4h-14.8l1.5-13.2H303.1L303.1,591.2z" style="fill-rule:evenodd;clip-rule:evenodd;fill:#142664;"/>
		<path d="M347.6,501.2l3.6-1.1c0.9-0.3,1.4-1.3,1.1-2.2c-0.3-0.9-1.3-1.4-2.2-1.1l-3.6,1.1c-0.9,0.3-1.4,1.3-1.1,2.2
			C345.6,501,346.6,501.5,347.6,501.2z" style="fill-rule:evenodd;clip-rule:evenodd;fill:#142664;"/>
		<path d="M368.8,460l3.6-1.1c0.9-0.3,1.4-1.3,1.1-2.2c-0.3-0.9-1.3-1.4-2.2-1.1l-3.6,1.1c-0.9,0.3-1.4,1.3-1.1,2.2
			C366.9,459.8,367.8,460.3,368.8,460z" style="fill-rule:evenodd;clip-rule:evenodd;fill:#142664;"/>
		<path d="M354,505.8l1.7-0.5c0.9-0.3,1.4-1.3,1.1-2.2c-0.3-0.9-1.3-1.4-2.2-1.1l-1.7,0.5c-0.9,0.3-1.4,1.3-1.1,2.2
			C352,505.6,353,506.1,354,505.8z" style="fill-rule:evenodd;clip-rule:evenodd;fill:#142664;"/>
		<path d="M357.8,491.4l1.7-0.5c0.9-0.3,1.4-1.3,1.1-2.2c-0.3-0.9-1.3-1.4-2.2-1.1l-1.7,0.5c-0.9,0.3-1.4,1.3-1.1,2.2
			C355.9,491.2,356.9,491.7,357.8,491.4z" style="fill-rule:evenodd;clip-rule:evenodd;fill:#142664;"/>
		<path d="M357.8,457.5l1.7-0.5c0.9-0.3,1.4-1.3,1.1-2.2c-0.3-0.9-1.3-1.4-2.2-1.1l-1.7,0.5c-0.9,0.3-1.4,1.3-1.1,2.2
			C355.9,457.3,356.9,457.8,357.8,457.5z" style="fill-rule:evenodd;clip-rule:evenodd;fill:#142664;"/>
		<path d="M366.8,512.1l2-2.1c0.7-0.7,1.8-0.8,2.5-0.1c0.7,0.7,0.8,1.8,0.1,2.5c0,0-18.5,19.9-26.3,28.3
			c-1.7,1.9-2.4,4.5-1.8,7c2.6,10.8,8.7,36,10,41.3c0.1,0.5,0.3,1,0.6,1.4c1.8,3.1,7.7,12.9,7.7,12.9c0.3,0.5,0.3,1.2,0,1.8
			c-0.3,0.6-0.9,0.9-1.5,0.9h-14.3c-0.8,0-1.5-0.6-1.7-1.4c0,0-11.1-47.4-14.4-61.4c-0.7-2.9-0.2-6,1.4-8.5
			c3.6-5.8,10.7-17.1,10.7-17.1c0.5-0.8,1.6-1.1,2.4-0.6c0.4,0.2,0.6,0.6,0.8,1L366.8,512.1L366.8,512.1z" style="fill-rule:evenodd;clip-rule:evenodd;fill:#142664;"/>
		<path d="M323.2,504.2c0.9-0.9,1.4-2,1.4-3.3v-17.3c-1.5,1.3-3.6,2.3-6.4,2.1c-8.7-0.6-8.6-9-8.5-10
			c0-12.9,9.4-24.4,21.6-26.7c0,0,51.1-9.6,60.2-11.3c1-0.2,2.1-0.3,3.1-0.3h16.8v3.5c-1.1,0-2.2,0.5-3.2,1.4
			c-1.2,1-2.3,2.6-3.4,4.5c-3.3,6.2-5.4,16.3-5.4,27.6s2.1,21.4,5.4,27.6c1,1.9,2.1,3.4,3.4,4.5c1,0.9,2.1,1.4,3.2,1.4
			c1,0,1.8,0.8,1.8,1.8c0,1-0.8,1.8-1.8,1.8h-37.1c-1.8,0-3.6,0.3-5.3,0.8c-11.7,3.7-55.2,17.6-55.2,17.6c-0.5,0.2-0.9,0.4-1.3,0.7
			c-1.1,0.8-1.8,2-2,3.4c-1.9,18.4-3.8,36.8-5.7,55.2c-0.1,0.8,0,1.5,0.2,2.2l3.5,12.4c0.1,0.5,0,1.1-0.3,1.5
			c-0.3,0.4-0.9,0.7-1.4,0.7h-14.8c-0.5,0-1-0.2-1.3-0.6c-0.3-0.4-0.5-0.9-0.4-1.4c0,0,7.4-66.6,9.2-82.5c0.3-2.7,1.9-5,4.2-6.3
			l10.2-5.7L323.2,504.2z M315.6,512.7l-10.3,5.7c-1.3,0.8-2.3,2.1-2.4,3.6l-9,80.5h10.5l-2.9-10.2c-0.3-1.1-0.4-2.3-0.3-3.5
			c1.9-18.4,3.8-36.8,5.7-55.2c0.2-2.4,1.5-4.5,3.4-5.9c0.7-0.5,1.5-0.9,2.3-1.1c0,0,0,0,0,0c0,0,43.5-13.9,55.2-17.6
			c2.1-0.7,4.2-1,6.4-1h30.2c-1-1.1-2-2.5-2.9-4.2c-3.5-6.6-5.9-17.3-5.9-29.3c0-12,2.3-22.7,5.9-29.3c0.9-1.7,1.9-3.1,2.9-4.2h-9.9
			c-0.8,0-1.6,0.1-2.4,0.2c-9.1,1.7-60.2,11.3-60.2,11.3c-10.7,2-18.8,12-18.8,23.3c0,0,0,0.1,0,0.1c0,0-0.5,5.9,5.2,6.3
			c4.7,0.3,6-4.2,6.2-5.1v-8.7c0-1,0.8-1.8,1.8-1.8c1,0,1.8,0.8,1.8,1.8v32.5c0,0.2,0,0.3,0,0.5l4.1-2.4c0.8-0.5,1.9-0.2,2.4,0.7
			c0.5,0.8,0.2,1.9-0.7,2.4l-8.7,5c-0.4,0.3-0.8,0.6-1.3,0.9L315.6,512.7L315.6,512.7z" style="fill-rule:evenodd;clip-rule:evenodd;fill:#142664;"/>
	</g>
	<path d="M70,609.1h659c1,0,1.8-0.8,1.8-1.8s-0.8-1.8-1.8-1.8H70c-1,0-1.8,0.8-1.8,1.8S69.1,609.1,70,609.1z" style="fill-rule:evenodd;clip-rule:evenodd;fill:#142664;"/>
	<g>
		<path d="M508,499.9c-0.2,0.3-0.6,0.5-1,0.5c-0.6-0.1-1.6-0.2-2.4-0.3c-0.5-0.1-0.9-0.6-0.9-1.1c0.1-1,0.3-2.4,0.4-3.6
			c0-0.3,0.2-0.6,0.5-0.8c0.3-0.2,0.7-0.1,1,0c1,0.6,2.4,1.3,3.2,1.8c0.2,0.1,0.4,0.4,0.5,0.6c0.1,0.3,0,0.5-0.1,0.8
			C508.8,498.5,508.3,499.4,508,499.9L508,499.9z" style="fill-rule:evenodd;clip-rule:evenodd;fill:#142664;"/>
		<path d="M438.5,418.6c-0.4-0.2-0.6-0.6-0.5-1c0-0.3,0-0.7,0.1-1c0-0.5,0.5-1,1-0.9c0.4,0,1,0,1.4,0.1
			c0.3,0,0.6,0.2,0.8,0.5c0.2,0.3,0.2,0.6,0,1c-0.2,0.5-0.5,0.9-0.7,1.4c-0.1,0.2-0.3,0.4-0.6,0.5c-0.3,0.1-0.5,0.1-0.8-0.1
			C439.1,418.9,438.8,418.7,438.5,418.6z" style="fill-rule:evenodd;clip-rule:evenodd;fill:#142664;"/>
		<path d="M492.2,592.9c-0.3-0.2-0.5-0.6-0.4-1c0.1-0.5,0.3-1.3,0.4-1.9c0.1-0.5,0.6-0.9,1.2-0.8
			c0.8,0.2,1.9,0.4,2.8,0.6c0.3,0.1,0.6,0.3,0.7,0.6c0.1,0.3,0.1,0.7-0.1,0.9c-0.5,0.8-1.2,1.8-1.7,2.5c-0.2,0.2-0.4,0.4-0.7,0.4
			c-0.3,0-0.5,0-0.8-0.2C493.2,593.7,492.6,593.2,492.2,592.9L492.2,592.9z" style="fill-rule:evenodd;clip-rule:evenodd;fill:#142664;"/>
		<path d="M532.7,462.4c-0.3-0.3-0.3-0.7-0.2-1.1c0.2-0.3,0.4-0.8,0.5-1.2c0.2-0.5,0.8-0.7,1.3-0.5
			c0.5,0.2,1.2,0.5,1.8,0.7c0.3,0.1,0.5,0.4,0.6,0.7c0.1,0.3,0,0.7-0.3,0.9c-0.5,0.5-1,1-1.4,1.4c-0.2,0.2-0.5,0.3-0.7,0.3
			c-0.3,0-0.5-0.1-0.7-0.3C533.3,463,533,462.6,532.7,462.4z" style="fill-rule:evenodd;clip-rule:evenodd;fill:#142664;"/>
		<path d="M512.9,488.5c0.3,0.4,0.9,0.6,1.3,0.3c0.6-0.3,1.3-0.8,2-1.1c0.3-0.1,0.4-0.4,0.5-0.7c0-0.3,0-0.6-0.2-0.8
			c-0.4-0.5-1-1.1-1.4-1.5c-0.3-0.4-0.9-0.4-1.3-0.1c-0.5,0.4-1.1,0.9-1.5,1.3c-0.4,0.3-0.5,0.9-0.2,1.3
			C512.3,487.6,512.6,488.1,512.9,488.5L512.9,488.5z" style="fill-rule:evenodd;clip-rule:evenodd;fill:#142664;"/>
		<path d="M444.9,406.7c-0.4,0.3-0.5,0.9-0.2,1.3c0.4,0.5,0.9,1.3,1.2,1.9c0.2,0.2,0.4,0.4,0.7,0.4
			c0.3,0,0.6-0.1,0.8-0.3c0.5-0.5,1-1,1.4-1.4c0.4-0.4,0.4-1,0-1.4c-0.4-0.4-1-1-1.4-1.5c-0.3-0.4-0.9-0.4-1.3-0.1
			C445.8,406,445.3,406.4,444.9,406.7L444.9,406.7z" style="fill-rule:evenodd;clip-rule:evenodd;fill:#142664;"/>
		<path d="M530.5,450.2c0.1,0.1,0.1,0.3,0.1,0.5c0,0.2-0.2,0.3-0.3,0.3c-0.9,0.4-2.7,1-3.9,1.4c-0.2,0.1-0.4,0-0.5-0.1
			c-0.1-0.1-0.2-0.3-0.2-0.5c0.4-1.3,1-3.7,1.4-5.1c0.1-0.2,0.2-0.3,0.4-0.4c0.2,0,0.4,0.1,0.5,0.2
			C528.8,447.6,529.9,449.4,530.5,450.2L530.5,450.2z" style="fill-rule:evenodd;clip-rule:evenodd;fill:#142664;"/>
		<path d="M438.5,381.2c0-0.2,0.2-0.3,0.3-0.3c0.1-0.1,0.3-0.1,0.5,0c0.9,0.5,2.6,1.4,3.6,1.9c0.2,0.1,0.3,0.3,0.3,0.5
			c0,0.2-0.1,0.4-0.3,0.5c-1.3,0.6-3.5,1.7-4.8,2.3c-0.2,0.1-0.4,0.1-0.6-0.1c-0.2-0.1-0.2-0.3-0.2-0.5
			C437.7,384.2,438.2,382.2,438.5,381.2L438.5,381.2z" style="fill-rule:evenodd;clip-rule:evenodd;fill:#142664;"/>
		<path d="M517.8,522.9c0.2,0,0.3,0,0.5,0.1c0.1,0.1,0.2,0.2,0.2,0.4c0,0.7,0.1,2,0.2,2.8c0,0.2-0.1,0.4-0.3,0.5
			c-0.2,0.1-0.4,0.1-0.6,0c-0.9-0.6-2.2-1.4-3.1-2c-0.2-0.1-0.3-0.3-0.2-0.5c0-0.2,0.2-0.4,0.4-0.4
			C515.8,523.5,517,523.1,517.8,522.9z" style="fill-rule:evenodd;clip-rule:evenodd;fill:#142664;"/>
	</g>
	<g>
		<path d="M416.3,606.8c3-4,4.9-10.2,4.9-17.2c0-7-1.9-13.2-4.9-17.2c-3-4-4.9-10.2-4.9-17.2s1.9-13.2,4.9-17.2
			c3-4,4.9-10.2,4.9-17.2c0-7-1.9-13.2-4.9-17.2c-3-4-4.9-10.2-4.9-17.2c0-7,1.9-13.2,4.9-17.2c3-4,4.9-10.2,4.9-17.2
			c0-7-1.9-13.2-4.9-17.2c-3-4-4.9-10.2-4.9-17.2c0-7,1.9-13.2,4.9-17.2c3-4,4.9-10.2,4.9-17.2c0-7-1.9-13.2-4.9-17.2
			c-3-4-4.9-10.2-4.9-17.2c0-7,1.9-13.2,4.9-17.2c3-4,4.9-10.2,4.9-17.2c0-12.1-3.8-16.8-16.8-16.8c-13,0-16.8,3.8-16.8,16.8
			c0,7-1.9,13.2-4.9,17.2c-3,4-4.9,10.2-4.9,17.2c0,7,1.9,13.2,4.9,17.2c3,4,4.9,10.2,4.9,17.2c0,7-1.9,13.2-4.9,17.2
			c-3,4-4.9,10.2-4.9,17.2c0,7,1.9,13.2,4.9,17.2c3,4,4.9,10.2,4.9,17.2c0,7-1.9,13.2-4.9,17.2c-3,4-4.9,10.2-4.9,17.2
			c0,7,1.9,13.2,4.9,17.2c3,4,4.9,10.2,4.9,17.2c0,7-1.9,13.2-4.9,17.2c-3,4-4.9,10.2-4.9,17.2s1.9,13.2,4.9,17.2
			c3,4,4.9,10.2,4.9,17.2c0,7-1.9,13.2-4.9,17.2L416.3,606.8L416.3,606.8z" style="fill-rule:evenodd;clip-rule:evenodd;fill:#142664;"/>
		<path d="M415.8,434c0.2,0.2,0.3,0.5,0.5,0.7c0.6,0.8,1.2,1.8,1.7,2.8h-1.8c-3.2,0-6.2,2.7-8.6,7.2
			c-3.6,6.7-5.9,17.6-5.9,29.8c0,12.2,2.3,23.1,5.9,29.8c2.4,4.5,5.4,7.2,8.6,7.2h3.7c0.3,1.1,0.6,2.3,0.7,3.5h-4.5
			c-4.2,0-8.5-3.1-11.7-9.1c-3.8-7.1-6.3-18.6-6.3-31.5c0-12.9,2.5-24.4,6.3-31.5C407.6,437.2,411.8,434.2,415.8,434L415.8,434z" style="fill-rule:evenodd;clip-rule:evenodd;fill:#FF2E93;"/>
		<path d="M400.7,510.8c-3.9-6.5-6.7-16.3-7.7-27.5c-0.1-1-0.9-1.7-1.9-1.6c-1,0.1-1.7,0.9-1.6,1.9
			c1,11.9,4.1,22.1,8.2,29c0.5,0.8,1.6,1.1,2.4,0.6C400.9,512.7,401.2,511.6,400.7,510.8L400.7,510.8z" style="fill-rule:evenodd;clip-rule:evenodd;fill:#FF2E93;"/>
		<path d="M392.6,474.5c0-2.5,0.1-4.9,0.3-7.2c0.1-1-0.7-1.8-1.6-1.9c-1-0.1-1.8,0.7-1.9,1.6c-0.2,2.4-0.3,4.9-0.3,7.5
			c0,1,0.8,1.8,1.8,1.8C391.8,476.3,392.6,475.5,392.6,474.5L392.6,474.5z" style="fill-rule:evenodd;clip-rule:evenodd;fill:#FF2E93;"/>
		<path d="M398.3,443c0.7-1.7,1.5-3.3,2.4-4.7c1.7-2.9,3.7-5.2,5.9-6.7c0.8-0.6,1-1.7,0.4-2.5c-0.6-0.8-1.7-1-2.5-0.4
			c-2.5,1.8-4.8,4.4-6.9,7.8c-0.9,1.5-1.8,3.3-2.6,5.1c-0.4,0.9,0,1.9,0.9,2.3C396.9,444.3,397.9,443.9,398.3,443L398.3,443z" style="fill-rule:evenodd;clip-rule:evenodd;fill:#FF2E93;"/>
		<path d="M406.6,521.8c0,0,4,2.5,8.9,1.4c1-0.2,1.6-1.1,1.4-2.1c-0.2-1-1.1-1.6-2.1-1.4c-3.5,0.7-6.3-1-6.3-1
			c-0.8-0.5-1.9-0.2-2.4,0.6C405.5,520.2,405.8,521.3,406.6,521.8L406.6,521.8z" style="fill-rule:evenodd;clip-rule:evenodd;fill:#FF2E93;"/>
		<path d="M396.3,306.2v-1.3c0-1,0.8-1.8,1.8-1.8c1,0,1.8,0.8,1.8,1.8v1.3h1.3c1,0,1.8,0.8,1.8,1.8c0,1-0.8,1.8-1.8,1.8
			h-1.3v1.3c0,1-0.8,1.8-1.8,1.8c-1,0-1.8-0.8-1.8-1.8v-1.3H395c-1,0-1.8-0.8-1.8-1.8c0-1,0.8-1.8,1.8-1.8H396.3z" style="fill-rule:evenodd;clip-rule:evenodd;fill:#FF2E93;"/>
		<path d="M399.4,380.2v-1.3c0-1,0.8-1.8,1.8-1.8c1,0,1.8,0.8,1.8,1.8v1.3h1.3c1,0,1.8,0.8,1.8,1.8c0,1-0.8,1.8-1.8,1.8
			H403v1.3c0,1-0.8,1.8-1.8,1.8c-1,0-1.8-0.8-1.8-1.8v-1.3h-1.3c-1,0-1.8-0.8-1.8-1.8c0-1,0.8-1.8,1.8-1.8H399.4z" style="fill-rule:evenodd;clip-rule:evenodd;fill:#FF2E93;"/>
		<path d="M388,419.4v-1.3c0-1,0.8-1.8,1.8-1.8c1,0,1.8,0.8,1.8,1.8v1.3h1.3c1,0,1.8,0.8,1.8,1.8c0,1-0.8,1.8-1.8,1.8
			h-1.3v1.3c0,1-0.8,1.8-1.8,1.8c-1,0-1.8-0.8-1.8-1.8V423h-1.3c-1,0-1.8-0.8-1.8-1.8c0-1,0.8-1.8,1.8-1.8H388z" style="fill-rule:evenodd;clip-rule:evenodd;fill:#FF2E93;"/>
		<path d="M388.8,546.2v-1.3c0-1,0.8-1.8,1.8-1.8c1,0,1.8,0.8,1.8,1.8v1.3h1.3c1,0,1.8,0.8,1.8,1.8c0,1-0.8,1.8-1.8,1.8
			h-1.3v1.3c0,1-0.8,1.8-1.8,1.8c-1,0-1.8-0.8-1.8-1.8v-1.3h-1.3c-1,0-1.8-0.8-1.8-1.8c0-1,0.8-1.8,1.8-1.8H388.8z" style="fill-rule:evenodd;clip-rule:evenodd;fill:#FF2E93;"/>
		<path d="M408.7,596.8v-1.3c0-1,0.8-1.8,1.8-1.8c1,0,1.8,0.8,1.8,1.8v1.3h1.3c1,0,1.8,0.8,1.8,1.8s-0.8,1.8-1.8,1.8
			h-1.3v1.3c0,1-0.8,1.8-1.8,1.8c-1,0-1.8-0.8-1.8-1.8v-1.3h-1.3c-1,0-1.8-0.8-1.8-1.8s0.8-1.8,1.8-1.8H408.7z" style="fill-rule:evenodd;clip-rule:evenodd;fill:#FF2E93;"/>
		<path d="M401.4,318.6v-0.2c0-1,0.8-1.8,1.8-1.8s1.8,0.8,1.8,1.8v0.2h0.2c1,0,1.8,0.8,1.8,1.8c0,1-0.8,1.8-1.8,1.8H405
			v0.2c0,1-0.8,1.8-1.8,1.8s-1.8-0.8-1.8-1.8v-0.2h-0.2c-1,0-1.8-0.8-1.8-1.8c0-1,0.8-1.8,1.8-1.8H401.4z" style="fill-rule:evenodd;clip-rule:evenodd;fill:#FF2E93;"/>
		<path d="M389.4,361v-0.2c0-1,0.8-1.8,1.8-1.8s1.8,0.8,1.8,1.8v0.2h0.2c1,0,1.8,0.8,1.8,1.8c0,1-0.8,1.8-1.8,1.8H393
			v0.2c0,1-0.8,1.8-1.8,1.8s-1.8-0.8-1.8-1.8v-0.2h-0.2c-1,0-1.8-0.8-1.8-1.8c0-1,0.8-1.8,1.8-1.8H389.4z" style="fill-rule:evenodd;clip-rule:evenodd;fill:#FF2E93;"/>
		<path d="M405.1,398.3v-0.2c0-1,0.8-1.8,1.8-1.8s1.8,0.8,1.8,1.8v0.2h0.2c1,0,1.8,0.8,1.8,1.8s-0.8,1.8-1.8,1.8h-0.2
			v0.2c0,1-0.8,1.8-1.8,1.8s-1.8-0.8-1.8-1.8v-0.2H405c-1,0-1.8-0.8-1.8-1.8s0.8-1.8,1.8-1.8H405.1z" style="fill-rule:evenodd;clip-rule:evenodd;fill:#FF2E93;"/>
		<path d="M403.9,532.7v-0.2c0-1,0.8-1.8,1.8-1.8c1,0,1.8,0.8,1.8,1.8v0.2h0.2c1,0,1.8,0.8,1.8,1.8c0,1-0.8,1.8-1.8,1.8
			h-0.2v0.2c0,1-0.8,1.8-1.8,1.8c-1,0-1.8-0.8-1.8-1.8v-0.2h-0.2c-1,0-1.8-0.8-1.8-1.8c0-1,0.8-1.8,1.8-1.8H403.9z" style="fill-rule:evenodd;clip-rule:evenodd;fill:#FF2E93;"/>
		<path d="M397.9,580.2V580c0-1,0.8-1.8,1.8-1.8s1.8,0.8,1.8,1.8v0.2h0.2c1,0,1.8,0.8,1.8,1.8s-0.8,1.8-1.8,1.8h-0.2
			v0.2c0,1-0.8,1.8-1.8,1.8s-1.8-0.8-1.8-1.8v-0.2h-0.2c-1,0-1.8-0.8-1.8-1.8s0.8-1.8,1.8-1.8H397.9z" style="fill-rule:evenodd;clip-rule:evenodd;fill:#FF2E93;"/>
		<path d="M398.1,349v-0.2c0-1,0.8-1.8,1.8-1.8c1,0,1.8,0.8,1.8,1.8v0.2h0.2c1,0,1.8,0.8,1.8,1.8c0,1-0.8,1.8-1.8,1.8
			h-0.2v0.2c0,1-0.8,1.8-1.8,1.8c-1,0-1.8-0.8-1.8-1.8v-0.2h-0.2c-1,0-1.8-0.8-1.8-1.8c0-1,0.8-1.8,1.8-1.8H398.1z" style="fill-rule:evenodd;clip-rule:evenodd;fill:#FF2E93;"/>
	</g>
	<g>
		<path d="M512.1,467.7v3.1c0,4.1-3.3,7.4-7.4,7.4c-2.4,0-4.3,1.8-4.6,4.1l0,0.8c-0.2,4.3-3.9,7.6-8.3,7.6H488
			c-1.9,3.3-3.1,5.5-3.3,6c-0.7,1.6-1.9,2.9-3.4,3.6l-5.3,2.6l-15,7.3c-0.4,0.2-0.7,0.5-0.9,1l-2.4,6.5l0,0l-1,2.9l0,0l-4.3,11.9
			c-0.1,0.2-0.1,0.4-0.1,0.5l-4,11.4c-0.3,0.7-0.4,1.5-0.4,2.3c0,0,0.2,12.3,0.3,18.9c0,0.7-0.4,1.3-1,1.5c-0.6,0.3-1.3,0.1-1.8-0.3
			c-1.2-1.2-2.4-2.4-2.4-2.4c-0.7-0.7-1.8-0.7-2.5,0c-0.7,0.7-0.7,1.8,0,2.5c0,0,5.6,5.6,7.3,7.3c0.3,0.3,0.5,0.7,0.5,1.1
			c0,0.5,0,1.3,0,2.1c0,0.7-0.4,1.3-1,1.5c-0.6,0.3-1.3,0.1-1.8-0.4c-1.3-1.3-2.5-2.5-2.5-2.5c-0.7-0.7-1.8-0.7-2.5,0
			c-0.7,0.7-0.7,1.8,0,2.5c0,0,5.8,5.8,7.5,7.5c0.3,0.3,0.5,0.7,0.5,1.1c0,0.5,0,1.1,0,1.1c0,0.7,0.1,1.4,0.4,2.1l4.5,13.2
			c0.2,0.5,0.1,1.1-0.2,1.6c-0.3,0.5-0.9,0.7-1.4,0.7H437c-1,0-10.5-6.7-10.5-7.7c0,0-0.2,1.4-0.2-5.7c0,0,0,0,0,0v-44.3
			c-1.1-0.6-1.8-1.8-1.8-3.1v-33.9h-7.9c-3.6,0-7-2.7-9.7-7.7c-3.5-6.6-5.9-17.3-5.9-29.3s2.3-22.7,5.9-29.3c2.7-5,6.1-7.7,9.7-7.7
			H447c3.2,0,6.3-1.1,8.7-3.2c5.4-4.7,14.6-12.6,18.9-16.3c1.4-1.2,2.5-2.6,3.3-4.3l5.8-11.9c0.1-0.2,0.1-0.3,0.2-0.5l3-6.3
			c-1-0.1-0.7-0.3,0.3-0.6c-8.2-0.2-14.2-0.4-14.2-0.4c-1.6,0-3-0.6-4.1-1.8l-19.1-21.9c-0.8-0.8-1.2-2-1.2-3.1l1.5-30
			c0-1.7,1.4-3.1,3.1-3.1s3.1,1.4,3.1,3.1l1.4,28c0,0,14,13.8,17.1,16.8c0.4,0.4,0.9,0.6,1.4,0.6c0,0,0,0,0,0c1.4,0,2.6-0.9,3.2-2.1
			c0.6-1.3,0.4-2.7-0.5-3.8c-2.5-3-5.1-6.1-5.1-6.1c-0.7-0.7-1.1-1.7-1.1-2.7l1.2-16.3c0-1.5,1.2-2.6,2.6-2.6c1.5,0,2.6,1.2,2.6,2.6
			l1.1,14.5l8.8,8.3c2.9-0.1,9-0.4,15.1-0.4c6.1,0,12.2,0.3,15.1,0.5l8.8-8.3l1.1-14.5c0-1.5,1.2-2.6,2.6-2.6s2.6,1.2,2.6,2.6
			l1.2,16.3c0,1-0.4,1.9-1,2.6c0,0-2.5,3-5,6c-0.9,1.1-1.1,2.6-0.5,3.9c0.6,1.3,1.9,2.2,3.3,2.2c0,0,0,0,0,0c0.5,0,1.1-0.2,1.4-0.6
			c3.1-3.1,16.9-16.8,16.9-16.8l1.3-28.1c0-1.7,1.4-3.1,3.1-3.1c1.7,0,3.1,1.4,3.1,3.1l1.4,30c0,1.1-0.4,2.2-1.2,3l-18.9,21.8
			c-1,1.1-2.5,1.8-4.1,1.8c0,0-5.1,0.2-12.4,0.4l25.3,16.7c1.1,0.7,1.8,1.8,2,3.1l0,0.3l0,0.1l0,0c0,0.1,0,0.3,0,0.4l-3,12.4
			c-0.5,1.8-2.1,3.2-4,3.4c-5.5,0.5-14.3,1.2-18.5,1.6c-0.2,0-0.4,0-0.6,0.1c-0.8,0.1-1.5,0.5-2,1c-0.2,0.2-0.9,1.2-1.9,2.9v20.3
			C519.9,461.8,516.7,466.1,512.1,467.7L512.1,467.7z M474.1,573.3c1.5-6.8,6.5-29.3,8.4-38.1c0.3-1.5-0.3-3-1.6-3.7l-20.1-11.8
			l2.3-6.4l15-7.3l16.7,13.6c2.1,1.7,3,4.4,2.4,7.1c0,0-4.7,19.7-6.8,28.3c-0.2,0.6-0.7,1.1-1.3,1.2c-0.7,0.1-1.3-0.2-1.7-0.8
			c-1-1.6-1.9-3.2-1.9-3.2c-0.5-0.8-1.6-1.1-2.4-0.6c-0.8,0.5-1.1,1.6-0.6,2.4c0,0,4.2,7.1,5.5,9.2c0.2,0.4,0.3,0.8,0.2,1.2
			c-0.1,0.5-0.3,1.2-0.5,1.9c-0.2,0.6-0.7,1.1-1.3,1.2c-0.7,0.1-1.3-0.2-1.6-0.8c-1-1.7-2-3.4-2-3.4c-0.5-0.8-1.6-1.1-2.4-0.6
			c-0.8,0.5-1.1,1.6-0.6,2.4c0,0,4.3,7.3,5.6,9.4c0.2,0.4,0.3,0.8,0.2,1.2c-0.1,0.4-0.2,0.9-0.3,1.1c0,0.1,0,0.2,0,0.2
			c0,0.2,0,0.3,0,0.5l0,14c0,0.6-0.3,1.1-0.7,1.4c-0.5,0.3-1.1,0.4-1.6,0.2l-12.4-4.2c-0.9-0.3-8.2-8.4-7.9-9.3c0,0,0,0,2.3-6.7
			c0,0,0,0,0.1-0.1l2.2-31.3c-0.2-0.1-0.4-0.3-0.6-0.5l-9.8-10.3l2.7-7.4l12.3,12.9c1.3,1.4,1.3,3.7-0.1,5c-0.3,0.3-0.6,0.5-0.9,0.6
			l-2.2,31.7c1.9,0.4,3.9,0.9,4.7,0.9c0.2-0.1,0.3-0.1,0.4-0.3c0.1-0.4,0.3-0.8,0.4-1.1L474.1,573.3L474.1,573.3z M431.7,504v41.4
			c0,1.3-0.7,2.5-1.8,3.1v43.7c2.4-0.3,5.3-0.5,5.3-0.8V504c0-1-0.8-1.8-1.8-1.8C432.5,502.2,431.7,503,431.7,504L431.7,504z
			 M508.6,468.4c-0.1,0-0.3,0-0.4,0h-7.3c-4,6.9-7.9,13.7-10.9,18.9h1.8c2.4,0,4.5-1.7,4.7-4l0-1c0.3-4.2,3.8-7.6,8.1-7.6
			c2.1,0,3.9-1.7,3.9-3.9V468.4L508.6,468.4z M508.6,464.9v-9.6c-1.8,3.1-3.7,6.3-5.6,9.6h5.2C508.3,464.9,508.5,464.9,508.6,464.9
			L508.6,464.9z M516.4,442.2c-1.3,2.1-2.7,4.5-4.2,7.1v14.6c2.5-1.4,4.2-4.1,4.2-7.1V442.2z" style="fill-rule:evenodd;clip-rule:evenodd;fill:#142664;"/>
		<g>
			<path d="M457.3,360.6h-8.4l0.2-3.5h8.1L457.3,360.6L457.3,360.6z M456.9,352.5h-7.6l0.2-3.5h7.3L456.9,352.5
				L456.9,352.5z" style="fill-rule:evenodd;clip-rule:evenodd;fill:#FF2E93;"/>
			<path d="M559.1,360.6h-8.3l0.2-3.5h8L559.1,360.6z M558.7,352.5h-7.6l0.2-3.5h7.2L558.7,352.5L558.7,352.5z" style="fill-rule:evenodd;clip-rule:evenodd;fill:#FF2E93;"/>
			<path d="M540,421.6c0,0,0.3,0.3,1,0.7c0.2,0.1,0.4,0.2,0.7,0.2c0.3,0,0.5-0.1,0.7-0.2c0.7-0.3,1-0.7,1-0.7
				c0.5,0,0.9-0.4,0.9-0.9c0-0.5-0.4-0.9-0.9-0.9c0,0-0.3-0.3-1-0.7c-0.2-0.1-0.4-0.2-0.7-0.2c-0.3,0-0.5,0.1-0.7,0.2
				c-0.8,0.4-1,0.7-1,0.7c-0.5,0-0.9,0.4-0.9,0.9C539.1,421.2,539.5,421.6,540,421.6z" style="fill-rule:evenodd;clip-rule:evenodd;fill:#FF2E93;"/>
			<path d="M532.5,421.6c0,0,0.3,0.3,1,0.7c0.2,0.1,0.4,0.2,0.7,0.2c0.3,0,0.5-0.1,0.7-0.2c0.7-0.3,1-0.7,1-0.7
				c0.5,0,0.9-0.4,0.9-0.9c0-0.5-0.4-0.9-0.9-0.9c0,0-0.3-0.3-1-0.7c-0.2-0.1-0.4-0.2-0.7-0.2c-0.3,0-0.5,0.1-0.7,0.2
				c-0.8,0.4-1,0.7-1,0.7c-0.5,0-0.9,0.4-0.9,0.9C531.6,421.2,532,421.6,532.5,421.6z" style="fill-rule:evenodd;clip-rule:evenodd;fill:#FF2E93;"/>
			<path d="M525,421.6c0,0,0.3,0.3,1,0.7c0.2,0.1,0.4,0.2,0.7,0.2c0.3,0,0.5-0.1,0.7-0.2c0.7-0.3,1-0.7,1-0.7
				c0.5,0,0.9-0.4,0.9-0.9c0-0.5-0.4-0.9-0.9-0.9c0,0-0.3-0.3-1-0.7c-0.2-0.1-0.4-0.2-0.7-0.2c-0.3,0-0.5,0.1-0.7,0.2
				c-0.8,0.4-1,0.7-1,0.7c-0.5,0-0.9,0.4-0.9,0.9C524.1,421.2,524.5,421.6,525,421.6z" style="fill-rule:evenodd;clip-rule:evenodd;fill:#FF2E93;"/>
			<path d="M536.3,416.9c0,0,0.3,0.3,1,0.7c0.2,0.1,0.4,0.2,0.7,0.2c0.3,0,0.5-0.1,0.7-0.2c0.7-0.3,1-0.7,1-0.7
				c0.5,0,0.9-0.4,0.9-0.9c0-0.5-0.4-0.9-0.9-0.9c0,0-0.3-0.3-1-0.7c-0.2-0.1-0.4-0.2-0.7-0.2c-0.3,0-0.5,0.1-0.7,0.2
				c-0.8,0.4-1,0.7-1,0.7c-0.5,0-0.9,0.4-0.9,0.9C535.4,416.5,535.8,416.9,536.3,416.9z" style="fill-rule:evenodd;clip-rule:evenodd;fill:#FF2E93;"/>
			<path d="M528.8,416.9c0,0,0.3,0.3,1,0.7c0.2,0.1,0.4,0.2,0.7,0.2c0.3,0,0.5-0.1,0.7-0.2c0.7-0.3,1-0.7,1-0.7
				c0.5,0,0.9-0.4,0.9-0.9c0-0.5-0.4-0.9-0.9-0.9c0,0-0.3-0.3-1-0.7c-0.2-0.1-0.4-0.2-0.7-0.2c-0.3,0-0.5,0.1-0.7,0.2
				c-0.8,0.4-1,0.7-1,0.7c-0.5,0-0.9,0.4-0.9,0.9C527.9,416.5,528.3,416.9,528.8,416.9z" style="fill-rule:evenodd;clip-rule:evenodd;fill:#FF2E93;"/>
			<path d="M536.3,426.2c0,0,0.3,0.3,1,0.7c0.2,0.1,0.4,0.2,0.7,0.2c0.3,0,0.5-0.1,0.7-0.2c0.7-0.3,1-0.7,1-0.7
				c0.5,0,0.9-0.4,0.9-0.9s-0.4-0.9-0.9-0.9c0,0-0.3-0.3-1-0.7c-0.2-0.1-0.4-0.2-0.7-0.2c-0.3,0-0.5,0.1-0.7,0.2
				c-0.8,0.4-1,0.7-1,0.7c-0.5,0-0.9,0.4-0.9,0.9C535.4,425.8,535.8,426.2,536.3,426.2z" style="fill-rule:evenodd;clip-rule:evenodd;fill:#FF2E93;"/>
			<path d="M528.8,426.2c0,0,0.3,0.3,1,0.7c0.2,0.1,0.4,0.2,0.7,0.2c0.3,0,0.5-0.1,0.7-0.2c0.7-0.3,1-0.7,1-0.7
				c0.5,0,0.9-0.4,0.9-0.9s-0.4-0.9-0.9-0.9c0,0-0.3-0.3-1-0.7c-0.2-0.1-0.4-0.2-0.7-0.2c-0.3,0-0.5,0.1-0.7,0.2
				c-0.8,0.4-1,0.7-1,0.7c-0.5,0-0.9,0.4-0.9,0.9C527.9,425.8,528.3,426.2,528.8,426.2z" style="fill-rule:evenodd;clip-rule:evenodd;fill:#FF2E93;"/>
			<circle cx="525.1" cy="387.7" r="2.5" style="fill-rule:evenodd;clip-rule:evenodd;fill:#FF2E93;"/>
			<circle cx="518.7" cy="381.3" r="2.5" style="fill-rule:evenodd;clip-rule:evenodd;fill:#FF2E93;"/>
			<circle cx="429.4" cy="457.5" r="3.4" style="fill-rule:evenodd;clip-rule:evenodd;fill:#FF2E93;"/>
			<circle cx="416.8" cy="457.5" r="3.4" style="fill-rule:evenodd;clip-rule:evenodd;fill:#FF2E93;"/>
			<path d="M456.4,433.6l23.9,23.9c0.7,0.7,0.7,1.8,0,2.5l-7.4,7.4c-0.7,0.7-1.8,0.7-2.5,0l-6.2-6.2l-5.8,5.8
				c-0.3,0.3-0.8,0.5-1.3,0.5h-32.9l23.3,23.3H474c0-0.1,0-0.1,0-0.2c0-7.9,6.4-14.4,14.4-14.4c2.5,0,4.9,0.7,7,1.8
				c-0.6,1-1.2,2.1-1.8,3.1c-1.5-0.8-3.3-1.3-5.2-1.3c-6,0-10.8,4.9-10.8,10.8c0,3.8,2,7.1,4.9,9.1c-0.4,0.3-0.7,0.5-1.1,0.7
				l-2.3,1.1c-2.2-1.9-3.8-4.4-4.5-7.2h-27.7c-0.5,0-0.9-0.2-1.3-0.5l-26.3-26.3h-17.6c-0.1,0-0.1,0-0.2,0c0.1-1.2,0.2-2.4,0.3-3.5
				h54.6l12.7-12.7l-15.6-15.6c0.7-0.4,1.4-0.9,2-1.4L456.4,433.6L456.4,433.6z M471.7,453.8l-4.9,4.9l4.9,4.9l4.9-4.9L471.7,453.8z
				 M492.3,437.2l3-3c0.7-0.7,0.7-1.8,0-2.5c-0.7-0.7-1.8-0.7-2.5,0l-3,3c-0.7,0.7-0.7,1.8,0,2.5
				C490.5,437.9,491.6,437.9,492.3,437.2z M477,437.2l3-3c0.7-0.7,0.7-1.8,0-2.5c-0.7-0.7-1.8-0.7-2.5,0l-3,3
				c-0.7,0.7-0.7,1.8,0,2.5C475.2,437.9,476.4,437.9,477,437.2z M484.7,437.2l3-3c0.7-0.7,0.7-1.8,0-2.5c-0.7-0.7-1.8-0.7-2.5,0
				l-3,3c-0.7,0.7-0.7,1.8,0,2.5C482.9,437.9,484,437.9,484.7,437.2z M529.8,394.2c-1.9,0.1-4.3,0.1-7,0.2l5.1,3.3h-21.1
				c-1.1,0-1.9,0.9-1.9,1.9v2.7c0,1.1,0.9,1.9,1.9,1.9h31l5.4,3.5h-36.4c-0.9,0-1.7-0.2-2.4-0.6c0,0,0,0,0,0l-16.6,16.6
				c-0.3,0.3-0.8,0.5-1.3,0.5h-19.3l4.1-3.5h14.5l16.1-16.1c0,0,0,0,0,0c-0.4-0.7-0.6-1.5-0.6-2.4v-2.7c0-3,2.5-5.5,5.5-5.5
				L529.8,394.2L529.8,394.2z M485.1,394.4h5.5c1,0,1.8,0.8,1.8,1.8c0,1-0.8,1.8-1.8,1.8h-5.2l1.4-2.9c-1-0.1-0.7-0.3,0.3-0.6
				C486.4,394.5,485.8,394.4,485.1,394.4L485.1,394.4z M499.5,374.2l-4.9,4.9h8.8l4.9-4.9c1.7,0,3.4,0.1,4.9,0.1l-7.8,7.8
				c-0.3,0.3-0.8,0.5-1.3,0.5H491l-11.7,11.7c-2.1-0.1-3.8-0.1-4.9-0.1l14.3-14.3c0.1-0.2,0.3-0.3,0.4-0.4l5.2-5.2
				C495.9,374.2,497.7,374.2,499.5,374.2L499.5,374.2z" style="fill-rule:evenodd;clip-rule:evenodd;fill:#FF2E93;"/>
			<g>
				<defs>
					<path id="SVGID_1_" d="M456.4,433.6l23.9,23.9c0.7,0.7,0.7,1.8,0,2.5l-7.4,7.4c-0.7,0.7-1.8,0.7-2.5,0l-6.2-6.2l-5.8,5.8
						c-0.3,0.3-0.8,0.5-1.3,0.5h-32.9l23.3,23.3H474c0-0.1,0-0.1,0-0.2c0-7.9,6.4-14.4,14.4-14.4c2.5,0,4.9,0.7,7,1.8
						c-0.6,1-1.2,2.1-1.8,3.1c-1.5-0.8-3.3-1.3-5.2-1.3c-6,0-10.8,4.9-10.8,10.8c0,3.8,2,7.1,4.9,9.1c-0.4,0.3-0.7,0.5-1.1,0.7
						l-2.3,1.1c-2.2-1.9-3.8-4.4-4.5-7.2h-27.7c-0.5,0-0.9-0.2-1.3-0.5l-26.3-26.3h-17.6c-0.1,0-0.1,0-0.2,0
						c0.1-1.2,0.2-2.4,0.3-3.5h54.6l12.7-12.7l-15.6-15.6c0.7-0.4,1.4-0.9,2-1.4L456.4,433.6L456.4,433.6z M471.7,453.8l-4.9,4.9
						l4.9,4.9l4.9-4.9L471.7,453.8z M492.3,437.2l3-3c0.7-0.7,0.7-1.8,0-2.5c-0.7-0.7-1.8-0.7-2.5,0l-3,3c-0.7,0.7-0.7,1.8,0,2.5
						C490.5,437.9,491.6,437.9,492.3,437.2z M477,437.2l3-3c0.7-0.7,0.7-1.8,0-2.5c-0.7-0.7-1.8-0.7-2.5,0l-3,3
						c-0.7,0.7-0.7,1.8,0,2.5C475.2,437.9,476.4,437.9,477,437.2z M484.7,437.2l3-3c0.7-0.7,0.7-1.8,0-2.5c-0.7-0.7-1.8-0.7-2.5,0
						l-3,3c-0.7,0.7-0.7,1.8,0,2.5C482.9,437.9,484,437.9,484.7,437.2z M529.8,394.2c-1.9,0.1-4.3,0.1-7,0.2l5.1,3.3h-21.1
						c-1.1,0-1.9,0.9-1.9,1.9v2.7c0,1.1,0.9,1.9,1.9,1.9h31l5.4,3.5h-36.4c-0.9,0-1.7-0.2-2.4-0.6c0,0,0,0,0,0l-16.6,16.6
						c-0.3,0.3-0.8,0.5-1.3,0.5h-19.3l4.1-3.5h14.5l16.1-16.1c0,0,0,0,0,0c-0.4-0.7-0.6-1.5-0.6-2.4v-2.7c0-3,2.5-5.5,5.5-5.5
						L529.8,394.2L529.8,394.2z M485.1,394.4h5.5c1,0,1.8,0.8,1.8,1.8c0,1-0.8,1.8-1.8,1.8h-5.2l1.4-2.9c-1-0.1-0.7-0.3,0.3-0.6
						C486.4,394.5,485.8,394.4,485.1,394.4L485.1,394.4z M499.5,374.2l-4.9,4.9h8.8l4.9-4.9c1.7,0,3.4,0.1,4.9,0.1l-7.8,7.8
						c-0.3,0.3-0.8,0.5-1.3,0.5H491l-11.7,11.7c-2.1-0.1-3.8-0.1-4.9-0.1l14.3-14.3c0.1-0.2,0.3-0.3,0.4-0.4l5.2-5.2
						C495.9,374.2,497.7,374.2,499.5,374.2L499.5,374.2z"/>
				</defs>
				<clipPath id="SVGID_2_">
					<use xlink:href="#SVGID_1_" style="overflow:visible;"/>
				</clipPath>
				<g style="clip-path:url(#SVGID_2_);">
					<path d="M435.2,516.5V504c0-1-0.8-1.8-1.8-1.8c-1,0-1.8,0.8-1.8,1.8v12.5c0,1,0.8,1.8,1.8,1.8
						C434.4,518.3,435.2,517.5,435.2,516.5z" style="fill-rule:evenodd;clip-rule:evenodd;fill:#FF2E93;"/>
					<path d="M540,421.6c0,0,0.3,0.3,1,0.7c0.2,0.1,0.4,0.2,0.7,0.2c0.3,0,0.5-0.1,0.7-0.2c0.7-0.3,1-0.7,1-0.7
						c0.5,0,0.9-0.4,0.9-0.9c0-0.5-0.4-0.9-0.9-0.9c0,0-0.3-0.3-1-0.7c-0.2-0.1-0.4-0.2-0.7-0.2c-0.3,0-0.5,0.1-0.7,0.2
						c-0.8,0.4-1,0.7-1,0.7c-0.5,0-0.9,0.4-0.9,0.9C539.1,421.2,539.5,421.6,540,421.6z" style="fill-rule:evenodd;clip-rule:evenodd;fill:#FF2E93;"/>
					<path d="M532.5,421.6c0,0,0.3,0.3,1,0.7c0.2,0.1,0.4,0.2,0.7,0.2c0.3,0,0.5-0.1,0.7-0.2c0.7-0.3,1-0.7,1-0.7
						c0.5,0,0.9-0.4,0.9-0.9c0-0.5-0.4-0.9-0.9-0.9c0,0-0.3-0.3-1-0.7c-0.2-0.1-0.4-0.2-0.7-0.2c-0.3,0-0.5,0.1-0.7,0.2
						c-0.8,0.4-1,0.7-1,0.7c-0.5,0-0.9,0.4-0.9,0.9C531.6,421.2,532,421.6,532.5,421.6z" style="fill-rule:evenodd;clip-rule:evenodd;fill:#FF2E93;"/>
					<path d="M525,421.6c0,0,0.3,0.3,1,0.7c0.2,0.1,0.4,0.2,0.7,0.2c0.3,0,0.5-0.1,0.7-0.2c0.7-0.3,1-0.7,1-0.7
						c0.5,0,0.9-0.4,0.9-0.9c0-0.5-0.4-0.9-0.9-0.9c0,0-0.3-0.3-1-0.7c-0.2-0.1-0.4-0.2-0.7-0.2c-0.3,0-0.5,0.1-0.7,0.2
						c-0.8,0.4-1,0.7-1,0.7c-0.5,0-0.9,0.4-0.9,0.9C524.1,421.2,524.5,421.6,525,421.6z" style="fill-rule:evenodd;clip-rule:evenodd;fill:#FF2E93;"/>
					<path d="M536.3,416.9c0,0,0.3,0.3,1,0.7c0.2,0.1,0.4,0.2,0.7,0.2c0.3,0,0.5-0.1,0.7-0.2c0.7-0.3,1-0.7,1-0.7
						c0.5,0,0.9-0.4,0.9-0.9c0-0.5-0.4-0.9-0.9-0.9c0,0-0.3-0.3-1-0.7c-0.2-0.1-0.4-0.2-0.7-0.2c-0.3,0-0.5,0.1-0.7,0.2
						c-0.8,0.4-1,0.7-1,0.7c-0.5,0-0.9,0.4-0.9,0.9C535.4,416.5,535.8,416.9,536.3,416.9z" style="fill-rule:evenodd;clip-rule:evenodd;fill:#FF2E93;"/>
					<path d="M528.8,416.9c0,0,0.3,0.3,1,0.7c0.2,0.1,0.4,0.2,0.7,0.2c0.3,0,0.5-0.1,0.7-0.2c0.7-0.3,1-0.7,1-0.7
						c0.5,0,0.9-0.4,0.9-0.9c0-0.5-0.4-0.9-0.9-0.9c0,0-0.3-0.3-1-0.7c-0.2-0.1-0.4-0.2-0.7-0.2c-0.3,0-0.5,0.1-0.7,0.2
						c-0.8,0.4-1,0.7-1,0.7c-0.5,0-0.9,0.4-0.9,0.9C527.9,416.5,528.3,416.9,528.8,416.9z" style="fill-rule:evenodd;clip-rule:evenodd;fill:#FF2E93;"/>
					<path d="M536.3,426.2c0,0,0.3,0.3,1,0.7c0.2,0.1,0.4,0.2,0.7,0.2c0.3,0,0.5-0.1,0.7-0.2c0.7-0.3,1-0.7,1-0.7
						c0.5,0,0.9-0.4,0.9-0.9s-0.4-0.9-0.9-0.9c0,0-0.3-0.3-1-0.7c-0.2-0.1-0.4-0.2-0.7-0.2c-0.3,0-0.5,0.1-0.7,0.2
						c-0.8,0.4-1,0.7-1,0.7c-0.5,0-0.9,0.4-0.9,0.9C535.4,425.8,535.8,426.2,536.3,426.2z" style="fill-rule:evenodd;clip-rule:evenodd;fill:#FF2E93;"/>
					<path d="M528.8,426.2c0,0,0.3,0.3,1,0.7c0.2,0.1,0.4,0.2,0.7,0.2c0.3,0,0.5-0.1,0.7-0.2c0.7-0.3,1-0.7,1-0.7
						c0.5,0,0.9-0.4,0.9-0.9s-0.4-0.9-0.9-0.9c0,0-0.3-0.3-1-0.7c-0.2-0.1-0.4-0.2-0.7-0.2c-0.3,0-0.5,0.1-0.7,0.2
						c-0.8,0.4-1,0.7-1,0.7c-0.5,0-0.9,0.4-0.9,0.9C527.9,425.8,528.3,426.2,528.8,426.2z" style="fill-rule:evenodd;clip-rule:evenodd;fill:#FF2E93;"/>
					<circle cx="525.1" cy="387.7" r="2.5" style="fill-rule:evenodd;clip-rule:evenodd;fill:#FF2E93;"/>
					<circle cx="518.7" cy="381.3" r="2.5" style="fill-rule:evenodd;clip-rule:evenodd;fill:#FF2E93;"/>
				</g>
			</g>
			<circle cx="435.2" cy="597.6" r="2.7" style="fill-rule:evenodd;clip-rule:evenodd;fill:#FF2E93;"/>
			<circle cx="471.7" cy="581.1" r="2.7" style="fill-rule:evenodd;clip-rule:evenodd;fill:#FF2E93;"/>
		</g>
	</g>
</g>
</svg>