<?xml version="1.0" encoding="UTF-8"?><svg version="1.1" id="Calque_1" xmlns:serif="http://www.serif.com/" xmlns="http://www.w3.org/2000/svg" xmlns:xlink="http://www.w3.org/1999/xlink" x="0px" y="0px" viewBox="0 0 800 800" style="enable-background:new 0 0 800 800;" xml:space="preserve" width="800px" height="800px">

<g id="Calque2">
	<path d="M114.1,464.1c9.9,5.7,11.5,21.5,3.5,35.3c-12.1,20.9-35,35.6-44.6,41.1c-0.9,0.5-2.1,0.5-3,0
		c-0.9-0.5-1.5-1.5-1.5-2.6c0-11.1,1.3-38.5,13.3-59.2C89.7,465,104.2,458.4,114.1,464.1L114.1,464.1z" style="fill:#FF2E93;"/>
	<path d="M687.5,464.1c-9.9,5.7-11.5,21.5-3.5,35.3c12.1,20.9,35,35.6,44.6,41.1c0.9,0.5,2.1,0.5,3,0
		c0.9-0.5,1.5-1.5,1.5-2.6c0-11.1-1.3-38.5-13.3-59.2C711.9,465,697.4,458.4,687.5,464.1L687.5,464.1z" style="fill:#FF2E93;"/>
	<path d="M114.1,464.1c5.7,3.3,6.1,13.6,0.7,22.9c-7.2,12.5-19.4,22.1-26.3,26.9c-1,0.7-2.2,0.7-3.2,0.1
		c-1-0.6-1.6-1.7-1.5-2.9c0.7-8.4,3-23.8,10.2-36.2C99.3,465.7,108.3,460.8,114.1,464.1z" style="fill:#FFFFFF;"/>
	<path d="M687.5,464.1c-5.7,3.3-6.1,13.6-0.7,22.9c7.2,12.5,19.4,22.1,26.3,26.9c1,0.7,2.2,0.7,3.2,0.1
		c1-0.6,1.6-1.7,1.5-2.9c-0.7-8.4-3-23.8-10.2-36.2C702.3,465.7,693.2,460.8,687.5,464.1L687.5,464.1z" style="fill:#FFFFFF;"/>
	<path d="M147.6,482.1l-67.7-29.2c0,0-1.2,13-1.9,21.2c-0.4,3.9,1.6,7.7,5,9.7c7.7,4.5,21.5,12.4,29.4,16.9
		c3.5,2,7.9,1.8,11.1-0.7C132,493.8,147.6,482.1,147.6,482.1z" style="fill:#142664;"/>
	<path d="M653.9,482.1l67.7-29.2c0,0,1.2,13,1.9,21.2c0.4,3.9-1.6,7.7-5,9.7c-7.7,4.5-21.5,12.4-29.4,16.9
		c-3.5,2-7.9,1.8-11.1-0.7C669.6,493.8,653.9,482.1,653.9,482.1L653.9,482.1z" style="fill:#142664;"/>
	<g>
		<path d="M93.1,486.5c-0.3,0-0.5-0.1-0.8-0.2c-0.8-0.4-1-1.4-0.6-2.2l9.5-16.4c0.4-0.8,1.4-1,2.2-0.6
			c0.8,0.4,1,1.4,0.6,2.2l-9.5,16.4C94.2,486.2,93.6,486.5,93.1,486.5z" style="fill:#FF2E93;"/>
	</g>
	<g>
		<path d="M708.5,486.5c-0.6,0-1.1-0.3-1.4-0.8l-9.5-16.4c-0.4-0.8-0.2-1.8,0.6-2.2c0.8-0.4,1.8-0.2,2.2,0.6l9.5,16.4
			c0.4,0.8,0.2,1.8-0.6,2.2C709.1,486.4,708.8,486.5,708.5,486.5z" style="fill:#FF2E93;"/>
	</g>
	<g>
		<path d="M100.2,491c-0.3,0-0.5-0.1-0.8-0.2c-0.8-0.4-1-1.4-0.6-2.2l9.5-16.4c0.4-0.8,1.4-1,2.2-0.6
			c0.8,0.4,1,1.4,0.6,2.2l-9.5,16.4C101.3,490.7,100.8,491,100.2,491z" style="fill:#FF2E93;"/>
	</g>
	<g>
		<path d="M701.3,491c-0.6,0-1.1-0.3-1.4-0.8l-9.5-16.4c-0.4-0.8-0.2-1.8,0.6-2.2c0.8-0.4,1.8-0.2,2.2,0.6l9.5,16.4
			c0.4,0.8,0.2,1.8-0.6,2.2C701.9,490.9,701.6,491,701.3,491z" style="fill:#FF2E93;"/>
	</g>
	<path d="M103.8,416c0,0-16.4,16.4-25.7,25.7c-1.6,1.6-2.6,3.9-2.6,6.2c0,2.3,0.9,4.5,2.6,6.2
		c8.2,8.2,22.1,22.1,27.9,27.9c1.6,1.6,3.9,2.6,6.2,2.6c7.3,0,24.2,0,34.6,0c2.3,0,4.5-0.9,6.2-2.6c1.6-1.6,2.6-3.9,2.6-6.2
		c0-12.1,0-32.5,0-32.5L103.8,416L103.8,416z" style="fill:#00E6B3;"/>
	<path d="M697.8,416c0,0,16.4,16.4,25.7,25.7c1.6,1.6,2.6,3.9,2.6,6.2c0,2.3-0.9,4.5-2.6,6.2
		c-8.2,8.2-22.1,22.1-27.9,27.9c-1.6,1.6-3.9,2.6-6.2,2.6c-7.3,0-24.2,0-34.6,0c-2.3,0-4.5-0.9-6.2-2.6c-1.6-1.6-2.6-3.9-2.6-6.2
		c0-12.1,0-32.5,0-32.5L697.8,416L697.8,416z" style="fill:#00E6B3;"/>
	<path d="M186.8,408.2l12.3-12.3c3.8-3.8,10-3.8,13.8,0c3.8,3.8,3.8,10,0,13.8l-15.2,15.2c-1.8,1.8-4.3,2.9-6.9,2.9H162
		c-5.4,0-9.8-4.4-9.8-9.8c0-5.4,4.4-9.8,9.8-9.8L186.8,408.2L186.8,408.2z" style="fill:#00E6B3;"/>
	<path d="M614.8,408.2l-12.3-12.3c-3.8-3.8-10-3.8-13.8,0c-3.8,3.8-3.8,10,0,13.8l15.2,15.2c1.8,1.8,4.3,2.9,6.9,2.9
		h28.9c5.4,0,9.8-4.4,9.8-9.8c0-5.4-4.4-9.8-9.8-9.8L614.8,408.2L614.8,408.2z" style="fill:#00E6B3;"/>
	<path d="M121.6,326.5v35.7L99.5,340l18.3-16.7L121.6,326.5L121.6,326.5z" style="fill:#142664;"/>
	<path d="M679.9,326.5v35.7l22.1-22.2l-18.3-16.7L679.9,326.5L679.9,326.5z" style="fill:#142664;"/>
	<path d="M176.1,427.1c0,2-0.8,3.8-2.2,5.2c-4.5,4.5-14.6,14.6-14.6,14.6l-31.8,1L91,411.4v-75.5l19.1-9.4v13.3
		c0,0,52.4,52.4,63.8,63.8c1.4,1.4,2.2,3.3,2.2,5.2C176.1,413.5,176.1,422.4,176.1,427.1L176.1,427.1z" style="fill:#142664;"/>
	<path d="M625.5,427.1c0,2,0.8,3.8,2.2,5.2c4.5,4.5,14.6,14.6,14.6,14.6l31.8,1l36.5-36.5v-75.5l-19.1-9.4v13.3
		c0,0-52.4,52.4-63.8,63.8c-1.4,1.4-2.2,3.3-2.2,5.2C625.5,413.5,625.5,422.4,625.5,427.1L625.5,427.1z" style="fill:#142664;"/>
	<g>
		<path d="M500.3,466.5c0,0,8.2,8.2,12.9,12.9c2,2,3.2,4.8,3.2,7.7c0,7.2,0,21.4,0,28.6c0,2.9-1.1,5.7-3.2,7.7
			c-6.3,6.3-19.5,19.5-19.5,19.5l-14.7-6.9v-31.1L500.3,466.5L500.3,466.5z" style="fill:#FF2E93;"/>
		<path d="M301.3,466.5c0,0-8.2,8.2-12.9,12.9c-2,2-3.2,4.8-3.2,7.7c0,7.2,0,21.4,0,28.6c0,2.9,1.1,5.7,3.2,7.7
			c6.3,6.3,19.5,19.5,19.5,19.5l14.7-6.9v-31.1L301.3,466.5L301.3,466.5z" style="fill:#FF2E93;"/>
		<path d="M417.4,717.2c-0.5,1-1.5,1.7-2.6,1.7c-5.6,0-22.3,0-27.9,0c-1.1,0-2.2-0.7-2.6-1.7
			c-2.3-5.2-8.9-20.5-8.9-20.5h-8.2l-31.5-72.6h-13.3l-29-66.7h25l43-43h11.9l11.6-11.6v-64.5l-19.3-19.3H344l26.1-26.1h61.4
			l26.1,26.1H436l-19.3,19.3v64.5l11.6,11.6h11.9l43,43h25l-29,66.7H466l-31.5,72.6h-8.2C426.3,696.8,419.6,712,417.4,717.2z" style="fill:#00E6B3;"/>
		<path d="M299.1,553.5c0-1,0.4-2.1,1.2-2.8c4-4,8.8-8.8,11.8-11.8c1.8-1.8,2.8-4.3,2.8-6.9c0-6,0-17.1,0-23
			c0-2.6-1-5-2.8-6.9c-2.3-2.3-5.6-5.6-7.9-7.9c-1.8-1.8-2.8-4.3-2.8-6.9c0-8,0-25.9,0-34c0-2.6,1-5,2.8-6.9
			c5.8-5.8,18.8-18.8,24.6-24.6c1.8-1.8,4.3-2.8,6.9-2.8h33.8c2.6,0,5,1,6.9,2.8c3.6,3.6,9.9,9.9,13.6,13.6c1.8,1.8,2.8,4.3,2.8,6.9
			c0,11.6,0,44.9,0,56.5c0,2.6-1,5-2.8,6.9c-1.8,1.8-4.1,4.1-6,6c-1.8,1.8-4.3,2.8-6.9,2.8c-1.3,0-2.6,0-3.9,0c-2.6,0-5,1-6.9,2.8
			c-7.8,7.8-29.5,29.5-37.3,37.3c-1.8,1.8-4.3,2.8-6.9,2.8h-23.1L299.1,553.5L299.1,553.5L299.1,553.5z" style="fill:#142664;"/>
		<path d="M502.6,557.5h-23.1c-2.6,0-5-1-6.9-2.8c-7.8-7.8-29.5-29.5-37.3-37.3c-1.8-1.8-4.3-2.8-6.9-2.8
			c-1.3,0-2.6,0-3.9,0c-2.6,0-5-1-6.9-2.8c-1.8-1.8-4.1-4.1-6-6c-1.8-1.8-2.8-4.3-2.8-6.9c0-11.6,0-44.9,0-56.5c0-2.6,1-5,2.8-6.9
			c3.6-3.6,9.9-9.9,13.6-13.6c1.8-1.8,4.3-2.8,6.9-2.8H466c2.6,0,5,1,6.9,2.8c5.8,5.8,18.8,18.8,24.6,24.6c1.8,1.8,2.8,4.3,2.8,6.9
			c0,8,0,25.9,0,34c0,2.6-1,5-2.8,6.9c-2.3,2.3-5.6,5.6-7.9,7.9c-1.8,1.8-2.8,4.3-2.8,6.9c0,6,0,17.1,0,23c0,2.6,1,5,2.8,6.9
			c3,3,7.8,7.8,11.8,11.8c0.8,0.8,1.2,1.8,1.2,2.8l0,0L502.6,557.5L502.6,557.5z" style="fill:#142664;"/>
		<path d="M322.6,483.7v-28.4h43.9v28.4c0,8.8-9.8,16-22,16C332.5,499.7,322.6,492.5,322.6,483.7L322.6,483.7z" style="fill:#FFFFFF;"/>
		<g>
			<path d="M354.3,499.7c-0.9,0-1.6-0.7-1.6-1.6v-35.3c0-0.9,0.7-1.6,1.6-1.6c0.9,0,1.6,0.7,1.6,1.6v35.3
				C355.9,498.9,355.1,499.7,354.3,499.7z" style="fill:#142664;"/>
		</g>
		<g>
			<path d="M370.7,506.7h-9.3c-0.4,0-0.8-0.2-1.1-0.5l-7.1-7.1c-0.6-0.6-0.6-1.6,0-2.3c0.6-0.6,1.6-0.6,2.3,0l6.6,6.6h8
				l11-11v-15c0-0.9,0.7-1.6,1.6-1.6h10.1c0.9,0,1.6,0.7,1.6,1.6c0,0.9-0.7,1.6-1.6,1.6h-8.5v14c0,0.4-0.2,0.8-0.5,1.1l-12,12
				C371.5,506.6,371.1,506.7,370.7,506.7z" style="fill:#FF2E93;"/>
		</g>
		<g>
			<path d="M440.3,506.7H431c-0.4,0-0.8-0.2-1.1-0.5l-12-12c-0.3-0.3-0.5-0.7-0.5-1.1v-14h-8.5c-0.9,0-1.6-0.7-1.6-1.6
				c0-0.9,0.7-1.6,1.6-1.6H419c0.9,0,1.6,0.7,1.6,1.6v15l11,11h8l6.6-6.6c0.6-0.6,1.6-0.6,2.3,0s0.6,1.6,0,2.3l-7.1,7.1
				C441.2,506.6,440.8,506.7,440.3,506.7z" style="fill:#FF2E93;"/>
		</g>
		<g>
			<path d="M326.5,447.8c-0.4,0-0.8-0.2-1.1-0.5l-11-11c-0.6-0.6-0.6-1.6,0-2.3c0.6-0.6,1.6-0.6,2.3,0l11,11
				c0.6,0.6,0.6,1.6,0,2.3C327.4,447.7,326.9,447.8,326.5,447.8z" style="fill:#FF2E93;"/>
		</g>
		<g>
			<path d="M475.1,447.8c-0.4,0-0.8-0.2-1.1-0.5c-0.6-0.6-0.6-1.6,0-2.3l11-11c0.6-0.6,1.6-0.6,2.3,0s0.6,1.6,0,2.3
				l-11,11C475.9,447.7,475.5,447.8,475.1,447.8z" style="fill:#FF2E93;"/>
		</g>
		<g>
			<path d="M333.3,443.2c-0.4,0-0.8-0.2-1.1-0.5l-12.1-12.1c-0.6-0.6-0.6-1.6,0-2.3c0.6-0.6,1.6-0.6,2.3,0l12.1,12.1
				c0.6,0.6,0.6,1.6,0,2.3C334.1,443.1,333.7,443.2,333.3,443.2z" style="fill:#FF2E93;"/>
		</g>
		<g>
			<path d="M468.3,443.2c-0.4,0-0.8-0.2-1.1-0.5c-0.6-0.6-0.6-1.6,0-2.3l12.1-12.1c0.6-0.6,1.6-0.6,2.3,0s0.6,1.6,0,2.3
				l-12.1,12.1C469.1,443.1,468.7,443.2,468.3,443.2z" style="fill:#FF2E93;"/>
		</g>
		<path d="M371.6,425.9c0.9,0.9,0.9,2.4,0,3.3c-0.9,0.9-2.4,0.9-3.3,0c-0.9-0.9-0.9-2.4,0-3.3
			C369.2,424.9,370.7,424.9,371.6,425.9z" style="fill:#00E6B3;"/>
		<path d="M430.6,425.9c-0.9,0.9-0.9,2.4,0,3.3c0.9,0.9,2.4,0.9,3.3,0c0.9-0.9,0.9-2.4,0-3.3
			C433.1,424.9,431.6,424.9,430.6,425.9z" style="fill:#00E6B3;"/>
		<circle cx="331.5" cy="614.4" r="2.4" style="fill:#142664;"/>
		<circle cx="470.2" cy="614.4" r="2.4" style="fill:#142664;"/>
		<path d="M378.5,432.8c0.9,0.9,0.9,2.4,0,3.3c-0.9,0.9-2.4,0.9-3.3,0c-0.9-0.9-0.9-2.4,0-3.3
			C376.1,431.8,377.6,431.8,378.5,432.8z" style="fill:#00E6B3;"/>
		<path d="M423.8,432.8c-0.9,0.9-0.9,2.4,0,3.3c0.9,0.9,2.4,0.9,3.3,0c0.9-0.9,0.9-2.4,0-3.3
			C426.2,431.8,424.7,431.8,423.8,432.8z" style="fill:#00E6B3;"/>
		<circle cx="341.2" cy="614.4" r="2.4" style="fill:#142664;"/>
		<circle cx="460.4" cy="614.4" r="2.4" style="fill:#142664;"/>
		<path d="M444.1,549c1.4,1.4,1.8,3.5,1.1,5.4c-0.8,1.9-2.6,3.1-4.6,3.1c-19.9,0-59.7,0-79.6,0c-2,0-3.8-1.2-4.6-3.1
			c-0.8-1.9-0.3-4,1.1-5.4c7.1-7.1,16.6-16.6,20.2-20.2c0.9-0.9,2.2-1.5,3.5-1.5c7.3,0,31.8,0,39.1,0c1.3,0,2.6,0.5,3.5,1.5
			C427.5,532.4,437,541.9,444.1,549L444.1,549z" style="fill:#FFFFFF;"/>
		<path d="M382.4,527.4h3.1v5.3h13.7v-5.3h3.1v5.3H416v-5.3h3.1v5.3h8.7l3.1,3.1h-11.8v5h13.7v-3.2l3.1,3.1v0h0l3.1,3.1
			h-3.2v5h8.2l1.9,1.9c0.4,0.4,0.6,0.8,0.8,1.3h-10.9v5.3h-3.1v-5.3h-13.7v5.3H416v-5.3h-13.7v5.3h-3.1v-5.3h-13.7v5.3h-3.1v-5.3
			h-13.7v5.3h-3.1v-5.3h-10.8c0.2-0.5,0.5-0.9,0.8-1.3l1.9-1.9h8.1v-5h-3.1l6.2-6.2v3.1h13.7v-5h-11.7l3.1-3.1h8.6L382.4,527.4
			L382.4,527.4z M368.8,544v5h13.7v-5H368.8z M385.5,544v5h13.7v-5H385.5z M402.3,544v5H416v-5H402.3z M419.1,544v5h13.7v-5H419.1z
			 M385.5,535.8v5h13.7v-5H385.5z M402.3,535.8v5H416v-5H402.3z" style="fill:#FF2E93;"/>
		<g>
			<path d="M364.4,575.9h-40.9c-0.6,0-1.2-0.4-1.5-1l-7.3-16.8c-0.4-0.8,0-1.8,0.8-2.1c0.8-0.4,1.8,0,2.1,0.8l6.9,15.9
				h38.2v-15.2c0-0.9,0.7-1.6,1.6-1.6c0.9,0,1.6,0.7,1.6,1.6v16.8C366,575.2,365.3,575.9,364.4,575.9z" style="fill:#142664;"/>
		</g>
		<g>
			<path d="M478.1,575.9h-40.9c-0.9,0-1.6-0.7-1.6-1.6v-16.8c0-0.9,0.7-1.6,1.6-1.6s1.6,0.7,1.6,1.6v15.2h38.2l6.9-15.9
				c0.4-0.8,1.3-1.2,2.1-0.8c0.8,0.4,1.2,1.3,0.8,2.1l-7.3,16.8C479.4,575.6,478.8,575.9,478.1,575.9z" style="fill:#142664;"/>
		</g>
		<g>
			<path d="M317.7,614.9c-0.4,0-0.8-0.2-1.1-0.5c-0.6-0.6-0.6-1.6,0-2.3l24.9-24.9v-12.9c0-0.9,0.7-1.6,1.6-1.6
				c0.9,0,1.6,0.7,1.6,1.6v13.6c0,0.4-0.2,0.8-0.5,1.1l-25.4,25.4C318.5,614.8,318.1,614.9,317.7,614.9z" style="fill:#142664;"/>
		</g>
		<g>
			<path d="M484,614.9c-0.4,0-0.8-0.2-1.1-0.5l-25.4-25.4c-0.3-0.3-0.5-0.7-0.5-1.1v-13.6c0-0.9,0.7-1.6,1.6-1.6
				c0.9,0,1.6,0.7,1.6,1.6v12.9l24.9,24.9c0.6,0.6,0.6,1.6,0,2.3C484.8,614.8,484.4,614.9,484,614.9z" style="fill:#142664;"/>
		</g>
		<g>
			<circle cx="400.8" cy="607.4" r="15.4" style="fill:#142664;"/>
			<path d="M400.8,624.5c-9.4,0-17-7.6-17-17c0-9.4,7.6-17,17-17c9.4,0,17,7.6,17,17
				C417.9,616.8,410.2,624.5,400.8,624.5z M400.8,593.6c-7.6,0-13.8,6.2-13.8,13.8c0,7.6,6.2,13.8,13.8,13.8
				c7.6,0,13.8-6.2,13.8-13.8C414.7,599.8,408.4,593.6,400.8,593.6z" style="fill:#142664;"/>
		</g>
		<circle cx="400.8" cy="607.4" r="7.7" style="fill:#FF2E93;"/>
		<g>
			<path d="M385.4,607.7c-0.4,0-0.8-0.2-1.1-0.5l-31.8-31.8c-0.6-0.6-0.6-1.6,0-2.3c0.6-0.6,1.6-0.6,2.3,0l31.8,31.8
				c0.6,0.6,0.6,1.6,0,2.3C386.3,607.6,385.8,607.7,385.4,607.7z" style="fill:#142664;"/>
		</g>
		<g>
			<path d="M416.2,607.7c-0.4,0-0.8-0.2-1.1-0.5c-0.6-0.6-0.6-1.6,0-2.3l31.8-31.8c0.6-0.6,1.6-0.6,2.3,0s0.6,1.6,0,2.3
				l-31.8,31.8C417,607.6,416.6,607.7,416.2,607.7z" style="fill:#142664;"/>
		</g>
		<path d="M335.6,624.2H348c2.3,0,4.5,1.4,5.4,3.5c2.1,4.8,5.9,13.7,8.8,20.2c0.8,1.8,0.6,3.9-0.5,5.6
			c-1.1,1.7-2.9,2.7-4.9,2.7c-3.7,0-7.2,0-7.2,0L335.6,624.2z" style="fill:#142664;"/>
		<path d="M466,624.2h-12.3c-2.3,0-4.5,1.4-5.4,3.5c-2.1,4.8-5.9,13.7-8.8,20.2c-0.8,1.8-0.6,3.9,0.5,5.6
			c1.1,1.7,2.9,2.7,4.9,2.7c3.7,0,7.2,0,7.2,0L466,624.2z" style="fill:#142664;"/>
		<path d="M374.1,696.8c-1.2,0-2.2-0.7-2.6-1.8c-0.4-1.1-0.2-2.3,0.6-3.1c4.5-4.5,11-11,14-14c1.1-1.1,1.6-2.5,1.6-4
			v-28.1c0-1.5,0.6-2.9,1.6-4c1.1-1.1,2.5-1.6,4-1.6c4.4,0,10.6,0,15,0c1.5,0,2.9,0.6,4,1.6c1.1,1.1,1.6,2.5,1.6,4
			c0,8,0,22.5,0,28.1c0,1.5,0.6,2.9,1.6,4c3,3,9.5,9.5,14,14c0.8,0.8,1.1,2,0.6,3.1c-0.4,1.1-1.5,1.8-2.6,1.8c-0.8,0-1.3,0-1.3,0
			s-6.6,15.3-8.9,20.5c-0.5,1-1.5,1.7-2.6,1.7c-2.1,0-5.1,0-5.1,0v-7.5c0-1.3-0.5-2.5-1.4-3.4c-0.9-0.9-2.1-1.4-3.4-1.4
			c-2.5,0-5.6,0-8.1,0c-1.3,0-2.5,0.5-3.4,1.4c-0.9,0.9-1.4,2.1-1.4,3.4c0,3.5,0,7.5,0,7.5h-5.1c-1.1,0-2.2-0.7-2.6-1.7
			c-2.3-5.2-8.9-20.5-8.9-20.5L374.1,696.8L374.1,696.8z" style="fill:#142664;"/>
		<ellipse cx="344.6" cy="455.3" rx="22" ry="16" style="fill:#00E6B3;"/>
		<path d="M327.8,452.8v-10.7h33.5v10.7c0,6.7-7.5,12.2-16.8,12.2S327.8,459.5,327.8,452.8z" style="fill:#FFFFFF;"/>
		<g>
			<path d="M338.2,500.6c-0.9,0-1.6-0.7-1.6-1.6v-17.3c-8.7-2.3-17.1-8.5-17.1-16.5c0-0.9,0.7-1.6,1.6-1.6
				c0.9,0,1.6,0.7,1.6,1.6c0,6.6,8.2,12,15.9,13.7c0.7,0.2,1.3,0.8,1.3,1.6V499C339.8,499.9,339.1,500.6,338.2,500.6z" style="fill:#142664;"/>
		</g>
		<path d="M404.1,691.3c0.4,0.8,0.4,1.7-0.1,2.4c-0.4,0.7-1.2,1.2-2.1,1.2c-0.8,0-1.6,0-2.3,0c-0.9,0-1.7-0.5-2.1-1.2
			c-0.4-0.7-0.5-1.7-0.1-2.4c0.4-0.7,0.8-1.5,1.2-2.2c0.4-0.8,1.3-1.3,2.2-1.3c0.9,0,1.7,0.5,2.2,1.3
			C403.4,689.9,403.8,690.6,404.1,691.3z" style="fill:#FF2E93;"/>
		<path d="M404.1,672.7c0.4,0.8,0.4,1.7-0.1,2.4c-0.4,0.7-1.2,1.2-2.1,1.2c-0.8,0-1.6,0-2.3,0c-0.9,0-1.7-0.5-2.1-1.2
			c-0.4-0.7-0.5-1.7-0.1-2.4c0.4-0.7,0.8-1.5,1.2-2.2c0.4-0.8,1.3-1.3,2.2-1.3c0.9,0,1.7,0.5,2.2,1.3
			C403.4,671.3,403.8,672,404.1,672.7z" style="fill:#FF2E93;"/>
		<path d="M404.1,654.1c0.4,0.8,0.4,1.7-0.1,2.4c-0.4,0.7-1.2,1.2-2.1,1.2c-0.8,0-1.6,0-2.3,0c-0.9,0-1.7-0.5-2.1-1.2
			c-0.4-0.7-0.5-1.7-0.1-2.4c0.4-0.7,0.8-1.5,1.2-2.2c0.4-0.8,1.3-1.3,2.2-1.3c0.9,0,1.7,0.5,2.2,1.3
			C403.4,652.7,403.8,653.4,404.1,654.1z" style="fill:#FF2E93;"/>
		<g>
			
				<rect x="426.7" y="526.3" transform="matrix(0.7071 -0.7071 0.7071 0.7071 -245.691 462.6122)" width="17.8" height="3.2" style="fill:#142664;"/>
		</g>
		<g>
			
				<rect x="364.4" y="519" transform="matrix(0.7071 -0.7071 0.7071 0.7071 -266.0652 413.4385)" width="3.2" height="17.8" style="fill:#142664;"/>
		</g>
		<g>
			
				<rect x="432.1" y="531.7" transform="matrix(0.7071 -0.7071 0.7071 0.7071 -247.9245 468.0049)" width="17.8" height="3.2" style="fill:#142664;"/>
		</g>
		<g>
			
				<rect x="359" y="524.4" transform="matrix(0.7071 -0.7071 0.7071 0.7071 -271.456 411.1949)" width="3.2" height="17.8" style="fill:#142664;"/>
		</g>
		<g>
			<rect x="399.2" y="622.2" width="3.2" height="21.9" style="fill:#142664;"/>
		</g>
		<g>
			<path d="M327.9,527.3h-13.1c-0.9,0-1.6-0.7-1.6-1.6c0-0.9,0.7-1.6,1.6-1.6h11.4v-14.8c0-0.4,0.2-0.8,0.5-1.1
				l10.3-10.3c0.6-0.6,1.6-0.6,2.3,0s0.6,1.6,0,2.3l-9.8,9.8v15.7C329.5,526.6,328.8,527.3,327.9,527.3z" style="fill:#FF2E93;"/>
		</g>
		<g>
			<path d="M486.8,527.3h-13.1c-0.9,0-1.6-0.7-1.6-1.6v-15.7l-9.8-9.8c-0.6-0.6-0.6-1.6,0-2.3s1.6-0.6,2.3,0l10.3,10.3
				c0.3,0.3,0.5,0.7,0.5,1.1v14.8h11.4c0.9,0,1.6,0.7,1.6,1.6C488.4,526.6,487.7,527.3,486.8,527.3z" style="fill:#FF2E93;"/>
		</g>
		<path d="M377.9,393c0,0,10,10,16.8,16.8c3.4,3.4,8.9,3.4,12.3,0c6.8-6.8,16.8-16.8,16.8-16.8H377.9z" style="fill:#142664;"/>
		<path d="M479,483.7v-28.4h-43.9v28.4c0,8.8,9.8,16,22,16C469.2,499.7,479,492.5,479,483.7L479,483.7z" style="fill:#FFFFFF;"/>
		<g>
			<path d="M447.4,499.7c-0.9,0-1.6-0.7-1.6-1.6v-35.3c0-0.9,0.7-1.6,1.6-1.6c0.9,0,1.6,0.7,1.6,1.6v35.3
				C449,498.9,448.3,499.7,447.4,499.7z" style="fill:#142664;"/>
		</g>
		<ellipse cx="457" cy="455.3" rx="22" ry="16" style="fill:#00E6B3;"/>
		<path d="M473.8,452.8v-10.7h-33.5v10.7c0,6.7,7.5,12.2,16.8,12.2S473.8,459.5,473.8,452.8z" style="fill:#FFFFFF;"/>
		<g>
			<path d="M463.4,500.6c-0.9,0-1.6-0.7-1.6-1.6v-18.6c0-0.8,0.5-1.4,1.3-1.6c7.7-1.7,15.9-7.1,15.9-13.7
				c0-0.9,0.7-1.6,1.6-1.6c0.9,0,1.6,0.7,1.6,1.6c0,8-8.4,14.2-17.1,16.5V499C465,499.9,464.3,500.6,463.4,500.6z" style="fill:#142664;"/>
		</g>
		<g>
			<path d="M333.8,461.8c-0.9,0-1.6-0.7-1.6-1.6v-10.7c0-0.9,0.7-1.6,1.6-1.6s1.6,0.7,1.6,1.6v10.7
				C335.5,461,334.7,461.8,333.8,461.8z" style="fill:#142664;"/>
		</g>
		<g>
			<path d="M467.3,461.8c-0.9,0-1.6-0.7-1.6-1.6v-10.7c0-0.9,0.7-1.6,1.6-1.6s1.6,0.7,1.6,1.6v10.7
				C468.9,461,468.2,461.8,467.3,461.8z" style="fill:#142664;"/>
		</g>
		<g>
			<path d="M340,464.4c-0.9,0-1.6-0.7-1.6-1.6v-10.7c0-0.9,0.7-1.6,1.6-1.6s1.6,0.7,1.6,1.6v10.7
				C341.6,463.7,340.9,464.4,340,464.4z" style="fill:#142664;"/>
		</g>
		<g>
			<path d="M461.2,464.4c-0.9,0-1.6-0.7-1.6-1.6v-10.7c0-0.9,0.7-1.6,1.6-1.6c0.9,0,1.6,0.7,1.6,1.6v10.7
				C462.8,463.7,462.1,464.4,461.2,464.4z" style="fill:#142664;"/>
		</g>
		<ellipse cx="344.6" cy="442.1" rx="16.8" ry="12.2" style="fill:#00E6B3;"/>
		<ellipse cx="344.6" cy="442.1" rx="11.6" ry="7.4" style="fill:#142664;"/>
		<path d="M341.3,435c1.1-0.2,2.2-0.3,3.3-0.3c1.2,0,2.3,0.1,3.3,0.3v3.8c0,1.8-1.5,3.3-3.3,3.3h0
			c-1.8,0-3.3-1.5-3.3-3.3C341.3,437,341.3,435,341.3,435L341.3,435z" style="fill:#FF2E93;"/>
		<ellipse cx="457" cy="442.1" rx="16.8" ry="12.2" style="fill:#00E6B3;"/>
		<ellipse cx="457" cy="442.1" rx="11.6" ry="7.4" style="fill:#142664;"/>
		<path d="M460.4,435c-1.1-0.2-2.2-0.3-3.3-0.3c-1.2,0-2.3,0.1-3.3,0.3v3.8c0,1.8,1.5,3.3,3.3,3.3c0,0,0,0,0,0
			c1.8,0,3.3-1.5,3.3-3.3C460.4,437,460.4,435,460.4,435L460.4,435z" style="fill:#FF2E93;"/>
	</g>
	<path d="M87.3,470.7c-0.1,1.3-1.3,2.2-2.6,2.1c-1.3-0.1-2.2-1.3-2.1-2.6c0.1-1.3,1.3-2.2,2.6-2.1
		C86.5,468.3,87.4,469.4,87.3,470.7z" style="fill:#FF2E93;"/>
	<path d="M714.3,470.7c0.1,1.3,1.3,2.2,2.6,2.1c1.3-0.1,2.2-1.3,2.1-2.6c-0.1-1.3-1.3-2.2-2.6-2.1
		C715.1,468.3,714.1,469.4,714.3,470.7z" style="fill:#FF2E93;"/>
	<path d="M88.7,335.9c0-2.5,0.9-5,2.9-7l35.2-35.2c1.8-1.8,4.3-2.9,6.9-2.9h28.9c2.6,0,5.1,1,6.9,2.9l15.2,15.2
		c3.8,3.8,3.8,10,0,13.8c-3.8,3.8-10,3.8-13.8,0l-12.3-12.3h-20.8c0,0-22.7,22.7-26.9,26.9c-0.4,0.4-0.7,1-0.7,1.6c0,0,0,0,0,0
		c0,1.2,0.7,2.2,1.8,2.7c1.1,0.5,2.3,0.2,3.2-0.6c4.9-4.9,11.6-11.6,11.6-11.6c1.8-1.8,4.3-2.9,6.9-2.9h28.9c2.6,0,5.1,1,6.9,2.9
		l15.2,15.2c3.8,3.8,3.8,10,0,13.8s-10,3.8-13.8,0l-12.3-12.3h-20.8c0,0-22.7,22.7-26.9,26.9c-0.4,0.4-0.7,1-0.7,1.6c0,0,0,0,0,0
		c0,1.2,0.7,2.2,1.8,2.7c1.1,0.5,2.3,0.2,3.2-0.6c4.9-4.9,11.6-11.6,11.6-11.6c1.8-1.8,4.3-2.9,6.9-2.9h28.9c2.6,0,5.1,1,6.9,2.9
		l15.2,15.2c3.8,3.8,3.8,10,0,13.8c-3.8,3.8-10,3.8-13.8,0l-12.3-12.3h-20.8c0,0-9.7,9.7-16,16c-2.8,2.8-2.8,7.4,0,10.3
		c6,6,15.7,15.7,19.9,19.9c1.4,1.4,3.2,2.2,5.2,2.2c4,0,11.4,0,17.7,0c1.9,0,3.7,1.2,4.4,2.9c0.7,1.8,0.3,3.8-1,5.2
		c-3.3,3.3-6.8,6.8-9.2,9.2c-1.8,1.8-4.3,2.8-6.8,2.8c-5.4,0-15,0-20.5,0c-2.6,0-5-1-6.8-2.8c-7.2-7.2-26-26-33.2-33.2
		c-1.8-1.8-2.8-4.3-2.8-6.8C88.7,391.8,88.7,335.9,88.7,335.9L88.7,335.9L88.7,335.9z" style="fill:#00E6B3;"/>
	<path d="M712.9,335.9c0-2.5-0.9-5-2.9-7l-35.2-35.2c-1.8-1.8-4.3-2.9-6.9-2.9H639c-2.6,0-5.1,1-6.9,2.9l-15.2,15.2
		c-3.8,3.8-3.8,10,0,13.8c3.8,3.8,10,3.8,13.8,0l12.3-12.3h20.8c0,0,22.7,22.7,26.9,26.9c0.4,0.4,0.7,1,0.7,1.6c0,0,0,0,0,0
		c0,1.2-0.7,2.2-1.8,2.7c-1.1,0.5-2.3,0.2-3.2-0.6c-4.9-4.9-11.6-11.6-11.6-11.6c-1.8-1.8-4.3-2.9-6.9-2.9H639c-2.6,0-5.1,1-6.9,2.9
		l-15.2,15.2c-3.8,3.8-3.8,10,0,13.8c3.8,3.8,10,3.8,13.8,0l12.3-12.3h20.8c0,0,22.7,22.7,26.9,26.9c0.4,0.4,0.7,1,0.7,1.6
		c0,0,0,0,0,0c0,1.2-0.7,2.2-1.8,2.7c-1.1,0.5-2.3,0.2-3.2-0.6c-4.9-4.9-11.6-11.6-11.6-11.6c-1.8-1.8-4.3-2.9-6.9-2.9H639
		c-2.6,0-5.1,1-6.9,2.9l-15.2,15.2c-3.8,3.8-3.8,10,0,13.8c3.8,3.8,10,3.8,13.8,0l12.3-12.3h20.8c0,0,9.7,9.7,16,16
		c2.8,2.8,2.8,7.4,0,10.3c-6,6-15.7,15.7-19.9,19.9c-1.4,1.4-3.2,2.2-5.2,2.2c-4,0-11.4,0-17.7,0c-1.9,0-3.7,1.2-4.4,2.9
		c-0.7,1.8-0.3,3.8,1,5.2c3.3,3.3,6.8,6.8,9.2,9.2c1.8,1.8,4.3,2.8,6.8,2.8c5.4,0,15,0,20.5,0c2.6,0,5-1,6.8-2.8
		c7.2-7.2,26-26,33.2-33.2c1.8-1.8,2.8-4.3,2.8-6.8C712.9,391.8,712.9,335.9,712.9,335.9L712.9,335.9L712.9,335.9z" style="fill:#00E6B3;"/>
	<g>
		<path d="M150.8,452.6h-19.3c-3,0-5.8-1.2-8-3.3l-23.7-23.7c-0.6-0.6-0.6-1.6,0-2.3c0.6-0.6,1.6-0.6,2.3,0l23.7,23.7
			c1.5,1.5,3.5,2.4,5.7,2.4h19.3c0.9,0,1.6,0.7,1.6,1.6C152.4,451.9,151.7,452.6,150.8,452.6z" style="fill:#142664;"/>
	</g>
	<g>
		<path d="M670.1,452.6h-19.3c-0.9,0-1.6-0.7-1.6-1.6c0-0.9,0.7-1.6,1.6-1.6h19.3c2.2,0,4.2-0.8,5.7-2.4l23.7-23.7
			c0.6-0.6,1.6-0.6,2.3,0s0.6,1.6,0,2.3L678,449.3C675.9,451.5,673.1,452.6,670.1,452.6z" style="fill:#142664;"/>
	</g>
	<path d="M165,364.6c0,0-0.9,1.5-2,3.5c-0.6,1.1-1.3,2.3-1.9,3.6c-0.4,0.7-0.7,1.5-1,2.2c-1.2,2.9-2,5.3-2,5.3
		c-0.4,0.7,0,1.6,0.7,2c0.7,0.4,1.6,0,2-0.7c0,0,1.3-2.2,2.8-4.9c0.4-0.7,0.8-1.4,1.1-2.2c0.6-1.3,1.1-2.6,1.6-3.7
		c0.9-2.2,1.4-3.8,1.4-3.8c0.4-0.7,0-1.6-0.7-2C166.2,363.6,165.3,363.9,165,364.6L165,364.6z" style="fill:#142664;"/>
	<path d="M633.9,365.9c0,0,0.6,1.6,1.4,3.8c0.5,1.2,1,2.5,1.6,3.7c0.3,0.7,0.7,1.5,1.1,2.2c1.5,2.7,2.8,4.9,2.8,4.9
		c0.4,0.7,1.2,1.1,2,0.7c0.7-0.3,1.1-1.2,0.7-2c0,0-0.9-2.4-2-5.3c-0.3-0.7-0.6-1.5-1-2.2c-0.6-1.3-1.3-2.5-1.9-3.6
		c-1.1-2-2-3.5-2-3.5c-0.4-0.7-1.2-1.1-2-0.7C633.9,364.3,633.6,365.2,633.9,365.9L633.9,365.9z" style="fill:#142664;"/>
	<path d="M165,329.2c0,0-0.9,1.5-2,3.5c-0.6,1.1-1.3,2.3-1.9,3.6c-0.4,0.7-0.7,1.5-1,2.2c-1.2,2.9-2,5.3-2,5.3
		c-0.4,0.7,0,1.6,0.7,2c0.7,0.4,1.6,0,2-0.7c0,0,1.3-2.2,2.8-4.9c0.4-0.7,0.8-1.4,1.1-2.2c0.6-1.3,1.1-2.6,1.6-3.7
		c0.9-2.2,1.4-3.8,1.4-3.8c0.4-0.7,0-1.6-0.7-2C166.2,328.2,165.3,328.5,165,329.2L165,329.2z" style="fill:#142664;"/>
	<path d="M633.9,330.5c0,0,0.6,1.6,1.4,3.8c0.5,1.2,1,2.5,1.6,3.7c0.3,0.7,0.7,1.5,1.1,2.2c1.5,2.7,2.8,4.9,2.8,4.9
		c0.4,0.7,1.2,1.1,2,0.7c0.7-0.4,1.1-1.2,0.7-2c0,0-0.9-2.4-2-5.3c-0.3-0.7-0.6-1.5-1-2.2c-0.6-1.3-1.3-2.5-1.9-3.6
		c-1.1-2-2-3.5-2-3.5c-0.4-0.7-1.2-1.1-2-0.7C633.9,328.9,633.6,329.8,633.9,330.5L633.9,330.5z" style="fill:#142664;"/>
	<path d="M165,292.9c0,0-0.9,1.5-2,3.5c-0.6,1.1-1.3,2.3-1.9,3.6c-0.4,0.7-0.7,1.5-1,2.2c-1.2,2.9-2,5.3-2,5.3
		c-0.4,0.7,0,1.6,0.7,2c0.7,0.4,1.6,0,2-0.7c0,0,1.3-2.2,2.8-4.9c0.4-0.7,0.8-1.4,1.1-2.2c0.6-1.3,1.1-2.6,1.6-3.7
		c0.9-2.2,1.4-3.8,1.4-3.8c0.4-0.7,0-1.6-0.7-2C166.2,291.9,165.3,292.2,165,292.9L165,292.9z" style="fill:#142664;"/>
	<path d="M633.9,294.2c0,0,0.6,1.6,1.4,3.8c0.5,1.2,1,2.5,1.6,3.7c0.3,0.7,0.7,1.5,1.1,2.2c1.5,2.7,2.8,4.9,2.8,4.9
		c0.4,0.7,1.2,1.1,2,0.7c0.7-0.4,1.1-1.2,0.7-2c0,0-0.9-2.4-2-5.3c-0.3-0.7-0.6-1.5-1-2.2c-0.6-1.3-1.3-2.5-1.9-3.6
		c-1.1-2-2-3.5-2-3.5c-0.4-0.7-1.2-1.1-2-0.7C633.9,292.6,633.6,293.5,633.9,294.2L633.9,294.2z" style="fill:#142664;"/>
	<path d="M138.7,379.3c0,0-0.5-1.7-1.2-3.9c-0.4-1.2-0.9-2.5-1.4-3.9c-0.3-0.8-0.7-1.5-1-2.3c-1.4-2.9-2.6-5.2-2.6-5.2
		c-0.3-0.8-1.2-1.1-1.9-0.8c-0.8,0.3-1.1,1.2-0.8,1.9c0,0,0.7,2.5,1.8,5.5c0.3,0.8,0.5,1.5,0.9,2.3c0.5,1.3,1.2,2.6,1.7,3.7
		c1,2.1,1.9,3.7,1.9,3.7c0.3,0.8,1.2,1.1,1.9,0.8C138.7,381,139,380.1,138.7,379.3z" style="fill:#142664;"/>
	<path d="M665.6,380.5c0,0,0.8-1.5,1.9-3.7c0.5-1.1,1.2-2.4,1.7-3.7c0.3-0.8,0.6-1.6,0.9-2.3c1-3,1.8-5.5,1.8-5.5
		c0.3-0.8-0.1-1.6-0.8-1.9c-0.8-0.3-1.6,0.1-1.9,0.8c0,0-1.2,2.3-2.6,5.2c-0.3,0.7-0.7,1.5-1,2.3c-0.5,1.3-1,2.7-1.4,3.9
		c-0.8,2.3-1.2,3.9-1.2,3.9c-0.3,0.8,0.1,1.6,0.8,1.9C664.4,381.6,665.3,381.2,665.6,380.5L665.6,380.5z" style="fill:#142664;"/>
	<path d="M138.7,343.9c0,0-0.5-1.7-1.2-3.9c-0.4-1.2-0.9-2.5-1.4-3.9c-0.3-0.8-0.7-1.5-1-2.3c-1.4-2.9-2.6-5.2-2.6-5.2
		c-0.3-0.8-1.2-1.1-1.9-0.8c-0.8,0.3-1.1,1.2-0.8,1.9c0,0,0.7,2.5,1.8,5.5c0.3,0.8,0.5,1.5,0.9,2.3c0.5,1.3,1.2,2.6,1.7,3.7
		c1,2.1,1.9,3.7,1.9,3.7c0.3,0.8,1.2,1.1,1.9,0.8C138.7,345.6,139,344.7,138.7,343.9z" style="fill:#142664;"/>
	<path d="M665.6,345.1c0,0,0.8-1.5,1.9-3.7c0.5-1.1,1.2-2.4,1.7-3.7c0.3-0.8,0.6-1.6,0.9-2.3c1-3,1.8-5.5,1.8-5.5
		c0.3-0.8-0.1-1.6-0.8-1.9c-0.8-0.3-1.6,0.1-1.9,0.8c0,0-1.2,2.3-2.6,5.2c-0.3,0.7-0.7,1.5-1,2.3c-0.5,1.3-1,2.7-1.4,3.9
		c-0.8,2.3-1.2,3.9-1.2,3.9c-0.3,0.8,0.1,1.6,0.8,1.9C664.4,346.2,665.3,345.8,665.6,345.1L665.6,345.1z" style="fill:#142664;"/>
	<path d="M138.7,307.7c0,0-0.5-1.7-1.2-3.9c-0.4-1.2-0.9-2.5-1.4-3.9c-0.3-0.8-0.7-1.5-1-2.3c-1.4-2.9-2.6-5.2-2.6-5.2
		c-0.3-0.8-1.2-1.1-1.9-0.8c-0.8,0.3-1.1,1.2-0.8,1.9c0,0,0.7,2.5,1.8,5.5c0.3,0.8,0.5,1.5,0.9,2.3c0.5,1.3,1.2,2.6,1.7,3.7
		c1,2.1,1.9,3.7,1.9,3.7c0.3,0.8,1.2,1.1,1.9,0.8C138.7,309.3,139,308.4,138.7,307.7z" style="fill:#142664;"/>
	<path d="M665.6,308.8c0,0,0.8-1.5,1.9-3.7c0.5-1.1,1.2-2.4,1.7-3.7c0.3-0.8,0.6-1.6,0.9-2.3c1-3,1.8-5.5,1.8-5.5
		c0.3-0.8-0.1-1.6-0.8-1.9c-0.8-0.3-1.6,0.1-1.9,0.8c0,0-1.2,2.3-2.6,5.2c-0.3,0.7-0.7,1.5-1,2.3c-0.5,1.3-1,2.7-1.4,3.9
		c-0.8,2.3-1.2,3.9-1.2,3.9c-0.3,0.8,0.1,1.6,0.8,1.9C664.4,309.9,665.3,309.5,665.6,308.8L665.6,308.8z" style="fill:#142664;"/>
	<path d="M186.4,411c0,0,0.4,1.5,1.2,3.6c0.4,1.1,0.8,2.3,1.3,3.5c0.3,0.7,0.6,1.4,1,2c1.3,2.6,2.5,4.6,2.5,4.6
		c0.3,0.8,1.2,1.1,2,0.8c0.8-0.3,1.1-1.2,0.8-2c0,0-0.7-2.3-1.7-5c-0.2-0.7-0.5-1.4-0.8-2.1c-0.5-1.2-1.1-2.3-1.6-3.4
		c-1-1.9-1.8-3.3-1.8-3.3c-0.3-0.8-1.2-1.1-2-0.8C186.4,409.3,186.1,410.2,186.4,411z" style="fill:#142664;"/>
	<path d="M612.5,409.8c0,0-0.8,1.4-1.8,3.3c-0.5,1-1.1,2.2-1.6,3.4c-0.3,0.7-0.6,1.4-0.8,2.1c-1,2.7-1.7,5-1.7,5
		c-0.3,0.8,0,1.6,0.8,2c0.8,0.3,1.6,0,2-0.8c0,0,1.2-2.1,2.5-4.6c0.3-0.6,0.7-1.3,1-2c0.5-1.2,0.9-2.4,1.3-3.5
		c0.7-2,1.2-3.6,1.2-3.6c0.3-0.8,0-1.6-0.8-2S612.8,409,612.5,409.8L612.5,409.8z" style="fill:#142664;"/>
	<g>
		<path d="M128.1,484.6c-0.9,0-1.6-0.7-1.6-1.6v-11l-25.6-25.6l-7.7,7.7c-0.3,0.3-0.7,0.5-1.1,0.5l0,0
			c-0.4,0-0.8-0.2-1.1-0.5L79,442.1c-0.6-0.6-0.6-1.6,0-2.3c0.6-0.6,1.6-0.6,2.3,0l10.7,10.7l7.7-7.7c0.6-0.6,1.6-0.6,2.3,0
			l27.2,27.2c0.3,0.3,0.5,0.7,0.5,1.1V483C129.7,483.9,129,484.6,128.1,484.6z" style="fill:#142664;"/>
	</g>
	<g>
		<path d="M673.5,484.6c-0.9,0-1.6-0.7-1.6-1.6v-11.7c0-0.4,0.2-0.8,0.5-1.1l27.2-27.2c0.6-0.6,1.6-0.6,2.3,0l7.7,7.7
			l10.7-10.7c0.6-0.6,1.6-0.6,2.3,0c0.6,0.6,0.6,1.6,0,2.3L710.7,454c-0.6,0.6-1.6,0.6-2.3,0l-7.7-7.7L675.1,472v11
			C675.1,483.9,674.4,484.6,673.5,484.6z" style="fill:#142664;"/>
	</g>
	<path d="M143.3,462.6c0,0,0.5,0.3,1.3,0.5c0.4,0.1,0.8,0.3,1.3,0.3c0.3,0,0.5-0.1,0.8-0.1c1.1-0.3,1.8-0.7,1.8-0.7
		c1.2,0,2.2-1,2.2-2.2c0-1.2-1-2.2-2.2-2.2c0,0-0.7-0.4-1.8-0.7c-0.3-0.1-0.5-0.1-0.8-0.1c-0.5,0-0.9,0.1-1.3,0.3
		c-0.8,0.2-1.3,0.5-1.3,0.5c-1.2,0-2.2,1-2.2,2.2C141,461.6,142,462.6,143.3,462.6L143.3,462.6z" style="fill:#142664;"/>
	<path d="M658.3,458.1c0,0-0.5-0.3-1.3-0.5c-0.4-0.1-0.8-0.3-1.3-0.3c-0.3,0-0.5,0.1-0.8,0.1c-1.1,0.3-1.8,0.7-1.8,0.7
		c-1.2,0-2.2,1-2.2,2.2c0,1.2,1,2.2,2.2,2.2c0,0,0.7,0.4,1.8,0.7c0.3,0.1,0.5,0.1,0.8,0.1c0.5,0,0.9-0.1,1.3-0.3
		c0.8-0.2,1.3-0.5,1.3-0.5c1.2,0,2.2-1,2.2-2.2C660.6,459.1,659.6,458.1,658.3,458.1L658.3,458.1z" style="fill:#142664;"/>
	<path d="M143.3,470.9c0,0,0.5,0.3,1.3,0.5c0.4,0.1,0.8,0.3,1.3,0.3c0.3,0,0.5-0.1,0.8-0.1c1.1-0.3,1.8-0.7,1.8-0.7
		c1.2,0,2.2-1,2.2-2.2s-1-2.2-2.2-2.2c0,0-0.7-0.4-1.8-0.7c-0.3-0.1-0.5-0.1-0.8-0.1c-0.5,0-0.9,0.1-1.3,0.3
		c-0.8,0.2-1.3,0.5-1.3,0.5c-1.2,0-2.2,1-2.2,2.2S142,470.9,143.3,470.9z" style="fill:#142664;"/>
	<path d="M658.3,466.5c0,0-0.5-0.3-1.3-0.5c-0.4-0.1-0.8-0.3-1.3-0.3c-0.3,0-0.5,0.1-0.8,0.1c-1.1,0.3-1.8,0.7-1.8,0.7
		c-1.2,0-2.2,1-2.2,2.2s1,2.2,2.2,2.2c0,0,0.7,0.4,1.8,0.7c0.3,0.1,0.5,0.1,0.8,0.1c0.5,0,0.9-0.1,1.3-0.3c0.8-0.2,1.3-0.5,1.3-0.5
		c1.2,0,2.2-1,2.2-2.2S659.6,466.5,658.3,466.5z" style="fill:#142664;"/>
	<path d="M143.3,479.2c0,0,0.5,0.3,1.3,0.5c0.4,0.1,0.8,0.3,1.3,0.3c0.3,0,0.5-0.1,0.8-0.1c1.1-0.3,1.8-0.7,1.8-0.7
		c1.2,0,2.2-1,2.2-2.2c0-1.2-1-2.2-2.2-2.2c0,0-0.7-0.4-1.8-0.7c-0.3-0.1-0.5-0.1-0.8-0.1c-0.5,0-0.9,0.1-1.3,0.3
		c-0.8,0.2-1.3,0.5-1.3,0.5c-1.2,0-2.2,1-2.2,2.2C141,478.2,142,479.2,143.3,479.2L143.3,479.2z" style="fill:#142664;"/>
	<path d="M658.3,474.8c0,0-0.5-0.3-1.3-0.5c-0.4-0.1-0.8-0.3-1.3-0.3c-0.3,0-0.5,0.1-0.8,0.1c-1.1,0.3-1.8,0.7-1.8,0.7
		c-1.2,0-2.2,1-2.2,2.2c0,1.2,1,2.2,2.2,2.2c0,0,0.7,0.4,1.8,0.7c0.3,0.1,0.5,0.1,0.8,0.1c0.5,0,0.9-0.1,1.3-0.3
		c0.8-0.2,1.3-0.5,1.3-0.5c1.2,0,2.2-1,2.2-2.2C660.6,475.8,659.6,474.8,658.3,474.8L658.3,474.8z" style="fill:#142664;"/>
	<g>
		<path d="M90.9,399.5c-0.4,0-0.8-0.2-1.1-0.5c-0.6-0.6-0.6-1.6,0-2.3l9.2-9.2v-27.5l-9.5-9.5c-0.6-0.6-0.6-1.6,0-2.3
			c0.6-0.6,1.6-0.6,2.3,0l10,10c0.3,0.3,0.5,0.7,0.5,1.1v28.9c0,0.4-0.2,0.8-0.5,1.1l-9.7,9.7C91.8,399.4,91.4,399.5,90.9,399.5z" style="fill:#142664;"/>
	</g>
	<g>
		<path d="M710.6,399.5c-0.4,0-0.8-0.2-1.1-0.5l-9.7-9.7c-0.3-0.3-0.5-0.7-0.5-1.1v-28.9c0-0.4,0.2-0.8,0.5-1.1l10-10
			c0.6-0.6,1.6-0.6,2.3,0c0.6,0.6,0.6,1.6,0,2.3l-9.5,9.5v27.5l9.2,9.2c0.6,0.6,0.6,1.6,0,2.3C711.5,399.4,711,399.5,710.6,399.5z" style="fill:#142664;"/>
	</g>
	<circle cx="168.1" cy="408.9" r="2.4" style="fill:#FF2E93;"/>
	<circle cx="633.4" cy="408.9" r="2.4" style="fill:#FF2E93;"/>
	<circle cx="161.4" cy="402.4" r="2.4" style="fill:#FF2E93;"/>
	<circle cx="640.2" cy="402.4" r="2.4" style="fill:#FF2E93;"/>
	<g>
		<path d="M141,422c-0.4,0-0.8-0.2-1.1-0.5c-0.6-0.6-0.6-1.6,0-2.3l10.8-10.8v-18.9c0-0.9,0.7-1.6,1.6-1.6
			c0.9,0,1.6,0.7,1.6,1.6v19.5c0,0.4-0.2,0.8-0.5,1.1l-11.3,11.3C141.8,421.9,141.4,422,141,422z" style="fill:#FF2E93;"/>
	</g>
	<g>
		<path d="M660.6,422c-0.4,0-0.8-0.2-1.1-0.5l-11.3-11.3c-0.3-0.3-0.5-0.7-0.5-1.1v-19.5c0-0.9,0.7-1.6,1.6-1.6
			s1.6,0.7,1.6,1.6v18.9l10.8,10.8c0.6,0.6,0.6,1.6,0,2.3C661.4,421.9,661,422,660.6,422z" style="fill:#FF2E93;"/>
	</g>
	<path d="M258.4,299.3c3.2-1.3,5.4-4.3,5.7-7.7c0.3-3.4-1.3-6.7-4.2-8.6c-1.7-1.1-3.4-2.2-5.1-3.2
		c-2.4-1.5-4-4.1-4.2-6.9c-0.3-2.8,0.8-5.6,2.9-7.6c4-3.6,8.5-7.8,11.9-10.9c3-2.8,3.8-7.2,2-10.9c-4.6-9.3-13.5-27.1-19.1-38.4
		c-1.3-2.5-1.3-5.5-0.1-8s3.5-4.4,6.2-5c6.1-1.4,13.2-3.1,18.1-4.2c3.4-0.8,6-3.4,6.8-6.8c1.2-5,3.1-12.4,4.4-17.8
		c1-3.9,4.4-6.8,8.4-7c7.3-0.4,18.7-1,25.3-1.4c3.3-0.2,6.2-2.1,7.7-5c3.8-7.5,11.4-22.4,16-31.5c2.2-4.4,7.5-6.2,12-4.2
		c12.2,5.5,35,15.8,44,19.8c2.4,1.1,5.1,1.1,7.5,0c9-4,31.8-14.3,44-19.8c4.5-2,9.7-0.2,12,4.2c4.6,9.1,12.2,24,16,31.5
		c1.5,2.9,4.4,4.8,7.7,5c6.6,0.4,18,1,25.3,1.4c4,0.2,7.5,3.1,8.4,7c1.3,5.3,3.1,12.7,4.4,17.8c0.8,3.4,3.5,6,6.8,6.8
		c4.8,1.1,12,2.8,18.1,4.2c2.7,0.6,5,2.5,6.2,5s1.2,5.5-0.1,8c-5.7,11.3-14.5,29.1-19.1,38.4c-1.8,3.7-1,8.1,2,10.9
		c3.4,3.1,7.9,7.3,11.9,10.9c2.1,1.9,3.2,4.7,2.9,7.6c-0.3,2.8-1.8,5.4-4.2,6.9c-1.6,1-3.4,2.1-5.1,3.2c-2.9,1.8-4.5,5.2-4.2,8.6
		c0.3,3.4,2.5,6.4,5.7,7.7c1.5,0.6,2.8,1.1,4,1.6c2.2,0.9,4,2.6,4.9,4.7c3.2,7.2,10.9,24.1,14.5,32.2c1.3,2.8,3.8,4.8,6.8,5.3
		c5,0.9,12.7,2.2,17.6,3.1c2.9,0.5,5.4,2.3,6.7,5c1.3,2.5,2.9,5.9,4.6,9.3c0.7,1.3,0.3,2.9-0.8,3.8c-1.1,0.9-2.8,0.9-3.9,0
		c-0.6-0.5-1.2-0.9-1.7-1.3c-1.8-1.5-4.1-2.2-6.4-2c-7.1,0.5-23.1,1.7-31.2,2.3c-3.1,0.2-6-1.1-7.9-3.5c-4.8-6.1-13.9-17.7-18-22.9
		c-1.3-1.6-3.1-2.8-5.1-3.3c-2.2-0.5-5.2-1.2-8.2-1.9c-2.3-0.5-4.8,0.1-6.5,1.8c-1.7,1.7-2.5,4.1-2,6.4c0,0,0,0,0,0
		c0.4,1.9-0.8,3.8-2.7,4.3c-9.2,2.4-34.5,8.8-43,11c-1.8,0.5-3.5,1.5-4.7,2.9c-3.1,3.6-9.3,10.9-13.5,15.8c-2.6,3-6.8,4-10.5,2.5
		c-8.8-3.6-24.9-10.2-31.9-13c-2.2-0.9-4.7-0.9-6.9,0c-7,2.9-23.1,9.4-31.9,13c-3.7,1.5-7.9,0.5-10.5-2.5
		c-4.2-4.9-10.4-12.2-13.5-15.8c-1.2-1.4-2.9-2.5-4.7-2.9c-8.5-2.2-33.8-8.6-43-11c-1.9-0.5-3.1-2.4-2.7-4.3c0,0,0,0,0,0
		c0.5-2.4-0.3-4.8-2-6.4c-1.7-1.7-4.2-2.3-6.5-1.8c-3,0.7-6,1.4-8.2,1.9c-2,0.5-3.8,1.6-5.1,3.3c-4,5.1-13.2,16.8-18,22.9
		c-1.9,2.4-4.9,3.7-7.9,3.5c-8.1-0.6-24-1.8-31.2-2.3c-2.3-0.2-4.6,0.5-6.4,2c-0.5,0.4-1.1,0.9-1.7,1.3c-1.1,0.9-2.8,0.9-3.9,0
		c-1.1-0.9-1.5-2.5-0.8-3.8c1.7-3.4,3.3-6.7,4.6-9.3c1.3-2.6,3.8-4.5,6.7-5c4.9-0.9,12.6-2.2,17.6-3.1c3-0.5,5.5-2.5,6.8-5.3
		c3.6-8.1,11.3-25,14.5-32.2c1-2.2,2.7-3.9,4.9-4.7C255.5,300.5,256.9,299.9,258.4,299.3L258.4,299.3z" style="fill:#FF2E93;"/>
	<path d="M438.8,179.9c-0.7-0.5-1.1-1.4-0.9-2.3c0.2-0.9,0.9-1.6,1.8-1.7c6.8-1.1,18.3-2.8,23.8-3.7
		c0.7-0.1,1.4,0.1,1.9,0.6c0.5,0.5,0.7,1.2,0.6,1.9c-0.5,3-1.3,7.4-1.7,9.6c-0.1,0.8-0.7,1.4-1.4,1.7c-1.1,0.4-2.9,1.1-4,1.5
		c-0.7,0.3-1.2,0.8-1.4,1.6c-0.3,1.2-0.7,3.1-1.1,4.6c-0.2,0.6-0.6,1.2-1.2,1.5c-0.6,0.3-1.3,0.3-1.9,0c-2.7-1.2-6.8-3.2-9.1-4.2
		c-0.9-0.4-1.4-1.4-1.2-2.4c0.2-1.1,0.5-2.6,0.7-3.7c0.2-0.9-0.2-1.7-0.9-2.2C441.8,182,440.3,180.9,438.8,179.9L438.8,179.9z" style="fill:#142664;"/>
	<path d="M477.8,196.3c-0.8,0.1-1.6-0.2-2.1-0.8s-0.6-1.5-0.3-2.2c1-2.4,2.2-5.5,3.1-7.6c0.3-0.6,0.8-1.1,1.4-1.3
		c0.6-0.2,1.3-0.1,1.9,0.3c2.4,1.6,6,4.2,8.2,5.7c0.5,0.3,0.8,0.9,0.9,1.4c0.1,0.6,0,1.2-0.4,1.7c-1,1.4-2.3,3.4-3.4,4.9
		c-0.4,0.6-1.1,1-1.8,1c-0.7,0-1.4-0.4-1.8-1c-0.4-0.5-0.7-1.1-1-1.5c-0.5-0.7-1.3-1.1-2.1-1C479.7,196,478.8,196.2,477.8,196.3
		L477.8,196.3z" style="fill:#142664;"/>
	<path d="M472.8,216.9c-0.3,0.8-1.1,1.3-1.9,1.4c-0.9,0.1-1.7-0.4-2.1-1.1c-0.1-0.2-0.2-0.3-0.3-0.5
		c-0.6-1-0.3-2.3,0.7-2.9c0.2-0.1,0.4-0.3,0.6-0.4c0.8-0.5,1.9-0.5,2.6,0.1c0.8,0.6,1,1.7,0.7,2.6
		C473,216.3,472.9,216.6,472.8,216.9L472.8,216.9z" style="fill:#142664;"/>
	<path d="M339.7,319.1c-0.5-0.3-0.9-0.8-0.9-1.4c0-0.6,0.2-1.2,0.7-1.5c3.1-2.2,8.7-5.9,11.6-7.9c0.4-0.3,1-0.4,1.5-0.2
		c0.5,0.2,0.9,0.6,1,1.1c0.2,0.7,0.4,1.4,0.6,2c0.2,0.7,0.9,1.2,1.7,1.2c2-0.1,5.8-0.2,7.8-0.3c0.8,0,1.5,0.5,1.7,1.3
		c0.4,1.9,1.2,5.3,1.8,7.5c0.1,0.5,0,1-0.3,1.4c-0.3,0.4-0.8,0.6-1.3,0.6c-3.1,0-8.5,0-10.5,0c-0.5,0-0.9-0.2-1.2-0.5
		c-0.7-0.7-1.8-1.9-2.6-2.7c-0.5-0.5-1.2-0.6-1.8-0.4c-1.3,0.5-3.3,1.3-4.4,1.7c-0.4,0.2-0.9,0.2-1.4-0.1
		C342.8,320.7,341.1,319.8,339.7,319.1L339.7,319.1z" style="fill:#142664;"/>
	<path d="M384.4,321.8c-0.8,0.2-1.6-0.2-1.9-1c-0.5-1.1-1.1-2.8-1.6-4c-0.3-0.8,0-1.8,0.9-2.1c1.1-0.5,2.5-1.1,3.2-1.5
		c0.3-0.1,0.5-0.3,0.7-0.6c0.4-0.7,1.3-2,2.2-3.3c0.4-0.5,1-0.8,1.6-0.7c0.6,0.1,1.2,0.5,1.4,1.1c0.8,2.6,2,6.1,2.7,8.2
		c0.1,0.4,0.1,0.9-0.1,1.3c-0.2,0.4-0.6,0.7-1.1,0.8C390.1,320.5,386.4,321.3,384.4,321.8L384.4,321.8z" style="fill:#142664;"/>
	<path d="M381.8,345.3c-0.6-0.5-0.9-1.3-0.6-2c0.5-1.1,1.2-2.7,1.6-3.7c0.3-0.6,0.9-1,1.6-1c0.9,0,2.3,0.1,3.5,0.2
		c0.6,0,1.1,0.4,1.4,0.9c0.3,0.5,0.2,1.2-0.1,1.7c-1,1.6-2.3,3.6-3.2,5c-0.2,0.4-0.6,0.6-1.1,0.7c-0.4,0.1-0.9,0-1.3-0.3
		C383.1,346.2,382.4,345.7,381.8,345.3L381.8,345.3z" style="fill:#142664;"/>
	<path d="M407.7,333.3c-0.3,0.6-0.8,1-1.5,1c-0.6,0-1.2-0.3-1.5-0.9c0,0,0-0.1-0.1-0.1c-0.2-0.4-0.3-0.9-0.1-1.4
		c0.2-0.4,0.5-0.8,1-1c0,0,0.1,0,0.1,0c0.6-0.2,1.3-0.1,1.8,0.4c0.5,0.5,0.6,1.2,0.3,1.8C407.7,333.2,407.7,333.3,407.7,333.3
		L407.7,333.3z" style="fill:#142664;"/>
	<path d="M491.5,207.8c-0.6-0.2-1-0.8-1-1.4c0-0.6,0.3-1.2,0.8-1.6c0,0,0.1,0,0.1-0.1c0.4-0.2,0.9-0.3,1.4-0.1
		s0.8,0.5,1,0.9c0,0,0,0.1,0.1,0.1c0.3,0.6,0.1,1.3-0.4,1.8c-0.5,0.5-1.2,0.6-1.8,0.4C491.6,207.8,491.5,207.8,491.5,207.8
		L491.5,207.8z" style="fill:#142664;"/>
	<path d="M377.2,309.5c-0.4,0.5-1.1,0.7-1.7,0.5c-0.6-0.2-1.1-0.7-1.2-1.3c0,0,0-0.1,0-0.1c-0.1-0.5,0-1,0.3-1.3
		c0.3-0.4,0.7-0.6,1.2-0.6c0,0,0.1,0,0.1,0c0.7,0,1.3,0.3,1.6,0.9c0.3,0.6,0.2,1.3-0.3,1.8C377.3,309.5,377.2,309.5,377.2,309.5
		L377.2,309.5z" style="fill:#142664;"/>
	<path d="M503.5,196.2c0.4,0.5,0.4,1.2,0.1,1.8s-0.9,0.9-1.5,0.9c-0.5,0-0.9,0-1.3,0c-0.5,0-1-0.3-1.3-0.7
		c-0.3-0.4-0.4-1-0.2-1.5c0.1-0.4,0.3-0.8,0.4-1.2c0.2-0.6,0.7-1,1.3-1.1c0.6-0.1,1.2,0.2,1.6,0.7
		C502.9,195.3,503.2,195.8,503.5,196.2L503.5,196.2z" style="fill:#142664;"/>
	<path d="M496.1,172.3c-0.1,0.6-0.5,1.2-1.1,1.4c-0.6,0.2-1.3,0-1.7-0.4c0,0-0.1-0.1-0.1-0.1c-0.3-0.3-0.5-0.8-0.5-1.3
		c0-0.5,0.3-0.9,0.7-1.2c0,0,0.1-0.1,0.1-0.1c0.5-0.4,1.3-0.5,1.8-0.1c0.6,0.3,0.9,1,0.8,1.7C496.1,172.2,496.1,172.2,496.1,172.3
		L496.1,172.3z" style="fill:#142664;"/>
	<path d="M364.6,178.4c-0.6-0.2-1-0.8-1-1.4c0-0.6,0.3-1.2,0.8-1.6c0,0,0.1,0,0.1-0.1c0.4-0.2,0.9-0.3,1.4-0.1
		c0.5,0.2,0.8,0.5,1,0.9c0,0,0,0.1,0.1,0.1c0.3,0.6,0.1,1.3-0.4,1.8c-0.5,0.5-1.2,0.6-1.8,0.4C364.7,178.4,364.7,178.4,364.6,178.4z
		" style="fill:#142664;"/>
	<path d="M347.9,148.5c0.1-0.6,0.6-1.1,1.2-1.3c0.6-0.2,1.3,0,1.7,0.5c0,0,0.1,0.1,0.1,0.1c0.3,0.4,0.5,0.8,0.4,1.3
		c-0.1,0.5-0.3,0.9-0.7,1.2c0,0-0.1,0.1-0.1,0.1c-0.5,0.4-1.3,0.4-1.8,0.1c-0.6-0.4-0.9-1-0.8-1.7
		C347.9,148.6,347.9,148.6,347.9,148.5L347.9,148.5z" style="fill:#142664;"/>
	<path d="M341,184.3c-0.5-0.7-0.6-1.7-0.3-2.5c0.3-0.8,0.9-1.5,1.8-1.8c2.7-0.9,6.3-2.2,8.8-3.1
		c0.8-0.3,1.6-0.2,2.3,0.2c0.7,0.4,1.2,1,1.4,1.8c0.3,1.2,0.7,2.6,1,3.6c0.3,1,0,2.1-0.8,2.8c-1.4,1.4-3.9,3.8-5.7,5.6
		c-0.6,0.6-1.5,0.9-2.3,0.8s-1.6-0.6-2.1-1.3C343.9,188.6,342.3,186.2,341,184.3z" style="fill:#142664;"/>
	<path d="M365.5,169.4c-1.2-0.1-2.2-0.8-2.5-1.9c-0.3-0.9-0.7-2-1.1-3.1c-0.3-0.9-0.2-1.9,0.4-2.6
		c0.5-0.8,1.4-1.2,2.4-1.2c0.9,0,1.9,0,2.8,0c0.8,0,1.5,0.3,2.1,0.9c0.5,0.6,0.8,1.3,0.8,2.1c0,1-0.1,2.2-0.1,3.2
		c0,0.8-0.4,1.5-0.9,2.1s-1.4,0.8-2.1,0.7C366.6,169.5,366,169.5,365.5,169.4z" style="fill:#142664;"/>
	<path d="M314.2,298.5l49.2-49.2l30.4,30.4c1.8,1.8,4.3,2.9,6.9,2.9s5.1-1,6.9-2.9l30.4-30.4l49.2,49.2c0,0-0.1,0-0.1,0
		c-15.9,0-81.7,0-95.1,0c-1.4,0-2.5-1-2.8-2.3c0,0,0,0,0,0c-0.1-0.6-0.4-1.1-0.9-1.4c-2.1-1.3-7.7-4.7-9.8-6c-0.5-0.3-1-0.8-1.2-1.3
		c-0.8-1.5-2.4-4.5-3.2-6.2c-0.4-0.8-1.1-1.4-1.9-1.7c-1.4-0.5-3.6-1.2-5.2-1.8c-1.4-0.5-3,0-3.9,1.2c-1.3,1.7-3.2,4.2-4.4,5.8
		c-0.8,1-2.1,1.6-3.4,1.3c-2.3-0.5-6.1-1.2-8.1-1.6c-0.9-0.2-1.9,0-2.7,0.6c-2.3,1.7-7.1,5.3-9.3,6.9c-0.7,0.5-1.2,1.4-1.4,2.3
		c-0.1,0.4-0.1,0.8-0.2,1.3c-0.2,1.7-1.7,3-3.4,3h-15.9C314.3,298.5,314.3,298.5,314.2,298.5L314.2,298.5z M360.1,246l-49.2,49.2
		c0,0,0-0.1,0-0.1c0-15.9,0-82.3,0-98.2c0,0,0-0.1,0-0.1L360.1,246z M454.2,233.3l2.8,2.7c1.3,1.3,3.4,1.3,4.8,0
		c2.1-2,5.1-4.8,6.9-6.5c1-0.9,2.4-1.2,3.6-0.7c2,0.8,5,2,6.9,2.7c1,0.4,2.2,0.3,3.1-0.3c0.9-0.5,2.1-1.3,3.3-2
		c1.1-0.7,2.4-0.7,3.5-0.1c1.1,0.6,1.8,1.8,1.8,3v62.9c0,0,0,0.1,0,0.1L441.5,246L454.2,233.3L454.2,233.3L454.2,233.3z
		 M314.2,193.4c0,0,0.1,0,0.1,0h17.3c1.5,0,2.8,0.9,3.2,2.3c1.3,3.7,3.8,10.8,5.2,14.7c0.5,1.5,2.1,2.5,3.7,2.3
		c1.6-0.2,3.4-0.5,4.8-0.7c1.1-0.1,2-0.8,2.5-1.7c0.8-1.4,2-3.6,2.9-5.2c0.6-1.2,1.9-1.9,3.2-1.8c2.7,0.2,7.1,0.5,9.9,0.7
		c1.4,0.1,2.8-0.7,3.4-2c0.9-1.9,2.2-4.7,3-6.5c0.6-1.2,1.8-2,3.1-2c8.1,0,36.1,0,44.5,0c1.5,0,2.8,0.9,3.3,2.3
		c0.6,1.7,1.4,4.1,2.1,5.9c0.5,1.4,1.9,2.4,3.4,2.3c2.1-0.1,5.2-0.2,7.9-0.3c1.1,0,2.2,0.5,2.9,1.4c0.7,0.9,0.9,2.1,0.5,3.1
		c-0.8,2.5-1.7,5.4-2.3,7.4c-0.4,1.2-0.1,2.6,0.9,3.5l11.1,11l-46.4,46.4c-1,1-2.3,1.5-3.6,1.5s-2.7-0.5-3.6-1.5L314.2,193.4
		L314.2,193.4z" style="fill:#142664;"/>
	<path d="M233.8,301.8c-0.1,0.5-0.2,1.2-0.3,1.8c-0.2,1.1-0.5,2.4-0.8,3.7c-1.3,5.2-3.1,10.9-3.1,10.9
		c-0.1,1.1-1.2,1.9-2.2,1.7c-1.1-0.1-1.9-1.2-1.7-2.2c0,0-0.3-6-0.2-11.4c0-1.3,0.1-2.6,0.2-3.8c0.2-2.2,0.5-3.7,0.5-3.7
		c0.2-1.3,1-2.4,2.2-3c0,0,2.7-1.2,5.9-2.3c4.2-1.5,9.1-3,9.1-3c1-0.5,2.2-0.1,2.7,0.9s0.1,2.2-0.9,2.7c0,0-4.1,3-7.9,5.5
		C236,300.4,234.7,301.2,233.8,301.8L233.8,301.8z" style="fill:#FF2E93;"/>
	<path d="M564.6,264.8c-0.9-1-2.1-2.5-3.3-4c-3.3-4.2-6.8-9.2-6.8-9.2c-0.8-0.8-0.7-2.1,0-2.8c0.8-0.8,2.1-0.7,2.8,0
		c0,0,4.9,3.6,9,7.1c3.1,2.6,5.6,5.1,5.6,5.1c1,1,1.4,2.5,1,3.9c0,0-0.3,1.3-1,3.2c-0.5,1.4-1.1,3-1.8,4.8c-2.2,5.6-5,11.8-5,11.8
		c-0.3,1.1-1.4,1.7-2.5,1.4c-1.1-0.3-1.7-1.4-1.4-2.5c0,0,0.9-6.7,2-12.6c0.3-1.8,0.7-3.6,1-5C564.4,265.6,564.5,265.2,564.6,264.8
		L564.6,264.8z" style="fill:#FF2E93;"/>
	<path d="M467,106.8c-1.3-0.2-2.9-0.5-4.7-0.8c-5.5-1-11.6-2.4-11.6-2.4c-1.4-0.1-2.4-1.3-2.3-2.7
		c0.1-1.4,1.3-2.4,2.7-2.3c0,0,6.3-0.6,11.9-0.8c4.2-0.2,7.9-0.2,7.9-0.2c1.8,0.1,3.3,1.2,4.1,2.8c0,0,1.2,2.1,2.6,5.2
		c0.7,1.6,1.4,3.5,2.1,5.4c2.8,7.8,5.4,16.8,5.4,16.8c0.6,1.3,0,2.7-1.2,3.3c-1.3,0.6-2.7,0-3.3-1.2c0,0-5.2-7.9-9.3-15
		c-1-1.8-2-3.6-2.8-5.1C467.8,108.6,467.3,107.6,467,106.8L467,106.8z" style="fill:#FF2E93;"/>
	<path d="M295.1,132.3c1.5-2.5,3.5-5.8,5.6-9.1c4.2-6.8,8.6-13.2,8.6-13.2c0.4-0.9,1.4-1.3,2.3-0.9
		c0.9,0.4,1.3,1.4,0.9,2.3c0,0-1.9,7.5-4.1,15.2c-2.2,7.6-4.5,15-4.5,15c-1.1,2.4-3.5,3.8-6.1,3.7c0,0-6.1,0.3-12.1,0
		c-3.3-0.2-6.5-0.5-8.8-0.9c-1.5,1.9-3.4,4.3-5.6,6.8c-6.1,7.2-13.3,14.9-13.3,14.9c-0.5,0.8-1.6,1.1-2.4,0.5
		c-0.8-0.5-1.1-1.6-0.5-2.4c0,0,3.9-9.8,7.8-18.4c2.9-6.4,5.7-11.9,5.7-11.9c1.3-2,3.6-3.2,5.9-3c0,0,6.1-0.2,12.1,0.3
		C289.8,131.5,292.9,131.9,295.1,132.3L295.1,132.3z" style="fill:#FF2E93;"/>
	<path d="M521.8,355.3l-6.7-4.6c-0.8-0.3-1.2-1.2-0.9-2c0.3-0.8,1.2-1.2,2-0.9l11.1,1.6c1.3,0.5,2.3,1.7,2.5,3.1
		c0,0,1.3,3,2.6,7.1c0.5,1.5,1,3.1,1.4,4.8c0.4,1.7,0.7,3.3,0.9,4.9c0.3,2.6,0.4,4.8,0.4,6.1c0.8,0.7,1.8,1.6,2.8,2.5
		c3.6,3.4,7.4,7.3,7.4,7.3c0.7,0.4,0.9,1.4,0.5,2.1c-0.4,0.7-1.4,0.9-2.1,0.5c0,0-5.2-1.7-9.8-3.4c-3.5-1.3-6.4-2.5-6.4-2.5
		c-1.2-0.8-2.1-2-2.3-3.4c0,0-1.2-3.1-2.2-7.2c-0.4-1.5-0.6-3.2-0.8-4.9c-0.2-1.7-0.3-3.4-0.4-5
		C521.8,358.9,521.8,356.6,521.8,355.3L521.8,355.3z" style="fill:#FF2E93;"/>
	<path d="M605.7,328.3c0,0-0.3-0.8-2.3-2.5c-0.3-0.3-0.5-0.4-0.9-0.6c-0.2-0.1-0.4-0.2-0.6-0.2c-0.2,0-0.4,0.1-0.6,0.2
		c-0.4,0.2-0.6,0.3-1,0.6c-2.1,1.4-2.5,2.1-2.5,2.1c-0.6,0-1,0.4-1.1,1c0,0.6,0.4,1,1,1.1c0,0,0.4,0.7,2.3,2.3
		c0.3,0.3,0.5,0.4,0.9,0.6c0.2,0.1,0.4,0.2,0.6,0.2c0.2,0,0.4,0,0.6-0.1c0.4-0.1,0.7-0.3,1-0.5c2.2-1.5,2.5-2.2,2.5-2.2
		c0.6,0,1-0.4,1.1-1C606.7,328.8,606.2,328.4,605.7,328.3z" style="fill:#FF2E93;"/>
	<path d="M572.4,415c0,0-1.1-0.9-2.8-1.9c-0.9-0.5-1.8-1.1-2.9-1.6c-0.6-0.3-1.3-0.4-1.9-0.6c-2.5-0.7-4.6-1-4.6-1
		c-1.5-0.6-3.3,0.1-3.9,1.6c-0.6,1.5,0.1,3.3,1.6,3.9c0,0,1.7,1.3,3.9,2.6c0.6,0.3,1.1,0.7,1.8,0.9c1.1,0.4,2.2,0.7,3.2,0.9
		c1.9,0.5,3.3,0.6,3.3,0.6c1.5,0.6,3.3-0.1,3.9-1.6C574.6,417.4,573.9,415.7,572.4,415L572.4,415z" style="fill:#FF2E93;"/>
	<path d="M259.6,382c0,0-1.4,0-3.4,0.3c-1,0.1-2.2,0.3-3.3,0.6c-0.6,0.2-1.3,0.5-1.9,0.7c-2.4,1.1-4.2,2.2-4.2,2.2
		c-1.6,0.5-2.5,2.1-2,3.7c0.5,1.6,2.1,2.5,3.7,2c0,0,2.1-0.1,4.7-0.5c0.6-0.1,1.3-0.2,1.9-0.4c1.1-0.3,2.1-0.8,3.1-1.3
		c1.8-0.9,3-1.6,3-1.6c1.6-0.5,2.5-2.1,2-3.7C262.8,382.5,261.1,381.6,259.6,382L259.6,382z" style="fill:#FF2E93;"/>
	<path d="M308.2,365.9c0,0-0.7-0.2-1.8-0.2c-0.5,0-1.1,0-1.7,0.1c-0.3,0.1-0.6,0.3-0.9,0.4c-1.2,0.8-2,1.5-2,1.5
		c-1.6,0.5-2.5,2.1-2,3.7c0.5,1.6,2.1,2.5,3.7,2c0,0,1,0.2,2.5,0.2c0.3,0,0.7,0,1-0.1c0.6-0.2,1-0.5,1.5-0.8
		c0.9-0.6,1.4-1.1,1.4-1.1c1.6-0.5,2.5-2.1,2-3.7C311.4,366.4,309.7,365.5,308.2,365.9L308.2,365.9z" style="fill:#FF2E93;"/>
	<path d="M207.7,293.6c0,0-1.7-0.1-4.4,0.5c-0.9,0.2-1.7,0.4-2.5,1c-0.8,0.5-1.3,1.3-1.8,2c-1.6,2.2-2.3,3.8-2.3,3.8
		c-1.1,0.8-1.5,2.3-0.7,3.4c0.8,1.1,2.3,1.5,3.4,0.7c0,0,1.7,0.1,4.4-0.6c0.9-0.2,1.8-0.4,2.6-0.9c0.8-0.5,1.4-1.2,1.9-1.9
		c1.7-2.2,2.2-3.8,2.2-3.8c1.1-0.8,1.5-2.3,0.7-3.4C210.4,293.2,208.9,292.9,207.7,293.6z" style="fill:#FF2E93;"/>
	<path d="M235.5,162.9c0,0-0.9,1.1-1.9,2.8c-0.5,0.9-1.1,1.9-1.6,2.9c-0.3,0.6-0.4,1.3-0.6,1.9
		c-0.6,2.5-0.9,4.6-0.9,4.6c-0.6,1.5,0.1,3.3,1.6,3.9c1.5,0.6,3.3-0.1,3.9-1.6c0,0,1.3-1.7,2.6-4c0.3-0.6,0.7-1.1,0.9-1.8
		c0.4-1.1,0.7-2.2,0.9-3.2c0.4-1.9,0.6-3.3,0.6-3.3c0.6-1.5-0.1-3.3-1.6-3.9C237.8,160.6,236.1,161.4,235.5,162.9L235.5,162.9z" style="fill:#FF2E93;"/>
	<path d="M511.6,141.7c0,0-0.1-1.4-0.5-3.3c-0.2-1-0.4-2.1-0.8-3.2c-0.2-0.6-0.5-1.2-0.9-1.8c-1.2-2.3-2.5-4-2.5-4
		c-0.6-1.5-2.3-2.3-3.8-1.7c-1.5,0.6-2.3,2.3-1.7,3.8c0,0,0.2,2.1,0.8,4.6c0.1,0.6,0.3,1.3,0.5,1.9c0.4,1.1,1,2.1,1.5,3
		c1,1.7,1.8,2.8,1.8,2.8c0.6,1.5,2.3,2.3,3.8,1.7C511.4,144.9,512.1,143.2,511.6,141.7z" style="fill:#FF2E93;"/>
	<path d="M559.9,381.8c0,0-0.5-0.5-1.3-1.1c-0.4-0.3-0.9-0.6-1.4-0.9c-0.3-0.1-0.6-0.2-1-0.3c-1.3-0.3-2.4-0.3-2.4-0.3
		c-1.1-0.5-2.4,0.1-2.9,1.2c-0.5,1.1,0.1,2.4,1.2,2.9c0,0,0.8,0.7,1.9,1.5c0.3,0.2,0.6,0.4,0.9,0.5c0.5,0.2,1.1,0.3,1.6,0.4
		c1,0.2,1.7,0.2,1.7,0.2c1.1,0.5,2.4-0.1,2.9-1.2C561.6,383.6,561,382.3,559.9,381.8L559.9,381.8z" style="fill:#FF2E93;"/>
	<path d="M282.6,367.6c0,0,0.7,0,1.7-0.2c0.5-0.1,1.1-0.2,1.6-0.4c0.3-0.1,0.6-0.3,0.9-0.5c1.1-0.8,1.9-1.5,1.9-1.5
		c1.1-0.5,1.7-1.8,1.2-2.9s-1.8-1.7-2.9-1.2c0,0-1.1,0-2.4,0.3c-0.3,0.1-0.7,0.1-1,0.3c-0.5,0.2-1,0.6-1.4,0.9
		c-0.8,0.6-1.3,1.1-1.3,1.1c-1.1,0.5-1.7,1.8-1.2,2.9C280.2,367.5,281.5,368,282.6,367.6z" style="fill:#FF2E93;"/>
	<path d="M234.1,405.7c0,0,0.7,0,1.7-0.2c0.5-0.1,1.1-0.2,1.6-0.4c0.3-0.1,0.6-0.3,0.9-0.5c1.1-0.8,1.9-1.5,1.9-1.5
		c1.1-0.5,1.7-1.8,1.2-2.9c-0.5-1.1-1.8-1.7-2.9-1.2c0,0-1,0-2.4,0.3c-0.3,0.1-0.7,0.1-1,0.3c-0.5,0.2-1,0.6-1.4,0.9
		c-0.8,0.6-1.3,1.1-1.3,1.1c-1.1,0.5-1.7,1.8-1.2,2.9C231.7,405.6,233,406.2,234.1,405.7L234.1,405.7z" style="fill:#FF2E93;"/>
	<path d="M567.7,239.9c0,0,0-0.7-0.2-1.7c-0.1-0.5-0.2-1.1-0.5-1.6c-0.1-0.3-0.3-0.6-0.5-0.8c-0.8-1.1-1.6-1.8-1.6-1.8
		c-0.5-1.1-1.8-1.6-3-1.1c-1.1,0.5-1.6,1.8-1.1,3c0,0,0.1,1,0.4,2.4c0.1,0.3,0.2,0.6,0.3,1c0.3,0.5,0.6,1,0.9,1.4
		c0.6,0.8,1.2,1.3,1.2,1.3c0.5,1.1,1.8,1.6,3,1.1C567.7,242.4,568.2,241,567.7,239.9L567.7,239.9z" style="fill:#FF2E93;"/>
	<path d="M529.8,155.9c0,0,0.3-0.6,0.6-1.6c0.1-0.5,0.3-1,0.4-1.6c0-0.3,0-0.7-0.1-1c-0.2-1.4-0.5-2.3-0.5-2.3
		c0.1-1.2-0.9-2.3-2.1-2.4c-1.2-0.1-2.3,0.9-2.4,2.1c0,0-0.4,1-0.8,2.3c-0.1,0.3-0.2,0.6-0.2,1c0,0.6,0.1,1.2,0.2,1.7
		c0.2,1,0.4,1.7,0.4,1.7c-0.1,1.2,0.9,2.3,2.1,2.4C528.7,158.1,529.8,157.1,529.8,155.9L529.8,155.9z" style="fill:#FF2E93;"/>
	<path d="M489.7,88.8c0,0,0.1-0.7-0.1-1.7c-0.1-0.5-0.1-1.1-0.3-1.6c-0.1-0.3-0.3-0.6-0.4-0.9c-0.7-1.2-1.4-2-1.4-2
		c-0.4-1.2-1.7-1.8-2.8-1.4c-1.2,0.4-1.8,1.7-1.4,2.8c0,0,0,1,0.1,2.4c0,0.3,0.1,0.7,0.2,1c0.2,0.6,0.5,1,0.8,1.5
		c0.6,0.9,1,1.4,1,1.4c0.4,1.2,1.7,1.8,2.8,1.4C489.5,91.2,490.1,89.9,489.7,88.8L489.7,88.8z" style="fill:#FF2E93;"/>
	<path d="M497.5,370.2c0,0-0.5-0.5-1.4-1.1c-0.4-0.3-0.9-0.6-1.5-0.8c-0.3-0.1-0.7-0.2-1-0.2c-1.4-0.2-2.4-0.2-2.4-0.2
		c-1.2-0.4-2.4,0.2-2.9,1.3c-0.4,1.2,0.2,2.4,1.3,2.9c0,0,0.8,0.7,1.9,1.4c0.3,0.2,0.6,0.3,0.9,0.5c0.6,0.2,1.1,0.3,1.6,0.3
		c1,0.1,1.7,0.1,1.7,0.1c1.2,0.4,2.4-0.2,2.9-1.3C499.2,372,498.6,370.7,497.5,370.2L497.5,370.2z" style="fill:#FF2E93;"/>
</g>
</svg>