<?xml version="1.0" encoding="utf-8"?>
<!-- Generator: Adobe Illustrator 23.0.2, SVG Export Plug-In . SVG Version: 6.00 Build 0)  -->
<svg version="1.1" id="visage" xmlns="http://www.w3.org/2000/svg" xmlns:xlink="http://www.w3.org/1999/xlink" x="0px" y="0px" viewBox="0 0 1080 1080" style="enable-background:new 0 0 1080 1080;" xml:space="preserve">

<g>
	<g>
		<path d="M801.6,431.4c-4.1,5.9-10,10.2-17,12.2c-51.1,14.2-135,12.2-216,1.2C517,437,430.5,416,405.1,407
			c-18.2-6.8-33.3-13.9-43.9-21.3c-8-5.5-13.2-14.3-14.4-23.9c-0.2-1.2-0.3-2.2-0.4-3.1c-4.5-44.2,27.6-83.7,71.8-88.6
			c-0.6,0.1-0.9,0.2-0.9,0.2c1.9,7.2,7,14.2,10.5,18.3c1,1.2,2.9,0.4,2.8-1.1c-0.9-10.6,0.2-17.8,0.2-17.8c-0.1,0-0.1,0-0.2,0
			c10.8-64.8,63.8-117.1,132.3-123.9c66-6.6,126.3,30.8,151.6,88.5c-0.2-0.3-0.3-0.5-0.3-0.5c-13.1,4.1-21.9,13.1-27.3,20.4
			c-0.7,1-0.8,2.1-0.4,3.1c0.1,0.2,0.2,0.4,0.3,0.5c0.2,0.3,0.4,0.5,0.6,0.7c0.2,0.1,0.3,0.2,0.5,0.3c0.8,0.5,1.8,0.6,2.8,0.1
			c13.3-6,29.9-8,29.9-8c0,0,0,0,0-0.1c52.2,5,95.3,46.3,100.8,100.5C824.3,379.5,816.8,409.3,801.6,431.4z" style="fill:#00AEE0;"/>
		<path d="M557.3,320.2c-17.3-4.1-37.3-7.8-58.3-9.8c-0.2,6.3-0.7,10.6-2,13.4c-0.8,1.6-2.3,2.8-4,3.4
			c-1.3,0.4-3.2,1-4.5,1.3c-1.8,0.6-4.2,0.6-7.3,0.2c-11.6-1.6-9.1-10.3-9.1-19.5c-39.1,2.3-44,40.3-34,60.6
			c11.8,23.2,44.7,16,109.7,39c21.5,7.6,37.6,10.7,49.8,10.6c3.4,0.2,6.7-0.1,9.8-0.9c17.3-3.1,24.6-14.4,27.2-27.2
			c9.2-45.7-30.7-59.1-65.8-68.3C564.6,322,560.4,320.9,557.3,320.2z" style="fill:#04294F;"/>
		<path d="M405.3,321.2c-6,0.2-10.7,5.2-10.5,11.2c0.2,6,5.2,10.7,11.2,10.5c6-0.2,10.7-5.2,10.5-11.2
			C416.2,325.7,411.3,321,405.3,321.2z M402.1,331.7c-0.1,0.2-0.2,0.4-0.2,0.6c-0.1,0.3-0.1,0.6,0,0.9c0,0.2,0,0.5,0,0.7
			c-0.1,0.2-0.1,0.5-0.2,0.7c-0.1,0.1-0.1,0.2-0.2,0.3c-0.1,0.1-0.2,0.2-0.2,0.2c-0.1,0.1-0.2,0.1-0.3,0.2c0,0,0,0,0,0
			c-0.1,0.1-0.2,0.1-0.3,0.2c-0.1,0-0.2,0.1-0.3,0.1c-0.1,0-0.2,0-0.3,0c-0.1,0-0.2,0-0.4,0s-0.2-0.1-0.3-0.1
			c-0.2-0.1-0.4-0.2-0.6-0.3c-0.1-0.1-0.2-0.2-0.2-0.2c-0.1-0.1-0.1-0.2-0.2-0.3c0,0,0,0,0,0c-0.1-0.1-0.1-0.2-0.2-0.3
			c0-0.1-0.1-0.2-0.1-0.3c-0.1-0.8-0.1-1.6,0.1-2.4c0.1-0.5,0.3-1.1,0.5-1.5c0.5-1,1.7-1.4,2.7-0.9
			C402.2,329.5,402.6,330.7,402.1,331.7z M406.2,327.1c-0.1,0.1-0.2,0.2-0.3,0.2s-0.2,0.1-0.3,0.2c-0.1,0-0.2,0.1-0.4,0.1
			c-0.1,0-0.3,0-0.4,0s-0.3,0-0.4,0c-0.1,0-0.2-0.1-0.4-0.1s-0.2-0.1-0.3-0.2c-0.1-0.1-0.2-0.1-0.3-0.2c-0.1-0.1-0.2-0.2-0.2-0.3
			c-0.1-0.1-0.1-0.2-0.2-0.3c0-0.1-0.1-0.2-0.1-0.4c0-0.1,0-0.3,0-0.4c0-0.5,0.2-1,0.6-1.4c0.1-0.1,0.2-0.2,0.3-0.2
			c0.1-0.1,0.2-0.1,0.3-0.2c0.1,0,0.2-0.1,0.4-0.1c0.3,0,0.5,0,0.8,0c0.1,0,0.2,0.1,0.4,0.1c0.1,0.1,0.2,0.1,0.3,0.2
			c0.1,0.1,0.2,0.2,0.3,0.2c0.4,0.4,0.6,0.9,0.6,1.4C406.8,326.2,406.6,326.7,406.2,327.1z" style="fill:#04294F;"/>
		<path d="M405.9,324c-0.1-0.1-0.2-0.1-0.4-0.2c-0.1,0-0.2-0.1-0.4-0.1c-0.3,0-0.5,0-0.8,0c-0.1,0-0.2,0.1-0.4,0.1
			s-0.2,0.1-0.4,0.2c-0.1,0.1-0.2,0.1-0.3,0.2c-0.4,0.4-0.6,0.9-0.6,1.4c0,0.1,0,0.3,0,0.4c0,0.1,0.1,0.2,0.1,0.4
			c0,0.1,0.1,0.2,0.2,0.4c0.1,0.1,0.1,0.2,0.2,0.3c0.1,0.1,0.2,0.2,0.3,0.2c0.1,0.1,0.2,0.1,0.4,0.2s0.2,0.1,0.4,0.1
			c0.1,0,0.3,0,0.4,0s0.3,0,0.4,0c0.1,0,0.2-0.1,0.4-0.1c0.1,0,0.2-0.1,0.4-0.2c0.1-0.1,0.2-0.1,0.3-0.2c0.4-0.4,0.6-0.9,0.6-1.4
			s-0.2-1-0.6-1.4C406.1,324.2,406,324.1,405.9,324z" style="fill:#F8F9F8;"/>
		<path d="M401.3,329c-1-0.5-2.2-0.1-2.7,0.9c-0.2,0.5-0.4,1-0.5,1.5c-0.2,0.8-0.2,1.6-0.1,2.4c0.2,1,1,1.7,2,1.7
			c0.1,0,0.2,0,0.3,0c1.1-0.2,1.8-1.2,1.7-2.3c0-0.3,0-0.6,0-0.9c0-0.2,0.1-0.4,0.2-0.6C402.6,330.7,402.2,329.5,401.3,329z" style="fill:#F8F9F8;"/>
		<path d="M682.8,374.7c-7.1,0.2-12.7,6.2-12.5,13.3c0.2,7.1,6.2,12.7,13.3,12.5c7.1-0.2,12.7-6.2,12.5-13.3
			C695.8,380,689.9,374.4,682.8,374.7z M679,387.5c-0.1,0.2-0.1,0.3-0.2,0.5c0,0.2-0.1,0.5,0,0.7c0.2,1.4-0.7,2.7-2.1,2.9
			c-0.1,0-0.3,0-0.4,0c-1.2,0-2.3-0.9-2.5-2.1c-0.2-0.9-0.1-1.8,0.1-2.6c0-0.1,0.1-0.3,0.1-0.4c0.1-0.2,0.1-0.4,0.2-0.6
			c0,0,0,0,0-0.1c0.1-0.2,0.2-0.4,0.3-0.6c0.6-1.2,2.1-1.7,3.4-1.1C679.1,384.7,679.6,386.2,679,387.5z M684,382
			c-0.5,0.5-1.1,0.7-1.8,0.7c-0.2,0-0.3,0-0.5-0.1c-0.2,0-0.3-0.1-0.5-0.1c-0.1-0.1-0.3-0.2-0.4-0.2c-0.1-0.1-0.3-0.2-0.4-0.3
			c-0.5-0.5-0.7-1.1-0.7-1.8c0-0.7,0.3-1.3,0.7-1.8c0.9-0.9,2.6-0.9,3.5,0c0.5,0.5,0.7,1.1,0.7,1.8C684.7,380.9,684.4,381.6,684,382
			z" style="fill:#04294F;"/>
		<path d="M680.4,378.5c-0.5,0.5-0.7,1.1-0.7,1.8c0,0.6,0.3,1.3,0.7,1.8c0.1,0.1,0.2,0.2,0.4,0.3
			c0.1,0.1,0.3,0.2,0.4,0.2c0.2,0.1,0.3,0.1,0.5,0.1c0.2,0,0.3,0,0.5,0c0.7,0,1.3-0.3,1.8-0.7c0.5-0.5,0.7-1.1,0.7-1.8
			c0-0.7-0.3-1.3-0.7-1.8C683,377.6,681.4,377.6,680.4,378.5z" style="fill:#F8F9F8;"/>
		<path d="M677.9,384.1c-1.2-0.6-2.7-0.1-3.4,1.1c-0.3,0.5-0.5,1.1-0.6,1.7c-0.2,0.9-0.2,1.8-0.1,2.6
			c0.2,1.2,1.3,2.1,2.5,2.1c0.1,0,0.3,0,0.4,0c1.4-0.2,2.3-1.5,2.1-2.9c0-0.2,0-0.5,0-0.7c0-0.2,0.1-0.3,0.2-0.5
			C679.6,386.2,679.1,384.7,677.9,384.1z" style="fill:#F8F9F8;"/>
		<path d="M481.2,328.6c3.1,0.4,5.5,0.4,7.3-0.2c4.9-1.5,5.6-7,6-18.5c-5.3-0.4-10.6-0.8-16-1c-2.2-0.1-4.4-0.1-6.5,0.1
			C472,318.3,469.6,327,481.2,328.6z" style="fill:#F8F9F8;"/>
		<ellipse cx="839.3" cy="217.8" rx="21.5" ry="21.5" style="fill:#00AEE0;"/>
		<circle cx="804.7" cy="144.2" r="13.1" style="fill:#00AEE0;"/>
	</g>
	<g>
		<path d="M566,725.3c-5.8,2.3-12.6,6.7-13,6.9c0.5-0.1,8-1.6,19.7-3.7c5.5-1,9.5-1.2,12.4-0.9c5.4,0.5,7,2.8,8.1,4.5
			c-1.8-5.3-4.4-8.5-8-9.8C580.5,720.8,574.3,722,566,725.3z" style="fill:#04294F;"/>
		<path d="M582.6,798.5c-0.2,0.1-0.3,0.3-0.5,0.4c-2.1,1.8-6.6,5.1-13.7,7.7c0,0,0,0,0,0c-2.8,1.1-6.1,2-9.7,2.7
			c0,0,13.3,4.8,24.4,0c0-0.5,0-1,0-1.5l0.3-7.7c0-0.8,0-1.6,0.1-2.5C583.5,797.7,583.2,798,582.6,798.5z" style="fill:#04294F;"/>
		<path d="M572.8,776.2c4-1.3,6.3-4,6.1-10.7c-0.2-7.1-3.3-9.5-8.8-8c-1.3,0.3-2.3,1.5-2.4,2.8c-0.3,3-0.5,8.6,1,13.8
			C569.3,775.8,571.1,776.8,572.8,776.2z" style="fill:#04294F;"/>
		<path d="M306.7,807.4L306.7,807.4c0.2,3.8,0.6,8.5,1.5,13.9h0c2.9,1.2,6.8,2.8,11.6,4.7c-0.5-6.2-0.7-11.2-0.7-11.3
			c0-0.6,0.4-1,1-1c0,0,0,0,0,0c0.5,0,1,0.4,1,1c0,0.1,0.2,5.6,0.8,12.2c5.4,2,11.8,4.4,19.2,6.9c-0.5-6.3-0.7-11.5-0.7-11.6
			c0-0.6,0.4-1,1-1c0.5-0.1,1,0.4,1,1c0,0.1,0.2,5.7,0.8,12.3c5.9,2,12.3,4,19.3,6.1c-0.5-6.3-0.7-11.5-0.7-11.5c0-0.6,0.4-1,1-1
			c0,0,0,0,0,0c0.5,0,1,0.4,1,1c0,0.1,0.2,5.6,0.8,12.2c6.1,1.8,12.5,3.6,19.4,5.4c-0.5-6.4-0.7-11.7-0.7-11.8c0-0.6,0.4-1,1-1
			c0.5,0,1,0.4,1,1c0,0.1,0.2,5.7,0.8,12.4c6.1,1.6,12.6,3.2,19.3,4.7c-0.5-6.4-0.7-11.7-0.7-11.8c0-0.6,0.4-1,1-1c0.5,0,1,0.4,1,1
			c0,0.1,0.2,5.7,0.8,12.3c6.2,1.4,12.6,2.8,19.2,4.1c-0.5-6.2-0.7-11.3-0.7-11.4c0-0.6,0.4-1,1-1c0.5,0,1,0.4,1,1
			c0,0.1,0.2,5.4,0.7,11.8c6.2,1.2,12.5,2.3,19,3.4c-0.6-6.4-0.7-11.8-0.7-11.9c0-0.6,0.4-1,1-1c0,0,0,0,0,0c0.5,0,1,0.4,1,1
			c0,0.1,0.2,5.7,0.8,12.3c6.4,1,12.9,2,19.6,2.9c-0.6-6.4-0.7-11.8-0.7-11.9c0-0.6,0.4-1,1-1c0,0,0,0,0,0c0.5,0,1,0.4,1,1
			c0,0.1,0.2,5.6,0.8,12.2c5,0.7,10,1.3,15.1,1.8c1-8.2,0.5-14,0.5-14C395.2,841.8,327.9,816.2,306.7,807.4z" style="fill:#F8F9F8;"/>
		<path d="M473.3,822.6c0.1,0,0.2,0,0.3,0C473.5,822.6,473.4,822.6,473.3,822.6z" style="fill:#04294F;"/>
		<path d="M459.3,818.3c-1.8-1.5-3.5-3.4-4.9-5.9C455.8,814.9,457.4,816.8,459.3,818.3z" style="fill:#04294F;"/>
		<path d="M464.3,736.1c-0.6-1.8-0.6-3.3-0.3-4.3c-0.8-0.2-1.5-0.4-2.4-0.5c-2.6-0.5-5.3-0.8-7.8-0.4v0
			c-3.7,4.6-6.2,14.2-6.3,33.2c0.1-1.4,0.2-2.6,0.3-3.5c2.1-21.2,23.5-15.1,16,1.8c-6.3,14.4,11.1,21.1,7.8,9.4
			c-3.7-13,8.2-15.7,9.5,0.8c-0.2-19-1.5-30.4-8.3-36.5C471.3,742.5,465.8,740.8,464.3,736.1z" style="fill:#04294F;"/>
		<path d="M453.9,811.4c0.1,0.2,0.2,0.3,0.2,0.4C454.1,811.8,454,811.6,453.9,811.4z" style="fill:#04294F;"/>
		<path d="M474.7,822.4C474.7,822.4,474.7,822.4,474.7,822.4C474.7,822.4,474.7,822.4,474.7,822.4
			C474.7,822.4,474.7,822.4,474.7,822.4z" style="fill:#04294F;"/>
		<path d="M473.6,822.6c-0.1,0-0.2,0-0.3,0c-2.7,0.2-8.8-0.1-14-4.3c-1.9-1.5-3.5-3.4-4.9-5.9c-0.1-0.1-0.1-0.2-0.2-0.3
			c0-0.1-0.1-0.1-0.1-0.2c-0.1-0.1-0.2-0.3-0.2-0.4c-6.9-13.3-6.9-36.7-6.3-47.3c0-19.1,2.5-28.6,6.3-33.2v0
			c-7.2,1.2-13,8.9-12.6,40.2c0.5,43.9,7.6,52.4,21.5,55c4.9,0.9,8.9,0.1,11.9-3.6c0,0,0,0-0.1,0
			C474.5,822.5,474.2,822.5,473.6,822.6z" style="fill:#04294F;"/>
		<path d="M460.5,907.8c-16.2,7.1-40.3,8.7-75.8-1.5c-22.3-6.4-38.2-16.9-49.6-29h0c-2.6-2.7-4.9-5.6-7.1-8.4h0
			c-12.1-16.2-17.4-33.9-19.7-47.6h0c-0.9-5.3-1.3-10.1-1.5-13.8v0c-4.6-1.9-7-3-7-3s-6.4,84.4,77.9,108.5
			c52.2,14.9,79.6,4.6,93.9-11.6c-0.7,0.5-1.4,1-2.1,1.5C466.8,904.7,463.8,906.4,460.5,907.8z" style="fill:#04294F;"/>
		<path d="M407.9,897.7l6.2-5.2c-6.4-1.4-12.6-2.9-18.5-4.3l-7,5.2c6.1,1.5,12.4,3.1,19,4.6
			C407.7,897.9,407.8,897.8,407.9,897.7z" style="fill:#00AEE0;"/>
		<path d="M386.6,892.5l6.5-4.9c-6.7-1.6-13-3.3-18.9-4.9c-0.1,0.2-0.2,0.4-0.4,0.6l-6.8,4.2c6.1,1.8,12.5,3.5,19.3,5.3
			C386.4,892.7,386.5,892.6,386.6,892.5z" style="fill:#00AEE0;"/>
		<path d="M450.2,905.6l4.9-5.1c-6.1-1-12.1-2.1-17.9-3.2l-5.8,5.6c6,1.1,12.2,2.2,18.5,3.3
			C449.9,906,450,905.8,450.2,905.6z" style="fill:#00AEE0;"/>
		<path d="M429.4,902.1l5.4-5.2c-6.2-1.2-12.3-2.5-18.1-3.8l-6.6,5.5c6.2,1.4,12.5,2.7,19.1,4
			C429.2,902.3,429.3,902.2,429.4,902.1z" style="fill:#00AEE0;"/>
		<path d="M365.2,886.3l6.8-4.2c-6.6-1.8-12.6-3.5-17.9-5.1l-8.1,4c5.8,1.9,12,3.9,18.8,5.9
			C364.8,886.6,365,886.4,365.2,886.3z" style="fill:#00AEE0;"/>
		<path d="M469.5,902.8c-4-0.6-8-1.2-12-1.9l-5.4,5.6c2.8,0.4,5.6,0.9,8.4,1.3C463.8,906.4,466.8,904.7,469.5,902.8z" style="fill:#00AEE0;"/>
		<path d="M335,877.3c2.7,0.9,5.5,1.9,8.5,2.9c0.1-0.2,0.2-0.4,0.4-0.5l7.2-3.6c-14.2-4.2-22.8-7.2-23.2-7.3
			C330.1,871.8,332.4,874.6,335,877.3L335,877.3L335,877.3z" style="fill:#00AEE0;"/>
		<path d="M384.6,906.4c35.5,10.2,59.6,8.6,75.8,1.5c-2.8-0.4-5.6-0.8-8.4-1.3l-0.2,0.2c0,0.4,0.1,1.2,0.1,2.5
			c0,0.6-0.4,1-0.9,1.1c0,0,0,0-0.1,0c-0.5,0-1-0.4-1-0.9c-0.1-2.2-0.1-3-0.1-3c0-0.1,0-0.1,0-0.1c-6.3-1-12.5-2.1-18.5-3.3
			l-0.3,0.3c0,1.2,0.2,4.6,0.5,8.8c0,0.6-0.4,1-0.9,1.1c0,0-0.1,0-0.1,0c-0.5,0-1-0.4-1-0.9c-0.4-5.2-0.5-9.3-0.5-9.3
			c0-0.1,0-0.2,0.1-0.3c-6.6-1.3-12.9-2.6-19.1-4l-0.5,0.4c0.1,1.4,0.3,5.9,0.7,11c0,0.6-0.4,1-0.9,1.1c0,0-0.1,0-0.1,0
			c-0.5,0-1-0.4-1-0.9c-0.5-6.3-0.7-11.6-0.7-11.6c0-0.2,0-0.4,0.1-0.5c-6.6-1.5-12.9-3-19-4.6l-0.4,0.3c0.1,1.5,0.3,6.3,0.8,11.7
			c0,0.5-0.4,1-0.9,1.1c0,0-0.1,0-0.1,0c-0.5,0-0.9-0.4-1-0.9c-0.6-6.6-0.8-12.3-0.8-12.3c0-0.2,0-0.3,0.1-0.5
			c-6.8-1.8-13.2-3.5-19.3-5.3l-0.3,0.2c0.1,1.4,0.3,5.3,0.7,10c0,0.5-0.4,1-0.9,1.1c0,0-0.1,0-0.1,0c-0.5,0-1-0.4-1-0.9
			c-0.5-6-0.7-10.6-0.7-10.7c0-0.1,0-0.2,0-0.3c-6.8-2-13-4-18.8-5.9l-0.5,0.3c0,0.5,0.1,1.4,0.1,2.7c0,0.6-0.4,1-0.9,1.1
			c0,0,0,0-0.1,0c-0.5,0-1-0.4-1-0.9c-0.1-2.4-0.2-3.4-0.2-3.4c0-0.2,0-0.3,0.1-0.5c-3-1-5.8-2-8.5-2.9
			C346.4,889.4,362.4,900,384.6,906.4z" style="fill:#F8F9F8;"/>
		<path d="M334.3,792.9c0.7,0.3,1.5,0.5,2.2,0.6C335.8,793.4,335.1,793.2,334.3,792.9z" style="fill:#04294F;"/>
		<path d="M339,793.6C339,793.6,339,793.6,339,793.6L339,793.6c0.6-0.6,1.2-1.5,1.7-2.4
			C339.7,792.9,339,793.6,339,793.6z" style="fill:#04294F;"/>
		<path d="M345.5,759.4c-0.5-37-0.5-49.4-19.5-57.9c-2.7-1.2-5.5-2.1-8.2-1.8c-3.8,4.9-6.3,15.4-6.1,35.8
			c0,1.6,0.1,3.1,0.1,4.6c0-1.6-0.1-3-0.1-4.2c2-0.7,4.6,0.6,5.3,3.4c0.8,3.3-2.6,5.9-5.1,5.1c0.3,6.4,0.7,11.9,1.4,16.6
			c-0.5-8.3,5.2-10.2,7.6-3.9c2.8,7.4,9.7,1.7,4.4-16.5c-3.8-13,11.4-14.5,10.3-0.8c-1.3,17,9.9,13.1,9.7,27.7
			C345.5,765,345.5,762.3,345.5,759.4z M328.9,714.2c-0.5,3.2-5.9,2.6-5.6-1C323.7,709.6,329.6,709.4,328.9,714.2z" style="fill:#04294F;"/>
		<path d="M317.7,778.1c1.2,2.7,2.6,4.9,4.2,6.7C320.2,782.7,318.8,780.5,317.7,778.1z" style="fill:#04294F;"/>
		<path d="M336.5,793.5c-0.7-0.1-1.4-0.3-2.2-0.6c-2.7-0.9-5-2.3-5-2.3c-3-1.3-5.5-3.4-7.5-5.8c-1.5-1.8-2.9-4-4.2-6.7
			c-2.9-6.1-4.1-12.8-4.4-17c0,0,0,0,0,0c-0.7-4.7-1.1-10.2-1.4-16.6c0,0,0,0,0,0c-0.1-1.4-0.1-2.9-0.1-4.3c0-1.5-0.1-3-0.1-4.6
			c-0.2-20.4,2.3-30.9,6.1-35.8c-6.8,0.8-12.5,9.4-12.1,39.5c0.5,43.9,8.5,51.3,21.5,57c4.7,2.1,8.8,1.4,11.9-2.6l-0.1-0.1
			C338.2,793.7,337.4,793.6,336.5,793.5z" style="fill:#04294F;"/>
		<path d="M471.6,771.9c3.4,11.7-14.1,5-7.8-9.4c7.5-17-13.9-23-16-1.8c-0.1,0.9-0.2,2.1-0.3,3.5
			c-0.6,10.7-0.6,34,6.3,47.3c0.1,0.1,0.1,0.3,0.2,0.4c0,0.1,0.1,0.1,0.1,0.2c0,0.1,0.1,0.2,0.2,0.3c1.4,2.6,3.1,4.5,4.9,5.9
			c5.2,4.2,11.3,4.5,14,4.3c0.1,0,0.2,0,0.3,0c0.5,0,0.9-0.1,1.1-0.1c0,0,0.1,0,0.1,0l0,0c8.8-8.7,6.5-47,6.5-47c0-1,0-1.9-0.1-2.8
			C479.8,756.1,467.8,758.8,471.6,771.9z" style="fill:#FF3A00;"/>
		<path d="M335.7,739.8c1-13.7-14.1-12.2-10.3,0.8c5.3,18.2-1.6,23.9-4.4,16.5c-2.4-6.4-8.1-4.4-7.6,3.9c0,0,0,0,0,0
			c0.3,4.2,1.5,10.9,4.4,17c1.1,2.4,2.5,4.7,4.2,6.7c2,2.5,4.5,4.5,7.5,5.8c0,0,2.3,1.4,5,2.3c0.7,0.2,1.5,0.4,2.2,0.6
			c0.9,0.2,1.7,0.2,2.5,0.1c0,0,0,0,0,0c0,0,0.7-0.7,1.7-2.4c1.8-3.3,4.5-10.3,4.7-23.5c0-0.1,0-0.1,0-0.2
			C345.5,753,334.4,756.8,335.7,739.8z" style="fill:#FF3A00;"/>
		<path d="M323.3,713.1c-0.4,3.6,5.1,4.2,5.6,1C329.6,709.4,323.7,709.6,323.3,713.1z" style="fill:#FF3A00;"/>
		<path d="M470.6,851.3c0-0.5-0.5-1-1-1c0,0,0,0,0,0c-0.6,0-1,0.5-1,1c0,0.1,0.2,5.4,0.7,11.9
			c-6.7-0.9-13.3-1.9-19.6-2.9c-0.6-6.6-0.8-12.2-0.8-12.3c0-0.5-0.5-1-1-1c0,0,0,0,0,0c-0.6,0-1,0.5-1,1c0,0.1,0.2,5.4,0.7,11.9
			c-6.5-1.1-12.9-2.2-19-3.4c-0.6-6.4-0.7-11.8-0.7-11.8c0-0.6-0.5-1-1-1c-0.6,0-1,0.5-1,1c0,0.1,0.2,5.2,0.7,11.4
			c-6.6-1.3-13-2.7-19.2-4.1c-0.6-6.6-0.8-12.3-0.8-12.3c0-0.6-0.5-1-1-1c-0.6,0-1,0.5-1,1c0,0.1,0.2,5.4,0.7,11.8
			c-6.7-1.5-13.1-3.1-19.3-4.7c-0.6-6.6-0.8-12.3-0.8-12.4c0-0.6-0.5-1-1-1c-0.6,0-1,0.5-1,1c0,0.1,0.2,5.4,0.7,11.8
			c-6.8-1.8-13.3-3.6-19.4-5.4c-0.6-6.6-0.8-12.1-0.8-12.2c0-0.5-0.5-1-1-1c0,0,0,0,0,0c-0.6,0-1,0.5-1,1c0,0.1,0.2,5.2,0.7,11.5
			c-7-2.1-13.4-4.1-19.3-6.1c-0.6-6.6-0.8-12.3-0.8-12.3c0-0.6-0.5-1-1-1c-0.6,0-1,0.5-1,1c0,0.1,0.2,5.3,0.7,11.6
			c-7.4-2.5-13.8-4.8-19.2-6.9c-0.6-6.5-0.8-12.1-0.8-12.2c0-0.5-0.5-1-1-1c0,0,0,0,0,0c-0.6,0-1,0.5-1,1c0,0.1,0.2,5.1,0.7,11.3
			c-4.9-1.9-8.8-3.5-11.6-4.7c2.3,13.7,7.6,31.4,19.7,47.6h0c0.5,0.2,9,3.1,23.2,7.3l-7.2,3.6c-0.2,0.1-0.4,0.3-0.4,0.5
			c-0.1,0.1-0.1,0.3-0.1,0.5c0,0,0,1,0.2,3.4c0,0.5,0.5,0.9,1,0.9c0,0,0,0,0.1,0c0.6,0,1-0.5,0.9-1.1c-0.1-1.3-0.1-2.2-0.1-2.7
			l0.5-0.3l8.1-4c5.3,1.6,11.3,3.3,17.9,5.1l-6.8,4.2c-0.2,0.1-0.4,0.3-0.4,0.6c0,0.1-0.1,0.2,0,0.3c0,0,0.2,4.7,0.7,10.7
			c0,0.5,0.5,0.9,1,0.9c0,0,0.1,0,0.1,0c0.6,0,1-0.5,0.9-1.1c-0.4-4.7-0.6-8.6-0.7-10l0.3-0.2l6.8-4.2c0.2-0.1,0.4-0.4,0.4-0.6
			c5.9,1.6,12.2,3.2,18.9,4.9l-6.5,4.9c-0.1,0.1-0.2,0.2-0.3,0.4c-0.1,0.1-0.1,0.3-0.1,0.5c0,0.1,0.2,5.7,0.8,12.3
			c0,0.5,0.5,0.9,1,0.9c0,0,0.1,0,0.1,0c0.6,0,1-0.5,0.9-1.1c-0.5-5.4-0.7-10.2-0.8-11.7l0.4-0.3l7-5.2c5.9,1.4,12.1,2.9,18.5,4.3
			l-6.2,5.2c-0.1,0.1-0.2,0.2-0.2,0.3c-0.1,0.2-0.1,0.3-0.1,0.5c0,0.1,0.2,5.3,0.7,11.6c0,0.5,0.5,0.9,1,0.9c0,0,0.1,0,0.1,0
			c0.5,0,1-0.5,0.9-1.1c-0.4-5.1-0.6-9.6-0.7-11l0.5-0.4l6.6-5.5c5.9,1.3,11.9,2.5,18.1,3.8l-5.4,5.2c-0.1,0.1-0.2,0.3-0.2,0.4
			c0,0.1-0.1,0.2-0.1,0.3c0,0,0.1,4.1,0.5,9.3c0,0.5,0.5,0.9,1,0.9c0,0,0.1,0,0.1,0c0.6,0,1-0.5,0.9-1.1c-0.3-4.2-0.5-7.6-0.5-8.8
			l0.3-0.3l5.8-5.6c5.9,1.1,11.8,2.2,17.9,3.2l-4.9,5.1c-0.1,0.2-0.2,0.4-0.3,0.6c0,0,0,0.1,0,0.1c0,0,0,0.8,0.1,3
			c0,0.5,0.5,0.9,1,0.9c0,0,0,0,0.1,0c0.6,0,1-0.5,0.9-1.1c-0.1-1.3-0.1-2.1-0.1-2.5l0.2-0.2l5.4-5.6c4,0.7,8,1.3,12,1.9
			c0.7-0.5,1.4-1,2.1-1.5c10.1-11.4,13.7-25.6,14.9-36c-5.1-0.6-10.2-1.2-15.1-1.8C470.8,857,470.6,851.4,470.6,851.3z" style="fill:#04294F;"/>
		<path d="M479.3,717.4l-1.4-1c-0.5-0.3-1-0.6-1.5-0.8c-1-0.6-2-1.1-3.1-1.6c-1.1-0.4-2.1-0.8-3.2-1.3
			c-1.1-0.4-2.2-0.7-3.3-1c-4.5-1.2-9.1-1.6-13.6-1.3c-1.1,0.1-2.3,0.2-3.4,0.4c-1.1,0.2-2.2,0.4-3.3,0.7l-1.6,0.5
			c-0.5,0.2-1.1,0.4-1.6,0.6c-1.1,0.4-2.1,0.9-3.1,1.6l12.8,2.5c4.1,0.8,8,1.7,12,2.7c2,0.4,3.9,1.1,5.9,1.6
			c1.9,0.7,3.9,1.2,5.8,1.9c4,1.2,7.8,3,12.2,4.3C486.3,723.4,483.1,719.9,479.3,717.4z" style="fill:#04294F;"/>
		<path d="M326.9,690.8c3.5,1.1,7.1,2.3,10.7,3.6c3.6,1.3,7.3,2.6,11.4,3.8c-1-2-2.3-3.6-3.8-5.2
			c-1.4-1.5-3-2.9-4.7-4.2c-3.4-2.5-7.2-4.4-11.3-5.7c-4.1-1.3-8.4-1.8-12.7-1.5c-1.1,0.1-2.1,0.2-3.2,0.4c-1.1,0.2-2.1,0.5-3.1,0.8
			l-1.5,0.5c-0.5,0.2-1,0.5-1.5,0.7c-1,0.5-1.9,1-2.8,1.6c4.3,0.9,8,1.3,11.7,2.2C319.8,688.8,323.3,689.7,326.9,690.8z" style="fill:#04294F;"/>
		<path d="M311.9,744.4c2.5,0.9,5.9-1.8,5.1-5.1c-0.7-2.9-3.3-4.1-5.3-3.4c0,1.2,0,2.7,0.1,4.2
			C311.8,741.6,311.8,743,311.9,744.4C311.9,744.4,311.9,744.4,311.9,744.4z" style="fill:#FF3A00;"/>
		<path d="M464,731.7C464,731.7,464,731.8,464,731.7c-0.3,1.1-0.3,2.5,0.3,4.4c1.5,4.7,7,6.4,8.5,0.1c0,0,0,0,0,0
			C472.8,736.2,469.9,733.1,464,731.7z" style="fill:#FF3A00;"/>
		<path d="M372.1,813.6c4.8,3.7,11.3,5.1,17.1,3.6l0,0c0.7-0.2,1.1-0.8,1-1.5c-0.1-0.7-0.8-1.1-1.5-1
			c-5.1,1.1-10.6-0.3-14.5-3.6c-4-3.2-6.3-8.3-6.2-13.3c0-5.1,2.5-9.9,6.3-13c2.2-1.8,4.9-2.9,7.6-3.3c0.3,0.1,0.6,0.1,1,0.1
			c0.3,0,0.6-0.1,0.9-0.3c1.5-0.1,2.9,0,4.4,0.3c0,0,0.1,0,0.1,0c1.4,0.3,2.7-0.6,2.9-2s-0.6-2.7-2-2.9l0,0
			c-1.4-0.3-2.9-0.4-4.3-0.3c-0.2-1.9-0.4-3.8-0.5-5.8c-0.2-2.7-0.4-5.5-0.6-8.2c-0.3-5.5-0.5-11-0.3-16.4v0c0-0.4-0.3-0.8-0.7-0.8
			c-0.5-0.1-0.9,0.3-0.9,0.7c-0.7,5.5-1.1,11.1-1.4,16.6c-0.1,2.8-0.2,5.5-0.3,8.3c0,2.1-0.1,4.2-0.1,6.3c-0.1,0-0.2,0-0.3,0.1
			c-3,0.8-5.9,2.3-8.3,4.3c-4.7,4.1-7.6,10.3-7.3,16.4C364.2,804,367.2,810,372.1,813.6z" style="fill:#04294F;"/>
		<path d="M402.2,936L402.2,936c-2.5-0.9-4.8-1.4-7.2-2l-6.9-1.7c-2.3-0.6-4.6-1.2-6.9-1.8c-2.3-0.6-4.7-1.2-7.1-1.7
			l-0.1,0c-0.5-0.1-1,0-1.3,0.4c-0.6,0.6-0.6,1.5,0,2.1c2,2,4.2,3.4,6.5,4.6c2.3,1.2,4.8,2.2,7.4,2.8c2.5,0.7,5.1,1.1,7.8,1.2
			c2.6,0.1,5.3-0.1,7.9-0.8c0.5-0.1,0.9-0.5,1.1-1C403.4,937.2,403,936.3,402.2,936z" style="fill:#04294F;"/>
		<g>
			<path d="M402.2,936L402.2,936c-2.5-0.9-4.8-1.4-7.2-2l-6.9-1.7c-2.3-0.6-4.6-1.2-6.9-1.8c-2.3-0.6-4.7-1.2-7.1-1.7
				l-0.1,0c-0.5-0.1-1,0-1.3,0.4c-0.6,0.6-0.6,1.5,0,2.1c2,2,4.2,3.4,6.5,4.6c2.3,1.2,4.8,2.2,7.4,2.8c2.5,0.7,5.1,1.1,7.8,1.2
				c2.6,0.1,5.3-0.1,7.9-0.8c0.5-0.1,0.9-0.5,1.1-1C403.4,937.2,403,936.3,402.2,936z" style="fill:none;"/>
			<path d="M306.7,807.4c-4.6-1.9-7-3-7-3s-6.4,84.4,77.9,108.5c52.2,14.9,79.6,4.6,93.9-11.6
				c10.1-11.4,13.7-25.6,14.9-36c1-8.2,0.5-14,0.5-14C395.2,841.8,327.9,816.2,306.7,807.4z" style="fill:none;"/>
			<path d="M345.5,759.4c-0.5-37-0.5-49.4-19.5-57.9c-2.7-1.2-5.5-2.1-8.2-1.8c-6.8,0.8-12.5,9.4-12.1,39.5
				c0.5,43.9,8.5,51.3,21.5,57c4.7,2.1,8.8,1.4,11.9-2.6c0.6-0.7,1.1-1.5,1.6-2.4c1.8-3.3,4.5-10.3,4.7-23.5c0-0.1,0-0.1,0-0.2
				C345.5,765,345.5,762.3,345.5,759.4z" style="fill:none;"/>
			<path d="M326.9,690.8c3.5,1.1,7.1,2.3,10.7,3.6c3.6,1.3,7.3,2.6,11.4,3.8c-1-2-2.3-3.6-3.8-5.2
				c-1.4-1.5-3-2.9-4.7-4.2c-3.4-2.5-7.2-4.4-11.3-5.7c-4.1-1.3-8.4-1.8-12.7-1.5c-1.1,0.1-2.1,0.2-3.2,0.4
				c-1.1,0.2-2.1,0.5-3.1,0.8l-1.5,0.5c-0.5,0.2-1,0.5-1.5,0.7c-1,0.5-1.9,1-2.8,1.6c4.3,0.9,8,1.3,11.7,2.2
				C319.8,688.8,323.3,689.7,326.9,690.8z" style="fill:none;"/>
			<path d="M372.1,813.6c4.8,3.7,11.3,5.1,17.1,3.6l0,0c0.7-0.2,1.1-0.8,1-1.5c-0.1-0.7-0.8-1.1-1.5-1
				c-5.1,1.1-10.6-0.3-14.5-3.6c-4-3.2-6.3-8.3-6.2-13.3c0-5.1,2.5-9.9,6.3-13c2.2-1.8,4.9-2.9,7.6-3.3c0.3,0.1,0.6,0.1,1,0.1
				c0.3,0,0.6-0.1,0.9-0.3c1.5-0.1,2.9,0,4.4,0.3c0,0,0.1,0,0.1,0c1.4,0.3,2.7-0.6,2.9-2s-0.6-2.7-2-2.9l0,0
				c-1.4-0.3-2.9-0.4-4.3-0.3c-0.2-1.9-0.4-3.8-0.5-5.8c-0.2-2.7-0.4-5.5-0.6-8.2c-0.3-5.5-0.5-11-0.3-16.4v0c0-0.4-0.3-0.8-0.7-0.8
				c-0.5-0.1-0.9,0.3-0.9,0.7c-0.7,5.5-1.1,11.1-1.4,16.6c-0.1,2.8-0.2,5.5-0.3,8.3c0,2.1-0.1,4.2-0.1,6.3c-0.1,0-0.2,0-0.3,0.1
				c-3,0.8-5.9,2.3-8.3,4.3c-4.7,4.1-7.6,10.3-7.3,16.4C364.2,804,367.2,810,372.1,813.6z" style="fill:none;"/>
			<path d="M464,731.7C464,731.7,464,731.8,464,731.7c-0.8-0.1-1.6-0.3-2.4-0.4c-2.6-0.5-5.3-0.8-7.8-0.4
				c-7.2,1.2-13,8.9-12.6,40.2c0.5,43.9,7.6,52.4,21.5,55c4.9,0.9,8.9,0.1,11.9-3.6c0,0,0,0,0,0l0,0c8.8-8.7,6.5-47,6.5-47
				c0-1,0-1.9-0.1-2.8c-0.2-19-1.5-30.4-8.3-36.5c0,0,0,0,0,0C472.8,736.2,469.9,733.1,464,731.7z" style="fill:none;"/>
			<path d="M570.2,757.5c-1.3,0.3-2.3,1.5-2.4,2.8c-0.3,3-0.5,8.6,1,13.8c0.5,1.7,2.3,2.7,4.1,2.2c4-1.3,6.3-4,6.1-10.7
				C578.7,758.5,575.7,756.1,570.2,757.5z" style="fill:none;"/>
			<path d="M479.3,717.4l-1.4-1c-0.5-0.3-1-0.6-1.5-0.8c-1-0.6-2-1.1-3.1-1.6c-1.1-0.4-2.1-0.8-3.2-1.3
				c-1.1-0.4-2.2-0.7-3.3-1c-4.5-1.2-9.1-1.6-13.6-1.3c-1.1,0.1-2.3,0.2-3.4,0.4c-1.1,0.2-2.2,0.4-3.3,0.7l-1.6,0.5
				c-0.5,0.2-1.1,0.4-1.6,0.6c-1.1,0.4-2.1,0.9-3.1,1.6l12.8,2.5c4.1,0.8,8,1.7,12,2.7c2,0.4,3.9,1.1,5.9,1.6
				c1.9,0.7,3.9,1.2,5.8,1.9c4,1.2,7.8,3,12.2,4.3C486.3,723.4,483.1,719.9,479.3,717.4z" style="fill:none;"/>
			<path d="M596.2,756c-0.3-10.5-1.3-18.3-3.1-23.8c-1-1.7-2.7-4-8.1-4.5c-2.9-0.3-6.8-0.1-12.4,0.9
				c-11.7,2.1-19.3,3.6-19.7,3.7c0.4-0.3,7.2-4.6,13-6.9c8.3-3.3,14.5-4.5,19.1-2.9c0.5-39.2,0.6-73.8,0.6-90c0,0.4,0,0.8-0.1,1.1
				c-3.6,43.5-74.9,73-159.3,66c-81.8-6.8-145.8-45.5-146.3-87.5c-1,22.4-3.7,118.6,12.6,237.6c18,131,178.7,137.3,237,109
				c35-17,48-46,52-118c0.5-9.7,1-20.2,1.4-31.2c-11.1,4.8-24.4,0-24.4,0c3.6-0.7,6.9-1.6,9.7-2.7c0,0,0,0,0,0
				c7.1-2.6,11.6-6,13.7-7.7c0.2-0.1,0.3-0.3,0.5-0.4c0.6-0.5,0.9-0.8,0.9-0.8C592.2,789.3,596.9,776.1,596.2,756z M371.4,781.4
				c2.4-2,5.2-3.5,8.3-4.3c0.1,0,0.2-0.1,0.3-0.1c0-2.1,0-4.2,0.1-6.3c0.1-2.8,0.1-5.5,0.3-8.3c0.3-5.5,0.6-11.1,1.4-16.6
				c0.1-0.5,0.5-0.8,0.9-0.7c0.4,0.1,0.7,0.4,0.7,0.8v0c-0.2,5.5,0,11,0.3,16.4c0.2,2.7,0.3,5.5,0.6,8.2c0.2,1.9,0.3,3.9,0.5,5.8
				c1.4,0,2.9,0.1,4.3,0.3l0,0c1.4,0.3,2.2,1.6,2,2.9s-1.6,2.2-2.9,2c0,0-0.1,0-0.1,0c-1.4-0.3-2.9-0.4-4.4-0.3
				c-0.3,0.1-0.6,0.2-0.9,0.3c-0.3,0-0.7,0-1-0.1c-2.8,0.4-5.4,1.6-7.6,3.3c-3.9,3.1-6.3,7.9-6.3,13c-0.1,5,2.2,10.1,6.2,13.3
				c3.9,3.3,9.4,4.7,14.5,3.6c0.7-0.2,1.4,0.3,1.5,1c0.1,0.7-0.3,1.4-1,1.5l0,0c-5.8,1.5-12.3,0.1-17.1-3.6
				c-4.9-3.6-7.9-9.6-8.1-15.8C363.8,791.7,366.6,785.5,371.4,781.4z M307.2,684.1c0.5-0.2,1-0.5,1.5-0.7l1.5-0.5
				c1-0.3,2.1-0.6,3.1-0.8c1.1-0.2,2.1-0.3,3.2-0.4c4.3-0.3,8.7,0.2,12.7,1.5c4.1,1.3,7.9,3.2,11.3,5.7c1.7,1.3,3.3,2.6,4.7,4.2
				c1.4,1.5,2.8,3.2,3.8,5.2c-4.1-1.2-7.8-2.5-11.4-3.8c-3.6-1.3-7.2-2.5-10.7-3.6c-3.5-1.1-7.1-2-10.7-2.9
				c-3.7-0.9-7.4-1.3-11.7-2.2C305.3,685.1,306.3,684.6,307.2,684.1z M345.4,767.7c-0.2,13.2-2.9,20.2-4.7,23.5
				c-0.5,0.9-1,1.7-1.6,2.4c-3.1,3.9-7.2,4.6-11.9,2.6c-13-5.7-21-13.1-21.5-57c-0.4-30.1,5.4-38.6,12.1-39.5
				c2.7-0.3,5.5,0.5,8.2,1.8c19,8.5,19,20.9,19.5,57.9c0,2.9,0,5.6-0.1,8.2C345.4,767.6,345.4,767.7,345.4,767.7z M403.1,938
				c-0.2,0.5-0.6,0.9-1.1,1c-2.6,0.7-5.2,0.9-7.9,0.8c-2.6-0.1-5.2-0.5-7.8-1.2c-2.5-0.7-5-1.6-7.4-2.8c-2.3-1.2-4.5-2.7-6.5-4.6
				c-0.6-0.6-0.6-1.5,0-2.1c0.4-0.4,0.9-0.5,1.3-0.4l0.1,0c2.4,0.5,4.8,1.1,7.1,1.7c2.3,0.6,4.6,1.2,6.9,1.8l6.9,1.7
				c2.3,0.6,4.7,1.1,7.1,2l0.1,0C403,936.3,403.4,937.2,403.1,938z M486.5,865.3c-1.2,10.4-4.8,24.6-14.9,36
				c-14.3,16.2-41.7,26.5-93.9,11.6c-84.3-24.1-77.9-108.5-77.9-108.5s2.4,1.1,7,3c21.1,8.8,88.5,34.4,180.2,44
				C487,851.4,487.5,857.1,486.5,865.3z M481.1,772.7c0.1,0.9,0.1,1.8,0.1,2.8c0,0,2.3,38.3-6.5,47l0,0c0,0,0,0,0,0
				c-3,3.7-7,4.5-11.9,3.6c-14-2.6-21-11.1-21.5-55c-0.4-31.3,5.4-39,12.6-40.2c2.5-0.4,5.2,0,7.8,0.4c0.8,0.1,1.6,0.3,2.4,0.5
				c0,0,0,0,0-0.1c5.8,1.3,8.8,4.4,8.8,4.4c0,0,0,0,0,0C479.6,742.2,480.8,753.7,481.1,772.7z M476.4,723c-1.9-0.7-3.9-1.2-5.8-1.9
				c-2-0.5-3.9-1.2-5.9-1.6c-3.9-1-7.9-1.9-12-2.7l-12.8-2.5c1-0.6,2-1.1,3.1-1.6c0.5-0.2,1.1-0.4,1.6-0.6l1.6-0.5
				c1.1-0.3,2.2-0.5,3.3-0.7c1.1-0.2,2.3-0.3,3.4-0.4c4.6-0.3,9.2,0.1,13.6,1.3c1.1,0.3,2.2,0.6,3.3,1c1.1,0.4,2.2,0.8,3.2,1.3
				c1,0.5,2.1,1,3.1,1.6c0.5,0.3,1,0.5,1.5,0.8l1.4,1c3.8,2.5,7.1,6,9.4,9.9C484.2,725.9,480.4,724.2,476.4,723z M572.8,776.2
				c-1.7,0.5-3.5-0.4-4.1-2.2c-1.5-5.2-1.3-10.8-1-13.8c0.1-1.3,1.1-2.5,2.4-2.8c5.5-1.4,8.6,1,8.8,8
				C579.2,772.3,576.8,775,572.8,776.2z" style="fill:#FFB400;"/>
			<path d="M426.3,699.5c84.3,7,155.6-22.5,159.3-66c0-0.4,0.1-0.8,0.1-1.1c0-1.7,0-3.2,0-4.5c-0.4-7.8-3-15.5-7.5-22.8
				c-18.8-32-73.2-58.2-139-63.5c-49.1-4-93.7,4.5-123,21c0,0,0-0.1,0-0.1c-20.8,11.4-34,26.8-35.9,44.5c0,0-0.1,1.7-0.2,4.8
				c0,0,0,0.1,0,0.1C280.5,653.9,344.5,692.6,426.3,699.5z" style="fill:#04294F;"/>
		</g>
	</g>
	<g>
		<g>
			<path d="M327.8,614.7C327.8,614.7,327.8,614.7,327.8,614.7C327.8,614.7,327.7,614.7,327.8,614.7
				C327.7,614.7,327.8,614.7,327.8,614.7z" style="fill:#FF3A00;"/>
			<circle cx="303.9" cy="499.9" r="4.3" style="fill:#FF3A00;"/>
			<path d="M614.7,560.2c-2.4,0-4.3,1.9-4.3,4.3s1.9,4.3,4.3,4.3c2.4,0,4.3-1.9,4.3-4.3S617.1,560.2,614.7,560.2z" style="fill:#FF3A00;"/>
			<path d="M585.6,593.8c0,2.4,1.9,4.3,4.3,4.3s4.3-1.9,4.3-4.3s-1.9-4.3-4.3-4.3C587.5,589.5,585.6,591.4,585.6,593.8z
				" style="fill:#FF3A00;"/>
			<circle cx="270.7" cy="593.8" r="4.3" style="fill:#FF3A00;"/>
			<ellipse cx="266.4" cy="562.2" rx="8.5" ry="8.5" style="fill:#FF3A00;"/>
			<ellipse cx="566.6" cy="515" rx="8.5" ry="8.5" style="fill:#FF3A00;"/>
			<path d="M512.8,524.5c-0.3-0.3-0.7-0.3-0.9,0c-0.9,0.8-1.5,1.8-2,2.8c-0.5,1-0.9,2.1-1.1,3.2
				c-0.3,1.1-0.4,2.2-0.3,3.4c0.1,1.1,0.3,2.3,1,3.4c0,0.1,0.1,0.1,0.2,0.2c0.3,0.2,0.6,0.1,0.8-0.1l0,0c0.8-1,1.2-2,1.5-3
				c0.3-1,0.5-2,0.7-3c0.2-1,0.3-2,0.4-3.1c0.1-1.1,0.1-2.1,0-3.3l0,0C513,524.8,512.9,524.7,512.8,524.5z" style="fill:#04294F;"/>
			<path d="M486.7,553.6c0,2.4,1.9,4.3,4.3,4.3c2.4,0,4.3-1.9,4.3-4.3s-1.9-4.3-4.3-4.3S486.7,551.3,486.7,553.6z" style="fill:#04294F;"/>
			<path d="M530.5,672.7c4.7,0,8.5-3.8,8.5-8.5c0-0.8-0.1-1.5-0.3-2.2c-1-3.6-4.3-6.3-8.2-6.3c-4.7,0-8.5,3.8-8.5,8.5
				c0,1.7,0.5,3.3,1.4,4.7C524.9,671.2,527.5,672.7,530.5,672.7z" style="fill:#04294F;"/>
			<g>
				<path d="M432,437.5L432,437.5c0.2-0.3,0.1-0.6-0.2-0.8c-0.3-0.2-0.7-0.1-0.8,0.2c-3.6,5.4-6.4,11.1-9.2,16.8
					c-2.8,5.8-5.2,11.7-7.5,17.6c-1.1,3-2.2,6-3.2,9c-1.1,3-2,6.1-2.9,9.1c-1,3-1.8,6.1-2.7,9.2c-0.9,3.1-1.7,6.1-2.4,9.2l-2.3,9.3
					c-0.7,3.1-1.3,6.2-1.9,9.4l-1,4.7c-0.3,1.6-0.5,3.1-0.8,4.7l-1.6,9.4c-0.3,1.6-0.5,3.1-0.7,4.7l-0.6,4.7
					c-0.4,3.2-0.8,6.3-1.1,9.5c-0.3,3.2-0.5,6.3-0.8,9.5c-0.2,3.2-0.5,6.3-0.7,9.5c0,0.2,0.2,0.5,0.4,0.5c0.3,0,0.5-0.1,0.6-0.4l0,0
					c0.6-3.1,1.1-6.3,1.5-9.4l1.5-9.4c0.5-3.1,1.1-6.2,1.6-9.4c0.6-3.1,1-6.3,1.7-9.4l1.8-9.3c0.3-1.6,0.6-3.1,0.9-4.7l1-4.6l2-9.3
					l2.2-9.2c0.7-3.1,1.6-6.1,2.4-9.2c0.8-3,1.6-6.1,2.5-9.1c0.9-3,1.8-6.1,2.7-9.1c1-3,1.9-6,2.9-9c1.1-3,2.1-6,3.2-8.9
					c1.1-2.9,2.2-5.9,3.5-8.8C426.4,448.8,429,443,432,437.5z" style="fill:#04294F;"/>
				<path d="M445.9,477.5c0.5-1.8,1.1-3.5,1.7-5.3l1.7-5.3c0.6-1.7,1.2-3.5,1.8-5.2l0.9-2.6l1-2.6
					c0.6-1.7,1.3-3.5,1.9-5.2c1.4-3.4,2.8-6.9,4.3-10.2c0.7-1.7,1.5-3.4,2.3-5.1l1.2-2.5l1.2-2.5c3.3-6.6,6.8-13.2,10.9-19.4l0,0
					c0.2-0.2,0.1-0.6-0.1-0.8c-0.3-0.2-0.6-0.2-0.9,0.1c-5,5.7-9,12.1-12.8,18.6l-1.4,2.5l-1.3,2.5c-0.9,1.7-1.7,3.4-2.5,5.1
					c-0.8,1.7-1.6,3.4-2.4,5.1l-2.2,5.2c-0.7,1.7-1.3,3.5-2,5.3l-1,2.7l-0.9,2.7c-0.6,1.8-1.2,3.6-1.7,5.4l-1.5,5.5
					c-1,3.6-1.7,7.3-2.4,11c-0.7,3.7-1.1,7.4-1.5,11.2c0,0.2,0.1,0.5,0.3,0.5c0.3,0.1,0.5-0.1,0.6-0.3l0,0c0.6-1.8,1.1-3.6,1.6-5.4
					c0.5-1.8,0.9-3.6,1.5-5.4C444.9,481,445.4,479.3,445.9,477.5z" style="fill:#04294F;"/>
				<path d="M516.9,436.3c2.2-3.6,4.2-7.3,6.4-10.8c2.2-3.5,4.4-7,6.7-10.4c0.6-0.8,1.2-1.7,1.8-2.5
					c0.6-0.8,1.2-1.7,1.8-2.5c0.6-0.8,1.3-1.6,1.9-2.5c0.6-0.8,1.3-1.6,1.9-2.4c2.6-3.2,5.4-6.4,8.1-9.6c0.2-0.2,0.2-0.5,0-0.8
					c-0.2-0.3-0.6-0.3-0.8-0.2c-3.5,2.4-6.7,5.3-9.7,8.3c-1.5,1.5-3,3.1-4.3,4.7c-1.4,1.6-2.7,3.3-4,5.1c-2.5,3.5-4.7,7.2-6.6,11
					c-1.8,3.9-3.4,7.9-4.3,12.1c0,0.2,0,0.4,0.2,0.5C516.4,436.6,516.7,436.5,516.9,436.3z" style="fill:#04294F;"/>
				<path d="M437.8,611.1c0.3,0.1,0.5-0.1,0.6-0.4c0.8-3.8,1.2-7.7,1.7-11.5c0.4-3.8,0.8-7.7,1.1-11.5l1.1-11.5
					c0.3-3.8,0.7-7.7,0.9-11.6c0-0.3-0.1-0.5-0.4-0.6c-0.3-0.1-0.7,0.1-0.8,0.4c-1.3,3.7-2.2,7.5-3,11.3c-0.4,1.9-0.7,3.8-1,5.8
					l-0.4,2.9l-0.3,2.9c-0.5,3.9-0.7,7.8-0.7,11.7c0,3.9,0.2,7.8,0.8,11.7C437.4,610.8,437.6,611,437.8,611.1z" style="fill:#04294F;"/>
				<path d="M575.1,375c-2,0.2-3.8,0.8-5.6,1.4c-1.8,0.7-3.5,1.5-5.1,2.4c-1.6,0.9-3.2,1.9-4.7,3.1
					c-1.5,1.2-2.8,2.5-3.9,4.2c-0.1,0.1-0.1,0.3-0.1,0.4c0.1,0.3,0.4,0.5,0.6,0.4l0,0c1.9-0.5,3.6-1.2,5.3-2
					c1.6-0.8,3.2-1.7,4.8-2.7c1.6-0.9,3.1-1.9,4.6-2.9c1.5-1,3.1-2.1,4.5-3.2l0,0c0.2-0.1,0.3-0.3,0.2-0.6
					C575.8,375.2,575.4,375,575.1,375z" style="fill:#04294F;"/>
				<path d="M425.7,420.9c0.2,0.2,0.5,0.2,0.7,0l0,0c1.4-1.6,2.5-3.2,3.6-4.8c1.1-1.6,2.2-3.2,3.4-4.7
					c1.1-1.6,2.3-3.1,3.5-4.6l3.7-4.7l0,0c0.1-0.2,0.2-0.4,0.1-0.6c-0.1-0.3-0.5-0.5-0.8-0.3c-2,0.8-3.7,2-5.3,3.3
					c-1.6,1.3-3.1,2.9-4.4,4.5c-0.7,0.8-1.2,1.7-1.8,2.6c-0.5,0.9-1,1.8-1.4,2.8c-0.8,1.9-1.4,4-1.5,6.2
					C425.5,420.6,425.5,420.8,425.7,420.9z" style="fill:#04294F;"/>
				<path d="M471.8,391.1L471.8,391.1c1.2-0.4,2.1-1,2.9-1.7c0.8-0.6,1.6-1.3,2.3-2.1c0.7-0.7,1.4-1.5,2-2.3
					c0.6-0.8,1.3-1.7,1.8-2.8l0,0c0.1-0.1,0.1-0.3,0.1-0.4c-0.1-0.4-0.4-0.6-0.8-0.5c-1.2,0.2-2.2,0.7-3.2,1.2c-1,0.6-1.9,1.2-2.7,2
					c-0.8,0.8-1.6,1.6-2.1,2.6c-0.5,1-1,2.1-1.1,3.4c0,0.1,0,0.2,0,0.2C471.1,391.1,471.5,391.2,471.8,391.1z" style="fill:#04294F;"/>
				<path d="M340.4,602.6c-1.8-2.8-3.9-5.6-7-7.6c-1.6-0.9-3.5-1.7-5.7-1.5c-2.2,0.1-4.3,1.5-5.4,3.4
					c-1.1,1.8-1.4,4-1.1,6c0.2,1,0.5,1.9,0.9,2.8c0.2,0.4,0.5,0.9,0.7,1.3c0.3,0.4,0.5,0.7,0.7,1c0.9,1.3,1.8,2.5,2.5,3.8
					c0.4,0.6,0.7,1.3,0.9,1.9c0.2,0.3,0.2,0.7,0.3,1c0,0-0.1,0-0.1,0c-0.5,0-1.2-0.2-1.9-0.4c-1.4-0.4-2.8-1-4.3-1.7
					c-2.8-1.3-5.7-2.8-8.5-4.4c-2.8-1.6-6-3-9.3-3.5c-0.3,0-0.6,0.1-0.7,0.4c-0.1,0.3,0.1,0.7,0.4,0.7c3,0.9,5.7,2.5,8.3,4.4
					c2.7,1.8,5.4,3.6,8.3,5.2c1.5,0.8,3,1.5,4.6,2.1c0.8,0.3,1.7,0.5,2.8,0.6c0.3,0,0.6,0,0.9,0c0.2,0,0.3,0,0.5-0.1
					c0.2-0.1,0.4-0.1,0.6-0.2c0.2-0.1,0.4-0.2,0.6-0.3c0.2-0.1,0.4-0.3,0.5-0.5c0.4-0.4,0.6-0.8,0.7-1.2c0.2-0.8,0.2-1.5,0.1-2
					c-0.1-0.6-0.2-1-0.4-1.5c-0.3-0.9-0.7-1.7-1.1-2.5c-0.8-1.5-1.8-2.9-2.7-4.3c-0.2-0.3-0.5-0.7-0.7-0.9c-0.2-0.3-0.3-0.5-0.5-0.8
					c-0.3-0.6-0.5-1.2-0.6-1.8c-0.2-1.2-0.1-2.4,0.5-3.3c0.5-1,1.4-1.5,2.5-1.7c1.1-0.2,2.4,0.2,3.6,0.8c2.5,1.3,4.6,3.6,6.6,6
					c1.9,2.5,3.6,5.2,5.3,7.9c0.1,0.2,0.4,0.3,0.6,0.2c0.3-0.1,0.4-0.4,0.3-0.6C343.5,608.5,342.1,605.5,340.4,602.6z M327.8,614.7
					C327.8,614.7,327.7,614.7,327.8,614.7C327.7,614.7,327.8,614.7,327.8,614.7C327.8,614.7,327.8,614.7,327.8,614.7z" style="fill:#04294F;"/>
				<path d="M328.6,637.7l-0.9-2.2c-0.3-0.7-0.7-1.5-1-2.2c-0.3-0.7-0.8-1.4-1.1-2.2c-0.4-0.7-0.9-1.4-1.3-2.1
					c-0.5-0.7-1.1-1.3-1.6-2l-0.9-0.9c-0.3-0.3-0.6-0.6-1-0.9l-1.1-0.8c-0.4-0.3-0.8-0.4-1.2-0.6c-0.8-0.5-1.6-0.7-2.4-1
					c-0.8-0.3-1.7-0.3-2.5-0.5c-0.8-0.1-1.7-0.1-2.5-0.1c-0.8,0.1-1.6,0.1-2.4,0.3c-0.8,0.2-1.6,0.3-2.4,0.6
					c-0.2,0.1-0.3,0.2-0.4,0.4c0,0.3,0.1,0.5,0.4,0.6l0,0c3.1,0.5,6.1,0.9,8.5,2.1c2.5,1.1,4.5,2.9,6.2,5.2c0.8,1.2,1.6,2.4,2.4,3.7
					c0.7,1.3,1.5,2.6,2.2,4c1.4,2.7,2.8,5.5,4.4,8.2c0.1,0.2,0.4,0.3,0.6,0.3c0.3-0.1,0.5-0.4,0.5-0.7
					C330.6,643.7,329.7,640.7,328.6,637.7z" style="fill:#04294F;"/>
				<circle cx="363.1" cy="615" r="4.3" style="fill:#04294F;"/>
				<path d="M468.2,638.3c0-2.4-1.9-4.3-4.3-4.3c-2.4,0-4.3,1.9-4.3,4.3s1.9,4.3,4.3,4.3S468.2,640.7,468.2,638.3z" style="fill:#04294F;"/>
				<path d="M505.6,600.6c-2.4,0-4.3,1.9-4.3,4.3s1.9,4.3,4.3,4.3s4.3-1.9,4.3-4.3S508,600.6,505.6,600.6z" style="fill:#04294F;"/>
				<path d="M396.2,616.6c-1.8,0.5-3.3,1.5-4.4,2.8c-1.4-1.3-3-2.5-4.9-3.2c-2-0.8-4.3-1-6.5-0.6
					c-2.2,0.4-4.2,1.4-5.9,2.9c-1.6,1.5-2.8,3.6-3.3,5.8c-0.4,2.2,0,4.6,0.9,6.5c0.9,2,2.3,3.6,3.7,4.9c2.4,2.3,4.1,5.4,5.3,8.7
					c1.2,3.3,1.9,6.9,2.2,10.6l1.2,0c0.4-3.8,0.2-7.6-0.8-11.4c-1-3.7-2.6-7.4-5.4-10.5l-0.5-0.5c-0.1-0.2-0.3-0.3-0.4-0.5
					c-0.3-0.3-0.5-0.6-0.8-0.9c-0.5-0.7-0.9-1.3-1.2-2c-0.6-1.4-0.8-2.9-0.5-4.3c0.6-2.8,3.2-5.1,6.1-5.6c3-0.6,6.1,0.7,8.3,3
					c0.2,0.2,0.4,0.5,0.6,0.7c-0.2,1.2-0.2,2.5,0.1,3.8c0.6,2.5,2.3,4.4,4.4,5.5c1.8,6.5,3,13.2,2.7,20.2l1,0.2
					c1.3-3.6,1.7-7.5,1.5-11.3c0-1.9-0.2-3.8-0.5-5.7c-0.1-0.8-0.3-1.6-0.4-2.4c0.6,0,1.1-0.1,1.7-0.3c4.6-1.2,7.3-5.8,6.1-10.4
					C405.4,618.2,400.7,615.4,396.2,616.6z" style="fill:#04294F;"/>
				<path d="M509.9,576c-4.7,0-8.5,3.8-8.5,8.5s3.8,8.5,8.5,8.5s8.5-3.8,8.5-8.5S514.6,576,509.9,576z" style="fill:#04294F;"/>
				<path d="M499.8,627.8c-1.2-0.9-2.6-1.5-4.2-1.7c-1.5-0.2-3.1,0-4.5,0.7c-1.4,0.6-2.6,1.6-3.5,2.8
					c-0.9,1.1-1.6,2.4-2,3.7c-0.1,0.3-0.2,0.6-0.3,1l-0.1,0.4c0,0.1-0.1,0.2-0.1,0.3c-0.2,0.4-0.4,0.8-0.6,1.1c-0.5,0.6-1.2,1-2,1.1
					c-1.5,0.2-3-0.8-3.8-2.5c-0.8-1.7-0.8-3.9-0.5-6.1c0.7-4.4,2.8-8.7,5.2-12.8c2.6-4,5.2-9,5.2-14.6c0-2.8-0.8-5.7-2.6-8
					c-1.7-2.3-4.3-3.9-7-4.7c-2.7-0.8-5.6-0.8-8.3,0.1c-2.7,0.8-5.2,2.5-6.9,4.8c-1.7,2.3-2.6,5-2.9,7.7c-0.2,1.3-0.2,2.7-0.1,4
					c0,0.6,0.1,1.3,0.2,1.9c0.1,0.6,0.1,1.2,0.2,1.7c0.4,4.6,0.1,9.4-1.8,13.4c-1.8,4.1-5.4,7.1-9.7,8.8c-2.1,0.8-4.4,1.4-6.7,1.7
					c-2.4,0.3-4.9,0.8-7.3,1.5c-2.4,0.7-4.8,1.8-6.9,3.4c-2.1,1.6-3.7,3.7-4.9,6c-2.3,4.6-2.7,9.7-2.6,14.6l1.2,0
					c0.1-2.4,0.3-4.8,0.8-7.1c0.5-2.3,1.2-4.6,2.3-6.6c1.1-2,2.6-3.8,4.5-5.1c1.9-1.3,4-2.2,6.3-2.8c2.3-0.6,4.6-0.9,7-1.2
					c2.5-0.3,5-0.8,7.4-1.7c2.4-0.9,4.8-2.2,6.8-3.9c2-1.7,3.7-3.9,4.8-6.3c2.3-4.8,2.7-10.1,2.4-15.2c0-0.6-0.1-1.3-0.2-1.9
					c-0.1-0.6-0.1-1.1-0.1-1.7c-0.1-1.1,0-2.2,0.1-3.3c0.3-2.2,1-4.2,2.2-5.8c1.2-1.6,3-2.8,5-3.4c2-0.6,4.1-0.6,6.1,0
					c2,0.6,3.8,1.7,4.9,3.3c1.2,1.6,1.8,3.6,1.8,5.7c0,2.1-0.5,4.3-1.4,6.4c-0.4,1-0.9,2.1-1.5,3.1c-0.3,0.5-0.6,1-0.9,1.5l-1,1.6
					c-1.3,2.2-2.4,4.4-3.4,6.8c-1,2.4-1.8,4.8-2.2,7.5c-0.4,2.6-0.4,5.5,0.8,8.3c0.6,1.4,1.6,2.7,3,3.6c1.4,0.9,3.1,1.3,4.8,1
					c1.7-0.2,3.2-1.2,4.3-2.4c0.5-0.6,0.9-1.3,1.2-2.1c0.1-0.2,0.1-0.4,0.2-0.6l0.1-0.5c0.1-0.3,0.1-0.5,0.2-0.8
					c0.7-2,1.9-3.7,3.6-4.5c1.6-0.8,3.7-0.6,5.2,0.5c1.5,1.1,2.2,3,1.9,4.9c-0.3,2-1.5,3.9-3,5.5c-0.4,0.4-0.8,0.8-1.2,1.2l-1.3,1.3
					c-0.9,0.9-1.8,1.8-2.6,2.7c-1.7,1.8-3.3,3.7-4.7,5.8c-1.4,2.1-2.6,4.3-3.4,6.8c-0.7,2.5-0.8,5.3,0.3,7.7
					c1.1,2.4,3.3,4.1,5.4,5.3l0.5-0.9c-2-1.3-3.7-3-4.6-5c-0.9-2.1-0.7-4.4,0.1-6.6c0.8-2.2,2-4.2,3.4-6.1c1.4-1.9,3-3.6,4.7-5.3
					c0.8-0.8,1.7-1.7,2.6-2.5l1.3-1.2c0.5-0.4,1-0.9,1.4-1.3c1.8-1.9,3.5-4.1,4-7c0.3-1.4,0.2-3-0.3-4.4
					C501.9,630,501,628.7,499.8,627.8z" style="fill:#04294F;"/>
				<path d="M471,649.4c-1-1-2.1-1.9-3.4-2.5c-1.3-0.6-2.6-0.9-4-1.1c-1.4-0.1-2.8,0-4.1,0.4c-0.7,0.2-1.3,0.5-1.9,0.7
					c-0.6,0.3-1.2,0.7-1.7,1.1c-2.2,1.7-3.5,4.1-4.2,6.5c-0.2,0.6-0.3,1.2-0.4,1.8c-0.1,0.6-0.2,1.2-0.2,1.8l-0.3,3.4l0,0.1
					c0,0.3,0.2,0.5,0.4,0.6c0.3,0.1,0.7-0.1,0.8-0.4l0.5-1.7c0.2-0.6,0.3-1.2,0.5-1.7c0.1-0.5,0.3-1.1,0.5-1.6
					c0.2-0.5,0.3-1,0.6-1.5c0.9-2,2.1-3.7,3.8-4.7c0.4-0.3,0.8-0.5,1.3-0.7c0.5-0.1,0.9-0.3,1.4-0.4c0.9-0.2,1.9-0.3,2.8-0.1
					c1.9,0.3,3.6,1.2,4.9,2.5c0.6,0.7,1.1,1.5,1.4,2.3c0.3,0.8,0.4,1.8,0.5,2.7c-0.1,1.9-0.6,3.9-1.7,5.8l-0.4,0.7l-0.4,0.7
					c-0.3,0.5-0.6,0.9-0.9,1.4c-0.7,1-1.3,2-1.8,3.1c-1.1,2.1-2.1,4.4-2.4,6.9c0,0.2,0.1,0.4,0.3,0.5c0.3,0.1,0.5,0,0.7-0.3l0,0
					c0.9-2.1,2.2-3.9,3.6-5.7c0.7-0.9,1.4-1.8,2.2-2.6c0.4-0.4,0.8-0.9,1.1-1.4l0.6-0.7l0.5-0.8c1.3-2.1,2.4-4.6,2.5-7.4
					c0-1.4-0.1-2.8-0.6-4.2C472.7,651.7,472,650.5,471,649.4z" style="fill:#04294F;"/>
			</g>
		</g>
		<path d="M346.2,571c0,0-2.1,15.2-3.1,27.1c0,0-4.8-10.1-5.3-24c0.6-17.2-12-28.4-25.7-31.2c-1.5-0.3-2.9-0.5-4.4-0.6
			c0,0,0,0,0,0l0,0c-2.8-0.1-5.5,0.2-8,1c-6.7,2.2-6.3,9.1,2.5,8c8.3-1,12.6,4,13.6,11.2c1.1,7.6-1.5,17.7-7.1,25.9
			c-4.1,6.1-7.1,11.4-8.5,16.7c-14.9-0.3-17.1,22.3,2.1,19.1c0.2,0,0.4-0.1,0.6-0.1c0.8,1.5,1.8,2.9,2.9,4.5
			c0.8,1.2,1.7,2.4,2.7,3.6c5.2,6.3,12.6,12.5,21.9,18.3c3,1.9,6.2,3.7,9.6,5.5c23.9,12.5,54.5,20.8,87.5,23.6c7.7,0.7,15.5,1,23,1
			c29.1,0,53.8-4.6,72.8-11.6c-0.9-1.3-1.4-2.9-1.4-4.7c0-4.7,3.8-8.5,8.5-8.5c3.9,0,7.3,2.7,8.2,6.3c7.3-4,13.3-8.4,17.7-13
			c0,0,0,0,0,0c0.3-0.3,0.5-0.5,0.8-0.8c1.5-2,1.6-4.6,1.2-7.4c-0.7-4.3-0.9-2.9-1.5-8.3c-0.4-3.8,0.2-7.2,4.4-9.1
			c0.9-0.4,1.8-0.9,2.6-1.5c5.3-3.9,9.3-11.9,10.7-21.6c1.1-7.4,0.8-15.7-1.7-23.8c-6-20.1-20.6-11.3-14.1,0.7
			c1.6,3.1,2.6,6.2,2.9,9.3c1.3,10.6-4.3,19-9.9,11.8c-3.6-4.6-7.8-4.8-10.5-2.5c-2.7,2.4-3.9,7.4-1.3,13
			c5.8,12.4,1.2,19.9-4.9,20.4c-3.1,7.4-4.8,19.4-4.8,19.4c-0.9-9.1-0.9-20.7-0.9-20.8c0,0,0,0,0,0c0.1-13.7,0.6-26.6,1.4-38.8
			c0.5-7.5,1.1-14.8,1.9-21.8c3.7-34.9,10.2-62.9,18.2-85.4c5.2-14.5,11.1-26.6,17.3-36.9c6.6-10.9,13.6-19.7,20.6-26.8
			c16.9-17.1,34.3-24,45.7-26.7c4.3-21.5-1.2-40.2-25.6-53.9c-3-1.7-7.9-4.1-14.4-6.5c-8.1-3.2-11.7-4.7-27-8.1
			c-3.4-0.9-6.9-1.8-10.5-2.7c0,0,0,0,0,0c-1.3,0-62.2-1.9-119.2,49.5c-10.8,9.8-21.5,21.4-31.5,35.4c-0.5,0.6-0.9,1.3-1.4,1.9
			c-23.5,33.1-43.6,78.9-55,142C348.4,556.2,347.3,563.5,346.2,571z M330.8,647.5c-0.3,0.1-0.5-0.1-0.6-0.3c-1.6-2.7-3-5.5-4.4-8.2
			c-0.7-1.3-1.5-2.7-2.2-4c-0.8-1.3-1.6-2.5-2.4-3.7c-1.7-2.3-3.7-4.1-6.2-5.2c-2.5-1.2-5.5-1.6-8.5-2.1l0,0c-0.3,0-0.5-0.3-0.4-0.6
			c0-0.2,0.2-0.3,0.4-0.4c0.8-0.2,1.6-0.4,2.4-0.6c0.8-0.1,1.6-0.2,2.4-0.3c0.8,0,1.7,0,2.5,0.1c0.8,0.2,1.7,0.2,2.5,0.5
			c0.8,0.3,1.7,0.5,2.4,1c0.4,0.2,0.8,0.4,1.2,0.6l1.1,0.8c0.4,0.2,0.7,0.6,1,0.9l0.9,0.9c0.5,0.7,1.1,1.3,1.6,2
			c0.4,0.7,1,1.4,1.3,2.1c0.4,0.7,0.8,1.4,1.1,2.2c0.3,0.7,0.7,1.4,1,2.2l0.9,2.2c1.1,3,2,6,2.6,9
			C331.3,647.1,331.1,647.4,330.8,647.5z M344.2,612.2c-0.2,0.1-0.5,0-0.6-0.2c-1.7-2.8-3.4-5.5-5.3-7.9c-1.9-2.4-4.1-4.7-6.6-6
			c-1.2-0.6-2.5-1-3.6-0.8c-1,0.2-1.9,0.7-2.5,1.7c-0.5,0.9-0.7,2.1-0.5,3.3c0.1,0.6,0.3,1.2,0.6,1.8c0.1,0.3,0.3,0.6,0.5,0.8
			c0.1,0.2,0.4,0.6,0.7,0.9c1,1.4,1.9,2.8,2.7,4.3c0.4,0.8,0.8,1.6,1.1,2.5c0.2,0.5,0.3,0.9,0.4,1.5c0.1,0.5,0.1,1.2-0.1,2
			c-0.2,0.4-0.3,0.9-0.7,1.2c-0.2,0.2-0.3,0.3-0.5,0.5c-0.2,0.1-0.4,0.3-0.6,0.3c-0.2,0.1-0.4,0.1-0.6,0.2c-0.2,0-0.3,0.1-0.5,0.1
			c-0.3,0.1-0.6,0-0.9,0c-1.1-0.1-2-0.3-2.8-0.6c-1.7-0.6-3.2-1.3-4.6-2.1c-2.9-1.6-5.6-3.4-8.3-5.2c-2.6-1.9-5.3-3.4-8.3-4.4
			c-0.3-0.1-0.5-0.4-0.4-0.7c0.1-0.3,0.4-0.5,0.7-0.4c3.3,0.4,6.5,1.8,9.3,3.5c2.8,1.6,5.6,3.1,8.5,4.4c1.4,0.7,2.9,1.3,4.3,1.7
			c0.7,0.2,1.4,0.3,1.9,0.4c0,0,0.1,0,0.1,0c0-0.2-0.1-0.6-0.3-1c-0.2-0.6-0.6-1.3-0.9-1.9c-0.7-1.3-1.6-2.6-2.5-3.8
			c-0.2-0.3-0.5-0.6-0.7-1c-0.3-0.4-0.5-0.8-0.7-1.3c-0.4-0.9-0.8-1.8-0.9-2.8c-0.3-2-0.1-4.2,1.1-6c1.1-1.9,3.2-3.2,5.4-3.4
			c2.2-0.2,4.1,0.6,5.7,1.5c3.1,2,5.2,4.7,7,7.6c1.7,2.9,3,5.9,4.1,9C344.6,611.8,344.4,612.1,344.2,612.2z M508.8,530.5
			c0.3-1.1,0.6-2.2,1.1-3.2c0.5-1,1.1-2,2-2.8c0.3-0.3,0.7-0.3,0.9,0c0.1,0.1,0.2,0.3,0.2,0.4l0,0c0.1,1.2,0.1,2.2,0,3.3
			c-0.1,1.1-0.2,2.1-0.4,3.1c-0.2,1-0.4,2-0.7,3c-0.4,1-0.8,2-1.5,3l0,0c-0.2,0.3-0.6,0.3-0.8,0.1c-0.1,0-0.1-0.1-0.2-0.2
			c-0.7-1.1-0.9-2.3-1-3.4C508.4,532.8,508.5,531.6,508.8,530.5z M491,549.3c2.4,0,4.3,1.9,4.3,4.3s-1.9,4.3-4.3,4.3
			s-4.3-1.9-4.3-4.3S488.6,549.3,491,549.3z M472.1,387.2c0.6-1,1.3-1.9,2.1-2.6c0.8-0.8,1.7-1.4,2.7-2c1-0.6,2-1,3.2-1.2
			c0.4-0.1,0.7,0.2,0.8,0.5c0,0.2,0,0.3-0.1,0.4l0,0c-0.5,1-1.2,1.9-1.8,2.8c-0.6,0.8-1.3,1.6-2,2.3c-0.7,0.7-1.4,1.5-2.3,2.1
			c-0.8,0.6-1.7,1.2-2.9,1.7l0,0c-0.3,0.1-0.6,0-0.8-0.4c0-0.1,0-0.2,0-0.2C471.1,389.2,471.5,388.2,472.1,387.2z M444.2,471.2
			l1.5-5.5c0.5-1.8,1.1-3.6,1.7-5.4l0.9-2.7l1-2.7c0.7-1.8,1.3-3.5,2-5.3l2.2-5.2c0.7-1.7,1.6-3.4,2.4-5.1c0.8-1.7,1.6-3.4,2.5-5.1
			l1.3-2.5l1.4-2.5c3.7-6.5,7.8-12.9,12.8-18.6c0.2-0.3,0.6-0.3,0.9-0.1c0.2,0.2,0.3,0.5,0.1,0.8l0,0c-4,6.2-7.6,12.8-10.9,19.4
			l-1.2,2.5l-1.2,2.5c-0.8,1.7-1.6,3.3-2.3,5.1c-1.5,3.4-2.9,6.8-4.3,10.2c-0.7,1.7-1.3,3.5-1.9,5.2l-1,2.6l-0.9,2.6
			c-0.6,1.8-1.2,3.5-1.8,5.2l-1.7,5.3c-0.6,1.8-1.2,3.5-1.7,5.3c-0.5,1.8-1.1,3.6-1.6,5.3c-0.6,1.8-1,3.6-1.5,5.4
			c-0.5,1.8-1,3.6-1.6,5.4l0,0c-0.1,0.3-0.4,0.4-0.6,0.3c-0.2-0.1-0.4-0.3-0.3-0.5c0.4-3.7,0.9-7.5,1.5-11.2
			C442.5,478.5,443.2,474.8,444.2,471.2z M443.2,564.6c-0.2,3.9-0.6,7.7-0.9,11.6l-1.1,11.5c-0.3,3.8-0.7,7.7-1.1,11.5
			c-0.5,3.8-0.9,7.7-1.7,11.5c-0.1,0.3-0.3,0.4-0.6,0.4c-0.2,0-0.4-0.2-0.4-0.4c-0.6-3.9-0.8-7.8-0.8-11.7c0-3.9,0.2-7.8,0.7-11.7
			l0.3-2.9l0.4-2.9c0.3-1.9,0.6-3.9,1-5.8c0.8-3.8,1.7-7.6,3-11.3c0.1-0.3,0.5-0.5,0.8-0.4C443.1,564.1,443.2,564.4,443.2,564.6z
			 M427,414.3c0.4-1,0.9-1.9,1.4-2.8c0.6-0.9,1.1-1.8,1.8-2.6c1.3-1.7,2.7-3.2,4.4-4.5c1.6-1.3,3.3-2.5,5.3-3.3
			c0.3-0.1,0.7,0,0.8,0.3c0.1,0.2,0,0.5-0.1,0.6l0,0l-3.7,4.7c-1.2,1.5-2.4,3.1-3.5,4.6c-1.1,1.6-2.2,3.1-3.4,4.7
			c-1.2,1.6-2.2,3.2-3.6,4.8l0,0c-0.2,0.2-0.5,0.2-0.7,0c-0.1-0.1-0.2-0.3-0.2-0.4C425.6,418.3,426.1,416.3,427,414.3z M363.1,619.3
			c-2.4,0-4.3-1.9-4.3-4.3s1.9-4.3,4.3-4.3s4.3,1.9,4.3,4.3S365.4,619.3,363.1,619.3z M400.4,633.1c-0.6,0.1-1.1,0.2-1.7,0.3
			c0.2,0.8,0.3,1.6,0.4,2.4c0.3,1.9,0.5,3.8,0.5,5.7c0.1,3.8-0.3,7.7-1.5,11.3l-1-0.2c0.2-6.9-0.9-13.7-2.7-20.2
			c-2.1-1.1-3.8-3-4.4-5.5c-0.3-1.3-0.3-2.6-0.1-3.8c-0.2-0.2-0.4-0.5-0.6-0.7c-2.2-2.3-5.3-3.6-8.3-3c-2.9,0.5-5.6,2.8-6.1,5.6
			c-0.3,1.4-0.1,2.9,0.5,4.3c0.3,0.7,0.7,1.4,1.2,2c0.2,0.3,0.5,0.6,0.8,0.9c0.1,0.2,0.3,0.3,0.4,0.5l0.5,0.5
			c2.8,3.1,4.4,6.7,5.4,10.5c0.9,3.8,1.2,7.6,0.8,11.4l-1.2,0c-0.3-3.6-0.9-7.2-2.2-10.6c-1.2-3.3-2.9-6.5-5.3-8.7
			c-1.4-1.3-2.8-3-3.7-4.9c-0.9-2-1.3-4.3-0.9-6.5c0.4-2.2,1.6-4.3,3.3-5.8c1.6-1.5,3.7-2.5,5.9-2.9c2.2-0.4,4.5-0.2,6.5,0.6
			c1.9,0.7,3.5,1.8,4.9,3.2c1.1-1.3,2.6-2.3,4.4-2.8c4.6-1.2,9.2,1.6,10.4,6.1C407.7,627.3,405,631.9,400.4,633.1z M417.4,472.4
			c-1,3-2,6-2.9,9c-1,3-1.8,6.1-2.7,9.1c-0.9,3-1.7,6.1-2.5,9.1c-0.8,3-1.7,6.1-2.4,9.2l-2.2,9.2l-2,9.3l-1,4.6
			c-0.3,1.5-0.6,3.1-0.9,4.7l-1.8,9.3c-0.7,3.1-1.1,6.2-1.7,9.4c-0.5,3.1-1.1,6.2-1.6,9.4l-1.5,9.4c-0.5,3.1-1,6.3-1.5,9.4l0,0
			c0,0.3-0.3,0.4-0.6,0.4c-0.2,0-0.4-0.3-0.4-0.5c0.2-3.2,0.4-6.3,0.7-9.5c0.3-3.2,0.4-6.4,0.8-9.5c0.4-3.2,0.7-6.3,1.1-9.5l0.6-4.7
			c0.2-1.6,0.4-3.2,0.7-4.7l1.6-9.4c0.3-1.6,0.5-3.2,0.8-4.7l1-4.7c0.6-3.1,1.3-6.2,1.9-9.4l2.3-9.3c0.7-3.1,1.6-6.2,2.4-9.2
			c0.9-3.1,1.7-6.1,2.7-9.2c1-3,1.9-6.1,2.9-9.1c1.1-3,2.1-6,3.2-9c2.3-6,4.7-11.9,7.5-17.6c2.8-5.8,5.6-11.5,9.2-16.8
			c0.2-0.3,0.6-0.4,0.8-0.2c0.3,0.2,0.3,0.5,0.2,0.8l0,0c-3,5.5-5.6,11.3-8,17.2c-1.2,2.9-2.3,5.9-3.5,8.8
			C419.4,466.4,418.4,469.4,417.4,472.4z M471.4,664.7l-0.5,0.8l-0.6,0.7c-0.4,0.5-0.8,1-1.1,1.4c-0.7,0.9-1.5,1.7-2.2,2.6
			c-1.4,1.8-2.7,3.7-3.6,5.7l0,0c-0.1,0.3-0.4,0.4-0.7,0.3c-0.2-0.1-0.3-0.3-0.3-0.5c0.2-2.5,1.2-4.8,2.4-6.9
			c0.6-1.1,1.2-2.1,1.8-3.1c0.4-0.5,0.6-1,0.9-1.4l0.4-0.7l0.4-0.7c1-1.9,1.6-3.9,1.7-5.8c0-0.9-0.2-1.9-0.5-2.7
			c-0.3-0.8-0.8-1.6-1.4-2.3c-1.3-1.3-3-2.3-4.9-2.5c-0.9-0.2-1.9-0.1-2.8,0.1c-0.5,0.1-0.9,0.3-1.4,0.4c-0.4,0.2-0.9,0.4-1.3,0.7
			c-1.7,1-2.9,2.7-3.8,4.7c-0.2,0.5-0.4,1-0.6,1.5c-0.2,0.5-0.3,1.1-0.5,1.6c-0.1,0.5-0.3,1.1-0.5,1.7l-0.5,1.7
			c-0.1,0.3-0.4,0.5-0.8,0.4c-0.3-0.1-0.5-0.3-0.4-0.6l0-0.1l0.3-3.4c0-0.6,0.1-1.2,0.2-1.8c0.1-0.6,0.2-1.2,0.4-1.8
			c0.7-2.4,2-4.8,4.2-6.5c0.5-0.4,1.1-0.8,1.7-1.1c0.6-0.3,1.3-0.6,1.9-0.7c1.3-0.4,2.7-0.5,4.1-0.4c1.4,0.1,2.7,0.5,4,1.1
			c1.2,0.6,2.4,1.5,3.4,2.5c1,1.1,1.7,2.3,2.2,3.6c0.5,1.4,0.6,2.8,0.6,4.2C473.8,660,472.7,662.5,471.4,664.7z M459.6,638.3
			c0-2.4,1.9-4.3,4.3-4.3s4.3,1.9,4.3,4.3s-1.9,4.3-4.3,4.3C461.5,642.6,459.6,640.7,459.6,638.3z M502.8,635.9
			c-0.5,2.9-2.2,5.2-4,7c-0.5,0.5-0.9,0.9-1.4,1.3l-1.3,1.2c-0.9,0.8-1.8,1.6-2.6,2.5c-1.7,1.7-3.3,3.5-4.7,5.3
			c-1.4,1.9-2.7,3.9-3.4,6.1c-0.8,2.1-1,4.5-0.1,6.6c0.8,2.1,2.6,3.8,4.6,5l-0.5,0.9c-2.2-1.2-4.3-2.9-5.4-5.3
			c-1.2-2.4-1.1-5.3-0.3-7.7c0.7-2.5,2-4.7,3.4-6.8c1.4-2.1,3-4,4.7-5.8c0.8-0.9,1.7-1.8,2.6-2.7l1.3-1.3c0.4-0.4,0.8-0.8,1.2-1.2
			c1.5-1.7,2.7-3.6,3-5.5c0.3-1.9-0.4-3.8-1.9-4.9c-1.5-1.1-3.6-1.3-5.2-0.5c-1.7,0.8-2.9,2.5-3.6,4.5c-0.1,0.2-0.2,0.5-0.2,0.8
			l-0.1,0.5c-0.1,0.2-0.1,0.4-0.2,0.6c-0.3,0.7-0.7,1.4-1.2,2.1c-1,1.3-2.6,2.2-4.3,2.4c-1.7,0.3-3.4-0.1-4.8-1
			c-1.4-0.9-2.4-2.2-3-3.6c-1.2-2.8-1.2-5.7-0.8-8.3c0.4-2.6,1.2-5.1,2.2-7.5c1-2.4,2.1-4.6,3.4-6.8l1-1.6c0.3-0.5,0.6-1,0.9-1.5
			c0.6-1,1.1-2,1.5-3.1c0.8-2.1,1.4-4.3,1.4-6.4c0-2.1-0.6-4.1-1.8-5.7c-1.2-1.6-2.9-2.7-4.9-3.3c-2-0.6-4.1-0.6-6.1,0
			c-2,0.6-3.7,1.8-5,3.4c-1.2,1.6-2,3.7-2.2,5.8c-0.1,1.1-0.2,2.2-0.1,3.3c0,0.6,0.1,1.1,0.1,1.7c0.1,0.6,0.1,1.3,0.2,1.9
			c0.3,5,0,10.4-2.4,15.2c-1.2,2.4-2.8,4.6-4.8,6.3c-2,1.7-4.4,3-6.8,3.9c-2.4,0.9-4.9,1.4-7.4,1.7c-2.4,0.3-4.7,0.6-7,1.2
			c-2.3,0.6-4.4,1.5-6.3,2.8c-1.9,1.3-3.4,3.1-4.5,5.1c-1.1,2-1.8,4.3-2.3,6.6c-0.5,2.3-0.7,4.7-0.8,7.1l-1.2,0
			c-0.1-4.9,0.3-10,2.6-14.6c1.1-2.3,2.8-4.4,4.9-6c2.1-1.6,4.5-2.7,6.9-3.4c2.4-0.8,4.9-1.2,7.3-1.5c2.3-0.3,4.6-0.9,6.7-1.7
			c4.3-1.7,7.8-4.7,9.7-8.8c1.9-4.1,2.2-8.8,1.8-13.4c0-0.6-0.1-1.2-0.2-1.7c-0.1-0.6-0.2-1.3-0.2-1.9c-0.1-1.3-0.1-2.6,0.1-4
			c0.3-2.7,1.2-5.4,2.9-7.7c1.7-2.3,4.2-4,6.9-4.8c2.7-0.8,5.6-0.8,8.3-0.1c2.7,0.8,5.2,2.4,7,4.7c1.8,2.3,2.6,5.3,2.6,8
			c0,5.6-2.7,10.5-5.2,14.6c-2.4,4.1-4.5,8.4-5.2,12.8c-0.3,2.2-0.3,4.4,0.5,6.1c0.7,1.7,2.2,2.7,3.8,2.5c0.7-0.1,1.5-0.5,2-1.1
			c0.3-0.3,0.5-0.7,0.6-1.1c0-0.1,0.1-0.2,0.1-0.3l0.1-0.4c0.1-0.3,0.2-0.6,0.3-1c0.5-1.3,1.1-2.6,2-3.7c0.9-1.1,2.1-2.1,3.5-2.8
			c1.4-0.6,3-0.9,4.5-0.7c1.5,0.2,3,0.8,4.2,1.7c1.2,0.9,2.2,2.2,2.7,3.7C503,632.9,503,634.5,502.8,635.9z M505.6,609.3
			c-2.4,0-4.3-1.9-4.3-4.3s1.9-4.3,4.3-4.3s4.3,1.9,4.3,4.3S508,609.3,505.6,609.3z M509.9,593.1c-4.7,0-8.5-3.8-8.5-8.5
			s3.8-8.5,8.5-8.5s8.5,3.8,8.5,8.5S514.6,593.1,509.9,593.1z M545.7,395.6c-2.8,3.2-5.5,6.3-8.1,9.6c-0.7,0.8-1.3,1.6-1.9,2.4
			c-0.6,0.8-1.3,1.6-1.9,2.5c-0.6,0.8-1.2,1.7-1.8,2.5c-0.6,0.8-1.2,1.7-1.8,2.5c-2.3,3.4-4.6,6.9-6.7,10.4
			c-2.2,3.5-4.2,7.2-6.4,10.8c-0.1,0.2-0.4,0.3-0.7,0.2c-0.2-0.1-0.3-0.3-0.2-0.5c0.9-4.2,2.4-8.2,4.3-12.1c1.9-3.9,4.1-7.6,6.6-11
			c1.2-1.8,2.6-3.4,4-5.1c1.4-1.7,2.8-3.2,4.3-4.7c3-3,6.2-5.9,9.7-8.3c0.3-0.2,0.7-0.1,0.8,0.2
			C545.9,395.1,545.9,395.4,545.7,395.6z M575.6,376.1L575.6,376.1c-1.5,1.2-3,2.2-4.5,3.3c-1.5,1-3.1,2-4.6,2.9
			c-1.6,1-3.1,1.8-4.8,2.7c-1.7,0.8-3.4,1.5-5.3,2l0,0c-0.3,0.1-0.6-0.1-0.6-0.4c0-0.1,0-0.3,0.1-0.4c1.1-1.6,2.5-3,3.9-4.2
			c1.5-1.2,3.1-2.2,4.7-3.1c1.7-0.9,3.4-1.7,5.1-2.4c1.8-0.6,3.6-1.2,5.6-1.4c0.3,0,0.7,0.2,0.7,0.5
			C575.8,375.8,575.7,376,575.6,376.1z" style="fill:#FF3A00;"/>
	</g>
	<g>
		<path d="M574.4,345.5c4.5,1.4,7.8,1.8,10.1,1c4.1-1.4,5.4-6.7,5.8-17.2c-7.4-3.1-17.3-5.7-22.5-6.6
			C567.2,331.8,562.6,342,574.4,345.5z" style="fill:#F8F9F8;"/>
		<path d="M594.7,331l-4.4-1.6c0,0,0.3,16.3-5.8,17.2c-6.1,0.9,0,0,0,0s3.4-0.6,5.8-2
			C592.7,343.1,594.5,340.1,594.7,331z" style="fill:#04294F;"/>
	</g>
</g>
</svg>
