<?xml version="1.0" encoding="UTF-8"?><svg version="1.1" xmlns="http://www.w3.org/2000/svg" xmlns:xlink="http://www.w3.org/1999/xlink" viewBox="0 0 1200 800" width="1200" height="800" x="0px" y="0px">
              
              <!-- ITEM 0 -->
<g transform="translate(560.0 219.0) scale(0.2988035998719413 0.2987234042553191) rotate(0.0 632.5225 587.5)">
<g transform="translate(-0.0 -0.0)">

<g>
	<path style="fill:#00AEE0;" d="M1186.592,771.907c0,0-49.822,22.149-50.826,23.153c-0.451,0.451-2.817,7.589-5.286,15.312   C863.34,749.473,607.379,701.947,395.919,693.243c-14.308-0.582-28.175,4.796-38.55,14.649   C281.272,780.076,169.193,855.17,39.133,930.183L0.101,908.128c0,0-1.003,27.132,3.311,51.936   c2.99,17.198,8.549,33.272,18.783,38.409c2.208,1.124,4.616,1.727,7.265,1.727c261.303,31.908,520.961,97.208,755.353,170.877   c29.841,9.391,62.431,1.626,84.887-20.148l314.483-304.891c2.709-2.631,4.111-5.892,4.406-9.188   C1193.282,817.206,1186.592,778.446,1186.592,771.907z"/>
	<path style="fill:#10294C;" d="M1175.262,758.929C891.297,692.927,617.693,640.245,393.91,631.04   c-14.305-0.588-28.165,4.782-38.553,14.635c-80.235,76.103-200.434,155.428-339.54,234.49   c-26.064,14.814-18.12,54.198,11.638,57.832c261.304,31.906,520.955,97.211,755.35,170.876c29.849,9.381,62.426,1.63,84.89-20.149   l314.49-304.902C1190.551,775.711,1186.611,761.567,1175.262,758.929z"/>
	<g>
		<path style="fill:#00AEE0;" d="M361.277,51.348L361.277,51.348c3.211-8.83,11.84-14.449,21.272-14.047    c89.503,4.616,412.795,26.69,787.06,120.206c9.031,2.207,15.452,10.034,16.255,19.064c5.218,65.421,23.078,328.711,1.003,575.345    c-0.803,9.833-8.429,17.86-18.262,19.265c-1.806,0-3.411,0.201-5.218,0.201c-1.003,0-2.007-0.201-3.01-0.401    c-330.116-77.863-691.136-117.999-781.04-127.431c-11.639-1.204-20.269-11.639-19.064-23.279c21.473-236.6,5.82-483.233,0-559.893    C359.872,57.368,360.273,54.358,361.277,51.348z M1150.143,697.331c13.245-196.865,3.411-394.132-2.81-485.441    c-0.803-10.837-8.428-19.867-18.864-22.476C823.037,115.766,555.734,89.878,430.711,81.048    c-13.646-1.003-25.486,9.432-26.49,23.078c0,1.003,0,2.207,0,3.211c6.02,98.332,13.646,286.167,0,473.601    c-1.003,13.245,8.83,25.085,22.075,26.49c129.438,14.449,416.006,50.37,693.745,112.179c13.446,3.01,26.69-5.418,29.7-18.864    C1149.942,699.74,1150.143,698.535,1150.143,697.331z"/>
		<path style="fill:#FFFFFF;" d="M731.729,665.624c5.017-0.602,10.235-0.602,15.252-0.201c5.017,0.401,10.034,0.803,15.051,1.605    c5.017,0.803,9.833,1.806,14.85,3.01s9.833,2.81,14.449,4.816c2.609,1.204,3.612,4.014,2.609,6.622    c-0.803,1.605-2.207,2.81-4.014,3.01l0,0c-5.017,0.401-10.235,0.602-15.252,0.201c-5.017-0.401-10.034-1.003-15.051-1.605    c-5.017-0.602-9.833-1.806-14.85-3.01c-5.017-1.204-9.833-2.81-14.449-5.017l0,0c-2.408-1.003-3.411-3.813-2.408-6.422    C728.719,666.828,730.123,665.825,731.729,665.624L731.729,665.624z"/>
		<path style="fill:#10294C;" d="M1253.693,139.446c5.017,65.421,22.476,331.521,0.602,578.154    c-2.81,31.707-41.139,51.574-85.69,53.782c9.833-1.405,17.258-9.432,18.262-19.265c21.874-246.634,4.014-509.924-1.003-575.345    c-0.803-9.231-7.224-16.857-16.255-19.064C795.344,64.191,472.051,42.117,382.548,37.501c-9.432-0.401-17.86,5.218-21.272,13.847    c12.241-41.139,57.595-52.979,89.302-51.173c89.503,4.616,412.795,26.69,786.86,120.206    C1246.469,122.589,1253.091,130.214,1253.693,139.446z"/>
		<path style="fill:#10294C;" d="M1147.334,211.89c6.221,91.108,16.054,288.375,2.81,485.441    c-1.003,13.646-12.844,24.081-26.49,23.078c-1.204,0-2.408-0.201-3.612-0.602c-277.739-61.809-564.107-97.73-693.745-112.179    c-13.245-1.405-23.078-13.044-22.075-26.49c13.646-187.434,6.02-375.268,0-473.601c-0.803-13.646,9.633-25.486,23.279-26.289    c1.003,0,2.207,0,3.211,0c124.822,8.83,392.125,34.717,697.759,108.366C1138.905,192.224,1146.531,201.255,1147.334,211.89z"/>
		<path style="fill:#00AEE0;" d="M1197.102,151.486c2.007-3.01,4.415-5.619,7.224-7.626c2.81-2.007,5.619-3.813,8.83-5.218    c3.211-1.405,6.422-2.408,9.833-3.01c3.412-0.602,7.024-0.602,10.435,0c2.81,0.602,4.616,3.211,4.214,6.02    c-0.201,1.204-1.003,2.408-2.007,3.211l-0.401,0.201c-2.408,1.806-5.017,3.211-7.827,4.616c-2.609,1.405-5.218,2.609-7.826,3.612    c-2.609,1.003-5.418,2.207-8.228,3.211c-2.81,1.003-5.82,1.806-8.83,2.408l-0.602,0.201c-2.609,0.401-5.218-1.405-5.619-4.014    C1196.299,153.694,1196.5,152.49,1197.102,151.486L1197.102,151.486z"/>
	</g>
	<g>
		<g>
			<path style="fill:#00AEE0;" d="M401.054,683.34c-4.255-0.75-8.699-1.222-12.285-0.57c-5.328,0.967-7.834,4.222-10.22,6.116     c-4.784,3.827-9.75,7.631-14.629,11.442c-2.871,2.25-5.838,4.749-4.507,7.023c1.434,2.486,7.442,3.796,13.194,4.81     c0.34,0.06,0.679,0.119,1.016,0.177c10.08,1.736,20.175,3.474,30.279,5.206c4.164,0.718,8.76,1.445,13.446,0.864     c6.496-0.811,10.194-3.706,12.958-6.258c5.323-4.873,10.631-9.749,15.938-14.624c1.539-1.411,3.114-2.981,2.08-4.346     c-1.071-1.401-4.567-2.13-7.89-2.716c-0.147-0.026-0.292-0.051-0.438-0.077c-9.38-1.621-18.76-3.241-28.115-4.866     c-0.082-0.014-0.165-0.028-0.249-0.043c-1.388-0.245-3.031-0.598-4.792-0.979C405.027,684.11,403.062,683.694,401.054,683.34"/>
			<path style="fill:#00AEE0;" d="M500.397,700.857c-4.25-0.749-8.693-1.221-12.28-0.569c-5.328,0.967-7.85,4.219-10.22,6.116     c-4.8,3.825-9.75,7.631-14.629,11.442c-2.871,2.25-5.853,4.746-4.523,7.021c1.449,2.488,7.444,3.796,13.194,4.81     c0.34,0.06,0.678,0.119,1.015,0.177c10.095,1.738,20.191,3.477,30.295,5.209c4.164,0.718,8.76,1.445,13.43,0.861     c6.512-0.808,10.194-3.706,12.974-6.255c5.308-4.876,10.615-9.751,15.923-14.627c1.539-1.411,3.114-2.981,2.08-4.346     c-1.071-1.401-4.567-2.13-7.889-2.716c-0.147-0.026-0.292-0.051-0.438-0.077c-9.38-1.621-18.744-3.238-28.115-4.866     c-0.082-0.014-0.165-0.028-0.248-0.043c-1.386-0.244-3.016-0.595-4.792-0.979C504.365,701.626,502.402,701.211,500.397,700.857"/>
			<path style="fill:#00AEE0;" d="M599.729,718.372c-4.25-0.749-8.693-1.221-12.28-0.569c-5.328,0.967-7.834,4.222-10.22,6.116     c-4.784,3.827-9.75,7.631-14.629,11.442c-2.871,2.25-5.838,4.749-4.507,7.023c1.434,2.486,7.442,3.796,13.194,4.81     c0.34,0.06,0.679,0.119,1.016,0.177c10.08,1.736,20.175,3.474,30.279,5.206c4.164,0.718,8.76,1.445,13.446,0.864     c6.496-0.811,10.194-3.706,12.958-6.258c5.323-4.873,10.631-9.749,15.938-14.624c1.524-1.413,3.115-2.981,2.08-4.346     c-1.086-1.404-4.568-2.13-7.89-2.716c-0.147-0.026-0.292-0.051-0.438-0.077c-9.38-1.621-18.759-3.241-28.13-4.869     c-0.082-0.014-0.165-0.028-0.249-0.043c-1.386-0.244-3.016-0.595-4.792-0.979C603.697,719.141,601.734,718.726,599.729,718.372"/>
			<path style="fill:#00AEE0;" d="M699.077,735.89c-4.25-0.749-8.693-1.221-12.28-0.569c-5.328,0.967-7.85,4.219-10.22,6.116     c-4.8,3.825-9.75,7.631-14.629,11.442c-2.871,2.25-5.853,4.746-4.523,7.021c1.449,2.488,7.444,3.796,13.194,4.81     c0.34,0.06,0.678,0.119,1.016,0.177c10.095,1.738,20.191,3.477,30.279,5.206c4.164,0.718,8.775,1.447,13.446,0.864     c6.512-0.808,10.194-3.706,12.974-6.255c5.308-4.876,10.615-9.751,15.923-14.627c1.539-1.411,3.114-2.981,2.08-4.346     c-1.071-1.401-4.567-2.13-7.889-2.716c-0.147-0.026-0.292-0.051-0.438-0.077c-9.38-1.621-18.744-3.238-28.115-4.866     c-0.082-0.014-0.165-0.028-0.248-0.043c-1.386-0.244-3.016-0.595-4.792-0.979C703.045,736.659,701.082,736.243,699.077,735.89"/>
			<path style="fill:#00AEE0;" d="M798.409,753.405c-4.25-0.749-8.693-1.221-12.28-0.569c-5.328,0.967-7.834,4.222-10.22,6.116     c-4.784,3.827-9.75,7.631-14.629,11.442c-2.871,2.25-5.837,4.749-4.507,7.023c1.434,2.486,7.442,3.796,13.194,4.81     c0.34,0.06,0.679,0.119,1.016,0.177c10.08,1.736,20.175,3.474,30.279,5.206c4.164,0.718,8.76,1.445,13.446,0.864     c6.496-0.811,10.194-3.706,12.958-6.258c5.308-4.876,10.631-9.749,15.939-14.624c1.524-1.413,3.114-2.981,2.08-4.346     c-1.086-1.404-4.568-2.13-7.903-2.718c-0.147-0.026-0.294-0.052-0.44-0.077c-9.364-1.618-18.744-3.238-28.115-4.866     c-0.082-0.014-0.165-0.028-0.249-0.043c-1.386-0.244-3.016-0.595-4.792-0.979C802.377,754.174,800.414,753.758,798.409,753.405"/>
			<path style="fill:#00AEE0;" d="M897.757,770.922c-4.25-0.749-8.693-1.221-12.28-0.569c-5.328,0.967-7.85,4.219-10.22,6.116     c-4.8,3.825-9.766,7.628-14.629,11.442c-2.871,2.25-5.853,4.746-4.523,7.021c1.449,2.488,7.444,3.796,13.194,4.81     c0.34,0.06,0.678,0.119,1.016,0.177c10.095,1.738,20.191,3.477,30.279,5.206c4.164,0.718,8.775,1.447,13.446,0.864     c6.496-0.811,10.194-3.706,12.974-6.255c5.308-4.876,10.615-9.751,15.923-14.627c1.539-1.411,3.114-2.981,2.08-4.346     c-1.071-1.401-4.567-2.13-7.89-2.716c-0.147-0.026-0.292-0.051-0.438-0.077c-9.38-1.621-18.744-3.238-28.115-4.866     c-0.082-0.014-0.165-0.028-0.249-0.043c-1.386-0.244-3.016-0.595-4.792-0.979C901.725,771.691,899.762,771.276,897.757,770.922"/>
			<path style="fill:#00AEE0;" d="M997.089,788.437c-4.25-0.749-8.694-1.221-12.28-0.569c-5.328,0.967-7.834,4.222-10.22,6.116     c-4.784,3.827-9.75,7.631-14.629,11.442c-2.871,2.25-5.838,4.749-4.507,7.023c1.434,2.486,7.428,3.793,13.192,4.809     c0.341,0.06,0.68,0.119,1.018,0.177c10.08,1.736,20.175,3.474,30.279,5.206c4.164,0.718,8.76,1.445,13.446,0.864     c6.496-0.811,10.193-3.706,12.958-6.258c5.308-4.876,10.631-9.749,15.939-14.624c1.524-1.413,3.115-2.981,2.08-4.346     c-1.086-1.404-4.568-2.13-7.903-2.718c-0.147-0.026-0.293-0.052-0.44-0.077c-9.364-1.618-18.744-3.238-28.115-4.866     c-0.082-0.014-0.165-0.028-0.249-0.043c-1.386-0.244-3.016-0.595-4.792-0.979C1001.057,789.206,999.094,788.791,997.089,788.437"/>
			<path style="fill:#00AEE0;" d="M295.639,765.889c-4.25-0.749-8.693-1.221-12.28-0.57c-5.328,0.967-7.85,4.219-10.22,6.116     c-4.8,3.825-9.75,7.631-14.629,11.442c-2.871,2.25-5.846,4.756-4.531,7.027c1.457,2.482,7.452,3.789,13.202,4.803     c0.34,0.06,0.679,0.119,1.017,0.177c10.095,1.738,20.191,3.477,30.286,5.215c4.164,0.718,8.769,1.438,13.455,0.857     c6.496-0.811,10.178-3.709,12.958-6.258c5.308-4.876,10.615-9.751,15.93-14.618c1.533-1.42,3.123-2.988,2.08-4.346     c-1.078-1.41-4.56-2.137-7.895-2.725c-0.147-0.026-0.293-0.051-0.439-0.077c-9.364-1.618-18.744-3.238-28.115-4.866     c-0.082-0.014-0.165-0.028-0.249-0.043c-1.386-0.244-3.016-0.595-4.792-0.979C299.607,766.658,297.644,766.243,295.639,765.889"/>
			<path style="fill:#00AEE0;" d="M394.977,783.405c-4.254-0.75-8.694-1.221-12.27-0.568c-5.328,0.967-7.85,4.219-10.22,6.116     c-4.8,3.825-9.766,7.628-14.629,11.442c-2.887,2.247-5.862,4.753-4.532,7.027c1.457,2.482,7.452,3.789,13.202,4.803     c0.34,0.06,0.679,0.119,1.017,0.177c10.095,1.738,20.191,3.477,30.27,5.213c4.164,0.718,8.768,1.438,13.455,0.857     c6.496-0.811,10.194-3.706,12.974-6.255c5.308-4.876,10.615-9.751,15.914-14.62c1.548-1.417,3.123-2.988,2.08-4.346     c-1.063-1.407-4.558-2.136-7.881-2.722c-0.146-0.026-0.292-0.051-0.438-0.077c-9.38-1.621-18.759-3.241-28.115-4.866     c-0.082-0.014-0.165-0.028-0.249-0.043c-1.388-0.245-3.031-0.598-4.792-0.979C398.95,784.175,396.984,783.759,394.977,783.405"/>
			<path style="fill:#00AEE0;" d="M494.319,800.922c-4.25-0.749-8.693-1.221-12.28-0.57c-5.328,0.967-7.85,4.219-10.22,6.116     c-4.8,3.825-9.75,7.631-14.629,11.442c-2.871,2.25-5.846,4.756-4.532,7.027c1.457,2.482,7.452,3.789,13.202,4.803     c0.34,0.06,0.679,0.119,1.017,0.177c9.043,1.553,236.953,41.706,291.901,51.354c1.683,0.39,3.484,0.733,5.26,1.046     c0.29,0.051,0.579,0.101,0.867,0.151c10.095,1.738,20.175,3.474,30.27,5.213c4.164,0.718,8.768,1.438,13.455,0.857     c6.496-0.811,10.194-3.706,12.974-6.255c5.308-4.876,10.615-9.751,15.914-14.62c1.548-1.417,3.123-2.988,2.08-4.346     c-1.063-1.407-4.558-2.136-7.881-2.722c-0.146-0.026-0.292-0.051-0.437-0.077c-7.062-1.22-14.109-2.438-21.156-3.655     c-1.185-0.276-2.449-0.507-3.689-0.725c-0.731-0.121-3.118-0.542-6.887-1.206c-2.174-0.462-4.632-1.004-7.159-1.45     c-1.727-0.305-3.486-0.564-5.209-0.722c-65.484-11.522-274.006-48.265-282.042-49.657c-0.082-0.014-0.165-0.028-0.249-0.043     c-1.386-0.244-3.016-0.595-4.792-0.979C498.287,801.691,496.324,801.275,494.319,800.922"/>
			<path style="fill:#FFFFFF;" d="M389.844,862.061c-3.287-0.58-7.389-0.433-12.911,2.169c-8.173,3.846-18.021,12.392-24.819,17.638     c-13.678,10.569-27.499,21.128-41.248,31.693c-8.108,6.23-16.872,13.094-20.207,18.176c-3.634,5.536,0.426,6.968,4.86,7.75     c0.275,0.049,0.552,0.095,0.828,0.139c7.072,1.139,183.228,32.1,225.762,39.492c1.086,0.445,2.402,0.746,3.749,0.984     c0.245,0.043,0.49,0.084,0.735,0.124c7.882,1.273,15.78,2.549,23.671,3.816c3.257,0.524,6.991,0.95,13.607-1.797     c9.212-3.813,19.637-11.841,28.289-18.766c16.521-13.239,33.017-26.475,49.538-39.714c4.802-3.841,9.964-8.059,11.682-11.037     c1.741-3.029-0.626-3.793-3.161-4.24c-0.148-0.026-0.296-0.051-0.444-0.075c-5.496-0.911-10.985-1.812-16.49-2.716     c-0.618-0.266-1.382-0.44-2.174-0.58c-0.175-0.031-0.351-0.06-0.527-0.088c-0.566-0.1-2.412-0.417-5.342-0.925     c-1.502-0.492-3.166-1.09-5.118-1.434c-1.335-0.235-2.804-0.352-4.448-0.237c-50.649-8.856-211.812-37.198-218.079-38.228     c-0.044-0.007-0.088-0.015-0.132-0.022c-1.077-0.19-2.205-0.581-3.434-0.989C392.777,862.774,391.402,862.336,389.844,862.061"/>
			<path style="fill:#00AEE0;" d="M891.679,870.987c-4.25-0.749-8.693-1.221-12.28-0.57c-5.328,0.967-7.85,4.219-10.22,6.116     c-4.8,3.825-9.75,7.631-14.629,11.442c-2.871,2.25-5.846,4.756-4.532,7.027c1.457,2.482,7.452,3.789,13.202,4.803     c0.34,0.06,0.679,0.119,1.016,0.177c10.095,1.738,20.191,3.477,30.286,5.215c4.164,0.718,8.769,1.438,13.439,0.854     c6.512-0.808,10.194-3.706,12.974-6.255c5.308-4.876,10.615-9.751,15.914-14.62c1.548-1.417,3.123-2.988,2.08-4.346     c-1.063-1.408-4.558-2.136-7.881-2.722c-0.146-0.026-0.292-0.051-0.437-0.077c-9.38-1.621-18.744-3.238-28.115-4.866     c-0.082-0.014-0.165-0.028-0.249-0.043c-1.386-0.244-3.016-0.595-4.792-0.979C895.647,871.756,893.684,871.341,891.679,870.987"/>
			<path style="fill:#00AEE0;" d="M403.712,732.885c-4.246-0.749-8.681-1.216-12.253-0.567c-5.312,0.97-7.834,4.222-10.204,6.119     c-4.809,3.831-9.766,7.628-14.629,11.442c-2.887,2.247-5.862,4.753-4.523,7.021c1.449,2.488,7.444,3.796,13.194,4.81     c0.34,0.06,0.679,0.119,1.015,0.177c10.095,1.738,20.175,3.474,30.27,5.213c4.164,0.718,8.768,1.438,13.455,0.857     c6.496-0.811,10.194-3.706,12.974-6.255c5.308-4.876,10.615-9.751,15.923-14.627c1.539-1.41,3.114-2.981,2.071-4.339     c-1.063-1.408-4.558-2.136-7.881-2.722c-0.146-0.026-0.292-0.051-0.437-0.077c-9.38-1.621-18.759-3.241-28.124-4.859     c-0.074-0.013-0.148-0.026-0.224-0.039c-1.389-0.245-3.006-0.601-4.785-0.978C407.727,733.665,405.741,733.243,403.712,732.885"/>
			<path style="fill:#00AEE0;" d="M503.048,750.401c-4.241-0.748-8.669-1.214-12.241-0.565c-5.328,0.967-7.85,4.219-10.22,6.116     c-4.809,3.831-9.75,7.631-14.629,11.442c-2.871,2.25-5.846,4.756-4.523,7.021c1.449,2.488,7.444,3.796,13.194,4.81     c0.34,0.06,0.679,0.119,1.016,0.177c10.095,1.738,20.191,3.477,30.286,5.215c4.164,0.718,8.769,1.438,13.454,0.857     c6.496-0.811,10.178-3.709,12.958-6.258c5.308-4.876,10.615-9.751,15.923-14.627c1.539-1.41,3.114-2.981,2.087-4.336     c-1.078-1.41-4.56-2.137-7.895-2.725c-0.147-0.026-0.293-0.052-0.439-0.077c-9.364-1.618-18.744-3.238-28.124-4.859     c-0.074-0.013-0.149-0.026-0.224-0.039c-1.389-0.245-3.006-0.601-4.785-0.978C507.06,751.18,505.075,750.758,503.048,750.401"/>
			<path style="fill:#00AEE0;" d="M602.393,767.918c-4.246-0.749-8.681-1.216-12.253-0.567c-5.312,0.97-7.834,4.222-10.22,6.116     c-4.793,3.834-9.75,7.631-14.613,11.444c-2.887,2.247-5.862,4.753-4.523,7.021c1.449,2.488,7.444,3.796,13.194,4.81     c0.34,0.06,0.679,0.119,1.016,0.177c10.095,1.738,20.175,3.474,30.27,5.213c4.164,0.718,8.768,1.438,13.455,0.857     c6.496-0.811,10.194-3.706,12.974-6.255c5.308-4.876,10.615-9.751,15.923-14.627c1.539-1.41,3.114-2.981,2.071-4.339     c-1.063-1.408-4.558-2.136-7.881-2.722c-0.146-0.026-0.292-0.051-0.438-0.077c-9.38-1.621-18.759-3.241-28.124-4.859     c-0.074-0.013-0.148-0.026-0.224-0.039c-1.389-0.245-3.005-0.601-4.785-0.978C606.407,768.698,604.421,768.276,602.393,767.918"/>
			<path style="fill:#00AEE0;" d="M701.728,785.434c-4.241-0.748-8.669-1.214-12.241-0.565c-5.328,0.967-7.85,4.219-10.22,6.116     c-4.809,3.831-9.75,7.631-14.629,11.442c-2.871,2.25-5.846,4.756-4.523,7.021c1.449,2.488,7.444,3.796,13.194,4.81     c0.34,0.06,0.679,0.119,1.016,0.177c10.095,1.738,20.19,3.477,30.286,5.215c4.164,0.718,8.769,1.438,13.439,0.854     c6.512-0.808,10.194-3.706,12.973-6.255c5.308-4.876,10.615-9.751,15.923-14.627c1.539-1.41,3.114-2.981,2.071-4.339     c-1.063-1.408-4.544-2.134-7.879-2.722c-0.147-0.026-0.293-0.052-0.439-0.077c-9.38-1.621-18.744-3.238-28.124-4.859     c-0.074-0.013-0.149-0.026-0.224-0.039c-1.389-0.245-3.006-0.601-4.785-0.978C705.74,786.213,703.755,785.791,701.728,785.434"/>
			<path style="fill:#00AEE0;" d="M801.072,802.951c-4.246-0.749-8.681-1.216-12.253-0.567c-5.312,0.97-7.834,4.222-10.22,6.116     c-4.793,3.834-9.75,7.631-14.613,11.444c-2.887,2.247-5.862,4.753-4.523,7.021c1.434,2.486,7.442,3.796,13.194,4.81     c0.34,0.06,0.679,0.119,1.016,0.177c10.095,1.738,20.175,3.474,30.27,5.213c4.164,0.718,8.768,1.438,13.455,0.857     c6.496-0.811,10.194-3.706,12.973-6.255c5.308-4.876,10.615-9.751,15.923-14.627c1.539-1.41,3.114-2.981,2.071-4.339     c-1.063-1.408-4.558-2.136-7.881-2.722c-0.146-0.026-0.292-0.051-0.437-0.077c-9.38-1.621-18.76-3.241-28.124-4.859     c-0.074-0.013-0.149-0.026-0.224-0.039c-1.389-0.245-3.005-0.601-4.785-0.978C805.087,803.73,803.102,803.308,801.072,802.951"/>
			<path style="fill:#00AEE0;" d="M900.408,820.466c-4.241-0.748-8.669-1.214-12.241-0.565c-5.328,0.967-7.85,4.219-10.22,6.116     c-4.809,3.831-9.75,7.631-14.629,11.442c-2.871,2.25-5.862,4.753-4.523,7.021c1.449,2.488,7.444,3.796,13.194,4.81     c0.34,0.06,0.679,0.119,1.016,0.177c10.095,1.738,20.191,3.477,30.286,5.215c4.164,0.718,8.768,1.438,13.439,0.854     c6.512-0.808,10.194-3.706,12.974-6.255c5.308-4.876,10.615-9.751,15.923-14.627c1.539-1.41,3.114-2.981,2.071-4.339     c-1.063-1.408-4.558-2.136-7.881-2.722c-0.146-0.026-0.292-0.051-0.437-0.077c-9.38-1.621-18.744-3.238-28.123-4.859     c-0.074-0.013-0.149-0.026-0.224-0.039c-1.389-0.245-3.005-0.601-4.785-0.978C904.42,821.245,902.435,820.824,900.408,820.466"/>
			<path style="fill:#00AEE0;" d="M999.753,837.983c-4.246-0.749-8.681-1.216-12.253-0.567c-5.312,0.97-7.834,4.222-10.22,6.116     c-4.793,3.834-9.75,7.631-14.629,11.442c-2.871,2.25-5.846,4.756-4.507,7.023c1.434,2.486,7.442,3.796,13.194,4.81     c0.34,0.06,0.679,0.119,1.016,0.177c10.08,1.736,20.175,3.474,30.27,5.213c4.164,0.718,8.768,1.438,13.455,0.857     c6.496-0.811,10.194-3.706,12.958-6.258c5.323-4.873,10.631-9.749,15.939-14.624c1.539-1.41,3.114-2.981,2.071-4.339     c-1.063-1.408-4.558-2.136-7.881-2.722c-0.146-0.026-0.292-0.051-0.437-0.077c-9.38-1.621-18.76-3.241-28.124-4.859     c-0.074-0.013-0.149-0.026-0.224-0.039c-1.389-0.245-3.006-0.601-4.785-0.978C1003.767,838.763,1001.781,838.341,999.753,837.983     "/>
		</g>
	</g>
</g>

</g>
</g>

<!-- ITEM 1 -->
<g transform="translate(695.0 300.0) scale(0.4552772740336804 0.4576300783390437) rotate(7.413792367843571 196.58349999999996 83.0365)">
<g transform="translate(-0.0 -0.0)">
<title>graduation_cap</title><g id="Layer_2-i1" data-name="Layer 2"><g id="graduation_cap-i1"><path d="M383.344,83.879c14.32,7.549,10.021,17.536,5.5,21.581A6.488,6.488,0,0,0,387.2,95.05c-47.766-24.306-114.421-70.413-131.94-82.684a6.511,6.511,0,0,0-8.142.559c-35.9,33.226-101.134,69.752-125.457,82.836a6.558,6.558,0,0,0-1.032,10.816c-7.481-5.247-13.592-16.435-2.844-22s30.061-16.249,51.05-29.147c3.6-2.217,7.278-4.5,10.951-6.855C202.556,34.1,226.2,17.5,243.246,1.7a6.487,6.487,0,0,1,8.108-.524C268.906,13.517,335.765,59.251,383.344,83.879Z" fill="#fff"/><path d="M387.254,95.1C339.489,70.8,272.833,24.688,255.315,12.417a6.511,6.511,0,0,0-8.142.558C211.273,46.2,146.039,82.728,121.716,95.812a6.559,6.559,0,0,0-1.032,10.816l.44.44c17.417,11.764,63.388,36.117,75.659,43.446,20.613-.611,115.994-.356,118.888,0,18.636-10.342,61.377-35.051,72.853-44.665a4.322,4.322,0,0,0,.406-.406A6.487,6.487,0,0,0,387.254,95.1Z" fill="#ffffff"/><path d="M179.841,48.622c-3.673,2.353-7.346,4.638-10.951,6.855C118.009,7.677,59.157,135.318,0,90.65c12.745,2.589,24.712-6.229,24.712-6.229C9.851,76.093,3.25,59.573,3.25,59.573,58.006,99.705,119.414-11.8,179.841,48.622Z" fill="#ffb400"/><path d="M186.814,114.736a62.292,62.292,0,0,1-1.337-13.017,61.41,61.41,0,0,1,.237-6.533,10.261,10.261,0,0,1,.271-1.862,8.168,8.168,0,0,1,.694-2.116,9.365,9.365,0,0,1,1.016-1.862,10.2,10.2,0,0,1,1.269-1.608,22.646,22.646,0,0,1,5.823-4.536,55.95,55.95,0,0,1,6.195-2.979,89.29,89.29,0,0,1,12.694-3.961A187.682,187.682,0,0,1,239.3,72.1c4.3-.406,8.581-.727,12.9-.947s8.65-.22,13.084-.051a146.214,146.214,0,0,1,26,3.859,127.973,127.973,0,0,1,24.932,8.412,51.871,51.871,0,0,1,11.7,7.431,21.08,21.08,0,0,1,4.858,6.009c.305.609.575,1.286.829,1.946a20.584,20.584,0,0,1,.559,2.116c.186,1.134.338,2.268.423,3.4a64.848,64.848,0,0,1-3.859,25.965,1.292,1.292,0,0,1-1.627.834l-.015-.005a1.34,1.34,0,0,1-.982-1.32h0a82.916,82.916,0,0,0-.406-24.441c-.186-.965-.44-1.9-.626-2.759l-.372-.914-.542-.914a15.418,15.418,0,0,0-3.47-3.47,44.586,44.586,0,0,0-10.19-5.315A150.884,150.884,0,0,0,288.93,85.3c-4.011-.863-8.091-1.625-12.136-2.251a108.111,108.111,0,0,0-12.085-1.456,264.227,264.227,0,0,0-49.323,3.148,103.974,103.974,0,0,0-11.832,2.725,45.335,45.335,0,0,0-5.433,2.048,19.161,19.161,0,0,0-4.5,2.776,5.87,5.87,0,0,0-.8.8,2.831,2.831,0,0,0-.609.846,2.388,2.388,0,0,0-.406.847,4.794,4.794,0,0,0-.322,1.235c-.406,2-.694,4.079-1.015,6.06a74.526,74.526,0,0,0-.525,12.3h0a1.58,1.58,0,0,1-1.569,1.591h-.022A1.6,1.6,0,0,1,186.814,114.736Z" fill="#fff"/><rect x="190.799" y="118.199" width="136.442" height="47.875" rx="5.667" fill="#ffffff"/></g></g>
</g>
</g>

<!-- ITEM 2 -->
<g transform="translate(193.0 220.0) scale(0.7274602056323506 0.7278510380065616) rotate(0.0 370.4669999999999 274.7815)">
<g transform="translate(-0.0 -0.0)">
<title>man_1</title><g id="Layer_2-i2" data-name="Layer 2"><g id="man_1-i2"><path d="M563.921,400.174c-2.153-10.066-2.581-20.035-1.223-28.131a33.2,33.2,0,0,1,3.963-11.473c-29.611,6.25-59.369,17.625-59.369,17.625,17.123-102.325-42.736-127.533-85.41-124.39,42.625,55.9-51.994,187.343-51.994,187.343.086-109.358-44.471-162.147-73.7-185.007-38.331,8.782-75.942,41.586-62.488,122.054,0,0-29.758-11.375-59.369-17.625a33.2,33.2,0,0,1,3.963,11.472c1.394,8.048.966,18.017-1.223,28.132-3.021,14.017-9.9,29.88-20.377,35.983,78.5,28.389,111.412,22.677,125.979-.33,1.223,35.164.428,75.123-5.357,113.589l186.437.147c-5.81-38.5-6.641-78.511-5.381-113.748,14.518,23.019,47.419,28.731,125.979.342C573.828,430.054,566.942,414.191,563.921,400.174Zm-280.53,31a.906.906,0,0,1-.991.8.881.881,0,0,1-.783-.7h0c-.44-2.128-.8-4.256-1.149-6.372l-.942-6.372c-.624-4.257-1.125-8.562-1.651-12.745q-1.445-12.745-2.593-25.5c-.783-8.561-1.578-17-2.3-25.526s-1.419-17.062-1.932-25.624h0a1.1,1.1,0,0,1,1.027-1.162,1.089,1.089,0,0,1,1.113.8,249.792,249.792,0,0,1,5.639,25.257q2.214,12.72,3.571,25.575c.905,8.562,1.59,17.124,1.786,25.759A203.234,203.234,0,0,1,283.391,431.179Zm186.914-50.966-.428,6.592-.135,1.639-.195,1.639-.392,3.278-.428,3.266-.208,1.639-.306,1.614-1.223,6.471c-.367,2.165-.941,4.28-1.492,6.409s-1.076,4.244-1.675,6.348-1.321,4.17-2.031,6.237-1.431,4.134-2.2,6.116a1.089,1.089,0,0,1-2.1-.526h0c.562-4.318,1.333-8.562,2.006-12.782.257-2.14.575-4.256.868-6.384s.624-4.232.82-6.36l.709-6.373.183-1.577.111-1.6.244-3.18c.416-4.244.538-8.488.722-12.732.2-8.476.073-16.952-.514-25.4-.183-2.116-.281-4.244-.538-6.348-.11-1.052-.22-2.1-.306-3.168l-.4-3.155c-.526-4.22-1.224-8.464-2.116-12.61V329.2a.893.893,0,0,1,1.651-.636,60.6,60.6,0,0,1,5.063,12.3c.318,1.064.636,2.128.918,3.192s.526,2.153.77,3.229c.551,2.153.869,4.33,1.223,6.507a132.711,132.711,0,0,1,1.407,26.419Z" fill="#04294f"/><path d="M369.913,441.2s94.619-131.447,51.994-187.343a79.045,79.045,0,0,0-23.178,5.064,53.526,53.526,0,0,0,.22,7.339,3.1,3.1,0,0,1,0,.746c19.839,34.406-13.087,99.756-13.087,99.756-6.629-63.393-29.966-92.65-35.568-98.839a6.588,6.588,0,0,1-1.223-1.223h0a4.257,4.257,0,0,1-.159-4.807c.441-.978.844-1.944,1.223-2.935-13.246-5.26-33.721-7.339-54-2.679C325.441,279.05,370,331.851,369.913,441.2Z" fill="#ffb400"/><path d="M398.974,267.027c-.22,6.336-12.525,6.3-24.841,6.3-10.14,0-19.766-1.945-23.814-5.381,5.6,6.188,28.938,35.469,35.568,98.838C385.887,366.734,418.812,301.384,398.974,267.027Z" fill="#fff"/><path d="M147.517,427.938c7.057,0,15.374-12.9,19.056-30.027,3.889-18.089,1.137-34.014-6.116-35.592a6.356,6.356,0,0,0-1.223-.122c-7.057,0-15.362,12.916-19.044,30.039-3.889,18.09-1.137,34.014,6.116,35.58A5.417,5.417,0,0,0,147.517,427.938Z" fill="#04294f"/><path d="M177.116,400.174c2.165-10.066,2.593-20.035,1.223-28.131a33.2,33.2,0,0,0-3.963-11.473,17.894,17.894,0,0,0-11.656-8.843,17.087,17.087,0,0,0-3.449-.355h0c-15.717,0-25.771,20.793-29.587,38.552-2.165,10.066-2.593,20.035-1.223,28.132,2.642,15.313,10.922,19.3,15.619,20.3a16.269,16.269,0,0,0,3.437.367,18.2,18.2,0,0,0,9.222-2.569C167.221,430.054,174.119,414.191,177.116,400.174ZM140.2,392.236c3.669-17.123,11.986-30.039,19.043-30.039a6.356,6.356,0,0,1,1.223.122c7.278,1.578,10.03,17.5,6.116,35.592-3.67,17.123-12,30.027-19.056,30.027a5.465,5.465,0,0,1-1.223-.122c-7.241-1.566-9.993-17.49-6.1-35.58Z" fill="#fff"/><path d="M581.791,362.2a6.367,6.367,0,0,0-1.224.122c-7.338,1.578-10.029,17.5-6.115,35.592,3.669,17.123,12,30.027,19.056,30.027a5.407,5.407,0,0,0,1.223-.122c7.339-1.566,10.042-17.49,6.115-35.58C597.165,375.113,588.848,362.2,581.791,362.2Z" fill="#04294f"/><path d="M611.39,389.973c-3.829-17.759-13.87-38.552-29.6-38.552a17.234,17.234,0,0,0-3.45.355,17.894,17.894,0,0,0-11.656,8.843,33.216,33.216,0,0,0-3.963,11.473c-1.382,8.048-.954,18.016,1.223,28.131,3.021,14.017,9.908,29.88,20.39,35.983a18.18,18.18,0,0,0,9.209,2.569,16.4,16.4,0,0,0,3.45-.367c4.7-1,12.977-4.99,15.619-20.3C613.97,410.008,613.554,400.039,611.39,389.973Zm-16.7,37.843a5.4,5.4,0,0,1-1.223.122c-7.057,0-15.362-12.9-19.056-30.027-3.877-18.089-1.137-34.014,6.116-35.592a6.356,6.356,0,0,1,1.223-.122c7.057,0,15.374,12.916,19.056,30.039C604.736,410.326,601.984,426.25,594.694,427.816Z" fill="#fff"/><path d="M467.663,347.287q-.368-1.614-.77-3.229c-.282-1.064-.6-2.128-.918-3.192a60.635,60.635,0,0,0-5.063-12.305.893.893,0,0,0-1.652.636v.061c.893,4.147,1.59,8.391,2.116,12.611l.4,3.155c.086,1.064.2,2.116.306,3.168.257,2.1.354,4.232.538,6.348.587,8.452.709,16.928.514,25.4-.184,4.244-.306,8.488-.722,12.732l-.245,3.18-.11,1.6-.183,1.578-.71,6.373c-.195,2.128-.513,4.244-.819,6.36s-.612,4.244-.868,6.384c-.673,4.232-1.444,8.464-2.006,12.782h0a1.088,1.088,0,0,0,2.1.526c.771-2.031,1.493-4.1,2.2-6.116s1.419-4.134,2.03-6.238,1.126-4.232,1.676-6.348,1.125-4.244,1.492-6.409l1.223-6.47.306-1.614.208-1.639.428-3.266.391-3.278.2-1.639.135-1.639.428-6.592a132.7,132.7,0,0,0-1.395-26.419C468.519,351.617,468.2,349.44,467.663,347.287Z" fill="#fff"/><path d="M282.4,379.552q-1.333-12.842-3.571-25.575a249.792,249.792,0,0,0-5.639-25.257,1.089,1.089,0,0,0-1.113-.8,1.1,1.1,0,0,0-1.027,1.162h0c.513,8.562,1.223,17.124,1.932,25.624s1.517,17.026,2.3,25.526,1.626,17,2.593,25.5c.526,4.244,1.027,8.488,1.651,12.745l.942,6.372c.354,2.116.709,4.244,1.149,6.372h0a.881.881,0,0,0,.783.7.906.906,0,0,0,.991-.8,203.28,203.28,0,0,0,.795-25.869C283.99,396.676,283.305,388.114,282.4,379.552Z" fill="#fff"/><path d="M355.811,135.96a5.148,5.148,0,0,0-.372,7.272,4.663,4.663,0,0,0,.372.372,1.516,1.516,0,0,0,2.446-1.223v-5.21a1.517,1.517,0,0,0-2.446-1.211Z" fill="none"/><path d="M373.729,148.13a13.376,13.376,0,0,0-3.669-.49,15.6,15.6,0,0,0-1.847.086,10.534,10.534,0,0,0-1.859.4,1.771,1.771,0,0,0-.918.7,1.323,1.323,0,0,0,.918,1.908,8.677,8.677,0,0,0,1.859.391,13.1,13.1,0,0,0,1.847.1,13.867,13.867,0,0,0,3.669-.489,1.749,1.749,0,0,0,1.015-.783A1.289,1.289,0,0,0,373.729,148.13Z" fill="none"/><path d="M484.248,207.474h-4.819c-9.968.086-32.473.343-53.816.343-17.124,0-22.42-7.51-24.046-16.9h0a65.341,65.341,0,0,1-.71-10.923,5.2,5.2,0,0,1,5.2-5.2h78.18c9.491,0,9.785-14.3-.587-14.3.245-3.412.44-6.959.587-10.592.856-19.325.538-32.339.538-32.339,0-8.133-.159-15.9-.342-22.529-.318-13.344-.783-22.53-.783-22.53-44.692,0-66.047,24.854-95.916,34.039-.746.233-1.467.453-2.226.661-8.463,3.057-10.066,11.362-10.151,33.574a2.533,2.533,0,0,1-1.884,2.446,14.5,14.5,0,0,1-3.449.367,13.505,13.505,0,0,1-3.669-.428,2.446,2.446,0,0,1-1.8-2.446V128.034c0-2.446-18-6.115-18,12.231,0,8.024,3.5,11.314,7.448,12.463,0,0,13.344,42.418,2.141,87.721a135.454,135.454,0,0,1-5.993,18.432c-.4.991-.808,1.957-1.224,2.936a4.258,4.258,0,0,0,.159,4.807h0s.514.5,1.224,1.223c4.048,3.437,13.674,5.381,23.813,5.381,12.317,0,24.621,0,24.841-6.3a3,3,0,0,0,0-.746,56.959,56.959,0,0,1,2.863-23.948c2.911.416,6.017.807,9.271,1.223,26.3,2.935,61.4,3.865,67.649-1.8s6.116-19.912,6.116-19.912C494.351,221.772,494.571,207.474,484.248,207.474ZM358.269,142.381a1.517,1.517,0,0,1-2.446,1.223,5.148,5.148,0,0,1-.372-7.272,5.021,5.021,0,0,1,.372-.372,1.516,1.516,0,0,1,2.446,1.223Zm16.438,7.571a1.746,1.746,0,0,1-1.015.783,13.856,13.856,0,0,1-3.669.489,13.11,13.11,0,0,1-1.847-.1,8.689,8.689,0,0,1-1.859-.391,1.321,1.321,0,0,1-1.043-1.55,1.338,1.338,0,0,1,.126-.358,1.765,1.765,0,0,1,.917-.7,10.554,10.554,0,0,1,1.859-.4,15.612,15.612,0,0,1,1.847-.086,13.376,13.376,0,0,1,3.669.49C374.707,148.386,375.123,149.243,374.707,149.952Z" fill="#ffb400"/><path d="M479.429,193.849v13.662c-9.968.086-32.473.343-53.816.343-17.124,0-22.42-7.51-24.046-16.9h74.9a2.9,2.9,0,0,1,2.96,2.837Z" fill="#fff"/><path d="M467.847,174.83v16.108H401.616a65.329,65.329,0,0,1-.71-10.922,5.2,5.2,0,0,1,5.2-5.2h0Z" fill="#fff"/><path d="M373.729,148.13c.942.293,1.394,1.113,1.015,1.822a1.749,1.749,0,0,1-1.015.783,13.867,13.867,0,0,1-3.669.489,13.1,13.1,0,0,1-1.847-.1,8.677,8.677,0,0,1-1.859-.391,1.321,1.321,0,0,1-1.043-1.55,1.3,1.3,0,0,1,.125-.358,1.771,1.771,0,0,1,.918-.7,10.534,10.534,0,0,1,1.859-.4,15.6,15.6,0,0,1,1.847-.086A13.376,13.376,0,0,1,373.729,148.13Z" fill="#f04e23"/><path d="M358.269,137.171v5.21a1.517,1.517,0,0,1-2.446,1.223,5.148,5.148,0,0,1-.372-7.272,5.021,5.021,0,0,1,.372-.372,1.517,1.517,0,0,1,2.446,1.211Z" fill="#04294f"/><path d="M349.145,266.636c.085.1.513.5,1.223,1.223A6.588,6.588,0,0,1,349.145,266.636Z" fill="#ffb400"/><path d="M406.753,190.119c5.822-.71,11.631-1.089,17.441-1.382,2.911-.135,5.822-.27,8.721-.318l4.366-.111,4.355-.061c5.822,0,11.631,0,17.441.318q4.366.22,8.721.624c2.911.269,5.822.587,8.72,1.089a.67.67,0,0,1,0,1.321c-2.9.5-5.809.819-8.72,1.088s-5.81.477-8.721.624c-5.81.294-11.619.355-17.441.306h-4.355l-4.366-.11c-2.9-.061-5.81-.184-8.721-.318-5.81-.306-11.619-.673-17.441-1.382a.832.832,0,0,1,0-1.639Z" fill="#04294f"/><path d="M462.587,142.063a13.158,13.158,0,0,0-2.263-2.727,12.892,12.892,0,0,0-2.9-1.97,11.611,11.611,0,0,0-3.278-1.088,12.057,12.057,0,0,0-3.376-.159h-.379a34.21,34.21,0,0,0,1.113-5.626,52.916,52.916,0,0,0,.318-7.339,64.364,64.364,0,0,0-.477-7.339,44.636,44.636,0,0,0-1.394-7.338.868.868,0,0,0-.575-.587.856.856,0,0,0-1.052.587,44.532,44.532,0,0,0-1.394,7.338q-.423,3.671-.478,7.339a55.186,55.186,0,0,0,.306,7.339,34.011,34.011,0,0,0,1.309,6.176A10.339,10.339,0,0,0,444.8,138.5a.855.855,0,0,0-.244.905.832.832,0,0,0,1.052.514h0a10.59,10.59,0,0,1,9.6,1.223,9.319,9.319,0,0,1,4,7.693,9.549,9.549,0,0,1-4.036,7.595,11.312,11.312,0,0,1-9.577,1.554h0a.707.707,0,0,0-.672.195.686.686,0,0,0,0,.967,10.368,10.368,0,0,0,5.907,2.629,12.021,12.021,0,0,0,6.727-1.223,12.6,12.6,0,0,0,5.211-4.831,13.139,13.139,0,0,0-.159-13.7Z" fill="#f04e23"/><path d="M349.915,262.33a3.192,3.192,0,0,0,.343,2.8,7.4,7.4,0,0,0,2.324,2.055,27.453,27.453,0,0,0,6.849,2.63,63.08,63.08,0,0,0,15.276,1.761c2.642,0,5.309-.086,7.9-.232a65.338,65.338,0,0,0,7.607-.759,12.914,12.914,0,0,0,5.932-2.152,3.362,3.362,0,0,0,.734-.93,3.889,3.889,0,0,0,.233-.6,5.18,5.18,0,0,0,.11-.832,30.836,30.836,0,0,1,.611-4.244.93.93,0,0,1,1.1-.685.9.9,0,0,1,.673.648h0c.379,1.346.7,2.654,1.088,3.951a9.094,9.094,0,0,1,.233,1.223,6.226,6.226,0,0,1,0,1.431,6.942,6.942,0,0,1-.942,2.789,8.55,8.55,0,0,1-1.8,2.14,11.738,11.738,0,0,1-2.079,1.5,20.811,20.811,0,0,1-4.318,1.895,54.8,54.8,0,0,1-17.123,2.006,48.166,48.166,0,0,1-17.087-3.339,25.034,25.034,0,0,1-7.742-4.733,9.882,9.882,0,0,1-2.764-4.269,6.024,6.024,0,0,1-.135-2.764,5.894,5.894,0,0,1,1.089-2.336,1.1,1.1,0,0,1,1.932.978Z" fill="#04294f"/><path d="M511.071,32.265h0S503.157,8.354,486.132,0A37.983,37.983,0,0,1,488.3,7.339c-11.314-5.8-26.676-8.684-46.967-6.715a32.411,32.411,0,0,1,16.071,10.6,72.935,72.935,0,0,0-21.123-1.749h0a158.974,158.974,0,0,0-32.314,2.887,26.91,26.91,0,0,0,3,4.892,68.686,68.686,0,0,0-11.18,7.192c-1.223.917-2.323,1.883-3.473,2.923-23.716,21.343-29.587,39.139-54.685,42.234a71.876,71.876,0,0,1-12.06.367,48.967,48.967,0,0,0,10.372,10.714h0a24.708,24.708,0,0,0,5.333,3,23.242,23.242,0,0,1-11.008,1.1,24.644,24.644,0,0,0,15.179,8.232s-6.2,9.479-28.217,10.2c0,0,7.962,3.8,21.539,5.957A29.183,29.183,0,0,1,326.4,127.716s9.785.318,15.436-5.614c-.343,1.113-11.534,36.693-29.587,48.716a31,31,0,0,0,22.688-7.241s-.648,16.243-10.457,24.768c0,0,18.982-2.446,26.064-14.481,0,0-5.32,42.637-32.51,71.111,0,0,22.2-4.024,33.305-18.347,0,0-1.223,12.415-8.366,19.166,0,0,8.427-.624,13.295-5.357,11.2-45.255-2.14-87.721-2.14-87.721-3.951-1.149-7.449-4.44-7.449-12.463,0-18.347,18-14.677,18-12.231V140.8a2.445,2.445,0,0,0,1.8,2.446,13.55,13.55,0,0,0,3.669.429,14.543,14.543,0,0,0,3.449-.367,2.532,2.532,0,0,0,1.884-2.447c.086-22.211,1.688-30.516,10.152-33.574a18.339,18.339,0,0,1,2.226-.66c11.093-3.413,21.013-9,31.409-14.677,13.772-6.886,1.945,9.124,1.945,9.124,19.019-6.935,12.806-16.977,29.415-23.41a107.27,107.27,0,0,1,33.061-5.113s.464,9.186.782,22.53C506.8,95.072,521.834,59.834,511.071,32.265Z" fill="#f04e23"/><path d="M168.077,376.752c-12.61-4.147-18.077-15.9-21.1-27.349L117.11,340.01c6.446,7.338,3.07,15.9-27.2,1.137h0c-4.232-2.018-8.562-3.889-12.818-5.675Q66.23,331,55.075,327.289t-22.42-6.873a228.717,228.717,0,0,0-23.006-5.15,8.317,8.317,0,0,0-5.3,15.521,231.313,231.313,0,0,0,21.355,9.981q10.862,4.476,21.943,8.268c7.338,2.556,14.836,4.892,22.4,6.947,3.216.881,6.457,1.713,9.784,2.446L52.665,405.054c12.146,10.176,36.363,16.231,60.421,17.417,17.894.868,21.955-8.415,44.705-2.348C171.514,397.764,168.077,376.752,168.077,376.752Z" fill="#ffb400"/><path d="M63.208,347.214a16.539,16.539,0,0,1,.184-3.144,22.967,22.967,0,0,1,.624-2.935,15.859,15.859,0,0,1,1-2.826,9.857,9.857,0,0,1,1.822-2.666h0a.551.551,0,0,1,.746,0,.665.665,0,0,1,.122.2,8.333,8.333,0,0,1,.38,3.278,12.39,12.39,0,0,1-.649,3.057,15.792,15.792,0,0,1-1.223,2.875,10.793,10.793,0,0,1-1.957,2.593.587.587,0,0,1-.83,0h0a.675.675,0,0,1-.172-.379Z" fill="#f04e23"/><path d="M36.178,337.306a14.11,14.11,0,0,1,.2-2.348,19.45,19.45,0,0,1,.477-2.1,10.43,10.43,0,0,1,.746-2.006,7.327,7.327,0,0,1,1.48-2h0a.561.561,0,0,1,.8-.012l.012.012.061.085a4.9,4.9,0,0,1,.734,2.569,6.79,6.79,0,0,1-.44,2.446,8.605,8.605,0,0,1-1.223,2.2,6.123,6.123,0,0,1-1.884,1.822.624.624,0,0,1-.832-.245.8.8,0,0,1-.073-.281Z" fill="#f04e23"/><path d="M30.49,333.16a4.182,4.182,0,0,1-.366-1.223,2.492,2.492,0,0,1,0-.966,1.678,1.678,0,0,1,.428-.844,3.792,3.792,0,0,1,1.223-.807h0a.84.84,0,0,1,.831.11,2.293,2.293,0,0,1,.93,1.37,2.089,2.089,0,0,1-.122,1.284,2.835,2.835,0,0,1-.759,1.076,2.66,2.66,0,0,1-1.406.673.745.745,0,0,1-.807-.4Z" fill="#f04e23"/><path d="M94.324,376.813a8.942,8.942,0,0,0-.487-12.635l-.027-.024a37.894,37.894,0,0,0-8.243-5.6,58.8,58.8,0,0,0-8.892-3.731,67.086,67.086,0,0,0-9.345-2.446,42.029,42.029,0,0,0-9.919-.7,8.88,8.88,0,0,0-5.3,15.521,34.461,34.461,0,0,0,4.342,3.241,9,9,0,0,0-4.342,15.375,29.378,29.378,0,0,0,2.813,2.324A9.149,9.149,0,0,0,50.855,403.4a31.069,31.069,0,0,0,6.764,5,47.917,47.917,0,0,0,7.338,3.291,40.845,40.845,0,0,0,7.792,1.956,27.358,27.358,0,0,0,8.439.1A9.17,9.17,0,0,0,86.08,411.3a9.271,9.271,0,0,0,.41-13.1l-.006-.006c-.367-.392-.734-.747-1.113-1.089a9.112,9.112,0,0,0,5.247-15.521,24.48,24.48,0,0,0-2.275-1.982H88.5A8.963,8.963,0,0,0,94.324,376.813Z" fill="#ffb400"/><path d="M85.114,380.592a22.731,22.731,0,0,1-7.424.55,33.237,33.237,0,0,1-7.265-1.345,31.074,31.074,0,0,1-6.776-2.85,20.478,20.478,0,0,1-5.724-4.733.721.721,0,0,1,.122-1,.659.659,0,0,1,.514-.147h0a30.115,30.115,0,0,1,3.559.685c1.15.269,2.275.575,3.376.881,2.2.636,4.366,1.369,6.506,2.1s4.294,1.431,6.471,2.128,4.366,1.383,6.641,2.141h0a.845.845,0,0,1,.543,1.063l0,.013A.83.83,0,0,1,85.114,380.592Z" fill="#f04e23"/><path d="M61.288,350.846a5.567,5.567,0,0,1,2.348-1.223,6.747,6.747,0,0,1,2.251-.183,4.673,4.673,0,0,1,2.116.672,4.623,4.623,0,0,1,1.81,2.141,1.089,1.089,0,0,1-.281,1.223l-.074.061a5.333,5.333,0,0,1-2.323,1.223,4.435,4.435,0,0,1-2.043,0,6.549,6.549,0,0,1-1.933-.734,6.915,6.915,0,0,1-1.871-1.529l-.086-.1a1.079,1.079,0,0,1,.076-1.521l.01-.008Z" fill="#f04e23"/><path d="M82.754,398.192a20.336,20.336,0,0,1-7.2.8,29.065,29.065,0,0,1-7.106-1.223,28.179,28.179,0,0,1-6.556-2.849,23.543,23.543,0,0,1-2.923-2.129,18.112,18.112,0,0,1-2.446-2.715.709.709,0,0,1,.648-1.125h.061a23.571,23.571,0,0,1,3.437.746c1.089.269,2.165.587,3.217.9,2.1.636,4.171,1.345,6.238,2.055s4.11,1.37,6.2,2.006l6.434,1.932h0a.856.856,0,0,1,.574,1.064A.841.841,0,0,1,82.754,398.192Z" fill="#f04e23"/><path d="M81.567,369.07c1.59-6.042,8.5-1.993,7.632,1.823C88.221,375.137,80.05,374.831,81.567,369.07Z" fill="#f04e23"/><path d="M77.629,386.891c1.59-6.042,8.5-1.994,7.62,1.822C84.282,393.006,76.112,392.664,77.629,386.891Z" fill="#f04e23"/><path d="M73.189,404.919c1.59-6.042,8.562-1.993,7.62,1.823C79.843,410.986,71.672,410.68,73.189,404.919Z" fill="#f04e23"/><path d="M60.432,356.081a21.908,21.908,0,0,1-.44,2.813c-.2.893-.428,1.761-.673,2.605a17.965,17.965,0,0,1-.893,2.544,10.4,10.4,0,0,1-1.553,2.532h0a.527.527,0,0,1-.744,0l0,0a.5.5,0,0,1-.123-.159,6.62,6.62,0,0,1-.66-3.094,9.492,9.492,0,0,1,.587-2.985,12.1,12.1,0,0,1,1.382-2.715,8.063,8.063,0,0,1,2.238-2.214.575.575,0,0,1,.8.157l.01.015a.6.6,0,0,1,.1.367Z" fill="#f04e23"/><path d="M59.894,377.669a10.506,10.506,0,0,1-.11,2.177,16.334,16.334,0,0,1-.416,1.945,8.306,8.306,0,0,1-.7,1.847,6.7,6.7,0,0,1-1.456,1.822h0a.587.587,0,0,1-.828-.057l0,0h0a4.393,4.393,0,0,1-.758-2.446,6.009,6.009,0,0,1,.392-2.287,7.786,7.786,0,0,1,1.125-2.055,5.6,5.6,0,0,1,1.908-1.59.611.611,0,0,1,.818.279v0a.872.872,0,0,1,.074.232Z" fill="#f04e23"/><path d="M64.884,359.542a4.363,4.363,0,0,1,.355,1.321,3.111,3.111,0,0,1,0,1.028,1.772,1.772,0,0,1-.453.9,3.657,3.657,0,0,1-1.3.856h0a.845.845,0,0,1-.844-.11,2.449,2.449,0,0,1-.918-1.431,2.281,2.281,0,0,1,.147-1.345,2.947,2.947,0,0,1,2.214-1.859.72.72,0,0,1,.807.415Z" fill="#f04e23"/><path d="M55.1,394.853a4.213,4.213,0,0,1,.416,1.223,2.2,2.2,0,0,1,0,.893,1.314,1.314,0,0,1-.416.746,3.764,3.764,0,0,1-1.223.722h0a.929.929,0,0,1-.844-.11,2.252,2.252,0,0,1-.942-1.284,1.834,1.834,0,0,1,.11-1.223,2.57,2.57,0,0,1,2.055-1.59.734.734,0,0,1,.771.391Z" fill="#f04e23"/><path d="M60.224,397.74a7.273,7.273,0,0,1,.061,1.835,8.323,8.323,0,0,1-.269,1.59,4.751,4.751,0,0,1-1.994,2.911h0a.648.648,0,0,1-.868-.111,3.439,3.439,0,0,1-.819-2,4.421,4.421,0,0,1,.293-1.921,5.774,5.774,0,0,1,.991-1.688,4.472,4.472,0,0,1,1.712-1.223.648.648,0,0,1,.842.363l0,0v.122Z" fill="#f04e23"/><path d="M112.842,334.921c.685.8,1.406,1.542,2.067,2.361,1.345,1.6,2.666,3.266,3.889,5.039a122.72,122.72,0,0,1,7.033,11.412c.575,1.064,1.162,2.14,1.737,3.229h20.793c-.1-.954-.221-1.908-.367-2.85a57.2,57.2,0,0,0-2.141-8.758,58.95,58.95,0,0,0-8.317-16.4,52.448,52.448,0,0,0-6.213-7.229,47.266,47.266,0,0,0-7.559-6.115,40.994,40.994,0,0,0-18.139-6.593,8.354,8.354,0,0,0-5.675,15.13l.734.514a75.143,75.143,0,0,1,9.968,8.06C111.435,333.393,112.108,334.212,112.842,334.921Z" fill="#ffb400"/><path d="M107.705,309.3s-2.777,3.461,2.837,5.173,5.541-2.825,5.541-2.825A36.725,36.725,0,0,0,107.705,309.3Z" fill="#f04e23"/><path d="M135.567,326.58a4.893,4.893,0,0,1-.979,2.226,7.248,7.248,0,0,1-1.675,1.566,5.567,5.567,0,0,1-2.079.856,4.236,4.236,0,0,1-2.447-.245.6.6,0,0,1-.305-.783h0a5.792,5.792,0,0,1,1.382-1.773,7.016,7.016,0,0,1,1.541-1.052,13.152,13.152,0,0,1,1.675-.8,12,12,0,0,1,1.97-.6h.146a.624.624,0,0,1,.722.477A.676.676,0,0,1,135.567,326.58Z" fill="#f04e23"/><path d="M739.937,319.51a8.329,8.329,0,0,0-8.635-4.244,229.313,229.313,0,0,0-22.994,5.149q-11.338,3.094-22.419,6.874t-22.016,8.183c-4.318,1.786-8.562,3.669-12.818,5.675h0c-27.19,13.234-32.682,7.657-28.853,1.1,1.223-1.749,2.519-3.388,3.84-4.966.673-.819,1.382-1.566,2.067-2.361a21.885,21.885,0,0,1,2.19-2.2,74.209,74.209,0,0,1,9.968-8.06l.722-.514a8.354,8.354,0,0,0-5.676-15.13c-.685.074-1.382.184-2.067.294.061.073,2.7,3.473-2.837,5.161s-5.541-2.605-5.541-2.813a43.688,43.688,0,0,0-7.644,3.987,47.327,47.327,0,0,0-7.559,6.116,53.285,53.285,0,0,0-6.213,7.228,59.282,59.282,0,0,0-8.317,16.4c-.429,1.346-.82,2.691-1.224,4.049h0c-3.021,11.46-8.476,23.239-21.086,27.348,0,0-3.449,21.013,10.286,43.4,22.762-6.116,26.811,3.217,44.705,2.348,23.593-1.223,47.321-7.008,59.7-16.817l.612-.5.122-.1h0a21.83,21.83,0,0,0,1.786-1.627,9.161,9.161,0,0,0-.076-12.955l-.01-.009a9.068,9.068,0,0,0-3.975-2.3,32.239,32.239,0,0,0,2.813-2.324,9.013,9.013,0,0,0-4.354-15.374,35.479,35.479,0,0,0,4.354-3.241,8.867,8.867,0,0,0-4.183-15.362c2.874-.918,5.749-1.86,8.562-2.85q11.008-3.816,21.93-8.268a231.313,231.313,0,0,0,21.355-9.981,8.306,8.306,0,0,0,3.549-11.2Zm-130.614,3.67a2.906,2.906,0,0,1,1.357-.453,2.449,2.449,0,0,1,1.125.184,1.77,1.77,0,0,1,.869.7,2.374,2.374,0,0,1,.33,1.541.918.918,0,0,1-.452.722h0a3.114,3.114,0,0,1-1.407.477,1.492,1.492,0,0,1-.9-.257,2.212,2.212,0,0,1-.71-.685,3.529,3.529,0,0,1-.538-1.223v-.1a.846.846,0,0,1,.331-.869Zm-4.673,5a.6.6,0,0,1,.22-.1,5.837,5.837,0,0,1,2.288-.061,7.2,7.2,0,0,1,2.042.612,5.67,5.67,0,0,1,1.774,1.223,4.394,4.394,0,0,1,1.223,2.067.6.6,0,0,1-.441.722h0a5.381,5.381,0,0,1-2.274,0,6.972,6.972,0,0,1-1.811-.734,11.714,11.714,0,0,1-1.626-1.113,7.79,7.79,0,0,1-1.468-1.6h0a.648.648,0,0,1-.042-.915A.682.682,0,0,1,604.65,328.182Zm21.661,34.247a.484.484,0,0,1-.256,0,6.866,6.866,0,0,1-2.973-2.373,10.093,10.093,0,0,1-1.6-3.376,13.065,13.065,0,0,1-.477-3.669,10.031,10.031,0,0,1,.685-3.669.575.575,0,0,1,.752-.309l.006,0a.539.539,0,0,1,.306.306h0c.453,1.076.783,2.152,1.138,3.18l.99,3.009c.318.99.685,1.944.979,2.947a30.689,30.689,0,0,1,.844,3.266h0a.5.5,0,0,1-.282.651.508.508,0,0,1-.159.034Zm51.053-25.954a.6.6,0,0,1,.6-.6h.025a.49.49,0,0,1,.269.074,5.971,5.971,0,0,1,1.982,1.737,8.463,8.463,0,0,1,1.223,2.214,6.677,6.677,0,0,1,.44,2.446,4.878,4.878,0,0,1-.734,2.568.573.573,0,0,1-.782.171l-.086-.061h0a7.167,7.167,0,0,1-1.48-1.993,10.649,10.649,0,0,1-.758-2.018c-.184-.685-.343-1.37-.465-2.1a12.792,12.792,0,0,1-.2-2.336Zm-6.116,5.492a4.2,4.2,0,0,1,.379-1.224l.1-.208a.722.722,0,0,1,.795-.415,2.787,2.787,0,0,1,2.165,1.749,2.035,2.035,0,0,1,.135,1.3,2.3,2.3,0,0,1-.93,1.358.844.844,0,0,1-.844.122h0a3.88,3.88,0,0,1-1.223-.795,1.755,1.755,0,0,1-.44-.844,2.846,2.846,0,0,1-.135-.991Zm-11.069,64.726c-.868-3.816,6.042-7.865,7.632-1.822,1.517,5.809-6.654,6.115-7.632,1.871Zm26.908-7.828a2.19,2.19,0,0,1,.147,1.345,2.451,2.451,0,0,1-.917,1.419.818.818,0,0,1-.844.11h0a3.652,3.652,0,0,1-1.3-.856,1.984,1.984,0,0,1-.452-.9,3.112,3.112,0,0,1-.061-1.027,4.767,4.767,0,0,1,.354-1.321l.086-.2a.71.71,0,0,1,.807-.416,2.87,2.87,0,0,1,1.443.722,2.933,2.933,0,0,1,.673,1.174ZM655.8,388.677c-.868-3.816,6.042-7.865,7.632-1.823,1.456,5.81-6.714,6.152-7.693,1.872Zm21.551-9.125v-.1a.611.611,0,0,1,.646-.576h.015a.479.479,0,0,1,.232,0,5.415,5.415,0,0,1,1.9,1.59,7.456,7.456,0,0,1,1.137,2.042,6.054,6.054,0,0,1,.392,2.287,4.5,4.5,0,0,1-.758,2.447.6.6,0,0,1-.82.146h0a6.485,6.485,0,0,1-1.455-1.822,8.726,8.726,0,0,1-.71-1.847,15.89,15.89,0,0,1-.4-1.932A10.572,10.572,0,0,1,677.351,379.552Zm7.339-1.749a.746.746,0,0,1,.807-.428,2.98,2.98,0,0,1,1.443.734,3.109,3.109,0,0,1,.783,1.138,2.255,2.255,0,0,1,.135,1.333,2.449,2.449,0,0,1-.918,1.431.819.819,0,0,1-.844.11h0a3.907,3.907,0,0,1-1.3-.868,2.009,2.009,0,0,1-.453-.893,3.166,3.166,0,0,1,0-1.028,4.322,4.322,0,0,1,.343-1.321Zm-1.443-6.409a.673.673,0,0,1-.208.783,46.5,46.5,0,0,1-9.284,5.541,54.783,54.783,0,0,1-10.323,3.583,37.558,37.558,0,0,1-11.179,1.028,2.286,2.286,0,0,1-.758-.086,5.19,5.19,0,0,0-.489.636,8.376,8.376,0,0,0-1.223,2.544,7.6,7.6,0,0,0,.452,5.137,7.147,7.147,0,0,0,3.4,3.413,6.651,6.651,0,0,0,2.3.624,24.568,24.568,0,0,0,3,.11,41.267,41.267,0,0,0,6.116-.6c2.067-.318,4.122-.758,6.189-1.223A121.037,121.037,0,0,0,683.675,389h0a.672.672,0,0,1,.865.395l0,.009a.682.682,0,0,1-.171.721c-.844.783-1.725,1.529-2.618,2.263a22.589,22.589,0,0,1-2.874,1.932,42.373,42.373,0,0,1-6.2,3.083,39.259,39.259,0,0,1-6.7,2.006,36.518,36.518,0,0,1-7.094.733,30.427,30.427,0,0,1-3.67-.256h-.159c-.073.171-.147.342-.208.525a9.275,9.275,0,0,0-.526,2.349,8.974,8.974,0,0,0,.612,4.293,8.026,8.026,0,0,0,1.027,1.835,10.572,10.572,0,0,0,1.419,1.663,11.458,11.458,0,0,0,1.859,1.468,10.016,10.016,0,0,0,1.223.672,14.207,14.207,0,0,1,1.346.783h0a.734.734,0,0,1,.208,1.015.708.708,0,0,1-.355.269,11.461,11.461,0,0,1-1.6.465,7.046,7.046,0,0,1-1.725.171,8.556,8.556,0,0,1-3.571-.892,9.886,9.886,0,0,1-4.893-5.614,10.224,10.224,0,0,1,.172-7.339,8.813,8.813,0,0,1,1.712-2.666l-.612-.306a11.2,11.2,0,0,1-5.173-6.373,10.625,10.625,0,0,1,.587-7.889,10.332,10.332,0,0,1,1.993-2.715,11.249,11.249,0,0,1-2.764-1.614,11.7,11.7,0,0,1-3.828-5.59,11.359,11.359,0,0,1,1.431-9.809,12.315,12.315,0,0,1,1.04-1.346c.391-.379.831-.831,1.162-1.113a33.474,33.474,0,0,1,4.611-3.314,53.225,53.225,0,0,1,4.892-2.544,55.775,55.775,0,0,1,10.323-3.486,51.958,51.958,0,0,1,10.69-1.468.831.831,0,0,1,.844.807.819.819,0,0,1-.636.82,80.4,80.4,0,0,0-9.932,3.021c-1.6.624-3.216,1.223-4.77,1.957s-3.07,1.48-4.55,2.287a40.256,40.256,0,0,0-8.121,5.675c-.33.294-.477.5-.71.734a8.223,8.223,0,0,0-.538.783,5.776,5.776,0,0,0-.734,1.712,6.3,6.3,0,0,0-.22,1.847,6.159,6.159,0,0,0,.318,1.81,6.422,6.422,0,0,0,5.468,4.379,39.34,39.34,0,0,0,9.784-.4,72.1,72.1,0,0,0,9.981-2.189,99.854,99.854,0,0,0,9.846-3.412.671.671,0,0,1,1.149.244Zm-.857-4.672a.422.422,0,0,1-.159-.122h0a10.863,10.863,0,0,1-1.553-2.532,18.01,18.01,0,0,1-.893-2.544c-.244-.844-.477-1.712-.672-2.605a24.335,24.335,0,0,1-.441-2.813v-.074a.6.6,0,0,1,.538-.636.538.538,0,0,1,.367.1,7.882,7.882,0,0,1,2.239,2.214,11.191,11.191,0,0,1,1.382,2.715,9.2,9.2,0,0,1,.587,2.984,6.474,6.474,0,0,1-.661,3.1.514.514,0,0,1-.7.209h0Zm-30.577,4.183c-.881-3.816,6.03-7.864,7.62-1.822,1.48,5.748-6.666,6.054-7.632,1.81Zm57.033-32.816a.513.513,0,0,1-.652.321l-.008,0a.411.411,0,0,1-.2-.122h0a9.781,9.781,0,0,1-1.822-2.666,15.928,15.928,0,0,1-1.016-2.826,26.248,26.248,0,0,1-.623-2.947,16.411,16.411,0,0,1-.172-3.132h0a.587.587,0,0,1,.61-.563h.014a.657.657,0,0,1,.379.159,11.108,11.108,0,0,1,1.957,2.593,17.068,17.068,0,0,1,1.223,2.874,12.353,12.353,0,0,1,.649,3.058,8.089,8.089,0,0,1-.355,3.241Z" fill="#ffb400"/><path d="M632.61,309.42l.514-.086Z" fill="#ffb400"/><path d="M630.127,309.958l1.126-.257Z" fill="#ffb400"/><path d="M682.415,370.991a99.764,99.764,0,0,1-9.846,3.412,72.119,72.119,0,0,1-9.98,2.189,39.348,39.348,0,0,1-9.785.4,6.419,6.419,0,0,1-5.467-4.379,6.094,6.094,0,0,1-.318-1.81,6.262,6.262,0,0,1,.22-1.847,5.75,5.75,0,0,1,.734-1.712,7.869,7.869,0,0,1,.538-.783c.232-.232.379-.44.709-.734a40.234,40.234,0,0,1,8.122-5.675c1.479-.807,3-1.578,4.549-2.287s3.168-1.333,4.771-1.957a80.328,80.328,0,0,1,9.931-3.021.819.819,0,0,0,.636-.82.831.831,0,0,0-.844-.807,51.968,51.968,0,0,0-10.69,1.468,55.775,55.775,0,0,0-10.323,3.486,53.354,53.354,0,0,0-4.892,2.544,33.474,33.474,0,0,0-4.611,3.314c-.33.282-.771.734-1.162,1.113a12.315,12.315,0,0,0-1.04,1.346,10.906,10.906,0,0,0-1.467,3.07,10.8,10.8,0,0,0-.478,3.363,10.948,10.948,0,0,0,.514,3.376,11.7,11.7,0,0,0,3.828,5.59,11.237,11.237,0,0,0,2.765,1.614,10.313,10.313,0,0,0-1.994,2.715,10.63,10.63,0,0,0-.587,7.889,11.2,11.2,0,0,0,5.174,6.373l.611.306a8.813,8.813,0,0,0-1.712,2.666,10.219,10.219,0,0,0-.171,7.339,9.885,9.885,0,0,0,4.892,5.614,8.56,8.56,0,0,0,3.571.892,7.046,7.046,0,0,0,1.725-.171,11.421,11.421,0,0,0,1.6-.465.7.7,0,0,0,.355-.269.734.734,0,0,0-.208-1.015h0a14.317,14.317,0,0,0-1.345-.783,9.943,9.943,0,0,1-1.223-.672,11.509,11.509,0,0,1-1.86-1.468,10.566,10.566,0,0,1-1.418-1.663,7.992,7.992,0,0,1-1.028-1.835,8.962,8.962,0,0,1-.611-4.293,9.233,9.233,0,0,1,.526-2.349,1.481,1.481,0,0,1,.207-.525h.159a30.442,30.442,0,0,0,3.67.256,36.51,36.51,0,0,0,7.094-.733,39.259,39.259,0,0,0,6.7-2.006,42.373,42.373,0,0,0,6.2-3.083,31.125,31.125,0,0,0,2.875-1.932,33.432,33.432,0,0,0,2.617-2.263.682.682,0,0,0,.171-.721.673.673,0,0,0-.86-.407l-.008,0h0a121.037,121.037,0,0,1-12.439,3.889,50.133,50.133,0,0,1-6.189,1.223,41.266,41.266,0,0,1-6.115.6,24.577,24.577,0,0,1-3-.11,6.639,6.639,0,0,1-2.3-.624,7.144,7.144,0,0,1-3.4-3.413,7.6,7.6,0,0,1-.452-5.137,8.411,8.411,0,0,1,1.223-2.544,5.19,5.19,0,0,1,.489-.636c.257,0,.5.074.759.086a37.564,37.564,0,0,0,11.179-1.028,54.808,54.808,0,0,0,10.323-3.583,46.49,46.49,0,0,0,9.283-5.541.7.7,0,0,0-.647-1.2A.684.684,0,0,0,682.415,370.991Z" fill="#f04e23"/><path d="M659.421,369.07c-1.59-6.042-8.5-1.993-7.62,1.823C652.767,375.137,660.913,374.831,659.421,369.07Z" fill="#f04e23"/><path d="M663.359,386.891c-1.59-6.042-8.562-1.994-7.632,1.822C656.718,393.006,664.888,392.664,663.359,386.891Z" fill="#f04e23"/><path d="M660.179,406.742c.978,4.244,9.149,3.938,7.632-1.823C666.221,398.877,659.311,402.926,660.179,406.742Z" fill="#f04e23"/><path d="M683.2,360.4a11.216,11.216,0,0,0-1.382-2.716,7.866,7.866,0,0,0-2.239-2.213.532.532,0,0,0-.367-.1.6.6,0,0,0-.538.636v.073a24.267,24.267,0,0,0,.441,2.813c.195.893.428,1.762.672,2.605a18.022,18.022,0,0,0,.893,2.545,10.8,10.8,0,0,0,1.553,2.531h0a.424.424,0,0,0,.159.123.515.515,0,0,0,.692-.222l.006-.011a6.483,6.483,0,0,0,.66-3.094A9.185,9.185,0,0,0,683.2,360.4Z" fill="#f04e23"/><path d="M708.614,331.741a17.234,17.234,0,0,0-1.223-2.874,11.157,11.157,0,0,0-1.957-2.593.657.657,0,0,0-.379-.159.587.587,0,0,0-.623.549v.014h0a16.4,16.4,0,0,0,.171,3.131,26.222,26.222,0,0,0,.624,2.948,15.864,15.864,0,0,0,1.015,2.825,9.773,9.773,0,0,0,1.822,2.666h0a.423.423,0,0,0,.2.123.514.514,0,0,0,.657-.31l0-.008a8.1,8.1,0,0,0,.379-3.278A12.391,12.391,0,0,0,708.614,331.741Z" fill="#f04e23"/><path d="M678.574,385.509a6.521,6.521,0,0,0,1.456,1.822h0a.6.6,0,0,0,.819-.146,4.494,4.494,0,0,0,.759-2.447,6.054,6.054,0,0,0-.392-2.287,7.441,7.441,0,0,0-1.137-2.042,5.4,5.4,0,0,0-1.9-1.59.479.479,0,0,0-.232,0,.612.612,0,0,0-.66.559v.174a10.628,10.628,0,0,0,.11,2.19,15.894,15.894,0,0,0,.4,1.932A8.717,8.717,0,0,0,678.574,385.509Z" fill="#f04e23"/><path d="M684.347,380.335a2.009,2.009,0,0,0,.453.893,3.892,3.892,0,0,0,1.3.868h0a.817.817,0,0,0,.844-.11,2.446,2.446,0,0,0,.918-1.431,2.257,2.257,0,0,0-.135-1.333,3.1,3.1,0,0,0-.783-1.137,2.98,2.98,0,0,0-1.443-.734.746.746,0,0,0-.807.428l-.086.2a4.313,4.313,0,0,0-.342,1.321A3.135,3.135,0,0,0,684.347,380.335Z" fill="#f04e23"/><path d="M678.036,341.049a10.6,10.6,0,0,0,.759,2.018,7.137,7.137,0,0,0,1.48,1.994h0l.085.061a.576.576,0,0,0,.783-.171,4.9,4.9,0,0,0,.734-2.569,6.705,6.705,0,0,0-.44-2.446,8.469,8.469,0,0,0-1.224-2.214,5.989,5.989,0,0,0-1.981-1.737.491.491,0,0,0-.269-.073.6.6,0,0,0-.623.574v.111a12.792,12.792,0,0,0,.2,2.336A9.44,9.44,0,0,0,678.036,341.049Z" fill="#f04e23"/><path d="M671.725,343.838a3.88,3.88,0,0,0,1.223.795h0a.844.844,0,0,0,.844-.122,2.3,2.3,0,0,0,.93-1.358,2.032,2.032,0,0,0-.135-1.3,2.856,2.856,0,0,0-.746-1.076,2.908,2.908,0,0,0-1.419-.673.723.723,0,0,0-.8.416l-.1.208a4.207,4.207,0,0,0-.379,1.223,2.874,2.874,0,0,0,0,.979A1.764,1.764,0,0,0,671.725,343.838Z" fill="#f04e23"/><path d="M684.005,397.471l-.086.195a4.767,4.767,0,0,0-.354,1.321,3.116,3.116,0,0,0,.061,1.028,1.984,1.984,0,0,0,.452.905,3.661,3.661,0,0,0,1.3.856h0a.82.82,0,0,0,.844-.11,2.446,2.446,0,0,0,.917-1.419,2.19,2.19,0,0,0-.147-1.345,2.935,2.935,0,0,0-.77-1.138,2.877,2.877,0,0,0-1.443-.721A.709.709,0,0,0,684.005,397.471Z" fill="#f04e23"/><path d="M625.834,358.6c-.293-1-.66-1.957-.978-2.948l-.991-3.009c-.354-1.027-.685-2.1-1.137-3.18h0a.542.542,0,0,0-.306-.306.576.576,0,0,0-.756.3l0,.006a10.014,10.014,0,0,0-.685,3.669,13.04,13.04,0,0,0,.477,3.67,10.083,10.083,0,0,0,1.6,3.376,6.861,6.861,0,0,0,2.972,2.372.468.468,0,0,0,.257,0,.5.5,0,0,0,.416-.574h0A30.447,30.447,0,0,0,625.834,358.6Z" fill="#f04e23"/><path d="M630.458,314.471c5.54-1.688,2.9-5.088,2.837-5.161h-.159l-.513.085-1.358.282-1.125.257a31.745,31.745,0,0,0-5.211,1.687h0C624.917,311.866,624.978,316.147,630.458,314.471Z" fill="#f04e23"/><path d="M604.455,329.148a7.814,7.814,0,0,0,1.467,1.6,11.724,11.724,0,0,0,1.627,1.113,6.931,6.931,0,0,0,1.81.734,5.385,5.385,0,0,0,2.275,0h0a.6.6,0,0,0,.44-.722,4.386,4.386,0,0,0-1.223-2.067,5.671,5.671,0,0,0-1.773-1.223,7.225,7.225,0,0,0-2.043-.612,5.832,5.832,0,0,0-2.287.061.6.6,0,0,0-.22.1.649.649,0,0,0-.171.893Z" fill="#f04e23"/><path d="M608.956,324.244a3.51,3.51,0,0,0,.538,1.223,2.209,2.209,0,0,0,.709.685,1.494,1.494,0,0,0,.9.257,3.11,3.11,0,0,0,1.407-.477h0a.918.918,0,0,0,.452-.722,2.368,2.368,0,0,0-.33-1.541,1.768,1.768,0,0,0-.868-.7,2.453,2.453,0,0,0-1.126-.184,2.91,2.91,0,0,0-1.357.453.843.843,0,0,0-.379.929Z" fill="#f04e23"/><path d="M377.667,115.766a12.894,12.894,0,0,1,4.893-7c-1.431.428-2.862.844-4.306,1.223-3.2.881-6.4,1.8-9.613,2.74-1.59.514-3.217.966-4.819,1.529l-2.446.819c-.808.306-1.615.612-2.446.979h0a.7.7,0,0,0-.392.526.685.685,0,0,0,.571.782h0a40.154,40.154,0,0,0,10.482,0A53.67,53.67,0,0,0,377.667,115.766Z" fill="#04294f"/><path d="M481.778,42.747a10.532,10.532,0,0,0-3.339-.7,14.143,14.143,0,0,0-3.425.22,10.363,10.363,0,0,0-3.413,1.223.885.885,0,0,0-.305.294.966.966,0,0,0,.257,1.333h0a12.391,12.391,0,0,0,3.192,1.517,18.169,18.169,0,0,0,3.168.721,11.417,11.417,0,0,0,3.229.062,8.923,8.923,0,0,0,3.473-1.224h0l.1-.073a.88.88,0,0,0,.122-1.223A7.547,7.547,0,0,0,481.778,42.747Z" fill="#04294f"/><path d="M379.294,56.312a34.6,34.6,0,0,0-4.207,3.828,23.111,23.111,0,0,0-3.45,4.66.92.92,0,0,0-.061.721.869.869,0,0,0,1.114.519l.012-.005a30.64,30.64,0,0,0,5.137-2.446c1.614-.917,3.143-1.908,4.635-2.96a35.737,35.737,0,0,0,4.293-3.425,21.137,21.137,0,0,0,3.67-4.439.822.822,0,0,0,.1-.453.758.758,0,0,0-.807-.685,16.693,16.693,0,0,0-5.651,1.663A25.933,25.933,0,0,0,379.294,56.312Z" fill="#04294f"/><path d="M430.212,51.578a.867.867,0,0,0-.306.807.832.832,0,0,0,.963.676l.015,0h0c2.765-.5,5.492-1.064,8.183-1.639l8.024-1.761c2.666-.563,5.32-1.223,7.986-1.859,1.321-.367,2.667-.71,4-1.15a34.182,34.182,0,0,0,4.036-1.455h0a.7.7,0,0,0,.379-.465.708.708,0,0,0-.5-.856,29.318,29.318,0,0,0-8.672-.746,43.414,43.414,0,0,0-8.427,1.3,52.976,52.976,0,0,0-8.158,2.776A34.984,34.984,0,0,0,430.212,51.578Z" fill="#04294f"/><path d="M490.706,77.447a85.571,85.571,0,0,0,9.443-1.676h0a.65.65,0,0,0,.477-.44.7.7,0,0,0-.428-.881,35.841,35.841,0,0,0-9.687-1.737,48.894,48.894,0,0,0-6.825.135c0,.709.122,2.581.232,5.369C486.193,78.022,488.456,77.777,490.706,77.447Z" fill="#04294f"/><path d="M451.066,12.708a41.54,41.54,0,0,0,3.277,2.9,20.889,20.889,0,0,0,4.073,2.519h0a.757.757,0,0,0,1.064-.746,10.627,10.627,0,0,0-1.6-4.892,12.327,12.327,0,0,0-.954-1.37A63.057,63.057,0,0,0,448,9.711C449.047,10.751,450.05,11.742,451.066,12.708Z" fill="#04294f"/><path d="M407.817,80.345h0c3.926-2.311,7.913-4.537,11.949-6.555s8.122-3.927,12.293-5.59l1.553-.66,1.578-.575,3.143-1.223c2.128-.71,4.22-1.541,6.372-2.177,4.257-1.5,8.623-2.593,13.063-4.1h0a.672.672,0,0,0,.453-.587.661.661,0,0,0-.6-.72l-.017,0a49.4,49.4,0,0,0-14.127.82,63.675,63.675,0,0,0-6.9,1.737c-2.226.77-4.476,1.529-6.641,2.507a74.159,74.159,0,0,0-12.427,6.739A57.334,57.334,0,0,0,406.728,79.1a.807.807,0,0,0-.085.966.819.819,0,0,0,1.114.318A.649.649,0,0,0,407.817,80.345Z" fill="#04294f"/><path d="M346.332,91.415a6.367,6.367,0,0,0,.819-3.67v-.073a.844.844,0,0,0-.967-.7l-.011,0h-.11a9.476,9.476,0,0,0-3.193,1.149,11.67,11.67,0,0,0-2.275,1.762c-.452.428-.88.88-1.308,1.357a22.6,22.6,0,0,0,5.944,1.651A7.623,7.623,0,0,0,346.332,91.415Z" fill="#04294f"/><path d="M350.576,163.186a.771.771,0,0,0-1.064,0,17.448,17.448,0,0,0-3.119,4.721,28.439,28.439,0,0,0-1.774,5.113,40.412,40.412,0,0,0-1.015,5.32,27.874,27.874,0,0,0-.22,2.887,24.761,24.761,0,0,0,6.115-5.871c.1-.294.221-.575.306-.869a28.643,28.643,0,0,0,1.223-5.283,17.319,17.319,0,0,0-.159-5.651A.83.83,0,0,0,350.576,163.186Z" fill="#04294f"/><path d="M481.851,222.029a22.329,22.329,0,0,0-4.758.379,14.307,14.307,0,0,0-4.733,1.774.932.932,0,0,0-.269.269.794.794,0,0,0,.281,1.064,14.124,14.124,0,0,0,4.795,1.639,22.331,22.331,0,0,0,4.77.233,23.116,23.116,0,0,0,2.58-.208,47.12,47.12,0,0,0,.343-4.966C483.857,222.115,482.854,222.042,481.851,222.029Z" fill="#f04e23"/><path d="M400.588,242.125c-2.446-.33-4.892-.661-7.424-.917a60.874,60.874,0,0,0-7.742-.416h0a.718.718,0,0,0-.526.269.7.7,0,0,0,.122.978h0a18.714,18.714,0,0,0,3.437,2.226c.6.306,1.223.6,1.835.869s1.223.477,1.883.7a33.283,33.283,0,0,0,3.89,1.052c1.309.244,2.629.452,3.963.575h.269a41.456,41.456,0,0,1,1.541-5.2Z" fill="#f04e23"/><path d="M484,155.456c-.526,0-1.052-.086-1.578-.1a12.8,12.8,0,0,0-3.584.379,9.214,9.214,0,0,0-3.559,1.786h0a.719.719,0,0,0-.135.135.845.845,0,0,0,.114,1.188l.045.035a9.1,9.1,0,0,0,3.67,1.639,12.843,12.843,0,0,0,3.669.244,12.142,12.142,0,0,0,1.615-.171H483.8C483.8,158.868,483.906,157.181,484,155.456Z" fill="#f04e23"/><path d="M400.952,130.21a1.439,1.439,0,0,1,1.874-2.09,34.179,34.179,0,0,0,5.038,2.38,22.819,22.819,0,0,0,9.327,1.463,32.975,32.975,0,0,0,9.525-2.251c1.759-.645,3.511-1.419,5.316-2.235a1.442,1.442,0,0,1,1.693,2.248,25.985,25.985,0,0,1-4.735,4.223,22.087,22.087,0,0,1-2.564,1.556,21.751,21.751,0,0,1-2.78,1.259,22.054,22.054,0,0,1-6.105,1.3,19.21,19.21,0,0,1-11.945-3.345A19.551,19.551,0,0,1,400.952,130.21Z" fill="#f04e23"/><path d="M484.774,131.691c-.024,1.9-.061,3.951-.122,6.152a17.512,17.512,0,0,1-1.957.221,19.2,19.2,0,0,1-11.95-3.34,19.633,19.633,0,0,1-4.648-4.513,1.44,1.44,0,0,1,1.872-2.091,35.381,35.381,0,0,0,5.039,2.385,22.8,22.8,0,0,0,9.332,1.455C483.147,131.911,483.955,131.814,484.774,131.691Z" fill="#f04e23"/></g></g>
</g>
</g>

<!-- ITEM 3 -->
<g transform="translate(442.0 295.0) scale(0.6724263182857931 0.6703036848083117) rotate(0.0 83.2805 26.853500000000004)">
<g transform="translate(-0.0 -0.0)">
<title>sunglasses_2</title><g id="Layer_2-i3" data-name="Layer 2"><g id="sunglasses_2-i3"><path d="M98.791,43.66a31.931,31.931,0,0,0,2.06-3.46c6.14-11.92,12.12-20,22.17-19.34,0,0,14.84.54,16,14.77a131.28,131.28,0,0,1,12.17,7.52,5.44,5.44,0,0,0,5.51-4.46,111.137,111.137,0,0,0,1.7-22.73c4.93-3.19,7.84-.87,7.57-2.62-1.46-9.27-7.92-13.35-16.12-13.34-20.43,0-37.54,1.5-88.32.06-4.13-.12-10.2,4-11,8-1.54,7.47-3.67,17.91-1.37,32.09a8.276,8.276,0,0,0,.51,1.82c3.53,10.9,14.16,12.16,18.75,11.64,1.61-.19,15.41-4.22,29.06-9.86Z" fill="#00aee0"/><path d="M75.911,52.79c11.36-1.29,18.79-.67,24.94-12.59s12.12-20,22.17-19.34c0,0,14.84.54,16,14.77a127.29,127.29,0,0,1,20.17,13.63c3.54-.52,4.46-3.29,5-7,2.33-15.25,3-21.89,1.75-28.94-.63-3.56-3.46-7-7.08-6.81-37.33,1.39-42.56,1.84-91.57.11-3.84-.13-6.89,3.3-7.46,7.1-1.29,8.68-3,18.71-.7,32.86a8.381,8.381,0,0,0,9.22,7c2.09-.25,4.65-.53,7.57-.83Z" fill="#04294f"/><path d="M87.291,7.29l-28.94,33c.18,2,.43,4.09.78,6.29a8.569,8.569,0,0,0,1.36,3.4L97.7,7.54C94.491,7.49,91.051,7.4,87.291,7.29Z" fill="#fff"/><path d="M105.291,7.7l-40.1,45.68a8.268,8.268,0,0,0,3.15.24l2.18-.25,40-45.62Z" fill="#fff"/><path d="M158.851,6.53l-1.75.06-19.87,22.67a16.314,16.314,0,0,1,1.75,6.37s.83.44,2.23,1.23l23.48-26.78A6.718,6.718,0,0,0,158.851,6.53Z" fill="#fff"/><path d="M149.611,42.1l16.88-19.25a47.866,47.866,0,0,0-.11-6l-20.15,23C147.291,40.56,148.431,41.3,149.611,42.1Z" fill="#fff"/><path d="M50.911,29.53a5.5,5.5,0,0,1-1.05-.06l-.94-.08-1.81-.2c-1.2-.14-2.38-.29-3.55-.46-2.35-.34-4.66-.74-7-1.17-4.59-.86-9.12-1.86-13.62-3l-3.36-.85-1.61-.41a.277.277,0,0,1-.14,0h-.55a2.707,2.707,0,0,0-.38.06,5.239,5.239,0,0,0-.92.34,9.5,9.5,0,0,0-2,1.28,12.332,12.332,0,0,0-4.45,9v.37a4.75,4.75,0,0,1-9.48.47,20.126,20.126,0,0,1,1.68-9.6,23.564,23.564,0,0,1,5.25-7.57,20.24,20.24,0,0,1,4-2.93,15.958,15.958,0,0,1,2.5-1.14,13.019,13.019,0,0,1,1.46-.41l.74-.17.84-.09a10.492,10.492,0,0,1,1.69-.07,12.224,12.224,0,0,1,1.81.2l1.73.36,3.27.67c4.37.87,8.75,1.64,13.12,2.26,2.18.31,4.36.59,6.53.8,1.08.12,2.16.21,3.23.29l1.58.1,1.41.05h.45a6,6,0,1,1-.47,12h0Z" fill="#00aee0"/></g></g>
</g>
</g>

              </svg>