<svg id="education_popularity" data-name="education popularity" xmlns="http://www.w3.org/2000/svg" viewBox="0 0 800 800"><title>education_popularity</title><polygon points="734.26 670.96 71.14 670.96 402.7 123.19 734.26 670.96" style="fill:#00aee0;"/><path d="M560.7,548.86c-1.76-8.23-2.11-16.38-1-23a27.15,27.15,0,0,1,3.24-9.38c-24.21,5.11-48.54,14.41-48.54,14.41,14-83.66-34.94-104.27-69.83-101.7,34.85,45.7-42.51,153.17-42.51,153.17.07-89.41-36.36-132.57-60.26-151.26-31.34,7.18-62.09,34-51.09,99.79,0,0-24.33-9.3-48.54-14.41a27.15,27.15,0,0,1,3.24,9.38c1.14,6.58.79,14.73-1,23-2.47,11.46-8.09,24.43-16.66,29.42,64.18,23.21,91.09,18.54,103-.27,1,28.75.35,61.42-4.38,92.87L478.8,671c-4.75-31.48-5.43-64.19-4.4-93,11.87,18.82,38.77,23.49,103,.28C568.8,573.29,563.17,560.32,560.7,548.86ZM331.34,574.21a.74.74,0,0,1-.81.65.72.72,0,0,1-.64-.57v0c-.36-1.74-.65-3.48-.94-5.21l-.77-5.21c-.51-3.48-.92-7-1.35-10.42q-1.18-10.42-2.12-20.85c-.64-7-1.29-13.9-1.88-20.87s-1.16-13.95-1.58-20.95v0a.9.9,0,0,1,.84-.95.89.89,0,0,1,.91.65,204.27,204.27,0,0,1,4.61,20.65q1.81,10.4,2.92,20.91c.74,7,1.3,14,1.46,21.06A166.13,166.13,0,0,1,331.34,574.21Zm152.82-41.67-.35,5.39-.11,1.34-.16,1.34-.32,2.68-.35,2.67-.17,1.34-.25,1.32-1,5.29c-.3,1.77-.77,3.5-1.22,5.24s-.88,3.47-1.37,5.19-1.08,3.41-1.66,5.1-1.17,3.38-1.8,5a.89.89,0,0,1-1.72-.43v0c.46-3.53,1.09-7,1.64-10.45.21-1.75.47-3.48.71-5.22s.51-3.46.67-5.2l.58-5.21.15-1.29.09-1.31.2-2.6c.34-3.47.44-6.94.59-10.41.16-6.93.06-13.86-.42-20.77-.15-1.73-.23-3.47-.44-5.19-.09-.86-.18-1.72-.25-2.59l-.33-2.58c-.43-3.45-1-6.92-1.73-10.31l0-.05a.73.73,0,0,1,1.35-.52,49.58,49.58,0,0,1,4.14,10.06c.26.87.52,1.74.75,2.61s.43,1.76.63,2.64c.45,1.76.71,3.54,1,5.32A108.52,108.52,0,0,1,484.16,532.54Z" style="fill:#04294f;"/><path d="M402.08,582.4s77.36-107.47,42.51-153.17a64.61,64.61,0,0,0-18.95,4.14,43.63,43.63,0,0,0,.18,6,2.53,2.53,0,0,1,0,.61c16.22,28.13-10.7,81.56-10.7,81.56-5.42-51.83-24.5-75.75-29.08-80.81a5.39,5.39,0,0,1-1-1s0,0,0,0a3.48,3.48,0,0,1-.13-3.93c.36-.8.69-1.59,1-2.4-10.83-4.3-27.57-6-44.15-2.19C365.72,449.83,402.15,493,402.08,582.4Z" style="fill:#ffb400;"/><path d="M425.84,440c-.18,5.18-10.24,5.15-20.31,5.15-8.29,0-16.16-1.59-19.47-4.4,4.58,5.06,23.66,29,29.08,80.81C415.14,521.52,442.06,468.09,425.84,440Z" style="fill:#fff;"/><path d="M220.25,571.56c5.77,0,12.57-10.55,15.58-24.55,3.18-14.79.93-27.81-5-29.1a5.23,5.23,0,0,0-1-.1c-5.77,0-12.56,10.56-15.57,24.56-3.18,14.79-.93,27.81,5,29.09A4.47,4.47,0,0,0,220.25,571.56Z" style="fill:#04294f;"/><path d="M244.45,548.86c1.77-8.23,2.12-16.38,1-23a27.15,27.15,0,0,0-3.24-9.38,14.63,14.63,0,0,0-9.53-7.23,14,14,0,0,0-2.82-.29h0c-12.85,0-21.07,17-24.19,31.52-1.77,8.23-2.12,16.38-1,23,2.16,12.52,8.93,15.78,12.77,16.6a13.28,13.28,0,0,0,2.81.3,14.88,14.88,0,0,0,7.54-2.1C236.36,573.29,242,560.32,244.45,548.86Zm-30.18-6.49c3-14,9.8-24.56,15.57-24.56a5.23,5.23,0,0,1,1,.1c5.95,1.29,8.2,14.31,5,29.1-3,14-9.81,24.55-15.58,24.55a4.47,4.47,0,0,1-1-.1C213.34,570.18,211.09,557.16,214.27,542.37Z" style="fill:#fff;"/><path d="M575.31,517.81a5.21,5.21,0,0,0-1,.1c-6,1.29-8.2,14.31-5,29.1,3,14,9.81,24.55,15.58,24.55a4.41,4.41,0,0,0,1-.1c6-1.28,8.21-14.3,5-29.09C587.88,528.37,581.08,517.81,575.31,517.81Z" style="fill:#04294f;"/><path d="M599.51,540.52C596.38,526,588.17,509,575.31,509a14.06,14.06,0,0,0-2.82.29,14.63,14.63,0,0,0-9.53,7.23,27.15,27.15,0,0,0-3.24,9.38c-1.13,6.58-.78,14.73,1,23,2.47,11.46,8.1,24.43,16.67,29.42a14.87,14.87,0,0,0,7.53,2.1,13.38,13.38,0,0,0,2.82-.3c3.84-.82,10.61-4.08,12.77-16.6C601.62,556.9,601.28,548.75,599.51,540.52Zm-13.65,30.94a4.41,4.41,0,0,1-1,.1c-5.77,0-12.56-10.55-15.58-24.55-3.17-14.79-.93-27.81,5-29.1a5.21,5.21,0,0,1,1-.1c5.77,0,12.57,10.56,15.58,24.56C594.07,557.16,591.82,570.18,585.86,571.46Z" style="fill:#fff;"/><path d="M482,505.62q-.3-1.32-.63-2.64c-.23-.87-.49-1.74-.75-2.61a49.58,49.58,0,0,0-4.14-10.06.73.73,0,0,0-1.35.52l0,.05c.73,3.39,1.3,6.86,1.73,10.31l.33,2.58c.07.87.16,1.73.25,2.59.21,1.72.29,3.46.44,5.19.48,6.91.58,13.84.42,20.77-.15,3.47-.25,6.94-.59,10.41l-.2,2.6-.09,1.31-.15,1.29-.58,5.21c-.16,1.74-.42,3.47-.67,5.2s-.5,3.47-.71,5.22c-.55,3.46-1.18,6.92-1.64,10.45v0a.89.89,0,0,0,1.72.43c.63-1.66,1.22-3.35,1.8-5s1.16-3.38,1.66-5.1.92-3.46,1.37-5.19.92-3.47,1.22-5.24l1-5.29.25-1.32.17-1.34.35-2.67.32-2.68.16-1.34.11-1.34.35-5.39a108.52,108.52,0,0,0-1.14-21.6C482.7,509.16,482.44,507.38,482,505.62Z" style="fill:#fff;"/><path d="M330.53,532q-1.09-10.5-2.92-20.91A204.27,204.27,0,0,0,323,490.44a.89.89,0,0,0-.91-.65.9.9,0,0,0-.84.95v0c.42,7,1,14,1.58,20.95s1.24,13.92,1.88,20.87,1.33,13.9,2.12,20.85c.43,3.47.84,6.94,1.35,10.42l.77,5.21c.29,1.73.58,3.47.94,5.21v0a.72.72,0,0,0,.64.57.74.74,0,0,0,.81-.65,166.13,166.13,0,0,0,.65-21.15C331.83,546,331.27,539,330.53,532Z" style="fill:#fff;"/><g id="_Groupe_" data-name="&lt;Groupe&gt;"><path d="M390.55,332.84a4.21,4.21,0,0,0,0,6.25,1.24,1.24,0,0,0,2-1v-4.26A1.24,1.24,0,0,0,390.55,332.84Z" style="fill:none;"/><path d="M405.2,342.79a10.93,10.93,0,0,0-3-.4,12.62,12.62,0,0,0-1.51.07,8.64,8.64,0,0,0-1.52.33,1.45,1.45,0,0,0-.75.57,1.08,1.08,0,0,0,.75,1.56,7.12,7.12,0,0,0,1.52.32,10.83,10.83,0,0,0,1.51.08,11.32,11.32,0,0,0,3-.4,1.43,1.43,0,0,0,.83-.64C406.34,343.7,406,343,405.2,342.79Z" style="fill:none;"/><path d="M495.56,391.31l-3.94,0c-8.15.07-26.55.28-44,.28-14,0-18.33-6.14-19.66-13.82h0a53.41,53.41,0,0,1-.58-8.93,4.25,4.25,0,0,1,4.25-4.25h63.92c7.76,0,8-11.69-.48-11.69.2-2.79.36-5.69.48-8.66.7-15.8.44-26.44.44-26.44,0-6.65-.13-13-.28-18.42-.26-10.91-.64-18.42-.64-18.42-36.54,0-54,20.32-78.42,27.83-.61.19-1.2.37-1.82.54-6.92,2.5-8.23,9.29-8.3,27.45a2.07,2.07,0,0,1-1.54,2,11.87,11.87,0,0,1-2.82.3,11.06,11.06,0,0,1-3-.35,2,2,0,0,1-1.47-2V326.36c0-2-14.72-5-14.72,10,0,6.56,2.86,9.25,6.09,10.19,0,0,10.91,34.68,1.75,71.72a110.6,110.6,0,0,1-4.9,15.07c-.33.81-.66,1.6-1,2.4a3.48,3.48,0,0,0,.13,3.93s0,0,0,0,.42.41,1,1c3.31,2.81,11.18,4.4,19.47,4.4,10.07,0,20.13,0,20.31-5.15a2.53,2.53,0,0,0,0-.61,46.58,46.58,0,0,1,2.34-19.58c2.38.34,4.92.66,7.58,1,21.5,2.4,50.2,3.16,55.31-1.47s5-16.28,5-16.28C503.82,403,504,391.31,495.56,391.31Zm-103-53.22a1.24,1.24,0,0,1-2,1,4.21,4.21,0,0,1,0-6.25,1.24,1.24,0,0,1,2,1ZM406,344.28a1.43,1.43,0,0,1-.83.64,11.32,11.32,0,0,1-3,.4,10.83,10.83,0,0,1-1.51-.08,7.12,7.12,0,0,1-1.52-.32,1.08,1.08,0,0,1-.75-1.56,1.45,1.45,0,0,1,.75-.57,8.64,8.64,0,0,1,1.52-.33,12.62,12.62,0,0,1,1.51-.07,10.93,10.93,0,0,1,3,.4C406,343,406.34,343.7,406,344.28Z" style="fill:#ffb400;"/><path d="M491.62,380.17v11.17c-8.15.07-26.55.28-44,.28-14,0-18.33-6.14-19.66-13.82h61.24A2.37,2.37,0,0,1,491.62,380.17Z" style="fill:#fff;"/><path d="M482.15,364.62v13.17H428a53.41,53.41,0,0,1-.58-8.93,4.25,4.25,0,0,1,4.25-4.25Z" style="fill:#fff;"/><path d="M475.82,321.89c0,1.15.06,2.27.13,3.38C475.88,324.16,475.84,323,475.82,321.89Z" style="fill:#04294f;"/><path d="M455.3,326.07c0-.43.06-.86.08-1.29C455.36,325.22,455.33,325.65,455.3,326.07Z" style="fill:#04294f;"/><path d="M455.17,327.46c.05-.46.08-.92.13-1.39l-.12,1.39Z" style="fill:#04294f;"/><path d="M419.77,209.13c6.46-2,8.14,2.22,8,4.75a2.71,2.71,0,0,0-3.56-2.59c-21.29,6.93-54.6,13-63.4,14.55a2.72,2.72,0,0,0-2.24,2.57c-.79,20.42-9.27,50.48-12.59,61.53a2.74,2.74,0,0,0,2.89,3.5c-3.76.66-8.87-.84-7.34-5.66s4.08-13.68,6.47-23.69c.41-1.72.82-3.48,1.21-5.26,2.45-11,4.53-22.89,4.9-32.59a2.71,2.71,0,0,1,2.24-2.55C365.18,222.15,398.44,215.91,419.77,209.13Z" style="fill:#fff;"/><path d="M424.24,211.29c-21.29,6.93-54.6,13-63.4,14.55a2.72,2.72,0,0,0-2.24,2.57c-.79,20.42-9.27,50.48-12.59,61.53a2.74,2.74,0,0,0,2.89,3.5l.26,0c8.62-1.67,19.36-4.32,25.15-5.78a40,40,0,0,1-8.48-8.76,58.66,58.66,0,0,0,9.86-.3C396.21,276.08,401,261.48,420.4,244c.94-.85,1.88-1.64,2.84-2.39,2.45-8.56,4-21.29,4.55-27.52a1.85,1.85,0,0,0,0-.24A2.71,2.71,0,0,0,424.24,211.29Z" style="fill:#04294f;"/><path d="M405.2,342.79c.77.24,1.14.91.83,1.49a1.43,1.43,0,0,1-.83.64,11.32,11.32,0,0,1-3,.4,10.83,10.83,0,0,1-1.51-.08,7.12,7.12,0,0,1-1.52-.32,1.08,1.08,0,0,1-.75-1.56,1.45,1.45,0,0,1,.75-.57,8.64,8.64,0,0,1,1.52-.33,12.62,12.62,0,0,1,1.51-.07A10.93,10.93,0,0,1,405.2,342.79Z" style="fill:#ff3a00;"/><path d="M392.56,333.83v4.26a1.24,1.24,0,0,1-2,1,4.21,4.21,0,0,1,0-6.25A1.24,1.24,0,0,1,392.56,333.83Z" style="fill:#04294f;"/><path d="M385.1,439.68c.07.08.42.41,1,1A5.39,5.39,0,0,1,385.1,439.68Z" style="fill:#ffb400;"/><path d="M349.24,258.83c-.39,1.78-.8,3.54-1.21,5.26-29.15.91-8.83,56-39.5,60.28,4.53-3,5.46-9.14,5.46-9.14-6.85,1.93-13.68-1-13.68-1C328.34,309.91,313.54,258.83,349.24,258.83Z" style="fill:#ffb400;"/></g><path d="M432.2,377.12c4.76-.58,9.51-.89,14.26-1.13,2.38-.11,4.76-.22,7.13-.26l3.57-.09,3.56-.05c4.76,0,9.51,0,14.26.26q3.57.18,7.13.51c2.38.22,4.76.48,7.13.89a.55.55,0,0,1,.45.63.55.55,0,0,1-.45.45c-2.37.41-4.75.67-7.13.89s-4.75.39-7.13.51c-4.75.24-9.5.29-14.26.25l-3.56,0-3.57-.09c-2.37-.05-4.75-.15-7.13-.26-4.75-.25-9.5-.55-14.26-1.13a.68.68,0,0,1,0-1.34Z" style="fill:#04294f;"/><path d="M477.85,337.83A10.76,10.76,0,0,0,476,335.6a10.55,10.55,0,0,0-2.37-1.61,9.5,9.5,0,0,0-2.68-.89,9.86,9.86,0,0,0-2.76-.13l-.31,0a27.92,27.92,0,0,0,.91-4.6,43.32,43.32,0,0,0,.26-6c0-2-.16-4-.39-6a36.45,36.45,0,0,0-1.14-6,.71.71,0,0,0-.47-.48.7.7,0,0,0-.86.48,36.45,36.45,0,0,0-1.14,6c-.23,2-.36,4-.39,6a44.91,44.91,0,0,0,.25,6,27.75,27.75,0,0,0,1.07,5.05,8.45,8.45,0,0,0-2.67,1.5.7.7,0,0,0-.2.74.68.68,0,0,0,.86.42h0a8.66,8.66,0,0,1,7.85,1,7.62,7.62,0,0,1,3.27,6.29,7.81,7.81,0,0,1-3.3,6.21,9.25,9.25,0,0,1-7.83,1.27h0a.58.58,0,0,0-.55.16.56.56,0,0,0,0,.79,8.48,8.48,0,0,0,4.83,2.15,9.83,9.83,0,0,0,5.5-1A10.3,10.3,0,0,0,478,349a10.74,10.74,0,0,0-.13-11.2Z" style="fill:#ff3a00;"/><path d="M370.83,276.3a26,26,0,0,1-4.24-3.45,25.57,25.57,0,0,1-1.86-2,4.27,4.27,0,0,1-.47-.63,3.41,3.41,0,0,1-.42-.83,3.91,3.91,0,0,1-.25-.85,4.27,4.27,0,0,1-.1-.85,9.45,9.45,0,0,1,.38-3.06,23.41,23.41,0,0,1,.95-2.71A37.25,37.25,0,0,1,367.4,257a78.33,78.33,0,0,1,6.34-8.8c1.15-1.39,2.32-2.75,3.53-4.09s2.49-2.62,3.85-3.88a61.11,61.11,0,0,1,8.82-6.54,53.46,53.46,0,0,1,9.85-4.88,21.67,21.67,0,0,1,5.65-1.26,8.81,8.81,0,0,1,3.21.34c.27.09.55.21.82.33a8.61,8.61,0,0,1,.79.46c.39.28.77.57,1.13.88a27.09,27.09,0,0,1,6.53,8.81.54.54,0,0,1-.24.73A.56.56,0,0,1,417,239h0a34.65,34.65,0,0,0-7.34-7.1c-.34-.23-.69-.43-1-.63l-.38-.16-.43-.11a6.45,6.45,0,0,0-2.05,0,18.64,18.64,0,0,0-4.58,1.44,63.08,63.08,0,0,0-8.92,5c-1.44.93-2.87,1.91-4.25,2.92a45.18,45.18,0,0,0-4,3.14A110.4,110.4,0,0,0,370.41,259a43.3,43.3,0,0,0-2.69,4.3,18.81,18.81,0,0,0-1,2.21,8,8,0,0,0-.51,2.15,2.45,2.45,0,0,0,0,.47,1.18,1.18,0,0,0,.07.43,1,1,0,0,0,.13.37,2,2,0,0,0,.27.46c.47.71,1,1.41,1.49,2.09a31.15,31.15,0,0,0,3.48,3.79h0a.66.66,0,0,1,0,.94A.67.67,0,0,1,370.83,276.3Z" style="fill:#fff;"/><path d="M385.73,436.16a2.61,2.61,0,0,0,.28,2.29,6.06,6.06,0,0,0,1.9,1.68,22.46,22.46,0,0,0,5.6,2.15A51.58,51.58,0,0,0,406,443.72c2.16,0,4.34-.07,6.46-.19a53.47,53.47,0,0,0,6.22-.62,10.56,10.56,0,0,0,4.85-1.76,2.76,2.76,0,0,0,.6-.76,3.12,3.12,0,0,0,.19-.49,4.18,4.18,0,0,0,.09-.68,25.22,25.22,0,0,1,.5-3.47.76.76,0,0,1,.9-.56.73.73,0,0,1,.55.53h0c.31,1.1.57,2.17.89,3.23a7.48,7.48,0,0,1,.19,1,5.1,5.1,0,0,1,0,1.17,5.67,5.67,0,0,1-.77,2.28,7,7,0,0,1-1.47,1.75,9.61,9.61,0,0,1-1.7,1.23,17,17,0,0,1-3.53,1.55,44.84,44.84,0,0,1-14,1.64A39.39,39.39,0,0,1,392,446.84a20.46,20.46,0,0,1-6.33-3.87,8.08,8.08,0,0,1-2.26-3.49,4.93,4.93,0,0,1-.11-2.26,4.82,4.82,0,0,1,.89-1.91.9.9,0,0,1,1.58.8Z" style="fill:#04294f;"/><path d="M517.49,248.06h0s-6.47-19.55-20.39-26.38a31,31,0,0,1,1.77,6c-9.25-4.74-21.81-7.1-38.4-5.49a26.5,26.5,0,0,1,13.14,8.67,59.63,59.63,0,0,0-17.27-1.43h0a130,130,0,0,0-26.42,2.36,22,22,0,0,0,2.45,4,56.16,56.16,0,0,0-9.14,5.88c-1,.75-1.9,1.54-2.84,2.39-19.39,17.45-24.19,32-44.71,34.53a58.66,58.66,0,0,1-9.86.3,40,40,0,0,0,8.48,8.76h0a20.19,20.19,0,0,0,4.36,2.45,19,19,0,0,1-9,.9,20.15,20.15,0,0,0,12.41,6.73S377,305.48,359,306.07c0,0,6.51,3.11,17.61,4.87a23.86,23.86,0,0,1-10.11,15.16s8,.26,12.62-4.59c-.28.91-9.43,30-24.19,39.83a25.35,25.35,0,0,0,18.55-5.92s-.53,13.28-8.55,20.25c0,0,15.52-2,21.31-11.84,0,0-4.35,34.86-26.58,58.14,0,0,18.15-3.29,27.23-15,0,0-1,10.15-6.84,15.67,0,0,6.89-.51,10.87-4.38,9.16-37-1.75-71.72-1.75-71.72-3.23-.94-6.09-3.63-6.09-10.19,0-15,14.72-12,14.72-10V336.8a2,2,0,0,0,1.47,2,11.06,11.06,0,0,0,3,.35,11.87,11.87,0,0,0,2.82-.3,2.07,2.07,0,0,0,1.54-2c.07-18.16,1.38-24.95,8.3-27.45a15,15,0,0,1,1.82-.54c9.07-2.79,17.18-7.36,25.68-12,11.26-5.63,1.59,7.46,1.59,7.46,15.55-5.67,10.47-13.88,24.05-19.14A87.7,87.7,0,0,1,495.1,281s.38,7.51.64,18.42C514,299.41,526.29,270.6,517.49,248.06Z" style="fill:#ff3a00;"/><path d="M237.06,529.71c-10.31-3.39-14.78-13-17.25-22.36l-24.42-7.68c5.27,6,2.51,13-22.24.93h0c-3.46-1.65-7-3.18-10.48-4.64q-8.88-3.66-18-6.69t-18.33-5.62a187,187,0,0,0-18.81-4.21,6.8,6.8,0,0,0-4.33,12.69,189.2,189.2,0,0,0,17.46,8.16q8.88,3.66,17.94,6.76c6,2.09,12.13,4,18.31,5.68,2.63.72,5.28,1.4,8,2l-22.21,38.12c9.93,8.32,29.73,13.27,49.4,14.24,14.63.71,17.95-6.88,36.55-1.92C239.87,546.89,237.06,529.71,237.06,529.71Z" style="fill:#ffb400;"/><path d="M151.32,505.56a13.51,13.51,0,0,1,.15-2.57,18.93,18.93,0,0,1,.51-2.4,13,13,0,0,1,.82-2.31,8.06,8.06,0,0,1,1.49-2.18h0a.45.45,0,0,1,.61,0,.54.54,0,0,1,.1.16,6.81,6.81,0,0,1,.31,2.68,10.13,10.13,0,0,1-.53,2.5,12.94,12.94,0,0,1-1,2.35,8.83,8.83,0,0,1-1.6,2.12.48.48,0,0,1-.68,0,.55.55,0,0,1-.14-.31Z" style="fill:#ff3a00;"/><path d="M129.22,497.46a11.56,11.56,0,0,1,.16-1.92,15.93,15.93,0,0,1,.39-1.72,8.57,8.57,0,0,1,.61-1.64,6,6,0,0,1,1.21-1.64h0a.46.46,0,0,1,.66,0l.05.07a4,4,0,0,1,.6,2.1,5.54,5.54,0,0,1-.36,2,7,7,0,0,1-1,1.8A5,5,0,0,1,130,498a.51.51,0,0,1-.68-.2.65.65,0,0,1-.06-.23Z" style="fill:#ff3a00;"/><path d="M124.57,494.07a3.42,3.42,0,0,1-.3-1,2.06,2.06,0,0,1,0-.79,1.38,1.38,0,0,1,.35-.69,3.11,3.11,0,0,1,1-.66h0a.69.69,0,0,1,.68.09,1.88,1.88,0,0,1,.76,1.12,1.71,1.71,0,0,1-.1,1.05,2.32,2.32,0,0,1-.62.88,2.18,2.18,0,0,1-1.15.55.61.61,0,0,1-.66-.33Z" style="fill:#ff3a00;"/><path d="M174.66,617.48c.35,0,6.54-.06,8-2.16.08-2.94.32-9,.48-12a413.81,413.81,0,0,1,4.27-45.59c1.47-10.5,3.52-20.87,5.87-31.17a28.15,28.15,0,0,0-4.28-2.44c-.2.83-.38,1.68-.57,2.52-2,9.08-3.83,18.19-5.46,27.35-3.3,18.31-5.89,36.76-7.4,55.33a.69.69,0,0,1-.63.61h-.09a.67.67,0,0,1-.62-.68,437.75,437.75,0,0,1,5.2-55.85c1.45-9.25,3.09-18.46,5-27.62.22-1.09.45-2.16.69-3.25A48.54,48.54,0,0,0,179.4,521c-9.19-2-17.5-1.09-20.87,1.88-3.74,14.32-8,28.51-12.77,42.58Q140.87,579.82,135,594c-2,4.71-4,9.42-6.2,14.08-1.21,2.63-3.65,7.5-5.22,10.57,3.11-4.78,14.59-6.46,27.4-3.7,13.15,2.83,23.09,9.34,23.5,15.08,0-2,0-5,0-7.59,0-1.37,0-2.63.07-3.56C174.62,618.41,174.63,617.94,174.66,617.48Z" style="fill:#ff3a00;"/><path d="M197.78,530.27l-.24.75a20.68,20.68,0,0,0-.59,2.68c-.1.6-.17,1.21-.23,1.82s-.09,1.08-.1,1.63c0,.15,0,.32,0,.48a17.14,17.14,0,0,0,.4,4,.73.73,0,0,0,1.31.24h0a17.79,17.79,0,0,0,1.84-3.64,25.05,25.05,0,0,0,1.09-3.75,18.62,18.62,0,0,0,.47-3.87,11.64,11.64,0,0,0-.66-4.1v0a.56.56,0,0,0-.16-.24.62.62,0,0,0-.89,0,9.74,9.74,0,0,0-1.45,2.14c-.24.47-.45.95-.65,1.43C197.87,530,197.82,530.14,197.78,530.27Z" style="fill:#ff3a00;"/><path d="M186.27,497.18c1.55.34,3,.74,4.47,1.18,2.3-9.05,4.76-18,7.53-27s5.75-17.82,9-26.59c1.62-4.39,3.38-8.74,5.17-13.07.89-2.17,1.79-4.32,2.73-6.48s1.93-4.26,2.91-6.39c2-4.25,4-8.5,6.27-12.6l.7-1.28,2.65-4.85.19-.36c0-.08.08-.16.11-.26a1.74,1.74,0,0,0,.09-.59,4.52,4.52,0,0,0-.3-1.41,11.56,11.56,0,0,0-1.7-2.84h0a.54.54,0,0,1,.1-.76l0,0a.54.54,0,0,1,.69.07,12.67,12.67,0,0,1,2.25,2.93,5.1,5.1,0,0,1,.62,1.93,3.66,3.66,0,0,1-.05,1.14,2.58,2.58,0,0,1-.18.58c-.06.17-.11.28-.17.43-1,2.14-2,4.24-3,6.34s-2,4.19-2.88,6.33-1.83,4.28-2.7,6.42c-3.54,8.61-6.8,17.3-9.85,26.08-1.54,4.38-3,8.79-4.42,13.22s-2.83,8.85-4.16,13.31c-2.64,8.9-5.16,17.86-7.48,26.85l-.09.38a33.55,33.55,0,0,1,4.53,2.38c.34-1.24.66-2.49,1-3.74,5.21-19.5,11.26-38.77,18.39-57.75q5.34-14.24,11.64-28.21c2.14-4.65,4.31-9.29,6.67-13.88,1.56-3.1,4.13-7.8,5.87-10.87-1.42,1.74-8.19,3.78-20.7,2.84a50.36,50.36,0,0,0-16.59-6.5c-14.2-3.05-26.75-.65-28,5.38a4.24,4.24,0,0,0-.09,1.12h0c.05,3.23.08,8,0,11.16-.12,5.17-.4,10.29-.72,15.39q-1.07,15.3-3.13,30.37c-2.45,18.15-5.79,36.08-9.85,53.86l.1,0C164.93,496.66,174.94,494.75,186.27,497.18Z" style="fill:#ff3a00;"/><path d="M243,387.78l0,.05c-1.74,3.07-4.31,7.77-5.87,10.87-2.36,4.59-4.53,9.23-6.67,13.88q-6.3,14-11.64,28.21c-7.13,19-13.18,38.25-18.39,57.75-.33,1.25-.65,2.5-1,3.74a33.55,33.55,0,0,0-4.53-2.38l.09-.38c2.32-9,4.84-17.95,7.48-26.85,1.33-4.46,2.74-8.89,4.16-13.31s2.88-8.84,4.42-13.22c3-8.78,6.31-17.47,9.85-26.08.87-2.14,1.78-4.29,2.7-6.42s1.86-4.22,2.88-6.33,2-4.2,3-6.34c.06-.15.11-.26.17-.43a2.58,2.58,0,0,0,.18-.58,3.66,3.66,0,0,0,.05-1.14,5.1,5.1,0,0,0-.62-1.93,12.67,12.67,0,0,0-2.25-2.93.54.54,0,0,0-.69-.07l0,0a.54.54,0,0,0-.1.76h0a11.56,11.56,0,0,1,1.7,2.84,4.52,4.52,0,0,1,.3,1.41,1.74,1.74,0,0,1-.09.59c0,.1-.08.18-.11.26l-.19.36L225.07,405l-.7,1.28c-2.27,4.1-4.32,8.35-6.27,12.6-1,2.13-1.95,4.25-2.91,6.39s-1.84,4.31-2.73,6.48c-1.79,4.33-3.55,8.68-5.17,13.07q-4.9,13.15-9,26.59c-2.77,8.92-5.23,17.91-7.53,27-1.42-.44-2.92-.84-4.47-1.18-11.33-2.43-21.34-.52-22.38,4.29l-.1,0c-.43,1.9-.88,3.8-1.33,5.7q-1.87,7.88-3.93,15.69c3.37-3,11.68-3.86,20.87-1.88a48.54,48.54,0,0,1,5.75,1.61c-.24,1.09-.47,2.16-.69,3.25-1.9,9.16-3.54,18.37-5,27.62a437.75,437.75,0,0,0-5.2,55.85.67.67,0,0,0,.62.68H175a.69.69,0,0,0,.63-.61c1.51-18.57,4.1-37,7.4-55.33,1.63-9.16,3.49-18.27,5.46-27.35.19-.84.37-1.69.57-2.52a28.15,28.15,0,0,1,4.28,2.44c-2.35,10.3-4.4,20.67-5.87,31.17a413.81,413.81,0,0,0-4.27,45.59c-.16,2.92-.4,9-.48,12-1.5,2.1-7.69,2.16-8,2.16,0,.46,0,.93,0,1.39,0,.93-.05,2.19-.07,3.56.78.05,11.18.47,13-3.34.08-3.1.34-9.55.53-12.63.3-5.44.42-19.24,4.67-48.16q1-7.17,2.44-14.28c-.05.31-.09.6-.13.89,0,0,15.76-.21,24.46-6.76,0,0-8.6-.73-13.41-5.19,0,0,9.62-4.57,11.58-13.58a35.52,35.52,0,0,1-18,4.39q1.26-5.16,2.61-10.27.89-3.4,1.82-6.8c1-3.65,2-7.3,3-10.94a617.33,617.33,0,0,1,20.46-61q5.94-15,13-29.79c1.64-3.39,3.3-6.77,5-10.13ZM200,526.32a.62.62,0,0,1,.89,0,.56.56,0,0,1,.16.24v0a11.64,11.64,0,0,1,.66,4.1,18.62,18.62,0,0,1-.47,3.87,25.05,25.05,0,0,1-1.09,3.75,17.79,17.79,0,0,1-1.84,3.64h0a.73.73,0,0,1-1.31-.24,17.14,17.14,0,0,1-.4-4c0-.16,0-.33,0-.48,0-.55,0-1.09.1-1.63s.13-1.22.23-1.82a20.68,20.68,0,0,1,.59-2.68l.24-.75c0-.13.09-.25.14-.38.2-.48.41-1,.65-1.43A9.74,9.74,0,0,1,200,526.32Z" style="fill:#04294f;"/><path d="M243,387.76l0,.07,0-.05Z" style="fill:#ff3a00;"/><path d="M174.5,630v.82A3.75,3.75,0,0,0,174.5,630Z" style="fill:#ff3a00;"/><path d="M151,614.94c-12.81-2.76-24.29-1.08-27.4,3.7-.17.36-.35.69-.51,1h0a5,5,0,0,0-.21.69c-1.29,6,9.19,13.42,23.41,16.47s26.83.65,28.12-5.39a2.82,2.82,0,0,0,.09-.57V630C174.09,624.28,164.15,617.77,151,614.94Zm15.57,14.79c-.79,3.66-9.45,4.9-19.35,2.78s-17.28-6.83-16.49-10.49,9.45-4.91,19.35-2.77S167.36,626.07,166.57,629.73Z" style="fill:#04294f;"/><path d="M150.08,619.25c-9.9-2.14-18.56-.89-19.35,2.77s6.6,8.36,16.49,10.49,18.56.88,19.35-2.78S160,621.37,150.08,619.25Z" style="fill:#ff3a00;"/><path d="M123.09,619.63c.16-.3.34-.63.51-1A5.46,5.46,0,0,0,123.09,619.63Z" style="fill:#ff3a00;"/><path d="M176.76,529.76a7.31,7.31,0,0,0-.42-10.35,31,31,0,0,0-6.74-4.58,48,48,0,0,0-7.27-3.05,54.85,54.85,0,0,0-7.64-2,34.33,34.33,0,0,0-8.11-.57,7.26,7.26,0,0,0-4.33,12.69,28.22,28.22,0,0,0,3.55,2.65,7.36,7.36,0,0,0-3.55,12.57,23.88,23.88,0,0,0,2.3,1.9,7.48,7.48,0,0,0-3.33,12.48,25.4,25.4,0,0,0,5.53,4.09,39.18,39.18,0,0,0,6,2.69,33.38,33.38,0,0,0,6.37,1.6,22.39,22.39,0,0,0,6.9.08,7.5,7.5,0,0,0,4-2,7.58,7.58,0,0,0,.33-10.72c-.3-.32-.6-.61-.91-.89a7.45,7.45,0,0,0,4.29-12.69,20,20,0,0,0-1.86-1.62H172A7.33,7.33,0,0,0,176.76,529.76Z" style="fill:#ffb400;"/><path d="M169.23,532.85a18.59,18.59,0,0,1-6.07.45,27.17,27.17,0,0,1-5.94-1.1,25.42,25.42,0,0,1-5.54-2.33A16.75,16.75,0,0,1,147,526a.59.59,0,0,1,.1-.82.54.54,0,0,1,.42-.12h0a24.61,24.61,0,0,1,2.91.56c.94.22,1.86.47,2.76.72,1.8.52,3.57,1.12,5.32,1.72s3.51,1.17,5.29,1.74,3.57,1.13,5.43,1.75h0a.69.69,0,0,1,.44.88A.68.68,0,0,1,169.23,532.85Z" style="fill:#ff3a00;"/><path d="M149.75,508.53a4.54,4.54,0,0,1,1.92-1,5.53,5.53,0,0,1,1.84-.15,3.82,3.82,0,0,1,1.73.55,3.78,3.78,0,0,1,1.48,1.75.89.89,0,0,1-.23,1l-.06.05a4.37,4.37,0,0,1-1.9,1,3.62,3.62,0,0,1-1.67,0,5.35,5.35,0,0,1-1.58-.6,5.65,5.65,0,0,1-1.53-1.25l-.07-.08a.88.88,0,0,1,.07-1.25Z" style="fill:#ff3a00;"/><path d="M167.3,547.24a16.64,16.64,0,0,1-5.89.65,23.76,23.76,0,0,1-5.81-1,23,23,0,0,1-5.36-2.33,19.17,19.17,0,0,1-2.39-1.74,14.79,14.79,0,0,1-2-2.22.58.58,0,0,1,.53-.92h.05a19.33,19.33,0,0,1,2.81.61c.89.22,1.77.48,2.63.74,1.72.52,3.41,1.1,5.1,1.68s3.36,1.12,5.07,1.64l5.26,1.58h0a.7.7,0,0,1,.47.87A.69.69,0,0,1,167.3,547.24Z" style="fill:#ff3a00;"/><path d="M166.33,523.43c1.3-4.94,6.95-1.63,6.24,1.49C171.77,528.39,165.09,528.14,166.33,523.43Z" style="fill:#ff3a00;"/><path d="M163.11,538c1.3-4.94,6.95-1.63,6.23,1.49C168.55,543,161.87,542.72,163.11,538Z" style="fill:#ff3a00;"/><path d="M159.48,552.74c1.3-4.94,7-1.63,6.23,1.49C164.92,557.7,158.24,557.45,159.48,552.74Z" style="fill:#ff3a00;"/><path d="M149.05,512.81a17.85,17.85,0,0,1-.36,2.3c-.16.73-.35,1.44-.55,2.13a14.69,14.69,0,0,1-.73,2.08,8.51,8.51,0,0,1-1.27,2.07h0a.43.43,0,0,1-.61,0,.41.41,0,0,1-.1-.13,5.41,5.41,0,0,1-.54-2.53,7.78,7.78,0,0,1,.48-2.44,9.88,9.88,0,0,1,1.13-2.22,6.57,6.57,0,0,1,1.83-1.81.47.47,0,0,1,.66.14.49.49,0,0,1,.08.3Z" style="fill:#ff3a00;"/><path d="M148.61,530.46a8.52,8.52,0,0,1-.09,1.78,13.16,13.16,0,0,1-.34,1.59,6.77,6.77,0,0,1-.57,1.51,5.47,5.47,0,0,1-1.19,1.49h0a.48.48,0,0,1-.68-.05l0,0a3.58,3.58,0,0,1-.62-2,4.91,4.91,0,0,1,.32-1.87,6.39,6.39,0,0,1,.92-1.68,4.58,4.58,0,0,1,1.56-1.3.5.5,0,0,1,.67.23.7.7,0,0,1,.06.19Z" style="fill:#ff3a00;"/><path d="M152.69,515.64a3.57,3.57,0,0,1,.29,1.08,2.54,2.54,0,0,1,0,.84,1.45,1.45,0,0,1-.37.74,3,3,0,0,1-1.06.7l0,0a.69.69,0,0,1-.69-.09,2,2,0,0,1-.75-1.17,1.86,1.86,0,0,1,.12-1.1,2.41,2.41,0,0,1,1.81-1.52.59.59,0,0,1,.66.34Z" style="fill:#ff3a00;"/><path d="M144.69,544.51a3.43,3.43,0,0,1,.34,1,1.79,1.79,0,0,1,0,.73,1.08,1.08,0,0,1-.34.61,3.08,3.08,0,0,1-1,.59h0a.76.76,0,0,1-.69-.09,1.84,1.84,0,0,1-.77-1.05,1.5,1.5,0,0,1,.09-1A2.1,2.1,0,0,1,144,544a.6.6,0,0,1,.63.32Z" style="fill:#ff3a00;"/><path d="M148.88,546.87a5.94,5.94,0,0,1,.05,1.5,6.79,6.79,0,0,1-.22,1.3,4.11,4.11,0,0,1-.49,1.2,4.15,4.15,0,0,1-1.14,1.18h0a.53.53,0,0,1-.71-.09,2.82,2.82,0,0,1-.67-1.64,3.62,3.62,0,0,1,.24-1.57,4.72,4.72,0,0,1,.81-1.38,3.66,3.66,0,0,1,1.4-1,.53.53,0,0,1,.69.3l0,.1Z" style="fill:#ff3a00;"/><path d="M191.9,495.51c.56.65,1.15,1.26,1.69,1.93,1.1,1.31,2.18,2.67,3.18,4.12a100.36,100.36,0,0,1,5.75,9.33c.47.87.95,1.75,1.42,2.64h17c-.08-.78-.18-1.56-.3-2.33a46.73,46.73,0,0,0-1.75-7.16,48.2,48.2,0,0,0-6.8-13.41,42.9,42.9,0,0,0-5.08-5.91,38.67,38.67,0,0,0-6.18-5A33.52,33.52,0,0,0,186,474.33a6.83,6.83,0,0,0-4.64,12.37l.6.42a61.43,61.43,0,0,1,8.15,6.59C190.75,494.26,191.3,494.93,191.9,495.51Z" style="fill:#ffb400;"/><path d="M187.7,474.56s-2.27,2.83,2.32,4.23,4.53-2.31,4.53-2.31A30.08,30.08,0,0,0,187.7,474.56Z" style="fill:#ff3a00;"/><path d="M210.48,488.69a4,4,0,0,1-.8,1.82,5.93,5.93,0,0,1-1.37,1.28,4.54,4.54,0,0,1-1.7.7,3.46,3.46,0,0,1-2-.2.49.49,0,0,1-.25-.64v0a4.75,4.75,0,0,1,1.13-1.45,5.75,5.75,0,0,1,1.26-.86,10.75,10.75,0,0,1,1.37-.65,9.83,9.83,0,0,1,1.61-.49l.12,0a.51.51,0,0,1,.59.39A.54.54,0,0,1,210.48,488.69Z" style="fill:#ff3a00;"/><path d="M704.61,482.91a6.81,6.81,0,0,0-7.06-3.47,187.39,187.39,0,0,0-18.8,4.21q-9.27,2.53-18.33,5.62t-18,6.69c-3.53,1.46-7,3-10.48,4.64h0c-22.23,10.82-26.72,6.26-23.59.9,1-1.43,2.06-2.77,3.14-4.06.55-.67,1.13-1.28,1.69-1.93s1.16-1.25,1.79-1.8a60.79,60.79,0,0,1,8.15-6.59l.59-.42a6.83,6.83,0,0,0-4.64-12.37c-.56.06-1.13.15-1.69.24.05.06,2.21,2.84-2.32,4.22s-4.53-2.13-4.53-2.3a35.69,35.69,0,0,0-6.25,3.26,38.67,38.67,0,0,0-6.18,5,43.6,43.6,0,0,0-5.08,5.91,48.47,48.47,0,0,0-6.8,13.41c-.35,1.1-.67,2.2-1,3.31h0c-2.47,9.37-6.93,19-17.24,22.36,0,0-2.82,17.18,8.41,35.48,18.61-5,21.92,2.63,36.55,1.92,19.29-1,38.69-5.73,48.81-13.75l.5-.41.1-.08h0a18.08,18.08,0,0,0,1.46-1.33,7.49,7.49,0,0,0-.07-10.6,7.41,7.41,0,0,0-3.25-1.88,26.59,26.59,0,0,0,2.3-1.9,7.37,7.37,0,0,0-3.56-12.57,29,29,0,0,0,3.56-2.65,7.25,7.25,0,0,0-3.42-12.56c2.35-.75,4.7-1.52,7-2.33q9-3.12,17.93-6.76a189.2,189.2,0,0,0,17.46-8.16A6.79,6.79,0,0,0,704.61,482.91Zm-106.79,3a2.38,2.38,0,0,1,1.11-.37,2,2,0,0,1,.92.15,1.45,1.45,0,0,1,.71.57,1.94,1.94,0,0,1,.27,1.26.75.75,0,0,1-.37.59h0a2.53,2.53,0,0,1-1.15.39,1.22,1.22,0,0,1-.74-.21,1.81,1.81,0,0,1-.58-.56,2.87,2.87,0,0,1-.44-1v-.08A.69.69,0,0,1,597.82,485.94ZM594,490a.48.48,0,0,1,.18-.08,4.75,4.75,0,0,1,1.87-.05,5.88,5.88,0,0,1,1.67.5,4.64,4.64,0,0,1,1.45,1,3.59,3.59,0,0,1,1,1.69.49.49,0,0,1-.36.59h0a4.39,4.39,0,0,1-1.86,0,5.67,5.67,0,0,1-1.48-.6,9.51,9.51,0,0,1-1.33-.91,6.37,6.37,0,0,1-1.2-1.31l0,0A.53.53,0,0,1,594,490Zm17.71,28a.39.39,0,0,1-.21,0,5.61,5.61,0,0,1-2.43-1.94,8.25,8.25,0,0,1-1.31-2.76,10.68,10.68,0,0,1-.39-3,8.2,8.2,0,0,1,.56-3,.47.47,0,0,1,.62-.25.44.44,0,0,1,.25.25l0,0c.37.88.64,1.76.93,2.6l.81,2.46c.26.81.56,1.59.8,2.41a25.06,25.06,0,0,1,.69,2.67v0A.41.41,0,0,1,611.67,518Zm41.74-21.22a.49.49,0,0,1,.51-.49.4.4,0,0,1,.22.06,4.89,4.89,0,0,1,1.62,1.42,6.92,6.92,0,0,1,1,1.81,5.46,5.46,0,0,1,.36,2,4,4,0,0,1-.6,2.1.47.47,0,0,1-.64.14l-.07-.05v0a5.86,5.86,0,0,1-1.21-1.63,8.7,8.7,0,0,1-.62-1.65c-.15-.56-.28-1.12-.38-1.72a10.47,10.47,0,0,1-.16-1.91Zm-5,4.49a3.43,3.43,0,0,1,.31-1l.08-.17a.59.59,0,0,1,.65-.34,2.37,2.37,0,0,1,1.16.55,2.34,2.34,0,0,1,.61.88,1.66,1.66,0,0,1,.11,1.06,1.88,1.88,0,0,1-.76,1.11.69.69,0,0,1-.69.1l0,0a3.17,3.17,0,0,1-1-.65,1.44,1.44,0,0,1-.36-.69A2.34,2.34,0,0,1,648.45,501.31Zm-9.05,52.92c-.71-3.12,4.94-6.43,6.24-1.49C646.88,557.45,640.2,557.7,639.4,554.23Zm22-6.4a1.79,1.79,0,0,1,.12,1.1,2,2,0,0,1-.75,1.16.67.67,0,0,1-.69.09h0a3,3,0,0,1-1.06-.7,1.62,1.62,0,0,1-.37-.74,2.56,2.56,0,0,1-.05-.84,3.89,3.89,0,0,1,.29-1.08l.07-.16a.58.58,0,0,1,.66-.34,2.35,2.35,0,0,1,1.18.59A2.4,2.4,0,0,1,661.35,547.83Zm-25.58-8.33c-.71-3.12,4.94-6.43,6.24-1.49C643.25,542.72,636.57,543,635.77,539.5ZM653.44,532v-.08a.5.5,0,0,1,.54-.47.41.41,0,0,1,.19,0,4.43,4.43,0,0,1,1.55,1.3,6.1,6.1,0,0,1,.93,1.67,4.94,4.94,0,0,1,.32,1.87,3.67,3.67,0,0,1-.62,2,.49.49,0,0,1-.67.12l0,0v0a5.32,5.32,0,0,1-1.19-1.49,7.13,7.13,0,0,1-.58-1.51,13,13,0,0,1-.33-1.58A8.62,8.62,0,0,1,653.44,532Zm6-1.43a.61.61,0,0,1,.66-.35,2.44,2.44,0,0,1,1.18.6,2.55,2.55,0,0,1,.64.93,1.84,1.84,0,0,1,.11,1.09,2,2,0,0,1-.75,1.17.67.67,0,0,1-.69.09h0a3.19,3.19,0,0,1-1.06-.71,1.64,1.64,0,0,1-.37-.73,2.57,2.57,0,0,1,0-.84,3.52,3.52,0,0,1,.28-1.08Zm-1.18-5.24a.55.55,0,0,1-.17.64,38,38,0,0,1-7.59,4.53,44.8,44.8,0,0,1-8.44,2.93,30.72,30.72,0,0,1-9.14.84c-.21,0-.41,0-.62-.07a4.28,4.28,0,0,0-.4.52,6.87,6.87,0,0,0-1,2.08,6.21,6.21,0,0,0,.37,4.2,5.84,5.84,0,0,0,2.78,2.79,5.42,5.42,0,0,0,1.88.51,20,20,0,0,0,2.45.09,33.83,33.83,0,0,0,5-.49c1.69-.26,3.37-.62,5.06-1a99,99,0,0,0,10.17-3.18h0a.55.55,0,0,1,.71.33.56.56,0,0,1-.14.59c-.69.64-1.41,1.25-2.14,1.85s-1.54,1.1-2.35,1.58a34.69,34.69,0,0,1-5.07,2.52,32.05,32.05,0,0,1-5.48,1.64,29.86,29.86,0,0,1-5.8.6,24.87,24.87,0,0,1-3-.21l-.13,0c-.06.14-.12.28-.17.43a7.56,7.56,0,0,0-.43,1.92,7.33,7.33,0,0,0,.5,3.51,6.53,6.53,0,0,0,.84,1.5,8.63,8.63,0,0,0,1.16,1.36,9.36,9.36,0,0,0,1.52,1.2,8.14,8.14,0,0,0,1,.55,11.53,11.53,0,0,1,1.1.64l0,0a.6.6,0,0,1,.17.83.58.58,0,0,1-.29.22,9.41,9.41,0,0,1-1.31.38,5.77,5.77,0,0,1-1.41.14,7,7,0,0,1-2.92-.73,8.08,8.08,0,0,1-4-4.59,8.36,8.36,0,0,1,.14-6,7.21,7.21,0,0,1,1.4-2.18l-.5-.25a9.16,9.16,0,0,1-4.23-5.21,8.69,8.69,0,0,1,.48-6.45,8.44,8.44,0,0,1,1.63-2.22,9.16,9.16,0,0,1-2.26-1.32,9.56,9.56,0,0,1-3.13-4.57,8.93,8.93,0,0,1-.42-2.76,8.84,8.84,0,0,1,.39-2.75,8.93,8.93,0,0,1,1.2-2.51,10.07,10.07,0,0,1,.85-1.1c.32-.31.68-.68.95-.91a27.41,27.41,0,0,1,3.77-2.71,43.58,43.58,0,0,1,4-2.08,45.59,45.59,0,0,1,8.44-2.85,42.47,42.47,0,0,1,8.74-1.2.68.68,0,0,1,.69.66.67.67,0,0,1-.52.67,65.67,65.67,0,0,0-8.12,2.47c-1.31.51-2.63,1-3.9,1.6s-2.51,1.21-3.72,1.87a32.92,32.92,0,0,0-6.64,4.64c-.27.24-.39.41-.58.6a6.62,6.62,0,0,0-.44.64,4.71,4.71,0,0,0-.6,1.4,5.12,5.12,0,0,0-.18,1.51,5,5,0,0,0,.26,1.48,5.25,5.25,0,0,0,4.47,3.58,32.19,32.19,0,0,0,8-.33,59,59,0,0,0,8.16-1.79,81.64,81.64,0,0,0,8.05-2.79A.55.55,0,0,1,658.29,525.32Zm-.7-3.82a.34.34,0,0,1-.13-.1h0a8.83,8.83,0,0,1-1.27-2.07,14.69,14.69,0,0,1-.73-2.08c-.2-.69-.39-1.4-.55-2.13a19.77,19.77,0,0,1-.36-2.3v-.06a.49.49,0,0,1,.44-.52.44.44,0,0,1,.3.08,6.44,6.44,0,0,1,1.83,1.81,9.12,9.12,0,0,1,1.13,2.22,7.51,7.51,0,0,1,.48,2.44,5.29,5.29,0,0,1-.54,2.53A.42.42,0,0,1,657.59,521.5Zm-25,3.42c-.72-3.12,4.93-6.43,6.23-1.49C640,528.14,633.34,528.39,632.55,524.92Zm46.63-26.83a.42.42,0,0,1-.54.26.34.34,0,0,1-.16-.1h0a8,8,0,0,1-1.49-2.18,13,13,0,0,1-.83-2.31,21.48,21.48,0,0,1-.51-2.41,13.42,13.42,0,0,1-.14-2.56v0a.48.48,0,0,1,.51-.46.54.54,0,0,1,.31.13,9.1,9.1,0,0,1,1.6,2.12,14,14,0,0,1,1,2.35,10.13,10.13,0,0,1,.53,2.5A6.61,6.61,0,0,1,679.18,498.09Z" style="fill:#ffb400;"/><path d="M616.86,474.66l.42-.07Z" style="fill:#ffb400;"/><path d="M614.83,475.1l.92-.21Z" style="fill:#ffb400;"/><path d="M657.58,525a81.64,81.64,0,0,1-8.05,2.79,59,59,0,0,1-8.16,1.79,32.19,32.19,0,0,1-8,.33,5.25,5.25,0,0,1-4.47-3.58,5,5,0,0,1-.26-1.48,5.12,5.12,0,0,1,.18-1.51,4.71,4.71,0,0,1,.6-1.4,6.62,6.62,0,0,1,.44-.64c.19-.19.31-.36.58-.6a32.92,32.92,0,0,1,6.64-4.64c1.21-.66,2.45-1.29,3.72-1.87s2.59-1.09,3.9-1.6a65.67,65.67,0,0,1,8.12-2.47.67.67,0,0,0,.52-.67.68.68,0,0,0-.69-.66,42.47,42.47,0,0,0-8.74,1.2,45.59,45.59,0,0,0-8.44,2.85,43.58,43.58,0,0,0-4,2.08,27.41,27.41,0,0,0-3.77,2.71c-.27.23-.63.6-.95.91a10.07,10.07,0,0,0-.85,1.1,8.93,8.93,0,0,0-1.2,2.51,8.84,8.84,0,0,0-.39,2.75,8.93,8.93,0,0,0,.42,2.76,9.56,9.56,0,0,0,3.13,4.57,9.16,9.16,0,0,0,2.26,1.32,8.44,8.44,0,0,0-1.63,2.22,8.69,8.69,0,0,0-.48,6.45,9.16,9.16,0,0,0,4.23,5.21l.5.25a7.21,7.21,0,0,0-1.4,2.18,8.36,8.36,0,0,0-.14,6,8.08,8.08,0,0,0,4,4.59,7,7,0,0,0,2.92.73,5.77,5.77,0,0,0,1.41-.14,9.41,9.41,0,0,0,1.31-.38.58.58,0,0,0,.29-.22.6.6,0,0,0-.17-.83l0,0a11.53,11.53,0,0,0-1.1-.64,8.14,8.14,0,0,1-1-.55,9.36,9.36,0,0,1-1.52-1.2,8.63,8.63,0,0,1-1.16-1.36,6.53,6.53,0,0,1-.84-1.5,7.33,7.33,0,0,1-.5-3.51,7.56,7.56,0,0,1,.43-1.92c0-.15.11-.29.17-.43l.13,0a24.87,24.87,0,0,0,3,.21,29.86,29.86,0,0,0,5.8-.6,32.05,32.05,0,0,0,5.48-1.64,34.69,34.69,0,0,0,5.07-2.52c.81-.48,1.58-1,2.35-1.58s1.45-1.21,2.14-1.85a.56.56,0,0,0,.14-.59.55.55,0,0,0-.71-.33h0a99,99,0,0,1-10.17,3.18c-1.69.43-3.37.79-5.06,1a33.83,33.83,0,0,1-5,.49,20,20,0,0,1-2.45-.09,5.42,5.42,0,0,1-1.88-.51,5.84,5.84,0,0,1-2.78-2.79,6.21,6.21,0,0,1-.37-4.2,6.87,6.87,0,0,1,1-2.08,4.28,4.28,0,0,1,.4-.52c.21,0,.41.06.62.07a30.72,30.72,0,0,0,9.14-.84,44.8,44.8,0,0,0,8.44-2.93,38,38,0,0,0,7.59-4.53.55.55,0,0,0,.17-.64A.55.55,0,0,0,657.58,525Z" style="fill:#ff3a00;"/><path d="M638.78,523.43c-1.3-4.94-6.95-1.63-6.23,1.49C633.34,528.39,640,528.14,638.78,523.43Z" style="fill:#ff3a00;"/><path d="M642,538c-1.3-4.94-7-1.63-6.24,1.49C636.57,543,643.25,542.72,642,538Z" style="fill:#ff3a00;"/><path d="M639.4,554.23c.8,3.47,7.48,3.22,6.24-1.49C644.34,547.8,638.69,551.11,639.4,554.23Z" style="fill:#ff3a00;"/><path d="M658.22,516.34a9.12,9.12,0,0,0-1.13-2.22,6.44,6.44,0,0,0-1.83-1.81.44.44,0,0,0-.3-.08.49.49,0,0,0-.44.52v.06a19.77,19.77,0,0,0,.36,2.3c.16.73.35,1.44.55,2.13a14.69,14.69,0,0,0,.73,2.08,8.83,8.83,0,0,0,1.27,2.07h0a.34.34,0,0,0,.13.1.42.42,0,0,0,.57-.19,5.29,5.29,0,0,0,.54-2.53A7.51,7.51,0,0,0,658.22,516.34Z" style="fill:#ff3a00;"/><path d="M679,492.91a14,14,0,0,0-1-2.35,9.1,9.1,0,0,0-1.6-2.12.54.54,0,0,0-.31-.13.48.48,0,0,0-.51.46v0a13.42,13.42,0,0,0,.14,2.56,21.48,21.48,0,0,0,.51,2.41,13,13,0,0,0,.83,2.31,8,8,0,0,0,1.49,2.18h0a.34.34,0,0,0,.16.1.42.42,0,0,0,.54-.26,6.61,6.61,0,0,0,.31-2.68A10.13,10.13,0,0,0,679,492.91Z" style="fill:#ff3a00;"/><path d="M654.44,536.87a5.32,5.32,0,0,0,1.19,1.49v0l0,0a.49.49,0,0,0,.67-.12,3.67,3.67,0,0,0,.62-2,4.94,4.94,0,0,0-.32-1.87,6.1,6.1,0,0,0-.93-1.67,4.43,4.43,0,0,0-1.55-1.3.41.41,0,0,0-.19,0,.5.5,0,0,0-.54.47V532a8.62,8.62,0,0,0,.09,1.79,13,13,0,0,0,.33,1.58A7.13,7.13,0,0,0,654.44,536.87Z" style="fill:#ff3a00;"/><path d="M659.16,532.64a1.64,1.64,0,0,0,.37.73,3.19,3.19,0,0,0,1.06.71h0a.67.67,0,0,0,.69-.09,2,2,0,0,0,.75-1.17,1.84,1.84,0,0,0-.11-1.09,2.55,2.55,0,0,0-.64-.93,2.44,2.44,0,0,0-1.18-.6.61.61,0,0,0-.66.35l-.07.16a3.52,3.52,0,0,0-.28,1.08A2.57,2.57,0,0,0,659.16,532.64Z" style="fill:#ff3a00;"/><path d="M654,500.52a8.7,8.7,0,0,0,.62,1.65,5.86,5.86,0,0,0,1.21,1.63v0l.07.05a.47.47,0,0,0,.64-.14,4,4,0,0,0,.6-2.1,5.46,5.46,0,0,0-.36-2,6.92,6.92,0,0,0-1-1.81,4.89,4.89,0,0,0-1.62-1.42.4.4,0,0,0-.22-.06.49.49,0,0,0-.51.49v.07a10.47,10.47,0,0,0,.16,1.91C653.67,499.4,653.8,500,654,500.52Z" style="fill:#ff3a00;"/><path d="M648.84,502.8a3.17,3.17,0,0,0,1,.65l0,0a.69.69,0,0,0,.69-.1,1.88,1.88,0,0,0,.76-1.11,1.66,1.66,0,0,0-.11-1.06,2.34,2.34,0,0,0-.61-.88,2.37,2.37,0,0,0-1.16-.55.59.59,0,0,0-.65.34l-.08.17a3.43,3.43,0,0,0-.31,1,2.34,2.34,0,0,0,0,.8A1.44,1.44,0,0,0,648.84,502.8Z" style="fill:#ff3a00;"/><path d="M658.88,546.65l-.07.16a3.89,3.89,0,0,0-.29,1.08,2.56,2.56,0,0,0,.05.84,1.62,1.62,0,0,0,.37.74,3,3,0,0,0,1.06.7h0a.67.67,0,0,0,.69-.09,2,2,0,0,0,.75-1.16,1.79,1.79,0,0,0-.12-1.1,2.4,2.4,0,0,0-.63-.93,2.35,2.35,0,0,0-1.18-.59A.58.58,0,0,0,658.88,546.65Z" style="fill:#ff3a00;"/><path d="M611.32,514.87c-.24-.82-.54-1.6-.8-2.41l-.81-2.46c-.29-.84-.56-1.72-.93-2.6l0,0a.44.44,0,0,0-.25-.25.47.47,0,0,0-.62.25,8.2,8.2,0,0,0-.56,3,10.68,10.68,0,0,0,.39,3,8.25,8.25,0,0,0,1.31,2.76,5.61,5.61,0,0,0,2.43,1.94.39.39,0,0,0,.21,0,.41.41,0,0,0,.34-.47v0A25.06,25.06,0,0,0,611.32,514.87Z" style="fill:#ff3a00;"/><path d="M615.1,478.79c4.53-1.38,2.37-4.16,2.32-4.22h0l-.13,0-.42.07-1.11.23-.92.21a25.92,25.92,0,0,0-4.26,1.38h0C610.57,476.66,610.62,480.16,615.1,478.79Z" style="fill:#ff3a00;"/><path d="M593.84,490.79a6.37,6.37,0,0,0,1.2,1.31,9.51,9.51,0,0,0,1.33.91,5.67,5.67,0,0,0,1.48.6,4.39,4.39,0,0,0,1.86,0h0a.49.49,0,0,0,.36-.59,3.59,3.59,0,0,0-1-1.69,4.64,4.64,0,0,0-1.45-1,5.88,5.88,0,0,0-1.67-.5,4.75,4.75,0,0,0-1.87.05.48.48,0,0,0-.18.08.53.53,0,0,0-.14.73Z" style="fill:#ff3a00;"/><path d="M597.52,486.78a2.87,2.87,0,0,0,.44,1,1.81,1.81,0,0,0,.58.56,1.22,1.22,0,0,0,.74.21,2.53,2.53,0,0,0,1.15-.39h0a.75.75,0,0,0,.37-.59,1.94,1.94,0,0,0-.27-1.26,1.45,1.45,0,0,0-.71-.57,2,2,0,0,0-.92-.15,2.38,2.38,0,0,0-1.11.37.69.69,0,0,0-.31.76Z" style="fill:#ff3a00;"/><path d="M408.42,316.33a10.54,10.54,0,0,1,4-5.72c-1.17.35-2.34.69-3.52,1-2.62.72-5.23,1.47-7.86,2.24-1.3.42-2.63.79-3.94,1.25l-2,.67c-.66.25-1.32.5-2,.8h0a.57.57,0,0,0-.32.43.56.56,0,0,0,.47.64,32.78,32.78,0,0,0,8.57,0A43.87,43.87,0,0,0,408.42,316.33Z" style="fill:#04294f;"/><path d="M493.54,256.63a8.59,8.59,0,0,0-2.73-.57,11.51,11.51,0,0,0-2.8.18,8.44,8.44,0,0,0-2.79,1,.72.72,0,0,0-.25.24.79.79,0,0,0,.21,1.09h0a10.13,10.13,0,0,0,2.61,1.24,14.89,14.89,0,0,0,2.59.59,9.32,9.32,0,0,0,2.64.05,7.3,7.3,0,0,0,2.84-1h0l.08-.06a.72.72,0,0,0,.1-1A6.17,6.17,0,0,0,493.54,256.63Z" style="fill:#04294f;"/><path d="M409.75,267.72a28.33,28.33,0,0,0-3.44,3.13,18.91,18.91,0,0,0-2.82,3.81.75.75,0,0,0-.05.59.71.71,0,0,0,.92.42,25,25,0,0,0,4.2-2c1.32-.75,2.57-1.56,3.79-2.42a29.31,29.31,0,0,0,3.51-2.8,17.26,17.26,0,0,0,3-3.63.67.67,0,0,0,.08-.37.62.62,0,0,0-.66-.56,13.64,13.64,0,0,0-4.62,1.36A21.22,21.22,0,0,0,409.75,267.72Z" style="fill:#04294f;"/><path d="M451.38,263.85a.71.71,0,0,0-.25.66.68.68,0,0,0,.8.55h0c2.26-.41,4.49-.87,6.69-1.34l6.56-1.44c2.18-.46,4.35-1,6.53-1.52,1.08-.3,2.18-.58,3.27-.94a27.9,27.9,0,0,0,3.3-1.19h0a.57.57,0,0,0,.31-.38.58.58,0,0,0-.41-.7,24,24,0,0,0-7.09-.61A35.53,35.53,0,0,0,464.2,258a43.31,43.31,0,0,0-6.67,2.27A28.56,28.56,0,0,0,451.38,263.85Z" style="fill:#04294f;"/><path d="M500.84,285a70,70,0,0,0,7.72-1.37h0a.53.53,0,0,0,.39-.36.57.57,0,0,0-.35-.72,29.27,29.27,0,0,0-7.92-1.42,39.93,39.93,0,0,0-5.58.11c0,.58.1,2.11.19,4.39C497.15,285.47,499,285.27,500.84,285Z" style="fill:#04294f;"/><path d="M468.43,232.07a33.84,33.84,0,0,0,2.68,2.37,17.06,17.06,0,0,0,3.33,2.06l0,0a.62.62,0,0,0,.87-.61,8.7,8.7,0,0,0-1.31-4,10.12,10.12,0,0,0-.78-1.12,51.46,51.46,0,0,0-7.3-1.15C466.78,230.47,467.6,231.28,468.43,232.07Z" style="fill:#04294f;"/><path d="M433.07,287.37l0,0c3.21-1.89,6.47-3.71,9.77-5.36s6.64-3.21,10.05-4.57l1.27-.54,1.29-.47,2.57-1c1.74-.58,3.45-1.26,5.21-1.78,3.48-1.23,7.05-2.12,10.68-3.35h0a.55.55,0,0,0,.37-.48.54.54,0,0,0-.5-.59,40.35,40.35,0,0,0-11.55.67,52.28,52.28,0,0,0-5.64,1.42c-1.82.63-3.66,1.25-5.43,2.05A60.64,60.64,0,0,0,441,278.88a46.87,46.87,0,0,0-8.82,7.47.66.66,0,0,0-.07.79A.67.67,0,0,0,433.07,287.37Z" style="fill:#04294f;"/><path d="M382.8,296.42a5.2,5.2,0,0,0,.67-3v-.06a.69.69,0,0,0-.8-.57h-.09a7.74,7.74,0,0,0-2.61.94,9.51,9.51,0,0,0-1.86,1.44c-.37.35-.72.72-1.07,1.11a18.51,18.51,0,0,0,4.86,1.35A6.21,6.21,0,0,0,382.8,296.42Z" style="fill:#04294f;"/><path d="M386.27,355.1a.63.63,0,0,0-.87,0,14.28,14.28,0,0,0-2.55,3.86,23.25,23.25,0,0,0-1.45,4.18,33.07,33.07,0,0,0-.83,4.35,22.77,22.77,0,0,0-.18,2.36,20.26,20.26,0,0,0,5-4.8c.08-.24.18-.47.25-.71a23.47,23.47,0,0,0,1-4.32,14.17,14.17,0,0,0-.13-4.62A.68.68,0,0,0,386.27,355.1Z" style="fill:#04294f;"/><path d="M493.6,403.21a18.24,18.24,0,0,0-3.89.31,11.69,11.69,0,0,0-3.87,1.45.77.77,0,0,0-.22.22.65.65,0,0,0,.23.87,11.56,11.56,0,0,0,3.92,1.34,18.22,18.22,0,0,0,3.9.19c.7,0,1.41-.09,2.11-.17a38.5,38.5,0,0,0,.28-4.06C495.24,403.28,494.42,403.22,493.6,403.21Z" style="fill:#ff3a00;"/><path d="M427.16,419.64c-2-.27-4-.54-6.07-.75a49.77,49.77,0,0,0-6.33-.34h0a.59.59,0,0,0-.43.22.57.57,0,0,0,.1.8,15.33,15.33,0,0,0,2.81,1.82c.49.25,1,.49,1.5.71s1,.39,1.54.57a27.16,27.16,0,0,0,3.18.86c1.07.2,2.15.37,3.24.47l.22,0a33.93,33.93,0,0,1,1.26-4.25Z" style="fill:#ff3a00;"/><path d="M495.36,348.78c-.43,0-.86-.07-1.29-.08a10.44,10.44,0,0,0-2.93.31,7.53,7.53,0,0,0-2.91,1.46h0a.57.57,0,0,0-.11.11.69.69,0,0,0,.13,1,7.42,7.42,0,0,0,3,1.34,10.51,10.51,0,0,0,3,.2c.44,0,.88-.08,1.32-.14l-.38,0C495.19,351.57,495.28,350.19,495.36,348.78Z" style="fill:#ff3a00;"/><path d="M437.3,344.41c12.48,0,16.42-8,17.66-17.15a37.37,37.37,0,0,1,15.85-1.73c.91,9.91,4.28,18.88,16.63,18.88h5.31c15.26,0,16.81-13.72,16.95-26a2.87,2.87,0,0,0-2.87-2.91H473.36a2.87,2.87,0,0,0-2.87,2.91c0,.63,0,1.26,0,1.89a39.82,39.82,0,0,0-15.09,1.16c0-1,.06-2.05.08-3.06a2.87,2.87,0,0,0-2.88-2.9h-36a2.87,2.87,0,0,0-2.88,2.9c.16,12.26,1.81,26,18.21,26Z" style="fill:#04294f;"/><path d="M488.35,336.87a37.53,37.53,0,0,1,1.56-3.94c.57-1.29,1.21-2.54,1.85-3.79s1.35-2.46,2.09-3.65a37.28,37.28,0,0,1,2.39-3.5.9.9,0,0,1,1.26-.16.92.92,0,0,1,.3,1,38.3,38.3,0,0,1-1.57,3.93c-.58,1.28-1.22,2.53-1.87,3.77s-1.36,2.46-2.11,3.65a37.39,37.39,0,0,1-2.4,3.5.87.87,0,0,1-1.21.14A.88.88,0,0,1,488.35,336.87Z" style="fill:#fff;"/><path d="M503.49,321.1a1.46,1.46,0,0,1-.16-.71,1.27,1.27,0,0,1,.13-.55,1.19,1.19,0,0,1,.36-.42,1.38,1.38,0,0,1,.67-.26,1.5,1.5,0,0,1,1.56.83,1.43,1.43,0,0,1,.15.7,1.09,1.09,0,0,1-.15.54,1.23,1.23,0,0,1-.38.41,1.54,1.54,0,0,1-.68.26A1.48,1.48,0,0,1,503.49,321.1Z" style="fill:#fff;"/><path d="M498.55,330.38a7.28,7.28,0,0,1,.38-1.73,10.48,10.48,0,0,1,.68-1.57,10,10,0,0,1,.91-1.45,6.92,6.92,0,0,1,1.2-1.29,1,1,0,0,1,1.36.16,1,1,0,0,1,.21.68,6.45,6.45,0,0,1-.4,1.72,9.87,9.87,0,0,1-.69,1.56,10.08,10.08,0,0,1-.93,1.44,7,7,0,0,1-1.22,1.28.93.93,0,0,1-1.3-.16A1,1,0,0,1,498.55,330.38Z" style="fill:#fff;"/><path d="M433.67,336.87a37.53,37.53,0,0,1,1.56-3.94c.57-1.29,1.21-2.54,1.85-3.79s1.35-2.46,2.09-3.65a35.46,35.46,0,0,1,2.39-3.5.9.9,0,0,1,1.26-.16.92.92,0,0,1,.3,1,38.3,38.3,0,0,1-1.57,3.93c-.58,1.28-1.22,2.53-1.87,3.77s-1.36,2.46-2.11,3.65a37.39,37.39,0,0,1-2.4,3.5.86.86,0,0,1-1.5-.8Z" style="fill:#fff;"/><path d="M448.81,321.1a1.46,1.46,0,0,1-.16-.71,1.27,1.27,0,0,1,.13-.55,1.19,1.19,0,0,1,.36-.42,1.34,1.34,0,0,1,.67-.26,1.5,1.5,0,0,1,1.56.83,1.43,1.43,0,0,1,.15.7,1.09,1.09,0,0,1-.15.54,1.23,1.23,0,0,1-.38.41,1.54,1.54,0,0,1-.68.26A1.48,1.48,0,0,1,448.81,321.1Z" style="fill:#fff;"/><path d="M443.87,330.38a7.28,7.28,0,0,1,.38-1.73,9.54,9.54,0,0,1,.68-1.57,10,10,0,0,1,.91-1.45,6.92,6.92,0,0,1,1.2-1.29,1,1,0,0,1,1.36.16,1,1,0,0,1,.21.68,6.86,6.86,0,0,1-.4,1.72,9.87,9.87,0,0,1-.69,1.56,10.08,10.08,0,0,1-.93,1.44,7,7,0,0,1-1.22,1.28.93.93,0,0,1-1.3-.16A1,1,0,0,1,443.87,330.38Z" style="fill:#fff;"/><path d="M421.49,318.43c.41,2,.68,3.9,1,5.81s.63,3.8,1,5.64a41,41,0,0,0,1.58,5.33,26.77,26.77,0,0,0,2.54,5h0a.36.36,0,0,1-.11.51.35.35,0,0,1-.37,0,11.52,11.52,0,0,1-4.39-4.45,19.29,19.29,0,0,1-2.11-5.85,30.41,30.41,0,0,1-.58-6.06,32.52,32.52,0,0,1,.51-6,.45.45,0,0,1,.52-.37A.47.47,0,0,1,421.49,318.43Z" style="fill:#00aee0;"/><path d="M477.26,318.43c.41,2,.68,3.9,1,5.81s.64,3.8,1.05,5.64a41,41,0,0,0,1.58,5.33,26.77,26.77,0,0,0,2.54,5h0a.36.36,0,0,1-.12.51.35.35,0,0,1-.37,0,11.49,11.49,0,0,1-4.38-4.45,19.05,19.05,0,0,1-2.12-5.85,30.41,30.41,0,0,1-.58-6.06,34.36,34.36,0,0,1,.51-6,.46.46,0,0,1,.53-.37A.47.47,0,0,1,477.26,318.43Z" style="fill:#00aee0;"/><path d="M629.27,383.58a32.81,32.81,0,0,0-7.9-1.86c-1.7-.2-3.39-.3-5.09-.33-.08-1.66-.21-3.32-.41-5a49,49,0,0,0-1.51-7.91.93.93,0,0,0-1.79,0,49,49,0,0,0-1.51,7.91c-.2,1.69-.33,3.38-.42,5.08-1.69.08-3.38.21-5.08.41a47.84,47.84,0,0,0-7.9,1.52,1,1,0,0,0-.63.63.93.93,0,0,0,.63,1.15,47.84,47.84,0,0,0,7.9,1.52c1.66.19,3.32.32,5,.41,0,1.69.13,3.39.34,5.08a31.79,31.79,0,0,0,1.86,7.9.76.76,0,0,0,.44.44.78.78,0,0,0,1-.44,31.79,31.79,0,0,0,1.86-7.9,49,49,0,0,0,.33-5c1.66,0,3.33-.13,5-.33a32.37,32.37,0,0,0,7.9-1.87.8.8,0,0,0,.44-.43A.79.79,0,0,0,629.27,383.58Z" style="fill:#fdb813;"/><path d="M226.61,233.86A32,32,0,0,0,218.7,232a50.77,50.77,0,0,0-5.08-.34c-.09-1.66-.22-3.32-.41-5a47.84,47.84,0,0,0-1.52-7.9.91.91,0,0,0-.63-.63.92.92,0,0,0-1.15.63,47.84,47.84,0,0,0-1.52,7.9c-.19,1.69-.33,3.39-.41,5.08-1.69.08-3.39.22-5.08.41a47.84,47.84,0,0,0-7.9,1.52,1,1,0,0,0-.63.63.92.92,0,0,0,.63,1.15,47.84,47.84,0,0,0,7.9,1.52c1.66.19,3.32.32,5,.41a50.77,50.77,0,0,0,.34,5.08,32,32,0,0,0,1.86,7.91.76.76,0,0,0,.43.43.78.78,0,0,0,1-.43,32.89,32.89,0,0,0,1.86-7.91c.2-1.66.29-3.32.33-5,1.66,0,3.32-.13,5-.33a32.89,32.89,0,0,0,7.91-1.86.79.79,0,0,0,0-1.45Z" style="fill:#fdb813;"/><path d="M316.12,366.07a32,32,0,0,0-7.91-1.86,50.77,50.77,0,0,0-5.08-.34c-.09-1.66-.22-3.32-.41-5a47.84,47.84,0,0,0-1.52-7.9.91.91,0,0,0-.63-.63.92.92,0,0,0-1.15.63,46.79,46.79,0,0,0-1.51,7.9c-.2,1.69-.34,3.39-.42,5.08-1.69.09-3.39.22-5.08.42a48.87,48.87,0,0,0-7.9,1.51,1,1,0,0,0-.63.63.92.92,0,0,0,.63,1.15,47.84,47.84,0,0,0,7.9,1.52c1.66.19,3.32.33,5,.41,0,1.7.13,3.39.34,5.09a32,32,0,0,0,1.86,7.9.76.76,0,0,0,.43.43.78.78,0,0,0,1-.43,32.92,32.92,0,0,0,1.86-7.9c.2-1.67.29-3.33.33-5a49,49,0,0,0,5-.33,32.42,32.42,0,0,0,7.91-1.86.79.79,0,0,0,0-1.45Z" style="fill:#fff;"/><path d="M596.68,349.51a9.19,9.19,0,0,0-3.69-1.86,10.34,10.34,0,0,0-1.08-.22c-.06-.29-.12-.59-.2-.88a12.79,12.79,0,0,0-1.51-3.69,1.07,1.07,0,0,0-.34-.33,1,1,0,0,0-1.44.33,12.55,12.55,0,0,0-1.52,3.69c-.09.35-.16.7-.23,1.05-.35.07-.7.14-1,.23a12.55,12.55,0,0,0-3.69,1.52,1,1,0,0,0-.33.33,1.05,1.05,0,0,0,.33,1.45,12.79,12.79,0,0,0,3.69,1.51c.29.08.59.14.88.2a10.34,10.34,0,0,0,.22,1.08,9.32,9.32,0,0,0,1.86,3.69l.11.11a1,1,0,0,0,1.34-.11,9.07,9.07,0,0,0,1.86-3.69c.08-.3.15-.6.2-.9.3,0,.6-.12.9-.2a9.07,9.07,0,0,0,3.69-1.86,1.14,1.14,0,0,0,.11-.11A1,1,0,0,0,596.68,349.51Z" style="fill:#fdb813;"/><path d="M516.75,162a12.55,12.55,0,0,0-3.69-1.52c-.29-.07-.59-.14-.88-.19a8.42,8.42,0,0,0-.22-1.09,9,9,0,0,0-1.86-3.68l-.11-.11a1,1,0,0,0-1.34.11,9.29,9.29,0,0,0-1.86,3.68c-.08.3-.14.61-.19.91a9.69,9.69,0,0,0-4.6,2.06l-.1.1a1,1,0,0,0,.1,1.34,9.22,9.22,0,0,0,3.69,1.87,10.28,10.28,0,0,0,1.08.21c.06.3.13.59.2.89a12.61,12.61,0,0,0,1.52,3.68,1,1,0,0,0,1.78,0,12.85,12.85,0,0,0,1.51-3.68c.09-.36.17-.71.23-1.06.35-.06.7-.14,1-.22a12.55,12.55,0,0,0,3.69-1.52,1,1,0,0,0,.33-.33A1.05,1.05,0,0,0,516.75,162Z" style="fill:#fdb813;"/><path d="M239.48,317.28a10.34,10.34,0,0,0-1.08-.22c-.06-.29-.13-.59-.2-.88a12.55,12.55,0,0,0-1.52-3.69,1,1,0,0,0-.33-.33,1.05,1.05,0,0,0-1.45.33,12.79,12.79,0,0,0-1.51,3.69c-.09.35-.16.7-.23,1.05-.35.07-.7.14-1,.23a12.79,12.79,0,0,0-3.69,1.51,1.07,1.07,0,0,0-.33.34,1.05,1.05,0,0,0,.33,1.45,12.79,12.79,0,0,0,3.69,1.51c.29.08.59.14.88.2a8.27,8.27,0,0,0,.22,1.08,9.07,9.07,0,0,0,1.86,3.69l.11.1a.94.94,0,0,0,1.34-.1,9.19,9.19,0,0,0,1.86-3.69c.08-.3.14-.6.2-.9.3,0,.6-.12.9-.2a9.07,9.07,0,0,0,3.69-1.86l.1-.11a1,1,0,0,0-.1-1.34A9.07,9.07,0,0,0,239.48,317.28Z" style="fill:#fdb813;"/><path d="M554,444.06a10.52,10.52,0,0,0-1.09-.22c0-.29-.12-.59-.19-.88a12.55,12.55,0,0,0-1.52-3.69,1,1,0,0,0-.33-.33,1.05,1.05,0,0,0-1.45.33,12.55,12.55,0,0,0-1.52,3.69c-.08.35-.16.7-.22,1.05-.35.07-.7.14-1.06.23a12.85,12.85,0,0,0-3.68,1.51,1.22,1.22,0,0,0-.34.34,1.06,1.06,0,0,0,.34,1.45,12.85,12.85,0,0,0,3.68,1.51c.3.08.59.14.89.2a10.28,10.28,0,0,0,.21,1.08A9.22,9.22,0,0,0,549.6,454l.1.1A.94.94,0,0,0,551,454a9.22,9.22,0,0,0,1.87-3.69c.08-.3.14-.6.19-.9.3-.05.6-.12.91-.2a9,9,0,0,0,3.68-1.86l.11-.11a1,1,0,0,0-.11-1.34A9,9,0,0,0,554,444.06Z" style="fill:#fff;"/><path d="M620,287.46a7,7,0,0,0,.93.49l0,.06a5.61,5.61,0,0,0,1.87,2.36,1.22,1.22,0,0,0,1.44,0,13.62,13.62,0,0,1,4-4,1.21,1.21,0,0,0,0-1.45,5.65,5.65,0,0,0-2.36-1.86l-.06,0a7,7,0,0,0-.49-.93,5.92,5.92,0,0,0-.92-1.18,1.27,1.27,0,0,0-1.78,0,5.92,5.92,0,0,0-.92,1.18,6.13,6.13,0,0,0-.58,1.14,6.89,6.89,0,0,0-1.15.58,6.4,6.4,0,0,0-1.18.93,1.28,1.28,0,0,0,0,1.78A5.92,5.92,0,0,0,620,287.46Z" style="fill:#fdb813;"/><path d="M484.06,126.09a5.88,5.88,0,0,0-.93-.48.64.64,0,0,0,0-.07,5.42,5.42,0,0,0-1.86-2.35,1.2,1.2,0,0,0-1.45,0,5.37,5.37,0,0,0-1.79,2.2,5.43,5.43,0,0,0-2.2,1.79,1.2,1.2,0,0,0,0,1.45,5.54,5.54,0,0,0,2.36,1.86l.06,0a5.88,5.88,0,0,0,.48.93,6.32,6.32,0,0,0,.92,1.18,1.28,1.28,0,0,0,1.79,0,6.32,6.32,0,0,0,.92-1.18,6.13,6.13,0,0,0,.58-1.14,6.81,6.81,0,0,0,1.14-.58,6.08,6.08,0,0,0,1.18-.93,1.26,1.26,0,0,0,0-1.78A5.65,5.65,0,0,0,484.06,126.09Z" style="fill:#fdb813;"/><path d="M273,163l-.06,0a5.21,5.21,0,0,0-.49-.93,5.65,5.65,0,0,0-.92-1.18,1.26,1.26,0,0,0-1.78,0,5.65,5.65,0,0,0-.92,1.18,6.13,6.13,0,0,0-.58,1.14,6.21,6.21,0,0,0-1.15.58,6.66,6.66,0,0,0-1.18.92,1.28,1.28,0,0,0,0,1.78,6.3,6.3,0,0,0,1.18.93,5.88,5.88,0,0,0,.93.48.14.14,0,0,1,0,.06,5.49,5.49,0,0,0,1.87,2.36,1.19,1.19,0,0,0,1.44,0,5.47,5.47,0,0,0,1.8-2.2,5.5,5.5,0,0,0,2.2-1.79,1.21,1.21,0,0,0,0-1.45A5.44,5.44,0,0,0,273,163Z" style="fill:#fdb813;"/><path d="M258.87,281l-.06,0a7,7,0,0,0-.49-.93,6.22,6.22,0,0,0-.92-1.18,1.28,1.28,0,0,0-1.78,0,6.75,6.75,0,0,0-.93,1.18,6.89,6.89,0,0,0-.58,1.15,6.13,6.13,0,0,0-1.14.58,5.92,5.92,0,0,0-1.18.92,1.27,1.27,0,0,0,0,1.78,7.19,7.19,0,0,0,2.11,1.41s0,0,0,.06a5.59,5.59,0,0,0,1.86,2.36,1.21,1.21,0,0,0,1.45,0,5.46,5.46,0,0,0,1.79-2.21,5.37,5.37,0,0,0,2.2-1.79,1.19,1.19,0,0,0,0-1.44A5.53,5.53,0,0,0,258.87,281Z" style="fill:#fdb813;"/><path d="M328.73,391.74l-.06,0a7,7,0,0,0-.49-.94,6.22,6.22,0,0,0-.92-1.18,1.28,1.28,0,0,0-1.78,0,6.22,6.22,0,0,0-.92,1.18,6.53,6.53,0,0,0-.58,1.15,7.15,7.15,0,0,0-2.33,1.5,1.28,1.28,0,0,0,0,1.78,6.4,6.4,0,0,0,1.18.93,5.88,5.88,0,0,0,.93.48s0,0,0,.06a5.59,5.59,0,0,0,1.86,2.36,1.21,1.21,0,0,0,1.45,0,13.74,13.74,0,0,1,4-4,1.21,1.21,0,0,0,0-1.45A5.5,5.5,0,0,0,328.73,391.74Z" style="fill:#fff;"/></svg>