<svg id="camera_acces_business" data-name="camera acces business" xmlns="http://www.w3.org/2000/svg" viewBox="0 0 800 800"><title>camera-access_business</title><path d="M615,340.85c23,0,56.48-13.51,58-13.24-2.21-1.22-55.55-27.37-102-45.55,0,27.92,2.1,60.37,2.1,60.37S596.21,340.85,615,340.85Z" style="fill:#f04e23;"/><path d="M673.09,327.63l-.12,0c-43,2.48-99.87,14.82-99.87,14.82,0-58.94-3.92-73.61-4-74.09,0,0-15.31,5.09-26.6,12.16s-23.78,18.37-23.78,18.37-3.49,42-3.49,105.83,2,105.1,2,105.1-7.44,3.16-27.6,14.27a240,240,0,0,0-32.74,21.79s-5,8.7-5,32.52,2.05,37.8,2.05,37.8L458.09,632S533,595.16,578.84,567.86s93-73.24,93-73.24C681.42,409.64,673.09,327.63,673.09,327.63Z" style="fill:#10294c;"/><path d="M498.31,312.44l-29.26-12.18a4.42,4.42,0,0,0-6.11,3.75,230.68,230.68,0,0,0-1,23.88c0,17.11.32,15.44.76,20.28a4.43,4.43,0,0,0,2.71,3.67l28.74,12a4.41,4.41,0,0,0,6.1-4.4c-.45-6.15-.45-3.29-.45-17.74,0-17.06.71-20.23,1.2-24.67A4.41,4.41,0,0,0,498.31,312.44Z" style="fill:#10294c;"/><path d="M461.32,372a3.7,3.7,0,0,0,2.29,3.29L494,388a3.7,3.7,0,0,0,5.13-3.41c0-2.43.07-4.16.15-5.36a3.68,3.68,0,0,0-2.27-3.65l-30.64-12.77a3.71,3.71,0,0,0-5.13,3.39C461.23,367.78,461.24,369.72,461.32,372Z" style="fill:#fdb813;"/><path d="M456.86,545.86a240,240,0,0,1,32.74-21.79c20.16-11.11,27.6-14.27,27.6-14.27s-2-41.27-2-105.1,3.49-105.83,3.49-105.83,12.49-11.31,23.78-18.37,26.6-12.16,26.6-12.16h0S535.92,246.24,425,201.59c-98.67-39.71-134-49.08-134-49.08s-10.82.8-26.3,10.15C248.51,172.43,240.61,183,240.61,183s-3.84,33-3.84,112.89,3.84,97.3,3.84,97.3a178.9,178.9,0,0,0-30.36,13.69,147.92,147.92,0,0,0-31.47,23.79c-3.15,9.12-3.61,16.43-3.61,45.91,0,30,5.11,38.69,5.11,38.69s54.66,29.33,123.11,59.31S458.2,632,458.2,632a272.83,272.83,0,0,1-4.14-45.44A276,276,0,0,1,456.86,545.86Zm-204-250.28a5,5,0,0,1,6.88-4.22l32.94,13.71a5,5,0,0,1,3,5.14c-.55,5-1.36,15.62-1.36,34.84,0,16.26.58,27.7,1.09,34.62a5,5,0,0,1-6.88,5l-32.36-13.48a5,5,0,0,1-3-4.14c-.49-5.44-1.44-18.22-1.44-37.48C251.76,313.81,252.39,302.3,252.89,295.58Zm247.36,63.83a4.41,4.41,0,0,1-6.1,4.4l-28.74-12a4.43,4.43,0,0,1-2.71-3.67c-.44-4.84-.76-3.17-.76-20.28a230.68,230.68,0,0,1,1-23.88,4.42,4.42,0,0,1,6.11-3.75l29.26,12.18A4.41,4.41,0,0,1,501,317c-.49,4.44-1.2,7.61-1.2,24.67C499.8,356.12,499.8,353.26,500.25,359.41Zm-33.88,3.38L497,375.56a3.68,3.68,0,0,1,2.27,3.65c-.08,1.2-.14,2.93-.15,5.36A3.7,3.7,0,0,1,494,388l-30.39-12.67a3.7,3.7,0,0,1-2.29-3.29c-.08-2.3-.09-4.24-.08-5.84A3.71,3.71,0,0,1,466.37,362.79Z" style="fill:#f04e23;"/><path d="M298.12,529.93c-53.52-22.64-89.76-40.81-108.35-50.62-1.55,7.5,0,16.43,0,16.43,18.59,9.81,54.83,28,108.35,50.61,58.07,24.56,112.14,42.84,138.44,51.33a73.85,73.85,0,0,1,0-16.43C410.26,572.77,356.19,554.49,298.12,529.93Z" style="fill:#10294c;"/><path d="M256.24,371.15l32.36,13.48a5,5,0,0,0,6.88-5c-.51-6.92-1.09-18.36-1.09-34.62,0-19.22.81-29.84,1.36-34.84a5,5,0,0,0-3-5.14l-32.94-13.71a5,5,0,0,0-6.88,4.22c-.5,6.72-1.13,18.23-1.13,33.95,0,19.26,1,32,1.44,37.48A5,5,0,0,0,256.24,371.15Z" style="fill:#fdb813;"/><path d="M261.51,306c.24,2.35.38,4.69.52,7s.24,4.66.33,7q.27,7,.35,13.94c.07,4.65.08,9.28-.07,13.93s-.4,9.3-1.05,14a.77.77,0,0,1-.85.65.76.76,0,0,1-.62-.52,55,55,0,0,1-1.73-6.94c-.43-2.33-.76-4.67-1-7a123.34,123.34,0,0,1-.61-14.11c0-4.71.25-9.41.7-14.1.23-2.35.51-4.69.88-7s.79-4.67,1.37-7a.91.91,0,0,1,1.11-.66A.89.89,0,0,1,261.51,306Z" style="fill:#10294c;"/><path d="M273.7,310.9c.24,2.35.38,4.69.51,7s.25,4.66.34,7c.18,4.65.28,9.29.35,13.94s.07,9.28-.08,13.93-.4,9.3-1.05,14a.76.76,0,0,1-.85.65.75.75,0,0,1-.61-.52,53.32,53.32,0,0,1-1.73-6.94c-.44-2.33-.77-4.68-1-7a123.35,123.35,0,0,1-.62-14.11q0-7.06.71-14.11c.22-2.34.5-4.69.88-7s.78-4.67,1.36-7a.92.92,0,0,1,1.81.14Z" style="fill:#10294c;"/><path d="M286.21,315.84c.23,2.35.37,4.69.51,7s.24,4.67.33,7q.27,7,.35,13.94c.07,4.65.08,9.29-.07,13.93s-.4,9.31-1.05,14a.75.75,0,0,1-.85.65.76.76,0,0,1-.62-.51,53.42,53.42,0,0,1-1.72-6.95c-.44-2.33-.77-4.67-1-7a123.15,123.15,0,0,1-.62-14.11c0-4.7.25-9.41.7-14.1.23-2.35.51-4.69.88-7s.79-4.66,1.37-7a.91.91,0,0,1,1.12-.67A.94.94,0,0,1,286.21,315.84Z" style="fill:#10294c;"/><path d="M248.64,187.52c5.15,2.8,10.44,5.35,15.74,7.87s10.67,4.93,16,7.31,10.76,4.73,16.17,7l16.25,6.88q8.13,3.42,16.3,6.76l16.32,6.71,32.74,13.23,65.55,26.29c21.85,8.76,43.68,17.57,65.72,25.82h0a.74.74,0,0,1,.44.95.75.75,0,0,1-.89.45c-11.41-3.06-22.63-6.72-33.82-10.48s-22.27-7.78-33.34-11.84-22.08-8.27-33-12.6S386.9,253.25,376,248.8l-16.37-6.69-16.3-6.86q-16.29-6.9-32.43-14.15-8.07-3.63-16.08-7.39c-5.34-2.51-10.67-5-15.95-7.67s-10.57-5.28-15.77-8.09-10.36-5.7-15.37-8.87a.9.9,0,0,1,.91-1.56Z" style="fill:#10294c;"/><path d="M524.79,467.4c-2.92-1.83-5.92-3.45-8.92-5.06s-6.07-3.09-9.14-4.54c-6.14-2.91-12.38-5.56-18.67-8.11l-.08,0a3,3,0,0,0-.91-.2,2.93,2.93,0,0,0-3.11,2.74c-.23,3.68-.34,7.26-.36,10.89s0,7.24.23,10.86c.08,1.8.23,3.61.36,5.42s.3,3.6.53,5.4c.34,3,.81,6,1.39,9l-11-4.95c-10.6-4.74-21.24-9.38-31.89-14s-21.32-9.19-32-13.67l-16.05-6.75-16.09-6.66L363,441l-16.12-6.58q-16.11-6.61-32.29-13.06C293,412.76,271.4,404.22,249.67,396a.93.93,0,0,0-1.15.47.91.91,0,0,0,.45,1.21c21.13,9.65,42.4,19,63.71,28.19q16,6.92,32,13.72l16,6.81,16.07,6.73,16.06,6.73,16.1,6.64c10.72,4.45,21.5,8.76,32.26,13.11s21.58,8.58,32.42,12.76,21.68,8.33,32.61,12.28a.74.74,0,0,0,.57-1.36q-9.24-4.38-18.54-8.58c0-3.4,0-6.77.1-10.15l.12-5.34.19-5.33c.15-3.56.3-7.11.5-10.66.12-2.16.25-4.33.4-6.48,5,2.09,10,4.09,15.11,5.93q4.79,1.74,9.66,3.29c3.25,1,6.52,2,9.87,2.77a.75.75,0,0,0,.57-1.36Z" style="fill:#10294c;"/><path d="M490.36,320.78l-16.8-7a2.54,2.54,0,0,0-3.51,2.16,130.56,130.56,0,0,0-.57,13.71c0,9.83.18,8.87.43,11.65a2.54,2.54,0,0,0,1.56,2.11l16.5,6.88a2.54,2.54,0,0,0,3.51-2.53c-.26-3.53-.26-1.89-.26-10.19,0-9.8.41-11.62.69-14.17A2.52,2.52,0,0,0,490.36,320.78Z" style="fill:#fdb813;"/><ellipse cx="438.02" cy="430.71" rx="14.44" ry="18.08" transform="translate(-56.81 66.68) rotate(-8.18)" style="fill:#fff;"/><ellipse cx="320.47" cy="253.99" rx="8.65" ry="10.83" transform="translate(-32.87 48.16) rotate(-8.18)" style="fill:#fff;"/><path d="M256.87,230.82c8.31,4.45,19.34,9.82,32.89,16a28,28,0,0,0-.06-7.65c-1.75-12.2-10.85-21-20.26-19.68C263.9,220.3,259.24,224.56,256.87,230.82Z" style="fill:#00acdc;"/><path d="M295.62,238.33c-2.22-15.47-14.34-26.57-27-24.75h0c-8.58,1.23-15.55,8.09-18.21,17.9a33.73,33.73,0,0,0-.76,13.46c2.07,14.36,12.65,24.95,24.3,24.95a19.54,19.54,0,0,0,2.74-.2c8.53-1.22,15.5-8,18.18-17.79A33.71,33.71,0,0,0,295.62,238.33Zm-5.92.85a28,28,0,0,1,.06,7.65c-13.55-6.19-24.58-11.56-32.89-16,2.37-6.26,7-10.52,12.57-11.32C278.85,218.15,288,227,289.7,239.18Z" style="fill:#10294c;"/><ellipse cx="437.24" cy="430.71" rx="5.12" ry="6.41" transform="translate(-56.82 66.57) rotate(-8.18)" style="fill:#10294c;"/><path d="M310,364.45c9,37.57,38.11,58.44,69.9,55a35.5,35.5,0,0,0,3.76-.61v.05c38.36-8.37,69.68-42.89,56.65-94.67-8.6-34.21-35.89-56.53-69.07-53.41-33.36,3.16-55.42,23.91-62.42,55.85l.44.1A84.83,84.83,0,0,0,310,364.45Zm64.54,38.43c-22.63,5.44-46.49-13.11-53.3-41.44s6-55.71,28.61-61.16,46.5,13.11,53.31,41.45S397.17,397.44,374.54,402.88Z" style="fill:#10294c;"/><path d="M403.16,341.73c-6.81-28.34-30.68-46.9-53.31-41.45s-35.43,32.82-28.61,61.16,30.67,46.88,53.3,41.44S410,370.05,403.16,341.73Z" style="fill:#00acdc;"/><path d="M354.54,279.61a46,46,0,0,1,20.55,1,49.83,49.83,0,0,1,9.7,3.8,57.47,57.47,0,0,1,8.83,5.56A68.18,68.18,0,0,1,408,305a83.11,83.11,0,0,1,5.43,8.89,85.43,85.43,0,0,1,7.19,19.47,87.06,87.06,0,0,1,1.55,30.95l-.38,2.57c-.15.85-.34,1.7-.5,2.54-.31,1.71-.79,3.37-1.2,5.05a71.53,71.53,0,0,1-3.47,9.75,65.53,65.53,0,0,1-4.85,9.1,60.78,60.78,0,0,1-6.29,8.13.55.55,0,0,1-.86-.69v0a70.72,70.72,0,0,0,9.28-17.61,78.58,78.58,0,0,0,4.34-19.29,86.22,86.22,0,0,0-.24-19.73,84.22,84.22,0,0,0-1.75-9.72,86.26,86.26,0,0,0-2.8-9.46,81.55,81.55,0,0,0-8.91-17.54,70.8,70.8,0,0,0-6.07-7.74,61.65,61.65,0,0,0-7.1-6.8,54.87,54.87,0,0,0-17.07-9.58A47.41,47.41,0,0,0,354.74,281h0a.68.68,0,0,1-.19-1.35Z" style="fill:#00acdc;"/><path d="M422.27,379.35a12.64,12.64,0,0,1,2.25-2.72,20,20,0,0,1,2.64-2.06,13,13,0,0,1,3-1.5,8.93,8.93,0,0,1,3.59-.51.67.67,0,0,1,.62.73.5.5,0,0,1-.05.21,8.88,8.88,0,0,1-2.11,2.94,12.84,12.84,0,0,1-2.71,1.95,18.84,18.84,0,0,1-3.06,1.39,12.51,12.51,0,0,1-3.44.73.76.76,0,0,1-.81-.72A.82.82,0,0,1,422.27,379.35Z" style="fill:#00acdc;"/><path d="M426.3,363.57a12.3,12.3,0,0,1,2.25-2.71,18.64,18.64,0,0,1,2.64-2.07,13.22,13.22,0,0,1,3-1.5,8.88,8.88,0,0,1,3.58-.51.68.68,0,0,1,.63.73,1.42,1.42,0,0,1-.05.22,9.14,9.14,0,0,1-2.11,2.94,13.5,13.5,0,0,1-2.72,1.94,17.92,17.92,0,0,1-3.05,1.39,12.88,12.88,0,0,1-3.45.74.78.78,0,0,1-.81-.73A.74.74,0,0,1,426.3,363.57Z" style="fill:#00acdc;"/><path d="M428,348.27a12.61,12.61,0,0,1,2.24-2.72,19.24,19.24,0,0,1,2.65-2.06,13,13,0,0,1,3-1.51,9.06,9.06,0,0,1,3.58-.51.69.69,0,0,1,.63.74.83.83,0,0,1-.06.21,8.74,8.74,0,0,1-2.11,2.94,13.21,13.21,0,0,1-2.71,1.95,19.09,19.09,0,0,1-3.05,1.38,12.23,12.23,0,0,1-3.45.74.76.76,0,0,1-.81-.72A.74.74,0,0,1,428,348.27Z" style="fill:#00acdc;"/><path d="M425.36,333a12.58,12.58,0,0,1,2.25-2.71,19.23,19.23,0,0,1,2.64-2.07,13.43,13.43,0,0,1,3-1.5,8.93,8.93,0,0,1,3.59-.51.68.68,0,0,1,.62.73.65.65,0,0,1-.05.21,9.18,9.18,0,0,1-2.11,2.95,13.44,13.44,0,0,1-2.71,1.94,18.38,18.38,0,0,1-3.06,1.39,12.89,12.89,0,0,1-3.44.74.78.78,0,0,1-.82-.73A.74.74,0,0,1,425.36,333Z" style="fill:#00acdc;"/><path d="M420.44,317.86a12.64,12.64,0,0,1,2.25-2.72,18.57,18.57,0,0,1,2.64-2.06,13,13,0,0,1,3-1.5,8.91,8.91,0,0,1,3.58-.51.68.68,0,0,1,.63.73,1.29,1.29,0,0,1,0,.21,9,9,0,0,1-2.11,2.94,13.55,13.55,0,0,1-2.72,1.95,19.62,19.62,0,0,1-3.05,1.39,12.51,12.51,0,0,1-3.45.73.77.77,0,0,1-.81-.72A.74.74,0,0,1,420.44,317.86Z" style="fill:#00acdc;"/><path d="M412.46,304.69a12.83,12.83,0,0,1,2.25-2.71,19.23,19.23,0,0,1,2.64-2.07,13.43,13.43,0,0,1,3-1.5,8.91,8.91,0,0,1,3.58-.51.68.68,0,0,1,.63.73.79.79,0,0,1-.05.22,9.14,9.14,0,0,1-2.11,2.94,13.22,13.22,0,0,1-2.72,1.94,17.92,17.92,0,0,1-3.05,1.39,12.89,12.89,0,0,1-3.44.74.78.78,0,0,1-.82-.73A.74.74,0,0,1,412.46,304.69Z" style="fill:#00acdc;"/><path d="M403.92,293.84a12.61,12.61,0,0,1,2.24-2.72,19.24,19.24,0,0,1,2.65-2.06,13,13,0,0,1,3-1.51,9.06,9.06,0,0,1,3.58-.51.69.69,0,0,1,.63.74.83.83,0,0,1-.06.21,8.74,8.74,0,0,1-2.11,2.94,13.21,13.21,0,0,1-2.71,1.95,19.09,19.09,0,0,1-3.05,1.38,12.23,12.23,0,0,1-3.45.74.76.76,0,0,1-.81-.72A.74.74,0,0,1,403.92,293.84Z" style="fill:#00acdc;"/><path d="M393.56,283.72a6.86,6.86,0,0,1,1.25-2.11,8.38,8.38,0,0,1,1.64-1.46,5.48,5.48,0,0,1,2-.89,5,5,0,0,1,2.58.09.85.85,0,0,1,.58.95,5,5,0,0,1-1.11,2.33,5.61,5.61,0,0,1-1.71,1.34,8,8,0,0,1-2.06.78,6.47,6.47,0,0,1-2.44.13.86.86,0,0,1-.75-1A1,1,0,0,1,393.56,283.72Z" style="fill:#00acdc;"/><path d="M416,393.49a6.63,6.63,0,0,1,1.25-2.11,7.78,7.78,0,0,1,1.64-1.46,5.67,5.67,0,0,1,2-.9,5,5,0,0,1,2.58.1.83.83,0,0,1,.58.94,5,5,0,0,1-1.11,2.34,5.77,5.77,0,0,1-1.71,1.34,8.36,8.36,0,0,1-2.06.78,6.69,6.69,0,0,1-2.44.13.88.88,0,0,1-.75-1A.85.85,0,0,1,416,393.49Z" style="fill:#00acdc;"/><path d="M381.65,277.72a4.25,4.25,0,0,1,.56-1.7,3.7,3.7,0,0,1,1-1,2.33,2.33,0,0,1,1.29-.48,3.45,3.45,0,0,1,1.9.51,1.15,1.15,0,0,1,.58.95,3.54,3.54,0,0,1-.43,1.92,2.33,2.33,0,0,1-1,.92,3.47,3.47,0,0,1-1.36.37,4.14,4.14,0,0,1-1.76-.29A1.11,1.11,0,0,1,381.65,277.72Z" style="fill:#00acdc;"/><path d="M342.45,320a6.48,6.48,0,0,1,.92-3.07,8.43,8.43,0,0,1,1.92-2.27,8.26,8.26,0,0,1,2.58-1.48,6.46,6.46,0,0,1,3.2-.33,3.46,3.46,0,0,1,2.86,4c0,.14-.06.28-.1.41l-.09.34a7.7,7.7,0,0,1-1.21,2.42,8.12,8.12,0,0,1-1.57,1.63,8.62,8.62,0,0,1-2,1.17,8,8,0,0,1-2.67.67l-.27,0a3.35,3.35,0,0,1-3.6-3.09A2.38,2.38,0,0,1,342.45,320Z" style="fill:#fff;"/><path d="M338.55,369.46a30.69,30.69,0,0,1-3.94-8.44,38,38,0,0,1-1.57-9.26,36.38,36.38,0,0,1,.79-9.42,27.12,27.12,0,0,1,3.5-8.79,2.78,2.78,0,0,1,5.12,1.65v.11c-.15,2.81-.36,5.47-.44,8.13s-.09,5.3,0,7.95.29,5.3.56,8,.61,5.41.85,8.28v.07a2.68,2.68,0,0,1-4.88,1.73Z" style="fill:#fff;"/><path d="M504.79,229.58C494.28,224,468,231.84,468,231.84c-10.62,8.77-9.15,26.26-9.15,26.26,0,8.53,13,15.44,29.07,15.44S517,266.63,517,258.1C517,250.09,515.31,235.21,504.79,229.58Z" style="fill:#fff;"/><ellipse cx="487.93" cy="237.73" rx="22.79" ry="12.1" style="fill:#10294c;"/><path d="M465.36,259.81a8.19,8.19,0,0,1-1.22-2.86,11.17,11.17,0,0,1-.29-2.93,8.4,8.4,0,0,1,.56-2.91,6,6,0,0,1,1.94-2.61.73.73,0,0,1,1,.15.41.41,0,0,1,.05.09l0,0a8.47,8.47,0,0,1,.89,2.89,10.76,10.76,0,0,1,0,2.66,17,17,0,0,1-.5,2.66,11.41,11.41,0,0,1-1.09,2.74l0,0a.79.79,0,0,1-1.08.29A.85.85,0,0,1,465.36,259.81Z" style="fill:#10294c;"/><path d="M474.64,266.59a13.08,13.08,0,0,1-1.05-3.68,18.27,18.27,0,0,1-.18-3.69,13.82,13.82,0,0,1,.58-3.64,9.4,9.4,0,0,1,1.88-3.45.66.66,0,0,1,.93,0,.74.74,0,0,1,.16.2v0a11.14,11.14,0,0,1,1,3.7,16.82,16.82,0,0,1-.06,3.55,27.26,27.26,0,0,1-.6,3.52A16.27,16.27,0,0,1,476,266.6h0a.75.75,0,0,1-1,.33A.77.77,0,0,1,474.64,266.59Z" style="fill:#10294c;"/><path d="M488.61,253.58a17.3,17.3,0,0,1,1.15,4,27.37,27.37,0,0,1,.4,4,19.27,19.27,0,0,1-.26,4,11.86,11.86,0,0,1-1.42,4,.64.64,0,0,1-.88.23.72.72,0,0,1-.23-.23,12.08,12.08,0,0,1-1.42-4,19.27,19.27,0,0,1-.26-4,27.37,27.37,0,0,1,.4-4,16.86,16.86,0,0,1,1.16-4,.73.73,0,0,1,1-.38A.8.8,0,0,1,488.61,253.58Z" style="fill:#10294c;"/><path d="M509.1,259.72A11.89,11.89,0,0,1,508,257a17,17,0,0,1-.49-2.66,10.29,10.29,0,0,1,0-2.66,8.47,8.47,0,0,1,.89-2.89v0a.71.71,0,0,1,1-.29l.09.05a5.89,5.89,0,0,1,1.94,2.61A8.19,8.19,0,0,1,512,254a11.17,11.17,0,0,1-.29,2.93,8.22,8.22,0,0,1-1.23,2.86.79.79,0,0,1-1.09.21.85.85,0,0,1-.24-.26Z" style="fill:#10294c;"/><path d="M499.82,266.6a16.27,16.27,0,0,1-1.26-3.53,25.65,25.65,0,0,1-.6-3.52,16.82,16.82,0,0,1-.06-3.55,11.36,11.36,0,0,1,1-3.7h0a.67.67,0,0,1,.88-.32.83.83,0,0,1,.21.16,9.37,9.37,0,0,1,1.87,3.45,14.26,14.26,0,0,1,.59,3.64,19,19,0,0,1-.18,3.69,13.08,13.08,0,0,1-1.05,3.68.75.75,0,0,1-1,.36.68.68,0,0,1-.35-.34Z" style="fill:#10294c;"/><path d="M539.62,258.29c-3.73-2-13.06.8-13.06.8-3.77,3.11-3.25,9.33-3.25,9.33,0,3,4.62,5.48,10.32,5.48S544,271.45,544,268.42C544,265.57,543.36,260.29,539.62,258.29Z" style="fill:#10294c;"/><ellipse cx="533.63" cy="261.18" rx="8.1" ry="4.3" style="fill:#fff;"/><path d="M316.47,470l27.24,11.34s-14.88,4.74-29.11,3.3C314.6,484.63,312.25,478.2,316.47,470Z" style="fill:#fdb813;"/><path d="M352.74,504.84a76.82,76.82,0,0,1,11.44-8.13c1.85-1,3.75-1.93,5.5-2.7-41.88-16.81-66.9-27.81-72.12-30.13a64,64,0,0,0-10.9,4.33,50.67,50.67,0,0,0-9.5,7.45l5.4,2.34c5.37,2.29,10.74,4.58,16.14,6.82s10.77,4.5,16.16,6.75,10.81,4.41,16.25,6.54,10.84,4.33,16.28,6.47l4.43,1.72A3,3,0,0,1,352.74,504.84Z" style="fill:none;"/><path d="M445.83,541.65c-21.95-8.12-43.9-16.15-65.74-24.48-7.51-2.82-15-5.72-22.47-8.62a68.53,68.53,0,0,1,9.44-6.6,79,79,0,0,1,11.69-5.07,3,3,0,0,0,.18-5.62C327.51,470.76,299.28,458.1,299,458a3,3,0,0,0-2.05-.15A73.61,73.61,0,0,0,283.74,463a57.66,57.66,0,0,0-11.25,8.88,2.93,2.93,0,0,0-.76,1.44q-10.67-4.62-21.29-9.35c-21.33-9.52-42.54-19.35-63.48-29.75a.91.91,0,0,0-.86,1.6c10.11,5.93,20.42,11.51,30.82,16.92,5.19,2.72,10.43,5.34,15.68,8s10.5,5.19,15.8,7.7q15.86,7.58,31.92,14.73c5.35,2.38,10.71,4.75,16.09,7.07s10.8,4.56,16.2,6.84q32.46,13.52,65.68,25.09c11.08,3.83,22.19,7.54,33.37,11s22.4,6.86,33.73,9.89a.75.75,0,0,0,.88-.46A.74.74,0,0,0,445.83,541.65ZM331.11,498.11c-5.44-2.13-10.84-4.35-16.25-6.54s-10.79-4.45-16.16-6.75-10.77-4.53-16.14-6.82l-5.4-2.34a50.67,50.67,0,0,1,9.5-7.45,64,64,0,0,1,10.9-4.33c5.22,2.32,30.24,13.32,72.12,30.13-1.75.77-3.65,1.68-5.5,2.7a76.82,76.82,0,0,0-11.44,8.13,3,3,0,0,0-.92,1.46l-4.43-1.72C342,502.44,336.52,500.3,331.11,498.11Z" style="fill:#10294c;"/><path d="M342.09,186.54v23.39c0,2.58,3.5,4.67,7.81,4.67s7.81-2.09,7.81-4.67V186.54Z" style="fill:#10294c;"/><path d="M413.69,214.16v23.39c0,2.58,3.5,4.67,7.81,4.67s7.81-2.09,7.81-4.67V214.16Z" style="fill:#10294c;"/><path d="M465.19,93.12a555.71,555.71,0,0,1,3.37,61.76,549.9,549.9,0,0,1-3.37,61.57L449.31,226.5h-.12c-.46-5-2.65-30.42-2.65-67.43,0-41.48,2.75-55,2.75-55l0-.9Z" style="fill:#10294c;"/><path d="M465.19,93.12l-15.88,10.06h0S425.78,94,390.31,82c-49.22-16.65-70.58-22.82-70.58-22.82l15.92-9.14S359.3,54.85,401.23,69C446.54,84.28,465.19,93.12,465.19,93.12Z" style="fill:#fdb813;"/><path d="M449.31,103.18l0,.9s-2.75,13.49-2.75,55c0,37,2.19,62.38,2.65,67.43a427.78,427.78,0,0,1-76-20.69c-41.9-15.55-53.45-23.24-53.45-23.24s-4-20-4-59.17,4-64.16,4-64.16S341.09,65.39,390.31,82c35.47,12,59,21.13,59,21.13Z" style="fill:#fdb813;"/><path d="M437.43,102.08c-9.48-1.38-18.86-3.38-28.15-5.64l-7-1.76c-2.32-.61-4.62-1.28-6.92-1.91l-6.9-2-6.85-2.14q-13.72-4.26-27-9.66c-4.42-1.83-8.83-3.73-13.16-5.79-1.09-.49-2.17-1-3.24-1.57L335,70q-3.19-1.67-6.32-3.47a.74.74,0,0,1,.59-1.35h0c4.58,1.4,9.09,2.92,13.61,4.4l13.54,4.45,27,9L397,87.42l13.58,4.32,27.25,8.57a.91.91,0,0,1-.41,1.77Z" style="fill:#10294c;"/><path d="M335.14,136.52a10.69,10.69,0,0,1-3.76.13,15.84,15.84,0,0,1-3.39-.82,10.68,10.68,0,0,1-3.07-1.63,8.17,8.17,0,0,1-2.44-3.06,1,1,0,0,1,.5-1.31l.06,0h0a8.49,8.49,0,0,1,3.91-.44,10.13,10.13,0,0,1,3.28,1,15,15,0,0,1,3,1.78,11.57,11.57,0,0,1,2.59,2.74l0,0a1.1,1.1,0,0,1-.31,1.51A1,1,0,0,1,335.14,136.52Z" style="fill:#f04e23;"/><path d="M438.55,164.24a14.74,14.74,0,0,1-4.4.5,22.42,22.42,0,0,1-4.19-.49,15.47,15.47,0,0,1-4-1.33,10.57,10.57,0,0,1-3.58-2.84.91.91,0,0,1,.15-1.29,1.37,1.37,0,0,1,.2-.13h0a11,11,0,0,1,4.5-.85,15.29,15.29,0,0,1,4.11.66,22.33,22.33,0,0,1,3.89,1.51,15.13,15.13,0,0,1,3.68,2.49l0,0a1,1,0,0,1,0,1.46A1.09,1.09,0,0,1,438.55,164.24Z" style="fill:#f04e23;"/><path d="M418.27,117.62a6.06,6.06,0,0,0-4.51-6.47c-6.35-1.66-18.4-5-33.44-9.91-12.16-4-21.4-7.74-27.32-10.33A6.06,6.06,0,0,0,344.52,96c-.71,9.24-1.66,25.34-1.66,45.78,0,22.4.69,32.7,1.21,37.25a6,6,0,0,0,3.58,4.85c3.51,1.55,11,4.59,26.72,10.34s27.46,9.46,34.78,11.63a6,6,0,0,0,7.77-6.18c-.44-7-.92-18.72-.92-36.5C416,131.2,417.38,126.12,418.27,117.62Z" style="fill:#fff;"/><path d="M407,124.15a3.16,3.16,0,0,0-2.32-3.56c-4.52-1.17-13.87-3.71-25.7-7.59a220.43,220.43,0,0,1-22.32-8.57,3.15,3.15,0,0,0-4.44,2.55A286.25,286.25,0,0,0,351,136.65c0,16.61.51,23.2.9,25.81a3.14,3.14,0,0,0,1.8,2.41c2.16,1,7.56,3.26,20.85,8.12,13.05,4.76,22.58,7.71,27.78,9.22a3.14,3.14,0,0,0,4-3.28c-.33-4.18-.7-11.86-.7-25.35C405.67,136,406.45,127.82,407,124.15Z" style="fill:#00acdc;"/><path d="M358.78,167c10.36,4.76,25.45,9.4,38.39,13.64.83-2.16.49-1.87.86-5.51,1.46-14.45-2.15-20.14-19.82-27-16.46-6.35-20.31,2.63-20,12.61A52,52,0,0,0,358.78,167Z" style="fill:#fdb813;"/><path d="M388.32,142c0,9-4,11.78-11.54,8.8s-8.72-5.63-8.72-13.8,2.71-14.19,11.53-11.56S388.32,133,388.32,142Z" style="fill:#fff;"/><ellipse cx="373.12" cy="135.61" rx="1.68" ry="2.1" transform="translate(-15.5 54.45) rotate(-8.18)" style="fill:#10294c;"/><ellipse cx="382.54" cy="138.82" rx="1.68" ry="2.1" transform="translate(-15.86 55.82) rotate(-8.18)" style="fill:#10294c;"/><path d="M371.91,140.15A31.73,31.73,0,0,0,382.54,144s-1.69,4.45-6,2.91S371.64,141.94,371.91,140.15Z" style="fill:#10294c;"/><path d="M390.85,131.24a12,12,0,0,0-2.9-5.1,11.34,11.34,0,0,0-2.66-2,13.36,13.36,0,0,0-9.86-1.25,18,18,0,0,0-2.06.63h0c-.6.21-.86-.11-.62-.54l.13-.23a1.07,1.07,0,0,0,.13-.53c0-.62-.92-1.29-2.82-.45a5.77,5.77,0,0,0-1.5,1,4.64,4.64,0,0,0-1.31,1.83,4.38,4.38,0,0,0-.14,2.73,4.92,4.92,0,0,0,.47,1.22,5.94,5.94,0,0,0,.67,1c.58.7,2.47,2.07,4.1,1.86a14.17,14.17,0,0,0,1.77-.35l1.29-.37,1-.3c3.43-1.09,9.24,1.66,10.18,5.52a21.56,21.56,0,0,1,.75,5,.8.8,0,0,0,.24.6,1,1,0,0,0,1.29.05,5.92,5.92,0,0,0,1.62-2.39,10.73,10.73,0,0,0,.65-2.58A13.62,13.62,0,0,0,390.85,131.24Z" style="fill:#10294c;"/><path d="M335.83,114.58a5.06,5.06,0,0,1-1.51-.13,4.85,4.85,0,0,1-1.23-.44,5.82,5.82,0,0,1-1.85-1.5,4.19,4.19,0,0,1-1-2.13,4.43,4.43,0,0,1,.61-2.84,1.3,1.3,0,0,1,1.24-.66h.08a6.5,6.5,0,0,1,1.53.31,5.35,5.35,0,0,1,1.07.49,3.69,3.69,0,0,1,1.29,1.35,6.11,6.11,0,0,1,.71,1.75,6.61,6.61,0,0,1,.17,1.08,6.21,6.21,0,0,1,0,1.3l-.05.39A1.19,1.19,0,0,1,335.83,114.58Z" style="fill:#f04e23;"/><path d="M429.14,187.35a5.25,5.25,0,0,1-1.55-.2,5.43,5.43,0,0,1-1.28-.51,6.45,6.45,0,0,1-2-1.64,4.77,4.77,0,0,1-1.1-2.28,4.66,4.66,0,0,1,.51-3A1.22,1.22,0,0,1,425,179h.09a6.65,6.65,0,0,1,1.57.39,6.37,6.37,0,0,1,1.11.56,4.59,4.59,0,0,1,1.41,1.51,7.46,7.46,0,0,1,.85,1.92,7.66,7.66,0,0,1,.24,1.16,6.19,6.19,0,0,1,.07,1.39l0,.28A1.18,1.18,0,0,1,429.14,187.35Z" style="fill:#f04e23;"/><path d="M336.91,156.21a4.85,4.85,0,0,1-.4,1.36,4.75,4.75,0,0,1-.61,1,5.23,5.23,0,0,1-1.66,1.43,3.71,3.71,0,0,1-2.1.52,4.28,4.28,0,0,1-2.58-1.12,1.35,1.35,0,0,1-.43-1.36V158a5.68,5.68,0,0,1,1.1-2.38,3.31,3.31,0,0,1,1.49-1,5.51,5.51,0,0,1,1.82-.33,5.92,5.92,0,0,1,1.08.08,5.36,5.36,0,0,1,1.26.33l.2.08A1.32,1.32,0,0,1,336.91,156.21Z" style="fill:#f04e23;"/><path d="M433.35,134.32a5.31,5.31,0,0,1-.35,1.35,4.47,4.47,0,0,1-.59,1,4.82,4.82,0,0,1-1.6,1.4,3.42,3.42,0,0,1-2,.47,4.22,4.22,0,0,1-2.48-1.16,1.44,1.44,0,0,1-.44-1.33l0-.08a6.83,6.83,0,0,1,.47-1.43,5,5,0,0,1,.57-.93,2.89,2.89,0,0,1,1.41-.95,5.17,5.17,0,0,1,2.74-.17,4.9,4.9,0,0,1,1.21.33l.3.13A1.29,1.29,0,0,1,433.35,134.32Z" style="fill:#f04e23;"/><path d="M202.64,494.11c20.54,10.38,52,25.44,94.12,43.26,53.57,22.66,103.74,40,131.84,49.18l0,.06s-80.8,31.91-46.49,155.75c0,0-78.27-23.94-132.41-45.83a656.87,656.87,0,0,1-93.53-46.68C121.85,526,202.64,494.11,202.64,494.11Z" style="fill:#fff;"/><path d="M403.59,578.14c-42.1,22.42-56.72,65.25-56.75,99.64-22.84-7.72-59.25-19.5-80.77-28.2-32.1-13-81.82-36.82-97-45.35-9.83-65.74,39.37-95.26,53-100.52,0,0,58.57,27.72,93.19,41.35S403.59,578.14,403.59,578.14Z" style="fill:#00acdc;"/><path d="M395.94,614.75a91.62,91.62,0,0,0-8.63,14,101.39,101.39,0,0,0-6.17,15.27,124.59,124.59,0,0,0-5.48,32.41,178.69,178.69,0,0,0,1.79,32.92,257.08,257.08,0,0,0,7,32.3,2.45,2.45,0,0,1-3.07,3h0Q352,735.86,323,726.17q-14.54-4.83-29-9.89c-9.63-3.41-19.24-6.89-28.8-10.53s-19.08-7.43-28.51-11.43l-7-3.05-7-3.16c-2.33-1.05-4.65-2.14-7-3.24s-4.64-2.17-6.93-3.31q-13.83-6.69-27.35-14c-4.49-2.46-9-4.95-13.41-7.51s-8.83-5.16-13.23-7.92h0a2.61,2.61,0,0,1-1.15-1.55,237.83,237.83,0,0,1-6.85-35.35c-.66-6-1.08-12-1.17-18a157.59,157.59,0,0,1,.82-18.05,121.08,121.08,0,0,1,8.81-34.94,102.17,102.17,0,0,1,19.45-30.13.74.74,0,0,1,1.1,1q-2.85,3.39-5.42,7c-1.68,2.42-3.31,4.87-4.79,7.41a103.12,103.12,0,0,0-7.65,15.84,122.87,122.87,0,0,0-7.5,34.23,169.05,169.05,0,0,0,1.12,35.11,248.5,248.5,0,0,0,7.27,34.49l-1.16-1.56c4.27,2.61,8.7,5.16,13.11,7.63s8.89,4.91,13.37,7.3q13.45,7.15,27.19,13.75T239,688.84q14,6,28.27,11.39c9.49,3.65,19.06,7.12,28.65,10.56s19.19,6.8,28.83,10.09,19.31,6.52,29,9.71S373.1,737,382.81,740l-3.09,3c-1.42-5.43-2.78-10.88-3.88-16.39s-2-11-2.73-16.64A175,175,0,0,1,372,676.27a128.36,128.36,0,0,1,6.48-33.09,96.76,96.76,0,0,1,16.07-29.54.9.9,0,0,1,1.43,1.1Z" style="fill:#10294c;"/><path d="M316.07,667.47c14.88-57.54-5.3-69.93-50.58-91.92-57.05-27.72-79,.76-79,37.74C186.53,613.29,229.67,640.44,316.07,667.47Z" style="fill:#fdb813;"/><path d="M294.39,576c8.08.31,15.2.29,27.55-7.85,13.29-8.77,19.8-13.59,19.8-13.59l-15.62-5.4S301.34,559.86,294.39,576Z" style="fill:#10294c;"/><path d="M257.42,579c15.85,7.39,27.91,6.09,37-3,4.21-4.2,8.17-9,13-13.4,1.65-1.5,5.53,3,9.26-1.34,3.37-4-.78-5.11,1-6.08a48.79,48.79,0,0,1,11.85-4.61l-58-24.19s-16,2.37-27.88,25C234.42,568.74,248.88,575,257.42,579Z" style="fill:#fff;"/><path d="M255.62,548.94c-7.84,15.36,17.61,26.9,32.25,16a2.3,2.3,0,0,0-.78-4.06c-6-1.62-17.75-5.44-28.08-12.77A2.3,2.3,0,0,0,255.62,548.94Z" style="fill:#10294c;"/><path d="M266.53,537.83a6.3,6.3,0,0,1,1.22-2.7,7.81,7.81,0,0,1,2.05-1.88,7.71,7.71,0,0,1,2.57-1,5.82,5.82,0,0,1,2.84,0,2,2,0,0,1,1.41,2.53,1.91,1.91,0,0,1-.36.71l-.21.26a9.85,9.85,0,0,1-1.55,1.51,16.89,16.89,0,0,1-1.53,1.07,16.24,16.24,0,0,1-1.66.87c-.3.13-.6.27-.93.38a3.55,3.55,0,0,1-1,.26l-1.23,0a1.65,1.65,0,0,1-1.62-1.69A1.43,1.43,0,0,1,266.53,537.83Z" style="fill:#10294c;"/><path d="M293.26,549.24a7.25,7.25,0,0,1,.48-1.49,7,7,0,0,1,.74-1.21,7.85,7.85,0,0,1,2.06-1.88,7.62,7.62,0,0,1,2.57-1,5.78,5.78,0,0,1,2.83,0A2.05,2.05,0,0,1,303,546.9l-.21.26a9.85,9.85,0,0,1-1.55,1.51,18.42,18.42,0,0,1-1.53,1.07,16.24,16.24,0,0,1-1.66.87c-.3.13-.6.27-.94.38a3.71,3.71,0,0,1-1,.26l-1.23,0a1.65,1.65,0,0,1-1.62-1.69A2.85,2.85,0,0,1,293.26,549.24Z" style="fill:#10294c;"/><path d="M276.81,551.6a4.27,4.27,0,0,1-1-.1,4.06,4.06,0,0,1-1-.43,4.85,4.85,0,0,1-.85-.74,5.71,5.71,0,0,1-.6-1,4.86,4.86,0,0,1,.42-4.55,4.7,4.7,0,0,1,1.84-1.66,5,5,0,0,1,1.2-.39,5.37,5.37,0,0,1,1.2,0,4,4,0,0,1,2,.82,3,3,0,0,1,.39.31,2.79,2.79,0,0,1,.3.38,3.89,3.89,0,0,1,.48.84.68.68,0,0,1-.37.89l-.12,0-.09,0a7.47,7.47,0,0,0-2.4.66c-.09.08-.19.12-.25.18s-.13.08-.16.16-.11.07-.14.15-.12.08-.15.16a2.93,2.93,0,0,0-.57,1.06,2.5,2.5,0,0,0,.4,2l.08.15a.73.73,0,0,1-.27,1A.64.64,0,0,1,276.81,551.6Z" style="fill:#10294c;"/><path d="M278.14,544.3a5.52,5.52,0,0,1,.55-2.44,6.53,6.53,0,0,1,1.38-1.88,5.07,5.07,0,0,1,2.08-1.24,3.69,3.69,0,0,1,2.77.26.78.78,0,0,1,.35,1l0,.11a9.23,9.23,0,0,1-1,2,5.3,5.3,0,0,1-1.24,1.26,9.52,9.52,0,0,1-1.62,1,8.07,8.07,0,0,1-2.15.74l-.08,0a.85.85,0,0,1-1-.68A.77.77,0,0,1,278.14,544.3Z" style="fill:#10294c;"/><path d="M319.66,554.15c5.14-2.16,3.18-6.35,0-7.67s5.09-3.19,10.89.36,3.62,7.31,3.62,7.31Z" style="fill:#10294c;"/><path d="M200.66,618.28a17.82,17.82,0,0,1-1.22-6.32,27.69,27.69,0,0,1,.56-6.29,20.32,20.32,0,0,1,2.16-6c.28-.48.58-.94.89-1.39a16.84,16.84,0,0,1,1.06-1.31,12.55,12.55,0,0,1,1.26-1.16,8.87,8.87,0,0,1,1.5-.92.82.82,0,0,1,1.09.37.86.86,0,0,1,.07.47v.07c-.29,2.13-.6,3.91-1,5.76s-.79,3.64-1.27,5.46-1,3.68-1.49,5.54-1.13,3.72-1.84,5.65l0,0a1,1,0,0,1-1.79,0Z" style="fill:#10294c;"/><path d="M287,654.11a21.48,21.48,0,0,1-2.32-6.43,27.33,27.33,0,0,1-.53-6.82,21.74,21.74,0,0,1,1.3-6.79,14.61,14.61,0,0,1,3.85-5.89.82.82,0,0,1,1.35.56v0a54.65,54.65,0,0,1-.06,6.44c-.12,2-.31,4-.5,6l-.52,6.13c-.19,2.08-.38,4.2-.79,6.43h0a1,1,0,0,1-1.78.3Z" style="fill:#10294c;"/><path d="M141.3,554a21.68,21.68,0,0,0-6.36-1.89,32.39,32.39,0,0,0-3.53-.33c-.08-1.13-.21-2.26-.38-3.4a31.4,31.4,0,0,0-1.54-6.35,1,1,0,0,0-.57-.57,1,1,0,0,0-1.24.57,32.12,32.12,0,0,0-1.55,6.35c-.17,1.18-.29,2.35-.38,3.52-1.18.09-2.35.22-3.52.39a32,32,0,0,0-6.36,1.54,1,1,0,0,0-.57.58,1,1,0,0,0,.57,1.24,31.33,31.33,0,0,0,6.36,1.54c1.13.17,2.26.29,3.4.38a32.37,32.37,0,0,0,.32,3.53,21.35,21.35,0,0,0,1.9,6.35.76.76,0,0,0,.36.37.83.83,0,0,0,1.11-.37,21.65,21.65,0,0,0,1.9-6.35,32.75,32.75,0,0,0,.32-3.41,30.06,30.06,0,0,0,3.4-.32,21.68,21.68,0,0,0,6.36-1.89.81.81,0,0,0,.36-.37A.83.83,0,0,0,141.3,554Z" style="fill:#fdb813;"/><path d="M357.45,710.63a14.49,14.49,0,0,0-1.85-.28c-.07-.56-.16-1.11-.28-1.67a17.42,17.42,0,0,0-1.54-4.58,1,1,0,0,0-.44-.45,1,1,0,0,0-1.37.45,17.83,17.83,0,0,0-1.55,4.58q-.18.92-.3,1.83c-.61.08-1.22.17-1.83.3a17.67,17.67,0,0,0-4.58,1.54,1.1,1.1,0,0,0-.44.44,1,1,0,0,0,.44,1.37,17.7,17.7,0,0,0,4.58,1.55c.56.11,1.12.2,1.68.28a16.83,16.83,0,0,0,.27,1.85,12.43,12.43,0,0,0,1.9,4.58.92.92,0,0,0,.22.22.89.89,0,0,0,1.25-.22,12.6,12.6,0,0,0,1.9-4.58,14.36,14.36,0,0,0,.25-1.69,16,16,0,0,0,1.69-.26A12.5,12.5,0,0,0,362,714a.84.84,0,0,0,.23-.23.9.9,0,0,0-.23-1.25A12.5,12.5,0,0,0,357.45,710.63Z" style="fill:#fdb813;"/><path d="M433.5,637.49a21.26,21.26,0,0,0-6.35-1.9,30.06,30.06,0,0,0-3.53-.32c-.09-1.14-.21-2.27-.38-3.4a31.33,31.33,0,0,0-1.54-6.36,1,1,0,0,0-.57-.57,1,1,0,0,0-1.24.57,31.36,31.36,0,0,0-1.55,6.36c-.17,1.17-.3,2.34-.38,3.52-1.18.08-2.35.21-3.52.38a32,32,0,0,0-6.36,1.55,1,1,0,0,0-.57.57,1,1,0,0,0,.57,1.24,31.33,31.33,0,0,0,6.36,1.54c1.13.17,2.26.29,3.4.38a30.06,30.06,0,0,0,.32,3.53,21.68,21.68,0,0,0,1.89,6.36.86.86,0,0,0,.37.36.83.83,0,0,0,1.11-.36,21.68,21.68,0,0,0,1.89-6.36,28.1,28.1,0,0,0,.32-3.4,32.75,32.75,0,0,0,3.41-.32,21.56,21.56,0,0,0,6.35-1.9.78.78,0,0,0,.37-.37A.81.81,0,0,0,433.5,637.49Z" style="fill:#fdb813;"/><path d="M115.08,511.61a6.94,6.94,0,0,0-3-1.89,4,4,0,0,0-.46-.13l-.06-.21a9.05,9.05,0,0,0-1.54-3,.86.86,0,0,0-.19-.19,1.15,1.15,0,0,0-1.62.19,9.29,9.29,0,0,0-1.55,3l-.11.41-.4.11a9,9,0,0,0-3,1.54l-.19.19a1.16,1.16,0,0,0,.19,1.62,9,9,0,0,0,3,1.55l.21.06c0,.15.07.3.12.45a6.9,6.9,0,0,0,1.9,3,1.08,1.08,0,0,0,1.47,0,7,7,0,0,0,1.9-3c0-.08,0-.17.07-.26l.26-.07a6.94,6.94,0,0,0,3-1.89A1.09,1.09,0,0,0,115.08,511.61Z" style="fill:#fdb813;"/><path d="M401.15,652.58a1.08,1.08,0,0,0,0-1.47,6.87,6.87,0,0,0-3-1.9l-.46-.12-.06-.21a9,9,0,0,0-1.54-3l-.19-.19a1.16,1.16,0,0,0-1.62.19,9,9,0,0,0-1.55,3c0,.13-.07.27-.11.4l-.4.11a9.23,9.23,0,0,0-3,1.55,1.14,1.14,0,0,0-.19.19,1.16,1.16,0,0,0,.19,1.62,9,9,0,0,0,3,1.54l.21.06a3.9,3.9,0,0,0,.12.46,6.94,6.94,0,0,0,1.89,3,1.09,1.09,0,0,0,1.48,0,6.94,6.94,0,0,0,1.89-3c0-.09,0-.18.08-.26l.26-.07A7,7,0,0,0,401.15,652.58Z" style="fill:#fdb813;"/><path d="M408,760.94c-.15-.05-.3-.08-.46-.12s0-.14-.05-.21a9.19,9.19,0,0,0-1.55-3,.86.86,0,0,0-.19-.19,1.15,1.15,0,0,0-1.62.19,9,9,0,0,0-1.54,3c-.05.14-.08.27-.12.4s-.27.07-.4.12a8.86,8.86,0,0,0-3,1.54.86.86,0,0,0-.19.19,1.14,1.14,0,0,0,.19,1.62,9.09,9.09,0,0,0,3,1.55,1.66,1.66,0,0,1,.21.06c0,.15.07.3.12.45a6.9,6.9,0,0,0,1.9,3,1.09,1.09,0,0,0,1.47,0,6.9,6.9,0,0,0,1.9-3c0-.09,0-.17.07-.26l.26-.07a6.9,6.9,0,0,0,3-1.9,1.09,1.09,0,0,0,0-1.47A7,7,0,0,0,408,760.94Z" style="fill:#fdb813;"/><path d="M133.87,462.24c.11.09.22.16.32.23a4.78,4.78,0,0,0,1.79,1.72,1.45,1.45,0,0,0,1.48,0,4.85,4.85,0,0,0,1.61-1.44,5,5,0,0,0,1.44-1.62,1.43,1.43,0,0,0,0-1.47,4.63,4.63,0,0,0-1.72-1.79l-.22-.32a5.58,5.58,0,0,0-.94-.95,1.5,1.5,0,0,0-1.82,0,5.58,5.58,0,0,0-.94.95,4.73,4.73,0,0,0-.4.59,5.33,5.33,0,0,0-.6.41,5.21,5.21,0,0,0-.94.94,1.46,1.46,0,0,0,0,1.81A5.21,5.21,0,0,0,133.87,462.24Z" style="fill:#fdb813;"/><path d="M121.74,612.71a3.09,3.09,0,0,0-.23-.31,4.94,4.94,0,0,0-.94-.95,1.47,1.47,0,0,0-1.81,0,4.94,4.94,0,0,0-.94.95,4.47,4.47,0,0,0-.41.59,6.34,6.34,0,0,0-.59.41,5.24,5.24,0,0,0-.95.94,1.49,1.49,0,0,0,0,1.81,5.24,5.24,0,0,0,.95.94c.11.09.21.15.32.23a4.78,4.78,0,0,0,1.79,1.72,1.43,1.43,0,0,0,1.47,0,4.9,4.9,0,0,0,1.62-1.45,4.85,4.85,0,0,0,1.44-1.61,1.43,1.43,0,0,0,0-1.47A4.82,4.82,0,0,0,121.74,612.71Z" style="fill:#fdb813;"/><path d="M553.31,307.48h0a9.68,9.68,0,0,0-2.37-1,1.59,1.59,0,0,0-.81,0,32.53,32.53,0,0,0-9.6,4.82,1.63,1.63,0,0,0,.48,2.88,50.26,50.26,0,0,1,10.21,4.69,1.63,1.63,0,0,0,2.46-1.48C553.58,315.2,553.44,311.77,553.31,307.48Z" style="fill:#10294c;"/><path d="M579.47,329.63c4.34-70.7.69-104.32,0-109.74a1.63,1.63,0,0,0-.78-1.2c-28.08-16.78-68.18-29.25-77.13-31.92a1.64,1.64,0,0,0-2.09,1.37,103.68,103.68,0,0,0,.14,27.21,1.62,1.62,0,0,0,.85,1.2c19.54,10.36,46.28,19.57,52.17,21.56a1.62,1.62,0,0,1,1.11,1.63c-1.43,24.41-.93,51.93-.44,67.73h0c.13,4.29.27,7.72.37,10a1.63,1.63,0,0,1-2.46,1.48,49.18,49.18,0,0,0-10.57-4.79,1.63,1.63,0,0,0-2,2.09c6.49,19,24.28,39.58,28.84,44.65a1.63,1.63,0,0,0,2.27.15c8.83-7.5,19.75-18.14,23.56-21.9a1.65,1.65,0,0,0-.24-2.53,37.25,37.25,0,0,0-12.36-5.28A1.64,1.64,0,0,1,579.47,329.63Z" style="fill:#fdb813;"/><path d="M592.23,322.14c4.35-70.78.71-104.42,0-109.85a1.6,1.6,0,0,0-.78-1.19c-30-17.94-73.78-30.95-78.53-32.33a1.75,1.75,0,0,0-.85,0,24.47,24.47,0,0,0-10.35,5.47,1.63,1.63,0,0,0,.61,2.79c10.3,3.11,49,15.35,76.35,31.69a1.63,1.63,0,0,1,.78,1.2c.68,5.42,4.33,39,0,109.74a1.64,1.64,0,0,0,1.27,1.7,37.25,37.25,0,0,1,12.36,5.28,1.65,1.65,0,0,1,.24,2.53c-4,3.93-15.75,15.4-24.77,22.92h0l12.61-7.49a1.07,1.07,0,0,0,.22-.15c8.94-7.46,20.54-18.76,24.61-22.77a1.64,1.64,0,0,0-.32-2.58,54.55,54.55,0,0,0-12.27-5.25A1.66,1.66,0,0,1,592.23,322.14Z" style="fill:#10294c;"/><ellipse cx="510.13" cy="205.71" rx="3.9" ry="4.88" transform="translate(-24.07 74.65) rotate(-8.18)" style="fill:#fff;"/><ellipse cx="528.4" cy="213.21" rx="3.9" ry="4.88" transform="translate(-24.95 77.33) rotate(-8.18)" style="fill:#fff;"/><ellipse cx="547.34" cy="220.45" rx="3.9" ry="4.88" transform="matrix(0.99, -0.14, 0.14, 0.99, -25.79, 80.09)" style="fill:#fff;"/><ellipse cx="566.38" cy="230.53" rx="3.9" ry="4.88" transform="translate(-27.03 82.9) rotate(-8.18)" style="fill:#fff;"/><ellipse cx="566.38" cy="250.83" rx="3.9" ry="4.88" transform="translate(-29.92 83.11) rotate(-8.18)" style="fill:#fff;"/><ellipse cx="566.38" cy="271.13" rx="3.9" ry="4.88" transform="translate(-32.81 83.32) rotate(-8.18)" style="fill:#fff;"/><ellipse cx="566.38" cy="291.43" rx="3.9" ry="4.88" transform="translate(-35.69 83.52) rotate(-8.18)" style="fill:#fff;"/><ellipse cx="566.38" cy="311.73" rx="3.9" ry="4.88" transform="translate(-38.58 83.73) rotate(-8.18)" style="fill:#fff;"/><ellipse cx="566.38" cy="332.03" rx="3.9" ry="4.88" transform="translate(-41.47 83.94) rotate(-8.18)" style="fill:#fff;"/><path d="M536.86,557.32s-7.31-60.79-5.46-110.23c0,0,101.83-64.66,131.44-83.54,0,0,4.95,51.45-1.63,108C661.21,471.51,584.54,537.22,536.86,557.32Z" style="fill:#fff;"/><path d="M582,503.05c0-7.46-1.44-65.63-1.28-74.3-16.77,10.5-32.68,21.69-39.53,25.43,0,0,.91,36.34,3.65,73.94C554.52,522.14,570.07,512.19,582,503.05Z" style="fill:#00acdc;"/><path d="M656.88,454.52c1.33-25.64.67-63.68,0-76-14.78,8.87-37.59,25.28-57,37.45-.6,27.42-.29,64,.28,79.84C610.34,489.93,639.81,470.3,656.88,454.52Z" style="fill:#00acdc;"/><path d="M581.7,484.47l-.38-18.57L581,447.33c-.1-6.19-.24-12.39-.21-18.58a.16.16,0,0,0-.14-.16.16.16,0,0,0-.19.13v0c-.24,1.56-.42,3.11-.6,4.66s-.34,3.11-.48,4.66c-.28,3.1-.59,6.21-.78,9.31l-.63,9.31-.45,9.3c-.16,3.1-.3,6.2-.39,9.3s-.2,6.2-.27,9.29-.15,6.2-.19,9.29l-.1,6.15c-2.36,1.54-4.68,3.14-7,4.78-3,2.12-5.93,4.37-8.81,6.72l-2.15,1.79-2.11,1.85-2.07,1.91c-.69.64-1.35,1.33-2,2s-1.36,1.32-2,2l-2,2.13a55.67,55.67,0,0,0-3.71,4.63l0,.06a.15.15,0,0,0,0,.17.16.16,0,0,0,.22,0q9.52-5.91,18.86-12.12c6.21-4.16,12.35-8.42,18.3-12.95h0C582,496.86,581.82,490.67,581.7,484.47Z" style="fill:#10294c;"/><path d="M600,495.47c4.37-4.07,8.82-7.86,13.23-11.75q3.36-2.82,6.66-5.69c2.24-1.88,4.45-3.76,6.69-5.61l13.33-11.11c4.41-3.68,8.78-7.39,12.94-11.16l-1.9,4.07,1-18.8c.31-6.3.7-12.6,1.09-18.91s.94-12.64,1.47-19,1.2-12.66,2-19v0a.16.16,0,0,1,.32,0c.33,6.33.48,12.67.6,19s.18,12.68.19,19c0,12.68-.13,25.36-.76,38h0c-4.3,4-8.82,7.7-13.41,11.32s-9.3,7.12-14,10.54-9.57,6.75-14.44,10-9.78,6.44-14.84,9.38a.16.16,0,0,1-.19-.26Z" style="fill:#10294c;"/><path d="M592.06,418.25c.86,8.2,1.35,16.4,1.81,24.59s.73,16.39.94,24.59.36,16.39.32,24.58-.22,16.38-.59,24.6v0a.74.74,0,0,1-1.47.12c-.43-2-.83-4.07-1.16-6.11s-.63-4.1-.85-6.14c-.51-4.1-.88-8.2-1.2-12.31-.59-8.21-.88-16.42-1-24.64s-.09-16.42.11-24.64.55-16.43,1.28-24.64a.92.92,0,0,1,1-.83A.91.91,0,0,1,592.06,418.25Z" style="fill:#10294c;"/><path d="M556.67,483.8a1.32,1.32,0,0,1-.55-.11,1.49,1.49,0,0,1-.84-1.94l6.23-15.6a1.5,1.5,0,0,1,1.28-.94,1.51,1.51,0,0,1,1.41.75l4.79,8.36a1.5,1.5,0,0,1-2.6,1.49l-3.25-5.68-5.08,12.73A1.5,1.5,0,0,1,556.67,483.8Z" style="fill:#fff;"/><path d="M571.74,486.29c0-3.52,0-10.52.08-15.11a1.12,1.12,0,0,0-1.72-1c-7.36,4.6-13.7,8.51-17.08,10.41a1.11,1.11,0,0,0-.57,1c0,3.89.11,11.34.26,16.09a1.13,1.13,0,0,0,1.72.92c4.79-3,11.48-7.36,16.87-11.43A1.11,1.11,0,0,0,571.74,486.29Z" style="fill:#10294c;"/><path d="M557.05,491.62c0-2.79-.09-5.69-.11-8.07,2.73-1.59,6.46-3.88,10.34-6.29,0,2.65,0,5.31,0,7.35C564,487,560.36,489.46,557.05,491.62Z" style="fill:#fdb813;"/><path d="M543.89,516.61a3,3,0,0,1-3-2.82c-.49-8.13-1-17-1-17a3,3,0,1,1,6-.33s.48,8.9,1,17a3,3,0,0,1-2.81,3.16Z" style="fill:#10294c;"/><path d="M559.63,537.47a3,3,0,0,1-1.56-5.54,142.59,142.59,0,0,0,13.22-9.19,3,3,0,0,1,3.83,4.59,142.19,142.19,0,0,1-13.93,9.7A3,3,0,0,1,559.63,537.47Z" style="fill:#10294c;"/><path d="M626.9,429.24a5.4,5.4,0,0,1-.56-1.22,5.07,5.07,0,0,1-.25-1.12,5.33,5.33,0,0,1,.15-2,3.53,3.53,0,0,1,1-1.72,4.79,4.79,0,0,1,2.43-1.19,1.39,1.39,0,0,1,1.39.49,4.72,4.72,0,0,1,1.14,2.46,3.53,3.53,0,0,1-.32,1.95,5.3,5.3,0,0,1-1.15,1.65,4.66,4.66,0,0,1-.89.72,5.46,5.46,0,0,1-1.21.6A1.45,1.45,0,0,1,626.9,429.24Z" style="fill:#fff;"/><path d="M613.74,466.4a45.86,45.86,0,0,1,1.14-7.84,75.58,75.58,0,0,1,2.1-7.5,52.81,52.81,0,0,1,2.92-7.21,30.61,30.61,0,0,1,4.38-6.7.8.8,0,0,1,1.39.49,31,31,0,0,1-.81,8,52.83,52.83,0,0,1-2.27,7.44,75.19,75.19,0,0,1-3.09,7.15,46.18,46.18,0,0,1-4,6.82,1,1,0,0,1-1.33.2A1,1,0,0,1,613.74,466.4Z" style="fill:#fff;"/><path d="M634.37,446.18a24.43,24.43,0,0,1,.39-5.72,38.84,38.84,0,0,1,1.35-5.38,27.3,27.3,0,0,1,2.16-5.08,16.81,16.81,0,0,1,3.63-4.57.84.84,0,0,1,1.2.09.82.82,0,0,1,.19.4,17,17,0,0,1,0,5.83,26.6,26.6,0,0,1-1.52,5.32,38.82,38.82,0,0,1-2.34,5,24.65,24.65,0,0,1-3.3,4.69,1,1,0,0,1-1.39.06A1.06,1.06,0,0,1,634.37,446.18Z" style="fill:#fff;"/><path d="M545.57,406.48l.06,0,.54-.33s25.22,19.25,33.59,27.52a9.66,9.66,0,0,1,1.75,2.33c10,5.34,20.43-3.1,12.71-10.74l-1.05-1c-10.38-8.58-31.35-26.28-32.5-27.25Z" style="fill:#fdb813;"/><path d="M560.61,397l.06.05c1.15,1,22.12,18.67,32.5,27.25l.07.06c10.68,8.84,24-.5,15.51-8.86-.37-.37-.78-.76-1.21-1.17-10.75-8.91-30.93-25.85-31.94-26.7Z" style="fill:#f04e23;"/><path d="M590.33,378.44l.63-.39-.07-.06-15.34,9.59.05,0c1,.85,21.19,17.79,31.94,26.7l1.14.94c10.34,8.55,23.1.1,16.28-8a17.28,17.28,0,0,1-2-1.43C612.31,397,590.33,378.44,590.33,378.44Z" style="fill:#fdb813;"/><path d="M605.27,369.21l.47-.3-.07-.06L591,378.05l-.63.39S612.31,397,623,405.8a17.28,17.28,0,0,0,2,1.43c10.23,6.25,21.43-2.44,13.52-10.28l-.08-.06C627.76,388.09,605.27,369.21,605.27,369.21Z" style="fill:#f04e23;"/><path d="M620.27,359.83l-14.53,9.08-.47.3s22.49,18.88,33.13,27.68l.08.06c9.32,7.61,21.64.38,19-7.14a15.67,15.67,0,0,1-4.73-2.74C642.57,378.64,622,361.29,620.27,359.83Z" style="fill:#fdb813;"/><path d="M634.85,350.51l-14.71,9.21.13.11c1.73,1.46,22.3,18.81,32.49,27.24a15.67,15.67,0,0,0,4.73,2.74c9,3.29,17.43-3.93,11.45-10.88-.34-.24-.67-.5-1-.77C657.51,369.54,635.74,351.26,634.85,350.51Z" style="fill:#f04e23;"/><path d="M683.45,369.3c-6.58-6.51-23.45-20.39-30.32-26a5.36,5.36,0,0,0-6.23-.39l-12.09,7.56,0,0c.89.75,22.66,19,33.09,27.65.33.27.66.53,1,.77C679.43,386.42,691.65,377.41,683.45,369.3Z" style="fill:#fdb813;"/><path d="M546.17,406.2l-.54.33-10.46,6.55c-2.55,1.77-3.93,2.77-4.46,5.87a2,2,0,0,0-.14.61c-.34,5.7-.77,15.93.5,16.51,16,7.28,39.64,10.49,39.64,10.49h0c7.29,1.16,13.87-4.65,10.8-10.5a9.66,9.66,0,0,0-1.75-2.33C571.39,425.45,546.17,406.2,546.17,406.2Z" style="fill:#f04e23;"/><path d="M535.42,418.77a62.63,62.63,0,0,1,6.85,4.23c2.19,1.52,4.3,3.13,6.36,4.81a76.7,76.7,0,0,1,5.94,5.32,41.78,41.78,0,0,1,5.19,6.21.58.58,0,0,1-.71.85,42.41,42.41,0,0,1-7-4,76.68,76.68,0,0,1-6.27-4.92c-2-1.74-4-3.54-5.85-5.43a64,64,0,0,1-5.36-6,.7.7,0,0,1,.12-1A.69.69,0,0,1,535.42,418.77Z" style="fill:#10294c;"/><path d="M707.25,489.34c3.94,3.42,5.07,7.84.29,13.52,0,0-14.69,22.18-80.25,64.68s-91.48,50.23-91.48,50.23c-29.91,12.47-77.46-2.23-79.08-2.74l-1.43.66A117.89,117.89,0,0,0,458.2,632h0s53.37,13.77,79.12,2.75h0s26.82-8,91.47-50.22S709,519.88,709,519.88a14.66,14.66,0,0,0,2.65-4.37C717.06,505.44,713.57,493.77,707.25,489.34Z" style="fill:#10294c;"/><path d="M535.81,617.77s25.92-7.72,91.48-50.23,80.25-64.68,80.25-64.68c4.78-5.68,3.65-10.1-.29-13.52-9.32-8.07-34.34-10.49-34.34-10.49s-58.19,49.58-104,76.88S455.75,615,455.75,615h1C458.35,615.54,505.9,630.24,535.81,617.77Z" style="fill:#00acdc;"/><path d="M483.67,608.58c4,.49,8,.83,12,1s8,.25,12,.07a85.12,85.12,0,0,0,11.77-1.33A52.33,52.33,0,0,0,530.56,605l.1,0,.13-.05c1-.32,2.05-.72,3.08-1.13S536,603,537,602.51s2.08-.9,3.12-1.36,2.07-.93,3.09-1.42c4.13-1.9,8.19-4,12.25-6.06,8.11-4.18,16.08-8.67,24-13.3,4-2.31,7.86-4.69,11.78-7s7.78-4.82,11.68-7.23l11.55-7.43,5.74-3.78c1.92-1.25,3.84-2.49,5.74-3.78,15.23-10.17,30.27-20.63,44.72-31.82,3.63-2.77,7.17-5.65,10.66-8.57q2.61-2.2,5.15-4.45c.85-.76,1.68-1.52,2.49-2.29l.6-.57.24-.24.23-.26a13.16,13.16,0,0,0,.92-1.17,7.36,7.36,0,0,0,1.18-2.43,3.76,3.76,0,0,0-.1-2.3c-.56-1.53-2.21-3-4-4.1a39.83,39.83,0,0,0-6-3c-2.09-.87-4.23-1.68-6.4-2.43a.74.74,0,0,1,.4-1.42,57.08,57.08,0,0,1,13.41,4.26,18.29,18.29,0,0,1,3.17,2,9.56,9.56,0,0,1,2.61,3.22,7.2,7.2,0,0,1,.59,4.45,11.1,11.1,0,0,1-1.52,3.86,19.23,19.23,0,0,1-1.1,1.62l-.32.4-.35.39-.62.65c-.82.85-1.65,1.67-2.48,2.49l-2.52,2.41-2.58,2.34c-3.46,3.08-7,6.12-10.54,9-7.12,5.89-14.5,11.45-21.92,16.93q-5.58,4.1-11.26,8c-3.77,2.66-7.59,5.24-11.4,7.83-15.3,10.28-30.89,20.13-46.91,29.31-8,4.58-16.12,9-24.4,13.14-4.16,2-8.33,4-12.59,5.9-1.06.47-2.12.93-3.2,1.38s-2.14.9-3.23,1.32-2.17.86-3.28,1.27-2.18.79-3.41,1.17l.23-.08a54.27,54.27,0,0,1-12.26,3.13,79.72,79.72,0,0,1-12.42.74,124.8,124.8,0,0,1-24.36-2.95.9.9,0,0,1,.3-1.78Z" style="fill:#10294c;"/><path d="M609.8,527.21a2.07,2.07,0,0,1-.61,1.64s-3.89,5.88-21.26,17.14-24.24,13.31-24.24,13.31c-8.06,3.36-26.94-2.23-26.94-2.23h-.25l.37-.18a4.53,4.53,0,0,1-.53,0c.32,3,.81,17.45.81,17.45h0s16.39,5.15,23.21,2.23h0s12.34-3.62,29.47-14.81,19.77-14.89,19.77-14.89a4,4,0,0,0,.7-1.16C611.5,543.39,611,532,609.8,527.21Z" style="fill:#10294c;"/><path d="M609.69,526.82a3.12,3.12,0,0,0-.86-1.73,1,1,0,0,0-1.08,0A3.8,3.8,0,0,1,609.69,526.82Z" style="fill:#10294c;"/><path d="M536.75,557.07s18.88,5.59,26.94,2.23c0,0,6.87-2,24.24-13.31s21.26-17.14,21.26-17.14a2.07,2.07,0,0,0,.61-1.64,1.25,1.25,0,0,0-.11-.39,3.8,3.8,0,0,0-1.94-1.68c-3.06-1.51-8.72-2.24-11.44-2.52a4.05,4.05,0,0,0-2.72.72c-4,2.82-17,12-27.11,18-11.13,6.63-27,14.3-29.61,15.53l-.37.18Z" style="fill:#00acdc;"/></svg>