<?xml version="1.0" encoding="UTF-8"?><svg version="1.1" id="Layer_1" xmlns="http://www.w3.org/2000/svg" xmlns:xlink="http://www.w3.org/1999/xlink" x="0px" y="0px" viewBox="0 0 600 600" style="enable-background:new 0 0 600 600;" xml:space="preserve" width="600px" height="600px">

<g>
	<circle cx="245.165" cy="424.127" r="140.295" style="fill:#FFE7E6;"/>
</g>
<g>
	<g>
		<g>
			<path d="M318.166,301.806c-21.364-12.799-46.337-20.168-73.001-20.168c-78.568,0-142.488,63.92-142.488,142.488
				c0,78.567,63.92,142.488,142.488,142.488c78.567,0,142.488-63.92,142.488-142.488c0-50.279-26.179-94.559-65.62-119.927
				L318.166,301.806z M383.268,424.126c0,76.15-61.953,138.103-138.103,138.103c-76.151,0-138.104-61.953-138.104-138.103
				c0-76.151,61.953-138.104,138.104-138.104c25.764,0,49.898,7.099,70.563,19.433l3.881,2.394
				C357.869,332.432,383.268,375.369,383.268,424.126z" style="fill:#324A58;"/>
		</g>
		<g>
			<path d="M328.495,294.462l-3.827-2.388c-23.229-14.038-50.439-22.126-79.504-22.126
				c-85.015,0-154.18,69.164-154.18,154.18c0,85.014,69.164,154.179,154.18,154.179c85.014,0,154.179-69.164,154.179-154.179
				C399.343,369.788,371.086,321.928,328.495,294.462z M245.164,570.998c-80.986,0-146.872-65.887-146.872-146.872
				c0-80.986,65.887-146.872,146.872-146.872c27.565,0,53.376,7.639,75.44,20.902l3.851,2.391
				c40.622,26.155,67.581,71.777,67.581,123.579C392.036,505.111,326.149,570.998,245.164,570.998z" style="fill:#324A58;"/>
		</g>
	</g>
	<g>
		<path d="M213.936,457.802l4.263,2.827l96.821-145.865c0.73-1.101,0.381-2.589-0.763-3.25l-0.002-0.001
			c-1.045-0.603-2.379-0.292-3.049,0.711L213.936,457.802z" style="fill:#324A58;"/>
	</g>
</g>
<g>
	<polygon points="568,317.516 557.341,288.663 552.412,290.483 553.952,294.652 547,297 555,318 561.607,315.375 
		563.071,319.337 	" style="fill:#324A58;"/>
</g>
<g>
	<g>
		<path d="M500.076,186.617l59.998-25.438c3.313-65.879-52.813-110.668-52.813-110.668l-28.709,55.958l-0.067,0.17
			L500.076,186.617z" style="fill:#FF564F;"/>
	</g>
</g>
<g>
	<g>
		<path d="M214,458c0,0-43.367,15.815-28.022,37.736C190.869,502.723,217,512,218,460L214,458z" style="fill:#2568EF;"/>
	</g>
</g>
<g>
	<path d="M237.182,391.206c2.391,0,4.329-1.938,4.329-4.329c0-2.391-1.938-4.329-4.329-4.329
		c-1.345,0-2.533,0.627-3.326,1.59c-0.211-0.699-0.502-1.361-0.86-1.983c0.038,0.001,0.073,0.011,0.112,0.011
		c2.391,0,4.329-1.938,4.329-4.329c0-2.391-1.938-4.329-4.329-4.329c-2.391,0-4.329,1.938-4.329,4.329
		c0,0.156,0.03,0.303,0.046,0.455c-0.926-0.442-1.93-0.743-2.99-0.864c1.861-0.485,3.242-2.161,3.242-4.174
		c0-2.391-1.938-4.329-4.329-4.329c-2.391,0-4.329,1.938-4.329,4.329c0,2.013,1.38,3.69,3.241,4.174
		c-1.094,0.125-2.129,0.441-3.079,0.907c0.019-0.165,0.05-0.327,0.05-0.497c0-2.391-1.938-4.329-4.329-4.329
		c-2.391,0-4.329,1.938-4.329,4.329c0,2.391,1.938,4.329,4.329,4.329c0.069,0,0.133-0.017,0.201-0.02
		c-0.372,0.646-0.672,1.339-0.885,2.069c-0.793-1.007-2.008-1.667-3.39-1.667c-2.391,0-4.329,1.938-4.329,4.329
		c0,2.391,1.938,4.329,4.329,4.329c1.381,0,2.597-0.659,3.39-1.667c0.189,0.648,0.44,1.27,0.756,1.853
		c-0.192-0.026-0.382-0.059-0.581-0.059c-2.391,0-4.329,1.938-4.329,4.329s1.938,4.329,4.329,4.329c2.391,0,4.329-1.938,4.329-4.329
		c0-0.174-0.031-0.34-0.051-0.509c0.731,0.414,1.522,0.73,2.356,0.94c-1.204,0.769-2.007,2.109-2.007,3.643
		c0,2.391,1.938,4.329,4.329,4.329c2.391,0,4.329-1.938,4.329-4.329c0-1.534-0.804-2.875-2.008-3.643
		c0.799-0.202,1.561-0.496,2.266-0.886c-0.016,0.151-0.046,0.299-0.046,0.455c0,2.391,1.938,4.329,4.329,4.329
		c2.391,0,4.329-1.938,4.329-4.329s-1.938-4.329-4.329-4.329c-0.169,0-0.33,0.031-0.494,0.05c0.301-0.558,0.546-1.15,0.732-1.767
		C234.65,390.579,235.837,391.206,237.182,391.206z M230.575,381.334c1.375,1.445,2.225,3.395,2.225,5.543
		c0,4.441-3.613,8.053-8.053,8.053c-4.441,0-8.054-3.613-8.054-8.053c0-4.441,3.613-8.054,8.054-8.054
		c1.928,0,3.698,0.682,5.086,1.816C230.054,380.898,230.299,381.133,230.575,381.334z" style="fill:#2568EF;"/>
</g>
<g>
	<g>
		<circle cx="144.693" cy="458.835" r="4.019" style="fill:#FF564F;"/>
	</g>
</g>
<g>
	<g>
		<circle cx="135.924" cy="463.95" r="2.557" style="fill:#FF564F;"/>
	</g>
</g>
<g>
	<g>
		<circle cx="145.789" cy="470.892" r="4.384" style="fill:#FF564F;"/>
	</g>
</g>
<g>
	<g>
		<circle cx="153.278" cy="478.016" r="2.74" style="fill:#FF564F;"/>
	</g>
</g>
<g>
	<g>
		<circle cx="151.817" cy="494.092" r="2.74" style="fill:#FF564F;"/>
	</g>
</g>
<g>
	<g>
		<circle cx="144.145" cy="484.227" r="5.298" style="fill:#FF564F;"/>
	</g>
</g>
<g>
	<g>
		<circle cx="164.604" cy="486.419" r="5.298" style="fill:#FF564F;"/>
	</g>
</g>
<g>
	<g>
		<circle cx="135.924" cy="471.257" r="1.827" style="fill:#FF564F;"/>
	</g>
</g>
<g>
	<g>
		<circle cx="154.192" cy="485.871" r="1.827" style="fill:#FF564F;"/>
	</g>
</g>
<g>
	<g>
		<circle cx="135.924" cy="482.218" r="1.827" style="fill:#FF564F;"/>
	</g>
</g>
<g>
	<g>
		<circle cx="156.384" cy="458.835" r="1.827" style="fill:#FF564F;"/>
	</g>
</g>
<g>
	<g>
		<circle cx="153.826" cy="470.161" r="0.731" style="fill:#FF564F;"/>
	</g>
</g>
<g>
	<g>
		<circle cx="156.749" cy="454.086" r="0.731" style="fill:#FF564F;"/>
	</g>
</g>
<g>
	<g>
		<circle cx="130.444" cy="467.238" r="0.731" style="fill:#FF564F;"/>
	</g>
</g>
<g>
	<g>
		<circle cx="172.943" cy="444.223" r="4.019" style="fill:#FF564F;"/>
	</g>
</g>
<g>
	<g>
		<circle cx="163.126" cy="441.639" r="2.557" style="fill:#FF564F;"/>
	</g>
</g>
<g>
	<g>
		<circle cx="165.193" cy="453.523" r="4.384" style="fill:#FF564F;"/>
	</g>
</g>
<g>
	<g>
		<circle cx="165.451" cy="463.857" r="2.74" style="fill:#FF564F;"/>
	</g>
</g>
<g>
	<g>
		<circle cx="157.959" cy="446.806" r="1.827" style="fill:#FF564F;"/>
	</g>
</g>
<g>
	<g>
		<circle cx="181.21" cy="452.49" r="1.827" style="fill:#FF564F;"/>
	</g>
</g>
<g>
	<g>
		<circle cx="171.393" cy="458.69" r="0.731" style="fill:#FF564F;"/>
	</g>
</g>
<g>
	<g>
		<circle cx="184.827" cy="449.389" r="0.731" style="fill:#FF564F;"/>
	</g>
</g>
<g>
	<g>
		<circle cx="156.926" cy="440.089" r="0.731" style="fill:#FF564F;"/>
	</g>
</g>
<g>
	<g>
		<circle cx="158.211" cy="481.122" r="0.731" style="fill:#FF564F;"/>
	</g>
</g>
<g>
	<g>
		<circle cx="157.48" cy="492.813" r="0.731" style="fill:#FF564F;"/>
	</g>
</g>
<g>
	<g>
		<circle cx="203.815" cy="429.856" r="4.019" style="fill:#FF564F;"/>
	</g>
</g>
<g>
	<g>
		<circle cx="206.398" cy="420.039" r="2.557" style="fill:#FF564F;"/>
	</g>
</g>
<g>
	<g>
		<circle cx="194.514" cy="422.106" r="4.384" style="fill:#FF564F;"/>
	</g>
</g>
<g>
	<g>
		<circle cx="184.18" cy="422.364" r="2.74" style="fill:#FF564F;"/>
	</g>
</g>
<g>
	<g>
		<circle cx="173.847" cy="409.963" r="2.74" style="fill:#FF564F;"/>
	</g>
</g>
<g>
	<g>
		<circle cx="186.247" cy="411.513" r="5.298" style="fill:#FF564F;"/>
	</g>
</g>
<g>
	<g>
		<circle cx="170.23" cy="424.431" r="5.298" style="fill:#FF564F;"/>
	</g>
</g>
<g>
	<g>
		<circle cx="201.231" cy="414.872" r="1.827" style="fill:#FF564F;"/>
	</g>
</g>
<g>
	<g>
		<circle cx="177.98" cy="417.455" r="1.827" style="fill:#FF564F;"/>
	</g>
</g>
<g>
	<g>
		<circle cx="193.481" cy="407.122" r="1.827" style="fill:#FF564F;"/>
	</g>
</g>
<g>
	<g>
		<circle cx="195.548" cy="438.123" r="1.827" style="fill:#FF564F;"/>
	</g>
</g>
<g>
	<g>
		<circle cx="189.347" cy="428.306" r="0.731" style="fill:#FF564F;"/>
	</g>
</g>
<g>
	<g>
		<circle cx="198.648" cy="441.74" r="0.731" style="fill:#FF564F;"/>
	</g>
</g>
<g>
	<g>
		<circle cx="193.075" cy="448.108" r="4.384" style="fill:#FF564F;"/>
	</g>
</g>
<g>
	<g>
		<circle cx="185.585" cy="440.984" r="2.74" style="fill:#FF564F;"/>
	</g>
</g>
<g>
	<g>
		<circle cx="178.497" cy="423.656" r="0.731" style="fill:#FF564F;"/>
	</g>
</g>
<g>
	<g>
		<circle cx="170.747" cy="414.872" r="0.731" style="fill:#FF564F;"/>
	</g>
</g>
<g>
	<g>
		<circle cx="132.636" cy="486.237" r="0.731" style="fill:#FF564F;"/>
	</g>
</g>
<g>
	<path d="M505.42,177.921l-0.033,0.002c1.222-12.724-4.184-35.661-11.44-52.505
		c-4.822-11.193-11.058-18.006-13.454-20.365c-1.466-1.579-2.958-2.88-4.171-3.282c-1.724-0.571-3.473-0.004,1.496,5.664
		c-7.501,14.665-38.705,73.278-62.248,81.286c-13.761,4.681-33.484,6.638-54.299,9.783c-12.567,0.885-52.238-3.558-65.328-8.333
		c-12.96-4.727-25.255-11.821-26.962-13.444c-3.552-3.378-8.857-3.836-10.638-0.925c-1.405,2.296,9.858,15.105,29.254,23.627
		c-29.915-5.489-63.931-10.762-68.982-12.684c-8.879-3.378-9.426,2.488-9.426,2.488s-3.211,17.247,51.189,24.85
		c4.372-1.105,9.08-2.249,13.544-3.289c29.183-6.799,31.021-5.616,31.804-5.11c0.678,0.438,0.873,1.342,0.435,2.02
		c-0.412,0.638-1.239,0.849-1.9,0.505c-1.613-0.385-11.613,1.201-30.444,5.61c-9.776,2.289-18.77,4.602-24.237,6.142
		c-18.66,6.075-36.492,15.581-47.488,30.456c-25.863,34.984,18.45,11.213,23.544,5.974c2.754-2.832,23.6-14.098,48.421-21.772
		c3.111-3.866,6.583-7.425,10.411-10.394c10.485-8.132,21.978-10.881,34.159-8.179c0.788,0.175,1.285,0.956,1.11,1.744
		c-0.175,0.788-0.952,1.27-1.744,1.11c-11.289-2.513-21.969,0.06-31.734,7.635c-17.715,13.739-27.624,40.414-27.967,50.86
		c-0.008,0.23-0.072,0.442-0.173,0.632c0.178,6.536,1.965,13.181,6.027,19.783c0,0,12.329,25.636,12.849,31.857
		c0.385,4.605-1.103,17.171,3.562,18.139c3.853,0.8,12.45,3.443,12.833-28.187c0,0-2.702-30.553-13.646-37.117
		c0,0,1.987-30.7,31.681-40.13c18.196-5.778,64.181,22.249,64.181,22.249s3.465,25.28-5.922,34.601
		c-12.429,12.341-78.008,30.858-80.974,62.524c0,0-0.3,8.065,7.951,6.916c0,0,43.07-31.298,52.399-29.362
		c0,0,66.515,0.813,113.258-111.126c8.008-19.178,9.765-24.425,38.307-40.852c-1.362,7.217,0.415,6.818,1.605,5.464
		C504.86,189.796,505.42,177.921,505.42,177.921z" style="fill:#2568EF;"/>
</g>
<g>
	<g>
		<path d="M419.578,260.528l-25.092-13.122l8.702-18.624l2.936,10.29l9.053-6.695l2.739,12.089l10.045-4.163
			L419.578,260.528z M396.384,246.749l22.438,11.735l6.561-15.682l-8.654,3.653l-2.668-11.602l-8.963,6.635l-2.477-7.888
			L396.384,246.749z" style="fill:#FFE7E6;"/>
		<path d="M419.78,261.085l-25.818-13.502l9.317-19.94l3.071,10.765l9.081-6.716l2.77,12.224l10.499-4.351
			L419.78,261.085z M395.011,247.228l24.365,12.743l7.846-18.928l-9.591,3.975l-2.709-11.954l-9.024,6.674l-2.8-9.815
			L395.011,247.228z M419.024,259.041l-23.166-12.116l6.84-14.418l2.614,8.325l9.002-6.665l2.699,11.734l9.118-3.849
			L419.024,259.041z M396.911,246.572l21.711,11.355l6.016-14.376l-8.19,3.458l-2.639-11.471l-8.922,6.606l-2.341-7.45
			L396.911,246.572z" style="fill:#FFE7E6;"/>
	</g>
</g>
<g>
	<g>
		<path d="M418.586,230.421c-2.493-0.002-4.519-2.187-4.516-4.87c0.003-2.684,2.033-4.865,4.526-4.862
			c2.493,0.002,4.518,2.187,4.516,4.871C423.109,228.242,421.079,230.423,418.586,230.421z M418.594,222.149
			c-1.688-0.002-3.061,1.525-3.063,3.402c-0.002,1.877,1.369,3.406,3.057,3.407c1.687,0.002,3.061-1.525,3.062-3.402
			C421.652,223.68,420.281,222.151,418.594,222.149z" style="fill:#FFE7E6;"/>
		<path d="M418.59,230.82c-0.001,0-0.003,0-0.004,0c-2.713-0.002-4.919-2.367-4.917-5.271
			c0.004-2.902,2.211-5.262,4.923-5.262c1.366-0.008,2.56,0.554,3.49,1.558c0.924,0.996,1.431,2.314,1.43,3.713
			C423.508,228.461,421.301,230.82,418.59,230.82z M418.592,221.088c-2.271,0-4.12,2.001-4.122,4.463
			c-0.002,2.462,1.845,4.467,4.116,4.47c0.002,0,0.003,0,0.004,0c2.271,0,4.119-2.001,4.121-4.462
			c0.002-1.196-0.43-2.322-1.215-3.168c-0.777-0.839-1.808-1.301-2.9-1.302C418.594,221.088,418.593,221.088,418.592,221.088z
			 M418.591,229.359c-0.001,0-0.002,0-0.003,0c-0.932,0-1.806-0.403-2.46-1.133c-0.644-0.718-0.998-1.667-0.997-2.674
			c0.003-2.097,1.555-3.802,3.461-3.802c0,0,0.001,0,0.002,0c1.907,0.001,3.458,1.71,3.457,3.808
			c-0.001,1.007-0.357,1.956-1.003,2.673C420.393,228.958,419.521,229.359,418.591,229.359z M418.592,222.549
			c-1.466,0-2.659,1.347-2.66,3.003c-0.001,0.809,0.28,1.568,0.792,2.139c0.501,0.559,1.163,0.867,1.864,0.868
			c0.001,0,0.002,0,0.003,0c0.7,0,1.361-0.307,1.862-0.864c0.514-0.57,0.797-1.329,0.797-2.138c0.001-1.657-1.19-3.006-2.656-3.008
			C418.593,222.549,418.592,222.549,418.592,222.549z" style="fill:#FFE7E6;"/>
	</g>
</g>
<g>
	<g>
		<path d="M432.748,239.095c-2.493-0.002-4.519-2.187-4.516-4.87c0.003-2.684,2.033-4.865,4.526-4.862
			c2.493,0.002,4.518,2.187,4.516,4.871C437.271,236.917,435.241,239.098,432.748,239.095z M432.757,230.824
			c-1.688-0.002-3.061,1.525-3.063,3.402c-0.002,1.877,1.369,3.406,3.056,3.407c1.687,0.002,3.061-1.525,3.062-3.402
			C435.814,232.355,434.443,230.826,432.757,230.824z" style="fill:#FFE7E6;"/>
		<path d="M432.752,239.495c-0.001,0-0.003,0-0.004,0c-1.318-0.001-2.557-0.555-3.487-1.558
			c-0.923-0.995-1.43-2.314-1.429-3.713s0.512-2.717,1.437-3.71c0.931-1,2.169-1.551,3.485-1.551c0.001,0,0.003,0,0.004,0
			c1.318,0.001,2.557,0.555,3.486,1.558c0.924,0.996,1.431,2.314,1.43,3.713c-0.001,1.399-0.512,2.716-1.437,3.71
			C435.307,238.944,434.068,239.495,432.752,239.495z M432.754,229.763c-1.093,0-2.122,0.46-2.9,1.296
			c-0.786,0.845-1.221,1.969-1.221,3.166c-0.002,1.196,0.43,2.321,1.215,3.168c0.777,0.839,1.808,1.301,2.9,1.302
			c0.002,0,0.003,0,0.004,0c1.093,0,2.122-0.46,2.9-1.296c0.786-0.845,1.221-1.97,1.221-3.166c0.002-1.196-0.43-2.322-1.215-3.168
			c-0.777-0.838-1.808-1.301-2.9-1.302C432.756,229.763,432.755,229.763,432.754,229.763z M432.752,238.034c0,0-0.001,0-0.002,0
			c-1.908-0.002-3.459-1.71-3.457-3.808c0.001-1.007,0.357-1.956,1.003-2.673c0.655-0.728,1.528-1.128,2.458-1.128
			c0.001,0,0.002,0,0.003,0l0,0c0.931,0,1.804,0.403,2.459,1.133c0.644,0.718,0.998,1.668,0.997,2.675
			C436.21,236.329,434.658,238.034,432.752,238.034z M432.754,231.224c-0.7,0-1.362,0.307-1.863,0.864
			c-0.514,0.57-0.797,1.33-0.797,2.139c-0.002,1.656,1.189,3.005,2.656,3.007c0.001,0,0.002,0,0.003,0
			c1.465,0,2.658-1.346,2.659-3.002c0.001-0.809-0.28-1.569-0.792-2.14c-0.501-0.559-1.163-0.867-1.863-0.868l0,0
			C432.756,231.224,432.755,231.224,432.754,231.224z" style="fill:#FFE7E6;"/>
	</g>
</g>
<g>
	<g>
		<path d="M404.429,224.961c-2.493-0.002-4.519-2.187-4.516-4.87c0.003-2.684,2.033-4.865,4.526-4.862
			c2.493,0.002,4.518,2.187,4.516,4.871C408.952,222.782,406.922,224.963,404.429,224.961z M404.437,216.69
			c-1.688-0.002-3.061,1.525-3.063,3.402c-0.002,1.877,1.369,3.406,3.056,3.407c1.687,0.002,3.061-1.525,3.062-3.402
			C407.495,218.221,406.124,216.691,404.437,216.69z" style="fill:#FFE7E6;"/>
		<path d="M404.434,225.361c-0.001,0-0.003,0-0.004,0c-1.319-0.001-2.558-0.555-3.488-1.558
			c-0.923-0.995-1.43-2.313-1.429-3.713c0.001-1.399,0.512-2.717,1.437-3.71c0.931-1,2.169-1.551,3.485-1.551
			c0.001,0,0.003,0,0.004,0c1.318,0.001,2.557,0.555,3.487,1.558c0.923,0.996,1.43,2.314,1.429,3.713
			c-0.001,1.399-0.512,2.716-1.436,3.71C406.987,224.81,405.75,225.361,404.434,225.361z M404.435,215.628
			c-1.093,0-2.122,0.46-2.9,1.296c-0.786,0.845-1.221,1.969-1.221,3.166c-0.002,1.196,0.43,2.321,1.215,3.168
			c0.777,0.839,1.808,1.301,2.901,1.302c0.002,0,0.003,0,0.004,0c1.092,0,2.121-0.46,2.899-1.296
			c0.786-0.845,1.221-1.97,1.221-3.166c0.002-1.196-0.43-2.322-1.215-3.168c-0.777-0.838-1.808-1.301-2.9-1.302
			C404.437,215.628,404.436,215.628,404.435,215.628z M404.433,223.899c0,0-0.001,0-0.002,0c-1.908-0.002-3.459-1.71-3.457-3.808
			c0.001-1.007,0.357-1.956,1.003-2.673c0.655-0.728,1.528-1.128,2.458-1.128c0.001,0,0.002,0,0.003,0l0,0
			c0.931,0,1.804,0.403,2.459,1.133c0.644,0.718,0.998,1.668,0.997,2.675C407.891,222.195,406.339,223.899,404.433,223.899z
			 M404.435,217.09c-0.7,0-1.362,0.307-1.863,0.864c-0.514,0.57-0.797,1.33-0.797,2.139c-0.002,1.656,1.189,3.005,2.656,3.007
			c0.001,0,0.002,0,0.003,0c1.465,0,2.658-1.346,2.659-3.002c0.001-0.809-0.28-1.569-0.792-2.14
			c-0.501-0.559-1.163-0.867-1.863-0.868l0,0C404.437,217.09,404.436,217.09,404.435,217.09z" style="fill:#FFE7E6;"/>
	</g>
</g>
<g>
	<g>
		<path d="M410.423,267.941c-17.504-2.251-30.025-17.453-27.912-33.888c2.113-16.436,18.073-27.976,35.577-25.726
			c17.504,2.25,30.025,17.453,27.912,33.889C443.886,258.65,427.927,270.191,410.423,267.941z M417.896,209.821
			c-16.68-2.145-31.884,8.812-33.891,24.424c-2.007,15.612,9.93,30.058,26.611,32.202c16.679,2.144,31.883-8.812,33.89-24.423
			C446.513,226.411,434.575,211.965,417.896,209.821z" style="fill:#FFE7E6;"/>
		<path d="M414.814,268.623c-1.473,0-2.955-0.094-4.442-0.285l0,0c-17.723-2.279-30.399-17.683-28.258-34.336
			c2.142-16.654,18.291-28.351,36.024-26.072c8.567,1.102,16.228,5.281,21.57,11.768c5.349,6.494,7.723,14.509,6.687,22.569
			c-1.035,8.06-5.36,15.213-12.179,20.143C428.59,266.479,421.827,268.623,414.814,268.623z M410.474,267.544
			c8.371,1.081,16.632-0.979,23.274-5.783c6.637-4.799,10.847-11.758,11.854-19.596c1.008-7.838-1.305-15.637-6.512-21.958
			c-5.213-6.33-12.689-10.407-21.054-11.482c-17.297-2.224-33.044,9.163-35.13,25.38
			C380.822,250.32,393.188,265.321,410.474,267.544L410.474,267.544z M414.786,267.115c-1.393,0-2.801-0.088-4.222-0.271
			c-8.169-1.05-15.474-5.025-20.57-11.193c-5.104-6.176-7.371-13.796-6.386-21.457c0.984-7.662,5.106-14.461,11.605-19.145
			c6.49-4.678,14.561-6.675,22.732-5.625c16.898,2.172,28.991,16.819,26.956,32.65C443.038,256.573,429.956,267.114,414.786,267.115
			z M413.696,209.951c-6.515,0-12.791,1.983-18.015,5.748c-6.317,4.553-10.323,11.158-11.28,18.597
			c-0.956,7.44,1.248,14.843,6.209,20.846c4.967,6.011,12.09,9.885,20.056,10.909c16.464,2.114,31.463-8.685,33.443-24.078
			c1.979-15.394-9.804-29.639-26.265-31.754v0C416.457,210.039,415.071,209.951,413.696,209.951z" style="fill:#FFE7E6;"/>
	</g>
</g>
<g>
	<g>
		
			<ellipse transform="matrix(0.9764 -0.2162 0.2162 0.9764 -100.048 54.6343)" cx="199.744" cy="484.699" rx="3.288" ry="2.557" style="fill:#FF9B19;"/>
	</g>
</g>
<g>
	<g>
		
			<ellipse transform="matrix(0.9764 -0.2162 0.2162 0.9764 -101.134 54.1201)" cx="196.85" cy="489.407" rx="1.347" ry="1.048" style="fill:#FF9B19;"/>
	</g>
</g>
<g>
	<g>
		<path d="M198.648,495.295c-1-1.496-1.461-6.576,2.923-6.576c4.384,0,3.492-3.408,2.923-5.115
			c-1.461-4.384,2.923-8.768,5.846-2.923S203.605,502.709,198.648,495.295z" style="fill:#FF9B19;"/>
	</g>
</g>
<g>
	<g>
		<path d="M462.282,326.272c0,0,4.104,24.085,78.23-2.523l-114.896,43.604c0,0-46.045,4.199-10.427-23.779
			L462.282,326.272z" style="fill:#FF9B19;"/>
	</g>
</g>
<g>
	<g>
		<path d="M415.726,370.753c-7.964,0-14.04-2.602-15.849-7.493c-2.818-7.617,5.839-17.757,19.909-23.663l-0.02-0.051
			l2.109-0.784l127.808-47.275l10.647,28.784l-129.81,48.017l-0.02-0.049C425.262,369.932,420.196,370.753,415.726,370.753z
			 M423.916,342.682l-0.507,0.192c-13.658,5.135-21.196,14.063-19.419,18.866c1.776,4.802,13.31,6.676,27.021,1.688l0.674-0.245
			l123.013-45.502l-7.605-20.56L423.916,342.682z" style="fill:#2568EF;"/>
	</g>
</g>
<g>
	<g>
		<g>
			<path d="M142.051,232.131c0,0,25,6.574,22.758,14.342S142.051,232.131,142.051,232.131z" style="fill:#FF9B19;"/>
		</g>
	</g>
	<g>
		<g>
			<path d="M139,239c0,0,2,3,12,26c3.905,8.981,12.336,24.032,18.497,18.505C183.48,270.958,139,239,139,239z" style="fill:#FF9B19;"/>
		</g>
	</g>
	<g>
		<g>
			<path d="M87.528,186.251c0,0-21.683,14.353,44.141,48.744l-85.065-39.661c0,0-22.188-23.911,10.215-23.844
				L87.528,186.251z" style="fill:#FF9B19;"/>
		</g>
	</g>
	<g>
		<g>
			<path d="M133.414,239.146L48.06,198.457l0.025-0.061c-9.132-5.121-13.594-14.251-10.203-21.363
				c3.367-7.062,13.151-9.361,22.812-5.607l0.029-0.073l1.74,0.826l83.826,39.961L133.414,239.146z M51.591,196.138l80.117,38.192
				l9.765-20.484L60.92,175.45c-8.243-3.849-17.116-2.443-19.777,3.138c-2.661,5.581,1.832,13.36,10.015,17.34L51.591,196.138z" style="fill:#2568EF;"/>
		</g>
	</g>
</g>
<g>
	<g>
		<g>
			<path d="M488.105,379.97c0,0,0.646,21.232,22.871,24.22c6.023,0.81-70.661,3.131-70.661,3.131
				s-45.004-10.602-2.359-25.857L488.105,379.97z" style="fill:#FF564F;"/>
		</g>
	</g>
	<g>
		<g>
			<path d="M444.541,409.76v-0.054c-15.252-0.173-27.084-6.303-27.344-14.419c-0.26-8.14,11.226-15.03,26.502-16.148
				v-0.054l2.126-0.067l84.068-2.52l0.981,30.674L444.541,409.76z M446.359,383.388l-0.385,0.015
				c-14.58,0.545-24.558,6.626-24.394,11.743c0.163,5.118,10.505,10.543,25.096,10.16l1.077-0.029l78.601-2.356l-0.701-21.91
				L446.359,383.388z" style="fill:#2568EF;"/>
		</g>
	</g>
	<g>
		<polygon points="535.86,406.984 534.89,376.239 529.638,376.405 529.778,380.847 530.475,402.928 530.609,407.149 		
			" style="fill:#324A58;"/>
	</g>
</g>
<g>
	<g>
		<path d="M144.527,227.294c0,0,10.44,6.237,10.296,1.855C154.679,224.768,144.527,227.294,144.527,227.294z" style="fill:#FF9B19;"/>
	</g>
</g>
<g>
	<ellipse transform="matrix(0.9213 -0.3887 0.3887 0.9213 -116.3037 113.1604)" cx="221.5" cy="344" rx="13.5" ry="9" style="fill:#2568EF;"/>
</g>
<g>
	<path d="M321,371c-38.09,0-54,42-23.567,79.827c-3.217-2.301-37.492-20.694-49.968-11.679
		c-15.566,11.248-12.458,35.464-13.076,61.75c-0.319,13.557-20.904,12.697-28.872,10.903c-13.967-3.145-22.741-17.017-19.596-30.984
		c0.687-3.051,1.886-5.854,3.486-8.339c-6.177,4.684-10.798,11.489-12.635,19.643c-3.793,16.848,5.62,33.582,21.39,39.405
		l-0.105,0.088c0.322,0.077,0.64,0.148,0.959,0.222c1.136,0.385,2.301,0.717,3.497,0.987c1.962,0.442,3.922,0.694,5.864,0.789
		c41.65,6.059,52.894-22.614,59.192-43.546c1.472-4.893,4.045-10.943,5.746-14.804c3.232-7.338,18.065-24.884,34.179,3.073
		c0.709,1.234,1.44,2.425,2.19,3.575c0.322,0.598,0.642,1.215,0.956,1.871l0.122-0.269c8.58,12.377,16.238,12.489,29.783,11.495
		C380.008,492.109,399,371,321,371z" style="fill:#FF9B19;"/>
</g>
<g>
	<path d="M350.021,426.136c3.43,0,6.211-2.781,6.211-6.211s-2.781-6.211-6.211-6.211c-1.903,0-3.603,0.858-4.742,2.205
		c-0.297-0.971-0.706-1.891-1.2-2.758c0.033,0,0.064,0.005,0.097,0.005c3.43,0,6.211-2.781,6.211-6.211s-2.781-6.211-6.211-6.211
		s-6.211,2.781-6.211,6.211c0,0.197,0.012,0.391,0.029,0.582c-1.273-0.6-2.648-1.011-4.097-1.194
		c2.594-0.746,4.494-3.131,4.494-5.965c0-3.43-2.781-6.211-6.211-6.211s-6.211,2.781-6.211,6.211c0,2.834,1.9,5.219,4.493,5.965
		c-1.497,0.188-2.915,0.621-4.222,1.254c0.022-0.211,0.033-0.425,0.033-0.642c0-3.43-2.781-6.211-6.211-6.211
		s-6.211,2.781-6.211,6.211s2.781,6.211,6.211,6.211c0.075,0,0.147-0.009,0.221-0.011c-0.515,0.901-0.932,1.862-1.233,2.875
		c-1.139-1.411-2.88-2.316-4.834-2.316c-3.43,0-6.211,2.781-6.211,6.211s2.781,6.211,6.211,6.211c1.954,0,3.696-0.905,4.834-2.316
		c0.265,0.891,0.614,1.745,1.046,2.55c-0.251-0.031-0.505-0.052-0.765-0.052c-3.43,0-6.211,2.781-6.211,6.211
		s2.781,6.211,6.211,6.211s6.211-2.781,6.211-6.211c0-0.219-0.012-0.436-0.034-0.65c1.017,0.57,2.117,1.004,3.272,1.301
		c-1.692,1.11-2.811,3.02-2.811,5.195c0,3.43,2.781,6.211,6.211,6.211s6.211-2.781,6.211-6.211c0-2.175-1.12-4.085-2.812-5.195
		c1.106-0.284,2.165-0.688,3.145-1.224c-0.017,0.189-0.029,0.38-0.029,0.573c0,3.43,2.781,6.211,6.211,6.211
		s6.211-2.781,6.211-6.211s-2.781-6.211-6.211-6.211c-0.214,0-0.426,0.011-0.635,0.032c0.409-0.767,0.749-1.575,1.008-2.42
		C346.418,425.278,348.118,426.136,350.021,426.136z M340.378,411.863c2.043,2.078,3.309,4.924,3.309,8.062
		c0,6.346-5.162,11.508-11.508,11.508c-6.347,0-11.509-5.162-11.509-11.508c0-6.347,5.162-11.509,11.509-11.509
		c2.821,0,5.405,1.024,7.408,2.715C339.83,411.397,340.094,411.642,340.378,411.863z" style="fill:#324A58;"/>
</g>
<g>
	<g>
		<path d="M331.664,493.131c0.159,9.54-8.933,20.292-17.345,23.747s-13.952,1.666-15.218-8.158
			c-1.005-7.799,7.985-22.12,16.397-25.574C323.911,479.691,331.541,485.769,331.664,493.131z" style="fill:#2568EF;"/>
	</g>
</g>
<g>
	<g>
		<path d="M355.457,473.749c0.068,5.951-5.705,12.69-11.024,14.874c-5.319,2.184-8.808,1.088-9.572-5.037
			c-0.607-4.862,5.114-13.827,10.433-16.011C350.613,465.391,355.405,469.156,355.457,473.749z" style="fill:#2568EF;"/>
	</g>
</g>
<g>
	<g>
		<path d="M329.902,468.027c-2.758,4.319-15.434,10.692-25.173,13.63c-9.739,2.938-14.907,3.023-13.202-1.247
			c1.353-3.389,15.016-11.37,24.755-14.308C326.02,463.164,332.031,464.694,329.902,468.027z" style="fill:#2568EF;"/>
	</g>
</g>
<g>
	<path d="M267.17,523.621l-2.144-0.047c-0.031-0.472-0.088-0.925-0.159-1.367l2.409-0.817
		c0.383-0.129,0.587-0.544,0.457-0.926c-0.129-0.383-0.542-0.586-0.926-0.457l-2.24,0.76c-0.131-0.493-0.288-0.964-0.462-1.422
		l2.279-1.367c0.346-0.208,0.459-0.656,0.251-1.003c-0.208-0.347-0.656-0.457-1.003-0.251l-2.113,1.268
		c-0.268-0.546-0.562-1.069-0.874-1.571l2.277-1.366c0.346-0.208,0.459-0.656,0.251-1.003c-0.208-0.347-0.656-0.457-1.003-0.251
		l-2.339,1.403c-0.431-0.602-0.881-1.178-1.335-1.732l2.233-1.34c0.346-0.208,0.459-0.656,0.251-1.003
		c-0.208-0.347-0.657-0.457-1.003-0.251l-2.432,1.459c-0.345-0.405-0.685-0.803-1.014-1.194l2.005-1.203
		c0.346-0.208,0.459-0.656,0.251-1.003c-0.208-0.346-0.656-0.456-1.003-0.251l-2.184,1.31c-0.317-0.41-0.61-0.818-0.876-1.229
		l1.665-0.682c0.374-0.153,0.552-0.579,0.4-0.953c-0.153-0.374-0.577-0.552-0.953-0.4l-1.829,0.749
		c-0.213-0.46-0.385-0.927-0.494-1.408c-0.061-0.27-0.054-0.549-0.004-0.835l2.687,0.243c0.023,0.002,0.045,0.004,0.067,0.004
		c0.374,0,0.692-0.285,0.726-0.665c0.036-0.402-0.26-0.757-0.661-0.794l-2.27-0.205c0.253-0.457,0.564-0.931,0.899-1.422l1.87,0.356
		c0.046,0.009,0.092,0.014,0.138,0.014c0.343,0,0.65-0.244,0.716-0.594c0.076-0.396-0.184-0.779-0.581-0.854l-1.253-0.239
		c0.187-0.286,0.368-0.576,0.538-0.872l1.855,0.432c0.056,0.013,0.111,0.019,0.166,0.019c0.333,0,0.633-0.228,0.711-0.565
		c0.091-0.393-0.153-0.786-0.546-0.878l-1.527-0.356c0.114-0.291,0.209-0.586,0.28-0.885l1.889-0.055
		c0.403-0.012,0.721-0.348,0.709-0.752c-0.011-0.396-0.336-0.709-0.73-0.709c-0.007,0-0.014,0.001-0.022,0.001l-1.716,0.05
		c-0.017-0.255-0.053-0.512-0.118-0.772l1.969-0.877c0.369-0.164,0.534-0.596,0.37-0.965c-0.165-0.368-0.595-0.533-0.965-0.37
		l-1.938,0.863c-0.187-0.318-0.419-0.64-0.696-0.965l1.651-1.292c0.318-0.249,0.373-0.708,0.125-1.026
		c-0.249-0.318-0.706-0.372-1.026-0.125l-1.789,1.4c-0.091-0.08-0.174-0.159-0.271-0.239c-0.219-0.18-0.44-0.343-0.662-0.489
		l0.945-1.787c0.188-0.357,0.052-0.798-0.305-0.988c-0.353-0.185-0.799-0.052-0.988,0.305l-0.958,1.811
		c-0.291-0.107-0.583-0.186-0.876-0.243l-0.054-1.499c-0.015-0.404-0.331-0.696-0.756-0.704c-0.403,0.014-0.719,0.353-0.704,0.756
		l0.049,1.36c-0.597,0.042-1.189,0.172-1.765,0.388l-0.401-1.167c-0.131-0.382-0.547-0.582-0.928-0.454
		c-0.382,0.131-0.585,0.547-0.454,0.928l0.461,1.343c-0.387,0.238-0.761,0.516-1.123,0.823l-0.757-1.095
		c-0.23-0.331-0.684-0.414-1.017-0.186c-0.332,0.23-0.415,0.684-0.186,1.017l0.9,1.302c-0.397,0.444-0.77,0.927-1.111,1.447
		l-1.47-1.058c-0.325-0.233-0.784-0.161-1.02,0.166c-0.235,0.328-0.161,0.784,0.166,1.02l1.59,1.144
		c-0.244,0.479-0.463,0.977-0.654,1.493l-1.294-0.438c-0.378-0.125-0.796,0.076-0.926,0.459c-0.129,0.382,0.076,0.796,0.459,0.926
		l1.319,0.446c-0.137,0.53-0.242,1.072-0.316,1.622l-1.435-0.277c-0.393-0.078-0.78,0.182-0.856,0.579
		c-0.076,0.397,0.183,0.78,0.579,0.856l1.598,0.309c-0.014,0.514-0.002,1.032,0.046,1.551l-1.521-0.046
		c-0.008,0-0.016-0.001-0.023-0.001c-0.393,0-0.718,0.313-0.73,0.709c-0.012,0.404,0.305,0.741,0.708,0.753l1.792,0.054
		c0.112,0.527,0.26,1.051,0.444,1.572l-1.576,0.267c-0.397,0.067-0.666,0.445-0.598,0.843c0.061,0.356,0.37,0.609,0.719,0.609
		c0.041,0,0.082-0.004,0.123-0.011l1.912-0.324c0.016,0.033,0.029,0.067,0.046,0.1c0.289,0.569,0.566,1.1,0.836,1.606l-1.557,0.934
		c-0.346,0.208-0.459,0.656-0.251,1.003c0.137,0.228,0.38,0.355,0.627,0.355c0.128,0,0.258-0.034,0.375-0.104l1.508-0.905
		c0.311,0.556,0.611,1.081,0.895,1.558l-1.693,1.016c-0.346,0.208-0.459,0.656-0.251,1.003c0.137,0.228,0.38,0.355,0.627,0.355
		c0.128,0,0.258-0.034,0.375-0.104l1.707-1.024c0.437,0.689,0.839,1.284,1.209,1.808l-1.475,0.885
		c-0.346,0.208-0.459,0.656-0.251,1.003c0.137,0.228,0.38,0.355,0.627,0.355c0.128,0,0.258-0.034,0.375-0.104l1.591-0.955
		c0.415,0.548,0.783,1.015,1.103,1.433l-1.985,1.191c-0.346,0.208-0.459,0.656-0.251,1.003c0.137,0.228,0.38,0.355,0.627,0.355
		c0.128,0,0.258-0.034,0.375-0.104l2.077-1.246c0.31,0.503,0.558,1.019,0.752,1.659c0.076,0.252,0.132,0.501,0.177,0.749
		l-2.33,0.506c-0.394,0.086-0.644,0.475-0.559,0.869c0.074,0.342,0.377,0.576,0.714,0.576c0.051,0,0.104-0.006,0.156-0.017
		l2.114-0.459c-0.048,1.019-0.323,2.003-0.739,2.961l-2.019-0.392c-0.389-0.076-0.781,0.181-0.857,0.578
		c-0.076,0.397,0.182,0.78,0.578,0.857l1.618,0.314c-0.433,0.768-0.926,1.523-1.435,2.27l-1.638-0.928
		c-0.346-0.198-0.796-0.076-0.995,0.275c-0.199,0.351-0.076,0.797,0.275,0.995l1.53,0.867c-0.414,0.605-0.817,1.207-1.183,1.81
		l-2.104-0.719c-0.379-0.13-0.797,0.073-0.928,0.455c-0.131,0.382,0.073,0.797,0.455,0.928l1.86,0.636
		c-0.164,0.333-0.312,0.667-0.437,1.003l-2.399-0.846c-0.383-0.135-0.798,0.066-0.932,0.446c-0.134,0.38,0.066,0.798,0.446,0.932
		l2.504,0.883c-0.07,0.437-0.099,0.877-0.067,1.323l-2.335,0.068c-0.403,0.012-0.721,0.348-0.709,0.752
		c0.011,0.396,0.336,0.709,0.73,0.709c0.007,0,0.014-0.001,0.022-0.001l2.61-0.077c0.036,0.102,0.067,0.203,0.11,0.305
		c0.047,0.112,0.105,0.229,0.17,0.348l-2.295,1.022c-0.369,0.164-0.534,0.596-0.37,0.965c0.121,0.272,0.388,0.434,0.668,0.434
		c0.099,0,0.201-0.021,0.297-0.063l2.586-1.152c0.205,0.223,0.432,0.442,0.68,0.653l-2.203,2.096
		c-0.292,0.278-0.304,0.74-0.026,1.033c0.161,0.169,0.384,0.245,0.6,0.224c0.157-0.015,0.31-0.081,0.433-0.198l2.416-2.298
		c0.32,0.182,0.659,0.342,1.013,0.476l-1.108,2.097c-0.188,0.357-0.052,0.798,0.305,0.988c0.108,0.057,0.226,0.085,0.341,0.085
		c0.262,0,0.515-0.142,0.646-0.39l1.277-2.415c0.174,0.021,0.35,0.033,0.528,0.039l0.082,2.307c0.014,0.395,0.338,0.705,0.73,0.705
		c0.009,0,0.018-0.001,0.026-0.001c0.403-0.014,0.719-0.353,0.704-0.756l-0.085-2.392c0.254-0.057,0.512-0.137,0.771-0.232
		l0.701,2.042c0.104,0.303,0.387,0.494,0.691,0.494c0.079,0,0.159-0.013,0.238-0.04c0.382-0.131,0.585-0.547,0.454-0.928
		l-0.763-2.224c0.198-0.125,0.397-0.262,0.596-0.413l1.587,2.296c0.142,0.205,0.37,0.315,0.602,0.315
		c0.143,0,0.288-0.042,0.415-0.13c0.332-0.23,0.415-0.685,0.185-1.017l-1.684-2.435c0.3-0.306,0.598-0.658,0.896-1.033l2.47,1.778
		c0.129,0.093,0.278,0.138,0.427,0.138c0.227,0,0.45-0.106,0.594-0.304c0.235-0.328,0.161-0.784-0.166-1.02l-2.469-1.778
		c0.235-0.357,0.468-0.735,0.699-1.141l2.128,0.72c0.078,0.026,0.157,0.039,0.235,0.039c0.305,0,0.589-0.192,0.692-0.497
		c0.129-0.382-0.076-0.797-0.458-0.927l-1.901-0.643c0.242-0.49,0.481-1.011,0.717-1.564l2.469,0.167
		c0.017,0.001,0.034,0.002,0.051,0.002c0.381,0,0.702-0.296,0.728-0.681c0.027-0.403-0.277-0.751-0.679-0.779l-1.994-0.135
		c0.178-0.471,0.354-0.961,0.528-1.472l2.098,0.142c0.017,0.001,0.034,0.002,0.051,0.002c0.381,0,0.702-0.296,0.728-0.682
		c0.027-0.403-0.277-0.751-0.679-0.779l-1.739-0.118c0.042-0.138,0.086-0.263,0.128-0.404c0.187-0.625,0.333-1.224,0.461-1.81
		l1.82,0.04c0.006,0,0.011,0.001,0.016,0.001c0.396,0,0.721-0.317,0.73-0.715c0.009-0.404-0.311-0.738-0.714-0.746l-1.585-0.034
		c0.113-0.768,0.175-1.502,0.193-2.204l2.09,0.046c0.006,0,0.011,0.001,0.016,0.001c0.396,0,0.721-0.317,0.73-0.715
		C267.894,523.964,267.574,523.63,267.17,523.621z" style="fill:#324A58;"/>
</g>
<g>
	<path d="M208,302c-15,0-91,40-87.819,104.23c0.738,14.912,4.46,21.244,15.501,23.834
		c11.041,2.59,22.003-3.881,24.483-14.454c1.059-4.514,0.389-9.041-1.573-12.954l0.335-0.081c-0.286-0.269-0.549-0.546-0.824-0.818
		C156.874,399.589,135,365,162,339c18.365-17.684,41.873-11,46-11c7.18,0,13-5.82,13-13S215.18,302,208,302z" style="fill:#FF9B19;"/>
</g>
<g>
	<g>
		<path d="M136.41,409.205c-2.098,0.001-4.678-2.51-9.609-12.648c-0.353-0.726-0.051-1.6,0.675-1.953
			c0.726-0.35,1.601-0.051,1.953,0.675c4.483,9.215,6.397,10.717,6.939,10.958c1.045-1.209,1.291-7.981,1.439-12.075
			c0.111-3.067,0.227-6.238,0.55-8.667c0.808-6.061,2.947-9.683,6.356-10.765c6.886-2.184,16.23,6.802,22.666,13.751l0.285,0.308
			c3.086,3.323,9.047,8.036,11.888,6.526c1.58-0.836,4.695-5.226-0.499-27.856c-2.959-12.892-2.282-20.316,2.069-22.695
			c8.195-4.48,25.489,12.784,27.436,14.768c0.565,0.577,0.556,1.501-0.02,2.067c-0.577,0.567-1.501,0.556-2.067-0.019
			c-6.753-6.882-19.218-16.83-23.947-14.252c-1.69,0.925-4.017,4.685-0.622,19.477c4.268,18.599,3.956,28.479-0.983,31.094
			c-5.716,3.033-14.424-6.072-15.396-7.12l-0.288-0.311c-9.112-9.839-15.713-14.19-19.638-12.951
			c-2.236,0.709-3.697,3.524-4.342,8.365c-0.305,2.29-0.418,5.39-0.527,8.387c-0.329,9.065-0.665,14.226-3.737,14.875
			C136.801,409.183,136.608,409.205,136.41,409.205z" style="fill:#324A58;"/>
	</g>
</g>
</svg>