<?xml version="1.0" encoding="UTF-8"?><svg version="1.1" xmlns="http://www.w3.org/2000/svg" xmlns:xlink="http://www.w3.org/1999/xlink" viewBox="0 0 1200 800" width="1200" height="800" x="0px" y="0px">
              
              <!-- ITEM 0 -->
<g transform="translate(256.0 86.0) scale(1.0071820152139732 1.0105170478895036) rotate(0.0 352.9649999999999 299.84649999999993)">
<g transform="translate(-0.0 -0.0)">
<title>background_cell</title><g id="Layer_2-i0" data-name="Layer 2"><g id="Layer_1-2-i0" data-name="Layer 1"><path d="M705.93,83.845V81.7h-.088L705.828,0H0V599.693H705.93l-.014-86.5h.014v-2.147h-.015L705.9,427.3h.029v-2.148H705.9l-.015-83.64h.044v-2.147h-.044l-.014-83.742h.058v-2.147h-.059l-.014-83.743h.073v-2.147h-.073l-.015-83.742ZM703.681,2.352V81.7H619.836V2.352Zm-85.992,0V81.7H531.084V2.352ZM352.556,255.624h87.628v83.742H352.556Zm-2.147,83.742H262.781V255.624h87.628Zm2.147-85.889V169.734h87.628v83.743Zm-2.147,0H262.781V169.734h87.628Zm-89.775,0H172.9V169.734h87.73Zm0,2.147v83.742H172.9V255.624Zm0,85.889v83.64H172.9v-83.64Zm2.147,0h87.628v83.64H262.781Zm89.775,0h87.628v83.64H352.556Zm89.775,0h86.606v83.64H442.331Zm0-2.147V255.624h86.606v83.742Zm0-85.889V169.734h86.606v83.743Zm0-85.89V83.845h86.606v83.742Zm-2.147,0H352.556V83.845h87.628Zm-89.775,0H262.781V83.845h87.628Zm-89.775,0H172.9V83.845h87.73Zm-89.877,0H83.129V83.845h87.628Zm0,2.147v83.743H83.129V169.734Zm0,85.89v83.742H83.129V255.624Zm0,85.889v83.64H83.129v-83.64Zm0,85.788v83.742H83.129V427.3Zm2.147,0h87.73v83.742H172.9Zm89.877,0h87.628v83.742H262.781Zm89.775,0h87.628v83.742H352.556Zm89.775,0h86.606v83.742H442.331Zm88.753,0h86.605v83.742H531.084Zm0-2.148v-83.64h86.605v83.64Zm0-85.787V255.624h86.605v83.742Zm0-85.889V169.734h86.605v83.743Zm0-85.89V83.845h86.605v83.742ZM528.937,2.352V81.7H442.331V2.352Zm-88.753,0V81.7H352.556V2.352Zm-89.775,0V81.7H262.781V2.352Zm-89.775,0V81.7H172.9V2.352Zm-89.877,0V81.7H83.129V2.352ZM2.25,2.352H80.982V81.7H2.25Zm0,81.493H80.982v83.742H2.25Zm0,85.889H80.982v83.743H2.25Zm0,85.89H80.982v83.742H2.25Zm0,85.889H80.982v83.64H2.25Zm0,85.788H80.982v83.742H2.25Zm0,170.143V513.19H80.982v84.254Zm80.879,0V513.19h87.628v84.254Zm89.775,0V513.19h87.73v84.254Zm89.877,0V513.19h87.628v84.254Zm89.775,0V513.19h87.628v84.254Zm89.775,0V513.19h86.606v84.254Zm88.753,0V513.19h86.605v84.254Zm172.6,0H619.836V513.19h83.845Zm0-86.4H619.836V427.3h83.845Zm0-85.89H619.836v-83.64h83.845Zm0-85.787H619.836V255.624h83.845Zm0-85.889H619.836V169.734h83.845Zm0-85.89H619.836V83.845h83.845Z" fill="#c4ecfe"/></g></g>
</g>
</g>

<!-- ITEM 1 -->
<g transform="translate(281.0 471.0) scale(0.7959330389236932 0.7951232441028359) rotate(0.0 77.896 64.141)">
<g transform="translate(-0.0 -0.0)">
<title>briefcase</title><g id="Layer_2-i1" data-name="Layer 2"><g id="Layer_1-2-i1" data-name="Layer 1"><path d="M143.047,128.074l-130.093.208A12.81,12.81,0,0,1,.139,115.538L0,38.3A12.811,12.811,0,0,1,12.745,25.489l130.093-.209a12.81,12.81,0,0,1,12.814,12.745l.14,77.234A12.767,12.767,0,0,1,143.047,128.074Z" fill="#454545"/><path d="M100.077,50.77H52.232a5.514,5.514,0,0,1-5.5-5.5V5.5a5.514,5.514,0,0,1,5.5-5.5h47.845a5.514,5.514,0,0,1,5.5,5.5V45.268A5.47,5.47,0,0,1,100.077,50.77Zm-42.343-11H94.506V11.073H57.734Z" fill="#454545"/></g></g>
</g>
</g>

<!-- ITEM 2 -->
<g transform="translate(970.0 469.0) scale(-0.8964651961734987 0.896486016024185) rotate(-0.0 252.659 124.37450000000001)">
<g transform="translate(-0.0 -0.0)">
<title>pedestal</title><g id="Layer_2-i2" data-name="Layer 2"><g id="Layer_1-2-i2" data-name="Layer 1"><rect x="213.35" width="187.292" height="149.685" fill="#f9d5ff"/><rect x="127.181" y="4.159" width="179.889" height="142.283" fill="#fff"/><path d="M311.215,150.587H123.035V.013h188.18ZM131.326,142.3h171.6V8.305h-171.6Z" fill="#f9d5ff"/><rect x="3.701" y="146.441" width="123.405" height="98.606" fill="#fff"/><path d="M130.808,248.749H0V142.74H130.808Zm-123.4-7.4h116v-91.2H7.4Z" fill="#f9d5ff"/><rect x="217.051" y="102.765" width="179.889" height="142.283" fill="#fff"/><path d="M400.642,248.749H213.35V99.063H400.642Zm-179.889-7.4H393.239V106.466H220.753Z" fill="#f9d5ff"/><rect x="127.181" y="4.159" width="179.889" height="240.888" fill="#fff"/><path d="M310.771,248.749H123.479V.457H310.771Zm-179.889-7.4H303.368V7.86H130.882Z" fill="#f9d5ff"/><rect x="359.334" y="102.765" width="142.283" height="142.283" fill="#f9d5ff"/><path d="M505.318,248.749H355.632V99.063H505.318V248.749Zm-142.283-7.4h134.88V106.466H363.035Z" fill="#f9d5ff"/><rect x="306.996" y="102.765" width="123.405" height="142.283" fill="#fff"/><path d="M434.1,248.749H303.294V99.063H434.1Zm-123.4-7.4h116V106.466h-116Z" fill="#f9d5ff"/></g></g>
</g>
</g>

<!-- ITEM 3 -->
<g transform="translate(330.0 290.0) scale(0.8241613911581601 0.8219037345250937) rotate(0.0 152.276 243.33750000000003)">
<g transform="translate(-0.0 -0.0)">
<defs><linearGradient id="linear-gradient-i3" x1="200.985" y1="-488.149" x2="200.985" y2="-660.815" gradientTransform="matrix(0.996, -0.092, 0.092, 0.996, -55.17, 748.819)" gradientUnits="userSpaceOnUse"><stop offset="0" stop-color="#77879d"/><stop offset="0.089" stop-color="#a1978e"/><stop offset="0.188" stop-color="#c9a780"/><stop offset="0.279" stop-color="#e5b275"/><stop offset="0.358" stop-color="#f7b96f"/><stop offset="0.415" stop-color="#fdbb6d"/><stop offset="0.499" stop-color="#fdbb9f"/><stop offset="0.599" stop-color="#d1d2d1"/><stop offset="1" stop-color="#feceaa"/></linearGradient><linearGradient id="linear-gradient-2-i3" x1="140.035" y1="-535.772" x2="140.035" y2="-724.672" gradientTransform="translate(0 792)" xlink:href="#linear-gradient-i3"/><linearGradient id="linear-gradient-3-i3" x1="105.887" y1="-314.257" x2="105.887" y2="-637.478" gradientTransform="translate(0 792)" gradientUnits="userSpaceOnUse"><stop offset="0" stop-color="#6b9c83"/><stop offset="0.401" stop-color="#a6a6a4"/><stop offset="0.501" stop-color="#9f9fc8"/><stop offset="0.591" stop-color="#9fccec"/><stop offset="1" stop-color="#ffe7b0"/></linearGradient><linearGradient id="linear-gradient-4-i3" x1="137.464" y1="-314.257" x2="137.464" y2="-637.478" xlink:href="#linear-gradient-3-i3"/><linearGradient id="linear-gradient-5-i3" x1="208.703" y1="-314.257" x2="208.703" y2="-637.478" xlink:href="#linear-gradient-3-i3"/><linearGradient id="linear-gradient-6-i3" x1="203.68" y1="-535.772" x2="203.68" y2="-724.672" gradientTransform="translate(0 792)" xlink:href="#linear-gradient-i3"/></defs><title>man_rises</title><g id="Layer_2-i3" data-name="Layer 2"><g id="Layer_1-2-i3" data-name="Layer 1"><path d="M38.793,221.614l-8.543,9.353A17.412,17.412,0,0,1,2.927,209.536l8.1-12.152Z" fill="#fdc068"/><path d="M11.028,197.384,52.566,135.3a15.217,15.217,0,0,1,3.682-3.83l1.252-.884L132.7,76.821a24.126,24.126,0,1,1,28.061,39.254l-75.2,53.764,4.935-4.714L38.72,221.614Z" fill="url(#linear-gradient-i3)"/><path d="M207.007,41.175l2.283,5.082a2.031,2.031,0,0,1-1.1,2.651l-3.609.884" fill="#fdc068"/><path d="M204.577,50.6a.8.8,0,0,1-.811-.589.786.786,0,0,1,.59-.958l3.535-.884a1.155,1.155,0,0,0,.589-1.546L206.2,41.543a.841.841,0,1,1,1.546-.663l2.283,5.082a2.9,2.9,0,0,1-1.546,3.756l-.147.074-3.609.884C204.724,50.6,204.65,50.6,204.577,50.6Z" fill="#2b2b2b"/><path id="SVGID-i3" d="M181.083,68.278l-16.2-4.714a15.827,15.827,0,0,1-10.826-19.591l7.07-24.451A25.335,25.335,0,0,1,192.5,2.288h0a25.337,25.337,0,0,1,17.234,31.375l-6.481,22.462A17.862,17.862,0,0,1,181.083,68.278Z" fill="#fdc068"/><path d="M208.554,37.64l-1.547,5.45a2.88,2.88,0,0,1,.295-5.745A3.463,3.463,0,0,1,208.554,37.64Z" fill="#2b2b2b"/><path d="M160.24,92.287l-18.633-13.7L157.22,33l25.851,7.512-11.121,47.5A7.423,7.423,0,0,1,160.24,92.287Z" fill="#fdc068"/><polygon points="176.885 67.099 166.353 64.006 174.381 77.705 176.885 67.099" fill="#2b2b2b"/><path d="M181.672,163.505c5.523-23.788-11.047-26.513-1.031-41.022s8.027-38.592-10.237-42.864c-14.067-3.314-14.877-4.124-20.843-5.45C130.781,69.75,113.4,85.88,114.578,105.1a31.508,31.508,0,0,1-.884,9.721c-1.4,5.377-16.424,10.164-20.253,26.514Z" fill="url(#linear-gradient-2-i3)"/><path d="M163.333,163.8c-.589,13.33-2.062,26.587-3.829,39.77s-3.83,26.293-6.187,39.4-5.008,26.145-7.807,39.107L143.3,291.8c-.737,3.241-1.473,6.481-2.283,9.722-1.473,6.481-2.8,13.036-4.2,19.517-5.745,26.071-11.931,52-18.854,77.92-3.462,12.962-7,25.85-10.9,38.813-1.915,6.481-3.83,12.888-5.892,19.3s-4.125,12.888-6.408,19.3l-46.325-6.408L70.462,311.244c.958-6.628,1.768-13.256,2.8-19.811l3.167-19.812,6.334-39.549,10.752-90.735Z" fill="url(#linear-gradient-3-i3)"/><path d="M93.441,141.337c-2.946,12.52,5.818,34.394,27.618,39.7l17.749,3.682c19.885,4.787,40.065-9.206,43.232-22.684l-19.664-14.214Z" fill="url(#linear-gradient-4-i3)"/><path d="M130.486,486.675l-74.827-.294a7.184,7.184,0,0,1-7.144-7.07l-.221-9.427,47.283.662,35.793,8.986A3.624,3.624,0,0,1,130.486,486.675Z" fill="#2b2b2b"/><path d="M128.939,159.381l1.694-.884,1.694-.81,3.388-1.62,6.923-3.02c2.283-1.031,4.64-1.915,6.923-2.872l7-2.725c9.353-3.609,18.78-6.923,28.354-10.016,9.5-3.167,19.149-5.966,28.723-8.765,9.648-2.651,19.37-5.229,29.165-7.659l5.818-1.4a32.2,32.2,0,0,1,38.371,40.948C283.381,172.048,240,289.076,234.478,300.123L189.331,286.2l30.712-140.3,44.7,39.991-111.43,21.727Z" fill="url(#linear-gradient-5-i3)"/><path d="M200.673,180.96c7,3.609,13.846,8.47,28.576,3.977s57.814-24.378,57.814-24.378,1.473-12.373.589-17.234C286.7,138.465,200.673,180.96,200.673,180.96Z" fill="#2b2b2b"/><path d="M263.274,325.679l-71.512-21.8a7.222,7.222,0,0,1-4.861-8.837l2.578-9.133,45.073,14.214,31.668,18.928A3.655,3.655,0,0,1,263.274,325.679Z" fill="#2b2b2b"/><path d="M281.613,153.784,214,180.3a21.052,21.052,0,0,1-21.432-3.682l-1.4-1.179L134.1,126.018a24.121,24.121,0,1,1,31.6-36.456l57.078,49.418-22.758-4.861,65.842-14.435Z" fill="url(#linear-gradient-6-i3)"/><path d="M265.852,119.758l17.529-3.83a17.409,17.409,0,0,1,10.089,33.216l-11.857,4.64Z" fill="#fdc068"/><path d="M210.174,32.19,195.96,33l-1.915,7.659-7.291,1.326-11.195,10.09a15.7,15.7,0,0,1-16.571,2.8h0a7.852,7.852,0,0,1-4.714-6.775l-.22-5.229,8.027-26.219A23.492,23.492,0,0,1,185.06.005l3.682.074A23.45,23.45,0,0,1,209,12.526l.148.22a24.133,24.133,0,0,1,1.031,19.444Z" fill="#2b2b2b"/><path d="M205.534,32.411l8.838-.369A11.232,11.232,0,0,0,224.83,23.5l.81-3.24a11.376,11.376,0,0,0-4.124-11.711h0A11.343,11.343,0,0,0,210.616,7l-9.943,3.9Z" fill="#2b2b2b"/><path d="M186.606,47.214h0a3.275,3.275,0,0,1-2.43-3.9l1.988-8.4a3.276,3.276,0,0,1,3.9-2.431h0a3.276,3.276,0,0,1,2.43,3.9l-1.988,8.4A3.219,3.219,0,0,1,186.606,47.214Z" fill="#fdc068"/><path d="M142.2,209.683a21.132,21.132,0,0,1-15.245-6.555,1.093,1.093,0,0,1,1.546-1.546,18.824,18.824,0,0,0,15.467,5.744l9.353-.81a1.107,1.107,0,1,1,.147,2.209l-9.353.811A8.1,8.1,0,0,1,142.2,209.683Z" fill="#2b2b2b"/><path d="M140.06,131.173S135.568,165.936,185.5,170.5Z" fill="#2b2b2b"/><path d="M207.154,206.663a1.107,1.107,0,0,1-1.031-.736,1.126,1.126,0,0,1,.663-1.4l20.18-6.849a1.095,1.095,0,0,1,.736,2.062l-20.18,6.85A.666.666,0,0,1,207.154,206.663Z" fill="#2b2b2b"/><path d="M92.925,144.5a.66.66,0,0,1-.368-.074,1.065,1.065,0,0,1-.663-1.4c2.578-7.365,10.311-16.129,14.877-21.358,1.326-1.473,2.431-2.8,3.093-3.609a1.105,1.105,0,0,1,1.768,1.326c-.737.883-1.841,2.135-3.167,3.756-4.492,5.081-12.005,13.625-14.435,20.621A1.29,1.29,0,0,1,92.925,144.5Z" fill="#2b2b2b"/><path d="M185.5,107.827a1.057,1.057,0,0,1-.737-.3l-9.059-7.807a1.1,1.1,0,1,1,1.4-1.693l9.058,7.806a1.142,1.142,0,0,1,.148,1.547A1.017,1.017,0,0,1,185.5,107.827Z" fill="#2b2b2b"/><path d="M206.491,133.825a1.172,1.172,0,0,1-1.1-.884,1.1,1.1,0,0,1,.81-1.326l7.659-1.694a1.1,1.1,0,0,1,.516,2.136l-7.66,1.694A.269.269,0,0,1,206.491,133.825Z" fill="#2b2b2b"/><path d="M70.094,315.221a1.05,1.05,0,0,1-.884-.442,1.142,1.142,0,0,1,.221-1.546l11.342-8.249a1.1,1.1,0,1,1,1.326,1.768L70.757,315A1.183,1.183,0,0,1,70.094,315.221Z" fill="#2b2b2b"/></g></g>
</g>
</g>

<!-- ITEM 4 -->
<g transform="translate(704.0 377.0) scale(0.6729223522374668 0.6683786540964576) rotate(0.0 80.24700000000001 71.0675)">
<g transform="translate(-0.0 -0.0)">
<title>coin</title><g id="Layer_2-i4" data-name="Layer 2"><g id="Layer_1-2-i4" data-name="Layer 1"><path d="M89.426,0V142.135H71.141a70.9,70.9,0,0,1-17.4-2.147,62.071,62.071,0,0,1-7.181-2.221,71.494,71.494,0,0,1-17.4-9.328l-2.887-2.221a74.655,74.655,0,0,1-9.476-9.253l-.074-.074c-.592-.74-1.184-1.407-1.7-2.147A70.859,70.859,0,0,1,6.07,99.79c-.37-.74-.666-1.48-.962-2.221A67.12,67.12,0,0,1,.962,82.69c-.148-.741-.222-1.481-.37-2.221A65.466,65.466,0,0,1,0,71.067q0-2.775.222-5.552l.222-2.221A71.058,71.058,0,0,1,3.7,48.415c.148-.371.223-.741.371-1.111a6.512,6.512,0,0,0,.37-1.11A70.933,70.933,0,0,1,9.92,34.719c.3-.444.592-.962.888-1.406.148-.3.37-.518.518-.815a68.1,68.1,0,0,1,9.18-11.4l.3-.3c.666-.666,1.332-1.333,2-1.925A71.309,71.309,0,0,1,39.383,7.4c1.629-.814,3.257-1.555,4.96-2.221A70.924,70.924,0,0,1,70.993,0Z" fill="#fd8945"/><path d="M89.426,0V142.135H71.141a70.9,70.9,0,0,1-17.4-2.147,62.071,62.071,0,0,1-7.181-2.221,71.494,71.494,0,0,1-17.4-9.328l-2.887-2.221a74.655,74.655,0,0,1-9.476-9.253l-.074-.074c-.592-.74-1.184-1.407-1.7-2.147A70.859,70.859,0,0,1,6.07,99.79c-.37-.74-.666-1.48-.962-2.221A67.12,67.12,0,0,1,.962,82.69c-.148-.741-.222-1.481-.37-2.221A65.466,65.466,0,0,1,0,71.067q0-2.775.222-5.552l.222-2.221A71.058,71.058,0,0,1,3.7,48.415c.148-.371.223-.741.371-1.111a6.512,6.512,0,0,0,.37-1.11A70.933,70.933,0,0,1,9.92,34.719c.3-.444.592-.962.888-1.406.148-.3.37-.518.518-.815a68.1,68.1,0,0,1,9.18-11.4l.3-.3c.666-.666,1.332-1.333,2-1.925A71.309,71.309,0,0,1,39.383,7.4c1.629-.814,3.257-1.555,4.96-2.221A70.924,70.924,0,0,1,70.993,0Z" fill="none"/><path d="M51.45,33.313V47.3H4.146a6.512,6.512,0,0,0,.37-1.11A70.933,70.933,0,0,1,9.994,34.719c.3-.444.592-.962.888-1.406Z" fill="#fff6bb"/><path d="M89.426,0V142.135H71.141a70.9,70.9,0,0,1-17.4-2.147,62.071,62.071,0,0,1-7.181-2.221,71.494,71.494,0,0,1-17.4-9.328l-2.887-2.221a74.655,74.655,0,0,1-9.476-9.253l-.074-.074c-.592-.74-1.184-1.407-1.7-2.147A70.859,70.859,0,0,1,6.07,99.79c-.37-.74-.666-1.48-.962-2.221A67.12,67.12,0,0,1,.962,82.69c-.148-.741-.222-1.481-.37-2.221A65.466,65.466,0,0,1,0,71.067q0-2.775.222-5.552l.222-2.221A71.058,71.058,0,0,1,3.7,48.415c.148-.371.223-.741.371-1.111a6.512,6.512,0,0,0,.37-1.11A70.933,70.933,0,0,1,9.92,34.719c.3-.444.592-.962.888-1.406.148-.3.37-.518.518-.815a68.1,68.1,0,0,1,9.18-11.4l.3-.3c.666-.666,1.332-1.333,2-1.925A71.309,71.309,0,0,1,39.383,7.4c1.629-.814,3.257-1.555,4.96-2.221A70.924,70.924,0,0,1,70.993,0Z" fill="none"/><path d="M93.276,116.891V142.06c-1.259.075-2.591.075-3.85.075H71.141a70.9,70.9,0,0,1-17.4-2.147,62.071,62.071,0,0,1-7.181-2.221,71.494,71.494,0,0,1-17.4-9.328l-2.887-2.221a74.655,74.655,0,0,1-9.476-9.253l-.074-.074Z" fill="#ea7a45"/><path d="M89.426,0V142.135H71.141a70.9,70.9,0,0,1-17.4-2.147,62.071,62.071,0,0,1-7.181-2.221,71.494,71.494,0,0,1-17.4-9.328l-2.887-2.221a74.655,74.655,0,0,1-9.476-9.253l-.074-.074c-.592-.74-1.184-1.407-1.7-2.147A70.859,70.859,0,0,1,6.07,99.79c-.37-.74-.666-1.48-.962-2.221A67.12,67.12,0,0,1,.962,82.69c-.148-.741-.222-1.481-.37-2.221A65.466,65.466,0,0,1,0,71.067q0-2.775.222-5.552l.222-2.221A71.058,71.058,0,0,1,3.7,48.415c.148-.371.223-.741.371-1.111a6.512,6.512,0,0,0,.37-1.11A70.933,70.933,0,0,1,9.92,34.719c.3-.444.592-.962.888-1.406.148-.3.37-.518.518-.815a68.1,68.1,0,0,1,9.18-11.4l.3-.3c.666-.666,1.332-1.333,2-1.925A71.309,71.309,0,0,1,39.383,7.4c1.629-.814,3.257-1.555,4.96-2.221A70.924,70.924,0,0,1,70.993,0Z" fill="none"/><path d="M72.252,6.292A1.138,1.138,0,0,1,71.141,7.4H39.531c1.629-.814,3.257-1.555,4.96-2.221h26.65A1.138,1.138,0,0,1,72.252,6.292Z" fill="#ea7a45"/><path d="M89.426,0V142.135H71.141a70.9,70.9,0,0,1-17.4-2.147,62.071,62.071,0,0,1-7.181-2.221,71.494,71.494,0,0,1-17.4-9.328l-2.887-2.221a74.655,74.655,0,0,1-9.476-9.253l-.074-.074c-.592-.74-1.184-1.407-1.7-2.147A70.859,70.859,0,0,1,6.07,99.79c-.37-.74-.666-1.48-.962-2.221A67.12,67.12,0,0,1,.962,82.69c-.148-.741-.222-1.481-.37-2.221A65.466,65.466,0,0,1,0,71.067q0-2.775.222-5.552l.222-2.221A71.058,71.058,0,0,1,3.7,48.415c.148-.371.223-.741.371-1.111a6.512,6.512,0,0,0,.37-1.11A70.933,70.933,0,0,1,9.92,34.719c.3-.444.592-.962.888-1.406.148-.3.37-.518.518-.815a68.1,68.1,0,0,1,9.18-11.4l.3-.3c.666-.666,1.332-1.333,2-1.925A71.309,71.309,0,0,1,39.383,7.4c1.629-.814,3.257-1.555,4.96-2.221A70.924,70.924,0,0,1,70.993,0Z" fill="none"/><path d="M55.6,19.988a1.138,1.138,0,0,1-1.11,1.11H20.58l.3-.3c.666-.666,1.333-1.333,2-1.925H54.411A1.155,1.155,0,0,1,55.6,19.988Z" fill="#ea7a45"/><path d="M89.426,0V142.135H71.141a70.9,70.9,0,0,1-17.4-2.147,62.071,62.071,0,0,1-7.181-2.221,71.494,71.494,0,0,1-17.4-9.328l-2.887-2.221a74.655,74.655,0,0,1-9.476-9.253l-.074-.074c-.592-.74-1.184-1.407-1.7-2.147A70.859,70.859,0,0,1,6.07,99.79c-.37-.74-.666-1.48-.962-2.221A67.12,67.12,0,0,1,.962,82.69c-.148-.741-.222-1.481-.37-2.221A65.466,65.466,0,0,1,0,71.067q0-2.775.222-5.552l.222-2.221A71.058,71.058,0,0,1,3.7,48.415c.148-.371.223-.741.371-1.111a6.512,6.512,0,0,0,.37-1.11A70.933,70.933,0,0,1,9.92,34.719c.3-.444.592-.962.888-1.406.148-.3.37-.518.518-.815a68.1,68.1,0,0,1,9.18-11.4l.3-.3c.666-.666,1.332-1.333,2-1.925A71.309,71.309,0,0,1,39.383,7.4c1.629-.814,3.257-1.555,4.96-2.221A70.924,70.924,0,0,1,70.993,0Z" fill="none"/><path d="M38.939,33.609a1.138,1.138,0,0,1-1.11,1.11H10.068c.3-.444.592-.962.888-1.406.148-.3.37-.518.518-.815H37.829a1.045,1.045,0,0,1,1.036.815A.445.445,0,0,1,38.939,33.609Z" fill="#ea7a45"/><path d="M89.426,0V142.135H71.141a70.9,70.9,0,0,1-17.4-2.147,62.071,62.071,0,0,1-7.181-2.221,71.494,71.494,0,0,1-17.4-9.328l-2.887-2.221a74.655,74.655,0,0,1-9.476-9.253l-.074-.074c-.592-.74-1.184-1.407-1.7-2.147A70.859,70.859,0,0,1,6.07,99.79c-.37-.74-.666-1.48-.962-2.221A67.12,67.12,0,0,1,.962,82.69c-.148-.741-.222-1.481-.37-2.221A65.466,65.466,0,0,1,0,71.067q0-2.775.222-5.552l.222-2.221A71.058,71.058,0,0,1,3.7,48.415c.148-.371.223-.741.371-1.111a6.512,6.512,0,0,0,.37-1.11A70.933,70.933,0,0,1,9.92,34.719c.3-.444.592-.962.888-1.406.148-.3.37-.518.518-.815a68.1,68.1,0,0,1,9.18-11.4l.3-.3c.666-.666,1.332-1.333,2-1.925A71.309,71.309,0,0,1,39.383,7.4c1.629-.814,3.257-1.555,4.96-2.221A70.924,70.924,0,0,1,70.993,0Z" fill="none"/><path d="M35.682,47.3a1.139,1.139,0,0,1-1.111,1.111H3.775c.149-.371.223-.741.371-1.111a6.512,6.512,0,0,0,.37-1.11H34.5A1.155,1.155,0,0,1,35.682,47.3Z" fill="#ea7a45"/><path d="M89.426,0V142.135H71.141a70.9,70.9,0,0,1-17.4-2.147,62.071,62.071,0,0,1-7.181-2.221,71.494,71.494,0,0,1-17.4-9.328l-2.887-2.221a74.655,74.655,0,0,1-9.476-9.253l-.074-.074c-.592-.74-1.184-1.407-1.7-2.147A70.859,70.859,0,0,1,6.07,99.79c-.37-.74-.666-1.48-.962-2.221A67.12,67.12,0,0,1,.962,82.69c-.148-.741-.222-1.481-.37-2.221A65.466,65.466,0,0,1,0,71.067q0-2.775.222-5.552l.222-2.221A71.058,71.058,0,0,1,3.7,48.415c.148-.371.223-.741.371-1.111a6.512,6.512,0,0,0,.37-1.11A70.933,70.933,0,0,1,9.92,34.719c.3-.444.592-.962.888-1.406.148-.3.37-.518.518-.815a68.1,68.1,0,0,1,9.18-11.4l.3-.3c.666-.666,1.332-1.333,2-1.925A71.309,71.309,0,0,1,39.383,7.4c1.629-.814,3.257-1.555,4.96-2.221A70.924,70.924,0,0,1,70.993,0Z" fill="none"/><path d="M35.682,64.405a1.138,1.138,0,0,1-1.111,1.11H.3l.222-2.221H34.571A1.138,1.138,0,0,1,35.682,64.405Z" fill="#ea7a45"/><path d="M89.426,0V142.135H71.141a70.9,70.9,0,0,1-17.4-2.147,62.071,62.071,0,0,1-7.181-2.221,71.494,71.494,0,0,1-17.4-9.328l-2.887-2.221a74.655,74.655,0,0,1-9.476-9.253l-.074-.074c-.592-.74-1.184-1.407-1.7-2.147A70.859,70.859,0,0,1,6.07,99.79c-.37-.74-.666-1.48-.962-2.221A67.12,67.12,0,0,1,.962,82.69c-.148-.741-.222-1.481-.37-2.221A65.466,65.466,0,0,1,0,71.067q0-2.775.222-5.552l.222-2.221A71.058,71.058,0,0,1,3.7,48.415c.148-.371.223-.741.371-1.111a6.512,6.512,0,0,0,.37-1.11A70.933,70.933,0,0,1,9.92,34.719c.3-.444.592-.962.888-1.406.148-.3.37-.518.518-.815a68.1,68.1,0,0,1,9.18-11.4l.3-.3c.666-.666,1.332-1.333,2-1.925A71.309,71.309,0,0,1,39.383,7.4c1.629-.814,3.257-1.555,4.96-2.221A70.924,70.924,0,0,1,70.993,0Z" fill="none"/><path d="M35.682,81.579a1.138,1.138,0,0,1-1.111,1.111H1.036c-.148-.741-.222-1.481-.37-2.221H34.571A1.138,1.138,0,0,1,35.682,81.579Z" fill="#ea7a45"/><path d="M89.426,0V142.135H71.141a70.9,70.9,0,0,1-17.4-2.147,62.071,62.071,0,0,1-7.181-2.221,71.494,71.494,0,0,1-17.4-9.328l-2.887-2.221a74.655,74.655,0,0,1-9.476-9.253l-.074-.074c-.592-.74-1.184-1.407-1.7-2.147A70.859,70.859,0,0,1,6.07,99.79c-.37-.74-.666-1.48-.962-2.221A67.12,67.12,0,0,1,.962,82.69c-.148-.741-.222-1.481-.37-2.221A65.466,65.466,0,0,1,0,71.067q0-2.775.222-5.552l.222-2.221A71.058,71.058,0,0,1,3.7,48.415c.148-.371.223-.741.371-1.111a6.512,6.512,0,0,0,.37-1.11A70.933,70.933,0,0,1,9.92,34.719c.3-.444.592-.962.888-1.406.148-.3.37-.518.518-.815a68.1,68.1,0,0,1,9.18-11.4l.3-.3c.666-.666,1.332-1.333,2-1.925A71.309,71.309,0,0,1,39.383,7.4c1.629-.814,3.257-1.555,4.96-2.221A70.924,70.924,0,0,1,70.993,0Z" fill="none"/><path d="M35.682,98.68a1.138,1.138,0,0,1-1.111,1.11H6.144c-.37-.74-.666-1.48-.962-2.221H34.571A1.139,1.139,0,0,1,35.682,98.68Z" fill="#ea7a45"/><path d="M89.426,0V142.135H71.141a70.9,70.9,0,0,1-17.4-2.147,62.071,62.071,0,0,1-7.181-2.221,71.494,71.494,0,0,1-17.4-9.328l-2.887-2.221a74.655,74.655,0,0,1-9.476-9.253l-.074-.074c-.592-.74-1.184-1.407-1.7-2.147A70.859,70.859,0,0,1,6.07,99.79c-.37-.74-.666-1.48-.962-2.221A67.12,67.12,0,0,1,.962,82.69c-.148-.741-.222-1.481-.37-2.221A65.466,65.466,0,0,1,0,71.067q0-2.775.222-5.552l.222-2.221A71.058,71.058,0,0,1,3.7,48.415c.148-.371.223-.741.371-1.111a6.512,6.512,0,0,0,.37-1.11A70.933,70.933,0,0,1,9.92,34.719c.3-.444.592-.962.888-1.406.148-.3.37-.518.518-.815a68.1,68.1,0,0,1,9.18-11.4l.3-.3c.666-.666,1.332-1.333,2-1.925A71.309,71.309,0,0,1,39.383,7.4c1.629-.814,3.257-1.555,4.96-2.221A70.924,70.924,0,0,1,70.993,0Z" fill="none"/><path d="M40.049,115.854a1.113,1.113,0,0,1-.74,1.037.667.667,0,0,1-.37.074H16.878l-.074-.074c-.592-.74-1.184-1.407-1.7-2.147H38.939A1.138,1.138,0,0,1,40.049,115.854Z" fill="#ea7a45"/><path d="M89.426,0V142.135H71.141a70.9,70.9,0,0,1-17.4-2.147,62.071,62.071,0,0,1-7.181-2.221,71.494,71.494,0,0,1-17.4-9.328l-2.887-2.221a74.655,74.655,0,0,1-9.476-9.253l-.074-.074c-.592-.74-1.184-1.407-1.7-2.147A70.859,70.859,0,0,1,6.07,99.79c-.37-.74-.666-1.48-.962-2.221A67.12,67.12,0,0,1,.962,82.69c-.148-.741-.222-1.481-.37-2.221A65.466,65.466,0,0,1,0,71.067q0-2.775.222-5.552l.222-2.221A71.058,71.058,0,0,1,3.7,48.415c.148-.371.223-.741.371-1.111a6.512,6.512,0,0,0,.37-1.11A70.933,70.933,0,0,1,9.92,34.719c.3-.444.592-.962.888-1.406.148-.3.37-.518.518-.815a68.1,68.1,0,0,1,9.18-11.4l.3-.3c.666-.666,1.332-1.333,2-1.925A71.309,71.309,0,0,1,39.383,7.4c1.629-.814,3.257-1.555,4.96-2.221A70.924,70.924,0,0,1,70.993,0Z" fill="none"/><path d="M54.485,127.329a1.138,1.138,0,0,1-1.111,1.11H29.241l-2.887-2.221h27.02A1.139,1.139,0,0,1,54.485,127.329Z" fill="#ea7a45"/><path d="M75.953,138.877a1.139,1.139,0,0,1-1.11,1.111h-21.1a62.071,62.071,0,0,1-7.181-2.221H74.843A1.138,1.138,0,0,1,75.953,138.877Z" fill="#ea7a45"/><path d="M160.494,71.067a61.591,61.591,0,0,1-.519,8.291,71.069,71.069,0,0,1-55.151,61.074,74.94,74.94,0,0,1-11.548,1.629c-1.259.074-2.591.074-3.85.074a70.9,70.9,0,0,1-17.4-2.147,62.071,62.071,0,0,1-7.181-2.221,71.494,71.494,0,0,1-17.4-9.328l-2.887-2.221a74.655,74.655,0,0,1-9.476-9.253l-.074-.074c-.592-.74-1.184-1.407-1.7-2.147A70.859,70.859,0,0,1,24.355,99.79c-.3-.74-.666-1.48-.962-2.221A67.12,67.12,0,0,1,19.247,82.69c-.148-.741-.222-1.481-.37-2.221a65.457,65.457,0,0,1-.592-9.4q0-2.775.222-5.552l.222-2.221a71.058,71.058,0,0,1,3.257-14.879c.148-.371.222-.741.371-1.111s.222-.74.37-1.11a70.933,70.933,0,0,1,5.478-11.475c.3-.444.592-.962.888-1.406.148-.3.37-.518.518-.815a68.1,68.1,0,0,1,9.18-11.4c.74-.74,1.48-1.48,2.3-2.221A70.212,70.212,0,0,1,57.742,7.4C59.371,6.589,61,5.848,62.7,5.182a71.138,71.138,0,0,1,97.792,65.885Z" fill="#fde545"/><circle cx="89.426" cy="71.067" r="51.154" fill="#fdb645"/></g></g>
</g>
</g>

<!-- ITEM 5 -->
<g transform="translate(779.0 325.0) scale(1.4825087874512806 1.448798156075074) rotate(0.0 20.9105 15.185000000000002)">
<g transform="translate(-0.0 -0.0)">
<title>star_1</title><g id="Layer_2-i5" data-name="Layer 2"><g id="Layer_1-2-i5" data-name="Layer 1"><path d="M30.841,6.813l.406,1.014A15.376,15.376,0,0,0,39.97,16.55l1.014.406a1.3,1.3,0,0,1,0,2.434L39.97,19.8a15.376,15.376,0,0,0-8.723,8.723l-.406,1.014a1.3,1.3,0,0,1-2.434,0L28,28.519A15.376,15.376,0,0,0,19.278,19.8l-1.014-.406a1.3,1.3,0,0,1,0-2.434l1.014-.406A15.376,15.376,0,0,0,28,7.827l.406-1.014A1.3,1.3,0,0,1,30.841,6.813Z" fill="#fde545"/><path d="M9.79.611l.3.74a11.227,11.227,0,0,0,6.367,6.366l.74.3a.951.951,0,0,1,0,1.776l-.74.3a11.231,11.231,0,0,0-6.367,6.367l-.3.74a.951.951,0,0,1-1.776,0l-.3-.74a11.227,11.227,0,0,0-6.366-6.367l-.74-.3a.951.951,0,0,1,0-1.776l.74-.3A11.222,11.222,0,0,0,7.717,1.351l.3-.74A.95.95,0,0,1,9.79.611Z" fill="#fde545"/></g></g>
</g>
</g>

<!-- ITEM 6 -->
<g transform="translate(529.0 135.0) scale(1.1101167888172725 1.108206619785722) rotate(0.0 88.279 135.805)">
<g transform="translate(-0.0 -0.0)">
<title>confetti_6</title><g id="Layer_2-i6" data-name="Layer 2"><g id="Layer_1-2-i6" data-name="Layer 1"><path d="M100.234,158.273c-.37-2-3.775-19.766,3.184-29.242l6,4.368c-4.22,5.848-2.813,18.877-1.851,23.467Z" fill="#e8e993"/><path d="M67.958,271.61l-5.33-5.108,2.665,2.591L62.628,266.5c.074-.074,6.218-6.662,5.256-15.176l7.329-.814C76.545,262.505,68.328,271.24,67.958,271.61Z" fill="#98c2fe"/><path d="M134.139,57.446l-5.33-5.108,2.665,2.591-2.665-2.591c.074-.074,6.219-6.662,5.256-15.176l7.329-.814C142.727,48.341,134.51,57.076,134.139,57.446Z" fill="#98c2fe"/><path d="M8.809,22.209,1.777,19.84l3.479,1.184L1.777,19.84c0-.074,2.739-8.662-1.777-15.916L6.292,0C12.733,10.29,9.031,21.69,8.809,22.209Z" fill="#c492d6"/><path d="M43.825,12.511l.3.74a11.227,11.227,0,0,0,6.366,6.367l.741.3a.951.951,0,0,1,0,1.776l-.741.3a11.227,11.227,0,0,0-6.366,6.367l-.3.74a.952.952,0,0,1-1.777,0l-.3-.74a11.227,11.227,0,0,0-6.366-6.367l-.741-.3a.951.951,0,0,1,0-1.776l.741-.3a11.227,11.227,0,0,0,6.366-6.367l.3-.74A.988.988,0,0,1,43.825,12.511Z" fill="#fde545"/><path d="M108.081,223.344l-6.884-2.665c6.292-16.583,19.469-26.725,33.387-37.459,13.621-10.512,27.686-21.394,35.163-39.013l6.811,2.887c-8.217,19.4-23.1,30.87-37.459,41.974C126,199.21,113.634,208.686,108.081,223.344Z" fill="#f9d5ff"/></g></g>
</g>
</g>

<!-- ITEM 7 -->
<g transform="translate(343.0 198.0) scale(1.375777942003523 1.3883601674989365) rotate(0.0 107.5755 22.328499999999995)">
<g transform="translate(-0.0 -0.0)">
<title>object_12</title><g id="Layer_2-i7" data-name="Layer 2"><g id="Layer_1-2-i7" data-name="Layer 1"><rect x="198.7" y="31.795" width="17.099" height="7.403" transform="translate(60.369 185.957) rotate(-55.409)" fill="#f9d5ff"/><rect x="4.199" y="26.966" width="7.403" height="17.1" transform="translate(-18.763 10.76) rotate(-34.583)" fill="#f9d5ff"/><rect x="99.231" y="5.124" width="17.1" height="7.403" transform="translate(90.115 115.515) rotate(-85.279)" fill="#f9d5ff"/></g></g>
</g>
</g>

              </svg>