<?xml version="1.0" encoding="utf-8"?>
<!-- Generator: Adobe Illustrator 22.0.1, SVG Export Plug-In . SVG Version: 6.00 Build 0)  -->
<svg version="1.1" id="Layer_1" xmlns="http://www.w3.org/2000/svg" xmlns:xlink="http://www.w3.org/1999/xlink" x="0px" y="0px" viewBox="0 0 800 781.5" style="enable-background:new 0 0 800 781.5;" xml:space="preserve">

<title>source_final_all</title>
<g>
	<rect width="800" height="781.5" style="fill:#FFFFFF;"/>
	<g style="opacity:0.3;">
		<path d="M743,58.4v582H57v-582H743 M745.2,56.2H54.8v586.5h690.4L745.2,56.2L745.2,56.2z" style="fill:#C4ECFE;"/>
		<g>
			<rect x="54.8" y="471.9" width="690.4" height="2.1" style="fill:#C4ECFE;"/>
		</g>
		<g>
			<rect x="54.8" y="388" width="690.4" height="2.1" style="fill:#C4ECFE;"/>
		</g>
		<g>
			<rect x="54.8" y="471.9" width="690.4" height="2.1" style="fill:#C4ECFE;"/>
		</g>
		<g>
			<rect x="54.8" y="555.9" width="690.4" height="2.1" style="fill:#C4ECFE;"/>
		</g>
		<g>
			<rect x="54.8" y="304" width="690.4" height="2.1" style="fill:#C4ECFE;"/>
		</g>
		<g>
			<rect x="54.8" y="220" width="690.4" height="2.1" style="fill:#C4ECFE;"/>
		</g>
		<g>
			<rect x="54.8" y="136" width="690.4" height="2.1" style="fill:#C4ECFE;"/>
		</g>
	</g>
	<g>
		<path d="M135,362.4c-13.3,0-24.5-10.8-36.3-22.2c-13-12.7-26.6-25.7-44-25.7v-7.2c20.4,0,35.6,14.8,49.1,27.8
			c10.7,10.3,20.8,20.1,31.2,20.1V362.4z" style="fill:#F9D5FF;"/>
	</g>
	<g>
		<path d="M641.6,111.6v-7.2c10.4,0,20.5-9.8,31.2-20.1c13.5-13,28.7-27.8,49.1-27.8v7.2c-17.5,0-31,13.1-44.1,25.8
			C666.1,100.8,655,111.6,641.6,111.6z" style="fill:#F9D5FF;"/>
	</g>
	
		<linearGradient id="SVGID_1_" gradientUnits="userSpaceOnUse" x1="3263.5134" y1="2775.2214" x2="3263.5134" y2="2841.0464" gradientTransform="matrix(-1 0 0 1 3396.6899 -2708)">
		<stop offset="0" style="stop-color:#C0DDFC"/>
		<stop offset="1" style="stop-color:#FFFFFF"/>
	</linearGradient>
	<path d="M56.7,120c0-33.4,29.5-68.3,67-46.5c37.4,21.7,24.1,55.9,85.9,64.5H56.7V120z" style="fill:url(#SVGID_1_);"/>
	
		<linearGradient id="SVGID_2_" gradientUnits="userSpaceOnUse" x1="6187.2617" y1="2871.9075" x2="6187.2617" y2="2928.7527" gradientTransform="matrix(1 0 0 1 -5930.46 -2708)">
		<stop offset="0" style="stop-color:#C0DDFC"/>
		<stop offset="1" style="stop-color:#FFFFFF"/>
	</linearGradient>
	<path d="M177.9,188.6c0-22.9,28.4-33.8,43.5-16.6c7.6,8.6,15.9,14.9,29,11.7c52-12.7,42.4,40.1,85.2,41.4H207.6
		c-16.4,0-29.7-13.3-29.7-29.7L177.9,188.6z" style="fill:url(#SVGID_2_);"/>
	
		<linearGradient id="SVGID_3_" gradientUnits="userSpaceOnUse" x1="121.7439" y1="3269.3677" x2="121.7439" y2="3347.3562" gradientTransform="matrix(1 0 0 1 0 -2708)">
		<stop offset="0" style="stop-color:#FFD8A1"/>
		<stop offset="1" style="stop-color:#FFFFFF"/>
	</linearGradient>
	<path d="M188.6,642.6c-38.1,0-36.9-57.7-70-65.4c-13.2-3-20.4-12.8-26.6-23.5c-10.2-17.7-37.2-10.6-37.2,9.9v79H188.6z
		" style="fill:url(#SVGID_3_);"/>
	
		<linearGradient id="SVGID_4_" gradientUnits="userSpaceOnUse" x1="609.8046" y1="3070.1636" x2="609.8046" y2="3237.3198" gradientTransform="matrix(1 0 0 1 0 -2708)">
		<stop offset="0" style="stop-color:#F8809A"/>
		<stop offset="1" style="stop-color:#FFD02D"/>
	</linearGradient>
	<path d="M562.2,219.5h95.2c32.7,0,59.3,26.6,59.3,59.3v363.8l0,0H503l0,0V278.7C503,246,529.5,219.5,562.2,219.5
		L562.2,219.5z" style="fill:url(#SVGID_4_);"/>
	
		<linearGradient id="SVGID_5_" gradientUnits="userSpaceOnUse" x1="571.78" y1="3349.1938" x2="571.78" y2="2965.5254" gradientTransform="matrix(1 0 0 1 0 -2708)">
		<stop offset="0" style="stop-color:#F8809A"/>
		<stop offset="1" style="stop-color:#FFD02D"/>
	</linearGradient>
	<path d="M678.7,278.7v363.8H464.9V278.7c0-32.7,26.5-59.3,59.2-59.3c0.1,0,0.1,0,0.1,0h95.2
		C652.1,219.5,678.7,246,678.7,278.7z" style="fill:url(#SVGID_5_);"/>
	<path d="M586.7,320.3c-0.7,35.1-2.2,40.2-2.2,40.2l-37.6-2l-31.5-88.6l-6.9-44l0.9-4.6c4.8-1.2,9.8-1.8,14.7-1.8h22.1
		c3.7,0,6.7,2.8,7,6.5l0.3,3.7c0.3,3.7,2.8,6.8,6.4,7.7c3,0.8,6.6,2.2,8.7,4.4C585.2,259.3,587.4,285.2,586.7,320.3z" style="fill:#2B2B2B;"/>
	
		<linearGradient id="SVGID_6_" gradientUnits="userSpaceOnUse" x1="514.9783" y1="3070.1636" x2="514.9783" y2="3237.3198" gradientTransform="matrix(1 0 0 1 0 -2708)">
		<stop offset="0" style="stop-color:#F8809A"/>
		<stop offset="1" style="stop-color:#FFD02D"/>
	</linearGradient>
	<rect x="383.6" y="436.5" width="262.8" height="206.2" style="fill:url(#SVGID_6_);"/>
	
		<linearGradient id="SVGID_7_" gradientUnits="userSpaceOnUse" x1="361.0709" y1="3349.2012" x2="361.0709" y2="2965.5181" gradientTransform="matrix(1 0 0 1 0 -2708)">
		<stop offset="0" style="stop-color:#F8809A"/>
		<stop offset="1" style="stop-color:#FFD02D"/>
	</linearGradient>
	<path d="M360.5,350.9h1.2c12.7,0,22.9,10.3,22.9,22.9l0,0v268.8l0,0h-47l0,0V373.8
		C337.6,361.1,347.8,350.9,360.5,350.9C360.4,350.9,360.5,350.9,360.5,350.9z" style="fill:url(#SVGID_7_);"/>
	<rect x="54.8" y="639.4" width="419.5" height="3.2" style="fill:#2B2B2B;"/>
	
		<linearGradient id="SVGID_8_" gradientUnits="userSpaceOnUse" x1="370.9256" y1="2942.8799" x2="370.9256" y2="3078.2864" gradientTransform="matrix(1 0 0 1 0 -2708)">
		<stop offset="0" style="stop-color:#EA979A"/>
		<stop offset="0.41" style="stop-color:#F2D38B"/>
		<stop offset="0.5" style="stop-color:#7E9DAE"/>
		<stop offset="0.6" style="stop-color:#90979D"/>
		<stop offset="1" style="stop-color:#7EBDDB"/>
	</linearGradient>
	<path d="M245.2,263.3l101.1,3.8l125-26.1c16.2-3.9,32.5,6.1,36.3,22.3c3.8,16.2-6.1,32.5-22.3,36.3l-133.7,28.2
		l-1.4,0.4c-5.8,1.4-11.9,0.8-17.2-1.8L233.4,311L245.2,263.3z" style="fill:url(#SVGID_8_);"/>
	<path d="M233.4,311l-20-5.1c-12.6-3.2-20.3-15.9-17.1-28.5c3-11.7,14.3-19.3,26.3-17.5l22.6,3.4L233.4,311z" style="fill:#FDC068;"/>
	<path d="M410.3,570.7l74.2-50.9c3.9-2.7,4.9-8,2.4-11.9l-6.2-9.6L434.1,531l-29.5,33.1
		C401.1,568,406,573.6,410.3,570.7z" style="fill:#2B2B2B;"/>
	
		<linearGradient id="SVGID_9_" gradientUnits="userSpaceOnUse" x1="389.7012" y1="3162.0303" x2="389.7012" y2="3086.2852" gradientTransform="matrix(1 0 0 1 0 -2708)">
		<stop offset="0" style="stop-color:#77879D"/>
		<stop offset="9.000000e-02" style="stop-color:#A1978E"/>
		<stop offset="0.19" style="stop-color:#C9A780"/>
		<stop offset="0.28" style="stop-color:#E5B275"/>
		<stop offset="0.36" style="stop-color:#F7B96F"/>
		<stop offset="0.42" style="stop-color:#FDBB6D"/>
		<stop offset="0.5" style="stop-color:#FDBB9F"/>
		<stop offset="0.6" style="stop-color:#D1D2D1"/>
		<stop offset="1" style="stop-color:#FECEAA"/>
	</linearGradient>
	<path d="M471.6,488.4c0.6,0.3-22.9,49.6-25.4,54.9l-5-2l-4.7-1.9c-3.1-1.3-6.2-2.5-9.3-3.9
		c-31.7-13.7-68.2-29.6-93.9-53.4c-23.1-21.4-38.6-53.9-31.2-84.5c7.5-31,36.8-53,67.7-61.1c10.7-2.7,21.7-4.3,32.8-4.8
		c11.3-0.5,22.6-0.3,33.9,0.5c7.5,0.5,15.3,0.2,23.2,0.2c6.5-0.1,13,0.3,19.5,1.2c-2.2,10.9-16.3,110.6-19.9,111.2
		c-0.1-0.1-0.1-0.1-0.2-0.1c-19.8-6.2-40.7-5.6-61.1-8.5C416.9,459,447.9,475.4,471.6,488.4z" style="fill:url(#SVGID_9_);"/>
	
		<linearGradient id="SVGID_10_" gradientUnits="userSpaceOnUse" x1="498.4297" y1="3529.4907" x2="498.4297" y2="3057.6455" gradientTransform="matrix(1 0 0 1 0 -2708)">
		<stop offset="0" style="stop-color:#77879D"/>
		<stop offset="9.000000e-02" style="stop-color:#A1978E"/>
		<stop offset="0.19" style="stop-color:#C9A780"/>
		<stop offset="0.28" style="stop-color:#E5B275"/>
		<stop offset="0.36" style="stop-color:#F7B96F"/>
		<stop offset="0.42" style="stop-color:#FDBB6D"/>
		<stop offset="0.5" style="stop-color:#FDBB9F"/>
		<stop offset="0.6" style="stop-color:#D1D2D1"/>
		<stop offset="1" style="stop-color:#FECEAA"/>
	</linearGradient>
	<path d="M561.8,354.5c-1.6,17.9-22.7,43.1-54,40.7l-25.2-2.8c-28.5-2.2-49.2-29.7-47.5-49l95.6,9.9L561.8,354.5z" style="fill:url(#SVGID_10_);"/>
	<path d="M459.6,332.5v24.7c0,0-52.6,28.3-43.4,11c9-16.9-3.8-32-13.6-36.5c11.3-0.5,22.6-0.3,33.9,0.5
		C444,332.8,451.8,332.5,459.6,332.5z" style="fill:#2B2B2B;"/>
	<path d="M381.6,557.9h-49c-23.8,0-45.4-14.3-54.6-36.2l-19-43.6c-3.3-7.6,0.1-16.5,7.8-19.8c7.7-3.3,16.5,0.1,19.8,7.8
		l19.1,43.6c0,0.1,0.1,0.1,0.1,0.1c4.6,10.9,15.1,17.9,26.9,17.9h49c8.3,0,15.1,6.7,15.1,15.1C396.9,551.2,390,557.9,381.6,557.9
		L381.6,557.9L381.6,557.9z" style="fill:#2B2B2B;"/>
	
		<linearGradient id="SVGID_11_" gradientUnits="userSpaceOnUse" x1="378.3647" y1="3249.0493" x2="378.3647" y2="3172.8987" gradientTransform="matrix(1 0 0 1 0 -2708)">
		<stop offset="0" style="stop-color:#9774AC"/>
		<stop offset="0.4" style="stop-color:#47A6D3"/>
		<stop offset="0.5" style="stop-color:#A7A7AE"/>
		<stop offset="0.59" style="stop-color:#E89AC0"/>
		<stop offset="1" style="stop-color:#BFE7D1"/>
	</linearGradient>
	<path d="M473.5,465.8v68.7h-140c-3.2,0-6.4-0.3-9.6-0.9c-23.7-4.6-40.7-25.3-40.7-49.4v-23l18,0.4l22.1,0.5
		L473.5,465.8z" style="fill:url(#SVGID_11_);"/>
	
		<linearGradient id="SVGID_12_" gradientUnits="userSpaceOnUse" x1="357.2953" y1="3053.1948" x2="357.2953" y2="3166.4592" gradientTransform="matrix(1 0 0 1 0 -2708)">
		<stop offset="0" style="stop-color:#9774AC"/>
		<stop offset="0.4" style="stop-color:#47A6D3"/>
		<stop offset="0.5" style="stop-color:#A7A7AE"/>
		<stop offset="0.59" style="stop-color:#E89AC0"/>
		<stop offset="1" style="stop-color:#BFE7D1"/>
	</linearGradient>
	<path d="M473.5,380.4v87.8H301c-1.2,0-2.3,0-3.5-0.1c-4.8-0.1-10,0.2-14.4-1c-25.3-6.9-42.8-31.5-42-58.9
		c0.4-15.3,2.5-38,8.3-50.9c11.6-25.8,34.8-6,51.6-5.5h74.5C410.3,351.7,444.3,361.6,473.5,380.4L473.5,380.4z" style="fill:url(#SVGID_12_);"/>
	<polygon points="322.7,468.2 264.1,467.1 264.1,445.9 300.3,403.4 318.7,404.5 	" style="fill:#2B2B2B;"/>
	<polygon points="375.5,351.7 246.8,346.6 235.9,387.6 322.7,388.1 	" style="fill:#2B2B2B;"/>
	<path d="M293,402.3h-51.4c0,0-4.3,25.7,13,45.6L293,402.3z" style="fill:#2B2B2B;"/>
	
		<linearGradient id="SVGID_13_" gradientUnits="userSpaceOnUse" x1="385.7687" y1="3185.2358" x2="385.7687" y2="3228.3545" gradientTransform="matrix(1 0 0 1 0 -2708)">
		<stop offset="0" style="stop-color:#9774AC"/>
		<stop offset="0.4" style="stop-color:#47A6D3"/>
		<stop offset="0.5" style="stop-color:#A7A7AE"/>
		<stop offset="0.59" style="stop-color:#E89AC0"/>
		<stop offset="1" style="stop-color:#BFE7D1"/>
	</linearGradient>
	<path d="M419.1,523.7h-46.5c-9.5,0-18.2-5.5-22.6-14.3l-6.5-13c-5.4-10.7,2-23.5,13.5-23.5h45.2
		c5.7,0.1,11,3.4,13.5,8.5l13,25.8C432.3,514.7,427.1,523.7,419.1,523.7z" style="fill:url(#SVGID_13_);"/>
	
		<linearGradient id="SVGID_14_" gradientUnits="userSpaceOnUse" x1="350.8755" y1="3194.7568" x2="412.3808" y2="3194.7568" gradientTransform="matrix(1 0 0 1 0 -2708)">
		<stop offset="0" style="stop-color:#9774AC"/>
		<stop offset="0.4" style="stop-color:#47A6D3"/>
		<stop offset="0.5" style="stop-color:#A7A7AE"/>
		<stop offset="0.59" style="stop-color:#E89AC0"/>
		<stop offset="1" style="stop-color:#BFE7D1"/>
	</linearGradient>
	<path d="M409.3,489.8h-55.5c-1.7-0.1-3-1.5-2.9-3.2c0.1-1.5,1.3-2.8,2.9-2.9h55.5c1.7-0.1,3.1,1.2,3.2,2.9
		c0.1,1.7-1.2,3.1-2.9,3.2C409.6,489.8,409.5,489.8,409.3,489.8z" style="fill:url(#SVGID_14_);"/>
	
		<linearGradient id="SVGID_15_" gradientUnits="userSpaceOnUse" x1="355.9624" y1="3206.2649" x2="417.4676" y2="3206.2649" gradientTransform="matrix(1 0 0 1 0 -2708)">
		<stop offset="0" style="stop-color:#9774AC"/>
		<stop offset="0.4" style="stop-color:#47A6D3"/>
		<stop offset="0.5" style="stop-color:#A7A7AE"/>
		<stop offset="0.59" style="stop-color:#E89AC0"/>
		<stop offset="1" style="stop-color:#BFE7D1"/>
	</linearGradient>
	<path d="M414.5,501.3H359c-1.7,0.1-3.1-1.2-3.2-2.9c-0.1-1.7,1.2-3.1,2.9-3.2c0.1,0,0.2,0,0.3,0h55.5
		c1.7,0.1,3,1.5,2.9,3.2C417.2,500,416,501.2,414.5,501.3z" style="fill:url(#SVGID_15_);"/>
	
		<linearGradient id="SVGID_16_" gradientUnits="userSpaceOnUse" x1="361.0565" y1="3217.8423" x2="422.5617" y2="3217.8423" gradientTransform="matrix(1 0 0 1 0 -2708)">
		<stop offset="0" style="stop-color:#9774AC"/>
		<stop offset="0.4" style="stop-color:#47A6D3"/>
		<stop offset="0.5" style="stop-color:#A7A7AE"/>
		<stop offset="0.59" style="stop-color:#E89AC0"/>
		<stop offset="1" style="stop-color:#BFE7D1"/>
	</linearGradient>
	<path d="M419.5,512.9H364c-1.7,0.1-3.1-1.2-3.2-2.9s1.2-3.1,2.9-3.2c0.1,0,0.2,0,0.3,0h55.5c1.7,0.1,3,1.5,2.9,3.2
		C422.4,511.6,421.1,512.8,419.5,512.9z" style="fill:url(#SVGID_16_);"/>
	<path d="M430.7,360.3l-16.4,9l-28.6,99.3l69,65.9l-103.8,4.4l-28.2-70.8c-15.2-19.5-18.9-42.5-19.2-47.8
		c-3.9-54.8,53.2-68.7,72.1-68.7C394.2,351.7,412.8,354.6,430.7,360.3z" style="fill:#2B2B2B;"/>
	<g>
		<path d="M473.5,469.2H283.1c-0.6,0-1.1-0.5-1.1-1.1c0-0.6,0.5-1.1,1.1-1.1h190.4c0.6,0,1.1,0.5,1.1,1.1
			C474.6,468.7,474.1,469.2,473.5,469.2z" style="fill:#2B2B2B;"/>
	</g>
	
		<linearGradient id="SVGID_17_" gradientUnits="userSpaceOnUse" x1="385.2181" y1="317.4848" x2="385.2181" y2="234.9671" gradientTransform="matrix(1 0 0 -1 0 783.4761)">
		<stop offset="0" style="stop-color:#9774AC"/>
		<stop offset="0.4" style="stop-color:#47A6D3"/>
		<stop offset="0.5" style="stop-color:#A7A7AE"/>
		<stop offset="0.59" style="stop-color:#E89AC0"/>
		<stop offset="1" style="stop-color:#BFE7D1"/>
	</linearGradient>
	<path d="M371.9,527.8h101.7v30.1H371.9c-23.8,0-45.4-14.3-54.6-36.2l-19-43.6c-1.4-3.2-1.7-6.7-0.7-10.1V468
		c2.2-8,10.6-12.7,18.6-10.3c4.3,1.2,7.9,4.3,9.7,8.5l0.9,2l18.2,41.7c0,0.1,0.1,0.1,0.1,0.1C349.5,520.8,360.1,527.8,371.9,527.8z" style="fill:url(#SVGID_17_);"/>
	<polygon points="417.4,527.9 455.7,558.2 469,534.9 439.9,526 	" style="fill:#2B2B2B;"/>
	
		<linearGradient id="SVGID_18_" gradientUnits="userSpaceOnUse" x1="499.3732" y1="2942.0955" x2="499.3732" y2="3098.2314" gradientTransform="matrix(1 0 0 1 0 -2708)">
		<stop offset="0" style="stop-color:#EA979A"/>
		<stop offset="0.41" style="stop-color:#F2D38B"/>
		<stop offset="0.5" style="stop-color:#7E9DAE"/>
		<stop offset="0.6" style="stop-color:#90979D"/>
		<stop offset="1" style="stop-color:#7EBDDB"/>
	</linearGradient>
	<path d="M435.1,343.3c3-34,26-28.3,19-51.9c-7-23.6,6.2-54.7,32.3-52.5c20.1,1.8,21.6,1.1,30,1.8
		c21.3,1.9,40.3-1.8,46.8,43.9c1.7,11.7-2.3,55.7-1.6,69.8l-31.8,2.7L435.1,343.3z" style="fill:url(#SVGID_18_);"/>
	<g>
		<path d="M453.4,308.7c-0.1,0-0.1,0-0.1,0c-0.6-0.1-1-0.6-0.9-1.2c0.9-8.3-1-31.2-1-31.4c-0.1-0.6,0.4-1.2,1-1.2
			c0.6-0.1,1.2,0.4,1.2,1c0.1,0.9,2,23.3,1,31.8C454.4,308.2,454,308.7,453.4,308.7z" style="fill:#2B2B2B;"/>
	</g>
	<path d="M482.1,238.9c0,0-7.3,0-19.4,4.7l21.6,14.6L482.1,238.9z" style="fill:#2B2B2B;"/>
	<path d="M494.5,260.3l30.7-10.1l-4.3-31.1l-34.4-15.2l-5.6,45.5c-0.5,5.8,3.8,10.9,9.6,11.4
		C491.8,260.9,493.1,260.7,494.5,260.3z" style="fill:#FDC068;"/>
	<polygon points="480.3,229.7 499.6,230.7 480.8,249.4 	" style="fill:#2B2B2B;"/>
	<path d="M522,177.4l-1.3,35.6c-0.4,12.2-10.7,21.7-22.9,21.3l-23.6-0.9l0,0c-13.8-0.5-24.6-12.2-24.1-26l0.7-18.5
		l0.3-7.8l0.2-6.3c0.7-19.1,16.4-34.1,35.3-34.1c0.4,0,0.9,0,1.3,0l0,0C507.5,141.5,522.7,157.9,522,177.4z" style="fill:#FDC068;"/>
	<path d="M474.2,233.4l23.6,0.9c12.2,0.4,22.4-9.1,22.9-21.3l1.3-35.6c0.7-19.5-14.5-36-34.1-36.7l0,0l0,0
		c-19.5-0.7-36,14.5-36.7,34.1l-1.2,32.6C449.6,221.3,460.3,232.9,474.2,233.4C474.2,233.4,474.2,233.4,474.2,233.4z" style="fill:none;"/>
	<g>
		<path d="M454.1,185c0,2-1.4,3.6-3.3,4l0.3-7.8C452.8,181.6,454.1,183.1,454.1,185z" style="fill:#2B2B2B;"/>
	</g>
	<g>
		<path d="M459.5,197.5c-0.2,0-0.4-0.1-0.6-0.1l-3.4-2.2c-0.8-0.7-1.2-1.6-1.2-2.7s0.3-2,1-2.7l5.2-5.8
			c0.4-0.4,1.1-0.5,1.5-0.1c0.4,0.4,0.5,1.1,0.1,1.5l-5.2,5.8c-0.6,0.7-0.6,1.7,0.1,2.3l3.1,2c0.5,0.3,0.7,1,0.3,1.5
			C460.1,197.3,459.8,197.5,459.5,197.5z" style="fill:#2B2B2B;"/>
	</g>
	<g>
		<path d="M458.7,210.6c-0.3,0-0.7,0-0.9-0.1c-2.2-0.4-4-1.9-5.3-4.5c-0.3-0.5-0.1-1.2,0.5-1.4c0.5-0.3,1.2-0.1,1.4,0.5
			c1,2,2.2,3.1,3.7,3.3c2.9,0.4,6-2.6,6-2.7c0.4-0.4,1.1-0.4,1.5,0c0.4,0.4,0.4,1.1,0,1.5C465.5,207.4,462.3,210.6,458.7,210.6z" style="fill:#2B2B2B;"/>
	</g>
	<circle cx="473.1" cy="186" r="4" style="fill:#2B2B2B;"/>
	<path d="M456.2,158.2c-2.2,5.5,5.3,6.7,14.1,5.8c10.9-1.2,20.8,6.7,22,17.5c0,0.2,0.1,0.5,0.1,0.7l0,0
		c0.2,3.2,2.1,5.9,5,7.3l6.9,3.3l3.3,16.7c1.3,6.7,7.2,11.6,14,11.6l0,0c0,0,0.6-33.4,0.6-47.8c0-14.4-11.9-31.3-34.2-32.6
		S456.2,158.2,456.2,158.2z" style="fill:#565656;"/>
	<rect x="482.9" y="177.4" width="22.2" height="11.9" style="fill:#2B2B2B;"/>
	<path d="M504.6,177.4L504.6,177.4c3.3,0.1,5.9,2.8,5.9,6.2l-0.3,10.3c-0.1,3.3-2.8,5.9-6.2,5.9l0,0
		c-3.3-0.1-5.9-2.8-5.9-6.2l0.3-10.3C498.5,179.9,501.2,177.2,504.6,177.4z" style="fill:#FDC068;"/>
	<path d="M475.5,421.6l2.2,48.7c-21.5-1.5-44-32.6-44-32.6L475.5,421.6z" style="fill:#2B2B2B;"/>
	
		<linearGradient id="SVGID_19_" gradientUnits="userSpaceOnUse" x1="444.2676" y1="3232.3342" x2="444.2676" y2="3071.0535" gradientTransform="matrix(1 0 0 1 0 -2708)">
		<stop offset="0" style="stop-color:#77879D"/>
		<stop offset="9.000000e-02" style="stop-color:#A1978E"/>
		<stop offset="0.19" style="stop-color:#C9A780"/>
		<stop offset="0.28" style="stop-color:#E5B275"/>
		<stop offset="0.36" style="stop-color:#F7B96F"/>
		<stop offset="0.42" style="stop-color:#FDBB6D"/>
		<stop offset="0.5" style="stop-color:#FDBB9F"/>
		<stop offset="0.6" style="stop-color:#D1D2D1"/>
		<stop offset="1" style="stop-color:#FECEAA"/>
	</linearGradient>
	<path d="M561.8,354.5l-1.1,26.1c-1.2,29.7-25.2,53.5-54.9,54.6l-65.1,2.5l65.4,57.7l-42.2,45
		c0,0-141.5-53.7-137-116.9S414.6,348.9,561.8,354.5z" style="fill:url(#SVGID_19_);"/>
	<path d="M452.3,585.1l56.7-69.8c3-3.7,2.5-9-1.1-12.1l-8.8-12.1l-35.3,49.2l-19,40.2
		C442.8,585.2,449.1,589.1,452.3,585.1z" style="fill:#2B2B2B;"/>
	<g>
		<path d="M477.7,438.8h-56.9c-0.6,0-1.1-0.5-1.1-1.1s0.5-1.1,1.1-1.1h56.9c0.6,0,1.1,0.5,1.1,1.1
			S478.3,438.8,477.7,438.8z" style="fill:#2B2B2B;"/>
	</g>
	<path d="M488,140.8c3.2-0.1,8.5,0.3,21.9,0.3c13.4,0,7.9,23.2,25.8,23.2c12.1,0,28.9,22.3,10.1,35.5
		c-12.7,8.9-7.2,21.4-24,21.4l-7.3-46.2l-24.2-29.2L488,140.8z" style="fill:#565656;"/>
	<path d="M478.3,196.4H477c-2.2,0-4.4-0.7-6.2-2l-2.1-1.5c-3.7-2.7-14-2.7-17.7-0.1l-2.4,1.7c-1.8,1.3-4,2-6.2,2h-0.2
		c-7.7,0-8.7-6.3-8.7-14v-0.1c0-7.7,6.3-14,14-14l0,0h30.8c7.7,0,14,6.3,14,14l0,0C492.3,190.1,486,196.4,478.3,196.4L478.3,196.4z" style="fill:#5E5E5E;"/>
	<path d="M468.7,196.4h-1.3c-2.2,0-4.4-0.7-6.2-2l-2.1-1.5c-3.7-2.7-8.7-2.7-12.4-0.1l-2.4,1.7c-1.8,1.3-4,2-6.2,2h-0.2
		c-7.7-0.1-14-6.3-14-14v-0.1c0-7.7,6.3-14,14-14l0,0h30.8c7.7,0,14,6.3,14,14l0,0C482.9,190.1,476.5,196.4,468.7,196.4L468.7,196.4
		z" style="fill:#2B2B2B;"/>
	
		<linearGradient id="SVGID_20_" gradientUnits="userSpaceOnUse" x1="596.0203" y1="150.6975" x2="596.0203" y2="317.8539" gradientTransform="matrix(1 0 0 -1 0 783.4761)">
		<stop offset="0" style="stop-color:#F8809A"/>
		<stop offset="1" style="stop-color:#FFD02D"/>
	</linearGradient>
	<path d="M698.1,352.4v290.2H493.9V389.7c0-20.5,16.6-37.2,37.1-37.3c0.1,0,0.1,0,0.1,0H698.1z" style="fill:url(#SVGID_20_);"/>
	
		<linearGradient id="SVGID_21_" gradientUnits="userSpaceOnUse" x1="504.3054" y1="3349.1938" x2="504.3054" y2="2965.5181" gradientTransform="matrix(1 0 0 1 0 -2708)">
		<stop offset="0" style="stop-color:#F8809A"/>
		<stop offset="1" style="stop-color:#FFD02D"/>
	</linearGradient>
	<path d="M534.3,378.2v264.3h-60V378.2c0-14.3,11.6-25.8,25.8-25.8l0,0h8.3c13.5,0,24.7,10.3,25.8,23.7
		C534.2,376.8,534.3,377.5,534.3,378.2z" style="fill:url(#SVGID_21_);"/>
	<path d="M544.1,352.4l-9.9,23.2c0,0,0,0.1-0.1,0.4c-0.7,3.6-6,27.5-22.9,30.8c-5.9,1.2-11.9-0.1-17.4-2.5
		c-11.1-4.8-19.7-13.7-19.7-13.7v-12.5c0-14.3,11.6-25.8,25.8-25.8h0.1L544.1,352.4L544.1,352.4z" style="fill:#2B2B2B;"/>
	
		<linearGradient id="SVGID_22_" gradientUnits="userSpaceOnUse" x1="843.2847" y1="2910.6873" x2="843.2847" y2="3063.1836" gradientTransform="matrix(0.9914 0.1307 -0.1307 0.9914 43.7994 -2761.4387)">
		<stop offset="0" style="stop-color:#EA979A"/>
		<stop offset="0.41" style="stop-color:#F2D38B"/>
		<stop offset="0.5" style="stop-color:#7E9DAE"/>
		<stop offset="0.6" style="stop-color:#90979D"/>
		<stop offset="1" style="stop-color:#7EBDDB"/>
	</linearGradient>
	<path d="M443.3,284.4l41.5,28.4l21.5-43.5c7.1-15.1,25.1-21.5,40.2-14.4c15.1,7.1,21.5,25.1,14.4,40.2
		c-0.1,0.3-0.3,0.6-0.4,0.9l-36.8,74.6l-0.7,1.5c-7,14.3-24.3,20.1-38.6,13.1c-2.2-1.1-4.3-2.5-6.2-4.1l-61.7-53.9L443.3,284.4z" style="fill:url(#SVGID_22_);"/>
	<path d="M416.2,327.2l-24.6-21.4c-9.9-8.3-11.2-23.2-2.9-33.1c7.9-9.4,21.7-11.1,31.7-4l22.9,15.7L416.2,327.2z" style="fill:#FDC068;"/>
	<g>
		<path d="M533.6,353.7c-0.1,0-0.3,0-0.4-0.1c-0.5-0.3-0.8-0.9-0.5-1.4l20.7-43.3c0.3-0.5,0.9-0.8,1.4-0.5
			s0.8,0.9,0.5,1.4l-20.7,43.3C534.4,353.5,534,353.7,533.6,353.7z" style="fill:#2B2B2B;"/>
	</g>
	<g>
		<path d="M485.2,314.4l-42.5-29.1c-0.5-0.4-0.7-1-0.3-1.5s1-0.7,1.5-0.3l40.4,27.7l19-38.4c0.3-0.5,0.9-0.7,1.4-0.5
			c0.5,0.3,0.7,0.9,0.5,1.4L485.2,314.4z" style="fill:#2B2B2B;"/>
	</g>
	
		<linearGradient id="SVGID_23_" gradientUnits="userSpaceOnUse" x1="201.9216" y1="3199.8308" x2="201.9216" y2="3033.7959" gradientTransform="matrix(1 0 0 1 0 -2708)">
		<stop offset="0" style="stop-color:#9774AC"/>
		<stop offset="0.4" style="stop-color:#47A6D3"/>
		<stop offset="0.5" style="stop-color:#A7A7AE"/>
		<stop offset="0.59" style="stop-color:#E89AC0"/>
		<stop offset="1" style="stop-color:#BFE7D1"/>
	</linearGradient>
	<path d="M147,545c-8.3,0-15.1-6.8-15.1-15.1c0-2.5,0.6-4.8,1.7-7l109.8-207.8c3.9-7.4,13-10.2,20.3-6.3
		s10.2,13,6.3,20.3l0,0L160.3,537C157.7,541.9,152.6,545,147,545z" style="fill:url(#SVGID_23_);"/>
	<polygon points="209,400.7 218.2,427.6 232.3,400.7 	" style="fill:#2B2B2B;"/>
	<path d="M263.1,310.1c-3.2,0-6.2-1.3-8.4-3.7l-6.3-6.9c-4.1-4.4-9.8-6.9-15.8-6.9h-56.1c-6.2-0.2-11.1-5.4-10.9-11.7
		c0.2-5.9,5-10.7,10.9-10.9h56.2c12.4,0,24.2,5.2,32.5,14.4l6.3,6.9c4.2,4.6,3.8,11.8-0.8,16C268.6,309,265.9,310.1,263.1,310.1
		L263.1,310.1z" style="fill:#2B2B2B;"/>
	<path d="M326.9,310.1c-6.2,0-11.3-5.1-11.3-11.3c0-2.8,1-5.5,3-7.6l6.3-6.9c8.3-9.1,20.1-14.3,32.5-14.4h56.2
		c6.2,0,11.3,5.1,11.3,11.3s-5.1,11.3-11.3,11.3h-56.2c-6,0-11.7,2.5-15.8,6.9l-6.3,6.9C333.1,308.8,330.1,310.1,326.9,310.1z" style="fill:#2B2B2B;"/>
	
		<linearGradient id="SVGID_24_" gradientUnits="userSpaceOnUse" x1="334.8842" y1="3030.1057" x2="300.8611" y2="3030.1057" gradientTransform="matrix(1 0 0 1 0 -2708)">
		<stop offset="0" style="stop-color:#9774AC"/>
		<stop offset="0.4" style="stop-color:#47A6D3"/>
		<stop offset="0.5" style="stop-color:#A7A7AE"/>
		<stop offset="0.59" style="stop-color:#E89AC0"/>
		<stop offset="1" style="stop-color:#BFE7D1"/>
	</linearGradient>
	<path d="M299.9,363.7H287c-22.9-0.3-41.3-19.2-41-42.1c0.3-22.5,18.5-40.7,41-41h12.8c22.9,0.3,41.3,19.2,41,42.1
		C340.6,345.2,322.4,363.4,299.9,363.7z M287,303.2c-10.5,0-19,8.5-19,19c0,10.5,8.5,19,19,19h12.8c10.5,0,19-8.5,19-19
		c0-10.5-8.5-19-19-19H287z" style="fill:url(#SVGID_24_);"/>
	<circle cx="287" cy="322.1" r="30.2" style="fill:#FFFFFF;"/>
	
		<linearGradient id="SVGID_25_" gradientUnits="userSpaceOnUse" x1="245.4414" y1="3030.0696" x2="328.6541" y2="3030.0696" gradientTransform="matrix(1 0 0 1 0 -2708)">
		<stop offset="0" style="stop-color:#9774AC"/>
		<stop offset="0.4" style="stop-color:#47A6D3"/>
		<stop offset="0.5" style="stop-color:#A7A7AE"/>
		<stop offset="0.59" style="stop-color:#E89AC0"/>
		<stop offset="1" style="stop-color:#BFE7D1"/>
	</linearGradient>
	<path d="M287,363.7c-22.9,0-41.6-18.6-41.6-41.6c0-22.9,18.6-41.6,41.6-41.6c22.9,0,41.6,18.6,41.6,41.6l0,0
		C328.7,345.1,310.1,363.7,287,363.7z M287,303.2c-10.5,0-19,8.5-19,19s8.5,19,19,19s19-8.5,19-19
		C306.1,311.6,297.5,303.2,287,303.2L287,303.2z" style="fill:url(#SVGID_25_);"/>
	<path d="M227.4,546.9c0,51.4,7.7,93.3-30.2,95.6c-1.1,0.1-40.1,0.1-41.2,0.1c-39.4,0-71.4-42.8-71.4-95.7
		s32-95.7,71.4-95.7c0.9,0,45.9,0,46.9,0.1C241,453.2,227.4,495.3,227.4,546.9z" style="fill:#2B2B2B;"/>
	<ellipse cx="200.1" cy="546.9" rx="71.4" ry="95.7" style="fill:#5E5E5E;"/>
	<path d="M246.8,546.9c0,34.6-20.9,62.6-46.7,62.6c-13.9,0-26.3-8.1-34.9-21.1c-7.2-11-11.7-25.6-11.7-41.5
		c0-15.9,4.4-30.5,11.8-41.5c8.5-12.9,21.1-21.1,34.9-21.1C225.9,484.3,246.8,512.3,246.8,546.9z" style="fill:#FFFFFF;"/>
	
		<linearGradient id="SVGID_26_" gradientUnits="userSpaceOnUse" x1="192.2938" y1="3301.343" x2="192.2938" y2="3205.2214" gradientTransform="matrix(1 0 0 1 0 -2708)">
		<stop offset="0" style="stop-color:#9774AC"/>
		<stop offset="0.4" style="stop-color:#47A6D3"/>
		<stop offset="0.5" style="stop-color:#A7A7AE"/>
		<stop offset="0.59" style="stop-color:#E89AC0"/>
		<stop offset="1" style="stop-color:#BFE7D1"/>
	</linearGradient>
	<path d="M231.2,546.9c0,23-13.9,41.6-31,41.6c-0.4,0-18.4,0-34.9,0c-7.3-11.1-11.8-25.7-11.8-41.6
		c0-15.9,4.4-30.5,11.8-41.5c16.1,0,34.5,0,34.9,0C217.3,505.3,231.2,523.9,231.2,546.9z" style="fill:url(#SVGID_26_);"/>
	
		<linearGradient id="SVGID_27_" gradientUnits="userSpaceOnUse" x1="203.4009" y1="3219.8308" x2="203.4009" y2="3299.0928" gradientTransform="matrix(1 0 0 1 0 -2708)">
		<stop offset="0" style="stop-color:#9774AC"/>
		<stop offset="0.4" style="stop-color:#47A6D3"/>
		<stop offset="0.5" style="stop-color:#A7A7AE"/>
		<stop offset="0.59" style="stop-color:#E89AC0"/>
		<stop offset="1" style="stop-color:#BFE7D1"/>
	</linearGradient>
	<path d="M231.2,547.2c0,2.1-0.1,4.2-0.3,6.2c-0.9,8.5-3.5,16.1-7.2,22.1l0,0c-5.1,8-12.3,13-20.3,13
		c-15.3,0-27.8-18.5-27.8-41.3c0-22.8,12.4-41.4,27.7-41.4S231.2,524.3,231.2,547.2z" style="fill:url(#SVGID_27_);"/>
	<path d="M230.8,553.4c-0.9,8.5-3.5,16.1-7.2,22.1l0,0c-21.7-2.2-19.4-32.1-19.4-32.1l23.2,1.7
		C228.7,547.8,229.9,550.5,230.8,553.4z" style="fill:#2B2B2B;"/>
	<g>
		<path d="M283.6,365.5c-7.7,0-13.5-2.4-17.4-4.8c-5.6-3.5-8.5-7.5-8.5-7.7c-0.4-0.5-0.2-1.2,0.3-1.5s1.2-0.2,1.5,0.3
			c0,0.1,2.7,3.9,8,7.2c7.1,4.3,15.2,5.5,24.2,3.5c0.6-0.1,1.2,0.2,1.3,0.8c0.1,0.6-0.2,1.2-0.8,1.3
			C289.1,365.2,286.3,365.5,283.6,365.5z" style="fill:#2B2B2B;"/>
	</g>
	
		<linearGradient id="SVGID_28_" gradientUnits="userSpaceOnUse" x1="274.806" y1="3199.8308" x2="274.806" y2="3033.7959" gradientTransform="matrix(1 0 0 1 0 -2708)">
		<stop offset="0" style="stop-color:#9774AC"/>
		<stop offset="0.4" style="stop-color:#47A6D3"/>
		<stop offset="0.5" style="stop-color:#A7A7AE"/>
		<stop offset="0.59" style="stop-color:#E89AC0"/>
		<stop offset="1" style="stop-color:#BFE7D1"/>
	</linearGradient>
	<path d="M219.2,559.5c-8.3,0-15.1-6.7-15.1-15.1c0-2.3,0.6-4.6,1.6-6.7l110.9-222.2c3.6-7.5,12.6-10.7,20.1-7.1
		s10.7,12.6,7.1,20.1c-0.1,0.1-0.1,0.3-0.2,0.5l-111,222.1C230.2,556.2,225,559.4,219.2,559.5z" style="fill:url(#SVGID_28_);"/>
	
		<linearGradient id="SVGID_29_" gradientUnits="userSpaceOnUse" x1="257.8148" y1="3119.0493" x2="257.8148" y2="3069.6572" gradientTransform="matrix(1 0 0 1 0 -2708)">
		<stop offset="0" style="stop-color:#9774AC"/>
		<stop offset="0.4" style="stop-color:#47A6D3"/>
		<stop offset="0.5" style="stop-color:#A7A7AE"/>
		<stop offset="0.59" style="stop-color:#E89AC0"/>
		<stop offset="1" style="stop-color:#BFE7D1"/>
	</linearGradient>
	<polygon points="210,378.5 318.8,378.5 306.4,403.4 196.8,403.4 	" style="fill:url(#SVGID_29_);"/>
	<path d="M200.4,259.7h22.4c3,0,5.5,2.5,5.5,5.5l0,0l0,0c0,11.1-9,20.1-20.1,20.1h-6.7c-7.4,0-13.4-6-13.4-13.4l0,0
		C188.1,265.2,193.6,259.7,200.4,259.7L200.4,259.7z" style="fill:#FDC068;"/>
	<path d="M388.9,264.5h22.4c3,0,5.5,2.5,5.5,5.5l0,0l0,0c0,11.1-9,20.1-20.1,20.1h-6.7c-7.4,0-13.4-6-13.4-13.4l0,0
		l0,0C376.6,270,382.1,264.5,388.9,264.5L388.9,264.5z" style="fill:#FDC068;"/>
	<g>
		<path d="M473.2,530.2c-0.6,0-1.1-0.5-1.1-1.1v-65.6c0-0.6,0.5-1.1,1.1-1.1c0.6,0,1.1,0.5,1.1,1.1v65.6
			C474.3,529.7,473.8,530.2,473.2,530.2z" style="fill:#2B2B2B;"/>
	</g>
	<g>
		<path d="M284.7,404.5h-11.9c-0.6,0-1.1-0.5-1.1-1.1s0.5-1.1,1.1-1.1h11.9c0.6,0,1.1,0.5,1.1,1.1
			S285.2,404.5,284.7,404.5z" style="fill:#2B2B2B;"/>
	</g>
	<circle cx="165.1" cy="128.1" r="3" style="fill:#BFD9FF;"/>
	<circle cx="729.7" cy="428.1" r="3" style="fill:#BFD9FF;"/>
	<circle cx="667" cy="156.8" r="3" style="fill:#BFD9FF;"/>
	<circle cx="358.1" cy="91.2" r="3" style="fill:#BFD9FF;"/>
	<circle cx="87.6" cy="426.9" r="3" style="fill:#BFD9FF;"/>
	
		<linearGradient id="SVGID_30_" gradientUnits="userSpaceOnUse" x1="616.4979" y1="3195.0332" x2="616.4979" y2="3347.696" gradientTransform="matrix(1 0 0 1 0 -2708)">
		<stop offset="0" style="stop-color:#FFD8A1"/>
		<stop offset="1" style="stop-color:#FFFFFF"/>
	</linearGradient>
	<path d="M745.2,490.7V646l-257.3-3.4c47.6,0,63.3-46.9,85.9-83.8c12.2-19.9,26.4-36.9,48.7-42
		c24.5-5.6,38.2-23.2,49.6-42.7c0.5-0.8,0.9-1.7,1.4-2.5C693.2,437.6,745.2,451.4,745.2,490.7z" style="fill:url(#SVGID_30_);"/>
	<path d="M504.3,633.9l3.2-0.1C506.4,633.9,505.4,633.9,504.3,633.9z" style="fill:#2B2B2B;"/>
	
		<linearGradient id="SVGID_31_" gradientUnits="userSpaceOnUse" x1="253.835" y1="3281.3792" x2="253.835" y2="3347.8335" gradientTransform="matrix(1 0 0 1 0 -2708)">
		<stop offset="0" style="stop-color:#FFD8A1"/>
		<stop offset="1" style="stop-color:#FFFFFF"/>
	</linearGradient>
	<path d="M310.9,575.3L310.9,575.3c-0.1,6.8-3,13.3-8.2,17.8c-17,15.1-20.8,49.6-47.9,49.6h-58
		c32.5,0,31.4-49.2,59.7-55.8c11.3-2.6,17.4-10.9,22.6-20C287.8,551.7,310.9,557.8,310.9,575.3z" style="fill:url(#SVGID_31_);"/>
</g>
</svg>
