<?xml version="1.0" encoding="iso-8859-1"?>
<!-- Generator: Adobe Illustrator 23.0.2, SVG Export Plug-In . SVG Version: 6.00 Build 0)  -->
<svg version="1.1" id="Layer_1" xmlns="http://www.w3.org/2000/svg" xmlns:xlink="http://www.w3.org/1999/xlink" x="0px" y="0px"
	 viewBox="0 0 1105.6 1080" style="enable-background:new 0 0 1105.6 1080;" xml:space="preserve">
<g style="opacity:0.3;">
	<g>
		<path style="fill:#C4ECFE;" d="M1026.7,80.7V885H78.8V80.7H1026.7 M1029.8,77.6H75.7v810.5h954.1L1029.8,77.6L1029.8,77.6z"/>
	</g>
	<g>
		<g>
			<rect x="75.7" y="652.2" style="fill:#C4ECFE;" width="954.1" height="2.9"/>
		</g>
		<g>
			<rect x="75.7" y="536.1" style="fill:#C4ECFE;" width="954.1" height="2.9"/>
		</g>
		<g>
			<rect x="75.7" y="652.2" style="fill:#C4ECFE;" width="954.1" height="2.9"/>
		</g>
		<g>
			<rect x="75.7" y="768.2" style="fill:#C4ECFE;" width="954.1" height="2.9"/>
		</g>
		<g>
			<rect x="75.7" y="420.1" style="fill:#C4ECFE;" width="954.1" height="2.9"/>
		</g>
		<g>
			<rect x="75.7" y="304" style="fill:#C4ECFE;" width="954.1" height="2.9"/>
		</g>
		<g>
			<rect x="75.7" y="188" style="fill:#C4ECFE;" width="954.1" height="2.9"/>
		</g>
	</g>
</g>
<g>
	<g>
		<g>
			
				<linearGradient id="SVGID_1_" gradientUnits="userSpaceOnUse" x1="958.2" y1="1115.1" x2="958.2" y2="916.6" gradientTransform="matrix(1 0 0 -1 0 1392)">
				<stop  offset="0.2594" style="stop-color:#CAE6C4"/>
				<stop  offset="0.4772" style="stop-color:#CDE7C7"/>
				<stop  offset="0.6541" style="stop-color:#D6ECD1"/>
				<stop  offset="0.8167" style="stop-color:#E5F3E2"/>
				<stop  offset="0.9698" style="stop-color:#FBFDFA"/>
				<stop  offset="0.9958" style="stop-color:#FFFFFF"/>
			</linearGradient>
			<path style="fill:url(#SVGID_1_);" d="M958.2,475.4c-3,0-5.5-2.5-5.5-5.5V282.4c0-3,2.5-5.5,5.5-5.5s5.5,2.5,5.5,5.5v187.5
				C963.7,472.9,961.2,475.4,958.2,475.4z"/>
		</g>
	</g>
	<g>
		<path style="fill:#CAE6C4;" d="M958.2,323.5c-0.3,0-0.6,0-0.9-0.1c-3-0.5-5-3.3-4.5-6.3c2.5-14.8,15.7-25.2,30.7-24.1
			c3,0.2,5.3,2.9,5.1,5.9s-2.9,5.3-5.9,5.1c-9.3-0.7-17.5,5.7-19.1,14.9C963.2,321.6,960.8,323.5,958.2,323.5z"/>
	</g>
	<g>
		<path style="fill:#CAE6C4;" d="M958.2,323.5c-2.6,0-5-1.9-5.4-4.6c-1.5-9.2-9.7-15.6-19.1-14.9c-3,0.2-5.7-2-5.9-5.1
			c-0.2-3,2-5.7,5.1-5.9c15.1-1.1,28.3,9.2,30.7,24.1c0.5,3-1.5,5.8-4.5,6.3C958.8,323.5,958.5,323.5,958.2,323.5z"/>
	</g>
	<g>
		<path style="fill:#CAE6C4;" d="M958.2,351c-0.3,0-0.6,0-0.9-0.1c-3-0.5-5-3.3-4.5-6.3c2.5-14.8,15.7-25.2,30.7-24.1
			c3,0.2,5.3,2.9,5.1,5.9s-2.9,5.3-5.9,5.1c-9.3-0.7-17.5,5.7-19.1,14.9C963.2,349.1,960.8,351,958.2,351z"/>
	</g>
	<g>
		<path style="fill:#CAE6C4;" d="M958.2,351c-2.6,0-5-1.9-5.4-4.6c-1.5-9.2-9.7-15.6-19.1-14.9c-3,0.2-5.7-2-5.9-5.1
			c-0.2-3,2-5.7,5.1-5.9c15.1-1.1,28.3,9.2,30.7,24.1c0.5,3-1.5,5.8-4.5,6.3C958.8,351,958.5,351,958.2,351z"/>
	</g>
</g>
<g>
	<g>
		<path style="fill:#DBDDC6;" d="M144,696.4c-3.1,0-5.6-2.5-5.6-5.6V522.9c0-3.1,2.5-5.6,5.6-5.6s5.6,2.5,5.6,5.6v167.9
			C149.6,693.9,147.1,696.4,144,696.4z"/>
	</g>
	<g>
		<path style="fill:#DBDDC6;" d="M144,560.3c-0.3,0-0.6,0-0.9-0.1c-3-0.5-5.1-3.4-4.6-6.4c2.3-13.6,14.4-23.1,28.1-22.1
			c3.1,0.2,5.4,2.9,5.1,6c-0.2,3.1-2.9,5.4-6,5.1c-8-0.6-15,4.9-16.3,12.9C149,558.3,146.7,560.3,144,560.3z"/>
	</g>
	<g>
		<path style="fill:#DBDDC6;" d="M144,560.3c-2.7,0-5-1.9-5.5-4.6c-1.3-7.9-8.3-13.5-16.3-12.9c-3.1,0.2-5.7-2.1-6-5.1
			c-0.2-3.1,2.1-5.7,5.1-6c13.7-1,25.8,8.5,28.1,22.1c0.5,3-1.5,5.9-4.6,6.4C144.6,560.2,144.3,560.3,144,560.3z"/>
	</g>
	
		<ellipse transform="matrix(0.1356 -0.9908 0.9908 0.1356 -374.0684 577.6796)" style="fill:#DBDDC6;" cx="144.02" cy="503.209" rx="18.6" ry="18.6"/>
</g>
<g>
	<g>
		<g>
			<polyline style="fill:#FFFFFF;" points="756.3,691.8 553.4,348.5 350.5,691.8 			"/>
			<path style="fill:#F9D5FF;" d="M751.9,694.4l-198.5-336l-198.5,336l-8.7-5.1L549,345.9c0.9-1.5,2.6-2.5,4.4-2.5s3.4,0.9,4.4,2.5
				l202.9,343.3L751.9,694.4z"/>
		</g>
		<g>
			<g>
				
					<rect x="608.478" y="372.568" transform="matrix(0.7071 -0.7071 0.7071 0.7071 -183.7455 581.432)" style="fill:#F9D5FF;" width="3" height="279.897"/>
			</g>
			<g>
				
					<rect x="562.213" y="444.75" transform="matrix(0.7071 -0.7071 0.7071 0.7071 -238.3312 565.7151)" style="fill:#F9D5FF;" width="3" height="251.598"/>
			</g>
			<g>
				
					<rect x="489.213" y="522.25" transform="matrix(0.7071 -0.7071 0.7071 0.7071 -281.9156 523.2936)" style="fill:#F9D5FF;" width="3" height="159.398"/>
			</g>
			<g>
				
					<rect x="418.794" y="600.395" transform="matrix(0.7071 -0.7071 0.7071 0.7071 -326.5445 483.4419)" style="fill:#F9D5FF;" width="3" height="70.999"/>
			</g>
		</g>
	</g>
	
		<linearGradient id="SVGID_2_" gradientUnits="userSpaceOnUse" x1="339.5657" y1="995.0271" x2="677.9443" y2="851.6793" gradientTransform="matrix(1 0 0 -1 0 1392)">
		<stop  offset="0" style="stop-color:#F48B94"/>
		<stop  offset="0.405" style="stop-color:#F4A9A6"/>
		<stop  offset="0.4989" style="stop-color:#FED3B5"/>
		<stop  offset="0.599" style="stop-color:#DBECC2"/>
		<stop  offset="1" style="stop-color:#ADDCC8"/>
	</linearGradient>
	<path style="fill:url(#SVGID_2_);" d="M777.2,468.5L652.1,623c-14,17.3-37.5,22.3-56.9,13.7l-3-1.4l-164.6-73.1
		c-26.5-11.8-38.5-42.8-26.7-69.4s42.8-38.5,69.4-26.7l164.6,73.1L575,551.6l135.8-128.8"/>
	<path style="fill:#FDC068;" d="M710.7,422.8l27.1-25.7c15.2-14.4,39.2-13.8,53.6,1.4c13.3,14,13.8,35.4,2,50l-16.2,20"/>
	<g>
		<path style="fill:#BE6361;" d="M331.3,672.1l4.8-3l4.8-2.9l9.6-5.8l9.7-5.6l9.8-5.5c6.5-3.7,13.1-7.2,19.6-10.8l19.7-10.6
			c26.4-13.9,53.1-27.2,80-40.1c6.7-3.2,13.4-6.5,20.2-9.6l20.3-9.4c6.7-3.2,13.6-6.2,20.4-9.3c6.8-3.1,13.6-6.2,20.4-9.2l20.5-9
			c6.8-3,13.7-6,20.6-8.9l20.6-8.7l10.3-4.4L653,515l11.5-4.7c22.8-9.4,47.9-4.1,65,11.4l12.1,11l6.1,5.5l6,5.6
			c8,7.5,16,14.9,23.8,22.6l11.8,11.4l11.7,11.6c7.8,7.7,15.5,15.7,23.2,23.5c15.3,15.9,30.4,32.1,45.1,48.8
			c7.3,8.4,14.6,16.8,21.8,25.4c3.6,4.3,7.1,8.7,10.6,13.1l5.2,6.7l2.6,3.3l2.5,3.4l-60.2,82.3L641.3,642.3l77.4,6.8L397.5,806.8
			L331.3,672.1z"/>
	</g>
	<path style="fill:#BE6361;" d="M279.6,605.2c-25.2,38-18.9,100.2,28.5,110.4c36.6,7.8,38.8,9.9,54.2,13.2c48.8,10.4,93-32,89-81.7
		L279.6,605.2z"/>
	
		<linearGradient id="SVGID_3_" gradientUnits="userSpaceOnUse" x1="309.0205" y1="946.597" x2="512.7001" y2="867.4418" gradientTransform="matrix(1 0 0 -1 0 1392)">
		<stop  offset="0" style="stop-color:#F48B94"/>
		<stop  offset="0.405" style="stop-color:#F4A9A6"/>
		<stop  offset="0.4989" style="stop-color:#FED3B5"/>
		<stop  offset="0.599" style="stop-color:#DBECC2"/>
		<stop  offset="1" style="stop-color:#ADDCC8"/>
	</linearGradient>
	<path style="fill:url(#SVGID_3_);" d="M410,448.3c-5.5-31.7-77.1-73.3-111.8-59.1c-37.5,15.4-30.9,111.4-22.5,110.1
		C284,497.9,410,448.3,410,448.3z"/>
	<path style="fill:#BE6361;" d="M315.5,398.7c-25.7,1.1-27.1,42.6,8,48.9c34,6.1,65-16,59.6-24C377.8,415.7,343.2,397.4,315.5,398.7
		z"/>
	
		<linearGradient id="SVGID_4_" gradientUnits="userSpaceOnUse" x1="172.1593" y1="994.1314" x2="519.1593" y2="847.1314" gradientTransform="matrix(0.9679 0.2513 0.2513 -0.9679 -94.9634 1415.525)">
		<stop  offset="0" style="stop-color:#F48B94"/>
		<stop  offset="0.405" style="stop-color:#F4A9A6"/>
		<stop  offset="0.4989" style="stop-color:#FED3B5"/>
		<stop  offset="0.599" style="stop-color:#DBECC2"/>
		<stop  offset="1" style="stop-color:#ADDCC8"/>
	</linearGradient>
	<path style="fill:url(#SVGID_4_);" d="M451.4,647.2c0,0-1.4-11.3,1.8-25.2c3.3-13.9,42.1-27.1,51.2-69.6
		c7-32.6-16.7-88.8-73.4-101.4l-46.1-8.7c-49.9-11.1-99.6,23.1-109.8,57.1h-0.2c-0.2,1-0.4,2-0.6,2.9c-0.1,0.3-0.2,0.6-0.2,0.9h0.1
		c-10.7,58.2,30,65.1,5.4,102.2L451.4,647.2z"/>
	<g>
		<path style="fill:#2B2B2B;" d="M489.2,589.5c-0.4,0-0.7-0.1-1-0.4c-0.7-0.6-0.8-1.6-0.2-2.3c13.9-16.9,15.9-34.3,15.9-43.1
			c0-0.9,0.7-1.7,1.7-1.7s1.7,0.7,1.7,1.7c0,16.1-5.9,32.2-16.7,45.3C490.2,589.2,489.7,589.5,489.2,589.5z"/>
	</g>
	
		<rect x="400.792" y="461.091" transform="matrix(0.967 -0.2547 0.2547 0.967 -114.9528 123.7302)" style="fill:#FFFFFF;" width="38.999" height="89.298"/>
	<path style="fill:#2B2B2B;" d="M322.8,587.7c27.6,45.8-6.5,33.9-13,67.3l107.1,30.8l19.3-55.6L322.8,587.7z"/>
	<g>
		<path style="fill:#2B2B2B;" d="M428.2,644.1c-0.2,0-0.3,0-0.5,0c-1.2-0.3-2-1.5-1.7-2.7c1.3-6.2,5.2-11.6,10.1-18.3
			c3.4-4.6,7.2-9.9,10.9-16.5c0.6-1.1,2-1.5,3.1-0.9s1.5,2,0.9,3.1c-3.8,6.8-7.7,12.2-11.2,16.9c-4.6,6.3-8.2,11.3-9.4,16.6
			C430.2,643.3,429.2,644.1,428.2,644.1z"/>
	</g>
	<path style="fill:#FDC068;" d="M397.1,477.2l-44.8-33.6L391,333.4l62.6,18.7l-28,114.9C422.5,479.7,407.5,485.1,397.1,477.2z"/>
	<path style="fill:#FDC068;" d="M515.3,320.2c-0.1,2-0.4,4-0.7,5.9l-2.1,12.3l-2.3,13.6l-5.1,30c-4,23.7-26.5,39.6-50.2,35.6
		l-40.4-6.9c-20.9-3.5-35-23.4-31.4-44.3l10.3-60.9c5.7-33.4,37.4-55.9,70.8-50.2C495.7,260.7,517.5,289,515.3,320.2z"/>
	<path style="fill:#FFFFFF;" d="M499.7,375.3c0,0-14.2,26.3-24.6-2.5L499.7,375.3z"/>
	<polygon style="fill:#2B2B2B;" points="438.4,414.6 411.1,406.6 431.7,442.1 	"/>
	<circle style="fill:#2B2B2B;" cx="470.6" cy="342.4" r="7"/>
	<g>
		<path style="fill:#FDC068;" d="M493.1,339.2l6.8,11.7c1.4,2.3,0.5,5.3-1.9,6.6l-6.2,2.4"/>
		<path style="fill:#2B2B2B;" d="M491.8,362.2c-0.9,0-1.8-0.5-2.1-1.4c-0.5-1.2,0.1-2.5,1.3-2.9l6-2.3c0.6-0.4,1-0.9,1.2-1.6
			c0.2-0.6,0.1-1.3-0.2-1.8l-6.8-11.7c-0.6-1.1-0.3-2.5,0.8-3.1c1.1-0.6,2.5-0.3,3.1,0.8l6.8,11.7c1,1.6,1.2,3.5,0.7,5.3
			c-0.5,1.9-1.8,3.5-3.5,4.4l-0.3,0.1l-6.2,2.4C492.3,362.1,492.1,362.2,491.8,362.2z M498,357.5L498,357.5L498,357.5z"/>
	</g>
	<path style="fill:#2B2B2B;" d="M500.6,261.3l-33.3-7.2c-33.7-7.2-66.7,14.9-72.8,48.8l-7.8,42.9l14.2-9.5l12.5-8.3l14.9,2.9
		l11.5-43.6c11.6,8.4,32.3,15.1,53.8,14.9C488.9,288.6,494.1,273.6,500.6,261.3z"/>
	<path style="fill:#FDC068;" d="M403.9,345.1l13.7,3.1l5.8-25.8c1.4-6-2.4-12-8.4-13.4l-2.8-0.6c-6-1.4-12,2.4-13.4,8.4l-3.4,14.9
		C394.1,337.8,397.9,343.8,403.9,345.1z"/>
	<g>
		<path style="fill:#BE6361;" d="M289.5,670.1l5-2.6l5-2.5l10-5l10.1-4.8l10.1-4.7c6.8-3.2,13.6-6.2,20.4-9.3l20.5-9
			c27.4-11.9,55-23,82.8-33.8c7-2.7,13.9-5.4,20.9-8l20.9-7.8c7-2.7,14-5.1,21-7.7c7-2.5,14-5.1,21.1-7.6l21.1-7.4
			c7-2.5,14.1-4.9,21.2-7.3l21.2-7.1l10.6-3.5l10.7-3.4l12-3.9c36.8-11.9,76.4,8.3,88.3,45.1c5,15.3,4.3,31.1-0.7,45.2l-5.6,15.6
			l-2.8,7.8l-2.9,7.8c-3.9,10.4-7.7,20.8-11.8,31.1l-6.1,15.5l-6.3,15.4c-4.1,10.3-8.6,20.5-12.9,30.8
			c-8.9,20.5-18.1,40.9-27.9,61.1c-4.9,10.1-9.9,20.2-15.2,30.2c-2.6,5-5.3,10-8,15l-4.2,7.5l-2.1,3.7l-2.2,3.7l-99.1-24l62-256.4
			l100.8,87.4L345.1,809.6L289.5,670.1z"/>
	</g>
	<g>
		<g>
			<path style="fill:#2B2B2B;" d="M710.5,657.8c-0.2,0-0.4,0-0.6-0.1c-0.9-0.3-1.3-1.3-1-2.1l2.9-7.8l8.4-23.4
				c5.1-14.5,5.4-29.8,0.7-44.1c-5.4-16.6-16.7-30.3-31.9-38.8c-0.8-0.4-1.1-1.4-0.6-2.2c0.4-0.8,1.4-1.1,2.2-0.6
				c16,8.8,27.8,23.3,33.5,40.6c4.9,15.1,4.7,31.1-0.7,46.3L715,649l-2.9,7.8C711.8,657.3,711.2,657.8,710.5,657.8z"/>
		</g>
	</g>
	<path style="fill:#2B2B2B;" d="M512.4,338.5l-2.3,13.6c-2.1-0.7-3.8-2.4-4.5-4.6c-1.1-3.7,1-7.6,4.7-8.6
		C511.1,338.5,511.8,338.4,512.4,338.5z"/>
	<path style="fill:#BE6361;" d="M395,297.3c0,0,20.4-80.7,38.5-81.3s20,19.4,30.5,20.2s15-19.7,34.5-15.3s20.7,85.4,20.7,85.4
		L395,297.3z"/>
	<polygon style="fill:#2B2B2B;" points="401.8,273.4 517.8,281.8 519.1,306.3 395,297.3 	"/>
	<g>
		<path style="fill:#BE6361;" d="M596.1,313.5H596l-289-20.8c-0.9-0.1-1.6-0.9-1.5-1.8s0.8-1.6,1.8-1.5l289,20.8
			c0.9,0.1,1.6,0.9,1.5,1.8C597.7,312.8,597,313.5,596.1,313.5z"/>
	</g>
	
		<linearGradient id="SVGID_5_" gradientUnits="userSpaceOnUse" x1="911.9824" y1="549.5128" x2="911.9824" y2="495.8162" gradientTransform="matrix(1 0 0 -1 0 1392)">
		<stop  offset="0" style="stop-color:#FFE0C2"/>
		<stop  offset="0.401" style="stop-color:#7AAEFC"/>
		<stop  offset="0.5908" style="stop-color:#B8C1FC"/>
		<stop  offset="1" style="stop-color:#D2D4D4"/>
	</linearGradient>
	<path style="fill:url(#SVGID_5_);" d="M865.8,888.1c0,0,13.9-25.6,26.7-23.1c19.6,3.8,21.2,0.6,38.7-16.4s39.4,2.2,18.3,39.5H865.8
		z"/>
	<g>
		<polygon style="fill:#FFFFFF;" points="256.7,883 85.9,658.7 1020.2,658.7 865.8,883 		"/>
		<path style="fill:#F9D5FF;" d="M1010.6,663.8L863.2,877.9h-604l-163-214.2L1010.6,663.8 M1029.8,653.7H75.7l178.4,234.4h614.3
			L1029.8,653.7L1029.8,653.7z"/>
	</g>
	<g>
		<g>
			
				<rect x="118.03" y="691.382" transform="matrix(0.7071 -0.7071 0.7071 0.7071 -440.4778 322.3562)" style="fill:#F9D5FF;" width="101.699" height="3"/>
		</g>
		<g>
			
				<rect x="155.379" y="714.862" transform="matrix(0.7071 -0.7071 0.7071 0.7071 -436.3878 379.1898)" style="fill:#F9D5FF;" width="168.298" height="3"/>
		</g>
		<g>
			
				<rect x="179.959" y="745.911" transform="matrix(0.7071 -0.7071 0.7071 0.7071 -439.8826 432.8524)" style="fill:#F9D5FF;" width="245.198" height="3"/>
		</g>
		<g>
			
				<rect x="214.894" y="769.697" transform="matrix(0.7071 -0.7071 0.7071 0.7071 -436.0574 489.659)" style="fill:#F9D5FF;" width="316.297" height="3"/>
		</g>
		<g>
			
				<rect x="308.758" y="769.012" transform="matrix(0.7071 -0.7071 0.7071 0.7071 -407.8172 556.4669)" style="fill:#F9D5FF;" width="318.097" height="3"/>
		</g>
		<g>
			
				<rect x="403.98" y="768.199" transform="matrix(0.7069 -0.7073 0.7073 0.7069 -379.4523 623.6857)" style="fill:#F9D5FF;" width="317.697" height="3"/>
		</g>
		<g>
			
				<rect x="499.677" y="768.064" transform="matrix(0.7071 -0.7071 0.7071 0.7071 -351.6667 690.1286)" style="fill:#F9D5FF;" width="315.097" height="3"/>
		</g>
		<g>
			
				<rect x="591.212" y="769.95" transform="matrix(0.7071 -0.7071 0.7071 0.7071 -325.9269 756.0421)" style="fill:#F9D5FF;" width="316.897" height="3"/>
		</g>
		<g>
			
				<rect x="687.811" y="768.051" transform="matrix(0.7071 -0.7071 0.7071 0.7071 -296.4373 823.4385)" style="fill:#F9D5FF;" width="315.897" height="3"/>
		</g>
		<g>
			
				<rect x="807.41" y="823.851" transform="matrix(0.7071 -0.7071 0.7071 0.7071 -323.9877 868.5255)" style="fill:#F9D5FF;" width="157.998" height="3"/>
		</g>
	</g>
	<g>
		<path style="fill:#2B2B2B;" d="M275.9,499c-0.2,0-0.3,0-0.5-0.1c-0.9-0.3-1.3-1.2-1.1-2.1c5.8-17.9,19.1-29.7,30.1-38
			c0.7-0.6,1.8-0.4,2.3,0.3c0.6,0.7,0.4,1.8-0.3,2.3c-10.5,8-23.4,19.4-28.9,36.4C277.2,498.5,276.6,499,275.9,499z"/>
	</g>
</g>
<g>
	<circle style="fill:#BFD9FF;" cx="986.1" cy="238.7" r="4.1"/>
	<circle style="fill:#BFD9FF;" cx="180" cy="359.9" r="4.1"/>
	<circle style="fill:#BFD9FF;" cx="228.2" cy="177" r="4.1"/>
	<circle style="fill:#BFD9FF;" cx="728.7" cy="103.4" r="4.1"/>
	<circle style="fill:#BFD9FF;" cx="369.9" cy="654.9" r="3.8"/>
</g>
<path style="fill:#2B2B2B;" d="M322.8,888.1l500.3-541.9c3.7-4.1,10.1-4.3,14.1-0.6c4.1,3.8,4.3,10.1,0.6,14.1L349.3,888.1H322.8z"
	/>
<path style="fill:#FDC068;" d="M615.9,512.5l29.6-10c19.8-6.7,41.3,4,48,23.8c6.2,18.4-2.6,38.2-19.7,46.3l-31.6,15"/>
<linearGradient id="SVGID_6_" gradientUnits="userSpaceOnUse" x1="292.0686" y1="888.611" x2="610.8674" y2="753.558" gradientTransform="matrix(1 0 0 -1 0 1392)">
	<stop  offset="0" style="stop-color:#F48B94"/>
	<stop  offset="0.405" style="stop-color:#F4A9A6"/>
	<stop  offset="0.4989" style="stop-color:#FED3B5"/>
	<stop  offset="0.599" style="stop-color:#DBECC2"/>
	<stop  offset="1" style="stop-color:#ADDCC8"/>
</linearGradient>
<path style="fill:url(#SVGID_6_);" d="M642.2,587.7l-194.4,92.1c-20.1,9.5-43.5,4-57.4-12l-2-2.3L287.3,548.9
	c-19-21.9-16.7-55.1,5.2-74.1c21.9-19,55.1-16.7,74.1,5.2l101.2,116.6l-59.3-14.3l207.4-69.8"/>
<path style="fill:#FDC068;" d="M777.2,389.1c-28.4-9.1-37.9,25.7-13.9,59.9l34-42.2C797.4,406.8,789.2,393,777.2,389.1z"/>
<g>
	<path style="fill:#2B2B2B;" d="M424.8,578.6c-0.7,0-1.3-0.4-1.6-1.1c-0.3-0.9,0.2-1.8,1-2.1l20.6-7c0.9-0.3,1.8,0.2,2.1,1
		s-0.2,1.8-1,2.1l-20.6,7C425.2,578.5,425,578.6,424.8,578.6z"/>
</g>
<linearGradient id="SVGID_7_" gradientUnits="userSpaceOnUse" x1="207.65" y1="593" x2="207.65" y2="488.062" gradientTransform="matrix(1 0 0 -1 0 1392)">
	<stop  offset="0" style="stop-color:#FFE0C2"/>
	<stop  offset="0.401" style="stop-color:#7AAEFC"/>
	<stop  offset="0.5908" style="stop-color:#B8C1FC"/>
	<stop  offset="1" style="stop-color:#D2D4D4"/>
</linearGradient>
<path style="fill:url(#SVGID_7_);" d="M339.6,888.1c0,0-17.5-54-65.2-45.1c-47.7,9-45.5-52.5-94.4-43.5s-51.6,72.1-104.3,88.6H339.6
	z"/>
<g>
	<g>
		<g>
			<g>
				<path style="fill:#DBDDC6;" d="M741.5,888.6c-3.1,0-5.6-2.5-5.6-5.6V766.4c0-3.1,2.5-5.6,5.6-5.6s5.6,2.5,5.6,5.6V883
					C747.1,886.1,744.6,888.6,741.5,888.6z"/>
			</g>
		</g>
		<g>
			<g>
				<path style="fill:#DBDDC6;" d="M741.5,809.2c-0.3,0-0.6,0-0.9-0.1c-3-0.5-5.1-3.4-4.6-6.4c2.6-15.5,16.3-26.3,31.9-25
					c3.1,0.2,5.4,2.9,5.1,6c-0.2,3.1-2.9,5.4-6,5.1c-9.8-0.8-18.4,6-20.1,15.8C746.5,807.2,744.2,809.2,741.5,809.2z"/>
			</g>
		</g>
		<g>
			<g>
				<path style="fill:#DBDDC6;" d="M741.5,809.2c-2.7,0-5-1.9-5.5-4.6c-1.6-9.8-10.3-16.5-20.1-15.8c-3.1,0.2-5.7-2-6-5.1
					c-0.2-3.1,2-5.7,5.1-6c15.6-1.2,29.3,9.5,31.9,25c0.5,3-1.5,5.9-4.6,6.4C742.1,809.1,741.8,809.2,741.5,809.2z"/>
			</g>
		</g>
		<g>
			<g>
				<path style="fill:#DBDDC6;" d="M741.5,839.5c-0.3,0-0.6,0-0.9-0.1c-3-0.5-5.1-3.4-4.6-6.4c2.6-15.5,16.3-26.3,31.9-25
					c3.1,0.2,5.4,2.9,5.1,6c-0.2,3.1-2.9,5.4-6,5.1c-9.8-0.8-18.4,6-20.1,15.8C746.5,837.5,744.2,839.5,741.5,839.5z"/>
			</g>
		</g>
		<g>
			<g>
				<path style="fill:#DBDDC6;" d="M741.5,839.5c-2.7,0-5-1.9-5.5-4.6c-1.6-9.8-10.3-16.5-20.1-15.8c-3.1,0.2-5.7-2-6-5.1
					c-0.2-3.1,2-5.7,5.1-6c15.6-1.2,29.3,9.5,31.9,25c0.5,3-1.5,5.9-4.6,6.4C742.1,839.4,741.8,839.5,741.5,839.5z"/>
			</g>
		</g>
	</g>
</g>
<g>
	<g>
		<g>
			<g>
				<path style="fill:#DBDDC6;" d="M675.2,875.7c-3.1,0-5.6-2.5-5.6-5.6v-63.2c0-3.1,2.5-5.6,5.6-5.6s5.6,2.5,5.6,5.6v63.2
					C680.8,873.2,678.3,875.7,675.2,875.7z"/>
			</g>
		</g>
		<g>
			<g>
				<path style="fill:#DBDDC6;" d="M675.2,849.7c-0.3,0-0.6,0-0.9-0.1c-3-0.5-5.1-3.4-4.6-6.4c2.6-15.5,16.3-26.3,31.9-25
					c3.1,0.2,5.4,2.9,5.1,6c-0.2,3.1-2.9,5.4-6,5.1c-9.8-0.8-18.4,6-20.1,15.8C680.2,847.7,677.9,849.7,675.2,849.7z"/>
			</g>
		</g>
		<g>
			<g>
				<path style="fill:#DBDDC6;" d="M675.2,849.7c-2.7,0-5-1.9-5.5-4.6c-1.6-9.8-10.3-16.5-20.1-15.8c-3.1,0.2-5.7-2-6-5.1
					c-0.2-3.1,2-5.7,5.1-6c15.6-1.2,29.3,9.5,31.9,25c0.5,3-1.5,5.9-4.6,6.4C675.8,849.6,675.5,849.7,675.2,849.7z"/>
			</g>
		</g>
	</g>
</g>
<linearGradient id="SVGID_8_" gradientUnits="userSpaceOnUse" x1="741.45" y1="566.999" x2="741.45" y2="492.6982" gradientTransform="matrix(1 0 0 -1 0 1392)">
	<stop  offset="0" style="stop-color:#FFE0C2"/>
	<stop  offset="0.401" style="stop-color:#7AAEFC"/>
	<stop  offset="0.5908" style="stop-color:#B8C1FC"/>
	<stop  offset="1" style="stop-color:#D2D4D4"/>
</linearGradient>
<path style="fill:url(#SVGID_8_);" d="M865.8,888.1c0,0-41.4-70.9-84.5-62.7c-36.1,6.9-35.9,30.9-52.2,37.6
	c-16.3,6.7-112-19.7-112,25.1L865.8,888.1L865.8,888.1z"/>
<linearGradient id="SVGID_9_" gradientUnits="userSpaceOnUse" x1="992.3" y1="585.1552" x2="992.3" y2="542.7171" gradientTransform="matrix(1 0 0 -1 0 1392)">
	<stop  offset="0" style="stop-color:#FFE0C2"/>
	<stop  offset="0.401" style="stop-color:#7AAEFC"/>
	<stop  offset="0.5908" style="stop-color:#B8C1FC"/>
	<stop  offset="1" style="stop-color:#D2D4D4"/>
</linearGradient>
<circle style="fill:url(#SVGID_9_);" cx="992.3" cy="825.4" r="15"/>
<linearGradient id="SVGID_10_" gradientUnits="userSpaceOnUse" x1="585.3" y1="552.2219" x2="585.3" y2="522.6077" gradientTransform="matrix(1 0 0 -1 0 1392)">
	<stop  offset="0" style="stop-color:#FFE0C2"/>
	<stop  offset="0.401" style="stop-color:#7AAEFC"/>
	<stop  offset="0.5908" style="stop-color:#B8C1FC"/>
	<stop  offset="1" style="stop-color:#D2D4D4"/>
</linearGradient>
<circle style="fill:url(#SVGID_10_);" cx="585.3" cy="852.7" r="10.4"/>
<linearGradient id="SVGID_11_" gradientUnits="userSpaceOnUse" x1="101.8" y1="623.4489" x2="101.8" y2="582.821" gradientTransform="matrix(1 0 0 -1 0 1392)">
	<stop  offset="0" style="stop-color:#FFE0C2"/>
	<stop  offset="0.401" style="stop-color:#7AAEFC"/>
	<stop  offset="0.5908" style="stop-color:#B8C1FC"/>
	<stop  offset="1" style="stop-color:#D2D4D4"/>
</linearGradient>
<circle style="fill:url(#SVGID_11_);" cx="101.8" cy="786.3" r="14.3"/>
<linearGradient id="SVGID_12_" gradientUnits="userSpaceOnUse" x1="-453.1148" y1="1197.1804" x2="-453.1148" y2="1123.6511" gradientTransform="matrix(-1 0 0 -1 -289.7148 1392)">
	<stop  offset="0" style="stop-color:#FFD8A1"/>
	<stop  offset="0.9958" style="stop-color:#FFFFFF"/>
</linearGradient>
<path style="fill:url(#SVGID_12_);" d="M78,253.8c0-37.2,32.9-76.3,74.9-51.9c41.8,24.3,26.9,62.4,95.9,72H78V253.8z"/>
<linearGradient id="SVGID_13_" gradientUnits="userSpaceOnUse" x1="-1225.2147" y1="944.8611" x2="-1225.2147" y2="872.098" gradientTransform="matrix(-1 0 0 -1 -289.7148 1392)">
	<stop  offset="0" style="stop-color:#FFD8A1"/>
	<stop  offset="0.9958" style="stop-color:#FFFFFF"/>
</linearGradient>
<path style="fill:url(#SVGID_13_);" d="M1029.1,460.4c0-12.6-15.4-18.5-23.9-9.2c-11.3,12.4-26.5,21.6-45.5,17
	c-71.9-17.6-58.6,55.4-117.8,57.2h187.2V460.4z"/>
<g>
	<path style="fill:#F9D5FF;" d="M754.4,194.5v-10c29.1,0,72.9-29.3,115.2-57.7c41.5-27.9,80.8-54.2,107.7-54.2v10
		c-23.9,0-63.6,26.7-102.1,52.5C831.6,164.3,786.6,194.5,754.4,194.5z"/>
</g>
</svg>
