<?xml version="1.0" encoding="UTF-8"?><svg version="1.1" xmlns="http://www.w3.org/2000/svg" xmlns:xlink="http://www.w3.org/1999/xlink" viewBox="0 0 1280 720" width="1280" height="720" x="0px" y="0px">
              
              <!-- ITEM 0 -->
<g transform="translate(471.0 497.0) rotate(0.0 -222.0 98.0) scale(-1.2503027196900152 1.2482963302635433)">
<g transform="translate(-0.0 -0.0)">
<g clip-path="url(#clipPathId-collage-item-0)">
		<defs>
			<clipPath id="clipPathId-collage-item-0">
				<rect x="0.0" y="0.0" width="355.114" height="157.014"/>
			</clipPath>
		</defs>
<defs><linearGradient id="linear-gradient-i0" x1="177.557" y1="-634.986" x2="177.557" y2="-773.786" gradientTransform="translate(0 792)" gradientUnits="userSpaceOnUse"><stop offset="0" stop-color="#addcc8"/><stop offset="0.401" stop-color="#dbecc2"/><stop offset="0.501" stop-color="#fed3b5"/><stop offset="0.595" stop-color="#f4a9a6"/><stop offset="1" stop-color="#f48b94"/></linearGradient></defs><title>object_23</title><g id="Layer_2-i0" data-name="Layer 2"><g id="Layer_1-2-i0" data-name="Layer 1"><path d="M0,157.014H355.114V56.632c0-44.047-48.192-71.216-85.8-48.341-16.656,10.142-32.424,24.43-43.676,44.639C173.819,146.206,73.584,71.882,0,157.014Z" fill="url(#linear-gradient-i0)"/></g></g>
</g>
</g>
</g>

<!-- ITEM 1 -->
<g transform="translate(957.0 551.0) rotate(0.0 150.0 66.5) scale(0.8447991349256859 0.8470582241074044)">
<g transform="translate(-0.0 -0.0)">
<g clip-path="url(#clipPathId-collage-item-1)">
		<defs>
			<clipPath id="clipPathId-collage-item-1">
				<rect x="0.0" y="0.0" width="355.114" height="157.014"/>
			</clipPath>
		</defs>
<defs><linearGradient id="linear-gradient-i1" x1="177.557" y1="-634.986" x2="177.557" y2="-773.786" gradientTransform="translate(0 792)" gradientUnits="userSpaceOnUse"><stop offset="0" stop-color="#addcc8"/><stop offset="0.401" stop-color="#dbecc2"/><stop offset="0.501" stop-color="#fed3b5"/><stop offset="0.595" stop-color="#f4a9a6"/><stop offset="1" stop-color="#f48b94"/></linearGradient></defs><title>object_23</title><g id="Layer_2-i1" data-name="Layer 2"><g id="Layer_1-2-i1" data-name="Layer 1"><path d="M0,157.014H355.114V56.632c0-44.047-48.192-71.216-85.8-48.341-16.656,10.142-32.424,24.43-43.676,44.639C173.819,146.206,73.584,71.882,0,157.014Z" fill="url(#linear-gradient-i1)"/></g></g>
</g>
</g>
</g>

<!-- ITEM 2 -->
<g transform="translate(820.0 155.0) rotate(0.0 53.0 34.5) scale(1.2619047619047619 1.2469954638280953)">
<g transform="translate(-607.727 -1286.339)">
<g clip-path="url(#clipPathId-collage-item-2)">
		<defs>
			<clipPath id="clipPathId-collage-item-2">
				<rect x="607.727" y="1286.339" width="84.0" height="55.333"/>
			</clipPath>
		</defs>

<path fill="#FFFFFF" d="M615.728,1340.672h68c3.866,0,7-3.134,7-7v-39.333c0-3.866-3.134-7-7-7h-68c-3.866,0-7,3.134-7,7v39.333  C608.728,1337.538,611.862,1340.672,615.728,1340.672z"/>
<path fill="#ABABC2" d="M654.278,1321.512l36.449-22.173c0-3.866-3.134-7-7-7h-68c-3.866,0-7,3.134-7,7l38.404,22.25  C649.348,1322.873,652.089,1322.844,654.278,1321.512z"/>
<g>
	<path fill="#FFFFFF" d="M654.278,1316.512l36.449-22.173c0-3.866-3.134-7-7-7h-68c-3.866,0-7,3.134-7,7l38.404,22.25   C649.348,1317.873,652.089,1317.844,654.278,1316.512z"/>
	<path fill="#F96379" d="M650.64,1318.532L650.64,1318.532c-1.406,0-2.793-0.373-4.01-1.078l-38.903-22.539v-0.576   c0-4.411,3.589-8,8-8h68c4.411,0,8,3.589,8,8v0.563l-36.93,22.465C653.545,1318.129,652.107,1318.532,650.64,1318.532z    M609.754,1293.778l37.879,21.946c1.865,1.079,4.283,1.055,6.126-0.066l35.944-21.865c-0.277-3.054-2.852-5.453-5.976-5.453h-68   C612.608,1288.339,610.037,1290.732,609.754,1293.778z"/>
</g>
<g>
	<path fill="#F96379" d="M683.727,1341.672h-68c-4.411,0-8-3.589-8-8v-39.333c0-4.411,3.589-8,8-8h68c4.411,0,8,3.589,8,8v39.333   C691.727,1338.083,688.138,1341.672,683.727,1341.672z M615.727,1288.339c-3.309,0-6,2.691-6,6v39.333c0,3.309,2.691,6,6,6h68   c3.309,0,6-2.691,6-6v-39.333c0-3.309-2.691-6-6-6H615.727z"/>
</g>

</g>
</g>
</g>

<!-- ITEM 3 -->
<g transform="translate(303.0 37.0) rotate(0.0 380.0 328.0) scale(1.1330245344536363 1.135889430860523)">
<g transform="translate(-0.0 -0.0)">
<g clip-path="url(#clipPathId-collage-item-3)">
		<defs>
			<clipPath id="clipPathId-collage-item-3">
				<rect x="0.0" y="0.0" width="670.771" height="577.521"/>
			</clipPath>
		</defs>
<defs><linearGradient id="linear-gradient-i3" x1="271.61" y1="-348.866" x2="271.61" y2="-668.19" gradientTransform="translate(0 792)" gradientUnits="userSpaceOnUse"><stop offset="0" stop-color="#ffe0c2"/><stop offset="0.401" stop-color="#7aaefc"/><stop offset="0.591" stop-color="#b8c1fc"/><stop offset="1" stop-color="#d2d4d4"/></linearGradient><linearGradient id="linear-gradient-2-i3" x1="381.072" y1="-550.642" x2="381.072" y2="-698.7" gradientTransform="translate(0 792)" gradientUnits="userSpaceOnUse"><stop offset="0" stop-color="#9774ac"/><stop offset="0.401" stop-color="#47a6d3"/><stop offset="0.501" stop-color="#a7a7ae"/><stop offset="0.591" stop-color="#e89ac0"/><stop offset="1" stop-color="#bfe7d1"/></linearGradient><linearGradient id="linear-gradient-3-i3" x1="303.792" y1="-543.979" x2="303.792" y2="-710.337" xlink:href="#linear-gradient-2-i3"/><linearGradient id="linear-gradient-4-i3" x1="342.407" y1="-332.244" x2="342.407" y2="-651.635" xlink:href="#linear-gradient-i3"/><linearGradient id="linear-gradient-5-i3" x1="361.58" y1="-550.642" x2="361.58" y2="-698.7" xlink:href="#linear-gradient-2-i3"/></defs><title>ьфт_bicycle</title><g id="Layer_2-i3" data-name="Layer 2"><g id="Layer_1-2-i3" data-name="Layer 1"><path d="M340.605,164.369l.444,2.147.37,2.146.74,4.294c.444,2.887.814,5.774,1.185,8.661s.666,5.774.962,8.662l.814,8.661c1.037,11.548,1.629,23.1,2.073,34.645s.518,23.171.518,34.72c-.148,11.548-.37,23.17-.888,34.793l-.592,14.139-3.628,5.849q-10.993,17.766-22.5,35.163l-5.775,8.735-5.848,8.662c-3.849,5.774-7.921,11.474-11.918,17.248-8.07,11.4-16.361,22.8-24.874,33.979-4.294,5.552-8.587,11.179-13.1,16.657l-6.737,8.217c-2.294,2.739-4.589,5.478-6.958,8.143l-49.377-24.874,74.769-148.352-4.294,20.283L259.4,168.292Z" fill="url(#linear-gradient-i3)"/><polygon points="260.802 199.532 263.541 257.2 347.637 280.075 346.601 220.408 260.802 199.532" fill="#2b2b2b"/><path d="M276.2,492.685l-81.061-35.312a8.592,8.592,0,0,1-4.516-11.03l4.22-10.364,51.005,22.8,34.646,26.5A4.31,4.31,0,0,1,276.2,492.685Z" fill="#2b2b2b"/><polygon points="225.194 474.474 202.542 464.628 205.503 457.817 224.01 465.886 291.376 409.699 296.113 415.325 225.194 474.474" fill="#f9d5ff"/><path d="M531.894,577.521c-76.545,0-138.877-62.332-138.877-138.877s62.332-138.877,138.877-138.877S670.771,362.1,670.771,438.644,608.439,577.521,531.894,577.521Zm0-270.352c-72.474,0-131.475,59-131.475,131.475s59,131.474,131.475,131.474,131.474-59,131.474-131.474S604.368,307.169,531.894,307.169Z" fill="#2b2b2b"/><path d="M138.877,577.521C62.332,577.521,0,515.189,0,438.644S62.332,299.767,138.877,299.767,277.754,362.1,277.754,438.644,215.423,577.521,138.877,577.521Zm0-270.352C66.4,307.169,7.4,366.17,7.4,438.644s59,131.474,131.474,131.474,131.475-59,131.475-131.474S211.351,307.169,138.877,307.169Z" fill="#2b2b2b"/><path d="M293.745,414.585a4.314,4.314,0,0,1-1.629-.371,3.7,3.7,0,0,1-2.073-2.813l-18.581-139.4a3.655,3.655,0,0,1,.888-2.961,3.6,3.6,0,0,1,2.813-1.259h184.7a3.743,3.743,0,0,1,3.406,2.221l13.769,31.98a3.762,3.762,0,0,1-1.481,4.664L295.669,414.066A3.577,3.577,0,0,1,293.745,414.585Zm-14.362-139.4,17.249,129.624L468.9,301.913l-11.549-26.8H279.383Z" fill="#f9d5ff"/><circle cx="531.894" cy="438.644" r="19.988" fill="#2b2b2b"/><path d="M531.894,462.333a23.689,23.689,0,1,1,23.689-23.689A23.759,23.759,0,0,1,531.894,462.333Zm0-39.975a16.286,16.286,0,1,0,16.286,16.286A16.333,16.333,0,0,0,531.894,422.358Z" fill="#2b2b2b"/><circle cx="138.877" cy="438.644" r="19.988" fill="#2b2b2b"/><path d="M138.877,462.333a23.689,23.689,0,1,1,23.689-23.689A23.759,23.759,0,0,1,138.877,462.333Zm0-39.975a16.286,16.286,0,1,0,16.286,16.286A16.334,16.334,0,0,0,138.877,422.358Z" fill="#2b2b2b"/><path d="M531.894,442.345a3.7,3.7,0,0,1-3.4-2.221L431.882,215.966l-5.479-12.14a30.651,30.651,0,1,1,56.188-24.5l7.921,18.656a3.713,3.713,0,0,1-6.811,2.961l-7.847-18.8a23.272,23.272,0,1,0-42.64,18.655l5.478,12.214L535.3,437.237a3.751,3.751,0,0,1-1.925,4.886A5.128,5.128,0,0,1,531.894,442.345Z" fill="#f9d5ff"/><path d="M138.877,442.345a3.744,3.744,0,0,1-2.887-6.07L272.276,269.119a3.828,3.828,0,0,1,3.85-1.259,3.751,3.751,0,0,1,2.665,3.11l18.581,139.395a3.655,3.655,0,0,1-3.035,4.146l-154.868,27.76A1.443,1.443,0,0,1,138.877,442.345Zm133.77-161.9-124.59,152.8L289.6,407.848Z" fill="#f9d5ff"/><circle cx="293.745" cy="412.512" r="35.386" fill="#fff"/><path d="M293.745,451.6a39.087,39.087,0,1,1,39.087-39.087A39.144,39.144,0,0,1,293.745,451.6Zm0-70.771a31.684,31.684,0,1,0,31.684,31.684A31.72,31.72,0,0,0,293.745,380.828Z" fill="#f9d5ff"/><rect x="253.601" y="248.5" width="43.234" height="7.403" transform="translate(21.589 526.104) rotate(-89.702)" fill="#f9d5ff"/><path d="M312.252,236.324h-.074l-74.251-.888a7.4,7.4,0,1,1,.148-14.806l74.251.889a7.4,7.4,0,0,1-.074,14.805Z" fill="#f9d5ff"/><path d="M436.545,155.485l15.62-4.293a20.627,20.627,0,0,1,14.658,38.346l-13.4,6.737" fill="#fdc068"/><path d="M453.35,196.275l-59.223,29.611a25.433,25.433,0,0,1-33.017-9.4l-1.406-2.369-46.712-76.324a28.478,28.478,0,0,1,48.563-29.759l46.786,76.323-34.5-11.77,62.7-17.1" fill="url(#linear-gradient-2-i3)"/><path d="M348.378,193.462c9.031-27.391-10.216-32.351,3.109-48.341s13.547-44.565-7.477-51.523c-16.212-5.33-17.1-6.367-23.985-8.662-21.617-7.106-52.931,6.885-53.6,29.686,0,0-13.4,24.651-19.617,43.454Z" fill="url(#linear-gradient-3-i3)"/><path d="M351.191,148.156a1.189,1.189,0,0,1-.815-.37,1.141,1.141,0,0,1,.074-1.554,23.642,23.642,0,0,0,7.773-16.435,1.111,1.111,0,0,1,2.221,0,25.581,25.581,0,0,1-8.513,18.063A.95.95,0,0,1,351.191,148.156Z" fill="#2b2b2b"/><path d="M246.885,158.076c-4.812,14.436,3.183,41.086,28.352,49.673l20.506,6.219c22.875,7.773,48.119-6.589,53.3-22.135Z" fill="#4c7de0"/><path d="M393.091,37.262l2.443,17.1A11.1,11.1,0,0,1,384.5,67.021H371.1Z" fill="#2b2b2b"/><path id="SVGID-i3" d="M357.705,81.383l-18.581-7.255a18.753,18.753,0,0,1-10.66-24.207L339.42,21.864A29.9,29.9,0,0,1,378.137,4.838h0a29.9,29.9,0,0,1,17.026,38.716L385.17,69.242A21.27,21.27,0,0,1,357.705,81.383Z" fill="#fdc068"/><path d="M393.239,48.588,390.8,54.807a3.3,3.3,0,0,1-1.555-2.887,3.445,3.445,0,0,1,3.406-3.406A1.629,1.629,0,0,1,393.239,48.588Z" fill="#2b2b2b"/><path d="M339.42,109.144l17.619-5.479s-8.365-12.14-17.619-11.622Z"/><path d="M330.685,107.441,310.253,89.378l23.171-52.042,29.685,11.548-18.137,54.707A8.883,8.883,0,0,1,330.685,107.441Z" fill="#fdc068"/><path d="M381.616,58.508a1.024,1.024,0,0,1-.962-.814.993.993,0,0,1,.814-1.111l3.109-.518a1.488,1.488,0,0,0,.815-.666,1.251,1.251,0,0,0,.074-1.036l-2.147-6.219a.984.984,0,0,1,1.851-.666l2.146,6.218a3.307,3.307,0,0,1-.148,2.517,3.736,3.736,0,0,1-2,1.7h-.148l-3.184.518C381.69,58.508,381.69,58.508,381.616,58.508Z" fill="#2b2b2b"/><polygon points="352.893 79.458 340.827 74.794 348.896 91.673 352.893 79.458" fill="#2b2b2b"/><circle cx="374.51" cy="44.961" r="3.405" fill="#2b2b2b"/><path d="M251.03,147.046l40.124.518s14.509,4.516,17.4,5.256c0,0,98.31,32.8,109.266,37.311l6.589,2.739a36.388,36.388,0,0,1,20.135,46.193c-4.811,13.029-9.771,26.058-14.953,38.939l-7.921,19.4c-2.665,6.44-19.692,44.861-25.836,57.52-3.11,6.366-6.219,12.659-9.476,18.951l-4.96,9.4c-1.7,3.109-3.405,6.218-5.182,9.327l-53.374-14.509,43.6-160.272,27.1,49.525-125.7-39.457a42.6,42.6,0,0,1-26.651-56.706Z" fill="url(#linear-gradient-4-i3)"/><path d="M375.472,226.182l68.4-13.991a36.682,36.682,0,0,0-12.066-15.176Z" fill="#2b2b2b"/><path d="M416.039,411.105l-87.353-13.4a8.468,8.468,0,0,1-7.181-9.475l1.407-11.105,55.151,9.032,40.271,16.73C423.072,404.887,421.073,411.92,416.039,411.105Z" fill="#2b2b2b"/><path d="M282.492,123.579h0a30.215,30.215,0,0,0,.889,36.644l54.188,67.07a17.471,17.471,0,0,0,17.767,5.922l27.983-10.364-85.207-82.467Z" fill="#2b2b2b"/><path d="M440.247,151.414l17.841-4.664a20.573,20.573,0,0,1,13.177,38.865l-13.474,5.7" fill="#fdc068"/><path d="M457.865,191.315l-87.871,37.162a25.881,25.881,0,0,1-30.5-8l-1.184-1.554-67.07-86.91A28.5,28.5,0,0,1,316.4,97.225l67.07,86.909-31.758-9.549,88.612-23.1" fill="url(#linear-gradient-5-i3)"/><path d="M396.57,38.52l.666-10.66A22.453,22.453,0,0,0,382.283,5.208L371.1,1.284a22.28,22.28,0,0,0-21.838,4h0a22.814,22.814,0,0,0-6.144,8.143l-2.3,5.33Z" fill="#f9d5ff"/><path d="M339.42,21.864,395.9,41.63l9.4-3.258a9.229,9.229,0,0,0,.667-17.174h0a9.2,9.2,0,0,0-7.4,0L380.58,29.045l-38.5-13.029Z" fill="#4c7de0"/><path d="M363.849,30.377,343.418,48.366a12.139,12.139,0,0,1-11.253,2.591h0a12.129,12.129,0,0,1-3.627-21.69L339.42,21.79Z" fill="#2b2b2b"/><path d="M388.131,61.617l-7.847-3.109a17.1,17.1,0,0,0-13.621.518l-6.589,3.184L350.3,38.52,338.9,50.883l1.851,23.837L359.63,81.9a19,19,0,0,0,24.281-10.438Z" fill="#2b2b2b"/><path d="M381.616,66.577s-7.032,8.143-10.364-3.405" fill="#fff"/><path d="M356.151,256.682a.448.448,0,0,1-.3-.074,1.1,1.1,0,0,1-.814-1.332l3.183-11.771a1.1,1.1,0,0,1,2.147.518l-3.183,11.771A.978.978,0,0,1,356.151,256.682Z" fill="#2b2b2b"/><path d="M380.21,181.1a1.158,1.158,0,0,1-.889-.444L332.98,120.618a1.11,1.11,0,1,1,1.776-1.333L381.1,179.322a1.082,1.082,0,0,1-.222,1.555A1.194,1.194,0,0,1,380.21,181.1Z" fill="#2b2b2b"/><path d="M263.689,325.677a1.139,1.139,0,0,1-1.11-1.111V299.545a1.111,1.111,0,1,1,2.221,0v25.021A1.14,1.14,0,0,1,263.689,325.677Z" fill="#2b2b2b"/><polygon points="294.929 415.991 292.56 409.032 333.572 394.671 371.771 401.852 370.438 409.106 334.164 402.37 294.929 415.991" fill="#f9d5ff"/><path d="M333.868,337.965a.445.445,0,0,1-.3-.074,1.008,1.008,0,0,1-.74-1.332l12.51-45.232a1.078,1.078,0,1,1,2.073.593L334.9,337.151A.977.977,0,0,1,333.868,337.965Z" fill="#2b2b2b"/><rect x="458.368" y="265.146" width="14.807" height="39.979" transform="translate(-74.717 206.921) rotate(-23.24)" fill="#f9d5ff"/></g></g>
</g>
</g>
</g>

<!-- ITEM 4 -->
<g transform="translate(611.0 98.0) rotate(39.60199398835682 -56.0 92.0) scale(-2.387448840381992 2.3985191751179706)">
<g transform="translate(-0.0 -0.0)">
<g clip-path="url(#clipPathId-collage-item-4)">
		<defs>
			<clipPath id="clipPathId-collage-item-4">
				<rect x="0.0" y="0.0" width="46.912" height="76.714"/>
			</clipPath>
		</defs>
<title>smartphone_1</title><g id="Layer_2-i4" data-name="Layer 2"><g id="Layer_1-2-i4" data-name="Layer 1"><path d="M22.456,76.5,4.542,71.537A6.124,6.124,0,0,1,.248,63.912L16.83,4.542A6.125,6.125,0,0,1,24.455.248L42.37,5.208a6.125,6.125,0,0,1,4.294,7.625L30.081,72.2A6.206,6.206,0,0,1,22.456,76.5Z" fill="#de6381"/><ellipse cx="30.744" cy="26.581" rx="7.625" ry="5.626" transform="translate(-3.083 49.108) rotate(-74.509)" fill="#c74d7d"/></g></g>
</g>
</g>
</g>

<!-- ITEM 5 -->
<g transform="translate(19.0 22.0) rotate(0.0 192.5 74.5) scale(2.4053630223854956 2.3876291963784952)">
<g transform="translate(-0.0 -0.0)">
<g clip-path="url(#clipPathId-collage-item-5)">
		<defs>
			<clipPath id="clipPathId-collage-item-5">
				<rect x="0.0" y="0.0" width="160.059" height="62.405"/>
			</clipPath>
		</defs>
<defs><linearGradient id="linear-gradient-i5" x1="6010.49" y1="1322.02" x2="6010.49" y2="1264.345" gradientTransform="matrix(1, 0, 0, -1, -5930.46, 1322.378)" gradientUnits="userSpaceOnUse"><stop offset="0" stop-color="#c0ddfc"/><stop offset="0.996" stop-color="#fff"/></linearGradient></defs><title>cloud_4</title><g id="Layer_2-i5" data-name="Layer 2"><g id="Layer_1-2-i5" data-name="Layer 1"><path d="M0,25.4C0,2.2,28.781-8.888,44.126,8.513c7.71,8.737,16.153,15.125,29.442,11.894,52.79-12.922,43.025,40.676,86.491,42H30.1A30.1,30.1,0,0,1,0,32.3Z" fill="url(#linear-gradient-i5)"/></g></g>
</g>
</g>
</g>

<!-- ITEM 6 -->
<g transform="translate(993.0 39.0) rotate(0.0 123.0 57.5) scale(1.58566456104164 1.5902208332757168)">
<g transform="translate(-0.0 -0.0)">
<g clip-path="url(#clipPathId-collage-item-6)">
		<defs>
			<clipPath id="clipPathId-collage-item-6">
				<rect x="0.0" y="0.0" width="155.14" height="72.317"/>
			</clipPath>
		</defs>
<defs><linearGradient id="linear-gradient-i6" x1="3501.941" y1="1680.677" x2="3501.941" y2="1613.886" gradientTransform="translate(3579.511 1681.116) rotate(180)" gradientUnits="userSpaceOnUse"><stop offset="0" stop-color="#c0ddfc"/><stop offset="0.996" stop-color="#fff"/></linearGradient></defs><title>cloud_5</title><g id="Layer_2-i6" data-name="Layer 2"><g id="Layer_1-2-i6" data-name="Layer 1"><path d="M0,54.035C0,20.188,29.883-15.275,67.988,6.9c37.959,22.027,24.45,56.682,87.152,65.419H0Z" fill="url(#linear-gradient-i6)"/></g></g>
</g>
</g>
</g>

              </svg>