<?xml version="1.0" encoding="UTF-8"?><svg id="Layer_1" data-name="Layer 1" xmlns="http://www.w3.org/2000/svg" viewBox="0 0 1920 1080" x="0px" y="0px" width="1920px" height="1080px" version="1.1" xmlns:xlink="http://www.w3.org/1999/xlink"><path d="M450.66,905.935a101.81,101.81,0,0,1-203.62,0" fill="#82b1ff"/><path d="M1280.11,905.935a101.81,101.81,0,1,1-203.62,0" fill="#82b1ff"/><path d="M132.85,262.965H549.33c-89.38,0-122.79-83.78-169.89-84.35s-65.56,60.2-115.15,46.46C192.74,205.245,164.06,255.755,132.85,262.965Z" fill="#82b1ff"/><path d="M1747.42,1011.245H176.66a3,3,0,1,1,0-6H1747.42a3,3,0,0,1,0,6Z" fill="#222433"/><line x1="450.66" y1="993.285" x2="457.49" y2="1007.745" fill="#82b1ff"/><path d="M474.018,1010.746a3,3,0,0,1-2.711-4.282l6.83-14.46a3,3,0,0,1,5.426,2.563l-6.83,14.46A3,3,0,0,1,474.018,1010.746Z" fill="#222433"/><path d="M465.76,1010.745a3,3,0,0,1-3-3v-17.67a3,3,0,0,1,6,0v17.67A3,3,0,0,1,465.76,1010.745Z" fill="#222433"/><path d="M968.322,1010.746a3,3,0,0,1-2.715-1.719l-6.83-14.46A3,3,0,0,1,964.2,992l6.83,14.46a3,3,0,0,1-2.711,4.282Z" fill="#222433"/><path d="M984.848,1010.746a3,3,0,0,1-2.711-4.282l6.83-14.46a3,3,0,0,1,5.426,2.563l-6.83,14.46A3,3,0,0,1,984.848,1010.746Z" fill="#222433"/><path d="M976.59,1010.745a3,3,0,0,1-3-3v-17.67a3,3,0,0,1,6,0v17.67A3,3,0,0,1,976.59,1010.745Z" fill="#222433"/><path d="M428.937,708.935a3.005,3.005,0,0,1-2.959-3.519,49.054,49.054,0,0,1,58.134-39.485,3,3,0,1,1-1.2,5.878,43.055,43.055,0,0,0-51.021,34.644A3,3,0,0,1,428.937,708.935Z" fill="#222433"/><path d="M1557.683,158.256a3,3,0,0,1-2.529-1.383l-5.75-8.98a3,3,0,1,1,5.052-3.236l5.75,8.98a3,3,0,0,1-2.523,4.619Z" fill="#222433"/><path d="M1547.8,152.706a3,3,0,0,1-1.621-5.527l8.98-5.75a3,3,0,0,1,3.236,5.053l-8.98,5.75A2.992,2.992,0,0,1,1547.8,152.706Z" fill="#222433"/><path d="M1581.963,142.336a3,3,0,0,1-2.528-1.381l-5.76-8.98a3,3,0,1,1,5.05-3.239l5.76,8.98a3,3,0,0,1-2.522,4.62Z" fill="#222433"/><path d="M1572.073,136.8a3,3,0,0,1-1.623-5.526l8.98-5.76a3,3,0,0,1,3.24,5.05l-8.98,5.76A2.987,2.987,0,0,1,1572.073,136.8Z" fill="#222433"/><path d="M1598.993,221.065a3,3,0,0,1-2.519-1.366l-5.81-8.95a3,3,0,1,1,5.032-3.267l5.81,8.95a3,3,0,0,1-2.513,4.633Z" fill="#222433"/><path d="M1594.153,223.405a3,3,0,0,1-1.635-5.517l8.95-5.8a3,3,0,0,1,3.264,5.035l-8.95,5.8A2.994,2.994,0,0,1,1594.153,223.405Z" fill="#222433"/><path d="M1623.513,205.535a3,3,0,0,1-2.521-1.368l-5.8-8.95a3,3,0,0,1,5.036-3.263l5.8,8.95a3,3,0,0,1-2.515,4.631Z" fill="#222433"/><path d="M1618.673,207.875a3,3,0,0,1-1.635-5.517l8.95-5.8a3,3,0,1,1,3.264,5.035l-8.95,5.8A2.994,2.994,0,0,1,1618.673,207.875Z" fill="#222433"/><path d="M1000.121,160.776a3,3,0,0,1-2.681-1.648,61.188,61.188,0,0,1-6.515-28.966,3,3,0,0,1,6,.145,55.151,55.151,0,0,0,5.873,26.115,3,3,0,0,1-2.675,4.354Z" fill="#222433"/><path d="M1129.443,188.075a3,3,0,0,1-2.517-1.362,60.335,60.335,0,0,0-8.715-10.537,3,3,0,0,1,4.161-4.324,66.508,66.508,0,0,1,9.582,11.585,3,3,0,0,1-2.511,4.638Z" fill="#222433"/><path d="M1109.829,128a3,3,0,0,1-2.977-2.659,55.261,55.261,0,0,0-2.072-9.918,3,3,0,0,1,5.736-1.762,61.218,61.218,0,0,1,2.3,11,3,3,0,0,1-2.639,3.322A3.094,3.094,0,0,1,1109.829,128Z" fill="#222433"/><path d="M990.59,218.025a31.39,31.39,0,1,1,24.067-51.543,3,3,0,0,1-4.6,3.854,25.39,25.39,0,1,0,.526,31.949,3,3,0,1,1,4.722,3.7A31.222,31.222,0,0,1,990.59,218.025Z" fill="#222433"/><path d="M996.692,201.545a3,3,0,0,1-1.926-5.3l13.64-11.395-24.48-4.513a3,3,0,0,1,1.088-5.9l30.76,5.67a3,3,0,0,1,1.38,5.252l-18.54,15.49A2.99,2.99,0,0,1,996.692,201.545Z" fill="#222433"/><path d="M1052.811,449.712a3,3,0,0,1-2.651-1.592,56.51,56.51,0,0,0-14.293-17.378,3,3,0,1,1,3.787-4.654,62.487,62.487,0,0,1,15.8,19.214,3,3,0,0,1-2.646,4.41Z" fill="#222433"/><path d="M975.09,465.9h-62.5a3,3,0,0,1,0-6h62.5a3,3,0,1,1,0,6Z" fill="#222433"/><path d="M1570.8,349.911a3,3,0,0,1-2.394-4.805,55.5,55.5,0,0,0-10.006-76.979c-.929-.732-1.892-1.442-2.864-2.112a3,3,0,0,1,3.408-4.939c1.075.742,2.141,1.528,3.168,2.338a61.5,61.5,0,0,1,11.087,85.3A3,3,0,0,1,1570.8,349.911Z" fill="#222433"/><path d="M909.093,374.366a3,3,0,0,1-1.361-5.676l54.529-27.674a79.467,79.467,0,0,1,40.979-11.261h24.07a3,3,0,0,1,0,6h-24.07a73.47,73.47,0,0,0-37.975,10.456c-.063.037-.127.073-.192.106l-54.625,27.724A2.985,2.985,0,0,1,909.093,374.366Z" fill="#222433"/><path d="M1207.347,356.373a2.986,2.986,0,0,1-.948-.154l-48.667-16.2c-.056-.019-.112-.039-.167-.061a73.472,73.472,0,0,0-24.566-4.2h-24.2a3,3,0,0,1,0-6H1133a79.491,79.491,0,0,1,26.686,4.587l.055.02,48.553,16.164a3,3,0,0,1-.947,5.847Z" fill="#222433"/><path d="M1396.019,268.624a3,3,0,0,1-1.633-5.518l42.83-27.719a3,3,0,0,1,3.26,5.037l-42.83,27.719A2.986,2.986,0,0,1,1396.019,268.624Z" fill="#222433"/><path d="M1439.291,308.277a3,3,0,0,1-1.633-5.519l37.787-24.454a3,3,0,1,1,3.259,5.037L1440.918,307.8A2.986,2.986,0,0,1,1439.291,308.277Z" fill="#222433"/><path d="M1548.213,237.785a3,3,0,0,1-1.633-5.518l11.1-7.187a3,3,0,1,1,3.26,5.037l-11.1,7.187A2.986,2.986,0,0,1,1548.213,237.785Z" fill="#222433"/><path d="M1519.938,188.427a3,3,0,0,1-1.633-5.519l8.517-5.512a3,3,0,0,1,3.26,5.038l-8.517,5.512A3,3,0,0,1,1519.938,188.427Z" fill="#222433"/><path d="M1458.477,228.2a3,3,0,0,1-1.632-5.519l11.894-7.7a3,3,0,1,1,3.259,5.037l-11.894,7.7A2.983,2.983,0,0,1,1458.477,228.2Z" fill="#222433"/><path d="M1559.367,230.686a3,3,0,0,1-.588-5.942l18.941-3.808,63.9-41.347-36.3-54.418-63.127,40.853-11.238,15.725a3,3,0,0,1-4.882-3.488l11.57-16.19a3,3,0,0,1,.811-.774l66.09-42.77a3,3,0,0,1,4.126.853l39.63,59.41a3,3,0,0,1-.866,4.184l-66.93,43.31a3.012,3.012,0,0,1-1.039.422l-19.5,3.92A3.015,3.015,0,0,1,1559.367,230.686Zm19.341-23.883a10.328,10.328,0,0,1-5.569-19.039l34.826-22.257a10.344,10.344,0,0,1,14.263,3.142,10.313,10.313,0,0,1-2.971,14.156c-.056.041-.113.081-.172.118l-34.83,22.25A10.235,10.235,0,0,1,1578.708,206.8Zm34.806-36.918a4.3,4.3,0,0,0-2.32.679l-34.828,22.259a4.3,4.3,0,0,0-2.006,3.651,4.213,4.213,0,0,0,.678,2.31,4.325,4.325,0,0,0,5.981,1.337l34.677-22.152c.05-.037.1-.072.156-.106a4.314,4.314,0,0,0,2.008-3.621,4.221,4.221,0,0,0-.679-2.347A4.345,4.345,0,0,0,1613.514,169.885Zm-50.153,13.475a10.346,10.346,0,0,1-8.727-4.766c-.049-.077-.1-.157-.137-.238a10.372,10.372,0,0,1,3.282-14.035l34.836-22.264a10.335,10.335,0,0,1,11.131,17.416l-34.83,22.26A10.288,10.288,0,0,1,1563.361,183.36Zm-3.585-7.871a4.356,4.356,0,0,0,5.908,1.189l34.83-22.261a4.334,4.334,0,1,0-4.668-7.3l-34.831,22.26a4.358,4.358,0,0,0-1.314,5.992C1559.727,175.406,1559.752,175.447,1559.776,175.489Z" fill="#222433"/><path d="M1526.346,198.161a3,3,0,0,1-1.632-5.519l21.876-14.156a3,3,0,0,1,3.26,5.038l-21.877,14.156A2.99,2.99,0,0,1,1526.346,198.161Z" fill="#222433"/><path d="M1407.521,275.05a3,3,0,0,1-1.633-5.52l39.534-25.581a3,3,0,0,1,3.26,5.038l-39.534,25.581A2.988,2.988,0,0,1,1407.521,275.05Z" fill="#222433"/><path d="M1532.133,207.794a3,3,0,0,1-1.632-5.519l22.189-14.359a3,3,0,0,1,3.26,5.038l-22.19,14.358A2.985,2.985,0,0,1,1532.133,207.794Z" fill="#222433"/><path d="M1417.171,282.184a3,3,0,0,1-1.633-5.519l39.17-25.346a3,3,0,0,1,3.26,5.038L1418.8,281.7A2.986,2.986,0,0,1,1417.171,282.184Z" fill="#222433"/><path d="M1537.653,217.605a3,3,0,0,1-1.632-5.519l22.779-14.74a3,3,0,0,1,3.26,5.038l-22.78,14.74A2.984,2.984,0,0,1,1537.653,217.605Z" fill="#222433"/><path d="M1425.607,290.107a3,3,0,0,1-1.633-5.519l39.836-25.776a3,3,0,0,1,3.259,5.038l-39.835,25.776A2.984,2.984,0,0,1,1425.607,290.107Z" fill="#222433"/><path d="M1542.683,227.728a3,3,0,0,1-1.633-5.518l23.85-15.433a3,3,0,1,1,3.26,5.037l-23.85,15.433A2.986,2.986,0,0,1,1542.683,227.728Z" fill="#222433"/><path d="M1432.928,298.75a3,3,0,0,1-1.633-5.518l39.612-25.633a3,3,0,1,1,3.26,5.037l-39.612,25.633A2.986,2.986,0,0,1,1432.928,298.75Z" fill="#222433"/><path d="M978.745,533.9a3,3,0,0,1-2.88-2.166c-.232-.8-.444-1.622-.63-2.44-1.633-7.151-2.884-18,.429-29.064,3.468-11.585,11.047-20.558,22.526-26.67,22.953-12.233,29.453-16.116,29.515-16.154,19.706-12.5,67.287-28.734,94.638-29.791a3,3,0,0,1,.232,6c-26.019,1.006-72.962,17-91.718,28.9-.321.194-6.684,4-29.846,16.345-25.057,13.342-22.282,38.785-19.926,49.1.161.707.344,1.414.543,2.105a3,3,0,0,1-2.883,3.835Z" fill="#222433"/><path d="M1117.781,167.545a3,3,0,0,1-.733-5.909,17.082,17.082,0,1,0-21.278-16.561,3,3,0,1,1-6,0,23.08,23.08,0,1,1,28.748,22.378A2.976,2.976,0,0,1,1117.781,167.545Z" fill="#222433"/><path d="M1104.741,190.625a3,3,0,0,1-2.05-5.191l16.826-15.733-31.865-24.858a3,3,0,0,1,3.69-4.731l34.633,27.018a3,3,0,0,1,.2,4.557l-19.39,18.13A2.991,2.991,0,0,1,1104.741,190.625Z" fill="#222433"/><path d="M1059.81,177.015a23.08,23.08,0,1,1,23.08-23.08A23.106,23.106,0,0,1,1059.81,177.015Zm0-40.16a17.08,17.08,0,1,0,17.08,17.08A17.1,17.1,0,0,0,1059.81,136.855Z" fill="#222433"/><path d="M1076.586,145.925a3,3,0,0,1-.253-5.989l16.51-1.42a3,3,0,1,1,.514,5.978l-16.51,1.42C1076.76,145.922,1076.673,145.925,1076.586,145.925Z" fill="#222433"/><path d="M993.706,161.415a3,3,0,0,1-.359-5.978l46.02-5.61a3,3,0,1,1,.726,5.956l-46.02,5.61A3.036,3.036,0,0,1,993.706,161.415Z" fill="#222433"/><path d="M1105.055,232.022a20.637,20.637,0,0,1-12.344-4.152c-5.331-3.951-9.235-10.306-11.6-18.887a3,3,0,0,1,2.671-3.79l40.66-3a3,3,0,0,1,3.2,2.659c1.248,11.161-5.4,24.236-18.7,26.8A20.55,20.55,0,0,1,1105.055,232.022ZM1088.029,210.9c3.353,8.951,9.955,16.753,19.781,14.861,7.051-1.359,13.728-8.066,13.991-17.353Z" fill="#222433"/><path d="M1073.143,366.878c-20.467,0-42.588-11.421-48.722-33.314a2.928,2.928,0,0,1-.082-.4L1011.613,241.7a66.671,66.671,0,0,1-2.725-31.293,67.973,67.973,0,0,1,1.386-6.832,3,3,0,0,1,5.811,1.5,61.728,61.728,0,0,0-1.263,6.223,60.73,60.73,0,0,0,2.575,28.78,2.95,2.95,0,0,1,.15.739l12.706,91.328c6.1,21.318,29.965,31.113,49.592,28.266,16.413-2.383,26.105-12.631,25.958-27.429l-6.731-50.315a3,3,0,0,1,1.961-3.222c26.993-9.683,43.242-40.32,36.992-69.749-1.182-5.6-4.576-12.8-10.093-21.432l-21.813,2.48a84.207,84.207,0,0,0-51.62,25.751l-6.8,7.19a3,3,0,0,1-4.981-.988l-18.5-48.24a3.029,3.029,0,0,1-.16-.592l-7.633-46.928a3,3,0,1,1,5.922-.963l7.584,46.623,16.683,43.5,3.525-3.728a90.218,90.218,0,0,1,55.3-27.59l23.658-2.69a3,3,0,0,1,2.848,1.337c6.52,9.948,10.539,18.367,11.946,25.024a68.845,68.845,0,0,1-6.409,46.159,63.373,63.373,0,0,1-32.152,29.612l6.44,48.141a3.205,3.205,0,0,1,.026.353c.271,17.921-11.643,30.807-31.093,33.631A52.841,52.841,0,0,1,1073.143,366.878Z" fill="#222433"/><path d="M1054.747,160.635a3,3,0,0,1-2.988-2.773,9.623,9.623,0,1,1,19.192-1.453,3,3,0,1,1-5.982.453,3.624,3.624,0,1,0-7.227.547,3,3,0,0,1-2.766,3.218C1054.9,160.633,1054.823,160.635,1054.747,160.635Z" fill="#222433"/><path d="M1105.767,153.525a3,3,0,0,1-2.988-2.773,9.623,9.623,0,1,1,19.192-1.453,3,3,0,1,1-5.982.453,3.624,3.624,0,1,0-7.227.547,3,3,0,0,1-2.765,3.218C1105.919,153.522,1105.843,153.525,1105.767,153.525Z" fill="#222433"/><path d="M993.706,133.714a3,3,0,0,1-2.962-2.549l-1.28-8.4a61.19,61.19,0,1,1,121.12-17.516c.043.3.314,3.331.808,9.027a3,3,0,1,1-5.978.518c-.271-3.134-.722-8.279-.775-8.74a55.191,55.191,0,0,0-109.24,15.83l1.277,8.376a3,3,0,0,1-2.514,3.417A2.937,2.937,0,0,1,993.706,133.714Z" fill="#222433"/><path d="M949.686,138.825a3,3,0,0,1-.4-5.973l200.81-27.03a3,3,0,0,1,.8,5.946L950.09,138.8A2.917,2.917,0,0,1,949.686,138.825Z" fill="#222433"/><path d="M1708.828,579.756a2.984,2.984,0,0,1-1.286-.292l-14.156-6.73a3,3,0,1,1,2.576-5.419l11.449,5.443,22.174-46.551-38.912-17.948a3,3,0,0,1-.474-5.174l76.02-53.728,64.1-134.388a52.376,52.376,0,0,0-64.515,13.153,3.063,3.063,0,0,1-.247.263c-.21.2-21.307,20.1-48,41.539-24.181,19.419-50.337,25.624-75.64,17.942a3,3,0,1,1,1.743-5.741c23.321,7.08,47.575,1.243,70.141-16.879,25.417-20.411,45.712-39.411,47.509-41.1a58.367,58.367,0,0,1,74.451-13.032,3,3,0,0,1,1.2,3.883l-65.66,137.65a2.994,2.994,0,0,1-.977,1.158L1697.9,504.987l36.953,17.044a3,3,0,0,1,1.451,4.014l-24.77,52A3,3,0,0,1,1708.828,579.756Z" fill="#222433"/><path d="M1519.722,345.838a48.812,48.812,0,0,1-23.745-6.107c-14.075-7.869-21.678-21.316-20.867-36.9.005-.457.042-.9.083-1.341l.019-.208c1.386-16.173-.828-29.432-16.143-41.541-1.444-1.143-2.995-2.326-4.59-3.544-9.6-7.333-20.487-15.644-21.466-24.692a12.337,12.337,0,0,1,3.149-9.557c6.684-7.865,22.974-.553,40.035,8.439-19.549-26.486-31.975-46.976-21.975-55.511a10.949,10.949,0,0,1,8.653-2.59c6.716.757,14.866,6.637,26.171,19.3-10.412-18.641-16.208-30.071-6.671-36.435,2.1-1.4,5.686-2.67,10.81-.744,21.63,8.128,55.676,69.589,62.581,95.167h0s2.178,7.223,10.843,31.784c4.337,12.256,3.866,23.991-1.4,34.877-5.03,10.4-13.279,17.551-19.314,21.72A46.091,46.091,0,0,1,1519.722,345.838Zm-75.2-121.327a4.752,4.752,0,0,0-3.783,1.317,6.4,6.4,0,0,0-1.758,5.029c.7,6.487,10.927,14.294,19.143,20.568,1.623,1.24,3.2,2.445,4.671,3.608,18.441,14.581,19.741,31.1,18.4,46.768l-.022.239c-.026.287-.057.576-.057.875,0,.054,0,.108,0,.161-.712,13.245,5.775,24.7,17.8,31.418,13.707,7.662,31.22,7.069,43.579-1.476h0c8.708-6.015,27.939-22.895,18.467-49.661-8.745-24.787-10.87-31.854-10.957-32.143-3.465-12.831-13.544-33.983-25.1-52.711-12.967-21.01-25.609-35.4-33.817-38.48-3.322-1.248-4.864-.219-5.371.119-5.164,3.446-.628,12.078,10.122,31.274,4.282,7.645,9.135,16.31,14.373,26.7a3,3,0,0,1-5.085,3.142c-13.322-17.89-32.263-41.812-42.911-43.011a5.034,5.034,0,0,0-4.086,1.191c-1.762,1.5-3.384,6.342,5.563,21.842,6.652,11.527,17.054,25.272,25.412,36.316a3,3,0,0,1-3.8,4.458c-1.466-.781-2.972-1.591-4.5-2.416C1469.786,233.723,1452.658,224.511,1444.519,224.511Z" fill="#222433"/><path d="M1451.42,337.944,1645,353.205,1630.99,530.9h-161.7" fill="#5a38fd"/><path d="M909.09,533.9a3,3,0,0,1-3-3V290.135H798.26a3,3,0,0,1,0-6H909.09a3,3,0,0,1,3,3V530.9A3,3,0,0,1,909.09,533.9Z" fill="#222433"/><path d="M831.88,708.935H702.352a3,3,0,1,1,0-6H828.88v-412.8H592.134L478.18,702.935H611.16a3,3,0,0,1,0,6H474.24a3,3,0,0,1-2.892-3.8l115.61-418.8a3,3,0,0,1,2.892-2.2H831.88a3,3,0,0,1,3,3v418.8A3,3,0,0,1,831.88,708.935Z" fill="#222433"/><path d="M473.79,908.935H341.09a3,3,0,1,1,0-6h132.7a3,3,0,0,1,0,6Z" fill="#222433"/><path d="M1303.25,908.935H677.41a3,3,0,1,1,0-6h625.84a3,3,0,0,1,0,6Z" fill="#222433"/><path d="M1648.29,908.935H1506.87a3,3,0,0,1,0-6h141.42a47.765,47.765,0,0,0,47.71-47.71v-98.58a3,3,0,0,1,6,0v98.58A53.771,53.771,0,0,1,1648.29,908.935Z" fill="#222433"/><path d="M475.35,708.935H341.09a3,3,0,1,1,0-6H475.35a3,3,0,0,1,0,6Z" fill="#222433"/><path d="M358.71,908.935H215.54a63.472,63.472,0,0,1-63.4-63.4v-79.2a63.472,63.472,0,0,1,63.4-63.4H358.71a63.472,63.472,0,0,1,63.4,63.4v79.2A63.472,63.472,0,0,1,358.71,908.935Zm-143.17-200a57.465,57.465,0,0,0-57.4,57.4v79.2a57.464,57.464,0,0,0,57.4,57.4H358.71a57.465,57.465,0,0,0,57.4-57.4v-79.2a57.466,57.466,0,0,0-57.4-57.4Z" fill="#222433"/><path d="M575.6,1010.745a104.81,104.81,0,1,1,104.81-104.81A104.929,104.929,0,0,1,575.6,1010.745Zm0-203.62a98.81,98.81,0,1,0,98.81,98.81A98.922,98.922,0,0,0,575.6,807.125Z" fill="#222433"/><path d="M575.6,950.335a44.4,44.4,0,1,1,44.4-44.4A44.45,44.45,0,0,1,575.6,950.335Zm0-82.8a38.4,38.4,0,1,0,38.4,38.4A38.443,38.443,0,0,0,575.6,867.535Z" fill="#222433"/><path d="M1405.06,1010.745a104.81,104.81,0,1,1,104.81-104.81A104.929,104.929,0,0,1,1405.06,1010.745Zm0-203.62a98.81,98.81,0,1,0,98.81,98.81A98.922,98.922,0,0,0,1405.06,807.125Z" fill="#222433"/><path d="M1405.06,950.335a44.4,44.4,0,1,1,44.4-44.4A44.45,44.45,0,0,1,1405.06,950.335Zm0-82.8a38.4,38.4,0,1,0,38.4,38.4A38.443,38.443,0,0,0,1405.06,867.535Z" fill="#222433"/><path d="M362.09,846.9a39,39,0,1,1,39-39A39.044,39.044,0,0,1,362.09,846.9Zm0-72a33,33,0,1,0,33,33A33.038,33.038,0,0,0,362.09,774.9Z" fill="#222433"/><path d="M196.09,846.9a39,39,0,1,1,39-39A39.044,39.044,0,0,1,196.09,846.9Zm0-72a33,33,0,1,0,33,33A33.038,33.038,0,0,0,196.09,774.9Z" fill="#222433"/><path d="M588.9,708.936a3,3,0,0,1-2.894-3.8l115.61-418.8a3,3,0,1,1,5.784,1.6l-115.61,418.8A3,3,0,0,1,588.9,708.936Z" fill="#222433"/><path d="M494.242,708.936a3,3,0,0,1-2.894-3.8l115.61-418.8a3,3,0,1,1,5.784,1.6l-115.61,418.8A3,3,0,0,1,494.242,708.936Z" fill="#222433"/><path d="M611.162,708.936a3,3,0,0,1-2.9-3.772l111.38-418.8a3,3,0,0,1,5.8,1.542l-111.38,418.8A3,3,0,0,1,611.162,708.936Z" fill="#222433"/><path d="M1618.67,594.835H1469.627a3,3,0,0,1,0-6H1618.67a3,3,0,0,1,0,6Z" fill="#222433"/><path d="M1279.861,594.835H910.48a3,3,0,0,1,0-6h369.381a3,3,0,0,1,0,6Z" fill="#222433"/><path d="M1618.67,618.835H1472.087a3,3,0,0,1,0-6H1618.67a3,3,0,0,1,0,6Z" fill="#222433"/><path d="M1285.354,618.835H910.48a3,3,0,0,1,0-6h374.874a3,3,0,0,1,0,6Z" fill="#222433"/><path d="M1618.67,642.835H1474.548a3,3,0,1,1,0-6H1618.67a3,3,0,0,1,0,6Z" fill="#222433"/><path d="M1289.922,642.835H910.48a3,3,0,0,1,0-6h379.442a3,3,0,0,1,0,6Z" fill="#222433"/><path d="M657.06,762.935a49,49,0,1,1,49-49A49.055,49.055,0,0,1,657.06,762.935Zm0-92a43,43,0,1,0,43,43A43.049,43.049,0,0,0,657.06,670.935Z" fill="#222433"/><path d="M1574.373,825.246a3.04,3.04,0,0,1-.5-.042l-150.37-25.25a3,3,0,0,1-1.382-.62L1352.982,743.8l-6.207,40.225a3,3,0,0,1-3.46,2.5l-56.81-9.51a3,3,0,0,1-2.464-3.452L1298.1,689.2a3,3,0,0,1,5.919.986l-13.563,81.4,50.857,8.514,6.536-42.357a3,3,0,0,1,4.844-1.882l72.58,58.3,146.8,24.651c4.527-23.014-7.739-46.757-30.56-58.484-14.023-7.2-24.646-14.573-53.3-34.818-20.544-14.515-32.925-32.241-36.8-52.686a3,3,0,1,1,5.895-1.118c3.575,18.864,15.138,35.318,34.367,48.9,28.4,20.064,38.914,27.36,52.58,34.382,26.215,13.47,39.8,41.428,33.026,67.989A3,3,0,0,1,1574.373,825.246Z" fill="#222433"/><path d="M1012.25,530.9,1285.79,282a100,100,0,0,1,166.61,62.27l33.25,324.32L1287,691.975,1273,530.9Z" fill="#5a38fd"/><path d="M1468.866,533.9a3,3,0,0,1-2.979-2.684l-20.44-193.08a3,3,0,1,1,5.966-.632l20.44,193.08a3,3,0,0,1-2.667,3.3A3.145,3.145,0,0,1,1468.866,533.9Z" fill="#222433"/><path d="M1273.337,536.145a3,3,0,0,1-2.988-2.769l-4.25-55.13a3,3,0,1,1,5.982-.461l4.25,55.13a3,3,0,0,1-2.761,3.221C1273.492,536.142,1273.414,536.145,1273.337,536.145Z" fill="#222433"/><path d="M1676,300.956a3,3,0,0,1-2.857-3.919l12.236-38.072h-25.386l-12.6,39.894a3,3,0,0,1-5.722-1.807l13.261-41.99a3,3,0,0,1,2.861-2.1h31.7a3,3,0,0,1,2.856,3.918l-13.495,41.99A3,3,0,0,1,1676,300.956Z" fill="#222433"/><path d="M1634.18,309.045a13.67,13.67,0,1,1,13.67-13.67A13.685,13.685,0,0,1,1634.18,309.045Zm0-21.34a7.67,7.67,0,1,0,7.67,7.67A7.679,7.679,0,0,0,1634.18,287.705Z" fill="#222433"/><path d="M1665.64,309.045a13.67,13.67,0,1,1,13.67-13.67A13.685,13.685,0,0,1,1665.64,309.045Zm0-21.34a7.67,7.67,0,1,0,7.67,7.67A7.679,7.679,0,0,0,1665.64,287.705Z" fill="#222433"/><path d="M1591.08,1010.755H1446.45a3,3,0,0,1-.8-5.893c1.094-.3,109.652-30.144,130.913-36.684,12.54-3.857,23.6-1.826,30.348,5.571a23.043,23.043,0,0,1,4.217,23.874c-3.233,7.862-10.486,12.647-19.9,13.128C1591.182,1010.754,1591.131,1010.755,1591.08,1010.755Zm-122.453-6H1591c9.53-.515,13.227-6.116,14.583-9.414a16.938,16.938,0,0,0-3.1-17.548c-5.194-5.694-13.771-7.073-24.151-3.88C1562.876,978.668,1501.654,995.637,1468.627,1004.755Z" fill="#222433"/><path d="M1659.54,1010.755h-65.09a3,3,0,0,1-1.19-5.754c.345-.149,34.671-14.966,54.153-22.141,15.786-5.822,23.673-.152,26.331,2.555a13.768,13.768,0,0,1,3.082,14.8c-2.407,6.171-8.812,10.109-17.133,10.533C1659.642,1010.754,1659.591,1010.755,1659.54,1010.755Zm-50.389-6h50.31c5.945-.322,10.235-2.767,11.775-6.717a7.834,7.834,0,0,0-1.774-8.42c-3.834-3.905-11.3-4.327-19.974-1.128C1637.883,992.764,1620.924,999.79,1609.151,1004.755Z" fill="#222433"/><path d="M1270.69,1010.755H1205.6a3,3,0,0,1-1.19-5.754c.344-.149,34.671-14.966,54.153-22.141,15.787-5.822,23.673-.152,26.331,2.555a13.768,13.768,0,0,1,3.082,14.8c-2.407,6.171-8.812,10.109-17.133,10.533C1270.792,1010.754,1270.741,1010.755,1270.69,1010.755Zm-50.389-6h50.311c5.944-.322,10.234-2.767,11.774-6.717a7.836,7.836,0,0,0-1.774-8.42c-3.833-3.905-11.3-4.327-19.974-1.128C1249.033,992.764,1232.074,999.79,1220.3,1004.755Z" fill="#222433"/><polyline points="1361.794 142.041 1375.289 100.051 1343.589 100.051 1330.327 142.041" fill="none" stroke="#5a38fd" stroke-linecap="round" stroke-linejoin="round" stroke-width="6"/><circle cx="1319.979" cy="139.462" r="13.67" fill="#5a38fd"/><circle cx="1351.438" cy="139.462" r="13.67" fill="#5a38fd"/><path d="M1078.907,287.787a100.069,100.069,0,0,1-13.323-.745,3,3,0,1,1,.893-5.933c6.809,1.024,25.608,1.157,34.664-1.708a3,3,0,0,1,1.81,5.72C1096.7,287.1,1087.127,287.787,1078.907,287.787Z" fill="#222433"/><path d="M1273,533.9H909.09a3,3,0,0,1,0-6H1273a3,3,0,0,1,0,6Z" fill="#222433"/><path d="M1699,774.9a3,3,0,0,1-3-3V592.755a58.992,58.992,0,0,0-58.882-58.86H1468.87a3,3,0,0,1,0-6h168.25A65,65,0,0,1,1702,592.753V771.9A3,3,0,0,1,1699,774.9Z" fill="#222433"/></svg>