<?xml version="1.0" encoding="UTF-8"?><svg version="1.1" id="Layer_1" xmlns="http://www.w3.org/2000/svg" xmlns:xlink="http://www.w3.org/1999/xlink" x="0px" y="0px" viewBox="0 0 1920 1080" style="enable-background:new 0 0 1920 1080;" xml:space="preserve" width="1920px" height="1080px">

<g>
	<path d="M466.7,1014c-1.7,0-3-1.3-3-3c0-8.7-2.9-15.4-8.9-20.7c-18.9-16.5-61-11-61.4-11c-0.7,0.1-1.4-0.1-2-0.5
		l-28.1-18.3c-1.3-0.9-1.8-2.6-1-4l22.3-40c0.8-1.4,2.6-2,4.1-1.2c1.4,0.8,2,2.6,1.2,4.1l-20.9,37.5l24.8,16.2
		c7.2-0.8,45.7-4.4,65,12.5c7.3,6.4,11,14.8,11,25.2C469.7,1012.6,468.4,1014,466.7,1014z" style="fill:#222433;"/>
</g>
<g>
	<path d="M202.5,1014.1c-0.5,0-1-0.1-1.5-0.4L148.9,983c-0.7-0.4-1.2-1.2-1.4-2s0-1.7,0.5-2.4l105.4-142
		c1-1.3,2.9-1.6,4.2-0.6c1.3,1,1.6,2.9,0.6,4.2L154.8,979.5l46.7,27.5l28-43.9c0.5-0.8,1.4-1.3,2.4-1.4c1,0,1.9,0.4,2.5,1.2
		l34.7,46.2c1,1.3,0.7,3.2-0.6,4.2c-1.3,1-3.2,0.7-4.2-0.6L232.3,970l-27.3,42.7C204.5,1013.6,203.5,1014.1,202.5,1014.1z" style="fill:#222433;"/>
</g>
<g>
	<path d="M850.7,1014c-1.6,0-3-1.3-3-3l-0.6-48.3c0-1.1,0.5-2.1,1.5-2.6c0.9-0.5,2.1-0.6,3,0l86.2,48.2
		c1.4,0.8,2,2.6,1.2,4.1c-0.8,1.4-2.6,2-4.1,1.2l-81.7-45.7l0.5,43.1C853.8,1012.6,852.4,1014,850.7,1014
		C850.8,1014,850.7,1014,850.7,1014z" style="fill:#222433;"/>
</g>
<g>
	<path d="M1131.2,1013.8c-0.1,0-0.2,0-0.2,0c-1.7-0.1-2.9-1.6-2.8-3.2c2.1-27.1-15.4-51.7-41.7-58.4l-86.4-24.9
		c-18.7-4.8-43.8-21.2-63.7-41.8c-22.3-23-34.3-46.8-32.9-65.3c0.1-1.7,1.6-2.9,3.2-2.8c1.7,0.1,2.9,1.6,2.8,3.2
		c-1.2,16.7,10.1,38.9,31.3,60.7c19.2,19.9,43.2,35.6,61,40.2l86.4,24.9c28.9,7.4,48.4,34.6,46.1,64.6
		C1134.1,1012.6,1132.8,1013.8,1131.2,1013.8z" style="fill:#222433;"/>
</g>
<g>
	<path d="M793.1,1014c-1.7,0-3-1.3-3-3l-0.2-101.2c0-1.7,1.3-3,3-3c0,0,0,0,0,0c1.7,0,3,1.3,3,3l0.2,101.2
		C796.1,1012.6,794.8,1014,793.1,1014C793.1,1014,793.1,1014,793.1,1014z" style="fill:#222433;"/>
</g>
<path d="M743.4,575.7L458.7,404.1L268.1,489l29,39.4c0.8,0,75.6,33.7,81,36.5c0,0-2.3,6.1-5.3,12
	c8-5.5,51.3-7.6,58.4-7.7c25.2-0.4,80.6,7.8,78.2,40.5c-1,13-13,20.2-13.6,20.9c0.6,0.8,4.2,12.4-0.1,17.2
	c-2.2,2.5-8.8,9.1-9.1,12.6c-0.2,3.5,1.9,9.3,2,12.9c0.4,15.5-16.6,25.3-30.5,27.6c-7.5,1.2-15.1,1.4-22.6-0.3
	c-7.5-1.8-14.5-5.2-21.6-7.9c-12.6-4.9-25-9.8-36.1-17.4L248,841.7l155.7,91.1l161.2-215.1c9.3-15,13.6-32.1,12.9-49.1l39.1,29.2
	l172.3,231.4l142.9-108.5C932.1,820.7,743.5,575.8,743.4,575.7z" style="fill:#5A38FD;"/>
<g>
	<g>
		<path d="M742.4,578.1c-0.5,0-1.1-0.1-1.5-0.4l-283.8-171c-1.4-0.9-1.9-2.7-1-4.1c0.9-1.4,2.7-1.9,4.1-1l283.8,171
			c1.4,0.9,1.9,2.7,1,4.1C744.4,577.6,743.5,578.1,742.4,578.1z" style="fill:#222433;"/>
	</g>
</g>
<g>
	<path d="M242.9,172.3c-1,0-2-0.5-2.6-1.4c-1.7-2.9-3.2-6-4.4-9.2c-4.5-12.8-3.6-26.5,2.4-38.6c6-12.1,16.5-21,29.4-25
		c15.9-5,33.8-1.3,46.6,9.7c6.1,5.2,10.7,11.6,13.7,18.9c1.2,3,2.1,6,2.7,9.2c0.3,1.6-0.7,3.2-2.4,3.5c-1.6,0.3-3.2-0.7-3.5-2.4
		c-0.5-2.7-1.3-5.4-2.4-8c-2.6-6.5-6.7-12.1-12.1-16.7c-11.3-9.6-27-12.9-41-8.5c-11.4,3.6-20.5,11.4-25.8,22
		c-5.3,10.6-6.1,22.7-2.1,33.9c1,2.9,2.3,5.6,3.8,8.1c0.9,1.4,0.4,3.3-1,4.1C244,172.1,243.5,172.3,242.9,172.3z" style="fill:#222433;"/>
</g>
<g>
	<path d="M306.5,268.5c-1.1,0-2.2,0-3.2-0.1c-21.7-1.4-40.4-15.6-47.6-36.1c-2.8-7.8-3.7-16.3-2.7-24.7
		c0.2-1.6,1.7-2.8,3.3-2.6c1.6,0.2,2.8,1.7,2.6,3.3c-0.9,7.4-0.1,15,2.4,21.9c6.4,18.3,23,30.9,42.3,32.1c5.5,0.3,10.9-0.2,15.9-1.6
		c2-0.6,4.5-1.4,6.8-2.4c22.2-9.7,33.7-34.6,26.9-57.9c-1.7-5.8-4.5-11.2-8.2-15.9c-2.4-3.1-5-5.7-7.9-8c-1.3-1-1.5-2.9-0.5-4.2
		c1-1.3,2.9-1.5,4.2-0.5c3.3,2.6,6.2,5.6,8.9,9.1c4.1,5.3,7.2,11.3,9.2,17.9c7.7,26.2-5.3,54.2-30.2,65.1c-2.6,1.2-5.3,2.1-7.7,2.7
		C316.4,267.8,311.5,268.5,306.5,268.5z" style="fill:#222433;"/>
</g>
<g>
	<path d="M577.8,671.7c-1.5,0-2.8-1.1-3-2.6c-2.6-20-4.7-28.4-11.6-38.7c-7-10.4-80.1-90-80.8-90.8
		c-1.1-1.2-1-3.1,0.2-4.2c1.2-1.1,3.1-1,4.2,0.2c3,3.3,74.1,80.8,81.4,91.6c7.6,11.2,9.9,20.6,12.6,41.3c0.2,1.6-0.9,3.1-2.6,3.4
		C578.1,671.7,578,671.7,577.8,671.7z" style="fill:#222433;"/>
</g>
<g>
	<g>
		<path d="M329.1,663.2c-0.4,0-0.8-0.1-1.2-0.2l-165.4-69.6c-14.3-6-25.8-17.7-31.4-32.2c-5.6-14.3-5.3-30.7,1.1-44.9
			c0.5-1.1,47.6-112.4,63.9-149.5c4.4-10,8.5-19.5,15.3-27.7c0.2-0.5,0.5-0.9,1-1.2c5.6-6.6,12.9-11.9,21.1-15.4l43.9-18.7
			c1.5-0.6,3.3,0.1,3.9,1.6c0.6,1.5-0.1,3.3-1.6,3.9L235.8,328c-7.5,3.2-14.1,8.1-19.2,14.1c-0.1,0.1-0.2,0.3-0.3,0.4
			c-6.4,7.7-10.5,16.9-14.8,26.7c-16.3,37.1-63.4,148.3-63.9,149.5c-5.7,12.8-6,27.5-1,40.3c5.1,12.9,15.3,23.5,28.2,28.8
			l162.9,68.5l47.3-89.5L257,513.7c-1.5-0.7-2.2-2.5-1.5-4l9.9-22c0.3-0.7,0.8-1.2,1.5-1.5l190.6-84.9c1.5-0.7,3.3,0,4,1.5
			c0.7,1.5,0,3.3-1.5,4l-189.5,84.5l-8.2,18.2l118.3,53.2c0.8,0.3,1.3,1,1.6,1.8c0.3,0.8,0.2,1.6-0.2,2.4l-50.1,94.8
			C331.3,662.6,330.2,663.2,329.1,663.2z" style="fill:#222433;"/>
	</g>
	<g>
		<path d="M755.2,558.2c-0.5,0-1-0.1-1.5-0.4c-1.4-0.8-1.9-2.7-1.1-4.1l41.6-72.4l-150.9-86.8L437.7,269.4
			c-0.1,0-0.1-0.1-0.2-0.1c-2-1.5-4.2-2.8-6.5-3.9c0,0-0.1,0-0.1-0.1c0,0,0,0,0,0c-13.8-7-29.8-7.6-44.1-1.5l-46.9,20
			c-1.5,0.6-3.3-0.1-3.9-1.6c-0.6-1.5,0.1-3.3,1.6-3.9l46.9-20c15.8-6.7,33.6-6.2,48.9,1.6c0.1,0.1,0.3,0.1,0.4,0.2l0.1,0
			c2.4,1.3,4.8,2.7,7,4.3l205.5,125.1l153.4,88.3c0.7,0.4,1.2,1.1,1.4,1.8s0.1,1.6-0.3,2.3l-43.1,75
			C757.2,557.7,756.2,558.2,755.2,558.2z" style="fill:#222433;"/>
	</g>
</g>
<g>
	<path d="M310.2,333.2c-13.9,0-27.2-8-33.2-21.5c0-0.1-0.1-0.2-0.1-0.3l-1.9-5.9c0-0.1,0-0.1,0-0.2l-18.1-70.1
		c-0.2-0.8-0.1-1.6,0.4-2.3c0.4-0.7,1.1-1.2,1.9-1.3l63.4-12.8c1.6-0.3,3.1,0.6,3.5,2.2l14.8,56.8l1,2.6c4.7,9,5.4,19.5,2.1,29
		c-3.3,9.5-10.2,16.9-19.5,20.9C319.8,332.2,315,333.2,310.2,333.2z M282.5,309.4c6.8,14.9,24.4,21.8,39.5,15.3
		c7.7-3.3,13.4-9.5,16.2-17.4c2.8-7.9,2.1-16.8-1.8-24.4c-0.1-0.1-0.1-0.2-0.2-0.3l-1.1-2.9c0-0.1-0.1-0.2-0.1-0.3l-14.1-54.3
		l-57.5,11.6l17.3,67L282.5,309.4z" style="fill:#222433;"/>
</g>
<g>
	<path d="M464.3,575.1c-1.7,0-3-1.3-3-3c0-1.7,1.3-3,3-3l270.9-0.1c0,0,0,0,0,0c1.7,0,3,1.3,3,3c0,1.7-1.3,3-3,3
		L464.3,575.1C464.3,575.1,464.3,575.1,464.3,575.1z" style="fill:#222433;"/>
</g>
<g>
	<g>
		<path d="M446.8,707.2c-3.4,0-6.8-0.6-10.1-1.7c-13.9-4.8-27.9-10-41.4-15.5c-6.2-2.5-11.2-6.3-14.5-10.8
			c-2.1,0.9-4,1.7-5.8,2.3c-17,5.9-39.1-3.5-48.2-20.6c-0.5-0.9-0.5-1.9,0-2.8l44.4-84.4c0.4-0.8,1.2-1.4,2.2-1.6
			c0.2,0,16.7-2.8,50.6-5.6c14.4-1.2,35.9,1,56.2,5.7c0.2,0,0.4,0.1,0.6,0.2l15.2,6.8c0.1,0,0.2,0.1,0.3,0.2
			c9.9,5.8,16,18.8,15,31.4c-0.7,8.5-4.8,16.3-11.5,21.7c0.5,2.8,0.7,5.6,0.5,8.4c-0.6,7.9-4.3,15.2-10.1,20.5
			c1.3,3.9,1.8,8.1,1.4,12.2c-1,12.1-9,22.6-20.4,26.8l-13.6,5C454.1,706.6,450.5,707.2,446.8,707.2z M382,672.4
			c1,0,2.1,0.5,2.6,1.5c2.6,4.5,7.1,8.1,13.1,10.6c13.4,5.5,27.2,10.6,41,15.3c5.4,1.9,11.4,1.8,16.8-0.2l13.6-5
			c9.2-3.4,15.6-11.9,16.4-21.6c0.3-3.9-0.3-7.8-1.8-11.5c-0.5-1.2-0.1-2.7,0.9-3.5c5.5-4.3,9-10.8,9.5-17.7c0.2-2.8,0-5.6-0.7-8.4
			c-0.3-1.2,0.2-2.5,1.2-3.2c6.1-4.3,10-11.1,10.6-18.5c0.9-10.2-4.1-21-11.9-25.7l-14.8-6.6c-19.7-4.5-40.4-6.6-54.1-5.5
			c-28,2.4-44,4.6-48.7,5.3l-42.9,81.6c8.1,13.5,26.5,21.2,40.2,16.4c2.3-0.8,4.8-1.8,7.7-3.1C381.1,672.5,381.6,672.4,382,672.4z" style="fill:#222433;"/>
	</g>
	<g>
		<path d="M374,681.7c-1.2,0-2.4-0.8-2.8-2c-0.5-1.6,0.3-3.3,1.8-3.8c5.2-1.8,10.3-4.3,15.6-7
			c17.2-8.6,36.7-18.2,63.1-1.9c1.4,0.9,1.8,2.7,1,4.1c-0.9,1.4-2.7,1.8-4.1,1c-23.6-14.6-40-6.4-57.3,2.2
			c-5.3,2.6-10.8,5.4-16.3,7.3C374.7,681.6,374.4,681.7,374,681.7z" style="fill:#222433;"/>
	</g>
</g>
<g>
	<path d="M1106.7,625.5c-0.2,0-0.3,0-0.5,0c-3-0.5-164.3-65.9-233.5-94c-1.5-0.6-2.3-2.4-1.7-3.9
		c0.6-1.5,2.4-2.3,3.9-1.7c78,31.7,226.7,91.9,232.5,93.7c1.5,0.4,2.5,1.8,2.3,3.4C1109.5,624.4,1108.2,625.5,1106.7,625.5z
		 M1107.2,619.5c0.1,0,0.1,0,0.2,0C1107.3,619.5,1107.3,619.5,1107.2,619.5z" style="fill:#222433;"/>
</g>
<g>
	<path d="M177.1,783.8c-6.4,0-12.7-0.5-19.1-1.6c-36.2-6-68.4-29.9-95.8-70.8c-0.9-1.4-0.6-3.2,0.8-4.2
		c1.4-0.9,3.2-0.6,4.2,0.8c26.5,39.5,57.3,62.5,91.8,68.2c64.5,10.8,131.2-40,175.3-73.5c15.2-11.6,28.4-21.6,38.3-26.8
		c1.5-0.8,3.3-0.2,4,1.3c0.8,1.5,0.2,3.3-1.3,4c-9.5,5-22.5,14.8-37.5,26.3C297.3,738.6,237.8,783.8,177.1,783.8z" style="fill:#222433;"/>
</g>
<g>
	<path d="M458.7,407.1c-1.7,0-3-1.3-3-3v-30c0-1.7,1.3-3,3-3s3,1.3,3,3v30C461.7,405.7,460.3,407.1,458.7,407.1z" style="fill:#222433;"/>
</g>
<g>
	<path d="M334.5,170.7c-1.4,0-2.7-1-2.9-2.4c-0.3-1.6,0.8-3.2,2.4-3.5c6.1-1.2,10.6-6.5,10.6-12.8c0-7.2-5.8-13-13-13
		s-13,5.8-13,13c0,0.4,0,0.8,0.1,1.2c0.2,1.6-1.1,3.1-2.7,3.3c-1.7,0.2-3.1-1.1-3.3-2.7c-0.1-0.6-0.1-1.2-0.1-1.8
		c0-10.5,8.5-19,19-19s19,8.5,19,19c0,9.1-6.5,17-15.4,18.7C334.9,170.7,334.7,170.7,334.5,170.7z" style="fill:#222433;"/>
</g>
<path d="M329.1,264.3c-2.7,1.2-5.4,2.1-7.8,2.8c-4.8,1.3-9.7,1.9-14.8,1.9c-1.1,0-2.2,0-3.3-0.1
	c-21.9-1.4-40.7-15.7-48-36.4c-2.9-8.1-3.8-16.8-2.7-25.3c3.8-3.6,6.1-8.6,6.1-14.2c0-10-7.5-18.3-17.2-19.4
	c-2.5-3.6-4.5-7.5-6-11.7c-4.5-12.9-3.7-26.7,2.4-38.9c6.1-12.2,16.7-21.2,29.7-25.3c16.1-5.1,34.1-1.3,47.1,9.8
	c1,0.8,1.4,2.1,1.1,3.4c-0.3,1.2-1.2,2.3-2.4,2.6l-56.9,17.2l11.9,48.2l15.2,31.8l1.4-1.8c10.7-13.4,25.9-22.6,42.8-25.8l18.6-3.7
	c1.3-0.2,2.6,0.2,3.5,1.3c4.2,5.4,7.3,11.5,9.3,18C367.2,225,354.2,253.2,329.1,264.3z" style="fill:#82B1FF;"/>
<g>
	<path d="M290.1,181.4c-1,0-2-0.1-3.1-0.2c-10.3-1.7-17.4-11.5-15.7-21.8l0,0c0.8-5,3.5-9.4,7.6-12.4
		c4.1-3,9.1-4.2,14.2-3.3c5,0.8,9.4,3.5,12.4,7.6s4.2,9.1,3.3,14.2C307.3,174.7,299.2,181.4,290.1,181.4z M277.2,160.3
		c-1.1,7.1,3.7,13.8,10.7,14.9c3.4,0.6,6.9-0.3,9.7-2.3c2.8-2,4.7-5,5.2-8.5c0.6-3.4-0.3-6.9-2.3-9.7c-2-2.8-5-4.7-8.5-5.2
		c-3.4-0.6-6.9,0.3-9.7,2.3C279.6,153.9,277.8,156.9,277.2,160.3L277.2,160.3z" style="fill:#222433;"/>
</g>
<g>
	<path d="M302.6,155.6c-1.4,0-2.6-1-2.9-2.4c-0.3-1.6,0.7-3.2,2.3-3.5l9.3-1.9c1.6-0.3,3.2,0.7,3.5,2.3
		c0.3,1.6-0.7,3.2-2.3,3.5l-9.3,1.9C303,155.6,302.8,155.6,302.6,155.6z" style="fill:#222433;"/>
</g>
<g>
	<path d="M236.2,173.5c-1.4,0-2.7-1-2.9-2.5c-0.3-1.6,0.8-3.2,2.4-3.5l37.9-6.9c1.6-0.3,3.2,0.8,3.5,2.4
		s-0.8,3.2-2.4,3.5l-37.9,6.9C236.5,173.5,236.4,173.5,236.2,173.5z" style="fill:#222433;"/>
</g>
<ellipse transform="matrix(0.3162 -0.9487 0.9487 0.3162 41.5798 395.0466)" cx="294.8" cy="168.7" rx="3.7" ry="3.7" style="fill:#222433;"/>
<circle cx="336.4" cy="158.3" r="3.7" style="fill:#222433;"/>
<g>
	<path d="M319.5,226.6c-0.7,0-1.4-0.2-2-0.7c-1.3-1.1-1.4-3-0.3-4.2l14.6-17c1.1-1.3,3-1.4,4.2-0.3
		c1.3,1.1,1.4,3,0.3,4.2l-14.6,17C321.2,226.2,320.4,226.6,319.5,226.6z" style="fill:#222433;"/>
</g>
<polygon points="1110,617 1144.8,605.8 1122.3,597.6 " style="fill:#222433;"/>
<g>
	<path d="M1222.5,1014c0,0-0.1,0-0.2,0c-1.7-0.1-2.9-1.5-2.8-3.1c1.1-22.3,35.5-28.9,43.4-30.1l65.1-121.5l-7.3-30.4
		c-0.4-1.6,0.6-3.2,2.2-3.6c1.6-0.4,3.2,0.6,3.6,2.2l7.6,31.5c0.2,0.7,0.1,1.5-0.3,2.1l-66.4,123.8c-0.5,0.9-1.3,1.4-2.3,1.6
		c-0.4,0-38.7,5.1-39.7,24.7C1225.5,1012.7,1224.1,1014,1222.5,1014z" style="fill:#222433;"/>
</g>
<g>
	<path d="M1634.1,1014c-0.6,0-1.2-0.2-1.7-0.5c-1.4-0.9-1.7-2.8-0.8-4.2l78.5-115.4c3.6-5.3,6.6-10.9,9.1-16.8
		c0.6-1.5,2.4-2.3,3.9-1.6c1.5,0.6,2.2,2.4,1.6,3.9c-2.6,6.2-5.9,12.2-9.7,17.8l-78.5,115.4C1636,1013.5,1635.1,1014,1634.1,1014z" style="fill:#222433;"/>
</g>
<g>
	<path d="M1546.3,1014c-1.5,0-2.8-1.2-3-2.7c-2.2-22.8,33.1-30.3,40.8-31.7l36.3-61c9.4-15.9,9.1-35.4-0.7-51
		l-14.4-22.9c-3.1-5-5.3-10.4-6.7-15.9c-0.4-1.6,0.6-3.2,2.2-3.6c1.6-0.4,3.2,0.6,3.6,2.2c1.2,5,3.3,9.7,6,14.2l14.4,22.9
		c11,17.4,11.3,39.4,0.7,57.2l-37,62.2c-0.5,0.8-1.2,1.3-2.1,1.4c-0.4,0.1-39.1,6-37.2,25.4c0.2,1.6-1,3.1-2.7,3.3
		C1546.5,1014,1546.4,1014,1546.3,1014z M1586,982.3L1586,982.3L1586,982.3z" style="fill:#222433;"/>
</g>
<g>
	<path d="M1269,773.7c-3.5,0-6.9-1-10-2.9l-16.5-10.4c-7.4-4.7-10.6-13.7-7.8-21.9l36.6-111.1c0.5-1.6,2.2-2.4,3.8-1.9
		c1.6,0.5,2.4,2.2,1.9,3.8l-36.6,111.1c-1.9,5.6,0.3,11.7,5.4,14.9l16.5,10.4c4.9,3.1,11.1,2.6,15.4-1.3l43.5-38.6
		c5.5-4.9,8.7-12,8.6-19.3l-0.2-54.6c0-1.7,1.3-3,3-3c0,0,0,0,0,0c1.7,0,3,1.3,3,3l0.2,54.6c0.1,9.1-3.8,17.8-10.6,23.9l-43.5,38.6
		C1277.9,772.1,1273.5,773.7,1269,773.7z" style="fill:#222433;"/>
</g>
<g>
	<path d="M1730.3,1014.1c-1.5,0-2.8-1.2-3-2.7c-1.1-10.4,4.2-19.8,15.2-27.3c5.5-3.7,11-6,14-7.2l-7.8-67.8
		c-1.6-13.4-11.4-24.3-24.4-27.2l-14.4-3.3c-35-7.9-64.7-31.7-80.2-64c-39.9,28.2-86.5,45.9-135.3,51.3l-0.4,4.7
		c0,0.5-0.2,1-0.5,1.4l-96.3,140.6c-0.9,1.4-2.8,1.7-4.2,0.8c-1.4-0.9-1.7-2.8-0.8-4.2l95.9-139.9l0.5-6.4c0.1-1.4,1.2-2.6,2.7-2.7
		c49.8-5.1,97.4-23.3,137.8-52.6c0.7-0.5,1.7-0.7,2.5-0.5c0.9,0.2,1.6,0.9,2,1.7c14.2,32.3,43.2,56.2,77.6,63.9l14.4,3.3
		c15.5,3.5,27.2,16.5,29,32.4l8.1,70.2c0.2,1.4-0.7,2.8-2.1,3.2c-0.3,0.1-29.4,9.2-27.4,28.9c0.2,1.6-1,3.1-2.7,3.3
		C1730.5,1014.1,1730.4,1014.1,1730.3,1014.1z" style="fill:#222433;"/>
</g>
<g>
	<path d="M1818.1,1014.1c-0.1,0-0.2,0-0.4,0c-1.6-0.2-2.8-1.7-2.6-3.3l14.6-119.2c2.4-19.9-4.3-39.5-18.4-53.6
		c0,0-0.1-0.1-0.1-0.1l-54.3-60.1c-0.4-0.4-0.7-1-0.7-1.6l-16.2-117c0-0.2,0-0.3,0-0.5c0.6-25.7-8.9-50.1-26.8-68.6l-1.9-1.9
		c-14.2-13.9-32.2-22.6-52.2-24.9c-1.3-0.1-2.3-1.1-2.6-2.3s0.3-2.5,1.4-3.2c24.1-14.6,44.9-34.5,61.8-59.1
		c35.1-51.1,34.9-100.5,33.4-118.3l-152.2,195.4c-0.2,0.3-0.5,0.5-0.8,0.7c-5.5,3.4-10.6,7.3-15.2,11.7L1461.2,706
		c-0.5,0.5-1.2,0.8-1.9,0.8l-103.1,7.1c-1.1,0.1-2.2-0.5-2.8-1.5c-0.2-0.4-0.4-0.8-0.4-1.2l-22.9-64.8l-54.6-22.6
		c-8.9-3.6-18.8-4.4-28-2.1l-39,9.8c-0.6,0.1-1.2,0.1-1.8-0.1l-82.9-30.2l-14,21.9l2.4,28.2c1.6,19.1,11.5,36.4,27.2,47.5l151.7,108
		c0.3,0.1,0.5,0.2,0.7,0.4c0.2,0.1,0.4,0.3,0.6,0.5l30.7,17.3c22.9,13,47.4,22.7,72.9,28.8c1.1,0.3,1.9,1.1,2.2,2.2l1.5,5.9
		c0.2,0.7,0.1,1.5-0.3,2.1l-66.4,123.8c-0.5,0.9-1.4,1.5-2.5,1.6c-0.4,0-38.2,2.4-39.1,21.7c-0.1,1.7-1.4,2.9-3.1,2.9
		c-1.7-0.1-2.9-1.5-2.9-3.1c1-22.2,34.9-26.6,43-27.3l65.1-121.3l-0.7-3c-25.3-6.3-49.8-16.1-72.6-29l-31.5-17.8
		c-0.1,0-0.2-0.1-0.2-0.1c0,0,0,0,0,0c0,0,0,0,0,0c0,0,0,0,0,0c0,0,0,0,0,0c0,0,0,0,0,0s0,0,0,0c0,0,0,0,0,0L1136,703.7
		c-17.1-12.1-27.9-31.1-29.7-51.9l-2.5-29.2c-0.1-0.7,0.1-1.3,0.5-1.9l15.8-24.8c0.8-1.2,2.2-1.7,3.6-1.2l84.3,30.7l38.1-9.6
		c10.4-2.6,21.7-1.8,31.8,2.3l55.8,23.1c0.8,0.3,1.4,1,1.7,1.8l22.9,64.6l99.6-6.9l122.9-117.2c4.8-4.5,10-8.6,15.7-12.1
		l156.3-200.7c0.7-0.9,1.9-1.3,3.1-1.1c1.1,0.3,2,1.2,2.2,2.3c0.1,0.7,3.1,16.2,0.5,40.1c-2.4,22-10.3,55.4-33.9,89.8
		c-15.8,23-34.9,42-56.8,56.6c18.1,3.6,34.5,12.3,47.8,25.3l1.9,1.9c19,19.7,29.1,45.5,28.5,72.7l16,115.9l53.6,59.4
		c15.4,15.4,22.7,36.8,20.1,58.5l-14.6,119.2C1820.9,1013,1819.6,1014.1,1818.1,1014.1z" style="fill:#222433;"/>
</g>
<g>
	<path d="M1196.5,709.9c-1.5,0-2.8-1.1-3-2.7l-5.1-48.7l-46.7,16.2c-0.9,0.3-1.8,0.2-2.6-0.3c-0.8-0.5-1.3-1.3-1.4-2.2
		l-4.4-44.8l-26.9-1.8c-1.7-0.1-2.9-1.5-2.8-3.2c0.1-1.7,1.5-2.9,3.2-2.8l29.4,2c1.5,0.1,2.6,1.2,2.8,2.7l4.2,43.5l46.7-16.2
		c0.9-0.3,1.8-0.2,2.6,0.3c0.8,0.5,1.3,1.3,1.4,2.2l5.5,52.5c0.2,1.6-1,3.1-2.7,3.3C1196.7,709.9,1196.6,709.9,1196.5,709.9z" style="fill:#222433;"/>
</g>
<path d="M1222.5,641.7l8.5-7.9c1.6-1.5,4.1-0.7,4.6,1.4l2.1,8.8c0.6,2.3-1.8,4.2-4,3.2L1222.5,641.7z" style="fill:#222433;"/>
<g>
	<path d="M1459.5,706.7c-1.6,0-2.9-1.2-3-2.8c-0.1-1.7,1.2-3.1,2.8-3.2l27.9-1.5c1.6-0.1,3.1,1.2,3.2,2.8
		s-1.2,3.1-2.8,3.2l-27.9,1.5C1459.6,706.7,1459.6,706.7,1459.5,706.7z" style="fill:#222433;"/>
</g>
<g>
	<path d="M1203.4,881.7c-0.1,0-0.1,0-0.2,0c-1.7-0.1-2.9-1.5-2.8-3.2C1207.5,776.5,1165,706,1139,673
		c-1-1.3-0.8-3.2,0.5-4.2c1.3-1,3.2-0.8,4.2,0.5c26.5,33.6,70,105.6,62.7,209.6C1206.3,880.5,1205,881.7,1203.4,881.7z" style="fill:#222433;"/>
</g>
<g>
	<path d="M1230.9,917.5c-0.1,0-0.2,0-0.4,0l-61.9-7.7c-1.6-0.2-2.8-1.7-2.6-3.3c1.1-9.1,5.7-17.1,12.9-22.8
		c7.2-5.6,16.2-8.1,25.2-7c18.7,2.3,32,19.4,29.7,38.1c-0.1,0.8-0.5,1.5-1.1,2C1232.3,917.3,1231.6,917.5,1230.9,917.5z
		 M1172.5,904.2l55.6,6.9c0.2-14.2-10.3-26.7-24.7-28.5C1189,880.9,1175.8,890.4,1172.5,904.2z" style="fill:#222433;"/>
</g>
<g>
	<path d="M1179.8,930.9c-0.1,0-0.2,0-0.4,0c-1.6-0.2-2.8-1.7-2.6-3.3l2.2-18c0.2-1.6,1.7-2.8,3.3-2.6
		c1.6,0.2,2.8,1.7,2.6,3.3l-2.2,18C1182.6,929.8,1181.3,930.9,1179.8,930.9z" style="fill:#222433;"/>
</g>
<g>
	<path d="M1214,935.2c-0.1,0-0.2,0-0.4,0c-1.6-0.2-2.8-1.7-2.6-3.3l2.2-18.1c0.2-1.6,1.7-2.8,3.3-2.6
		c1.6,0.2,2.8,1.7,2.6,3.3l-2.2,18.1C1216.8,934.1,1215.5,935.2,1214,935.2z" style="fill:#222433;"/>
</g>
<g>
	<path d="M1353.7,846.3c-0.5,0-0.9-0.1-1.3-0.3l-30.1-15.1c-1.5-0.7-2.1-2.5-1.3-4c0.7-1.5,2.5-2.1,4-1.3l30.1,15.1
		c1.5,0.7,2.1,2.5,1.3,4C1355.9,845.7,1354.8,846.3,1353.7,846.3z" style="fill:#222433;"/>
</g>
<g>
	<path d="M1362.7,734.1c-1.3,0-2.4-0.8-2.8-2.1l-6.7-20.3c-0.5-1.6,0.3-3.3,1.9-3.8c1.6-0.5,3.3,0.3,3.8,1.9l6.7,20.3
		c0.5,1.6-0.3,3.3-1.9,3.8C1363.4,734,1363,734.1,1362.7,734.1z" style="fill:#222433;"/>
</g>
<g>
	<path d="M1759.1,778.6c-0.8,0-1.5-0.3-2.1-0.9l-16.2-16c-1.2-1.2-1.2-3.1,0-4.2c1.2-1.2,3.1-1.2,4.2,0l16.2,16
		c1.2,1.2,1.2,3.1,0,4.2C1760.7,778.3,1759.9,778.6,1759.1,778.6z" style="fill:#222433;"/>
</g>
<g>
	<path d="M1774.1,981.9h-14.2c-1.7,0-3-1.3-3-3s1.3-3,3-3h14.2c1.7,0,3,1.3,3,3S1775.8,981.9,1774.1,981.9z" style="fill:#222433;"/>
</g>
<g>
	<path d="M1596.6,985.3H1586c-1.7,0-3-1.3-3-3s1.3-3,3-3h10.6c1.7,0,3,1.3,3,3S1598.3,985.3,1596.6,985.3z" style="fill:#222433;"/>
</g>
<g>
	<path d="M1274.6,986.5h-9.8c-1.7,0-3-1.3-3-3s1.3-3,3-3h9.8c1.7,0,3,1.3,3,3S1276.3,986.5,1274.6,986.5z" style="fill:#222433;"/>
</g>
<g>
	<path d="M291.5,529c-0.4,0-0.8-0.1-1.2-0.3L257,513.8c-0.7-0.3-1.3-0.9-1.6-1.7s-0.3-1.6,0.1-2.3l39.2-87.6
		c0.7-1.5,2.4-2.2,4-1.5c1.5,0.7,2.2,2.5,1.5,4l-38,84.9l30.6,13.7c1.5,0.7,2.2,2.5,1.5,4C293.8,528.3,292.7,529,291.5,529z" style="fill:#222433;"/>
</g>
<g>
	<path d="M252.4,530.4c-0.3,0-0.7-0.1-1-0.2c-1.6-0.6-2.4-2.3-1.8-3.8l2.5-7l-9.2,6.8c-1.3,1-3.2,0.7-4.2-0.6
		c-1-1.3-0.7-3.2,0.6-4.2l17.1-12.7c1.1-0.8,2.5-0.8,3.6,0c1.1,0.8,1.5,2.2,1,3.4l-5.8,16.3C254.8,529.6,253.7,530.4,252.4,530.4z" style="fill:#222433;"/>
</g>
<g>
	<path d="M970.8,902.5c-22.3,0-40.4-18.1-40.4-40.4s18.1-40.4,40.4-40.4s40.4,18.1,40.4,40.4S993.1,902.5,970.8,902.5z
		 M970.8,827.7c-19,0-34.4,15.4-34.4,34.4s15.4,34.4,34.4,34.4c19,0,34.4-15.4,34.4-34.4S989.8,827.7,970.8,827.7z" style="fill:#222433;"/>
</g>
<g>
	<path d="M992.1,919.6c-22.3,0-40.4-18.1-40.4-40.4s18.1-40.4,40.4-40.4s40.4,18.1,40.4,40.4S1014.4,919.6,992.1,919.6z
		 M992.1,844.8c-19,0-34.4,15.4-34.4,34.4c0,19,15.4,34.4,34.4,34.4c19,0,34.4-15.4,34.4-34.4
		C1026.5,860.2,1011.1,844.8,992.1,844.8z" style="fill:#222433;"/>
</g>
<g>
	<path d="M1204.2,547.7c-0.2,0-0.5,0-0.7-0.1c-1.6-0.4-2.6-2-2.2-3.6l10-40.7c0.4-1.6,2-2.6,3.6-2.2
		c1.6,0.4,2.6,2,2.2,3.6l-10,40.7C1206.8,546.8,1205.6,547.7,1204.2,547.7z" style="fill:#222433;"/>
</g>
<g>
	<path d="M1261.4,527.4c-0.5,0-1.1-0.1-1.6-0.4c-1.4-0.9-1.8-2.7-1-4.1l26.3-42.5c0.9-1.4,2.7-1.8,4.1-1
		c1.4,0.9,1.8,2.7,1,4.1L1264,526C1263.4,526.9,1262.4,527.4,1261.4,527.4z" style="fill:#222433;"/>
</g>
<g>
	<path d="M1333.5,510c-0.8,0-1.6-0.3-2.2-1c-1.1-1.2-1.1-3.1,0.2-4.2l18.3-17c1.2-1.1,3.1-1.1,4.2,0.2
		c1.1,1.2,1.1,3.1-0.2,4.2l-18.3,17C1335,509.7,1334.3,510,1333.5,510z" style="fill:#222433;"/>
</g>
<g>
	<path d="M364.9,961.1c-0.7,0-1.3-0.2-1.9-0.7l-11.8-9.7c-1.3-1.1-1.5-2.9-0.4-4.2s2.9-1.5,4.2-0.4l11.8,9.7
		c1.3,1.1,1.5,2.9,0.4,4.2C366.7,960.7,365.8,961.1,364.9,961.1z" style="fill:#222433;"/>
</g>
<g>
	<path d="M1833.9,1014.5H154.6c-1.7,0-3-1.3-3-3s1.3-3,3-3h1679.3c1.7,0,3,1.3,3,3S1835.6,1014.5,1833.9,1014.5z" style="fill:#222433;"/>
</g>
<g>
	<g>
		<path d="M816,639.6c-1.9,0-3.9-0.2-5.9-0.6l-14.2-2.7c-6.9-1.3-13.3-5-18-10.5c-4.9-5.8-15.1-18-27.5-34.5
			c-4.7-6.2-7.1-12.9-7-19.4c0-1.7,1.4-2.9,3-3c1.7,0,3,1.4,3,3c-0.1,5.1,2,10.5,5.8,15.7c12.4,16.4,22.4,28.5,27.3,34.3
			c3.8,4.4,9,7.4,14.6,8.5l14.2,2.7c9.6,1.9,19.5-2.1,25.3-10.1c2.2-3.1,3.8-6.9,4.4-10.7c0.2-1.3,1.3-2.3,2.6-2.5
			c6.9-0.9,13.2-4.7,17.3-10.4c1.6-2.3,2.9-4.8,3.7-7.6c0.3-1.2,1.4-2.1,2.6-2.1c7.4-0.6,14.2-4.4,18.6-10.5c6-8.3,7.2-20.1,3-28
			l-25.8-30.3c-1.1-1.3-0.9-3.2,0.3-4.2c1.3-1.1,3.2-0.9,4.2,0.3l26,30.5c0.1,0.2,0.2,0.3,0.3,0.5c5.5,10,4.1,24.3-3.3,34.7
			c-5,7-12.6,11.5-21,12.7c-1,2.7-2.3,5.2-3.9,7.5c-4.7,6.4-11.6,10.9-19.3,12.4c-0.9,4-2.6,7.8-5,11.2
			C835.5,634.8,825.9,639.6,816,639.6z" style="fill:#222433;"/>
	</g>
	<g>
		<path d="M849.1,529.5c-1.7,0-3.5-0.1-5.4-0.4c-15.6-2.2-43.9-8.5-64.8-13.4c-1.6-0.4-2.6-2-2.2-3.6
			c0.4-1.6,2-2.6,3.6-2.2c20.8,4.9,48.8,11.2,64.2,13.3c12,1.7,18.4-3.2,19.3-8.8c0.5-2.8-0.6-6.1-4.1-6.8c-4.8-0.9-11-3.7-18.9-7.3
			c-12.4-5.6-27.9-12.6-45-15.5c-1.6-0.3-2.7-1.8-2.5-3.5s1.8-2.7,3.5-2.5c17.9,3,33.7,10.2,46.5,15.9c7.2,3.3,13.5,6.1,17.6,6.9
			c6.3,1.2,10,7,8.9,13.7c-0.7,4.4-3.5,8.4-7.7,10.9C858.6,528.5,854.1,529.5,849.1,529.5z" style="fill:#222433;"/>
	</g>
	<g>
		<path d="M746.3,575c-0.1,0-0.2,0-0.3,0c-1.6-0.2-2.9-1.6-2.7-3.3c0.9-9.1,4.7-15.6,10.8-18.5c4.2-1.9,9.1-2,14-0.3
			c-1.2-8.3,1.3-16.2,7.1-20.9c4.9-4,11.2-4.9,17.5-2.6c-0.1-4.5,0.6-10.4,4.1-14.3c1.1-1.2,3-1.3,4.2-0.2c1.2,1.1,1.3,3,0.2,4.2
			c-3.4,3.8-2.6,12.6-2.1,14.5c0.3,1.2-0.1,2.5-1.1,3.2c-1,0.7-2.3,0.8-3.4,0.1c-5.8-3.7-11.5-3.9-15.7-0.4
			c-5.2,4.3-6.7,12.9-3.5,20.9c0.5,1.2,0.1,2.6-0.9,3.5c-1,0.8-2.5,0.9-3.6,0.1c-4.9-3.4-10.3-4.3-14.4-2.5
			c-4.1,1.9-6.7,6.6-7.4,13.6C749.2,573.8,747.9,575,746.3,575z" style="fill:#222433;"/>
	</g>
	<g>
		<path d="M830.8,582.1c-0.9,0-1.8-0.4-2.4-1.2L794,536.4c-1-1.3-0.8-3.2,0.5-4.2c1.3-1,3.2-0.8,4.2,0.5l34.5,44.5
			c1,1.3,0.8,3.2-0.5,4.2C832.1,581.9,831.5,582.1,830.8,582.1z" style="fill:#222433;"/>
	</g>
	<g>
		<path d="M805.1,604.4c-0.9,0-1.8-0.4-2.4-1.2l-34.5-44.6c-1-1.3-0.8-3.2,0.5-4.2c1.3-1,3.2-0.8,4.2,0.5l34.5,44.6
			c1,1.3,0.8,3.2-0.5,4.2C806.4,604.2,805.8,604.4,805.1,604.4z" style="fill:#222433;"/>
	</g>
	<g>
		<path d="M860.8,557.7c-0.8,0-1.5-0.3-2.1-0.9l-30-29.9c-1.2-1.2-1.2-3.1,0-4.2c1.2-1.2,3.1-1.2,4.2,0l30,29.9
			c1.2,1.2,1.2,3.1,0,4.2C862.4,557.4,861.6,557.7,860.8,557.7z" style="fill:#222433;"/>
	</g>
</g>
<g>
	<path d="M297.2,531.4c-0.9,0-1.8-0.4-2.4-1.2l-29-39.4c-1-1.3-0.7-3.2,0.6-4.2c1.3-1,3.2-0.7,4.2,0.6l29,39.4
		c1,1.3,0.7,3.2-0.6,4.2C298.4,531.2,297.8,531.4,297.2,531.4z" style="fill:#222433;"/>
</g>
<g>
	<path d="M239.1,218.5c-14.1,0-25.6-11.5-25.6-25.6s11.5-25.6,25.6-25.6c6.8,0,13.3,2.7,18.1,7.5c1.2,1.2,1.2,3.1,0,4.2
		c-1.2,1.2-3.1,1.2-4.2,0c-3.7-3.7-8.6-5.7-13.9-5.7c-10.8,0-19.6,8.8-19.6,19.6c0,10.8,8.8,19.6,19.6,19.6c5.6,0,10.9-2.4,14.6-6.5
		c1.1-1.2,3-1.3,4.2-0.2c1.2,1.1,1.3,3,0.2,4.2C253.4,215.4,246.4,218.5,239.1,218.5z" style="fill:#222433;"/>
</g>
<g>
	<path d="M325.2,188.4c-0.9,0-1.7-0.4-2.3-1.1c-1.1-1.3-0.9-3.2,0.3-4.2l12.6-10.7l-25.7-19.3c-1.3-1-1.6-2.9-0.6-4.2
		c1-1.3,2.9-1.6,4.2-0.6l28.7,21.6c0.7,0.5,1.2,1.4,1.2,2.3c0,0.9-0.4,1.8-1.1,2.4l-15.5,13.1C326.5,188.2,325.8,188.4,325.2,188.4z
		" style="fill:#222433;"/>
</g>
</svg>