<?xml version="1.0" encoding="UTF-8"?><svg id="Layer_1" data-name="Layer 1" xmlns="http://www.w3.org/2000/svg" viewBox="0 0 1920 1080" x="0px" y="0px" width="1920px" height="1080px" xmlns:xlink="http://www.w3.org/1999/xlink" version="1.1"><path d="M300.446,617.707a3,3,0,0,1-2.886-3.826l75.556-264.05a3,3,0,0,1,5.768,1.651L303.329,615.531A3,3,0,0,1,300.446,617.707Z" fill="#222433"/><path d="M379.58,371.147c-.083,0-.166,0-.249-.011a50.836,50.836,0,0,1-19.123-5.481,3.032,3.032,0,0,1-.8-.6,48.056,48.056,0,0,1-24.195-45.414l4.38-57.511a14.174,14.174,0,0,1,25.916-6.534,14.188,14.188,0,0,1,24.651,10.326l-3.106,42.167,19.675-37.4c.077-.161.2-.4.333-.636a14.176,14.176,0,0,1,26.354,4.576,14.161,14.161,0,0,1,12.258.418c.041.021.08.043.119.066a14.2,14.2,0,0,1,5.78,19.122l-26.69,51.1a48.018,48.018,0,0,1-44.541,25.714A2.963,2.963,0,0,1,379.58,371.147Zm0-6.141c.061,0,.123,0,.184.006a42.05,42.05,0,0,0,39.8-22.456l26.7-51.119a8.186,8.186,0,0,0-3.366-11.07l-.016-.008a8.189,8.189,0,0,0-10.9,3.222c-.056.108-.115.214-.174.321a3,3,0,0,1-5.427-2.519,3.234,3.234,0,0,1,.153-.341h0c.055-.1.112-.211.17-.315a8.18,8.18,0,0,0-14.409-7.744c-.077.136-.15.278-.219.42l-26.421,50.22a3,3,0,0,1-5.647-1.617l4.16-56.471a8.18,8.18,0,0,0-16.312-1.185,3,3,0,0,1-5.982-.456,8.18,8.18,0,0,0-16.309-1.244l-4.374,57.444a42.047,42.047,0,0,0,21.887,40.134,3.048,3.048,0,0,1,.663.487,44.789,44.789,0,0,0,15.2,4.359A3.075,3.075,0,0,1,379.58,365.006Z" fill="#222433"/><path d="M361.633,309.977c-.077,0-.153,0-.231-.009a3,3,0,0,1-2.763-3.22l3.34-43.8a3,3,0,0,1,5.982.458l-3.34,43.8A3,3,0,0,1,361.633,309.977Z" fill="#222433"/><path d="M409.268,323.608a3,3,0,0,1-2.657-4.39l20.34-38.94a3,3,0,1,1,5.318,2.777L411.929,322A3,3,0,0,1,409.268,323.608Z" fill="#222433"/><path d="M260.441,617.707a3,3,0,0,1-2.75-1.8L186.027,452.3a3,3,0,1,1,5.5-2.407L263.188,613.5a3,3,0,0,1-2.747,4.205Z" fill="#222433"/><path d="M179.72,455.987a25.57,25.57,0,1,1,25.57-25.571A25.6,25.6,0,0,1,179.72,455.987Zm0-45.14a19.57,19.57,0,1,0,19.57,19.569A19.591,19.591,0,0,0,179.72,410.847Z" fill="#222433"/><circle cx="268.11" cy="202.746" r="30.21" fill="#5a38fd"/><circle cx="301.44" cy="266.576" r="30.21" fill="#5a38fd"/><circle cx="241.1" cy="269.496" r="30.21" fill="#5a38fd"/><circle cx="304.68" cy="333.597" r="30.21" fill="#5a38fd"/><circle cx="244.34" cy="336.516" r="30.21" fill="#5a38fd"/><path d="M319.74,1030.2H258a3,3,0,0,1-2.121-.879l-41.25-41.25a61.4,61.4,0,0,1-.02-86.734l.032-.031a55.392,55.392,0,0,0,0-78.236,61.493,61.493,0,0,1-2.773-83.807c.911-1.086,1.906-2.1,2.765-2.955a55.34,55.34,0,0,0,0-78.263l-.02-.02A61.545,61.545,0,0,1,196.67,614.7a3,3,0,0,1,3-3H378.12a3,3,0,0,1,3,3,61.56,61.56,0,0,1-18,43.336,55.4,55.4,0,0,0-.011,78.248l.029.03c.948.948,1.875,1.937,2.753,2.941a61.49,61.49,0,0,1-2.767,83.8,55.33,55.33,0,0,0-.008,78.249L361,903.437l2.121-2.121a61.338,61.338,0,0,1,.023,86.729l-.023.024-41.26,41.25A3,3,0,0,1,319.74,1030.2Zm-60.5-6H318.5l40.364-40.355.021-.021a55.34,55.34,0,0,0,0-78.263h0a61.329,61.329,0,0,1,0-86.743,55.477,55.477,0,0,0,2.494-75.6c-.8-.909-1.634-1.806-2.493-2.664l-.006-.006a61.41,61.41,0,0,1,0-86.748,55.569,55.569,0,0,0,16.158-36.089H202.751a55.542,55.542,0,0,0,16.117,36.086l.026.027a61.337,61.337,0,0,1-.023,86.728c-.981.983-1.734,1.763-2.454,2.619a55.493,55.493,0,0,0,2.454,75.65,61.4,61.4,0,0,1,0,86.742l-.029.029a55.393,55.393,0,0,0,.029,78.237ZM361,985.944h0Z" fill="#222433"/><path d="M363.67,744.237H214.13a3,3,0,0,1,0-6H363.67a3,3,0,0,1,0,6Z" fill="#222433"/><path d="M361,823.937H216.76a3,3,0,0,1,0-6H361a3,3,0,0,1,0,6Z" fill="#222433"/><path d="M363.67,909.237H214.13a3,3,0,0,1,0-6H363.67a3,3,0,0,1,0,6Z" fill="#222433"/><path d="M361,988.937H216.76a3,3,0,0,1,0-6H361a3,3,0,0,1,0,6Z" fill="#222433"/><path d="M548.89,1028.2a3,3,0,0,1-3-3V60.637a3,3,0,0,1,3-3h35.37a3,3,0,0,1,0,6H551.89V1025.2A3,3,0,0,1,548.89,1028.2Z" fill="#222433"/><path d="M584.26,1028.2a3,3,0,0,1-3-3V60.637a3,3,0,0,1,3-3H759.18a3,3,0,0,1,3,3v42.689a3,3,0,1,1-6,0V63.637H587.26V1025.2A3,3,0,0,1,584.26,1028.2Z" fill="#222433"/><path d="M670.35,123.716H584.89a3,3,0,0,1,0-6h85.46a3,3,0,0,1,0,6Z" fill="#222433"/><path d="M635.9,153.527H584.89a3,3,0,0,1,0-6H635.9a3,3,0,0,1,0,6Z" fill="#222433"/><path d="M635.9,179.126H584.89a3,3,0,0,1,0-6H635.9a3,3,0,0,1,0,6Z" fill="#222433"/><path d="M635.9,204.716H584.89a3,3,0,0,1,0-6H635.9a3,3,0,0,1,0,6Z" fill="#222433"/><path d="M635.9,230.307H584.89a3,3,0,0,1,0-6H635.9a3,3,0,0,1,0,6Z" fill="#222433"/><path d="M628.86,255.906H584.89a3,3,0,0,1,0-6h43.97a3,3,0,0,1,0,6Z" fill="#222433"/><path d="M632.9,285.716H584.89a3,3,0,0,1,0-6H632.9a3,3,0,0,1,0,6Z" fill="#222433"/><path d="M635.9,311.307H584.89a3,3,0,0,1,0-6H635.9a3,3,0,0,1,0,6Z" fill="#222433"/><path d="M635.9,336.906H584.89a3,3,0,0,1,0-6H635.9a3,3,0,0,1,0,6Z" fill="#222433"/><path d="M635.9,362.5H584.89a3,3,0,0,1,0-6H635.9a3,3,0,0,1,0,6Z" fill="#222433"/><path d="M670.35,388.086H584.89a3,3,0,0,1,0-6h85.46a3,3,0,1,1,0,6Z" fill="#222433"/><path d="M635.9,417.906H584.89a3,3,0,0,1,0-6H635.9a3,3,0,0,1,0,6Z" fill="#222433"/><path d="M635.9,443.5H584.89a3,3,0,0,1,0-6H635.9a3,3,0,0,1,0,6Z" fill="#222433"/><path d="M635.9,469.086H584.89a3,3,0,0,1,0-6H635.9a3,3,0,0,1,0,6Z" fill="#222433"/><path d="M635.9,494.687H584.89a3,3,0,0,1,0-6H635.9a3,3,0,0,1,0,6Z" fill="#222433"/><path d="M665.58,520.277H584.89a3,3,0,1,1,0-6h80.69a3,3,0,0,1,0,6Z" fill="#222433"/><path d="M635.9,550.1H584.89a3,3,0,0,1,0-6H635.9a3,3,0,0,1,0,6Z" fill="#222433"/><path d="M635.9,575.687H584.89a3,3,0,0,1,0-6H635.9a3,3,0,0,1,0,6Z" fill="#222433"/><path d="M635.9,601.277H584.89a3,3,0,1,1,0-6H635.9a3,3,0,1,1,0,6Z" fill="#222433"/><path d="M635.9,626.876H584.89a3,3,0,0,1,0-6H635.9a3,3,0,0,1,0,6Z" fill="#222433"/><path d="M665.58,652.466H584.89a3,3,0,0,1,0-6h80.69a3,3,0,0,1,0,6Z" fill="#222433"/><path d="M635.9,682.277H584.89a3,3,0,1,1,0-6H635.9a3,3,0,1,1,0,6Z" fill="#222433"/><path d="M635.9,707.876H584.89a3,3,0,0,1,0-6H635.9a3,3,0,0,1,0,6Z" fill="#222433"/><path d="M635.9,733.466H584.89a3,3,0,0,1,0-6H635.9a3,3,0,0,1,0,6Z" fill="#222433"/><path d="M635.9,759.057H584.89a3,3,0,0,1,0-6H635.9a3,3,0,0,1,0,6Z" fill="#222433"/><path d="M643.41,784.656H584.89a3,3,0,1,1,0-6h58.52a3,3,0,0,1,0,6Z" fill="#222433"/><path d="M635.9,814.466H584.89a3,3,0,0,1,0-6H635.9a3,3,0,0,1,0,6Z" fill="#222433"/><path d="M632.9,840.067H584.89a3,3,0,1,1,0-6H632.9a3,3,0,1,1,0,6Z" fill="#222433"/><path d="M629.9,865.656H584.89a3,3,0,1,1,0-6H629.9a3,3,0,1,1,0,6Z" fill="#222433"/><path d="M622.9,891.246H584.89a3,3,0,0,1,0-6H622.9a3,3,0,0,1,0,6Z" fill="#222433"/><path d="M614.8,916.836H584.89a3,3,0,0,1,0-6H614.8a3,3,0,0,1,0,6Z" fill="#222433"/><path d="M608.322,946.656H584.89a3,3,0,1,1,0-6h23.432a3,3,0,1,1,0,6Z" fill="#222433"/><path d="M624.841,972.246H584.89a3,3,0,0,1,0-6h39.951a3,3,0,0,1,0,6Z" fill="#222433"/><path d="M635.9,997.847H584.89a3,3,0,0,1,0-6H635.9a3,3,0,0,1,0,6Z" fill="#222433"/><path d="M819.835,999.465l31.79,27.65,57.23-.15a12.879,12.879,0,0,0,12.85-12.909c0-.164,0-.328-.01-.491-.51-12.58-5.83-20.47-28.97-30.06-30.37-12.59-26.869-59.681-23.46-80.32,5.3-32.074,24.41-110.857,33.766-148.768l-91.045-1.086L797.18,766.013,750.67,962.6Z" fill="#82b1ff"/><path d="M900.837,757.646h-.2l-88.691-1.314a3,3,0,0,1,.089-6l88.69,1.314h.116a7.889,7.889,0,0,0,7.877-7.765l.349-24.078a7.877,7.877,0,0,0-7.766-7.993l-83.36-1.208a3,3,0,0,1,.043-6h.044l83.36,1.208a13.88,13.88,0,0,1,13.678,14.079l-.349,24.078A13.9,13.9,0,0,1,900.837,757.646Z" fill="#222433"/><path d="M760.45,472.607a3,3,0,0,1-3-3.019l.5-81.9L641.164,297.3a2.932,2.932,0,0,1-.232-.2,50.2,50.2,0,0,1-6.55-65.544l63.58-90.79a50.586,50.586,0,0,1,35.33-21.173,3,3,0,1,1,.719,5.957,44.571,44.571,0,0,0-31.133,18.657L639.3,235a44.237,44.237,0,0,0,5.662,57.653l117.835,91.2a3,3,0,0,1,1.165,2.39l-.491,80.321,159.04-2.291a3,3,0,1,1,.086,6l-162.1,2.335Z" fill="#222433"/><path d="M793.412,297.005a3,3,0,0,1-1.75-.563l-55.311-39.709a3,3,0,0,1-.708-4.158l26.1-37.273a3,3,0,0,1,4.915,3.441l-24.4,34.845,51.574,37.026a42.525,42.525,0,0,1,15.926-2.707l2.772.062a3,3,0,0,1-.065,6H812.4l-2.773-.061a36.715,36.715,0,0,0-15.058,2.868A2.994,2.994,0,0,1,793.412,297.005Z" fill="#222433"/><path d="M949.093,609.4a3,3,0,0,1-2.638-4.426,41.808,41.808,0,0,0,4.842-23.713c-8.608-82.881-25.115-240.778-26.1-246.346a2.719,2.719,0,0,1-.057-.312c-2.866-22.156-20.617-38.588-42.21-39.072l-3.847-.085a3,3,0,0,1,.064-6h.068l3.848.085A49.052,49.052,0,0,1,914.42,302a51.222,51.222,0,0,1,16.673,31.828l-.022,0c1.627,10.814,18.758,175.211,26.2,246.844a47.817,47.817,0,0,1-5.534,27.144A3,3,0,0,1,949.093,609.4ZM925.207,334.94a1.89,1.89,0,0,0,.054.188C925.241,335.067,925.223,335,925.207,334.94Z" fill="#222433"/><circle cx="841.44" cy="170.136" r="7.51" fill="#222433"/><circle cx="884.4" cy="163.257" r="6.74" fill="#222433"/><path d="M789.76,232.546a35.381,35.381,0,0,1-33.222-47.494,3,3,0,0,1,5.636,2.059,29.365,29.365,0,0,0,49.242,29.9,3,3,0,1,1,4.424,4.053A35.453,35.453,0,0,1,789.76,232.546Z" fill="#222433"/><path d="M845.819,327.535A36.008,36.008,0,0,1,809.9,295.2l-5.459-51.19a61.793,61.793,0,0,1-7.094-15.317,3,3,0,1,1,5.738-1.754,55.872,55.872,0,0,0,6.768,14.389,2.993,2.993,0,0,1,.477,1.331l5.535,51.9a30.244,30.244,0,0,0,60.207-5.783l-1.88-22.553a3,3,0,0,1,1.953-3.064,56.07,56.07,0,0,0,21.619-90.833,3,3,0,0,1-.78-2.44c.244-1.843.4-3.688.46-5.481v-.04a55.757,55.757,0,0,0-8.823-32.449,3,3,0,0,1,5.048-3.242,61.715,61.715,0,0,1,9.77,35.941v.02c-.054,1.524-.167,3.08-.339,4.64a62.042,62.042,0,0,1-22.744,98.683l1.694,20.316a36.307,36.307,0,0,1-33.119,39.133C847.886,327.492,846.846,327.535,845.819,327.535Z" fill="#222433"/><path d="M821.955,196.886a3.091,3.091,0,0,1-.531-.047,3,3,0,0,1-2.419-2.4c-.015-.083-.028-.174-.037-.258a29.256,29.256,0,0,0-29.208-26.355c-.883,0-1.775.04-2.651.119a3.01,3.01,0,0,1-3.255-2.721c-.147-1.651,31.549-16.888,31.549-16.888,11.008-5.675,29.254-9.233,37.015-21.269,4.52-7.011-8.543-10.324-5.008-12.329,7.411-4.2,11.08-12.283,12.659-11.785A62.085,62.085,0,0,1,894.678,130.3a3,3,0,0,1-3.106,4.5l-49.64,6.884a20.317,20.317,0,0,0-17.277,22.644l2.459,18.632a19.4,19.4,0,0,1-2.588,12.476A3,3,0,0,1,821.955,196.886Z" fill="#5a38fd"/><path d="M821.949,196.878a3,3,0,0,1-2.981-2.7,29.256,29.256,0,0,0-29.208-26.355c-.883,0-1.775.04-2.651.119a3,3,0,0,1-.534-5.977c1.053-.094,2.124-.142,3.185-.142a35.24,35.24,0,0,1,35.178,31.749,3,3,0,0,1-2.682,3.288C822.153,196.873,822.05,196.878,821.949,196.878Z" fill="#222433"/><path d="M785.853,207.778a3,3,0,0,1-1.324-5.695l12.657-6.21-21.6-5.882a3,3,0,1,1,1.578-5.789l29.26,7.97a3,3,0,0,1,.532,5.588l-19.79,9.71A2.99,2.99,0,0,1,785.853,207.778Z" fill="#222433"/><path d="M878.919,227.033c-8.816,0-18.249-6.6-20.9-20.4a3,3,0,0,1,2.586-3.546l32.46-3.93A3,3,0,0,1,896.4,201.8c1.761,15.457-6.193,23.713-14.856,25.038A17.379,17.379,0,0,1,878.919,227.033Zm-14.222-18.4c2.925,9.223,9.935,13.19,15.941,12.268,4.931-.754,10.2-5.264,10.007-15.41Z" fill="#222433"/><path d="M872.212,187.947a3,3,0,0,1-1.729-5.454l7.54-5.309a2.559,2.559,0,0,0,.756-3.316l-6.167-11.194a3,3,0,1,1,5.255-2.894l6.17,11.2a8.56,8.56,0,0,1-2.552,11.1l-7.548,5.316A2.99,2.99,0,0,1,872.212,187.947Z" fill="#222433"/><path d="M812.988,719.513a3.005,3.005,0,0,1-2.9-3.764l31.13-118.422a3,3,0,0,1,5.8,1.526l-31.13,118.422A3,3,0,0,1,812.988,719.513Z" fill="#222433"/><path d="M700.32,738.95s-22.1,81.43-28.1,142.29c-2.65,26.9-22.61,70.42-22.61,70.42a35.63,35.63,0,0,0,26.26,42.93h0a35.6,35.6,0,0,0,14.39.49l8.41-1.44a29.442,29.442,0,0,1,24.33,6.81l30.79,26.65,58.328.1c7.1-.01,12.733-4.973,12.723-12.075,0-.167,0-.334-.011-.5-.52-12.62-5.83-20.5-28.98-30.1-30.37-12.59-27.46-52.57-21.44-77.93l32.867-148.981" fill="#82b1ff"/><path d="M800.705,762.833a13.887,13.887,0,0,1-2.889-.3L700.7,741.885a13.9,13.9,0,0,1-10.691-16.463l5.006-23.554a13.882,13.882,0,0,1,16.464-10.69h0l97.12,20.644a13.878,13.878,0,0,1,10.691,16.462l-5.006,23.554A13.906,13.906,0,0,1,800.705,762.833Zm-92.133-65.961a7.887,7.887,0,0,0-7.692,6.244l-5.006,23.554a7.889,7.889,0,0,0,6.069,9.346l97.121,20.643a7.886,7.886,0,0,0,9.346-6.069l5.006-23.554a7.88,7.88,0,0,0-6.069-9.345l-97.12-20.644h0A7.963,7.963,0,0,0,708.572,696.872Z" fill="#222433"/><path d="M747.824,191.148a35.2,35.2,0,0,1-15.953-3.818,35.8,35.8,0,0,1-17.792-43.358l1.082-3.135a35.632,35.632,0,0,1,11.57-16.477c5.825-4.625,14.543-10.78,22.975-16.732,5.816-4.105,11.309-7.983,15.633-11.2,16.877-12.548,65.335-29.193,83.292-23.476,4.98,1.585,6.882,4.548,7.6,6.754a8.938,8.938,0,0,1-.462,7.313,11.275,11.275,0,0,1-3.712,3.861,17.838,17.838,0,0,1,7.87,2.293,9.37,9.37,0,0,1,4.384,6.245c1.274,6.383-4.613,11.37-14.973,15.835a8.622,8.622,0,0,1,5.281,4.324,10.374,10.374,0,0,1,.645,8.443c-2.555,7.01-12.608,11.383-21.477,15.24-1.459.634-2.876,1.251-4.2,1.855l-.14.064c-24.3,11.075-38.97,17.76-49.405,30.626-5.528,6.766-14.309,12.01-24.1,14.395A35.269,35.269,0,0,1,747.824,191.148ZM839.36,77.754c-7.737,0-18.684,2-31.089,5.789-16.016,4.887-31.462,11.835-39.351,17.7-4.384,3.261-9.907,7.16-15.753,11.287-8.364,5.9-17.013,12.008-22.7,16.526a29.639,29.639,0,0,0-9.624,13.712l-.006.017-1.08,3.13a29.783,29.783,0,0,0,14.817,36.059,29.26,29.26,0,0,0,19.967,2.393c8.529-2.078,16.134-6.581,20.847-12.349,11.317-13.953,26.468-20.859,51.57-32.3l.139-.063c1.357-.619,2.807-1.25,4.3-1.9,7.378-3.209,16.56-7.2,18.232-11.792a4.387,4.387,0,0,0-.373-3.7c-1.935-3.849-14.667-1.338-26.459,1.661-3.253.89-6.629,1.782-10.1,2.687a3,3,0,0,1-1.543-5.8l.794-.215c3.694-1,7.348-2,10.879-2.883a216.324,216.324,0,0,0,21.84-6.989c3.429-1.368,14.557-6.144,13.761-10.131a3.339,3.339,0,0,0-1.664-2.321c-6.175-3.832-25.487.23-38.585,3.522q-4.08,1.057-8.628,2.262A3,3,0,0,1,808,98.26q2.907-.783,5.627-1.481,3.66-.956,6.978-1.809c16.2-4.182,27.912-7.2,29.9-10.837a2.994,2.994,0,0,0,.017-2.568c-.153-.471-.622-1.909-3.715-2.894A25.27,25.27,0,0,0,839.36,77.754ZM718,141.807h0Z" fill="#222433"/><path d="M729.1,268.246a3,3,0,0,1-2.314-4.907l9.02-10.95a3,3,0,0,1,4.631,3.814l-9.02,10.951A2.993,2.993,0,0,1,729.1,268.246Z" fill="#222433"/><path d="M785.408,408.256a2.985,2.985,0,0,1-1.841-.633l-24.451-19.032a3,3,0,1,1,3.685-4.734l24.452,19.032a3,3,0,0,1-1.845,5.367Z" fill="#222433"/><path d="M1282.713,505.388c-3.3-.817-54.857-12.676-53.546-13.689,64.591-49.887,71.588-44.982,74.223-43.14,7.594,5.316,3.386,31.323-4.868,52.37C1298.058,502.112,1285.045,507.533,1282.713,505.388Zm17.379-51.836Z" fill="#82b1ff"/><path d="M1083,1028.376a3,3,0,0,1-3-3v-9.12a45.124,45.124,0,0,1,45.048-45.069,10.005,10.005,0,0,0,9.388-6.649l51.762-202.06a3,3,0,0,1,5.813,1.488l-51.8,202.185c-.02.078-.043.154-.068.229a16.013,16.013,0,0,1-15.09,10.807A39.118,39.118,0,0,0,1086,1016.256v9.12A3,3,0,0,1,1083,1028.376Z" fill="#222433"/><path d="M1267.75,977.187a3,3,0,0,1-.02-6h.02a35.9,35.9,0,0,0,35.86-35.861v-13.7a3,3,0,0,1,6,0v13.686A41.91,41.91,0,0,1,1267.75,977.187Z" fill="#222433"/><path d="M1560.649,1002.324a89.05,89.05,0,0,1-38.712-8.847,3,3,0,1,1,2.608-5.4,83.069,83.069,0,0,0,57.028,5.569c20.344-5.259,37.359-17.671,47.917-34.951a70.613,70.613,0,0,0,7.8-55.623,78.374,78.374,0,0,0-38.342-48.1l-22.146-12a31.118,31.118,0,0,1-15.436-19.239,29.725,29.725,0,0,1,3.3-23.327l8.559-14.228c6.176-10.25,8.01-20.217,5.452-29.624-2.673-9.83-10.121-18.549-21.605-25.334L1523.9,778.68a71.47,71.47,0,0,0-7.852,56.017c5.4,19.855,18.676,36.387,37.386,46.553l23.38,12.7a31.4,31.4,0,0,1,15.609,19.973,29.721,29.721,0,0,1-4.322,23.93c-9.363,13.9-28.816,18.2-44.292,9.789a3,3,0,0,1,2.865-5.272c12.573,6.832,28.925,3.3,36.45-7.869a23.781,23.781,0,0,0,3.471-19.149,25.39,25.39,0,0,0-12.645-16.13l-23.38-12.7c-20.163-10.955-34.48-28.8-40.312-50.25a77.418,77.418,0,0,1,8.554-60.774q.053-.087.111-.171l34.79-49.779a3,3,0,0,1,3.891-.917c14.282,7.758,23.569,18.253,26.859,30.351,2.961,10.893.852,22.752-6.1,34.293L1569.8,803.5a23.77,23.77,0,0,0-2.646,18.658,25.172,25.172,0,0,0,12.508,15.539l22.146,12a84.407,84.407,0,0,1,41.274,51.813,76.557,76.557,0,0,1-8.472,60.308c-11.376,18.618-29.676,31.982-51.53,37.631A88.907,88.907,0,0,1,1560.649,1002.324Z" fill="#222433"/><g id="_Path_" data-name=" Path "><path d="M1450.16,1030.2a3,3,0,0,1,0-6c48.751,0,90.764-42.454,93.655-94.636a98.55,98.55,0,0,0-35.719-81.636,3.036,3.036,0,0,1-.281-.263l-184.43-196.07c-1.509-1.605-4.647-4.943-4.206-46.1.212-19.806,1.185-39.066,1.195-39.258a59.711,59.711,0,0,0-1.136-14,3,3,0,1,1,5.881-1.188,65.75,65.75,0,0,1,1.249,15.452c-1.857,36.414-1.831,76.651,1.423,81.023l184.263,195.889a104.567,104.567,0,0,1,37.751,86.491,111.288,111.288,0,0,1-30.539,69.932C1500.442,1019.413,1475.9,1030.2,1450.16,1030.2Z" fill="#222433"/></g><g id="_Path_2" data-name=" Path "><path d="M1248,1028.377a3,3,0,0,1-2.843-3.963l41.4-122.359a3,3,0,0,1,5.045-1.074l65.8,71.17a3,3,0,0,1-2.2,5.036H1322a39.114,39.114,0,0,0-39.07,39.069v9.12a3,3,0,0,1-6,0v-9.12A45.121,45.121,0,0,1,1322,971.187h26.341l-57.717-62.427-39.782,117.578A3,3,0,0,1,1248,1028.377Z" fill="#222433"/></g><g id="_Path_3" data-name=" Path "><path d="M1141.08,1028.376a3,3,0,0,1-3-3v-9.12a45.12,45.12,0,0,1,45.07-45.069,9.938,9.938,0,0,0,9.409-6.745l22.65-66.77a48.864,48.864,0,0,0,1.883-23.706l-9.543-56.388a118.282,118.282,0,0,1-22.449-69.531v-83.78c.491-20.34-2.668-26.174-18.78-34.752-3.6-1.918-3.6-1.918-6.348-3.237s-8.42-4.044-23.3-11.381c-17.425-8.592-26.669-22.325-25.362-37.675l2.324-41.145a3,3,0,0,1,3.311-2.814l41.7,4.415.565,0c16.129,0,21.447-5.933,31.9-17.588a230.549,230.549,0,0,1,18.245-18.645,41.982,41.982,0,0,1,39.7-9.293l14.07,4.158a107.207,107.207,0,0,1,18.72,5.579c1.881.637,3.757,1.368,5.577,2.175a3,3,0,0,1-2.432,5.486c-1.678-.745-3.409-1.418-5.143-2-.054-.018-.108-.038-.16-.059a101.17,101.17,0,0,0-17.869-5.321c-.089-.017-.177-.04-.263-.065l-14.18-4.191a35.942,35.942,0,0,0-33.985,7.977,222.4,222.4,0,0,0-17.81,18.208c-10.682,11.911-17.758,19.759-37.136,19.578-.1,0-.19-.007-.285-.017l-38.707-4.1-2.152,38.084c-1.548,18.2,14.892,28.349,22.032,31.87,14.851,7.323,20.519,10.045,23.242,11.353,2.832,1.36,2.893,1.391,6.571,3.349,19.366,10.312,22.468,19.062,21.959,40.121v83.707a112.334,112.334,0,0,0,21.714,66.572,2.988,2.988,0,0,1,.534,1.267l9.66,57.08a54.9,54.9,0,0,1-2.116,26.632l-22.651,66.773a15.936,15.936,0,0,1-15.09,10.817,39.114,39.114,0,0,0-39.071,39.069v9.12A3,3,0,0,1,1141.08,1028.376Z" fill="#222433"/></g><path d="M1360.87,977.187h-8.52a3,3,0,0,1,0-6h5.52v-58.12a92.4,92.4,0,0,1,92.29-92.29,3,3,0,0,1,0,6,86.388,86.388,0,0,0-86.29,86.29v61.12A3,3,0,0,1,1360.87,977.187Z" fill="#222433"/><circle cx="1230.21" cy="553.327" r="9.21" fill="#222433"/><circle cx="1197.63" cy="534.016" r="9.21" fill="#222433"/><path d="M1384.47,977.187h-27.59a3,3,0,0,1,0-6h27.59a3,3,0,0,1,0,6Z" fill="#222433"/><path d="M1289.4,906.018a3,3,0,0,1-2.789-4.105l7.23-18.28a59.462,59.462,0,0,0,2.371-36.623l-5.68-22.5a3,3,0,1,1,5.818-1.469l5.68,22.5a65.432,65.432,0,0,1-2.609,40.3l-7.23,18.281A3,3,0,0,1,1289.4,906.018Z" fill="#222433"/><polygon points="1138.32 538.587 1114.3 564.097 1116.63 536.286 1138.32 538.587" fill="#222433"/><path d="M1295.222,578.747a3,3,0,0,1-1.268-5.72c28.346-13.194,44.018-54.307,47.636-78.723,1.648-11.12.5-16.445-.373-17.436-1.01-.195-7.979-.122-41.288,23.645-18.16,12.958-35.155,26.541-35.324,26.676a3,3,0,1,1-3.749-4.684c.178-.143,18.049-14.426,36.805-27.742,34.741-24.664,43.1-25.565,46.951-22.862,3.208,2.249,4.4,8.277,3.554,17.919-1,11.3-5.281,29.828-14.323,47.961-6.9,13.839-18.982,32.132-37.357,40.685A3,3,0,0,1,1295.222,578.747Zm46.089-101.856Z" fill="#222433"/><path d="M1212.628,654.587a2.983,2.983,0,0,1-1.429-.364l-53.6-29.092a3,3,0,1,1,2.862-5.273l53.6,29.091a3,3,0,0,1-1.433,5.638Z" fill="#222433"/><rect x="1523.82" y="185.046" width="56.04" height="196.93" fill="#222433"/><rect x="1467.79" y="185.046" width="56.04" height="196.93" fill="#5a38fd"/><rect x="1467.79" y="219.417" width="56.04" height="33.6" fill="#82b1ff"/><rect x="1606.62" y="115.036" width="56.04" height="266.95" fill="#222433"/><rect x="1550.59" y="115.036" width="56.04" height="266.95" fill="#5a38fd"/><rect x="1550.59" y="148.576" width="56.04" height="36.47" fill="#82b1ff"/><rect x="1685.03" y="115.036" width="56.04" height="266.95" fill="#5a38fd"/><rect x="1628.99" y="115.036" width="56.04" height="266.95" fill="#82b1ff"/><rect x="1628.99" y="148.576" width="64.015" height="36.47" fill="#5a38fd"/><path d="M1813.96,384.977H1299.9a3,3,0,0,1,0-6h514.06a3,3,0,0,1,0,6Z" fill="#222433"/><path d="M907.421,713.772c-.063,0-.126,0-.19-.006a3,3,0,0,1-2.807-3.181l14.99-240.153-155.557,2.155c-11.341,13.593-15.987,26.919-15.987,45.65a79.759,79.759,0,0,0,.871,11.709,2.988,2.988,0,0,1-.049,1.138l-39.047,163.65a3,3,0,0,1-5.836-1.393l38.913-163.09a85.7,85.7,0,0,1-.852-12.014c0-20.78,5.3-35.435,18.3-50.584a3,3,0,0,1,2.235-1.046l160.16-2.22a2.96,2.96,0,0,1,2.214.931,3,3,0,0,1,.822,2.255L910.412,710.958A3,3,0,0,1,907.421,713.772Z" fill="#222433"/><path d="M284.732,617.706a3,3,0,0,1-3-2.879l-16.624-411.96a3,3,0,1,1,6-.242l16.625,411.96a3,3,0,0,1-2.877,3.118Q284.794,617.706,284.732,617.706Z" fill="#222433"/><path d="M935.151,714.919c-.1,0-.2,0-.307,0-9.754-.309-12.432-16.281-13.517-38.889-3.227,7.842-6.5,14.748-10.68,18.132a3,3,0,1,1-3.775-4.664c3.888-3.147,7.678-12.628,11.022-20.992,1.04-2.6,2.115-5.292,3.18-7.769a3,3,0,0,1,5.755,1.1c.275,10.218.618,22.935,2.087,32.584,2.03,13.337,5.2,14.47,6.119,14.5a2.974,2.974,0,0,0,2.329-.97c6-6.024,5.011-33.631,4.638-44.024a3,3,0,0,1,5.934-.727c1.775,8.417,2.975,15.657,4.035,22.044,2.511,15.145,3.887,22.422,7.772,22.077a2.813,2.813,0,0,0,2.053-1.295c4.271-5.5,4.571-24.638.745-47.617a3,3,0,1,1,5.919-.985c1.6,9.619,6.195,41.82-1.924,52.281a8.83,8.83,0,0,1-6.279,3.594c-7.9.681-10.467-6.338-12.743-18.57-.969,8.952-2.891,14.437-5.9,17.457A8.959,8.959,0,0,1,935.151,714.919Z" fill="#222433"/><path d="M949.09,609.392a3,3,0,0,1-2.767-1.839c-4.519-10.76-8.641-19.761-14.069-28.722-3.216-5.315-8.369-8.1-15.315-8.291a3,3,0,0,1,.161-6c8.992.241,16.007,4.109,20.287,11.182a222.526,222.526,0,0,1,14.468,29.5,3,3,0,0,1-2.765,4.163Z" fill="#222433"/><path d="M968.15,660.918c-5.906,0-14.288-7.1-28.261-23.784a3,3,0,0,1,4.6-3.852c17.522,20.928,22.675,21.833,23.831,21.623a1.447,1.447,0,0,0,.619-.212c1.316-2.119-5.153-13.676-9.435-21.325a262.257,262.257,0,0,1-13.181-25.81,3,3,0,1,1,5.528-2.332,257.694,257.694,0,0,0,12.889,25.212c7.269,12.987,12.072,21.566,9.632,26.793a6.413,6.413,0,0,1-4.938,3.569A6.855,6.855,0,0,1,968.15,660.918Z" fill="#222433"/><path d="M1823.96,1030.2h-1716a3,3,0,0,1,0-6h1716a3,3,0,0,1,0,6Z" fill="#222433"/><path d="M824.828,1017.62a3,3,0,0,1-3-2.877c-.46-11.167-4.638-18.124-27.132-27.452-34.948-14.488-27.874-61.748-23.21-81.394l32.857-148.934a3,3,0,0,1,5.859,1.293L777.339,907.237c-4.319,18.2-11.028,61.79,19.66,74.511,22.424,9.3,30.2,17.564,30.829,32.749a3,3,0,0,1-2.874,3.12Q824.891,1017.62,824.828,1017.62Z" fill="#222433"/><path d="M922.606,470.387a3,3,0,0,1-2.974-2.635l-5.058-41.288a3,3,0,1,1,5.955-.73l5.058,41.288a3,3,0,0,1-2.612,3.342A2.879,2.879,0,0,1,922.606,470.387Z" fill="#222433"/></svg>