<?xml version="1.0" encoding="UTF-8"?><svg version="1.1" id="Layer_1" xmlns="http://www.w3.org/2000/svg" xmlns:xlink="http://www.w3.org/1999/xlink" x="0px" y="0px" viewBox="0 0 1920 1080" style="enable-background:new 0 0 1920 1080;" xml:space="preserve" width="1920px" height="1080px">

<g>
	<path d="M1067.8,673.9c-0.4,0-0.8-0.1-1.2-0.2c-15.2-6.5-31.7-13.1-49.3-19.6c-2-0.7-3.4-1.3-3.4-3.4c0-1.7,1.3-3,3-3
		c0.4,0,0.8,0.1,1.2,0.3c0.2,0.1,0.6,0.2,1.3,0.5c17.6,6.6,34.3,13.2,49.5,19.7c1.5,0.6,2.2,2.4,1.6,3.9
		C1070.1,673.2,1068.9,673.9,1067.8,673.9z M1019.9,650.7L1019.9,650.7L1019.9,650.7z" style="fill:#222433;"/>
</g>
<g>
	<path d="M1067.1,761.9c0,0-0.1,0-0.1,0c-9.1-0.1-18.3-10.1-26.5-18.9c-1.4-1.5-2.8-3-4.1-4.3
		c-15.6-16.2-30.8-13.2-46.9-9.9c-6.9,1.4-14.1,2.8-21.1,2.4c-11.2-0.6-16-5.6-23.2-13.2c-0.7-0.8-1.5-1.6-2.3-2.4
		c-1.1-1.2-1.1-3.1,0.1-4.2c1.2-1.1,3.1-1.1,4.2,0.1c0.8,0.9,1.6,1.7,2.3,2.5c6.8,7.2,10.3,10.9,19.1,11.4c6.2,0.3,12.7-1,19.6-2.3
		c16.2-3.2,34.5-6.9,52.4,11.7c1.3,1.4,2.7,2.9,4.1,4.4c7,7.5,15.7,16.9,22.2,17c0,0,0,0,0.1,0c1.8,0,3.3-0.7,4.8-2.3
		c3.5-3.6-5.5-15.6-12.8-25.3c-3.2-4.3-6.5-8.7-9.4-13c-0.8-1.2-0.6-2.7,0.3-3.7c1-1,2.5-1.2,3.7-0.5c30.7,19,55.7,27.3,62.5,20.8
		c-0.4-1.2-3.5-6.3-24.5-19.7c-12.4-8-24.9-14.9-25-14.9c-1.4-0.8-2-2.6-1.2-4c0.8-1.4,2.6-2,4-1.2c0.2,0.1,16.7,8.6,33.6,15.7
		c31.2,12.9,34.5,8.7,34.5,8.7c0.2-0.3,0.3-0.7,0-1.5c-1-3.2-7.3-10.8-37.8-25.9c-1.5-0.7-2.1-2.5-1.4-4c0.7-1.5,2.5-2.1,4-1.4
		c16,7.9,37.7,19.6,40.8,29.5c0.7,2.2,0.5,4.3-0.5,6.2c-3.8,7.2-18.9,3.1-34.9-3.1c11.4,8.4,13.7,12.5,14.1,15.1
		c0.3,1.7-0.2,3.2-1.3,4.4c-10.2,11.1-38.6-1.5-58.2-12.3c0.3,0.5,0.7,0.9,1,1.4c10.4,13.8,19.3,25.8,12.3,33.1
		C1073.6,760.6,1070.6,761.9,1067.1,761.9z" style="fill:#222433;"/>
</g>
<path d="M906,517.8l-96.5-175.6l0,0c-9-22-30.2-38.1-55.9-39.1l-19.5-0.7c-2.1,18.3-17.4,29.3-35.8,26.7
	c-4.6-0.6-8.3-2.1-11.3-4.5c4.3,7.9,112.5,214.4,113.7,217.1c3.4,8.2,7.5,17.2,7.4,26.2l4.8,8.7c2.1,3.8,4.6,7.4,7.6,10.6
	l125.9,137.5l81.2-74.2L906,517.8z" style="fill:#82B1FF;"/>
<g>
	<path d="M889.2,523.8c-1.4,0-2.7-1-2.9-2.5c-0.3-1.6,0.8-3.2,2.4-3.5l16.8-3c1.6-0.3,3.2,0.8,3.5,2.4
		c0.3,1.6-0.8,3.2-2.4,3.5l-16.8,3C889.5,523.8,889.4,523.8,889.2,523.8z" style="fill:#222433;"/>
</g>
<g>
	<path d="M771.3,180.4c-0.1,0-0.1,0-0.2,0c-1.7-0.1-2.9-1.6-2.8-3.2c0.2-2.2,0.1-4.4-0.1-6.6
		c-1.8-22.8-21-40.5-43.9-40.2c-22.7,0.3-41.2,17.4-43.1,39.9c-0.1,1.7-1.6,2.9-3.2,2.7c-1.7-0.1-2.9-1.6-2.7-3.2
		c2.2-25.6,23.2-45.1,49-45.4c0.2,0,0.4,0,0.6,0c25.7,0,47.3,19.9,49.3,45.7c0.2,2.5,0.2,5.1,0.1,7.6
		C774.1,179.2,772.8,180.4,771.3,180.4z" style="fill:#222433;"/>
</g>
<path d="M759.3,135.9c-1-0.9-2-1.8-3.1-2.6c-9-7.1-20.1-10.9-31.6-10.9h-0.4c-23.5,0.2-43.4,16-49.4,37.9
	c-0.8,3-1.4,6-1.7,9.2c-0.1,0.7,0,1.5,0.3,2.1c0.7-1.4,2.1-2.5,4.2-2.5c2.6,0,4.1,1.6,4.6,3.5c0.2-0.4,0.4-0.7,0.6-1.2
	c5.3,2.4,13.3,8,13.4,20c0.1,15.8,3,0,3,0v-24.8c0-11.7,9.5-21.2,21.2-21.2h37.4c0,0,1.4-1.2,2-2.2
	C761.5,140.9,761.3,137.8,759.3,135.9z" style="fill:#5A38FD;"/>
<path d="M525.2,425.9c7.6,1.9,16,2.7,22.6,7.3c5.9,4.1,8.6,10.6,11.8,16.8c2.1,4.2,4.3,8.6,5.9,13.1l51.2-76.1H479
	l21.9,32.5C509.5,419.6,517,423.8,525.2,425.9z" style="fill:#5A38FD;"/>
<g>
	<path d="M483.3,446.9l-68.9,102.3L380,498.1c0-15.6,10.9-39.5,27.4-51.1C417.9,446.9,483.3,446.9,483.3,446.9z" style="fill:#5A38FD;"/>
</g>
<path d="M611.8,572.6c-2.8-7.6-6.7-14.8-9.7-22.3c-0.1-0.4-0.2-0.7-0.3-1h-92.5l68.2,101.2l0.6-19.6l11.9,3.2l28.7-42.6
	C616.2,585.2,614.1,578.9,611.8,572.6z" style="fill:#5A38FD;"/>
<path d="M399.7,826.8c-5.9,27.5-26.7,49.9-55.2,57.3l-82.8,24.1c-26.6,6.9-44.1,31.5-42,59.1l186.9-0.3l82.5-46.4
	l-0.5,46.3l58.1-0.1L546.6,846C545.6,846.3,401.1,827.6,399.7,826.8z" style="fill:#5A38FD;"/>
<g>
	<path d="M571.6,853.2c-0.1,0-0.2,0-0.4,0l-194.7-24.4c-1.5-0.2-2.6-1.5-2.6-3L373.8,513c-0.4-30.5,13.7-59.9,37.8-78.7
		c24.1-18.7,56.1-25.2,85.6-17.3l56.7,15.2c1.6,0.4,2.6,2.1,2.1,3.7c-0.4,1.6-2.1,2.5-3.7,2.1l-56.7-15.2
		c-27.7-7.4-57.8-1.3-80.4,16.3c-22.6,17.6-35.8,45.2-35.4,73.9l0.1,310.2l188.8,23.7l6.4-219c0-1.7,1.4-3,3.1-2.9
		c1.7,0,3,1.4,2.9,3.1l-6.5,222.3c0,0.8-0.4,1.6-1,2.2C573,852.9,572.3,853.2,571.6,853.2z" style="fill:#222433;"/>
</g>
<g>
	<path d="M496.5,280.9c0,0-0.4-13.3-13.4-20.4c-14.1-7.8-25.4-35.8,0.9-55c14.5-10.5,34.8-12.8,51.3-7.1
		c20.8,7.2,27.5,28.8,32.4,36.4c-1.5-16.9-10.8-32.9-26.5-42.3c-26.1-15.6-59.8-7.1-75.4,19l-59.5,99.4
		C411.8,310,496.5,280.9,496.5,280.9z" style="fill:#82B1FF;"/>
</g>
<g>
	<g>
		<path d="M1817.4,1019.7H100.5c-1.7,0-3-1.3-3-3s1.3-3,3-3h1716.9c1.7,0,3,1.3,3,3S1819,1019.7,1817.4,1019.7z" style="fill:#222433;"/>
	</g>
</g>
<g>
	<path d="M1020.6,1018.5c-74.1,0-134.4-60.3-134.4-134.4s60.3-134.4,134.4-134.4c74.1,0,134.4,60.3,134.4,134.4
		S1094.7,1018.5,1020.6,1018.5z M1020.6,755.7c-70.8,0-128.4,57.6-128.4,128.4s57.6,128.4,128.4,128.4S1149,954.9,1149,884.1
		S1091.4,755.7,1020.6,755.7z" style="fill:#222433;"/>
</g>
<g>
	<g>
		<g>
			<g id="SVGID_5_">
				<path d="M1121.3,777.4c-0.4,0-0.7-0.1-1.1-0.2c-1.5-0.6-2.3-2.4-1.7-3.9l3-7.6c8-20.7,31.9-32.9,53.3-27.2
					c3.7,1,7.8-0.4,10.3-3.5c0.2-0.3,0.5-0.5,0.7-0.7l115.7-73.2c17.6-11.2,31.9-26.7,41.4-45l13.2-25.3c0.8-1.5,2.6-2,4-1.3
					c1.5,0.8,2,2.6,1.3,4l-13.2,25.3c-10,19.2-25,35.6-43.6,47.3l-115.3,72.9c-4,4.6-10.4,6.7-16.2,5.1
					c-18.5-4.9-39.2,5.7-46.1,23.6l-3,7.6C1123.6,776.7,1122.5,777.4,1121.3,777.4z" style="fill:#222433;"/>
			</g>
		</g>
	</g>
	<g id="XMLID_17_">
		<path d="M1356.1,796.3c-3,0-6-0.4-9.1-1.2l-27.7-6.8c-1.6-0.4-2.6-2-2.2-3.6c0.4-1.6,2-2.6,3.6-2.2l27.8,6.8
			c15.5,4.2,31.4-5,35.6-20.5l8.6-30.5c0.5-1.6,2.1-2.5,3.7-2.1c1.6,0.5,2.5,2.1,2.1,3.7l-8.6,30.5
			C1385.7,786,1371.5,796.3,1356.1,796.3z" style="fill:#222433;"/>
	</g>
	<g>
		<g>
			<g id="SVGID_10_">
				<path d="M1620.4,902.1c-6.2,0-12.4-0.8-18.5-2.5c-16.3-4.4-30.5-14.4-40-28.3c-0.9-1.4-0.6-3.2,0.8-4.2
					c1.4-0.9,3.2-0.6,4.2,0.8c8.7,12.7,21.8,21.9,36.7,25.9c16.6,4.5,33.9,2.3,48.7-6.2c14.8-8.4,25.4-22.4,30-39.2
					c4.6-17.1,2.2-35.5-6.5-50.6l-10.5-18.2c-7.5-13.2-3-29.9,10-37.4l12.3-7.1c18.5-10.6,25.3-33.7,16.2-52.6l-47.2,27.2
					c-30.9,17.9-41.6,57.6-23.7,88.5l11.1,19.2c3.7,6.5,4.7,14.3,2.5,21.5c-2.1,7.2-7,13.1-13.8,16.6c-12.7,6.6-29.1,1.5-36.5-11.3
					l-2.7-4.8c-0.8-1.5-0.3-3.3,1.2-4.1c1.5-0.8,3.3-0.3,4.1,1.2l2.6,4.8c5.8,10,18.6,14,28.5,8.9c5.3-2.7,9.1-7.3,10.7-12.9
					c1.7-5.7,1-11.7-2-16.8l-11.1-19.2c-19.5-33.8-7.9-77.2,25.9-96.7l49.9-28.8c0.7-0.4,1.5-0.5,2.3-0.3c0.8,0.2,1.4,0.7,1.8,1.4
					c6.2,10.8,7.9,23.3,4.6,35.3c-3.2,12-10.9,22-21.6,28.2l-12.3,7.1c-10.2,5.8-13.7,18.9-7.8,29.2l10.5,18.2
					c9.5,16.5,12.1,36.6,7.1,55.2c-5,18.4-16.6,33.6-32.8,42.8C1644.4,899,1632.5,902.1,1620.4,902.1z" style="fill:#222433;"/>
			</g>
		</g>
	</g>
	<g>
		<g>
			<g>
				<path d="M1524.3,882.8c-6.3,0-12.6-0.7-18.8-2c-1.6-0.3-2.7-1.9-2.3-3.6c0.3-1.6,1.9-2.7,3.6-2.3
					c19.4,4.2,39.5,1.3,56.5-8.1c17.1-9.4,29.9-24.9,36-43.5c8.4-25.5,4.8-51.9-9.9-72.3c-0.1-0.2-0.2-0.3-0.3-0.5L1497,548
					c-25.3-56.1-60.1-106.5-103.3-149.8c-15.7-14.4-39.5-16.6-57.7-5.5c-0.1,0-0.1,0.1-0.2,0.1c-4.1,2.1-8.4,4.9-12.7,8.4
					c-0.2,0.1-0.3,0.2-0.5,0.3l0,0c-13.4,8.9-21.9,24-22.7,40.4c-1.3,26.3-12.6,50.9-31.6,69.2l-22.8,21.9l15.2,15.2
					c9.3,9.3,26,11,37.1,3.7l51-33.7c1.4-0.9,3.2-0.5,4.2,0.8c0.9,1.4,0.5,3.2-0.8,4.2l-51,33.7c-13.4,8.8-33.4,6.8-44.7-4.5
					l-17.4-17.4c-0.6-0.6-0.9-1.3-0.9-2.2c0-0.8,0.3-1.6,0.9-2.1l25-24c17.9-17.3,28.5-40.4,29.8-65.2c1-18.3,10.5-35.2,25.5-45.1
					c0.1,0,0.2-0.1,0.2-0.1c4.5-3.6,9-6.5,13.4-8.8c20.5-12.5,47.1-9.9,64.8,6.3c0,0,0.1,0.1,0.1,0.1c43.8,43.8,79,94.8,104.6,151.6
					l92,202.2c15.6,22,19.5,50.2,10.5,77.4c-6.6,20.1-20.4,36.7-38.8,46.9C1553.4,879.2,1539,882.8,1524.3,882.8z" style="fill:#222433;"/>
			</g>
			<g id="SVGID_6_">
				<path d="M1347.5,838.2c-0.2,0-0.5,0-0.7-0.1c-1.6-0.4-2.6-2-2.2-3.6l1.2-4.9c5.4-20,26.1-32,46.1-26.7l37,9.7
					c-8.2-7.7-19.6-19.7-25.7-32.1c-7.2-14.5-9.5-28.8-10.2-36.2l-120.1,73.1c-1.4,0.9-3.3,0.4-4.1-1c-0.9-1.4-0.4-3.3,1-4.1
					l124.3-75.6c0.9-0.6,2.1-0.6,3-0.1c0.9,0.5,1.5,1.5,1.5,2.6c0,0.2,0.3,19.5,9.9,38.7c9.6,19.3,33.5,38.4,33.8,38.6
					c1.1,0.9,1.5,2.4,0.8,3.7c-0.6,1.3-2.1,1.9-3.4,1.6l-49.3-12.9c-16.8-4.5-34.2,5.6-38.7,22.4l-1.2,4.9
					C1350.1,837.3,1348.8,838.2,1347.5,838.2z" style="fill:#222433;"/>
			</g>
			<g id="SVGID_7_">
				<path d="M1182.8,793.8c-0.4,0-0.9-0.1-1.3-0.3c-1.5-0.7-2.1-2.5-1.4-4l2-4.2c0-0.1,0.1-0.1,0.1-0.2
					c5.7-9.9,13.5-17.7,22.1-21.9c9.8-4.8,19.9-4.9,29.2-0.3c3.2,1.5,7.3,0.8,10.1-1.7c0.1-0.1,0.2-0.1,0.2-0.2l86.6-64.5
					c5.4-5,9.3-10.9,11.9-17.5c0.6-5.7,6.5-61.1,10.6-76.7l16.4-61.1c0.4-1.6,2.1-2.5,3.7-2.1c1.6,0.4,2.5,2.1,2.1,3.7l-16.4,61.1
					c-4.2,15.6-10.5,75.5-10.5,76.1c0,0.3-0.1,0.5-0.2,0.7c-2.9,7.7-7.5,14.5-13.7,20.2c-0.1,0.1-0.2,0.1-0.3,0.2l-86.6,64.5
					c-4.6,4.2-11.3,5.2-16.7,2.6c-12.4-6.2-30.7-2.5-43.4,19.7l-1.9,4.1C1185,793.2,1183.9,793.8,1182.8,793.8z" style="fill:#222433;"/>
			</g>
		</g>
	</g>
	<polygon points="1254,520.5 1257.3,549.2 1241.1,532.9 	" style="fill:#222433;"/>
	<g>
		<path d="M1475.7,832.1c-0.3,0-0.6,0-0.8-0.1l-35.3-10.4c-1.6-0.5-2.5-2.1-2-3.7c0.5-1.6,2.1-2.5,3.7-2l26,7.7
			c-6.9-9.8-16.2-28.4-12.2-52.8c2.7-16.5,13.9-32.3,30.8-43.2c19.2-12.4,42.7-16.5,62.9-11.1c1.6,0.4,2.5,2.1,2.1,3.7
			c-0.4,1.6-2.1,2.6-3.7,2.1c-18.6-5-40.4-1.1-58.1,10.3c-15.4,10-25.7,24.2-28.1,39.1c-5.5,33,16.6,55.1,16.8,55.3
			c1,1,1.2,2.5,0.5,3.7C1477.7,831.5,1476.7,832.1,1475.7,832.1z" style="fill:#222433;"/>
	</g>
	<circle cx="1322.1" cy="451" r="8.5" style="fill:#222433;"/>
	<g>
		<path d="M1367.4,545.9c-3,0-6-0.8-8.7-2.3c-5.9-3.2-9.4-9.2-9.4-15.9V405.5c0-1.7,1.3-3,3-3s3,1.3,3,3v122.3
			c0,4.5,2.3,8.4,6.3,10.6c3.9,2.1,8.4,2,12.1-0.3l27.7-17.3c11.9-7.4,17.8-21.7,14.6-35.4l-17.2-68.6c-0.4-1.6,0.6-3.2,2.2-3.6
			c1.6-0.4,3.2,0.6,3.6,2.2l17.2,68.6c3.8,16.3-3.1,33.1-17.2,41.9l-27.7,17.3C1373.9,545,1370.7,545.9,1367.4,545.9z" style="fill:#222433;"/>
	</g>
	<g>
		<path d="M1395.6,742.1c-1,0-2-0.5-2.6-1.4c-0.9-1.4-0.4-3.3,1-4.1c29-17.6,29.4-44,29.6-53.9l0.3-23.5
			c0-1.6,1.4-3,3-3c0,0,0,0,0,0c1.7,0,3,1.4,3,3l-0.3,23.5c-0.3,17-3.9,41.6-32.4,58.9C1396.7,741.9,1396.1,742.1,1395.6,742.1z" style="fill:#222433;"/>
	</g>
</g>
<g>
	<path d="M1684.9,928.9c-0.3,0-0.5,0-0.8-0.1L577.4,631.4c-1.6-0.4-2.5-2.1-2.1-3.7c0.4-1.6,2.1-2.5,3.7-2.1L1685.7,923
		c1.6,0.4,2.5,2.1,2.1,3.7C1687.4,928,1686.2,928.9,1684.9,928.9z" style="fill:#222433;"/>
</g>
<g>
	<path d="M376.8,577.3c-0.3,0-0.5,0-0.8-0.1l-43.8-11.8c-1.6-0.4-2.5-2.1-2.1-3.7c0.4-1.6,2.1-2.5,3.7-2.1l43.8,11.8
		c1.6,0.4,2.5,2.1,2.1,3.7C379.3,576.5,378.1,577.3,376.8,577.3z" style="fill:#222433;"/>
</g>
<g>
	<path d="M705,333.6c-0.6,0-1.2,0-1.9,0c-5.9-0.3-10.8-1.7-15.5-4.4c-1.4-0.8-1.9-2.7-1.1-4.1c0.8-1.4,2.7-1.9,4.1-1.1
		c3.9,2.2,7.8,3.3,12.8,3.6c7.9,0.4,15.6-2.3,21.2-7.4c5.1-4.6,8.1-10.9,8.4-17.6l1.4-30.6c0.1-1.4,1-2.5,2.4-2.8
		c21.7-4.6,37.4-24.1,37.3-46.3c0-5.1-0.8-10.1-2.5-15c-0.5-1.6,0.3-3.3,1.9-3.8c1.6-0.5,3.3,0.3,3.8,1.9c1.9,5.5,2.8,11.2,2.8,17
		c0.1,24.3-16.5,45.7-39.8,51.7l-1.3,28.4c-0.4,8.3-4,16-10.3,21.7C722.3,330.4,713.8,333.6,705,333.6z" style="fill:#222433;"/>
</g>
<g>
	<path d="M673.8,300.1c0,0-0.1,0-0.1,0c-1.7-0.1-2.9-1.5-2.9-3.1l3.1-69.3c-0.1-0.7-0.1-1.5-0.2-2.2
		c-0.1-2.6-0.2-6.1-0.2-11.4c0-1.7,1.3-3,3-3c0,0,0,0,0,0c1.7,0,3,1.3,3,3c0,5.2,0,8.7,0.2,11.2c0,0.7,0.1,1.4,0.2,2.1
		c0,0.1,0,0.3,0,0.4l-3.1,69.5C676.7,298.8,675.4,300.1,673.8,300.1z" style="fill:#222433;"/>
</g>
<g>
	<path d="M726.9,276.3c-11.8,0-23.2-3.9-32.6-11.1c-1.3-1-1.6-2.9-0.5-4.2s2.9-1.6,4.2-0.5c9.4,7.2,21.1,10.7,32.9,9.7
		c2.3-0.2,4.2-0.5,6-0.9c1.6-0.4,3.2,0.6,3.6,2.2s-0.6,3.2-2.2,3.6c-2.1,0.5-4.2,0.8-6.8,1.1C729.9,276.3,728.4,276.3,726.9,276.3z" style="fill:#222433;"/>
</g>
<g>
	<path d="M780.5,209.7c-2.1,0-4.2-0.3-6.2-1c-1.6-0.5-2.4-2.2-1.9-3.8c0.5-1.6,2.2-2.4,3.8-1.9c1.4,0.5,2.8,0.7,4.3,0.7
		c7.2,0,13.1-5.9,13.1-13.1s-5.9-13.1-13.1-13.1c-5.6,0-10.5,3.5-12.4,8.8c-0.5,1.6-2.3,2.4-3.8,1.8c-1.6-0.5-2.4-2.3-1.8-3.8
		c2.7-7.7,9.9-12.8,18-12.8c10.5,0,19.1,8.6,19.1,19.1S791,209.7,780.5,209.7z" style="fill:#222433;"/>
</g>
<g>
	<path d="M762.7,216c-1,0-2.1-0.5-2.6-1.5c-0.8-1.4-0.3-3.3,1.1-4.1l11.6-6.7l-15.9-26.6c-0.9-1.4-0.4-3.3,1-4.1
		c1.4-0.9,3.3-0.4,4.1,1l17.5,29.2c0.4,0.7,0.5,1.5,0.3,2.3c-0.2,0.8-0.7,1.4-1.4,1.8l-14.3,8.2C763.7,215.8,763.2,216,762.7,216z" style="fill:#222433;"/>
</g>
<g>
	<path d="M761.4,239c-3.2,0-6.5-1.2-9-3.6l-1.3-1.3c-1.2-1.2-1.2-3.1,0-4.2c1.2-1.2,3.1-1.2,4.2,0l1.2,1.2
		c2.7,2.6,6.9,2.6,9.6,0l1.2-1.2c1.2-1.2,3.1-1.2,4.2,0c1.2,1.2,1.2,3.1,0,4.2l-1.2,1.2C767.9,237.7,764.7,239,761.4,239z" style="fill:#222433;"/>
</g>
<polygon points="543,693.5 474.1,795.8 405.2,693.5 " style="fill:#5A38FD;"/>
<path d="M305.5,355.3c-12.5-10-21.9-24.1-26.3-40.7l-24.1-83.4c-6.9-26.9-31.7-44.5-59.5-42.4l0.2,188.4l46.8,83.2
	l-46.7-0.5l0.1,58.6h161.2C351.9,510.6,305.5,355.8,305.5,355.3z" style="fill:#5A38FD;"/>
<polygon points="426.7,303.4 367.4,391.3 329.3,334.7 " style="fill:#5A38FD;"/>
<path d="M677.2,304.2L653,340.2l-58-86.2c29.1,0,57.3,13.5,75.6,37.6L677.2,304.2z" style="fill:#5A38FD;"/>
<polygon points="788.6,517.4 749.7,562.7 685.1,466.6 762,466.6 " style="fill:#5A38FD;"/>
<path d="M624.6,603.6c4.8,6.7,9.8,13.3,14.4,20.1c2.9,4.4,6,9.2,10.2,12.6c1.6,0.4,3.1,1.2,4.2,2.4l49.6-39.1h-80.4
	l1.6,3.5C624.3,603.2,624.4,603.4,624.6,603.6z" style="fill:#5A38FD;"/>
<g>
	<path d="M601.1,289.5c-6.2,0-12.8-3.7-15.5-5.3c-1.4-0.9-1.8-2.7-0.9-4.1c0.9-1.4,2.7-1.8,4.1-0.9
		c8,5,14.3,5.8,16.9,2.3c0,0,2.7-4.4-19.3-28c-11.8-12.5-24.5-24-24.7-24.2c-1.2-1.1-1.3-3-0.2-4.2c1.1-1.2,3-1.3,4.2-0.2
		c0.1,0.1,13.1,11.8,25,24.5c22.7,24.3,22.5,31.7,19.8,35.6C608.1,288.3,604.7,289.5,601.1,289.5z" style="fill:#222433;"/>
</g>
<g>
	<path d="M552.2,347.5c-12.2,0-18.7-22.6-25-53.8c-4.8,18.5-10.3,35.3-20.4,35.3c-0.1,0-0.2,0-0.3,0
		c-3.7-0.1-6.7-1.4-8.9-3.9c-5.4-6-4.8-17.4-4.1-28.5c0.2-3.5,0.4-6.8,0.4-9.9c0.1-14.2-5.8-18.6-12.5-23.7
		c-1.5-1.1-3.1-2.3-4.6-3.7c-12.6-11-14.4-33.7-3.8-47.6c0,0,0,0,0,0c1.3-1.7,2.5-3,3.6-4.2c11.3-11.9,27.3-17.8,43.9-16.2
		c16.9,1.6,31.9,10.8,41,25l1.1,1.7c3.1,4.7,45.1,86.5,34.5,112.9c-1.9,4.8-5.5,7.8-10.3,8.8c-0.9,0.2-1.8,0.3-2.6,0.3
		c-9.2,0-13.4-10.8-19.6-29.5c1.7,16.8,0.6,26.7-3.4,32.2c-1.9,2.7-4.6,4.2-7.8,4.6C553,347.5,552.6,347.5,552.2,347.5z M527.6,277
		C527.6,277,527.7,277,527.6,277c1.5,0,2.7,1.1,2.9,2.4l0.1,0.5c2.7,14.3,5.8,30.5,9.7,42.9c5.4,16.9,10,18.9,12.3,18.6
		c1.5-0.2,2.7-0.9,3.6-2.2c6.3-8.7,1.3-38.8-3-60.7c-0.3-1.5,0.6-3,2.1-3.5c1.5-0.4,3.1,0.4,3.6,1.8c4.1,10.8,7.2,20.1,10,28.3
		c7,20.9,10.3,30,16.6,28.8c2.8-0.6,4.6-2.2,5.8-5c3.8-9.4-0.6-31-12.3-60.7c-9.5-24-20.4-44.9-21.6-46.7c0,0,0-0.1-0.1-0.1
		l-1.1-1.7c-8.1-12.7-21.4-20.9-36.5-22.3c-14.7-1.4-28.9,3.8-39,14.4c-1,1-2,2.2-3.2,3.7c-8.6,11.4-7.2,30.5,3,39.4
		c1.4,1.2,2.8,2.3,4.3,3.4c7,5.3,15,11.3,14.9,28.5c0,3.2-0.2,6.8-0.4,10.2c-0.6,9.4-1.2,20,2.5,24.1c1.1,1.2,2.6,1.8,4.7,1.9
		c6.9,0.2,13.1-24.2,16.7-38.9c0.4-1.7,0.8-3.4,1.3-5C525,277.9,526.2,277,527.6,277z" style="fill:#222433;"/>
</g>
<g>
	<path d="M1010.1,709.6c-1.4,0-2.9-0.1-4.5-0.2c-1.7-0.1-2.9-1.6-2.7-3.2c0.1-1.7,1.6-2.9,3.2-2.7
		c10,0.8,15.2-1.5,21.8-4.5c10-4.5,22.4-10,55.3-8.1c10.6,0.6,14.8-2.4,15.3-5.3c0.4-2.7-1.8-5.7-4.8-6.5
		c-8.4-2.2-46.9-8.8-60.6-10.5c-1.6-0.2-2.8-1.7-2.6-3.4c0.2-1.6,1.7-2.8,3.4-2.6c12.9,1.6,52,8.2,61.4,10.7
		c6,1.5,10.2,7.5,9.3,13.3c-1.7,10.7-16.9,10.7-21.6,10.4c-31.4-1.8-43.1,3.4-52.5,7.6C1024.2,707.2,1018.8,709.6,1010.1,709.6z" style="fill:#222433;"/>
</g>
<g>
	<path d="M726.6,188.1c-0.3,0-0.5,0-0.8-0.1L687,177.4c-1.6-0.4-2.5-2.1-2.1-3.7c0.4-1.6,2.1-2.5,3.7-2.1l38.9,10.6
		c1.6,0.4,2.5,2.1,2.1,3.7C729.2,187.2,728,188.1,726.6,188.1z" style="fill:#222433;"/>
</g>
<g>
	<path d="M674.6,216.2c-13.6,0-24.6-11-24.6-24.6s11-24.6,24.6-24.6s24.6,11,24.6,24.6S688.2,216.2,674.6,216.2z
		 M674.6,173c-10.3,0-18.6,8.3-18.6,18.6s8.3,18.6,18.6,18.6s18.6-8.3,18.6-18.6S684.8,173,674.6,173z" style="fill:#222433;"/>
</g>
<g>
	<path d="M725.5,235.4c-0.8,0-1.5-0.3-2.1-0.8c-1.2-1.2-1.2-3.1-0.1-4.2c5.9-6,5.7-16.5-0.3-22.4
		c-1.2-1.2-1.2-3.1-0.1-4.2c1.2-1.2,3.1-1.2,4.2-0.1c8.5,8.2,8.7,22.4,0.5,30.8C727.1,235.1,726.3,235.4,725.5,235.4z" style="fill:#222433;"/>
</g>
<g>
	<path d="M670.1,201.1c-1.2,0-2.3-0.7-2.8-1.9c-0.6-1.5,0.2-3.3,1.7-3.9l8.1-3.2l-11.4-7.5c-1.4-0.9-1.8-2.8-0.9-4.2
		s2.8-1.8,4.2-0.9l16.2,10.7c0.9,0.6,1.4,1.7,1.3,2.8s-0.8,2.1-1.9,2.5l-13.5,5.3C670.8,201,670.5,201.1,670.1,201.1z" style="fill:#222433;"/>
</g>
<g>
	<path d="M578.1,632.3C578.1,632.3,578.1,632.3,578.1,632.3c-1.7,0-3-1.4-3-3l0.1-41.9c0-1.7,1.3-3,3-3c0,0,0,0,0,0
		c1.7,0,3,1.4,3,3l-0.1,41.9C581.1,630.9,579.7,632.3,578.1,632.3z" style="fill:#222433;"/>
</g>
<g>
	<path d="M741.8,209.7c-10.5,0-19.1-8.6-19.1-19.1s8.6-19.1,19.1-19.1s19.1,8.6,19.1,19.1S752.3,209.7,741.8,209.7z
		 M741.8,177.5c-7.2,0-13.1,5.9-13.1,13.1s5.9,13.1,13.1,13.1c7.2,0,13.1-5.9,13.1-13.1S749,177.5,741.8,177.5z" style="fill:#222433;"/>
</g>
<g>
	<path d="M768.2,182.1h-14.3c-1.7,0-3-1.3-3-3s1.3-3,3-3h14.3c1.7,0,3,1.3,3,3S769.8,182.1,768.2,182.1z" style="fill:#222433;"/>
</g>
<circle cx="747.5" cy="196.7" r="3.8" style="fill:#222433;"/>
<circle cx="786.2" cy="196.7" r="3.8" style="fill:#222433;"/>
<g>
	<path d="M553.1,438.1c-0.8,0-1.5-0.3-2.1-0.9c-0.9-0.9-1.2-2.3-0.6-3.5l14.8-29.7c0.7-1.5,2.5-2.1,4-1.3
		c1.5,0.7,2.1,2.5,1.3,4L559.9,428l16.8-8.9c1.5-0.8,3.3-0.2,4.1,1.2c0.8,1.5,0.2,3.3-1.2,4.1l-25.1,13.3
		C554.1,438,553.6,438.1,553.1,438.1z" style="fill:#222433;"/>
</g>
<g>
	<path d="M360,527.5c-1.3,0-2.4-0.8-2.9-2.1c-0.5-1.6,0.4-3.3,1.9-3.8l16.8-5.4c1.6-0.5,3.3,0.4,3.8,1.9
		c0.5,1.6-0.4,3.3-1.9,3.8l-16.8,5.4C360.6,527.4,360.3,527.5,360,527.5z" style="fill:#222433;"/>
</g>
<g>
	<path d="M321,868.5c-6.4,0-12.1-0.7-16.4-2.6c-23.4-10-34.3-37.1-24.4-60.4c4.8-11.4,13.8-20.2,25.3-24.8
		c11.4-4.6,23.9-4.4,35.2,0.4c22.7,9.6,49.5,66.8,50.6,69.2c0.4,0.8,0.4,1.7,0,2.4c-0.3,0.8-1,1.4-1.8,1.7
		C387.5,855.1,348,868.5,321,868.5z M322.6,783.4c-5,0-10.1,1-14.9,2.9c-10,4-17.8,11.7-22,21.6c-8.6,20.3,0.9,43.9,21.2,52.6
		c8.3,3.6,24.8,2.7,47.7-2.5c12.8-2.9,24.4-6.4,29.7-8.2c-2.5-5.1-7.9-15.8-14.7-27.1c-12.1-20.1-23-32.5-31.3-36.1c0,0,0,0,0,0
		C333.3,784.5,327.9,783.4,322.6,783.4z" style="fill:#222433;"/>
</g>
<g>
	<path d="M319,912.6c-8.9,0-17.6-2.6-25.1-7.6c-10.2-6.7-17.2-17-19.6-29c-4.9-24.7,11.1-48.9,35.7-53.9l0,0
		c24-4.9,78,26.7,80.3,28.1c0.7,0.4,1.2,1.2,1.4,2s0,1.7-0.5,2.4c-1.6,2.1-39.1,52.3-63,57.2C325.1,912.3,322,912.6,319,912.6z
		 M315.7,827.6c-1.7,0-3.2,0.1-4.5,0.4l0,0c-21.4,4.4-35.3,25.4-31.1,46.9c2.1,10.4,8.2,19.3,17,25.2c8.9,5.8,19.5,7.9,29.8,5.8
		c8.8-1.8,21.8-11.8,37.7-28.9c8.8-9.5,16.2-18.9,19.7-23.3c-4.9-2.8-15.4-8.5-27.3-13.8C339.1,831.8,325,827.6,315.7,827.6z
		 M310.6,825.1L310.6,825.1L310.6,825.1z" style="fill:#222433;"/>
</g>
<g>
	<path d="M294.4,354.4c-0.2,0-0.4,0-0.6-0.1c-0.8-0.2-1.5-0.7-2-1.4c-1.3-2.3-32.3-57.3-27-81.4
		c2.6-12,9.8-22.3,20.2-28.9c10.4-6.6,22.7-8.8,34.7-6.2c24.7,5.4,40.4,30,35.1,54.9c0,0,0,0,0,0c-5.3,24-56.4,61-58.6,62.6
		C295.6,354.2,295,354.4,294.4,354.4z M309.7,241.3c-7.6,0-15,2.2-21.5,6.3c-9,5.8-15.3,14.7-17.5,25.1c-1.9,8.9,1.9,25,11.2,46.5
		c5.2,12.1,10.8,22.7,13.5,27.7c4.5-3.4,14.1-10.7,23.8-19.5c17.4-15.7,27.7-28.6,29.6-37.5c4.7-21.6-9-43-30.5-47.7
		C315.5,241.6,312.6,241.3,309.7,241.3z M351.8,290.6L351.8,290.6L351.8,290.6z" style="fill:#222433;"/>
</g>
<g>
	<path d="M294.4,354.4c-0.6,0-1.1-0.2-1.6-0.5c-2.3-1.4-55.4-35.4-62.2-59.1c-6.8-24.5,7.5-50,31.9-56.8
		c24.4-6.8,49.9,7.5,56.8,31.9c0,0,0,0,0,0c6.6,23.7-21,80.4-22.2,82.8c-0.4,0.8-1.1,1.3-1.9,1.6
		C294.9,354.3,294.7,354.4,294.4,354.4z M274.9,242.3c-3.6,0-7.2,0.5-10.8,1.5c-10.3,2.9-18.8,9.6-24.1,18.9
		c-5.2,9.3-6.5,20.1-3.6,30.5c2.5,8.7,13.5,21.1,31.8,35.7c10.3,8.2,20.2,15,24.9,18.1c2.4-5.1,7.3-16.1,11.8-28.4
		c8-22,11-38.3,8.5-47.1C308.5,253.8,292.4,242.3,274.9,242.3z" style="fill:#222433;"/>
</g>
<g>
	<path d="M1666.9,779.3c-1.1,0-2.1-0.6-2.6-1.6l-12.5-23.1c-0.8-1.5-0.2-3.3,1.2-4.1c1.5-0.8,3.3-0.2,4.1,1.2l12.5,23.1
		c0.8,1.5,0.2,3.3-1.2,4.1C1667.9,779.2,1667.4,779.3,1666.9,779.3z" style="fill:#222433;"/>
</g>
<g>
	<g>
		<path d="M360,527.5c-1.3,0-2.4-0.8-2.9-2.1l-58.2-180.9c-0.5-1.6,0.4-3.3,1.9-3.8L495.6,278c1.6-0.5,3.3,0.4,3.8,1.9
			c0.5,1.6-0.4,3.3-1.9,3.8l-191.9,61.8l57.3,178c0.5,1.6-0.4,3.3-1.9,3.8C360.6,527.4,360.3,527.5,360,527.5z" style="fill:#222433;"/>
	</g>
	<g>
		<path d="M718.5,665.9c-8.3,0-16.7-1.1-24.9-3.3c-1.6-0.4-2.5-2.1-2.1-3.7c0.4-1.6,2.1-2.6,3.7-2.1
			c32.5,8.7,67.3-1.4,88.6-25.9c22.3-25.7,27.1-62,12.4-92.5l-128-245.2c-18.2-23.8-46.9-37.3-76.8-36.1c-1.7,0.1-3.1-1.2-3.1-2.9
			c-0.1-1.7,1.2-3.1,2.9-3.1c31.9-1.3,62.6,13.2,82,38.7c0.1,0.1,0.2,0.3,0.3,0.4l128.2,245.5c15.9,32.8,10.7,71.7-13.2,99.2
			C770.9,654.8,745.2,665.9,718.5,665.9z" style="fill:#222433;"/>
	</g>
	<g>
		<path d="M685.1,660.2c-0.3,0-0.6,0-0.8-0.1c-27.7-8.1-50-27.8-61.2-54l-72.7-169.8c-0.7-1.5,0.1-3.3,1.6-3.9
			c1.5-0.7,3.3,0.1,3.9,1.6l72.7,169.8c10.5,24.6,31.4,43,57.4,50.6c1.6,0.5,2.5,2.1,2,3.7C687.6,659.3,686.4,660.2,685.1,660.2z" style="fill:#222433;"/>
	</g>
</g>
</svg>