<?xml version="1.0" encoding="UTF-8"?><svg version="1.1" id="Layer_1" xmlns="http://www.w3.org/2000/svg" xmlns:xlink="http://www.w3.org/1999/xlink" x="0px" y="0px" viewBox="0 0 1920 1080" style="enable-background:new 0 0 1920 1080;" xml:space="preserve" width="1920px" height="1080px">

<g>
	<path d="M1178.5,842.2c-0.4,0-0.7-0.1-1.1-0.2l-16.9-6.7c-18.7-7.4-30.7-24.2-31.2-43.9c0-1.7,1.3-3,2.9-3.1
		c1.6,0,3,1.3,3.1,2.9c0.5,17.3,11,32,27.4,38.5l16.9,6.7c1.5,0.6,2.3,2.4,1.7,3.9C1180.8,841.5,1179.7,842.2,1178.5,842.2z" style="fill:#222433;"/>
</g>
<g>
	<path d="M951.9,656.1h-45.1c-1.7,0-3-1.3-3-3s1.3-3,3-3h45.1c1.7,0,3,1.3,3,3S953.5,656.1,951.9,656.1z" style="fill:#222433;"/>
</g>
<g>
	<path d="M917.5,730.1h-303c-22.1,0-40-17.9-40-40s17.9-40,40-40h303c10.7,0,20.7,4.2,28.3,11.7c1.2,1.2,1.2,3.1,0,4.2
		c-1.2,1.2-3.1,1.2-4.2,0c-6.4-6.4-15-10-24-10h-303c-18.7,0-34,15.3-34,34s15.3,34,34,34h303c3.2,0,6.3-0.4,9.3-1.3
		c1.6-0.5,3.3,0.5,3.7,2.1c0.5,1.6-0.5,3.3-2.1,3.7C924.9,729.6,921.3,730.1,917.5,730.1z" style="fill:#222433;"/>
</g>
<g>
	<path d="M1082.7,796.3c-1.6,0,72.3-259.7,72.3-259.7s13.5-2.3,25-7.9c8.1,26.9,24.6,89.2,35.4,117.4
		c-36.5-6.5-44.8,17.2-44.8,17.2c1-1.4,2,83.2,1,84.6l-31.6,45c-0.5,0.8-1.4,1.2-2.3,1.3l-54.9,2.2
		C1082.8,796.3,1082.7,796.3,1082.7,796.3z" style="fill:#5A38FD;"/>
</g>
<g>
	<path d="M1127.8,889.8c-1.6,0-2.9-1.3-3-2.9c-0.8-24.8-19.1-46.1-43.5-50.5c-0.2,0-0.4-0.1-0.7-0.2
		c-8.2-3.6-22.2-14.6-16.3-30.9l3.3-9.6c0.5-1.6,2.2-2.4,3.8-1.9c1.6,0.5,2.4,2.2,1.9,3.8l-3.3,9.6c-5.2,14.2,10.3,22.1,12.8,23.2
		c27,5.1,47.2,28.6,48.1,56.1C1130.9,888.3,1129.6,889.7,1127.8,889.8C1127.9,889.8,1127.9,889.8,1127.8,889.8z" style="fill:#222433;"/>
</g>
<g>
	<path d="M1267.7,472.2c-0.6,0-1.2-0.2-1.7-0.5c-1.4-0.9-1.7-2.8-0.8-4.2c2-2.9,3.4-6.2,4-9.6c0.1-0.8,0.6-1.4,1.2-1.9
		c5.5-3.9,9.3-10,10.3-16.7c1.7-10.5-2.3-20.9-10.2-26.6c-3.1-2.2-10.3-5.9-14-7.4c-18.5-7.7-43.9-13.6-57.8-13.4
		c-3,0-5.8,0.1-8.3,0.1c-21,0.2-28.1,0.3-44.7,3.7c-1.6,0.3-3.2-0.7-3.5-2.3c-0.3-1.6,0.7-3.2,2.3-3.5c17.2-3.6,25-3.7,45.9-3.9
		c2.6,0,5.3-0.1,8.3-0.1c0.2,0,0.5,0,0.7,0c14.7,0,40.6,6,59.5,13.9c3.9,1.6,11.6,5.5,15.2,8.1c9.7,7,14.6,19.7,12.6,32.4
		c-1.2,7.9-5.5,15.1-11.8,19.9c-0.9,3.9-2.5,7.5-4.7,10.8C1269.6,471.7,1268.7,472.2,1267.7,472.2z" style="fill:#222433;"/>
</g>
<g>
	<path d="M977.8,413.1c-1.4,0-2.7-1-2.9-2.5l-11.6-62.3c-0.3-1.6,0.8-3.2,2.4-3.5c1.6-0.3,3.2,0.8,3.5,2.4l11.6,62.3
		c0.3,1.6-0.8,3.2-2.4,3.5C978.1,413.1,977.9,413.1,977.8,413.1z" style="fill:#222433;"/>
</g>
<g>
	<path d="M958.5,421.9c-1.7,0-3-1.3-3-3v-30c0-1.7,1.3-3,3-3c1.7,0,3,1.3,3,3v30C961.5,420.6,960.2,421.9,958.5,421.9z" style="fill:#222433;"/>
</g>
<path d="M1162.2,409.6c-11-18.8-28.5-32.9-49.4-39.5c-21-6.7-43.6-5.2-63.6,4l-143.4,65.7c1.3,7.1,8.7,29.3,9.8,33.5
	c0.8-0.2,126.5-45.4,151.2-52.8c23.5-7,47.7-11.4,72.4-9.9c6.7,0.4,16.5-1.8,23.1,1.6C1162.3,410.7,1162.3,409.7,1162.2,409.6z" style="fill:#5A38FD;"/>
<g>
	<path d="M905.8,442.8c-1.1,0-2.2-0.6-2.7-1.8c-0.7-1.5,0-3.3,1.5-4l71.4-32.7c1.5-0.7,3.3,0,4,1.5c0.7,1.5,0,3.3-1.5,4
		l-71.4,32.7C906.7,442.7,906.2,442.8,905.8,442.8z" style="fill:#222433;"/>
</g>
<path d="M1145.1,533.4c-1.1,1.1-15,12.5-30.7,3.1c-8.5-5.1-11.8-20.9-11.9-21.2c-3,2-204.3,97.9-213.3,100.1
	c-11.3,2.8-31.3-4.3-42.2-8.1c-27.2-9.4-47.1-98.5-51.1-117.3c-0.2,0.1-0.3,0.2-0.4,0.2l-37.6,17.2c-1.5,0.7-2.2,2.5-1.5,4
	c0.5,1.1-0.6,86.2,0.5,86.2c-1.5,0.8-2,2.6-1.2,4.1c13.9,25.6,37.5,43.7,64.9,50.9c8.5,2.2,41.8,2,43.2,1.3l90.3-41.9L919,746.9
	c-0.4,1.5,0.5,3.1,2,3.6l158.9,52.5c0.3,0.1,0.6,0.2,0.9,0.2c0.5,0,1-0.1,1.4-0.4c0.7-0.4,1.3-1.1,1.5-1.9l71.3-264.3
	C1155.2,536.5,1146.8,534.6,1145.1,533.4z" style="fill:#5A38FD;"/>
<g>
	<path d="M757.9,510.6c-1.1,0-2.2-0.6-2.7-1.8c-0.7-1.5,0-3.3,1.5-4l37.6-17.2c1.5-0.7,3.3,0,4,1.5c0.7,1.5,0,3.3-1.5,4
		l-37.6,17.2C758.8,510.5,758.3,510.6,757.9,510.6z" style="fill:#222433;"/>
</g>
<g>
	<path d="M1083.7,803.9c-0.3,0-0.5,0-0.8-0.1c-1.6-0.4-2.5-2.1-2.1-3.7l71.3-264.3c0.4-1.6,2.1-2.5,3.7-2.1
		c1.6,0.4,2.5,2.1,2.1,3.7l-71.3,264.3C1086.3,803,1085.1,803.9,1083.7,803.9z" style="fill:#222433;"/>
</g>
<path d="M1325.2,263.2h416.5c-112,0-122.8-83.8-169.9-84.3s-65.6,60.2-115.1,46.5C1385.2,205.5,1356.4,256,1325.2,263.2
	z" style="fill:#82B1FF;"/>
<g>
	<path d="M335.2,1011c-1.4,0-2.6-0.9-2.9-2.3l-11.6-51.3c-0.4-1.6,0.7-3.2,2.3-3.6c1.6-0.4,3.2,0.7,3.6,2.3l11.6,51.3
		c0.4,1.6-0.7,3.2-2.3,3.6C335.7,1011,335.5,1011,335.2,1011z" style="fill:#222433;"/>
</g>
<g>
	<path d="M320.2,960.1c-10.3,0-18.7-8.4-18.7-18.7s8.4-18.7,18.7-18.7s18.7,8.4,18.7,18.7S330.6,960.1,320.2,960.1z
		 M320.2,928.7c-7,0-12.7,5.7-12.7,12.7s5.7,12.7,12.7,12.7s12.7-5.7,12.7-12.7S327.3,928.7,320.2,928.7z" style="fill:#222433;"/>
</g>
<g>
	<path d="M197.9,1011.6c-1.7,0-3-1.3-3-3V882.2c0-1.7,1.3-3,3-3s3,1.3,3,3v126.4
		C200.9,1010.3,199.5,1011.6,197.9,1011.6z" style="fill:#222433;"/>
</g>
<path d="M241.4,794.8c-5.7-1.2-11.2,2.5-12.3,8.1l0,0c1.2-5.7-2.5-11.2-8.1-12.3c-5.7-1.2-11.2,2.5-12.3,8.1l-10.8,51.8
	l-10.8-51.8c-1.2-5.7-6.7-9.3-12.3-8.1c-5.7,1.2-9.3,6.7-8.1,12.3c-1.2-5.7-6.7-9.3-12.3-8.1c-5.7,1.2-9.3,6.7-8.1,12.3l1.4,6.8
	l9.5,46c3.3,16.3,15.9,29,32.1,32.6v0.1l0,0c5.8,1.1,11.7,1.1,17.5,0l0,0v-0.1c16.2-3.6,28.8-16.3,32.1-32.6l9.4-46l1.4-6.8
	C250.7,801.4,247.1,795.9,241.4,794.8L241.4,794.8z" style="fill:#5A38FD;"/>
<g>
	<path d="M174.6,845.3c-1.4,0-2.6-1-2.9-2.4l-8.3-40.2c-0.3-1.6,0.7-3.2,2.3-3.5c1.6-0.3,3.2,0.7,3.5,2.3l8.3,40.2
		c0.3,1.6-0.7,3.2-2.3,3.5C175.1,845.3,174.8,845.3,174.6,845.3z" style="fill:#222433;"/>
</g>
<g>
	<path d="M221,845.3c-0.2,0-0.4,0-0.6-0.1c-1.6-0.3-2.7-1.9-2.3-3.5l8.3-40.2c0.3-1.6,1.9-2.7,3.5-2.3
		c1.6,0.3,2.7,1.9,2.3,3.5l-8.3,40.2C223.6,844.3,222.3,845.3,221,845.3z" style="fill:#222433;"/>
</g>
<g>
	<path d="M803.2,334.6H667.9c-1.7,0-3-1.3-3-3V165.7c0-1.7,1.3-3,3-3h165.9c1.7,0,3,1.3,3,3v155.6c0,1.7-1.3,3-3,3
		s-3-1.3-3-3V168.7H670.9v159.9h132.4c1.7,0,3,1.3,3,3S804.9,334.6,803.2,334.6z" style="fill:#222433;"/>
</g>
<g>
	<path d="M807.4,308.3H694.1c-1.7,0-3-1.3-3-3V192.1c0-1.7,1.3-3,3-3h113.2c1.7,0,3,1.3,3,3v113.2
		C810.4,307,809,308.3,807.4,308.3z M697.1,302.3h107.2V195.1H697.1V302.3z" style="fill:#222433;"/>
</g>
<g>
	<path d="M1225.5,610.5v-43c11.6-23.8,16.3-27.5,38.6-28.7c-0.8-1.4-0.3-3.3,1.1-4.1c1.4-0.8,3.3-0.3,4.1,1.1
		c14.1,24.3,12.6,55.1-3.7,78.4l-26,36.9C1239.1,651.9,1224.6,611.8,1225.5,610.5z" style="fill:#5A38FD;"/>
</g>
<g>
	<path d="M903,656.1H796.7c-1.7,0-3-1.3-3-3s1.3-3,3-3H903c1.7,0,3,1.3,3,3S904.6,656.1,903,656.1z" style="fill:#222433;"/>
</g>
<g>
	<path d="M1127.8,889.4" style="fill:none;stroke:#222433;stroke-width:6;stroke-linecap:round;stroke-linejoin:round;stroke-miterlimit:10;"/>
</g>
<g>
	<path d="M994.6,889.8c-0.6,0-1.2-0.2-1.8-0.6l-36.8-27l-6.5,18.3c-0.3,0.8-0.8,1.4-1.6,1.7c-0.7,0.3-1.6,0.4-2.3,0.1
		l-54.5-20.2c-1.6-0.6-2.3-2.3-1.8-3.9l40-108.3c0.6-1.6,2.3-2.3,3.9-1.8c1.6,0.6,2.3,2.3,1.8,3.9L896,857.6l48.8,18.1l6.9-19.2
		c0.3-0.9,1-1.6,1.9-1.9c0.9-0.3,1.9-0.1,2.7,0.4l40.1,29.4c1.3,1,1.6,2.9,0.6,4.2C996.5,889.4,995.5,889.8,994.6,889.8z" style="fill:#222433;"/>
</g>
<g>
	<path d="M758.4,475.4c0,0-0.1,0-0.1,0c-1.7-0.1-2.9-1.5-2.8-3.1l4.3-87.3c2.1-43.6,42.4-58.7,72.5-66.4l56.4-12.7
		c1.6-0.4,3.2,0.6,3.6,2.3s-0.6,3.2-2.3,3.6l-56.3,12.7c-44.8,11.4-66.4,30.7-67.9,60.8l-4.3,87.3
		C761.3,474.2,760,475.4,758.4,475.4z" style="fill:#222433;"/>
</g>
<g>
	<path d="M890.7,310.2c-0.9,0-1.8-0.4-2.4-1.2c-6.1-7.8-10.5-26.3-2.6-39.4c0.9-1.4,2.7-1.9,4.1-1
		c1.4,0.9,1.9,2.7,1,4.1c-6.8,11.2-2.2,27,2.2,32.6c1,1.3,0.8,3.2-0.5,4.2C892,310,891.3,310.2,890.7,310.2z" style="fill:#222433;"/>
</g>
<g>
	<path d="M988.8,236.3H968c-1.7,0-3-1.3-3-3s1.3-3,3-3h20.9c1.7,0,3,1.3,3,3S990.5,236.3,988.8,236.3z" style="fill:#222433;"/>
</g>
<g>
	<path d="M915.9,383.2c-9.1,0-17.8-3.3-24.7-9.4c-7-6.3-15.2-18.3-14.4-40.2c0.4-11.9,5-22.3,12.8-29.4l32.3-30.3
		c1.2-1.1,3.1-1.1,4.2,0.1c1.1,1.2,1.1,3.1-0.1,4.2l-32.3,30.3c-6.6,6-10.5,15-10.9,25.2c-0.7,19.6,6.4,30.1,12.4,35.5
		c6.9,6.2,16.2,8.9,25.5,7.5c6.1-0.9,11.8-3.5,16.5-7.5l27-23.7c0.9-0.8,2.2-1,3.3-0.5c7.7,3.7,15.9,5.6,24.5,5.6
		c30.2,0,55-23.6,56.5-53.8c0.1-1.7,1.5-2.9,3.1-2.8c1.7,0.1,2.9,1.5,2.8,3.1c-1.7,33.3-29.1,59.5-62.5,59.5
		c-8.8,0-17.3-1.8-25.3-5.3l-25.5,22.5c-5.6,4.8-12.4,7.8-19.5,8.9C919.7,383.1,917.8,383.2,915.9,383.2z" style="fill:#222433;"/>
</g>
<g>
	<path d="M1044.5,225.2c-1.4,0-2.7-1-3-2.5c-0.9-5.3-2.5-10.5-4.8-15.3c-0.7-1.5-0.1-3.3,1.4-4c1.5-0.7,3.3-0.1,4,1.4
		c2.5,5.4,4.3,11.1,5.3,16.9c0.3,1.6-0.8,3.2-2.5,3.4C1044.8,225.2,1044.6,225.2,1044.5,225.2z" style="fill:#222433;"/>
</g>
<g>
	<path d="M1056.9,263.7c-1.3,0-2.6-0.1-3.8-0.3c-1.6-0.3-2.7-1.8-2.5-3.4s1.8-2.7,3.4-2.5c0.9,0.2,1.9,0.2,2.8,0.2
		c9.5,0,17.1-7.7,17.1-17.1c0-9.5-7.7-17.1-17.1-17.1c-7.8,0-14.6,5.3-16.6,12.8c-0.4,1.6-2.1,2.6-3.7,2.1c-1.6-0.4-2.6-2.1-2.1-3.7
		c2.7-10.2,11.9-17.2,22.4-17.2c12.8,0,23.1,10.4,23.1,23.1S1069.6,263.7,1056.9,263.7z" style="fill:#222433;"/>
</g>
<g>
	<path d="M1033.8,279.6c-1.2,0-2.4-0.8-2.8-2c-0.5-1.6,0.3-3.3,1.9-3.8l21.1-7.2l-20.4-31.6c-0.9-1.4-0.5-3.2,0.9-4.1
		c1.4-0.9,3.2-0.5,4.1,0.9l22.5,34.8c0.5,0.8,0.6,1.7,0.3,2.6s-1,1.6-1.9,1.9l-24.7,8.5C1034.5,279.6,1034.2,279.6,1033.8,279.6z" style="fill:#222433;"/>
</g>
<g>
	<path d="M1033,313.1c-2.3,0-4.8-0.3-7.6-1c-10-2.6-13.6-10-15-15.8c-0.4-1.6,0.6-3.2,2.2-3.6c1.6-0.4,3.2,0.6,3.6,2.2
		c1.4,6.1,5,9.9,10.6,11.4c14.3,3.7,19-6,20.4-10.4c0.5-1.6,2.2-2.4,3.8-1.9c1.6,0.5,2.4,2.2,1.9,3.8
		C1052.2,300.5,1047.4,313.1,1033,313.1z" style="fill:#222433;"/>
</g>
<g>
	<path d="M1008.3,263.7c-1.8,0-3.5-0.2-5.3-0.6c-6-1.4-11.1-5.1-14.4-10.4s-4.3-11.5-2.8-17.5l0,0
		c2.9-12.4,15.4-20.1,27.8-17.2c12.4,2.9,20.1,15.4,17.2,27.8C1028.3,256.5,1018.8,263.7,1008.3,263.7z M991.6,236.6
		c-1.1,4.5-0.3,9.1,2.1,12.9c2.4,3.9,6.2,6.6,10.6,7.7c9.2,2.2,18.4-3.5,20.6-12.7c2.2-9.2-3.5-18.4-12.7-20.6
		C1003.1,221.7,993.8,227.4,991.6,236.6L991.6,236.6z" style="fill:#222433;"/>
</g>
<circle cx="1015" cy="241.2" r="6.3" style="fill:#222433;"/>
<circle cx="1064.8" cy="241.2" r="6.3" style="fill:#222433;"/>
<g>
	<path d="M995.1,356.3c-12.1,0-23.6-4.9-32.3-13.9c-10.3-10.7-15-25.8-12.4-40.4l7.2-41.7c0.3-1.6,1.8-2.7,3.5-2.4
		c1.6,0.3,2.7,1.8,2.4,3.5l-7.2,41.7c-2.3,12.9,1.7,25.7,10.8,35.2c8.8,9.1,21,13.4,33.4,11.7c0.7-0.1,1.3-0.2,1.9-0.3
		c1.6-0.3,3.2,0.8,3.5,2.5s-0.8,3.2-2.5,3.5c-0.6,0.1-1.3,0.2-2.1,0.3C999.3,356.2,997.2,356.3,995.1,356.3z" style="fill:#222433;"/>
</g>
<g>
	<path d="M1061.8,300.1c0,0-0.1,0-0.1,0l-51.5-1.7c-0.8,0-1.6-0.4-2.1-1s-0.8-1.4-0.8-2.2c0.2-6,2.8-11.6,7.1-15.7
		c4.4-4.1,10.1-6.2,16.1-6l12.6,0.4c6,0.2,11.6,2.8,15.7,7.1c4.1,4.4,6.2,10.1,6,16.1C1064.7,298.9,1063.4,300.1,1061.8,300.1z
		 M1013.6,292.5l45,1.5c-0.5-3.3-1.9-6.3-4.2-8.8c-3-3.2-7.1-5.1-11.5-5.2l-12.6-0.4c0,0,0,0,0,0c-4.4-0.2-8.5,1.4-11.8,4.4
		C1016,286.3,1014.3,289.3,1013.6,292.5z" style="fill:#222433;"/>
</g>
<g>
	<path d="M869.7,891.3C869.7,891.3,869.7,891.3,869.7,891.3c-1.7,0-3-1.4-3-3L867,835c0-36.8,13.7-72,38.5-99.2
		l9.8-10.7c1.1-1.2,3-1.3,4.2-0.2c1.2,1.1,1.3,3,0.2,4.2l-9.8,10.7C886.2,765.9,873,799.7,873,835l-0.3,53.3
		C872.7,890,871.4,891.3,869.7,891.3z" style="fill:#222433;"/>
</g>
<g>
	<path d="M598.1,793.5c-0.7,0-1.5-0.3-2-0.8c-1.2-1.1-1.3-3-0.2-4.2l3.5-3.8c14.5-15.7,22.6-36.2,22.8-57.6
		c0-1.7,1.4-3,3-3c1.7,0,3,1.4,3,3c-0.2,22.9-8.8,44.8-24.4,61.6l-3.5,3.8C599.8,793.2,599,793.5,598.1,793.5z" style="fill:#222433;"/>
</g>
<g>
	<path d="M1789.5,1012.5H115.1c-1.7,0-3-1.3-3-3s1.3-3,3-3h1674.4c1.7,0,3,1.3,3,3S1791.2,1012.5,1789.5,1012.5z" style="fill:#222433;"/>
</g>
<g>
	<path d="M1225.5,613.5c-1.7,0-3-1.3-3-3v-37.7c0-20.8,17-37.8,37.8-37.8c1.7,0,3,1.3,3,3s-1.3,3-3,3
		c-17.5,0-31.8,14.3-31.8,31.8v37.7C1228.5,612.1,1227.2,613.5,1225.5,613.5z" style="fill:#222433;"/>
</g>
<g>
	<path d="M1347.8,1009.5c-61.2,0-111-49.8-111-111c0-1.1,0-2.2,0-3.3c0-1.7,1.4-3,3.1-2.9c1.7,0,3,1.4,2.9,3.1
		c0,1,0,2.1,0,3.1c0,57.9,47.1,105,105,105s105-47.1,105-105c0-28.6-11.3-55.4-31.9-75.4c-1.2-1.2-1.2-3.1-0.1-4.2
		c1.2-1.2,3.1-1.2,4.2-0.1c21.7,21.1,33.7,49.4,33.7,79.7C1458.8,959.7,1409.1,1009.5,1347.8,1009.5z" style="fill:#222433;"/>
</g>
<g>
	<path d="M1347.8,959.5c-33.6,0-61-27.4-61-61s27.4-61,61-61s61,27.4,61,61S1381.5,959.5,1347.8,959.5z M1347.8,843.5
		c-30.3,0-55,24.7-55,55s24.7,55,55,55s55-24.7,55-55S1378.2,843.5,1347.8,843.5z" style="fill:#222433;"/>
</g>
<g>
	<path d="M1347.8,924.7c-14.4,0-26.2-11.8-26.2-26.2s11.8-26.2,26.2-26.2c14.4,0,26.2,11.8,26.2,26.2
		S1362.3,924.7,1347.8,924.7z M1347.8,878.3c-11.1,0-20.2,9.1-20.2,20.2s9.1,20.2,20.2,20.2c11.1,0,20.2-9.1,20.2-20.2
		S1359,878.3,1347.8,878.3z" style="fill:#222433;"/>
</g>
<g>
	<path d="M712.1,1009.5c-27.9,0-54.5-10.4-75.1-29.2c-20.4-18.7-33-44.2-35.5-71.6c-0.1-1.7,1.1-3.1,2.7-3.3
		c1.7-0.2,3.1,1.1,3.3,2.7c2.4,26,14.3,50,33.6,67.8c19.4,17.8,44.6,27.6,71,27.6c26.4,0,51.6-9.8,71-27.6
		c19.3-17.7,31.2-41.8,33.6-67.7c0.1-1.6,1.6-2.9,3.3-2.7c1.6,0.1,2.9,1.6,2.7,3.3c-2.5,27.5-15.1,52.9-35.5,71.6
		C766.7,999.2,740,1009.5,712.1,1009.5z" style="fill:#222433;"/>
</g>
<g>
	<path d="M712.1,959.5c-29.8,0-55.1-21.3-60.1-50.6c-0.3-1.6,0.8-3.2,2.5-3.5c1.6-0.3,3.2,0.8,3.5,2.5
		c4.5,26.5,27.3,45.6,54.2,45.6c26.9,0,49.7-19.2,54.2-45.6c0.3-1.6,1.8-2.7,3.5-2.4c1.6,0.3,2.7,1.8,2.4,3.5
		C767.2,938.2,741.9,959.5,712.1,959.5z" style="fill:#222433;"/>
</g>
<g>
	<path d="M712.1,924.7c-10.1,0-19.4-5.9-23.7-15c-0.7-1.5-0.1-3.3,1.4-4c1.5-0.7,3.3-0.1,4,1.4
		c3.3,7,10.5,11.6,18.3,11.6c7.8,0,15-4.5,18.3-11.6c0.7-1.5,2.5-2.1,4-1.4c1.5,0.7,2.1,2.5,1.4,4
		C731.5,918.8,722.2,924.7,712.1,924.7z" style="fill:#222433;"/>
</g>
<g>
	<path d="M554.7,891.4c-0.1,0-0.1,0-0.2,0c-1.7-0.1-2.9-1.5-2.8-3.2c5.3-82.8,74.5-147.6,157.6-147.6h5.9
		c83,0,152.2,64.8,157.6,147.5c0.1,1.7-1.1,3.1-2.8,3.2c-1.7,0.1-3.1-1.1-3.2-2.8c-5.2-79.6-71.8-141.9-151.6-141.9h-5.9
		c-79.9,0-146.5,62.4-151.6,142C557.6,890.2,556.2,891.4,554.7,891.4z" style="fill:#222433;"/>
</g>
<g>
	<path d="M868.3,878.5c-1.5,0-2.7-1.1-3-2.6c-5.4-36-23.6-68.8-51.1-92.5c-27.6-23.7-62.8-36.8-99.1-36.8h-5.9
		c-34.8,0-68.7,12-95.6,33.8c-1.3,1-3.2,0.8-4.2-0.4c-1-1.3-0.8-3.2,0.4-4.2c27.9-22.7,63.2-35.2,99.4-35.2h5.9
		c37.8,0,74.4,13.6,103,38.3c28.6,24.7,47.5,58.8,53.1,96.2c0.2,1.6-0.9,3.2-2.5,3.4C868.6,878.5,868.5,878.5,868.3,878.5z" style="fill:#222433;"/>
</g>
<g>
	<path d="M1218.8,901.4h-28.6c-1.7,0-3-1.3-3-3c0-87.1,70.8-157.9,157.9-157.9h5.9c56.2,0.1,108.6,30.4,136.7,79
		c0.5,0.9,0.5,2.1,0,3s-1.5,1.5-2.6,1.5h-136.3c-26.1,0-49.9,14.2-62.4,37.1C1272.9,886,1247,901.4,1218.8,901.4z M1193.2,895.4
		h25.6c26.1,0,49.9-14.2,62.4-37.1c13.5-24.8,39.4-40.3,67.6-40.3h131c-27.6-44.1-76.5-71.4-128.8-71.5h-5.9
		C1262.3,746.5,1194.8,813,1193.2,895.4z" style="fill:#222433;"/>
</g>
<g>
	<path d="M1218.8,901.4h-28.6c-1.7,0-3-1.3-3-3s1.3-3,3-3h28.6c26.1,0,49.9-14.2,62.4-37.1
		c13.5-24.8,39.4-40.3,67.6-40.3H1485c1.7,0,3,1.3,3,3s-1.3,3-3,3h-136.3c-26.1,0-49.9,14.2-62.4,37.1
		C1272.9,886,1247,901.4,1218.8,901.4z" style="fill:#222433;"/>
</g>
<g>
	<path d="M1260.3,540.9c-1.7,0-3-1.3-3-3v-69.6c0-1.7,1.3-3,3-3c20,0,36.2,16.2,36.2,36.2v3.2
		C1296.5,524.7,1280.3,540.9,1260.3,540.9z M1263.3,471.5v63.3c15.2-1.5,27.2-14.4,27.2-30.1v-3.2
		C1290.5,485.9,1278.6,473,1263.3,471.5z" style="fill:#222433;"/>
</g>
<g>
	<path d="M536.6,911.4c-7.2,0-13-5.8-13-13c0-7.2,5.8-13,13-13l578-0.2c22-0.1,42.2-12.2,52.7-31.6l28.3-52.6h0
		c-14.8,0-26.9-12.1-26.9-26.9V670c0-14.8,12.1-26.9,26.9-26.9h15.8l-34.2-113.5c-0.5-1.6,0.4-3.3,2-3.7c1.6-0.5,3.3,0.4,3.7,2
		l35.4,117.4c0.3,0.9,0.1,1.9-0.5,2.7c-0.6,0.8-1.5,1.2-2.4,1.2h-19.9c-11.5,0-20.9,9.4-20.9,20.9v104.1c0,11.5,9.4,20.9,20.9,20.9
		h5.1c1.1,0,2,0.6,2.6,1.5c0.5,0.9,0.6,2,0.1,3l-30.7,57.1c-11.5,21.3-33.7,34.6-57.9,34.7l-578.1,0.2c-3.9,0-7,3.1-7,7
		c0,3.9,3.1,7,7,7l578.1-0.2c29.4-0.1,56.3-16.2,70.2-42.1l61.1-113.7c7.5-14,9.1-30.6,4.5-45.6L1193,513c-0.5-1.6,0.4-3.3,2-3.7
		c1.6-0.5,3.3,0.4,3.7,2l57.5,190.8c5,16.5,3.2,34.8-5,50.2L1190.2,866c-15,27.8-43.9,45.1-75.5,45.2L536.6,911.4z" style="fill:#222433;"/>
</g>
<g>
	<g>
		<path d="M770.2,869.6H654.1c-7.2,0-13-5.8-13-13s5.8-13,13-13h116.1c7.2,0,13,5.8,13,13S777.4,869.6,770.2,869.6z
			 M654.1,849.6c-3.9,0-7,3.1-7,7s3.1,7,7,7h116.1c3.9,0,7-3.1,7-7s-3.1-7-7-7H654.1z" style="fill:#222433;"/>
	</g>
</g>
<g>
	<g>
		<path d="M770.2,828H654.1c-7.2,0-13-5.8-13-13s5.8-13,13-13h116.1c7.2,0,13,5.8,13,13S777.4,828,770.2,828z
			 M654.1,808c-3.9,0-7,3.1-7,7s3.1,7,7,7h116.1c3.9,0,7-3.1,7-7s-3.1-7-7-7H654.1z" style="fill:#222433;"/>
	</g>
</g>
<g>
	<path d="M805,523.8c-1.1,0-2.2-0.7-2.7-1.8c-0.7-1.5,0-3.3,1.5-4l108.1-48.4l-17.8-59.9c-0.5-1.6,0.4-3.3,2-3.7
		c1.6-0.5,3.3,0.4,3.7,2l18.5,62.5c0.4,1.4-0.3,3-1.6,3.6l-110.5,49.5C805.8,523.7,805.4,523.8,805,523.8z" style="fill:#222433;"/>
</g>
<g>
	<path d="M955.7,612.7c-1.2,0-2.3-0.7-2.7-1.8c-0.7-1.5,0-3.3,1.5-4l25.5-11.2c1.5-0.7,3.3,0,4,1.5c0.7,1.5,0,3.3-1.5,4
		l-25.5,11.2C956.5,612.6,956.1,612.7,955.7,612.7z" style="fill:#222433;"/>
</g>
<g>
	<g>
		<path d="M1236.9,470.6c-0.9,0-1.8-0.4-2.4-1.2c-1-1.3-0.7-3.2,0.6-4.2c4.3-3.2,7.1-7.8,8-13.1
			c0.8-5.3-0.5-10.6-3.6-14.9c-3.2-4.3-7.8-7.1-13.1-8c-5.3-0.8-10.6,0.5-14.9,3.6c-1.3,1-3.2,0.7-4.2-0.6c-1-1.3-0.7-3.2,0.6-4.2
			c5.6-4.1,12.5-5.8,19.3-4.7c6.9,1.1,12.9,4.7,17,10.3s5.8,12.5,4.7,19.3s-4.7,12.9-10.3,17
			C1238.2,470.4,1237.6,470.6,1236.9,470.6z" style="fill:#222433;"/>
	</g>
</g>
<g>
	<path d="M1260.2,541c-1.7,0-3-1.3-3-3v-66.7h-31.8c-6.4,0-12.6,1.9-17.9,5.5c-1.4,0.9-3.2,0.6-4.2-0.8
		c-0.9-1.4-0.6-3.2,0.8-4.2c6.3-4.3,13.6-6.6,21.3-6.6h34.8c1.7,0,3,1.3,3,3V538C1263.2,539.7,1261.9,541,1260.2,541z" style="fill:#222433;"/>
</g>
<g>
	<path d="M878.6,619c-0.2,0-0.4,0-0.7,0c-27.7,0-52.5-18.6-60.3-45.2l-20-67.7c-0.5-1.6,0.4-3.3,2-3.7
		c1.6-0.5,3.3,0.4,3.7,2l20,67.7c7.1,24.1,29.5,40.8,54.6,40.8c8.2,0.1,16.3-1.7,24.3-5.3l187.8-87.8c3.2-1.5,6.4-3.4,9.3-5.5
		c1-0.7,2.2-0.8,3.2-0.2c0.7,0.4,1,0.6,1.2,0.8c0.1,0.1,0.3,0.1,0.6,0.3c1.5,0.6,2.3,2.4,1.6,3.9c-0.6,1.5-2.4,2.3-3.9,1.6
		c-0.4-0.2-0.7-0.3-0.9-0.4c-2.8,1.9-5.7,3.5-8.7,4.9l-187.8,87.8C896.2,617.1,887.4,619,878.6,619z" style="fill:#222433;"/>
</g>
<g>
	<path d="M1155.8,538.8c-3.4,0-6.8-0.6-10.1-1.7c-1.6-0.5-2.4-2.2-1.9-3.8c0.5-1.6,2.2-2.4,3.8-1.9
		c5.4,1.9,11.4,1.8,16.8-0.2l13.6-5c9.2-3.4,15.6-11.9,16.4-21.6c0.3-3.9-0.3-7.8-1.8-11.5c-0.5-1.2-0.1-2.6,0.9-3.5
		c5.3-4.2,8.6-10.2,9.4-16.8c0.1-0.8,0.5-1.5,1.1-2c5.2-4.3,8.6-10.6,9.1-17.3c1-12.1-5.3-22.1-12-25.7c-3.4-1.8-9.9-4.9-14.6-6.6
		c-19.6-7.5-44.8-10.3-58.6-9.1c-2.9,0.2-5.7,0.5-8.2,0.7c-26.3,2.2-31.1,2.6-59.6,11.6c-0.1,0-0.1,0-0.2,0
		c-3,0.9-95.3,32.9-143.7,49.7c-1.6,0.5-3.3-0.3-3.8-1.8c-0.5-1.6,0.3-3.3,1.8-3.8c14.3-5,138.1-48,144.1-49.8l0,0
		c29.1-9.2,34.6-9.7,60.9-11.9c2.5-0.2,5.2-0.4,8.2-0.7c14.5-1.2,40.8,1.7,61.2,9.5c4.9,1.9,11.7,5.1,15.2,7
		c8.5,4.5,16.4,16.8,15.2,31.5c-0.7,7.9-4.4,15.4-10.4,20.7c-1.1,7.1-4.5,13.4-9.8,18.2c1.3,3.9,1.8,8.1,1.4,12.2
		c-1,12.1-9,22.6-20.4,26.8l-13.6,5C1163,538.2,1159.4,538.8,1155.8,538.8z" style="fill:#222433;"/>
</g>
<g>
	<path d="M1083,513.3c-1.2,0-2.4-0.8-2.8-2c-0.5-1.6,0.3-3.3,1.8-3.8c5.2-1.8,10.3-4.3,15.6-7
		c17.2-8.6,36.7-18.2,63.1-1.9c1.4,0.9,1.8,2.7,1,4.1c-0.9,1.4-2.7,1.8-4.1,1c-23.6-14.6-40-6.4-57.3,2.2
		c-5.3,2.6-10.8,5.4-16.3,7.3C1083.6,513.3,1083.3,513.3,1083,513.3z" style="fill:#222433;"/>
</g>
<g>
	<path d="M1127.8,543.5c-15.2,0-27.6-12.4-27.6-27.6c0-8.2,3.6-15.9,9.8-21.1c1.3-1.1,3.2-0.9,4.2,0.4
		c1.1,1.3,0.9,3.2-0.4,4.2c-4.9,4.1-7.7,10.1-7.7,16.5c0,11.9,9.7,21.6,21.6,21.6s21.6-9.7,21.6-21.6c0-8.9-5.6-17.1-14-20.2
		c-1.6-0.6-2.3-2.3-1.7-3.9c0.6-1.6,2.3-2.3,3.9-1.7c10.7,4,17.9,14.4,17.9,25.8C1155.5,531.1,1143.1,543.5,1127.8,543.5z" style="fill:#222433;"/>
</g>
<g>
	<path d="M801.8,513.3c-1.3,0-2.5-0.8-2.9-2.1l-17.5-58.8c-0.5-1.6,0.4-3.3,2-3.7c1.6-0.5,3.3,0.4,3.7,2l17.5,58.8
		c0.5,1.6-0.4,3.3-2,3.7C802.4,513.3,802.1,513.3,801.8,513.3z" style="fill:#222433;"/>
</g>
<g>
	<path d="M512.6,334.6c-1.1,0-2.2-0.6-2.7-1.7l-32.8-70.4c-0.7-1.5,0-3.3,1.5-4c1.5-0.7,3.3,0,4,1.5l32.8,70.4
		c0.7,1.5,0,3.3-1.5,4C513.4,334.5,513,334.6,512.6,334.6z" style="fill:#222433;"/>
</g>
<g>
	<path d="M476.5,257c-1.1,0-2.2-0.6-2.7-1.7L444.3,192c-0.7-1.5,0-3.3,1.5-4c1.5-0.7,3.3,0,4,1.5l29.4,63.3
		c0.7,1.5,0,3.3-1.5,4C477.3,256.9,476.9,257,476.5,257z" style="fill:#222433;"/>
</g>
<g>
	<path d="M434.7,220.4c-21,0-41.2-12-50.7-32.3l-5.3-11.9l-13.2-28.2c-3.1-6.9-0.2-14.8,6.6-18c0,0,0,0,0,0
		c3.9-1.8,8.1-1.6,11.7,0.1c0.9-3.8,3.5-7.2,7.4-9c3.9-1.8,8.2-1.6,11.7,0.1c0.9-3.8,3.5-7.2,7.4-9c3.9-1.8,8.2-1.6,11.7,0.1
		c0.9-3.8,3.5-7.2,7.4-9c3.9-1.8,8.2-1.6,11.7,0.1c0.9-3.8,3.5-7.2,7.4-9c6.9-3.1,14.8-0.2,18,6.5l3,6.4l10.2,22l5.5,11.7
		c13,27.9,0.9,61.2-27,74.2C450.6,218.7,442.6,220.4,434.7,220.4z M374.7,135.3c-3.8,1.8-5.5,6.2-3.7,10l3,6.4l10.2,21.9l5.3,11.9
		c8.4,18.1,26.5,28.8,45.2,28.8c7,0,14.2-1.5,21-4.7c12-5.6,21.2-15.6,25.8-28.1c4.6-12.5,4-26.1-1.6-38.1l-5.5-11.7l-13.2-28.4
		c-1.8-3.8-6.2-5.4-10-3.6c-3.7,1.8-5.3,6.2-3.6,10c0.7,1.5,0,3.3-1.5,4c-1.5,0.7-3.3,0.1-4-1.4c-1.8-3.8-6.2-5.4-10.1-3.7
		c-3.7,1.8-5.3,6.2-3.6,10c0.7,1.5,0,3.3-1.5,4c-1.5,0.7-3.3,0.1-4-1.4c-1.8-3.8-6.2-5.4-10.1-3.7c-3.7,1.8-5.3,6.2-3.6,10
		c0.7,1.5,0,3.3-1.5,4c-1.5,0.7-3.3,0-4-1.4c-1.8-3.8-6.2-5.4-10-3.6c-3.7,1.8-5.3,6.2-3.6,10c0.7,1.5,0,3.3-1.5,4
		c-1.5,0.7-3.3,0-4-1.4C383,135.2,378.6,133.6,374.7,135.3z" style="fill:#222433;"/>
</g>
<g>
	<path d="M404.7,177.6c-1.1,0-2.2-0.6-2.7-1.7l-17.5-37.6c-0.7-1.5,0-3.3,1.5-4c1.5-0.7,3.3,0,4,1.5l17.5,37.6
		c0.7,1.5,0,3.3-1.5,4C405.5,177.5,405.1,177.6,404.7,177.6z" style="fill:#222433;"/>
</g>
<g>
	<path d="M423.8,168.7c-1.1,0-2.2-0.6-2.7-1.7l-17.5-37.6c-0.7-1.5,0-3.3,1.5-4c1.5-0.7,3.3,0,4,1.5l17.5,37.6
		c0.7,1.5,0,3.3-1.5,4C424.6,168.6,424.2,168.7,423.8,168.7z" style="fill:#222433;"/>
</g>
<g>
	<path d="M443,159.8c-1.1,0-2.2-0.6-2.7-1.7l-17.5-37.6c-0.7-1.5,0-3.3,1.5-4c1.5-0.7,3.3,0,4,1.5l17.5,37.6
		c0.7,1.5,0,3.3-1.5,4C443.8,159.7,443.4,159.8,443,159.8z" style="fill:#222433;"/>
</g>
<g>
	<path d="M462.1,150.9c-1.1,0-2.2-0.6-2.7-1.7l-17.5-37.6c-0.7-1.5,0-3.3,1.5-4c1.5-0.7,3.3,0,4,1.5l17.5,37.6
		c0.7,1.5,0,3.3-1.5,4C462.9,150.8,462.5,150.9,462.1,150.9z" style="fill:#222433;"/>
</g>
<g>
	<path d="M520.1,334.6c-0.5,0-1-0.1-1.5-0.4l-136.2-80.4c-1.4-0.8-1.9-2.7-1.1-4.1c0.8-1.4,2.7-1.9,4.1-1.1L521.7,329
		c1.4,0.8,1.9,2.7,1.1,4.1C522.2,334.1,521.2,334.6,520.1,334.6z" style="fill:#222433;"/>
</g>
<path d="M337.2,256.2l-9.9-38.4l0,0l38.4-9.9c25-6.4,50.6,8.6,57,33.7l0,0l9.9,38.4l0,0l-38.4,9.9
	C369.2,296.4,343.7,281.3,337.2,256.2z" style="fill:#82B1FF;"/>
<circle cx="449.3" cy="288.6" r="22.9" style="fill:#82B1FF;"/>
<g>
	<path d="M569.5,365.1" style="fill:none;stroke:#222433;stroke-width:6;stroke-linecap:round;stroke-linejoin:round;stroke-miterlimit:10;"/>
</g>
<g>
	<path d="M273.2,353.2c-1.5,0-2.8-1.1-3-2.6c-0.2-1.6,1-3.1,2.6-3.3l178.5-21.3c15.4-1.8,30.2-1,48.2,2.7
		c1.6,0.3,2.7,1.9,2.3,3.5s-1.9,2.7-3.5,2.3c-17.3-3.6-31.6-4.4-46.3-2.7l-178.5,21.3C273.5,353.2,273.4,353.2,273.2,353.2z" style="fill:#222433;"/>
</g>
<g>
	<g>
		<g>
			<g>
				<path d="M289.7,368.7c-0.9,0-1.8-0.4-2.4-1.1c-1-1.3-0.8-3.2,0.5-4.2l22.3-17.5L285,334.4c-1.5-0.7-2.2-2.5-1.5-4
					c0.7-1.5,2.5-2.2,4-1.5l29.6,13.5c1,0.4,1.6,1.3,1.7,2.4c0.1,1-0.3,2.1-1.1,2.7l-26.2,20.6C291,368.5,290.3,368.7,289.7,368.7z" style="fill:#222433;"/>
			</g>
			<g>
				<path d="M306.2,374.5c-0.9,0-1.8-0.4-2.4-1.2c-1-1.3-0.8-3.2,0.5-4.2l34.3-26.7l-39.6-17.9c-1.5-0.7-2.2-2.5-1.5-4
					s2.5-2.2,4-1.5l44.1,19.9c1,0.4,1.6,1.3,1.7,2.4s-0.3,2.1-1.1,2.7l-38.2,29.8C307.5,374.3,306.9,374.5,306.2,374.5z" style="fill:#222433;"/>
			</g>
			<g>
				<path d="M328.1,379.4c-0.9,0-1.8-0.4-2.4-1.1c-1-1.3-0.8-3.2,0.5-4.2l45.2-35.5l-52.3-23.8c-1.5-0.7-2.2-2.5-1.5-4
					c0.7-1.5,2.5-2.2,4-1.5l56.8,25.9c1,0.4,1.6,1.3,1.7,2.4c0.1,1-0.3,2.1-1.1,2.7l-49.1,38.5C329.4,379.2,328.7,379.4,328.1,379.4
					z" style="fill:#222433;"/>
			</g>
			<g>
				<path d="M350.7,382.6c-0.9,0-1.8-0.4-2.4-1.1c-1-1.3-0.8-3.2,0.5-4.2l54.1-42.5l-62.6-28.6c-1.5-0.7-2.2-2.5-1.5-4
					c0.7-1.5,2.5-2.2,4-1.5l67.1,30.6c1,0.4,1.6,1.3,1.7,2.4c0.1,1-0.3,2.1-1.1,2.7l-58,45.5C352,382.4,351.3,382.6,350.7,382.6z" style="fill:#222433;"/>
			</g>
		</g>
	</g>
</g>
<g>
	<path d="M565.9,334.6c-1.3,0-2.5-0.9-2.9-2.2c-5.3-18.1-13.9-34.9-25.5-49.8c-1-1.3-0.8-3.2,0.5-4.2
		c1.3-1,3.2-0.8,4.2,0.5c12.1,15.5,21,32.9,26.5,51.8c0.5,1.6-0.4,3.3-2,3.7C566.4,334.6,566.1,334.6,565.9,334.6z" style="fill:#222433;"/>
</g>
<g>
	<path d="M499.1,238.1c-0.1,0-0.2,0-0.4,0l-20.5-2.4c-1.6-0.2-2.8-1.7-2.6-3.3c0.2-1.6,1.7-2.8,3.3-2.6l20.5,2.4
		c1.6,0.2,2.8,1.7,2.6,3.3C501.8,236.9,500.5,238.1,499.1,238.1z" style="fill:#222433;"/>
</g>
<g>
	<path d="M499,238.1c-0.9,0-1.7-0.4-2.3-1.1L484,221.8c-1.1-1.3-0.9-3.2,0.4-4.2c1.3-1.1,3.2-0.9,4.2,0.4l7.9,9.5
		l0.8-13.1c0.1-1.7,1.5-2.9,3.2-2.8c1.7,0.1,2.9,1.5,2.8,3.2l-1.2,20.6c-0.1,1.2-0.9,2.3-2.1,2.7C499.7,238,499.4,238.1,499,238.1z" style="fill:#222433;"/>
</g>
<g>
	<path d="M644.6,334.6c-1,0-2-0.5-2.6-1.5L531.6,142.7c-0.8-1.4-0.3-3.3,1.1-4.1c1.4-0.8,3.3-0.3,4.1,1.1l110.5,190.4
		c0.8,1.4,0.3,3.3-1.1,4.1C645.6,334.5,645.1,334.6,644.6,334.6z" style="fill:#222433;"/>
</g>
<ellipse transform="matrix(0.1602 -0.9871 0.9871 0.1602 305.562 656.1602)" cx="538.4" cy="148.5" rx="29.3" ry="29.3" style="fill:#82B1FF;"/>
<circle cx="593.8" cy="196.9" r="23.6" style="fill:#82B1FF;"/>
<circle cx="553" cy="220.6" r="23.6" style="fill:#82B1FF;"/>
<circle cx="620" cy="242.2" r="23.6" style="fill:#82B1FF;"/>
<path d="M573.9,288.9c-10.5-2.4-18.3-11.8-18.3-23c0-13,10.6-23.6,23.6-23.6s23.6,10.6,23.6,23.6c0,7.5-3.5,14.2-9,18.6
	l-17.5-4.7L573.9,288.9z" style="fill:#82B1FF;"/>
<g>
	<path d="M577.1,284.2c-1,0-2-0.5-2.6-1.5l-8.6-14.8c-0.8-1.4-0.3-3.3,1.1-4.1c1.4-0.8,3.3-0.3,4.1,1.1l8.6,14.8
		c0.8,1.4,0.3,3.3-1.1,4.1C578.1,284,577.6,284.2,577.1,284.2z" style="fill:#222433;"/>
</g>
<g>
	<path d="M577,284.2c-0.6,0-1.3-0.2-1.8-0.6l-13.5-10.4c-1.3-1-1.6-2.9-0.5-4.2c1-1.3,2.9-1.6,4.2-0.5l13.5,10.4
		c1.3,1,1.6,2.9,0.5,4.2C578.8,283.8,577.9,284.2,577,284.2z" style="fill:#222433;"/>
</g>
<g>
	<path d="M577,284.2c-1.5,0-2.8-1.1-3-2.6l-2.3-16.9c-0.2-1.6,0.9-3.2,2.6-3.4c1.6-0.2,3.2,0.9,3.4,2.6l2.3,16.9
		c0.2,1.6-0.9,3.2-2.6,3.4C577.3,284.2,577.2,284.2,577,284.2z" style="fill:#222433;"/>
</g>
<g>
	<path d="M606.3,334.6c-0.2,0-0.4,0-0.7-0.1l-18.6-4.2c0,0-0.1,0-0.1,0c-14-3.7-22.3-18.1-18.6-32.2c0,0,0,0,0,0
		l5.1-19.1c0.2-0.8,0.7-1.4,1.4-1.8c0.7-0.4,1.5-0.5,2.3-0.3l19.1,5.1c6.8,1.8,12.4,6.1,16,12.2c3.5,6.1,4.5,13.2,2.7,19.9
		c0,0,0,0.1,0,0.1l-5.6,18.2C608.8,333.8,607.6,334.6,606.3,334.6z M588.5,324.5l15.8,3.6l4.8-15.5c1.4-5.2,0.6-10.7-2.1-15.3
		c-2.7-4.7-7.1-8.1-12.3-9.4l-16.2-4.3l-4.3,16.2C571.3,310.5,577.7,321.6,588.5,324.5z" style="fill:#222433;"/>
</g>
<g>
	<path d="M758,656.1H461c-1.7,0-3-1.3-3-3V331.6c0-1.7,1.3-3,3-3h297c1.7,0,3,1.3,3,3v321.5
		C761,654.8,759.7,656.1,758,656.1z M464,650.1h291V334.6H464V650.1z" style="fill:#222433;"/>
</g>
<g>
	<path d="M726.1,621.6H492.9c-1.7,0-3-1.3-3-3V366.1c0-1.7,1.3-3,3-3h233.3c1.7,0,3,1.3,3,3v252.5
		C729.1,620.3,727.8,621.6,726.1,621.6z M495.9,615.6h227.3V369.1H495.9V615.6z" style="fill:#222433;"/>
</g>
<circle cx="231.4" cy="277.3" r="20.1" style="fill:#82B1FF;"/>
<circle cx="105.5" cy="306.5" r="15.1" style="fill:#5A38FD;"/>
<g>
	<path d="M188.2,454.5c-0.6,0-1.2-0.2-1.7-0.6c-1.3-1-1.7-2.8-0.7-4.2l14.3-20.1l-22.2-6.3c-1.6-0.5-2.5-2.1-2.1-3.7
		c0.5-1.6,2.1-2.5,3.7-2.1l26.3,7.5c0.9,0.3,1.7,1,2,1.9c0.3,0.9,0.2,1.9-0.4,2.7l-16.8,23.6C190.1,454.1,189.2,454.5,188.2,454.5z" style="fill:#222433;"/>
</g>
<g>
	<path d="M694.1,308.3c-0.8,0-1.5-0.3-2.1-0.9c-1.2-1.2-1.2-3.1,0-4.2L805.2,190c1.2-1.2,3.1-1.2,4.2,0
		c1.2,1.2,1.2,3.1,0,4.2L696.3,307.4C695.7,308,694.9,308.3,694.1,308.3z" style="fill:#222433;"/>
</g>
<g>
	<path d="M807.4,308.3c-0.8,0-1.5-0.3-2.1-0.9L692,194.2c-1.2-1.2-1.2-3.1,0-4.2c1.2-1.2,3.1-1.2,4.2,0l113.2,113.2
		c1.2,1.2,1.2,3.1,0,4.2C808.9,308,808.1,308.3,807.4,308.3z" style="fill:#222433;"/>
</g>
<g>
	<path d="M1675.5,1011c-1.1,0-2.2-0.7-2.7-1.8l-11.4-25.3c-0.7-1.5,0-3.3,1.5-4c1.5-0.7,3.3,0,4,1.5l11.4,25.3
		c0.7,1.5,0,3.3-1.5,4C1676.3,1010.9,1675.9,1011,1675.5,1011z" style="fill:#222433;"/>
</g>
<g>
	<path d="M1689.6,1011c-0.4,0-0.8-0.1-1.2-0.3c-1.5-0.7-2.2-2.5-1.5-4l11.4-25.3c0.7-1.5,2.5-2.2,4-1.5
		c1.5,0.7,2.2,2.5,1.5,4l-11.4,25.3C1691.9,1010.4,1690.8,1011,1689.6,1011z" style="fill:#222433;"/>
</g>
<g>
	<path d="M1682.5,1009.5c-1.7,0-3-1.3-3-3v-27.9c0-1.7,1.3-3,3-3s3,1.3,3,3v27.9
		C1685.5,1008.2,1684.2,1009.5,1682.5,1009.5z" style="fill:#222433;"/>
</g>
<g>
	<path d="M1164.6,1011c-1.1,0-2.2-0.7-2.7-1.8l-11.4-25.3c-0.7-1.5,0-3.3,1.5-4c1.5-0.7,3.3,0,4,1.5l11.4,25.3
		c0.7,1.5,0,3.3-1.5,4C1165.4,1010.9,1165,1011,1164.6,1011z" style="fill:#222433;"/>
</g>
<g>
	<path d="M1178.7,1011c-0.4,0-0.8-0.1-1.2-0.3c-1.5-0.7-2.2-2.5-1.5-4l11.4-25.3c0.7-1.5,2.5-2.2,4-1.5
		c1.5,0.7,2.2,2.5,1.5,4l-11.4,25.3C1181,1010.4,1179.9,1011,1178.7,1011z" style="fill:#222433;"/>
</g>
<g>
	<path d="M1171.7,1009.5c-1.7,0-3-1.3-3-3v-27.9c0-1.7,1.3-3,3-3s3,1.3,3,3v27.9
		C1174.7,1008.2,1173.3,1009.5,1171.7,1009.5z" style="fill:#222433;"/>
</g>
<g>
	<path d="M1038,236.3h-7.7c-1.7,0-3-1.3-3-3s1.3-3,3-3h7.7c1.7,0,3,1.3,3,3S1039.7,236.3,1038,236.3z" style="fill:#222433;"/>
</g>
<g>
	<path d="M931.1,279.2c-0.3,0-0.5,0-0.8,0l-43.3-0.8c-1,0-2-0.6-2.5-1.4c-10.4-16.8-15.5-36-14.6-55.6
		c2.1-52,45.6-93.4,97.5-93.4c0.8,0,1.5,0,2.3,0c22,0.6,43.3,8.7,60.2,22.7c16.8,14.1,28.6,33.6,33,55.1c0.2,0.9,0,1.8-0.6,2.5
		c-0.6,0.7-1.5,1.1-2.4,1.1l-56.1-1c-0.2,0-0.3,0-0.5,0c-18,0-32.8,14.5-33.1,32.5c-0.2,10.4-4.4,20.1-11.9,27.4
		C950.8,275.4,941.2,279.2,931.1,279.2z" style="fill:#5A38FD;"/>
</g>
<g>
	<path d="M914.8,254.3c-16.2,0-29.5-13.2-29.5-29.5s13.2-29.5,29.5-29.5s29.5,13.2,29.5,29.5S931,254.3,914.8,254.3z
		 M914.8,201.4c-12.9,0-23.5,10.5-23.5,23.5c0,12.9,10.5,23.5,23.5,23.5s23.5-10.5,23.5-23.5C938.2,211.9,927.7,201.4,914.8,201.4z" style="fill:#222433;"/>
</g>
<g>
	<path d="M588.5,965.6c-0.7,0-1.4-0.3-2-0.8l-15.5-14c-1.2-1.1-1.3-3-0.2-4.2c1.1-1.2,3-1.3,4.2-0.2l15.5,14
		c1.2,1.1,1.3,3,0.2,4.2C590.2,965.3,589.4,965.6,588.5,965.6z" style="fill:#222433;"/>
</g>
<g>
	<path d="M594.1,990.1c-0.2,0-0.4,0-0.6-0.1L567,985c-1.6-0.3-2.7-1.9-2.4-3.5c0.3-1.6,1.9-2.7,3.5-2.4l26.5,5.1
		c1.6,0.3,2.7,1.9,2.4,3.5C596.7,989.1,595.5,990.1,594.1,990.1z" style="fill:#222433;"/>
</g>
<g>
	<path d="M465.4,887.9c-17.5,0-32-12.9-34.5-29.8c-8.5,5.4-18.2,8.3-28.5,8.3c-29.3,0-53.2-23.9-53.2-53.2
		S373,760,402.4,760s53.2,23.9,53.2,53.2c0,2.1-0.1,4.3-0.4,6.4c3.3-1,6.7-1.5,10.2-1.5c19.2,0,34.9,15.7,34.9,34.9
		C500.2,872.3,484.6,887.9,465.4,887.9z M433.5,849.6c0.5,0,0.9,0.1,1.3,0.3c1,0.5,1.7,1.6,1.7,2.7l0,0.4c0,15.9,13,28.9,28.9,28.9
		s28.9-13,28.9-28.9s-13-28.9-28.9-28.9c-4.5,0-8.8,1-12.7,3c-1,0.5-2.3,0.4-3.2-0.3c-0.9-0.7-1.3-1.9-1.1-3c0.8-3.5,1.2-7,1.2-10.5
		c0-26-21.2-47.2-47.2-47.2c-26,0-47.2,21.2-47.2,47.2s21.2,47.2,47.2,47.2c10.7,0,20.8-3.5,29.2-10.2
		C432.1,849.8,432.8,849.6,433.5,849.6z" style="fill:#222433;"/>
</g>
<g>
	<path d="M440.9,835.5c-0.7,0-1.4-0.2-1.9-0.7c-1.3-1.1-1.4-3-0.4-4.2c3.1-3.7,7-6.7,11.3-8.9c1.5-0.7,3.3-0.1,4,1.4
		c0.7,1.5,0.1,3.3-1.4,4c-3.6,1.8-6.8,4.3-9.4,7.4C442.6,835.1,441.8,835.5,440.9,835.5z" style="fill:#222433;"/>
</g>
<g>
	<path d="M522,291.1c-8.2,0-16.4-3.5-22.1-10.2c0,0,0,0,0,0l-5.9-7c-4.7-5.6-11.2-9.4-18.3-10.8l-5.8-1.1
		c-1.1-0.2-2.1-1.1-2.3-2.2c-0.3-1.1,0.1-2.3,1-3.1l57.2-47.9c0.9-0.7,2.1-0.9,3.2-0.4c1.1,0.5,1.7,1.5,1.8,2.7l0.1,5.9
		c0.1,7.4,2.7,14.4,7.4,19.9l5.8,7c4.9,5.9,7.2,13.3,6.6,21c-0.7,7.7-4.3,14.6-10.2,19.5C535,288.9,528.5,291.1,522,291.1z
		 M504.4,277c8.1,9.6,22.5,10.8,32.1,2.8c4.7-3.9,7.5-9.4,8-15.4c0.5-6.1-1.3-12-5.2-16.6l-5.8-7c-5.5-6.4-8.6-14.7-8.8-23.3
		l-47.5,39.8c8.3,1.7,15.9,6.2,21.3,12.7L504.4,277z" style="fill:#222433;"/>
</g>
<path d="M458.6,365.6c-6.9-3.3-32.3-0.3-32.3-0.3s13.5,21.8,20.4,25.1c6.9,3.3,15.1,0.4,18.4-6.5
	C468.2,377.1,465.4,368.9,458.6,365.6L458.6,365.6z" style="fill:#5A38FD;"/>
<path d="M405.9,340.1c6.9,3.3,20.4,25.1,20.4,25.1s-25.5,3-32.3-0.3s-9.7-11.6-6.3-18.4
	C390.9,339.7,399.1,336.8,405.9,340.1L405.9,340.1z" style="fill:#5A38FD;"/>
<g>
	<path d="M408.6,404.7c-0.4,0-0.9-0.1-1.3-0.3c-1.5-0.7-2.1-2.5-1.4-4l24.2-50c6-12.3,17-20.9,30.3-23.6
		c1.6-0.3,3.2,0.7,3.5,2.3c0.3,1.6-0.7,3.2-2.3,3.5c-11.4,2.4-21,9.8-26.1,20.4l-24.2,50C410.8,404,409.8,404.7,408.6,404.7z" style="fill:#222433;"/>
</g>
<path d="M385.6,392l44.9,21.7c7.7,3.6,11.1,12.7,7.5,20.4s-12.7,11.1-20.4,7.5c-0.2-0.1-0.3-0.2-0.5-0.2l-44.9-21.7
	c-7.7-3.6-10.9-12.8-7.3-20.5s12.8-10.9,20.5-7.3C385.5,391.9,385.6,392,385.6,392z M422.5,430.3c1.5,0.7,3.4,0.1,4.1-1.4
	s0.1-3.4-1.4-4.1l-44.9-21.7c-1.5-0.7-3.4-0.1-4.1,1.4s-0.1,3.4,1.4,4.1L422.5,430.3z" style="fill:#5A38FD;"/>
<g>
	<path d="M327.3,220.8c-0.5,0-1-0.1-1.5-0.4l-27.2-16c-1.4-0.8-1.9-2.7-1.1-4.1c0.8-1.4,2.7-1.9,4.1-1.1l27.2,16
		c1.4,0.8,1.9,2.7,1.1,4.1C329.4,220.3,328.4,220.8,327.3,220.8z" style="fill:#222433;"/>
</g>
<g>
	<path d="M327.4,220.8c-0.1,0-0.2,0-0.3,0l-31.3-3.5c-1.6-0.2-2.8-1.7-2.6-3.3s1.7-2.8,3.3-2.6l31.3,3.5
		c1.6,0.2,2.8,1.7,2.6,3.3C330.2,219.7,328.9,220.8,327.4,220.8z" style="fill:#222433;"/>
</g>
<g>
	<path d="M327.4,220.8c-0.9,0-1.9-0.4-2.5-1.3l-18.2-25.7c-1-1.4-0.6-3.2,0.7-4.2c1.4-1,3.2-0.6,4.2,0.7l18.2,25.7
		c1,1.4,0.6,3.2-0.7,4.2C328.6,220.6,328,220.8,327.4,220.8z" style="fill:#222433;"/>
</g>
<g>
	<path d="M609.5,621.6c-1.7,0-3-1.3-3-3V366.1c0-1.7,1.3-3,3-3s3,1.3,3,3v252.5C612.5,620.3,611.2,621.6,609.5,621.6z" style="fill:#222433;"/>
</g>
<g>
	<path d="M667.9,621.6c-1.7,0-3-1.3-3-3V366.1c0-1.7,1.3-3,3-3s3,1.3,3,3v252.5C670.9,620.3,669.5,621.6,667.9,621.6z" style="fill:#222433;"/>
</g>
<g>
	<path d="M551.1,621.6c-1.7,0-3-1.3-3-3V366.1c0-1.7,1.3-3,3-3s3,1.3,3,3v252.5C554.1,620.3,552.8,621.6,551.1,621.6z" style="fill:#222433;"/>
</g>
</svg>