<?xml version="1.0" encoding="UTF-8"?><svg version="1.1" xmlns="http://www.w3.org/2000/svg" xmlns:xlink="http://www.w3.org/1999/xlink" viewBox="0 0 1600 1200" width="1600" height="1200" x="0px" y="0px">
              
              <!-- ITEM 0 -->
<g transform="translate(139.0 387.0) rotate(0.0 268.5 384.5) scale(1.103253879878868 1.1018565351268712)">
<g transform="translate(-0.0 -0.0)">
<g clip-path="url(#clipPathId-collage-item-0)">
		<defs>
			<clipPath id="clipPathId-collage-item-0">
				<rect x="0.0" y="0.0" width="486.742" height="697.913"/>
			</clipPath>
		</defs>
<title>man_with_gun_2</title><g id="Layer_2-i0" data-name="Layer 2"><g id="man_with_gun_2-i0"><path d="M180.541,139.683l-6.47-28.054s-7.828-1.041-8.462-7.24c-.588-6.2,5.747-9.638,5.747-9.638l12.081-16.29,17.195-5.294,6.335-5.746s6.651,3.167,10.723,12.669c.905,0,3.485.136,4.209.136.769,0,4.072-.317,4.208,1.358s-4.208,8.008-4.208,8.008,1.493,14.163-4.073,22.172-7.375,8.462-7.375,8.462l3.167,6.923s-5.113,10.271-12.534,12.534S180.541,139.683,180.541,139.683Z" style="fill:#fece2f"/><path d="M222.532,644.2l-5.52,23.846s3.62,7.692,11.764,6.788,14.027-8.145,20.905-7.557l7.466-20.95Z" style="fill:#fece2f"/><path d="M324.16,325.02a1.434,1.434,0,0,0-1.041-.407l-25.791,1.72h-.091l-22.76,3.439L268.6,305.7a1.363,1.363,0,0,0-2.624-.09l-8.643,27.42c-4.8.815-29.366,5.023-49.094,10.317-21.946,5.837-42.941,17.33-43.122,17.466a1.32,1.32,0,0,0-.679,1.267l.905,16.651-2.081,25.747-14.751,57.194-16.878,67.873L104.479,639.362a1.372,1.372,0,0,0,.678,1.538c1,.5,24.706,12.534,47.149,12.534h.815a1.435,1.435,0,0,0,1.267-.86l36.787-94.117,33.484-88.641,9.909-24.887-7.1,40.452L202.125,632.574a1.234,1.234,0,0,0,.5,1.267c.5.408,12.76,10.181,28.235,14.706,15.43,4.525,23.348,4.3,23.665,4.3a1.359,1.359,0,0,0,1.267-.95l3.3-11.132,33.167-99.546c0-.045.045-.091.045-.136.091-.453,10.634-47.375,15.385-71.809,4.8-24.48,13.484-90.814,13.574-91.493v-.09l3.3-51.584A1.19,1.19,0,0,0,324.16,325.02Z" style="fill:#1a1a1a"/><path d="M158.822,596.421c.272-2.353-1.221-7.33-4.57-15.2-1.131-2.669-2.579-4.3-4.3-4.977a4.891,4.891,0,0,0-4.028.317c-4.343,2.126-2.941,7.059-2.081,10.045.09.271.136.543.226.769a9.314,9.314,0,0,1-.5,5.973,12.729,12.729,0,0,0-.86,4.3c0,2.669,2.534,9.049,3.3,10.95.543,1.312,3.348,8.054,4.8,9.23a4.225,4.225,0,0,0,2.715.951,4.469,4.469,0,0,0,.769-.091,5.058,5.058,0,0,0,3.394-2.4c1.086-1.81.226-4.932-.905-8.552q-.339-1.086-.543-1.765c-.633-2.488.272-4.208,1.222-6.018A8.975,8.975,0,0,0,158.822,596.421Z" style="fill:#fece2f"/><polygon points="438.051 27.195 443.933 22.263 449.499 52.941 443.435 58.054 438.051 27.195" style="fill:#1a1a1a"/><path d="M443.435,59.412a1.579,1.579,0,0,1-.452-.091,1.274,1.274,0,0,1-.86-1.04l-5.43-30.9a1.331,1.331,0,0,1,.453-1.267l5.882-4.932a1.262,1.262,0,0,1,1.312-.226,1.354,1.354,0,0,1,.86,1.04l5.566,30.679a1.332,1.332,0,0,1-.453,1.267L444.3,59.05A1.071,1.071,0,0,1,443.435,59.412ZM439.5,27.738l4.887,27.782,3.619-3.077-4.977-27.6Z" style="fill:#1a1a1a"/><path d="M486.557,1.313a1.426,1.426,0,0,0-1.9-.453l-2.172,1.358C480.9.543,479.363-.362,478.729.136c-.588.453-.181,2.036.95,3.846l-4.163,2.58c-2.217-2.308-4.343-3.53-5.248-2.806-.815.634-.272,2.806,1.221,5.339L466.2,12.4a9.925,9.925,0,0,0-1.538-.815,10.147,10.147,0,0,0-9.683,1.086l-11.9,8.462a1.407,1.407,0,0,0-.543,1.357l3.62,20.09a1.428,1.428,0,0,0,.86,1.041,1.637,1.637,0,0,0,.5.091,1.489,1.489,0,0,0,.859-.272l18.643-14.66a10.1,10.1,0,0,0,3.71-9.593,9.019,9.019,0,0,0-.271-1.177l4.615-4.389c2.081,2.082,4.072,3.122,4.887,2.489.86-.679.181-3.032-1.493-5.747l3.574-3.393c1.448,1.448,2.851,2.217,3.439,1.764.588-.5.136-2.126-1.041-4.027l1.856-1.764A1.238,1.238,0,0,0,486.557,1.313Z" style="fill:#1a1a1a"/><path d="M153.076,652.077l-6.471,17.33s-4.072,6.787-9.638,5.113-16.425-8.733-21.357-7.24l6.878-20.5,17.737,4.524Z" style="fill:#fece2f"/><path d="M333.165,328.1l-9.955-52.488-6.651-24.434s2.4,4.208,11.764,2.127,47.647-35.294,47.647-35.294l12.081-12.353s-9.366,3.62-17.059-10.86-5.746-22.624-5.746-22.624l-34.253,22.308L325.7,184.388l-35.52-47.375s-16.335-10.679-33.529-10.407-26.38,3.167-26.38,3.167l-16.742-2.579s-6.652,10.271-12.534,12.534-20.5,0-20.5,0-8.009,6.2-11.9,21.855L151.99,174.388,133.3,196.107s-16.651,24.344-19.14,45.837-2.715,39.593,4.3,57.24,17.42,30.09,43.664,31.447l-5.882,36.652,11.539-7.014s23.3-12.217,50-18.1,40.588-7.919,40.588-7.919l8.914-28.19,6.2,25.249C273.437,331.31,321.174,322.577,333.165,328.1Z" style="fill:#fff"/><path d="M332.531,193.393l-6.651-11.041c-8.6-13.982-16.471-25.656-23.394-34.8a55.479,55.479,0,0,0-36.334-21.538A87.012,87.012,0,0,0,229.229,129a23.927,23.927,0,0,0-3.846-1.312,39.568,39.568,0,0,0-13.122-1.086h0a.343.343,0,0,0-.181.045c-.046,0-.091,0-.091.045-.045,0-.045.046-.09.046-.045.045-.091.045-.181.09h0a.044.044,0,0,0-.045.045c-.046,0-.046.046-.091.046h0a.044.044,0,0,0-.045.045l-.091.09-.045.046-.045.045a.044.044,0,0,1-.045.045c-.046.045-.046.091-.091.091h0l-.045.045v.045a.161.161,0,0,1-.045.091v.09h0a15.33,15.33,0,0,1-2.172,3.982,21.568,21.568,0,0,1-8.552,6.923c-8.552,3.937-19.5,0-19.638-.045h-.045c-.046,0-.091-.046-.136-.046h-.543a.165.165,0,0,0-.136.046c-.045,0-.09.045-.136.045s-.09.045-.135.045-.091.045-.136.045c-.045.046-.091.046-.091.091a.044.044,0,0,0-.045.045c-.452.407-11.538,10.091-13.348,31.448a1.241,1.241,0,0,0,.543,1.176,1.428,1.428,0,0,0,1.267.227l10.905-3.847L177.6,180.768a1.371,1.371,0,0,0,1.041,1.448c.226.045,21.222,5.159,34.525,13.8a1.5,1.5,0,0,0,.724.226,1.346,1.346,0,0,0,1.131-.633,1.329,1.329,0,0,0-.407-1.855c-12.036-7.828-29.593-12.67-34.208-13.892l1.221-14.027a1.3,1.3,0,0,0-.5-1.176,1.425,1.425,0,0,0-1.267-.226l-10.86,3.8c1.629-13.619,7.33-21.945,10.317-25.52a19.7,19.7,0,0,0,4.57,6.742c1.357,1.4,3.756,3.53,6.832,6.2,5.747,5.023,13.711,12.036,20.046,19.1l5.656,6.968a29.954,29.954,0,0,1,4.117,7.693,1.357,1.357,0,0,0,1.312.95,1.264,1.264,0,0,0,.408-.045,1.347,1.347,0,0,0,.905-1h.09a1.26,1.26,0,0,0,.905-.362l7.647-7.058a1.263,1.263,0,0,0,.905.361.579.579,0,0,0,.272-.045,1.374,1.374,0,0,0,1.085-1.583A165.853,165.853,0,0,0,223.98,148.1c-.045-.136-.09-.226-.136-.362-3.71-8.733-7.239-15.475-8.959-18.6a38.6,38.6,0,0,1,10.045,1.131,27.74,27.74,0,0,1,9.638,4.8l-6.923,7.874a1.253,1.253,0,0,0-.226,1.4,1.33,1.33,0,0,0,1.176.86l11.448.814,5.43,24.661a1.353,1.353,0,0,0,1.312,1.086.579.579,0,0,0,.272-.045,1.415,1.415,0,0,0,1.04-1.629l-5.656-25.656a1.346,1.346,0,0,0-1.221-1.041l-9.729-.724,6.064-6.878a1.318,1.318,0,0,0-.136-1.9,30.977,30.977,0,0,0-4.389-3.122,87.2,87.2,0,0,1,32.986-2.082,52.462,52.462,0,0,1,34.525,20.5c6.877,9.05,14.7,20.678,23.257,34.524l6.652,11.041a1.47,1.47,0,0,0,1.176.679,1.178,1.178,0,0,0,.679-.181A1.526,1.526,0,0,0,332.531,193.393ZM199.546,160c-2.579-2.353-5.023-4.479-7.149-6.38-3.032-2.67-5.385-4.751-6.652-6.063-2.67-2.806-3.665-4.8-4.027-6.018a37.2,37.2,0,0,0,9.728,1.357,24.392,24.392,0,0,0,8.1-1.267Zm2.715,2.534v-10l4.072,2.715,3.032,14.208C207.057,167.058,204.659,164.75,202.261,162.533Zm24.027,0-11.9-11.765-.452-4.3,7.421,3.032C223.075,153.483,224.749,157.872,226.288,162.533Zm-6.426-16.606L204.116,139.5a22.859,22.859,0,0,0,8.371-8.6C214.071,133.8,216.831,139.094,219.862,145.927Z" style="fill:#1a1a1a"/><path d="M255.609,244.071s3.348,6.878,3.031,12.443-.316,15.611-.316,15.611l12.533-4.163,9.955-4.842,7.557-3.3,3.62.453s1.719-5.475-1-7.6c0,0,2.443-2.534,1.4-5.2s-4.3-4.616-4.3-4.616,1.9-2.76,1.041-4.344-3.575-2.76-3.575-2.76l-11.4-.271,9.095-6.7s6.606-.272,6.877-3.077-3.891-3.8-6.244-4.118a15.133,15.133,0,0,0-10.136,2.534,45.233,45.233,0,0,0-9.5,8.145C262.532,234.252,255.609,244.071,255.609,244.071Z" style="fill:#fece2f"/><path d="M181.718,274.3a38.023,38.023,0,0,1-4.434-17.2,74.668,74.668,0,0,1,1.945-17.239l.453-1.674h-1.81c-3.032,0-9.005,1.448-10.5,7.058l-.226.86c-1.4,5.43-2.986,11.629-6.425,13.71a44.6,44.6,0,0,1-3.982,2.037c-5.475,2.624-12.941,6.2-14.027,11.266a10.144,10.144,0,0,0,2.9,9.322,10.5,10.5,0,0,0,7.466,2.9,14.008,14.008,0,0,0,3.3-.408c8.145-2.036,24.027-8.371,24.706-8.642l1.447-.588Z" style="fill:#fece2f"/><path d="M147.193,179.275s-5.791,5.973-5.656,19.683c.091,13.575,5.656,29.185,1.132,35.746s-15.792,3.032-20.815,7.466c-7.692,6.788-9.5,19.005-9.5,19.005s1.131-21.946,7.014-39.366,21.04-34.842,21.04-34.842Z" style="fill:#fece2f"/><path d="M243.3,248.731l12.986-5.746s3.394,7.6,2.942,19.366A68.462,68.462,0,0,1,254.7,283.8l-11.4,5.43s2.806-15.792,2.806-24.842A43.932,43.932,0,0,0,243.3,248.731Z" style="fill:#fff"/><path d="M440.4,79.231l5.746-5.475-8.235-45.249a1.362,1.362,0,0,0,.226-2.715l-14.027-1.448a19.142,19.142,0,0,0-13.3,3.62L329.545,87.692a19.1,19.1,0,0,0-7.557,12.172L319.5,114.117,200.632,202.94a62.988,62.988,0,0,0-25.113,55.746,62.372,62.372,0,0,0,3.71,16.7,1.361,1.361,0,0,0,1.267.905,1.586,1.586,0,0,0,.453-.091,1.393,1.393,0,0,0,.814-1.764c0-.046-.045-.091-.045-.136l74.479-31.4,13.258-15.7,10.407-5.565.769-2.715L350,163.71l4.887-.272s48.371-37.285,52.443-40.769a13.1,13.1,0,0,0,4.072-8.054,1.291,1.291,0,0,0,1.584-.091l28.959-22.941a1.34,1.34,0,0,0,.5-1.312Z" style="fill:#1a1a1a"/><path d="M257.781,163.71l.407,20.95a5.5,5.5,0,0,0,11-.227L268.6,155.61Z" style="fill:#fff"/><path d="M293.255,137.239l.408,20.905a5.5,5.5,0,1,0,11-.226l-.588-28.824Z" style="fill:#fff"/><path d="M275.518,150.452l.407,20.95a5.5,5.5,0,0,0,11-.226l-.588-28.824Z" style="fill:#fff"/><path d="M193.709,263.03a1.407,1.407,0,0,1-1.358-1.222,26.174,26.174,0,0,1,6.38-19.728,23.418,23.418,0,0,0,5.837-16.244l-.633-18.507a1.358,1.358,0,1,1,2.715-.09l.633,18.506a25.836,25.836,0,0,1-6.515,18.1,23.551,23.551,0,0,0-5.747,17.647,1.363,1.363,0,0,1-1.222,1.493C193.8,263.03,193.754,263.03,193.709,263.03Z" style="fill:#fff"/><path d="M341.309,120.814a5.822,5.822,0,0,1-2.307-.453,6.382,6.382,0,0,1-3.937-4.751l-1.176-6.38a1.357,1.357,0,0,1,2.669-.5l1.177,6.38A3.637,3.637,0,0,0,340,117.828a3.682,3.682,0,0,0,3.484-.453L411.309,66.7a7.956,7.956,0,0,1,9.864.226,5.088,5.088,0,0,0,6.154.091,1.362,1.362,0,0,1,1.584,2.217A7.8,7.8,0,0,1,419.5,69a5.239,5.239,0,0,0-6.516-.135l-67.827,50.678A6.744,6.744,0,0,1,341.309,120.814Z" style="fill:#fff"/><path d="M211.763,688.547l-2.262,7.375h86.877s-.453-3.71-1.267-7.375Z" style="fill:#fff"/><path d="M365.291,172.126l10.272-6.652s.316,10.091,4.072,17.059a21.668,21.668,0,0,0,11,9.366s-6.787,6.335-7.556,6.471-6.471,4.072-6.471,4.072a30.573,30.573,0,0,1-8.28-14.479C366.2,179.049,365.291,172.126,365.291,172.126Z" style="fill:#fff"/><polygon points="70.135 688.547 68.913 695.968 152.171 695.968 150.225 688.547 70.135 688.547" style="fill:#fff"/><path d="M254.161,653.434c-4.344,0-25.249-1-51.357-19.185a1.321,1.321,0,0,1-.543-1.358l35.113-204.206a1.357,1.357,0,1,1,2.669.5L205.066,632.529c24.525,16.833,44.615,18.1,48.914,18.19,34.434-87.872,50.95-171.039,58.732-225.473,8.462-59.095,8.733-97.827,8.733-98.235a1.334,1.334,0,0,1,1.358-1.357h0a1.361,1.361,0,0,1,1.357,1.357c0,.408-.271,39.321-8.733,98.6-7.828,54.7-24.434,138.505-59.23,226.921a1.394,1.394,0,0,1-1.222.86A3.482,3.482,0,0,1,254.161,653.434Z" style="fill:#1a1a1a"/><path d="M255.745,653.117c.045,0,.045-.045.09-.045C255.79,653.072,255.745,653.072,255.745,653.117Z" style="fill:#fece2f"/><path d="M239.138,584.2c1.4,4.615,4.254,11.855,6.969,18.868,2.533,6.471,5.113,13.168,6.606,17.828.317,1,.633,1.946.95,2.9,2.715,8.055,4.57,13.575.95,24.887l-.724,2.036h.046a975.921,975.921,0,0,0,35.655-110.5,1.425,1.425,0,0,0-.226.453l-.407,1.312c-.815,2.308-3.213,7.149-8.914,7.918-2.67.363-4.706-.633-6.7-1.583-1.855-.9-3.8-1.81-5.973-1.358a6.844,6.844,0,0,0-4.57,3.077c-1.945,3.032-2.081,8.009-.407,15.294.226.95.543,2.036.9,3.349,1.176,3.982,2.9,10,1.4,12.488a2.189,2.189,0,0,1-1.539,1.086c-1.357.317-3.529-2.217-5.565-4.66-2.127-2.489-4.48-5.34-7.421-7.15a6.675,6.675,0,0,0-7.873.5C239.365,573.163,237.283,578.186,239.138,584.2Z" style="fill:#fece2f"/><path d="M255.292,653.344c-.045,0-.045,0-.09.045A.139.139,0,0,1,255.292,653.344Z" style="fill:#fece2f"/><path d="M255.111,653.389h0Z" style="fill:#fece2f"/><path d="M256.061,652.71a.044.044,0,0,1,.045-.045Z" style="fill:#fece2f"/><path d="M255.88,652.936l.045-.045A.044.044,0,0,1,255.88,652.936Z" style="fill:#fece2f"/><path d="M255.654,653.163c-.045,0-.045.045-.09.045C255.609,653.208,255.654,653.208,255.654,653.163Z" style="fill:#fece2f"/><path d="M255.473,653.253c-.045,0-.045.045-.09.045C255.428,653.3,255.473,653.3,255.473,653.253Z" style="fill:#fece2f"/><path d="M302.034,484.521c-.86,4.978-1.4,8.462-1.448,8.507v.272c5.384-25.611,9.276-48.688,12.081-68.054,1.9-13.213,3.394-25.43,4.525-36.38a133.291,133.291,0,0,1-3.982,15.973c-3.077,9.547-6.516,14.932-9.5,14.66-3.53-.271-6.7-3.393-9.729-6.38-3.755-3.71-7.692-7.511-11.855-4.525a6.886,6.886,0,0,0-2.85,4.706c-.724,4.661,2.217,11.448,9,20.724C293.3,440.766,304.206,461.671,302.034,484.521Z" style="fill:#fece2f"/><path d="M319.862,389.273v-.09h0C319.907,389.183,319.907,389.228,319.862,389.273Z" style="fill:#fece2f"/><path d="M150.135,653.8c-18.236,0-44.027-12.308-45.158-12.9a1.341,1.341,0,0,1-.724-1.538c.5-1.946,48.053-196.243,55.655-221.763,7.511-25.249,4.525-54.977,4.48-55.294a1.364,1.364,0,1,1,2.715-.271c.045.316,3.122,30.588-4.57,56.334-7.285,24.48-51.493,204.84-55.385,220.586,5.159,2.353,29.231,12.987,44.977,12.082C156.741,639,211.491,496.648,235.564,433.3c3.167-8.326,5.7-15.068,7.556-19.954,1.991-5.3,3.258-8.643,3.711-10a1.309,1.309,0,0,1,1.719-.815,1.363,1.363,0,0,1,.815,1.72c-.453,1.357-1.72,4.751-3.711,10.045-1.855,4.887-4.389,11.583-7.556,19.954-25.023,65.837-83.167,217.057-83.755,218.551a1.323,1.323,0,0,1-1.131.859C152.216,653.751,151.221,653.8,150.135,653.8Z" style="fill:#1a1a1a"/><path d="M164.931,383.165l-1.4,17.33A153.543,153.543,0,0,0,164.931,383.165Z" style="fill:#fece2f"/><path d="M164.976,372.758c-.136-5.7-.5-9.548-.543-10.272Z" style="fill:#fece2f"/><path d="M165.609,360.812a1.363,1.363,0,0,1,1.494,1.222c.045.316,3.122,30.588-4.57,56.334-7.285,24.48-51.493,204.84-55.385,220.586,1.494.679,4.616,2.082,8.643,3.666,8.371-30.588,46.38-169.592,59.773-219.456A74.277,74.277,0,0,1,190.27,394.7a56.329,56.329,0,0,1,6.018-6.2c7.149-6.289,7.466-11.4,5.339-14.027-1.991-2.443-6.47-3.122-11.267.362-2.307,1.674-4.162,2.353-5.248,1.9s-1.584-2.036-1.856-3.3c-.045-1.674-1.357-15.52-2.036-18.642l-.362-1.629-1.538.679c-8.462,3.8-14.208,6.923-14.253,6.968l-.77.407.046.95A1.491,1.491,0,0,1,165.609,360.812Z" style="fill:#fece2f"/><path d="M158.867,421.354q.612-2.239,1.086-3.8c.905-3.032,1.675-6.154,2.308-9.276Z" style="fill:#fece2f"/><path d="M110.361,643.344c1,.407,2.082.9,3.3,1.357l1.4.588h0C113.3,644.565,111.719,643.932,110.361,643.344Z" style="fill:#fece2f"/><path d="M104.253,640l-.091.407.453.227A1.291,1.291,0,0,1,104.253,640Z" style="fill:#fece2f"/><path d="M171.582,523.48c3.258,8.281,8.779,22.127,9.548,31.267,1.04,11.991-1.9,24.932-1.946,25.068l.226.09c10.181-26.561,21.855-56.968,32.579-85.022-4.072,8.733-11.629,21.177-16.561,21.177h-.09c-3.62-.136-6.018-3.077-8.552-6.154-2.353-2.9-4.8-5.882-8.416-6.2a8.385,8.385,0,0,0-7.6,3.122,11.219,11.219,0,0,0-1.629,10.271C169.591,518.458,170.5,520.675,171.582,523.48Z" style="fill:#fece2f"/><path d="M237.238,439.635a1.9,1.9,0,0,1-.5-.091,1.37,1.37,0,0,1-.769-1.764c2.353-6.2,11.357-34.48,15.656-48.1,1.357-4.3,2.036-6.335,2.127-6.652.135-.407,3.574-10.362,17.647-15.294a1.345,1.345,0,1,1,.9,2.534c-12.805,4.48-15.927,13.484-15.972,13.575-.091.316-.95,2.941-2.127,6.606-4.344,13.62-13.348,41.945-15.746,48.235A1.239,1.239,0,0,1,237.238,439.635Z" style="fill:#fece2f"/><path d="M167.1,362.124a1.347,1.347,0,0,0-.769-1.176,1.331,1.331,0,0,0-1.358.09l-9.955,6.923a1.389,1.389,0,0,0-.588,1.086c0,.317-.136,7.376,11.72,9.367h.226a1.441,1.441,0,0,0,.905-.362,1.407,1.407,0,0,0,.452-1.086Z" style="fill:#1a1a1a"/><path d="M334.748,327.962c-.045-.272-4.072-27.466-12.171-60.814-8.055-33.394-18.643-63.167-18.733-63.484a1.345,1.345,0,0,0-2.534.905c.09.317,10.633,29.954,18.642,63.167,6.7,27.692,10.588,51.131,11.765,58.325-14.027-4.117-49.819,2.082-57.24,3.439l-14.208-62.986a1.367,1.367,0,1,0-2.669.588l8.325,36.968a1.091,1.091,0,0,0-.316.543l-8.055,28.552c-4.57.543-25.61,3.349-56.56,12.625-26.652,8.1-38.28,15.294-43.167,19.275l5.882-33.755a1.358,1.358,0,0,0-2.67-.5l-6.606,38.009a1.4,1.4,0,0,0,.86,1.493,1.614,1.614,0,0,0,.452.091,1.366,1.366,0,0,0,1.177-.679c.045-.09,5.927-9.547,44.841-21.4,34.66-10.407,56.742-12.579,56.968-12.624a1.349,1.349,0,0,0,1.176-1l7.195-25.43,4.977,22.036a1.312,1.312,0,0,0,1.312,1.041.568.568,0,0,0,.272-.046c.452-.09,46.968-8.913,59.094-3.031a1.318,1.318,0,0,0,1.4-.136A1.035,1.035,0,0,0,334.748,327.962Z" style="fill:#1a1a1a"/><path d="M257.011,242.216a1.4,1.4,0,0,0-1.764-.589l-12.489,5.883-62.714,26.244a1.349,1.349,0,0,0,1.041,2.489L242.4,250.587c5.249,19.773-2.217,45.384-3.3,48.913-3.032,2.217-25.022,17.964-45.7,24.661-31.4,10.135-48.009,4.706-56.38-1.674-15.882-12.037-29.637-41.177-20.588-86.742,4.435-22.4,18.326-41.085,29.14-52.76a153.118,153.118,0,0,1,22.76-20.271,1.368,1.368,0,1,0-1.538-2.262,156.155,156.155,0,0,0-23.212,20.633c-11.086,11.946-25.294,31.086-29.864,54.117-9.276,46.787,5.067,76.877,21.628,89.411,5.385,4.073,13.892,7.828,26.968,7.828,8.552,0,19.05-1.584,31.9-5.746,22.579-7.285,46.606-25.113,46.832-25.294a1.488,1.488,0,0,0,.5-.679,104.437,104.437,0,0,0,2.714-10.452l11-5.249a1.618,1.618,0,0,0,.452-.317c.408-.453,3.982-5.023,4.389-20.769C260.5,248.822,257.147,242.487,257.011,242.216Zm.362,21.674c-.362,13.077-2.986,17.918-3.619,18.868l-8.869,4.208q.339-1.9.679-3.936c1.4-9.095,2.4-22.172-.679-33.529l10.181-4.8C255.971,247.057,257.69,253.121,257.373,263.89Z" style="fill:#1a1a1a"/><path d="M209.546,106.877c-7.647,0-9.548-7.239-9.593-7.33a1.35,1.35,0,1,1,2.624-.633,8.155,8.155,0,0,0,1.9,3.258c1.855,1.9,4.525,2.443,7.873,1.629a1.35,1.35,0,0,1,.634,2.624A13.818,13.818,0,0,1,209.546,106.877Z" style="fill:#1a1a1a"/><path d="M227.419,81.176a3.146,3.146,0,0,0-2.081-2.036,7.336,7.336,0,0,0-3.756.226,16.512,16.512,0,0,1-2.263.362c-2.624-5.384-6.244-9.864-9.909-12.4-6.878-4.751-17.692-10.181-32.081-2.262A19.535,19.535,0,0,0,167.1,79.14c-.046.226-.091.407-.091.407v.227a35.713,35.713,0,0,0,1.4,15.339c-2.444,1.81-5.566,5.7-4.072,10.814a9.812,9.812,0,0,0,8.37,6.878l6.245,27.24a1.348,1.348,0,0,0,1.312,1.04.891.891,0,0,0,.317-.045,1.415,1.415,0,0,0,1.04-1.629l-6.47-28.19a1.312,1.312,0,0,0-1.312-1.04c-.046,0-5.43-.046-6.833-4.978-1.493-5.2,3.53-8.19,3.756-8.325h.09a4.838,4.838,0,0,1,3.439-.589,4.742,4.742,0,0,1,2.715,2.987c1.946,4.615,3.394,5.339,4.389,5.339h.226a2.059,2.059,0,0,0,1.765-1.855c.136-.724-.09-1.584-.679-3.711-1.267-4.479-3.665-12.76.362-17.013,2.218-2.353,6.018-3.122,10.046-3.937,5.61-1.131,11.945-2.443,14.886-8.506.046,0,.046.045.091.045,3.3,2.262,6.7,6.606,9.14,11.629.86,1.764,3.122,1.267,5.113.86a10.173,10.173,0,0,1,2.308-.317c.226.09.362.181.362.226.271.86-1.9,3.62-2.715,4.661-1.312,1.674-1.991,2.534-1.72,3.529,1.4,5.43,1.041,9.909-1.267,15.927a26.505,26.505,0,0,1-10.859,13.485,20.833,20.833,0,0,1-6.833,2.895c-.045,0-.136.046-.181.046H201.4l-.271.135-.046.046c-.045.045-.135.09-.181.181,0,.045-.045.045-.045.09-.045.091-.136.181-.181.272h0a2.893,2.893,0,0,0-.09.316v.453a.644.644,0,0,0,.09.271.045.045,0,0,0,.045.046l.136.271v.045a.045.045,0,0,0,.045.046h0a6.994,6.994,0,0,0,6.2,2.4c2.534-.362,3.982,0,4.208,1.131,0,.045.046.09.046.136s0,.045.045.09c0,.045.045.091.045.136s.045.045.045.09.046.046.091.091c0,.045.045.045.045.09l.091.091.09.09c.045.046.091.046.091.091.045,0,.045.045.09.045s.09.045.136.045.045.046.09.046.091.045.136.045h.317a.575.575,0,0,0,.271-.045h0c.045,0,.045,0,.091-.046.045,0,.09-.045.135-.045s.046-.045.091-.045c.045-.045.09-.045.136-.091.045,0,.045-.045.09-.09s.091-.045.091-.091l.09-.09c.045-.045.045-.091.091-.091,0-.045.045-.045.045-.09a.167.167,0,0,0,.045-.136.157.157,0,0,1,.045-.09c0-.046.046-.091.046-.136v-.543c-1-5.792-1.267-7.194-1.448-7.692a30.062,30.062,0,0,0,9.366-13.032c2.443-6.38,2.9-11.4,1.448-17.194.226-.362.769-1.041,1.131-1.539C226.016,85.973,228.052,83.348,227.419,81.176Z" style="fill:#1a1a1a"/><path d="M279.545,221.447a1.446,1.446,0,0,1-1.086-.5,1.362,1.362,0,0,1,.226-1.9l73.032-57.691a1.353,1.353,0,1,1,1.674,2.126L280.36,221.175A1.266,1.266,0,0,1,279.545,221.447Z" style="fill:#1a1a1a"/><path d="M350.133,137.873a1.444,1.444,0,0,1-1.086-.5,1.361,1.361,0,0,1,.226-1.9l53.212-42.307a1.354,1.354,0,1,1,1.675,2.127L350.993,137.6A1.492,1.492,0,0,1,350.133,137.873Z" style="fill:#fff"/><path d="M354.793,166.153a1.427,1.427,0,0,1-1.221-.724,1.3,1.3,0,0,1,.588-1.81c2.036-1.041,3.575-4.887,1.855-12.4a32.747,32.747,0,0,0-6.832-13.756,1.344,1.344,0,0,1,1.945-1.855,34.753,34.753,0,0,1,7.512,14.977c2.533,11.086-1.4,14.48-3.213,15.43A1.587,1.587,0,0,1,354.793,166.153Z" style="fill:#fff"/><path d="M355.925,165.338a1.288,1.288,0,0,1-1.041-.5,1.361,1.361,0,0,1,.226-1.9L406.06,122.4a12.068,12.068,0,0,0,2.262-2.308c1.267-1.719,2.534-4.163.951-11.176a32.746,32.746,0,0,0-6.833-13.756,1.344,1.344,0,0,1,1.946-1.855A34.757,34.757,0,0,1,411.9,108.28c1.765,7.738.362,11-1.4,13.394a14.688,14.688,0,0,1-2.76,2.8l-50.95,40.543A1.351,1.351,0,0,1,355.925,165.338Z" style="fill:#fff"/><path d="M307.147,193.89a1.357,1.357,0,0,1-1.312-.95,28.365,28.365,0,0,1,9.411-30.452l34.027-27.013a1.353,1.353,0,1,1,1.674,2.126L316.92,164.615a25.572,25.572,0,0,0-8.506,27.511,1.374,1.374,0,0,1-.9,1.719C307.418,193.845,307.283,193.89,307.147,193.89Z" style="fill:#fff"/><path d="M356.015,84.072,336.92,97.647a3.331,3.331,0,0,1-4.66-.769h0a3.332,3.332,0,0,1,.769-4.661l19.1-13.575a3.33,3.33,0,0,1,4.66.77h0A3.291,3.291,0,0,1,356.015,84.072Z" style="fill:#fff"/><path d="M387.01,61.222,367.916,74.8a3.332,3.332,0,0,1-4.661-.769h0a3.332,3.332,0,0,1,.769-4.661l19.1-13.574a3.332,3.332,0,0,1,4.661.769h0A3.292,3.292,0,0,1,387.01,61.222Z" style="fill:#fff"/><path d="M418.006,38.371,398.911,51.946a3.332,3.332,0,0,1-4.661-.769h0a3.332,3.332,0,0,1,.769-4.661l19.095-13.575a3.331,3.331,0,0,1,4.661.77h0A3.292,3.292,0,0,1,418.006,38.371Z" style="fill:#fff"/><path d="M365.608,157.465a1.426,1.426,0,0,1-1.222-.724,1.3,1.3,0,0,1,.588-1.81c2.037-1.04,3.575-4.886,1.856-12.4A32.738,32.738,0,0,0,360,128.778a1.344,1.344,0,1,1,1.946-1.855,34.757,34.757,0,0,1,7.511,14.977c2.534,11.086-1.4,14.479-3.213,15.429A3.925,3.925,0,0,1,365.608,157.465Z" style="fill:#fff"/><path d="M377.418,148.325a1.425,1.425,0,0,1-1.222-.724,1.3,1.3,0,0,1,.588-1.81c2.036-1.041,3.575-4.887,1.855-12.4a32.73,32.73,0,0,0-6.832-13.755,1.345,1.345,0,0,1,1.946-1.856,34.785,34.785,0,0,1,7.511,14.978c2.534,11.085-1.4,14.479-3.213,15.429A1.437,1.437,0,0,1,377.418,148.325Z" style="fill:#fff"/><path d="M389.273,139.094a1.426,1.426,0,0,1-1.222-.724,1.3,1.3,0,0,1,.588-1.81c3.349-1.764,2.761-8.868,1.856-12.805A32.738,32.738,0,0,0,383.662,110a1.314,1.314,0,0,1,.091-1.9,1.351,1.351,0,0,1,1.9.045,34.772,34.772,0,0,1,7.511,14.978c1.4,6.108,1.267,13.438-3.212,15.791A1.519,1.519,0,0,1,389.273,139.094Z" style="fill:#fff"/><path d="M401.083,129.411a1.425,1.425,0,0,1-1.222-.724,1.3,1.3,0,0,1,.588-1.81c1.946-1.04,3.62-4.977,1.855-12.669A31.963,31.963,0,0,0,395.879,101a1.35,1.35,0,0,1,2.082-1.719,35.428,35.428,0,0,1,6.968,14.343c2.624,11.584-1.81,14.932-3.258,15.7A2.66,2.66,0,0,1,401.083,129.411Z" style="fill:#fff"/><path d="M375.563,165.474l1.99-9.683s-4.841-12.9-6.244-14.932c-1.267-1.991,1.629-4.253,3.258-3.529,1.674.769,5.656,10.769,7.33,10.905a15.372,15.372,0,0,0,3.3-.136l-7.828-15.973s-2.715-4.525-.316-4.842,6.2,4.661,6.2,4.661l-2.715-5.113s-1.493-4.389,0-4.389,11.629,10.09,11.629,10.09l-2.715-5.068s-6.109-3.484-3.892-6.289c.815-1.041,12.987,6.108,13.394,7.149s6.289,17.964,6.289,17.964-3.167,15.475-3.529,15.611-4.072,11.674-4.072,11.674l-13.032,15.837s-5.656-5.521-7.149-10.408S375.563,165.474,375.563,165.474Z" style="fill:#fece2f"/><ellipse cx="218.188" cy="299.138" rx="4.253" ry="4.842" style="fill:#1a1a1a"/><ellipse cx="231.31" cy="291.129" rx="4.253" ry="4.842" style="fill:#1a1a1a"/><ellipse cx="238.776" cy="222.125" rx="4.253" ry="4.842" style="fill:#fff"/><path d="M238.776,227.193a4.787,4.787,0,0,1-4.479-5.068c0-2.805,2.036-5.067,4.479-5.067s4.48,2.262,4.48,5.067A4.787,4.787,0,0,1,238.776,227.193Zm0-9.683c-2.217,0-4.027,2.081-4.027,4.615s1.81,4.616,4.027,4.616,4.027-2.082,4.027-4.616S240.993,217.51,238.776,217.51Z" style="fill:#fff"/><ellipse cx="250.858" cy="212.94" rx="4.253" ry="4.842" style="fill:#fff"/><path d="M250.858,217.962a4.787,4.787,0,0,1-4.48-5.067c0-2.806,2.036-5.068,4.48-5.068a5.106,5.106,0,0,1,0,10.135Zm0-9.637c-2.218,0-4.027,2.081-4.027,4.615s1.809,4.615,4.027,4.615,4.027-2.081,4.027-4.615S253.075,208.325,250.858,208.325Z" style="fill:#fff"/><path d="M297.735,695.741l-1.222-7.375h0A13.393,13.393,0,0,0,286.2,677.551c-1.72-.407-3.937-.859-6.516-1.4-3.3-.679-7.195-1.448-11.131-2.444,1.131.091,2.217.181,3.348.181,6.2,0,11.9-1.719,12.851-5.475.226-.9.543-3.936-4.48-5.792-2.534-.95-6.47-1.131-11.719-.543,5.611-2.579,10.543-5.746,11.764-9.185a5.206,5.206,0,0,0-.769-5.023,5.9,5.9,0,0,0-4.8-2.533h-.136c-6.47,0-15.7,8.959-21.4,15.294l2.986-8.009a1.374,1.374,0,0,0-2.579-.951l-5.249,14.254c-1.81-.046-5.566.5-11.086,4.072-4.434,2.9-10,3.846-14.117,2.353a7.255,7.255,0,0,1-4.8-4.661c0-.045-.045-.045-.045-.09,3.122-12.851,5.52-22.851,5.566-23.032a1.35,1.35,0,1,0-2.625-.633c-.045.226-5.565,23.3-10.859,44.3l-2.172,7.376a1.223,1.223,0,0,0,.226,1.176,1.349,1.349,0,0,0,1.086.543h86.877a1.354,1.354,0,0,0,1.041-.5A1.517,1.517,0,0,0,297.735,695.741Zm-18.416-30.633c1.946.724,2.986,1.72,2.805,2.625-.181.724-1.221,1.81-3.62,2.579-1.9.633-5.2,1.221-10.316.633a63.963,63.963,0,0,1-14.208-3.439c2.262-.588,5.339-1.267,8.642-1.9C270.586,664.158,276.378,663.977,279.319,665.108Zm-4.751-17.149h.09a3.078,3.078,0,0,1,2.67,1.4,2.656,2.656,0,0,1,.453,2.488c-.589,1.629-3.349,5.068-15.159,9.638-3.529,1.358-6.968,2.489-9.5,3.258C258.821,658.185,268.821,647.959,274.568,647.959ZM211.31,694.61l1.4-4.66h81.312l.769,4.66Z" style="fill:#1a1a1a"/><path d="M153.573,651.036a1.349,1.349,0,0,0-1.764.769l-6.335,16.018v.09a6.881,6.881,0,0,1-.588,1.313c-2.489,2.579-7.014,5.52-12.9,2.4-1.72-.9-3.53-1.765-5.2-2.534a22.506,22.506,0,0,0-8.19-3.213c-.271-.09-.5-.181-.678-.226l5.791-18.552a1.374,1.374,0,0,0-2.624-.814l-5.656,18.1c-1.674-2.036-4.57-5.294-7.828-8.552-7.195-7.149-12.986-10.724-17.1-10.678a5.839,5.839,0,0,0-4.8,2.533,5.189,5.189,0,0,0-.77,5.023c1.222,3.439,6.2,6.606,11.765,9.185-5.294-.588-9.231-.407-11.719.543-4.978,1.9-4.706,4.933-4.48,5.792.905,3.8,6.652,5.475,12.851,5.475.769,0,1.493-.045,2.262-.09-2.4.588-4.932,1.222-7.421,1.81-.9.181-1.81.362-2.624.543-2.579.543-4.751.95-6.516,1.4a12.647,12.647,0,0,0-10.09,9.819v.091a4.118,4.118,0,0,0-.181.9h0l-1.222,7.375a1.308,1.308,0,0,0,.317,1.086,1.35,1.35,0,0,0,1.04.5h83.258a1.35,1.35,0,0,0,1.086-.543,1.385,1.385,0,0,0,.226-1.176l-2.172-7.285a.412.412,0,0,0-.045-.227,1.326,1.326,0,0,0,.045-.724l-.045-.271-.86-4.57c-.181-1.041-.317-2.082-.5-3.122-.543-3.439-1.131-7.014-1.719-10.86l6.2-15.7A1.316,1.316,0,0,0,153.573,651.036Zm-66.017.86a2.436,2.436,0,0,1,.452-2.489,3.082,3.082,0,0,1,2.67-1.4h.09c5.747,0,15.792,10.181,21.494,16.787-2.534-.769-5.973-1.9-9.5-3.257C90.9,656.963,88.144,653.524,87.556,651.9Zm-4.344,15.837c-.226-.9.86-1.9,2.8-2.625a15.3,15.3,0,0,1,5.34-.724,66.722,66.722,0,0,1,11.357,1.222c3.3.588,6.38,1.312,8.643,1.9a69.505,69.505,0,0,1-14.209,3.439C88.1,671.986,83.619,669.361,83.212,667.733ZM70.542,694.61l.77-4.66H149l1.4,4.66Z" style="fill:#1a1a1a"/><path d="M222.08,76.018,220.27,73.3a3.893,3.893,0,0,0-2.489-1.719,4.073,4.073,0,0,0-2.986.543l-1.267.814h0s-9.05,5.475-18.145,10.769l-.045.045h-.045L177.419,95.927a1.373,1.373,0,0,0-.362,1.9,1.3,1.3,0,0,0,1.132.588,1.532,1.532,0,0,0,.769-.226l16.108-11a7.884,7.884,0,0,0,2.4,4.163,5.473,5.473,0,0,0,3.982,1.041c6.426-.905,11.131-5.792,11.765-9.819a5.916,5.916,0,0,0-1.81-5.023l2.443-1.583,3.213,5.294a1.366,1.366,0,0,0,1.177.633.77.77,0,0,0,.316-.045l1.358-.362a3.6,3.6,0,0,0,2.488-2.217A3.482,3.482,0,0,0,222.08,76.018Z" style="fill:#1a1a1a"/><path d="M406.6,147.013c.136-3.349-4.932-16.29-7.466-19.955-1.131-1.629-10.633-7.511-13.756-7.42a1.965,1.965,0,0,0-1.719.95,3.724,3.724,0,0,0-.453,1.086,4.592,4.592,0,0,0-1.9-.589,2.9,2.9,0,0,0-2.353,1,4.031,4.031,0,0,0-.679,3.3,3.279,3.279,0,0,0-1.9-.407,3.053,3.053,0,0,0-2.534,2.489c-1.086,3.665,6.109,14.8,9.593,19.818a1.388,1.388,0,0,1-1.584-.769c-.317-.543-.679-1.131-1.041-1.765-2.941-4.932-5.972-10.045-9.276-8.235a3.183,3.183,0,0,0-1.493,1.946c-1.222,4.3,4.344,14.525,6.063,17.511l-1.764,8.552-49.774,32.76a1.382,1.382,0,0,0-.407,1.9,1.345,1.345,0,0,0,1.131.634,1.372,1.372,0,0,0,.724-.226l38.009-24.978c.634,5.159,2.76,17.919,9.412,25.792a31.436,31.436,0,0,0,3.167,3.258c.091.045.317.317.724.633a13.934,13.934,0,0,0,7.421,3.3l-3.213,3.031a104.992,104.992,0,0,1-10.045,6.923c-3.439,2.127-6.832,2.9-9.321,2.082a5.848,5.848,0,0,1-3.665-3.575,15.534,15.534,0,0,1-.543-4.389c-.136-4.118-.407-10.362-6.878-10.362H350.9c-6.335.091-8.6,10.136-11.222,21.765-1.131,4.977-2.307,10.135-3.846,14.751-2.4,7.33-5.52,10.95-7.692,12.714a9.866,9.866,0,0,1-4.072,2.082h-.045a7.594,7.594,0,0,1-6.019-2.308,1.344,1.344,0,1,0-1.945,1.855,10.424,10.424,0,0,0,7.873,3.168h.362c17.783-.453,50-32.76,61.221-44.615a17.5,17.5,0,0,0,2.172-2.308c.9-.95,1.493-1.629,1.72-1.855a10.587,10.587,0,0,0,2.669-13.167l1.946-1.448a12.374,12.374,0,0,0,4.344-3.123l.09-.09c4.163-5.656,1.9-14.118,1.177-16.38C401.852,167.691,406.467,149.909,406.6,147.013Zm-40,25.972,7.6-4.977c.272,4.344,1.584,13.394,7.421,20.271a18.574,18.574,0,0,0,2.76,2.625h0a10.188,10.188,0,0,0,4.253,1.855l-11,8.281a26.319,26.319,0,0,1-2.127-2.263C368.73,190.632,366.92,176.424,366.6,172.985Zm30.453-1.447-12.218,16.153a15.342,15.342,0,0,1-1.176-1.221c-6.38-7.512-6.833-18.281-6.878-20.5a.34.34,0,0,0,.045-.226l1.991-9.683a1.692,1.692,0,0,0-.135-.951c-2.76-4.706-6.833-13.167-6.064-15.837.091-.271.136-.316.181-.316.091-.046.724.09,1.946,1.583a53.332,53.332,0,0,1,3.71,5.656q.543.951,1.086,1.765c1.4,2.308,3.892,2.715,6.652,1.131a1.218,1.218,0,0,0,.633-.905,1.343,1.343,0,0,0-.226-1.086c-5.339-7.647-10.724-17.058-10.181-18.914a1.678,1.678,0,0,1,.226-.543c.272.046,2.218.589,7.24,7.964,2.9,4.3,5.385,8.688,5.385,8.733a1.367,1.367,0,0,0,2.4-1.312c-.045-.045-2.534-4.57-5.52-9a55.088,55.088,0,0,0-3.892-5.2,1.826,1.826,0,0,0-.135-.679c-.951-1.764-1.494-3.936-1.041-4.434l.045-.045c.769-.272,4.57,2.669,9.05,9.23l4.253,8.19h0c.045.091.136.181.181.272,0,.045.045.045.045.09a1,1,0,0,0,.227.181l.045.045.271.136h.091a1.974,1.974,0,0,1,.226.045h.091a.275.275,0,0,0,.181-.045h.09c.09-.045.181-.045.271-.09h0l.046-.046c.045-.045.135-.045.181-.09l.09-.091.091-.09c.045-.045.045-.091.09-.091.045-.045.045-.09.091-.09a.161.161,0,0,1,.045-.091c0-.045.045-.09.045-.135s0-.091.045-.091c0-.045.046-.09.046-.135V140.5a.269.269,0,0,0-.046-.181v-.09h0l-1.583-5.792c-.679-2.489-2.625-4.254-4.525-5.928-.588-.543-1.222-1.086-1.765-1.674l-.814-.815c-1.991-1.945-2.67-2.76-2.4-3.665,2.263.408,10.046,4.887,11.041,6.2,2.534,3.62,7.1,16.018,7.014,18.281C403.752,149.5,398.911,168.189,397.056,171.538Z" style="fill:#1a1a1a"/><path d="M334.748,328.052a1.362,1.362,0,0,0-1.267-1.267l-10.407-.769a1.2,1.2,0,0,0-1,.362,1.271,1.271,0,0,0-.453.95l-.452,13.484a1.376,1.376,0,0,0,.5,1.086,1.428,1.428,0,0,0,.859.317,1,1,0,0,0,.362-.045C335.382,338.866,334.748,328.188,334.748,328.052Z" style="fill:#1a1a1a"/><path d="M438.1,75.52a1.313,1.313,0,0,1-1.312-1.131l-7.647-41.131a1.358,1.358,0,1,1,2.669-.5l7.647,41.131a1.375,1.375,0,0,1-1.086,1.584A.575.575,0,0,1,438.1,75.52Z" style="fill:#fff"/><path d="M442.53,54.48a1.316,1.316,0,0,1-1.312-1.132L437.734,34.57a1.358,1.358,0,0,1,2.67-.5l3.484,18.778a1.374,1.374,0,0,1-1.086,1.583C442.711,54.434,442.621,54.48,442.53,54.48Z" style="fill:#fff"/><path d="M447.191,38.416a1.4,1.4,0,0,1-1.358-1.131l-1.357-8.823a1.339,1.339,0,0,1,1.131-1.539,1.373,1.373,0,0,1,1.539,1.132l1.357,8.823a1.337,1.337,0,0,1-1.131,1.538Z" style="fill:#fff"/><path d="M316.287,697.913H185.655a1.358,1.358,0,1,1,0-2.715H316.287a1.358,1.358,0,0,1,0,2.715Z" style="fill:#1a1a1a"/><path d="M366.377,697.913h-37.42a1.358,1.358,0,1,1,0-2.715h37.42a1.334,1.334,0,0,1,1.358,1.358A1.362,1.362,0,0,1,366.377,697.913Z" style="fill:#1a1a1a"/><path d="M161.22,697.913H1.357a1.358,1.358,0,0,1,0-2.715H161.22a1.358,1.358,0,1,1,0,2.715Z" style="fill:#1a1a1a"/><path d="M170.044,106.289a1.4,1.4,0,0,1-1.358-1.131,6.072,6.072,0,0,1,.951-4.8,6.22,6.22,0,0,1,3.846-2.218,1.344,1.344,0,0,1,.317,2.67,3.228,3.228,0,0,0-2.037,1.177,3.44,3.44,0,0,0-.407,2.714,1.373,1.373,0,0,1-1.131,1.584Z" style="fill:#1a1a1a"/><path d="M292.215,262.035h0a7.577,7.577,0,0,0,2.081-5.657,6.516,6.516,0,0,0-2.036-4.162,5.771,5.771,0,0,0,1.493-4.435c-.135-1.493-1-3.484-3.891-5.022a5.124,5.124,0,0,0,.588-4.073,5.53,5.53,0,0,0-5.43-4.389c-.724,0-4.932,0-8.144.045l6.018-4.3a33.668,33.668,0,0,0,5.565-.543c.589-.226.95-.769,1.267-1.81.045-.136,1-3.3,0-4.8-1.131-1.629-7.647-3.077-10.724-2.4-3.077.724-10,5.883-12.805,8.055-2.534,1.991-10.724,13.529-11.629,14.841a1.219,1.219,0,0,0,.272,1.674,1.2,1.2,0,0,0,1.674-.271c2.443-3.484,9.185-12.8,11.131-14.3,4.344-3.348,9.728-7.149,11.855-7.6,2.489-.589,7.285.724,8.235,1.4a7.62,7.62,0,0,1-.407,3.077c-.86.136-3.077.272-4.932.362a1.088,1.088,0,0,0-.634.226l-9.411,6.7a.044.044,0,0,0-.046.045c-.045.046-.09.046-.09.091l-.09.09-.091.091a.157.157,0,0,1-.045.09c0,.046-.045.046-.045.091s-.046.09-.046.136,0,.09-.045.09v.226h0v.272c0,.045,0,.045.045.09,0,.046.046.091.046.136a.044.044,0,0,0,.045.045c.045.046.045.091.09.181h0l.046.046c.045.045.045.09.09.135s.045.046.09.046l.091.09c.045,0,.045.045.09.045a23.1,23.1,0,0,0,.181.091c.046,0,.091.045.136.045h.226c.091,0,10.724-.09,11.855-.09a3.18,3.18,0,0,1,3.168,2.533c.271,1.132,0,2.263-.634,2.58-.045.045-.09.045-.135.09a50.063,50.063,0,0,0-8.326-.226,1.2,1.2,0,0,0,.136,2.4c2.9-.136,7.466-.09,8.642.362,1.539.634,3.439,1.765,3.62,3.575a3.277,3.277,0,0,1-1.131,2.805l-.045.045c-2.127-.859-5.159-1.04-7.964-1.086h-.724a1.153,1.153,0,0,0-1.312,1.041,1.176,1.176,0,0,0,1.04,1.312c.181,0,.453.046,1,.046,1.583,0,6.38.09,8.009,1.4a4.3,4.3,0,0,1,1.719,2.987,5,5,0,0,1-.588,2.579,5.128,5.128,0,0,0-2.172-1.222,9.416,9.416,0,0,0-8.054,2.172,34.858,34.858,0,0,1-4.57,3.258,43.781,43.781,0,0,1-9.276,4.434l-9.367,3.213a1.192,1.192,0,0,0-.724,1.538,1.211,1.211,0,0,0,1.132.815,1.261,1.261,0,0,0,.407-.045l9.366-3.213a46.245,46.245,0,0,0,9.774-4.661,34.915,34.915,0,0,0,4.887-3.529,7.119,7.119,0,0,1,5.837-1.629,2.1,2.1,0,0,1,1.584,1.4.044.044,0,0,0,.045.045c0,.045.045.09.045.136s.045.045.045.09.045.045.045.091l.091.09.045.045h.045c.046,0,.046.046.091.046.045.045.09.045.09.09.046,0,.046.045.091.045s.09.046.136.046.045,0,.09.045a.167.167,0,0,1,.136.045h.317a.165.165,0,0,0,.135-.045h.046a.044.044,0,0,0,.045-.045.156.156,0,0,0,.09-.046c.046,0,.091-.045.136-.045s.045-.045.091-.045c.045-.045.09-.045.135-.091,0-.09,0-.135.046-.18Z" style="fill:#1a1a1a"/><path d="M293.753,207.963a1.21,1.21,0,0,0-1.9-.77l-4.8,3.349a1.159,1.159,0,0,0-.453,1.357c.045.181,4.977,16.335-6.109,21.719a1.134,1.134,0,0,0-.633,1.313,1.162,1.162,0,0,0,1.131.95l6.018.362h.091a1.091,1.091,0,0,0,.814-.317,21.439,21.439,0,0,0,5.747-9.457C295.654,219.094,293.844,208.415,293.753,207.963Z" style="fill:#1a1a1a"/><path d="M292.622,261.13h0a.933.933,0,0,0-.181-.272,1.375,1.375,0,0,0-.407-.588c-.588-.407-3.53-2.489-5.747-2.353-2.081.09-7.013,3.8-8.6,5.022l-7.375,3.937a1.193,1.193,0,0,0-.589,1.4l1.041,3.529a1.606,1.606,0,0,0,.181.5v.045h0l.045.045c0,.046.045.046.045.091a2.927,2.927,0,0,0,2.67,1.086,10.006,10.006,0,0,0,2.4-.317,34.093,34.093,0,0,0,7.6-2.941C284.794,269.863,294.477,264.7,292.622,261.13Zm-10.045,7.149c-4.48,2.353-7.964,3.122-9.186,2.986.046-.136.091-.317.136-.5.905-1.176,3.439-3.348,7.511-5.475a25.492,25.492,0,0,1,8.236-2.941c.362,0,.769.046,1.086.046C289.771,263.437,287.147,265.881,282.577,268.279Z" style="fill:#1a1a1a"/></g></g>
</g>
</g>
</g>

<!-- ITEM 1 -->
<g transform="translate(753.0 84.0) rotate(18.530921563168302 400.0 104.0) scale(1.4717651062890362 1.4777345193100115)">
<g transform="translate(-0.0 -0.0)">
<g clip-path="url(#clipPathId-collage-item-1)">
		<defs>
			<clipPath id="clipPathId-collage-item-1">
				<rect x="0.0" y="0.0" width="543.565" height="140.756"/>
			</clipPath>
		</defs>
<title>drone</title><g id="Layer_2-i1" data-name="Layer 2"><g id="drone-i1"><path d="M120.807,80.271a6.182,6.182,0,0,1-.409,2.721c-.773,1.566-2.719,2.165-4.409,2.62-4.719,1.188-9.856,2.218-14.27.258a12.992,12.992,0,0,0-3.2-1.316,23.18,23.18,0,0,0-2.47-.139,7.93,7.93,0,0,1-6.238-5.162,16.206,16.206,0,0,1-.6-8.38c.437-2.783,1.243-5.545,1.635-8.312a6.7,6.7,0,0,1,.993-3.241,4.811,4.811,0,0,1,2.047-1.46,22.185,22.185,0,0,1,10.637-1.623A44,44,0,0,1,113.2,57.48c1.8.43,6.753,1.167,7.638,2.907.515,1,.02,3.339,0,4.427.012,1.746.008,3.446-.026,5.209C120.837,73.362,120.844,76.808,120.807,80.271Z" style="fill:#fff"/><ellipse cx="109.234" cy="117.332" rx="60.386" ry="10.847" transform="translate(-2.721 2.594) rotate(-1.344)" style="fill:#fff"/><path d="M50.17,110.8c-2.82,1.172-5.641,2.343-8.333,3.727a31.424,31.424,0,0,0-3.821,2.253,15.744,15.744,0,0,0-3.18,2.743,5.366,5.366,0,0,0-.881,1.554,2.01,2.01,0,0,0-.106.707,3.365,3.365,0,0,0,.094.687,5.6,5.6,0,0,0,2.269,2.579,18.656,18.656,0,0,0,3.694,1.962c1.33.55,2.736,1.021,4.141,1.492a86.775,86.775,0,0,0,8.708,2.161c2.957.633,5.909,1.112,8.924,1.62,6,.926,12.036,1.682,18.107,2.529a112.38,112.38,0,0,1-18.44.114c-3.07-.231-6.126-.57-9.187-1.062-1.538-.269-3.031-.554-4.586-.868-1.525-.376-3.051-.752-4.548-1.191a29.467,29.467,0,0,1-8.74-4.106,15.569,15.569,0,0,1-1.944-1.821,6.551,6.551,0,0,1-1.321-2.664,4.905,4.905,0,0,1-.1-1.56,6.1,6.1,0,0,1,.376-1.525,7.773,7.773,0,0,1,1.537-2.305A11.741,11.741,0,0,1,34.77,116.2a13.751,13.751,0,0,1,2.068-1.261,38.871,38.871,0,0,1,4.32-1.867A52.93,52.93,0,0,1,50.17,110.8Z" style="fill:#fff"/><path d="M171.188,109.047a3.44,3.44,0,0,0-1.385-2.126,10.507,10.507,0,0,0-2.222-1.309,33.376,33.376,0,0,0-4.957-1.61c-1.695-.418-3.42-.774-5.157-1.022s-3.49-.543-5.211-.746c-6.99-.825-14.047-1.265-21.038-1.523-7.054-.287-14.133-.359-21.195-.385s-14.166.117-21.3.169a154.848,154.848,0,0,1,21.223-2.817,195.633,195.633,0,0,1,21.391-.355,141.779,141.779,0,0,1,21.318,2.3,65.665,65.665,0,0,1,10.423,2.778,26.322,26.322,0,0,1,4.913,2.346,10.591,10.591,0,0,1,2.127,1.756A3.665,3.665,0,0,1,171.188,109.047Z" style="fill:#fff"/><polyline points="101.485 115.761 101.138 128.499 118.679 129.173 119.026 116.435" style="fill:#fff"/><path d="M119.172,130.54a1.738,1.738,0,0,1-.534.089l-17.54-.673a1.469,1.469,0,0,1-1.416-1.5l.347-12.738a1.457,1.457,0,0,1,2.913.082l-.306,11.282,14.657.53.322-11.236a1.457,1.457,0,1,1,2.913.082l-.347,12.738a1.811,1.811,0,0,1-.45,1.037A3.328,3.328,0,0,1,119.172,130.54Z" style="fill:#1a1a1a"/><ellipse cx="109.924" cy="128.736" rx="2.421" ry="8.717" transform="translate(-22.892 233.693) rotate(-87.824)" style="fill:#fff"/><path d="M117.547,131.744a23.4,23.4,0,0,1-7.776.849,25.94,25.94,0,0,1-6.535-.989c-2.377-.739-3.553-1.859-3.5-3.27h0c.171-3.665,8.615-3.519,10.332-3.469s10.185.547,10.03,4.258C120.1,130.41,119.005,131.218,117.547,131.744Zm-14.311-3.281a19.29,19.29,0,0,0,6.662,1.2,20.172,20.172,0,0,0,6.754-.686h0a19.284,19.284,0,0,0-6.662-1.2,19.173,19.173,0,0,0-6.754.686Z" style="fill:#1a1a1a"/><path d="M119.026,116.435c.028-1.349-3.816-2.587-8.661-2.744s-8.789.751-8.818,2.1" style="fill:#fff"/><path d="M120.482,116.476l-2.912-.082a.6.6,0,0,0,.086.381c-.38-.481-3.008-1.489-7.332-1.628s-7.031.631-7.433,1.085c.046-.016.149-.156.113-.4l-2.913-.082c.171-3.665,8.615-3.519,10.332-3.469a25.834,25.834,0,0,1,6.534.989C119.334,114.007,120.494,115.082,120.482,116.476Z" style="fill:#1a1a1a"/><path d="M249.636,109.165a7.5,7.5,0,0,0-5.657-1.409L114.673,118.211a2.488,2.488,0,0,0-2.253,2.46h0A2.564,2.564,0,0,0,115,123.243L248.767,120.6l.091-.033a4.624,4.624,0,0,0,.654-.184c1.139-.411,3.327-1.767,3.027-5.88a1.433,1.433,0,0,0-.057-.443A7.141,7.141,0,0,0,249.636,109.165Z" style="fill:#1a1a1a"/><ellipse cx="437.058" cy="41.826" rx="90.991" ry="29.975" transform="translate(-0.579 77.078) rotate(-10.072)" style="fill:#fff"/><path d="M472.087,54.658a109.115,109.115,0,0,1-15,6.647,144.19,144.19,0,0,1-15.816,4.676,145.3,145.3,0,0,1-16.288,2.942c-2.748.373-5.5.594-8.252.814-2.769.175-5.524.243-8.342.281-2.788-.024-5.548-.109-8.356-.332a78.433,78.433,0,0,1-8.376-1.1,53.049,53.049,0,0,1-8.327-2.247,32.13,32.13,0,0,1-4.058-1.831l-.979-.573c-.326-.192-.653-.383-1-.619l-.967-.681-.937-.743a12.751,12.751,0,0,1-3.13-3.968,9.5,9.5,0,0,1-.938-5.17,11.559,11.559,0,0,1,1.509-4.663c.191-.326.428-.669.619-1a10.2,10.2,0,0,1,.652-.9c.253-.3.461-.578.714-.875l.747-.784a33.184,33.184,0,0,1,6.674-5.188,52.38,52.38,0,0,1,7.386-3.643c-2.18,1.662-4.282,3.4-6.26,5.193-.959.912-1.917,1.824-2.8,2.811a19.071,19.071,0,0,0-1.266,1.486,18.5,18.5,0,0,0-1.142,1.544,19.17,19.17,0,0,0-1.791,3.169A7.54,7.54,0,0,0,375.786,53a4.882,4.882,0,0,0,.846,2.63,10.213,10.213,0,0,0,2.166,2.153,21.528,21.528,0,0,0,6.459,2.921,58.366,58.366,0,0,0,7.468,1.578c2.552.367,5.179.655,7.8.79s5.229.224,7.91.235c2.636.028,5.284-.052,7.961-.194,1.316-.063,2.632-.126,3.993-.2,1.3-.109,2.661-.188,3.96-.3,2.661-.188,5.335-.483,7.963-.762,2.657-.341,5.33-.636,7.971-1.022Q456.2,58.485,472.087,54.658Z" style="fill:#fece2f"/><path d="M414.8,26.572a88.464,88.464,0,0,1,12.388-5.19,125.614,125.614,0,0,1,39.752-6.824c2.267.006,4.551.057,6.822.216s4.575.409,6.82.783a50.3,50.3,0,0,1,6.823,1.5,35.71,35.71,0,0,1,6.683,2.686,17.509,17.509,0,0,1,1.632.956c.529.324,1.045.756,1.528,1.1l.751.656.376.328.347.389a7.436,7.436,0,0,1,.676.734l.6.813a7.555,7.555,0,0,1,.528.891,7.263,7.263,0,0,1,.452.969l.362,1c.069.335.155.716.225,1.052a8.249,8.249,0,0,1-.329,4.082,11.442,11.442,0,0,1-1.726,3.351,13.973,13.973,0,0,1-2.4,2.617,28.775,28.775,0,0,1-5.6,3.875c.73-.83,1.523-1.63,2.191-2.489a26.293,26.293,0,0,0,1.943-2.606,19.494,19.494,0,0,0,1.542-2.718,9.546,9.546,0,0,0,.806-2.762,5.288,5.288,0,0,0-1.565-4.481l-.471-.448-.516-.431L495.2,26.4l-.281-.208-.545-.369c-.434-.2-.839-.47-1.273-.674-.479-.187-.868-.408-1.347-.6a46.742,46.742,0,0,0-12.074-2.646c-1.076-.127-2.135-.208-3.148-.306-1.059-.081-2.118-.162-3.206-.182-2.147-.1-4.278-.155-6.437-.148a238.153,238.153,0,0,0-25.941,1.584C432.3,23.861,423.619,25.192,414.8,26.572Z" style="fill:#fece2f"/><path d="M509.642,2.5a64.7,64.7,0,0,1,15.131,2.985,37.4,37.4,0,0,1,3.65,1.411,38.716,38.716,0,0,1,3.566,1.751,27.077,27.077,0,0,1,6.462,4.928,18.586,18.586,0,0,1,4.376,7.276,17.676,17.676,0,0,1,.379,8.615,25.616,25.616,0,0,1-3.119,7.766,42.72,42.72,0,0,1-4.882,6.446,69.317,69.317,0,0,1-5.81,5.443c-2.028,1.658-4.15,3.2-6.351,4.658-1.085.7-2.171,1.4-3.319,2.073-.543.35-1.1.655-1.691,1.022l-1.723.93c-1.119.61-2.283,1.236-3.418,1.8-1.181.58-2.316,1.144-3.513,1.679a133.224,133.224,0,0,1-29.238,9.569,283.24,283.24,0,0,0,27.5-12.958,133.866,133.866,0,0,0,12.734-7.94,73.366,73.366,0,0,0,11.163-9.587,36.277,36.277,0,0,0,4.35-5.636,22.629,22.629,0,0,0,2.742-6.241,14.518,14.518,0,0,0,.025-6.5,15.541,15.541,0,0,0-3.1-5.883,26.177,26.177,0,0,0-5.309-4.726,47.436,47.436,0,0,0-6.416-3.657A83.189,83.189,0,0,0,509.642,2.5Z" style="fill:#fff"/><path d="M343.738,51.64a10.775,10.775,0,0,1-.362-4.142,15.544,15.544,0,0,1,1.094-4.1,26.75,26.75,0,0,1,4.652-7.083,64.022,64.022,0,0,1,12.849-10.762,126.566,126.566,0,0,1,14.6-8.047c2.514-1.164,5.045-2.283,7.609-3.311s5.143-2.01,7.8-2.918A203.227,203.227,0,0,1,424.04,2.954,181,181,0,0,1,456.9.006c-10.829,1.95-21.529,4.111-32.082,6.682C414.284,9.305,403.834,12.3,393.6,15.893c-2.567.874-5.1,1.84-7.636,2.806s-5.037,2.023-7.493,3.063c-2.5,1.057-4.925,2.189-7.377,3.382-2.407,1.177-4.8,2.4-7.155,3.714a73.9,73.9,0,0,0-13.163,9.176,28.412,28.412,0,0,0-5.138,6.023A11.987,11.987,0,0,0,343.738,51.64Z" style="fill:#fff"/><ellipse cx="442.736" cy="93.196" rx="60.385" ry="10.847" transform="translate(-8.41 59.024) rotate(-7.556)" style="fill:#fff"/><path d="M490.085,77.149a50.159,50.159,0,0,1,9.225.172,28.67,28.67,0,0,1,4.632.852,14.254,14.254,0,0,1,2.286.771,12.641,12.641,0,0,1,2.264,1.14,7.9,7.9,0,0,1,2.023,1.9,5.082,5.082,0,0,1,.96,2.948,6.334,6.334,0,0,1-.71,2.882,12.884,12.884,0,0,1-1.462,2.226,28.492,28.492,0,0,1-7.637,5.947c-1.359.8-2.751,1.507-4.159,2.169s-2.817,1.325-4.258,1.9c-2.866,1.188-5.8,2.194-8.717,3.093a110.267,110.267,0,0,1-17.979,3.963c5.753-2.178,11.447-4.232,17.121-6.485,2.775-1.156,5.612-2.282,8.337-3.574,2.742-1.247,5.406-2.568,8-4.071a42.762,42.762,0,0,0,3.726-2.374,18.912,18.912,0,0,0,3.18-2.743,5.8,5.8,0,0,0,1.626-3.058,2.09,2.09,0,0,0-.34-1.37,5.183,5.183,0,0,0-1.2-1.319,15.246,15.246,0,0,0-3.694-1.962c-1.376-.533-2.811-.942-4.245-1.351C496.114,78.165,493.1,77.657,490.085,77.149Z" style="fill:#fff"/><path d="M371.692,102.3a3.455,3.455,0,0,1,.441-2.63,10.6,10.6,0,0,1,1.678-2.2,27.125,27.125,0,0,1,4.282-3.4,66.986,66.986,0,0,1,9.558-5.044,144.088,144.088,0,0,1,20.278-7.007A196.169,196.169,0,0,1,428.884,77.6a158.1,158.1,0,0,1,21.275-1.96c-6.963,1.534-13.9,3-20.8,4.568-6.884,1.609-13.752,3.262-20.571,5.053-6.8,1.836-13.556,3.809-20.223,6.163-1.64.591-3.263,1.228-4.932,1.882-1.623.637-3.214,1.365-4.788,2.139a30.94,30.94,0,0,0-4.5,2.653,10.289,10.289,0,0,0-1.887,1.762A4.336,4.336,0,0,0,371.692,102.3Z" style="fill:#fff"/><polyline points="450.245 90.439 452.543 102.944 435.331 106.322 433.017 93.771" style="fill:#fff"/><path d="M453.035,104.311l-.227.082L435.6,107.77a1.553,1.553,0,0,1-1.108-.218,1.228,1.228,0,0,1-.59-.92l-2.3-12.5a1.473,1.473,0,0,1,2.9-.531l2.032,11.056,14.376-2.818-2.049-11.1a1.473,1.473,0,0,1,2.9-.531l2.3,12.5A1.555,1.555,0,0,1,453.035,104.311Z"/><ellipse cx="443.868" cy="104.603" rx="8.717" ry="2.421" transform="translate(-11.826 87.175) rotate(-11.07)" style="fill:#fff"/><path d="M449.015,107.151a34.958,34.958,0,0,1-4.4,1.226c-1.676.347-10.021,1.762-10.752-1.836-.295-1.386.747-2.637,2.972-3.749a25.881,25.881,0,0,1,6.277-2.007,28.22,28.22,0,0,1,6.6-.529c2.486.184,3.9.961,4.148,2.365C454.3,104.678,451.612,106.214,449.015,107.151Zm-11.751-1.321a19.663,19.663,0,0,0,6.778-.334,19.282,19.282,0,0,0,6.394-2.255,19.663,19.663,0,0,0-6.778.334A20.557,20.557,0,0,0,437.264,105.83Z" style="fill:#1a1a1a"/><path d="M433.033,93.817c-.261-1.3,3.356-3.115,8.112-4.059,4.71-.927,8.793-.6,9.055.7" style="fill:#fff"/><path d="M451.586,90.161l-2.835.56a.723.723,0,0,0,.177.348c-.5-.386-3.25-.732-7.534.092-4.239.809-6.717,2.217-7,2.73a.676.676,0,0,0,.05-.43l-2.835.559c-.294-1.387.747-2.638,2.972-3.749a25.837,25.837,0,0,1,6.277-2.007,28.224,28.224,0,0,1,6.605-.529C449.925,87.981,451.354,88.8,451.586,90.161Z" style="fill:#1a1a1a"/><path d="M437.594,94.9l-129.387,9.661a7.485,7.485,0,0,0-5.4,2.307,7.212,7.212,0,0,0-2.061,5.274l.011.459c.458,5.55,4.529,5.419,4.591,5.448l.046-.016L438.024,99.945a2.377,2.377,0,0,0,.563-.152,2.262,2.262,0,0,0,1.128-.87,2.377,2.377,0,0,0,.443-1.91A2.446,2.446,0,0,0,437.594,94.9Z" style="fill:#1a1a1a"/><path d="M327.851,64.115a9.59,9.59,0,0,0-6.931-2.8l-95.289.861a9.83,9.83,0,0,0-9.715,9.888l.119,14.886A8.368,8.368,0,0,0,216,87.991l.411,43.1a9.8,9.8,0,0,0,9.872,9.67l95.244-.845a9.481,9.481,0,0,0,3.233-.6,9.822,9.822,0,0,0,6.482-9.288l-.119-14.886a5.868,5.868,0,0,0,.036-1.043L330.746,71A9.707,9.707,0,0,0,327.851,64.115Zm.016,6.893.068,9.036L327.918,80a9.59,9.59,0,0,0-6.931-2.8l-95.273.906a9.654,9.654,0,0,0-6.792,2.863l-.081-8.929a6.913,6.913,0,0,1,4.543-6.529,7.485,7.485,0,0,1,2.273-.408l95.243-.845a6.729,6.729,0,0,1,4.89,1.994A6.9,6.9,0,0,1,327.867,71.008Z" style="fill:#1a1a1a"/><path d="M219.252,115.132A6.9,6.9,0,0,0,221.317,120a6.725,6.725,0,0,0,4.889,1.995l95.244-.845a6.875,6.875,0,0,0,6.815-6.937l-.411-43.1a6.891,6.891,0,0,0-2.064-4.866,6.726,6.726,0,0,0-4.89-1.995l-95.243.845a7.224,7.224,0,0,0-2.273.408,6.867,6.867,0,0,0-4.543,6.529Z" style="fill:#fff"/><path d="M434.656,48.083,300.3,81.93a12.179,12.179,0,0,0-7.611,5.731,11.517,11.517,0,0,0-1.095,9.1,2.962,2.962,0,0,1,.185.654c2.936,8.567,9.325,6.726,9.416,6.693l.045-.016L439.747,53.917Z" style="fill:#1a1a1a"/><polyline points="451.977 37.871 455.909 59.618 425.982 65.421 422.049 43.673" style="fill:#fff"/><path d="M456.4,60.985l-.227.082L426.23,66.824a1.56,1.56,0,0,1-1.108-.218,1.333,1.333,0,0,1-.606-.965l-3.932-21.748a1.473,1.473,0,1,1,2.9-.531l3.668,20.3,27.092-5.243-3.684-20.344a1.473,1.473,0,0,1,2.9-.531l3.932,21.748A1.541,1.541,0,0,1,456.4,60.985Z" style="fill:#1a1a1a"/><ellipse cx="440.829" cy="62.376" rx="15.157" ry="4.213" transform="translate(-3.837 84.592) rotate(-10.914)" style="fill:#fff"/><path d="M449.385,65.936a48.9,48.9,0,0,1-7.456,2.02c-6.069,1.16-16.542,1.952-17.4-2.423S433.7,58,439.773,56.842s16.542-1.952,17.4,2.424c.351,1.829-1.2,3.675-4.573,5.3C451.63,65.023,450.57,65.509,449.385,65.936Zm-21.975-.979c.772.854,6.09,1.613,13.988.1s12.489-4.2,12.922-5.279c-.771-.855-6.09-1.613-13.988-.1S427.843,63.874,427.41,64.957Z"/><path d="M422.049,43.673c-.454-2.256,5.872-5.413,14.105-6.993s15.278-1.033,15.686,1.24" style="fill:#fff"/><path d="M453.289,37.655l-2.836.559.033.091c-.573-.874-5.924-1.723-14-.147S423.736,42.5,423.531,43.5l-.017-.045-2.835.559c-.352-1.829,1.2-3.675,4.572-5.3a45.01,45.01,0,0,1,10.671-3.386C441.958,34.072,452.431,33.279,453.289,37.655Z" style="fill:#1a1a1a"/><ellipse cx="106.333" cy="61.052" rx="29.975" ry="90.989" transform="translate(39.933 164.131) rotate(-87.074)" style="fill:#fff"/><path d="M75.3,78.98c10.883.913,21.635,1.462,32.355,1.352,2.681.011,5.374-.085,8.022-.165,2.678-.142,5.326-.222,7.987-.41,1.315-.063,2.66-.188,3.96-.3,1.345-.125,2.644-.233,3.973-.4,2.628-.278,5.285-.619,7.88-.989s5.2-.847,7.777-1.416c2.592-.523,5.088-1.166,7.6-1.917a50.38,50.38,0,0,0,7.165-2.687,22.334,22.334,0,0,0,5.971-3.853,9.852,9.852,0,0,0,1.84-2.466,5.24,5.24,0,0,0,.453-2.737,7.808,7.808,0,0,0-1.039-3.023,16.213,16.213,0,0,0-2.23-2.9c-.425-.464-.9-.913-1.366-1.361-.517-.431-.971-.834-1.487-1.265-1.015-.818-2.122-1.6-3.212-2.342a78.779,78.779,0,0,0-6.965-4.18,53.478,53.478,0,0,1,7.858,2.519,31.983,31.983,0,0,1,7.362,4.14l.859.668c.3.253.549.523.83.73a9.848,9.848,0,0,1,.8.793c.251.269.519.584.771.854a12.483,12.483,0,0,1,2.207,4.4,9.6,9.6,0,0,1-.163,5.258,12.659,12.659,0,0,1-2.5,4.35l-.8.908-.837.817c-.27.252-.585.52-.855.772s-.6.474-.87.726a28.3,28.3,0,0,1-3.771,2.39,51.921,51.921,0,0,1-7.912,3.471,80.249,80.249,0,0,1-8.123,2.313q-4.068.927-8.233,1.58c-2.748.374-5.5.747-8.265.922-2.752.221-5.52.4-8.292.418a144.819,144.819,0,0,1-16.511-.531,139.419,139.419,0,0,1-16.324-2.3A88.3,88.3,0,0,1,75.3,78.98Z" style="fill:#fece2f"/><path d="M127.824,42.784c-8.932-.073-17.695-.1-26.463.28a234.758,234.758,0,0,0-25.909,2.242c-2.153.313-4.243.655-6.346,1.105-1.068.179-2.1.45-3.109.658-1.035.271-2.086.5-3.076.75a47.705,47.705,0,0,0-11.55,4.372c-.439.21-.783.54-1.222.75-.423.255-.767.586-1.144.825l-.51.441-.27.252L48,54.694l-.448.47-.386.5a5.393,5.393,0,0,0-.881,4.694,8.262,8.262,0,0,0,1.2,2.605,13.983,13.983,0,0,0,1.913,2.45c.739.763,1.494,1.572,2.323,2.3.785.747,1.7,1.444,2.535,2.175a26.485,26.485,0,0,1-6.078-3.007,15.849,15.849,0,0,1-2.721-2.262,14.4,14.4,0,0,1-2.235-3.055,9.062,9.062,0,0,1-.924-3.991c.021-.368.043-.736.081-1.059s.167-.678.234-1.062c.084-.339.213-.7.313-.988a10.608,10.608,0,0,1,.421-.976l.5-.9c.162-.265.37-.545.578-.826l.265-.405.328-.376.656-.751a13.6,13.6,0,0,1,1.377-1.32c.481-.38.945-.8,1.426-1.184A32.967,32.967,0,0,1,54.681,44.1a55.724,55.724,0,0,1,6.51-2.5c2.22-.7,4.426-1.288,6.666-1.787s4.467-.891,6.71-1.237a123.439,123.439,0,0,1,26.986-.828,121.117,121.117,0,0,1,13.338,1.726A88.6,88.6,0,0,1,127.824,42.784Z" style="fill:#fece2f"/><path d="M30.465,32.911A96,96,0,0,0,17.1,40.1a42.633,42.633,0,0,0-5.816,4.569,26.587,26.587,0,0,0-4.569,5.458,15.424,15.424,0,0,0-2.2,6.3,13.668,13.668,0,0,0,.968,6.395A21.8,21.8,0,0,0,9.112,68.62a37.277,37.277,0,0,0,5.13,4.945,73.236,73.236,0,0,0,12.446,7.814,145.911,145.911,0,0,0,13.733,5.96,276.9,276.9,0,0,0,29.1,8.754,135.287,135.287,0,0,1-30.317-5.125c-1.266-.367-2.485-.751-3.7-1.135-1.236-.429-2.455-.813-3.662-1.3L30,87.854l-1.811-.737c-1.206-.491-2.384-1.044-3.562-1.6a74.933,74.933,0,0,1-6.937-3.675,70.358,70.358,0,0,1-6.559-4.481,40.751,40.751,0,0,1-5.806-5.679,24.588,24.588,0,0,1-4.252-7.218,17.609,17.609,0,0,1-.884-8.587,18.2,18.2,0,0,1,3.256-7.815,27.515,27.515,0,0,1,5.678-5.807c1.053-.792,2.168-1.554,3.254-2.255A35.9,35.9,0,0,1,15.81,38.1,66.711,66.711,0,0,1,30.465,32.911Z" style="fill:#fff"/><path d="M201.809,57.073a12.55,12.55,0,0,0-3.043-7.293,29.307,29.307,0,0,0-5.949-5.216,71.562,71.562,0,0,0-14.359-7.124c-2.5-.95-5.084-1.821-7.647-2.647s-5.139-1.544-7.76-2.246-5.226-1.358-7.889-1.89c-2.634-.594-5.3-1.126-7.96-1.659-10.62-2.038-21.423-3.443-32.248-4.48s-21.729-1.582-32.7-1.9a180.878,180.878,0,0,1,32.934-1.893,208.626,208.626,0,0,1,32.929,3.514c2.708.516,5.45,1.122,8.1,1.762,2.713.669,5.379,1.355,8.033,2.147a116.872,116.872,0,0,1,15.629,5.791A63.9,63.9,0,0,1,194.2,42.677a28.98,28.98,0,0,1,5.623,6.311,15.464,15.464,0,0,1,1.7,3.865A10.19,10.19,0,0,1,201.809,57.073Z" style="fill:#fff"/><path d="M110.224,68.49,246.83,85.26a10.524,10.524,0,0,1,9.224,12.014,2,2,0,0,1-.138.616c-1.592,7.576-6.806,6.677-6.806,6.677L107.6,72.476Z" style="fill:#1a1a1a"/><path d="M112.615,55.993a14.535,14.535,0,0,1,5.006,1.746,7.417,7.417,0,0,1,3.08,2.544c1.211,1.931.721,4.425.562,6.7a21.411,21.411,0,0,0,.156,5.143,11.4,11.4,0,0,1,.261,3.149c-.145,1.6-.968,3.026-1.158,4.639-.152,1.291.159,2.723-.535,3.8a4.256,4.256,0,0,1-2.428,1.545c-7.293,2.476-15.336,1.157-22.766-.745A9.87,9.87,0,0,1,91.436,83.2a3.7,3.7,0,0,1-1.758-3.02c.01-.828.434-1.65.49-2.494a12.977,12.977,0,0,0-.037-1.531,27.059,27.059,0,0,1,.389-3.486c.511-4.149-.682-8.455.367-12.54a4.631,4.631,0,0,1,.741-1.657,5.271,5.271,0,0,1,2.217-1.418C100.111,54.583,106.192,55.17,112.615,55.993Z" style="fill:#fff"/><path d="M92.656,59.177h0l.029-.062Z" style="fill:none"/><path d="M105.34,79.209c-8.009-.508-13.167.889-13.848,1.856.576,1.027,5.453,3.129,13.461,3.638s13.168-.889,13.849-1.855C118.271,81.8,113.348,79.718,105.34,79.209Z" style="fill:none"/><path d="M120.028,60.989c-.361-1-5.316-3.179-13.54-3.713-8.178-.55-13.349.955-13.877,1.918L91.455,77.68c3.624-1.513,9.838-1.7,14.012-1.4,4.112.267,10.109,1.192,13.526,3.1L120,60.9h0C120.074,60.973,120.028,60.989,120.028,60.989Z" style="fill:none"/><path d="M117.756,56.4a43.663,43.663,0,0,0-11.016-2,42.726,42.726,0,0,0-11.185.534c-3.109.658-5,1.7-5.606,3.155a1.708,1.708,0,0,0-.362.851L88.38,81a1.357,1.357,0,0,0,.362,1c1.406,3.612,10.467,5.182,16.051,5.536,4,.254,9.838.157,13.483-1.157,1.822-.658,3.115-1.639,3.4-2.979l.016.046a.371.371,0,0,0,.009-.261l1.207-22.057c.013-.108-.02-.2-.008-.306C122.876,59.035,121.109,57.562,117.756,56.4ZM105,84.686c-8.009-.508-12.931-2.594-13.462-3.638.681-.966,5.84-2.364,13.848-1.855s12.931,2.594,13.462,3.638C118.166,83.8,113.008,85.2,105,84.686Zm15.059-23.759-1,18.483c-3.417-1.908-9.414-2.833-13.526-3.1-4.219-.28-10.388-.114-14.012,1.4l1.156-18.487h0l.029-.062.016.045c.528-.962,5.716-2.422,13.878-1.917,8.223.534,13.179,2.711,13.54,3.713-.108-.013-.062-.029-.078-.075Z" style="fill:#1a1a1a"/><path d="M266.737,35.556a115.519,115.519,0,0,0-15.162-8.637,8.011,8.011,0,0,0-.4-3.819,8.243,8.243,0,1,0-.481,6.659c8.013,3.8,31.03,16.091,36.067,33.477l2.8-.8C286.755,52.942,279.12,43.907,266.737,35.556Z" style="fill:#1a1a1a"/></g></g>
</g>
</g>
</g>

<!-- ITEM 2 -->
<g transform="translate(891.0 204.0) rotate(127.77620301787692 32.5 28.5) scale(0.728022131872809 0.7324971728179295)">
<g transform="translate(-0.0 -0.0)">
<g clip-path="url(#clipPathId-collage-item-2)">
		<defs>
			<clipPath id="clipPathId-collage-item-2">
				<rect x="0.0" y="0.0" width="89.283" height="77.816"/>
			</clipPath>
		</defs>
<title>decoration_lightning_spark</title><g id="Layer_2-i2" data-name="Layer 2"><g id="decoration_lightning_spark-i2"><path d="M33.25,51.232a1.522,1.522,0,0,0,1.972-.493h0l11.831-21.2,12.16,8.216.821.493a6.088,6.088,0,0,0,1.808.821,5.861,5.861,0,0,0,7.065-4.108h0L77.452,1.936A1.381,1.381,0,0,0,76.8.129a1.382,1.382,0,0,0-1.808.657L61.02,23.133l-12.488-8.38-.822-.493a4.833,4.833,0,0,0-2.136-.821,5.928,5.928,0,0,0-6.9,4.6L32.429,49.753A1.961,1.961,0,0,0,33.25,51.232Z" fill="#ffb400"/><path d="M8.11,45.481a1.139,1.139,0,0,0,1.643.493,1.1,1.1,0,0,0,.657-1.151v-13.8l5.258-2.136.986-.493a4.183,4.183,0,0,0,2.136-5.259L11.56,5.223a1.116,1.116,0,0,0-1.314-.657.9.9,0,0,0-.657.985L8.767,20.34,3.345,22.805l-.986.493h0A4.144,4.144,0,0,0,.387,28.72h0Z" fill="#ffb400"/><path d="M70.058,61.913l-.493-.986h0a4.041,4.041,0,0,0-5.587-1.315h0l-15.61,9.531a1.661,1.661,0,0,0-.658,1.15,1.271,1.271,0,0,0,1.315,1.15l13.638-1.315,2.958,4.93.493.822a4.163,4.163,0,0,0,5.422,1.478l17.09-9.037a1.351,1.351,0,0,0,.657-.986c0-.657-.493-.986-1.15-.986l-14.789.822Z" fill="#ffb400"/></g></g>
</g>
</g>
</g>

<!-- ITEM 3 -->
<g transform="translate(668.0 288.0) rotate(318.8314785995875 113.0 10.0) scale(0.5129462178160293 1.631986944104447)">
<g transform="translate(-0.0 -0.0)">
<g clip-path="url(#clipPathId-collage-item-3)">
		<defs>
			<clipPath id="clipPathId-collage-item-3">
				<rect x="0.0" y="0.0" width="440.592" height="12.255"/>
			</clipPath>
		</defs>
<title>Ground</title><g id="b5d8168c-1dba-4f9a-9f87-8021eb043a7a-i3" data-name="Error 404"><path d="M206.338,7.605H62a1,1,0,0,1,0-2h144.34a1,1,0,0,1,0,2Z" fill="#1a1a1a"/><path d="M46.338,7.605H1.4a1,1,0,0,1,0-2H46.338a1,1,0,0,1,0,2Z" fill="#1a1a1a"/><path d="M340.551,7.605h-111.4a1,1,0,0,1,0-2H340.551a1,1,0,0,1,0,2Z" fill="#1a1a1a"/><path d="M401.955,6.651H360.934a1,1,0,0,1,0-2h41.021a1,1,0,0,1,0,2Z" fill="#1a1a1a"/><path d="M439.189,6.651H422.338a1,1,0,0,1,0-2h16.851a1,1,0,0,1,0,2Z" fill="#1a1a1a"/></g>
</g>
</g>
</g>

<!-- ITEM 4 -->
<g transform="translate(820.0 149.0) rotate(248.03943597990343 26.5 23.5) scale(0.593618045988598 0.6039888968849594)">
<g transform="translate(-0.0 -0.0)">
<g clip-path="url(#clipPathId-collage-item-4)">
		<defs>
			<clipPath id="clipPathId-collage-item-4">
				<rect x="0.0" y="0.0" width="89.283" height="77.816"/>
			</clipPath>
		</defs>
<title>decoration_lightning_spark</title><g id="Layer_2-i4" data-name="Layer 2"><g id="decoration_lightning_spark-i4"><path d="M33.25,51.232a1.522,1.522,0,0,0,1.972-.493h0l11.831-21.2,12.16,8.216.821.493a6.088,6.088,0,0,0,1.808.821,5.861,5.861,0,0,0,7.065-4.108h0L77.452,1.936A1.381,1.381,0,0,0,76.8.129a1.382,1.382,0,0,0-1.808.657L61.02,23.133l-12.488-8.38-.822-.493a4.833,4.833,0,0,0-2.136-.821,5.928,5.928,0,0,0-6.9,4.6L32.429,49.753A1.961,1.961,0,0,0,33.25,51.232Z" fill="#ffb400"/><path d="M8.11,45.481a1.139,1.139,0,0,0,1.643.493,1.1,1.1,0,0,0,.657-1.151v-13.8l5.258-2.136.986-.493a4.183,4.183,0,0,0,2.136-5.259L11.56,5.223a1.116,1.116,0,0,0-1.314-.657.9.9,0,0,0-.657.985L8.767,20.34,3.345,22.805l-.986.493h0A4.144,4.144,0,0,0,.387,28.72h0Z" fill="#ffb400"/><path d="M70.058,61.913l-.493-.986h0a4.041,4.041,0,0,0-5.587-1.315h0l-15.61,9.531a1.661,1.661,0,0,0-.658,1.15,1.271,1.271,0,0,0,1.315,1.15l13.638-1.315,2.958,4.93.493.822a4.163,4.163,0,0,0,5.422,1.478l17.09-9.037a1.351,1.351,0,0,0,.657-.986c0-.657-.493-.986-1.15-.986l-14.789.822Z" fill="#ffb400"/></g></g>
</g>
</g>
</g>

              </svg>