<svg fill="#000000" xmlns="http://www.w3.org/2000/svg" viewBox="0 0 50 50" width="50px" height="50px"><path d="M25,2C12.318,2,2,12.318,2,25c0,12.683,10.318,23,23,23c12.683,0,23-10.317,23-23C48,12.318,37.683,2,25,2z M37,26H15.414l6.293,6.293c0.391,0.391,0.391,1.023,0,1.414C21.512,33.902,21.256,34,21,34s-0.512-0.098-0.707-0.293l-8-8c-0.092-0.092-0.165-0.203-0.216-0.325c-0.101-0.245-0.101-0.52,0-0.764c0.051-0.122,0.124-0.233,0.216-0.325l8-8c0.391-0.391,1.023-0.391,1.414,0s0.391,1.023,0,1.414L15.414,24H37c0.553,0,1,0.448,1,1S37.553,26,37,26z"/></svg>