<?xml version="1.0" encoding="UTF-8"?>
<svg xmlns="http://www.w3.org/2000/svg" xmlns:xlink="http://www.w3.org/1999/xlink" width="30pt" height="30pt" viewBox="0 0 30 30" version="1.1">
<g id="surface1">
<path style=" stroke:none;fill-rule:nonzero;fill:#000000;fill-opacity:1;" d="M 14.800781 2.960938 C 13.980469 2.960938 13.28125 3.460938 12.984375 4.171875 L 2.269531 22.648438 C 2.078125 22.960938 1.972656 23.316406 1.972656 23.683594 C 1.972656 24.773438 2.855469 25.65625 3.949219 25.65625 C 3.992188 25.65625 4.039063 25.652344 4.085938 25.652344 L 4.089844 25.65625 L 25.515625 25.65625 L 25.519531 25.648438 C 25.566406 25.652344 25.613281 25.65625 25.65625 25.65625 C 26.75 25.65625 27.632813 24.773438 27.632813 23.683594 C 27.632813 23.316406 27.527344 22.957031 27.335938 22.648438 L 27.320313 22.621094 C 27.320313 22.617188 27.320313 22.617188 27.320313 22.617188 L 16.621094 4.171875 C 16.324219 3.460938 15.625 2.960938 14.800781 2.960938 Z M 13.605469 11.210938 L 16 11.210938 L 15.800781 17.597656 L 13.804688 17.597656 Z M 14.804688 19.550781 C 15.617188 19.550781 16.101563 19.988281 16.101563 20.730469 C 16.101563 21.464844 15.617188 21.894531 14.804688 21.894531 C 13.988281 21.894531 13.5 21.464844 13.5 20.730469 C 13.5 19.988281 13.988281 19.550781 14.804688 19.550781 Z "/>
</g>
</svg>
