<?xml version="1.0" encoding="UTF-8"?>
<svg xmlns="http://www.w3.org/2000/svg" xmlns:xlink="http://www.w3.org/1999/xlink" width="30pt" height="30pt" viewBox="0 0 30 30" version="1.1">
<g id="surface1">
<path style=" stroke:none;fill-rule:nonzero;fill:#000000;fill-opacity:1;" d="M 23.683594 3.949219 L 5.921875 3.949219 C 4.832031 3.949219 3.949219 4.832031 3.949219 5.921875 L 3.949219 23.683594 C 3.949219 24.773438 4.832031 25.65625 5.921875 25.65625 L 15.789063 25.65625 L 15.789063 16.777344 L 12.828125 16.777344 L 12.828125 13.816406 L 15.789063 13.816406 L 15.789063 12.226563 C 15.789063 9.21875 17.253906 7.894531 19.757813 7.894531 C 20.953125 7.894531 21.589844 7.984375 21.886719 8.027344 L 21.886719 10.855469 L 20.183594 10.855469 C 19.121094 10.855469 18.75 11.414063 18.75 12.550781 L 18.75 13.816406 L 21.859375 13.816406 L 21.441406 16.777344 L 18.75 16.777344 L 18.75 25.65625 L 23.683594 25.65625 C 24.773438 25.65625 25.65625 24.773438 25.65625 23.683594 L 25.65625 5.921875 C 25.65625 4.832031 24.773438 3.949219 23.683594 3.949219 Z "/>
</g>
</svg>
