<?xml version="1.0" encoding="UTF-8"?>
<svg xmlns="http://www.w3.org/2000/svg" xmlns:xlink="http://www.w3.org/1999/xlink" width="30pt" height="30pt" viewBox="0 0 30 30" version="1.1">
<g id="surface1">
<path style=" stroke:none;fill-rule:nonzero;fill:#000000;fill-opacity:1;" d="M 14.800781 2.960938 C 8.261719 2.960938 2.960938 8.261719 2.960938 14.800781 C 2.960938 20.351563 6.78125 24.996094 11.933594 26.277344 C 11.875 26.121094 11.84375 25.933594 11.84375 25.703125 L 11.84375 23.679688 C 11.359375 23.679688 10.554688 23.679688 10.355469 23.679688 C 9.542969 23.679688 8.824219 23.332031 8.472656 22.6875 C 8.085938 21.964844 8.019531 20.867188 7.058594 20.191406 C 6.773438 19.96875 6.988281 19.714844 7.316406 19.75 C 7.925781 19.917969 8.425781 20.335938 8.902344 20.949219 C 9.375 21.570313 9.59375 21.710938 10.476563 21.710938 C 10.90625 21.710938 11.546875 21.6875 12.148438 21.589844 C 12.46875 20.769531 13.03125 20.015625 13.710938 19.65625 C 9.769531 19.25 7.886719 17.289063 7.886719 14.625 C 7.886719 13.476563 8.375 12.371094 9.207031 11.433594 C 8.9375 10.507813 8.59375 8.617188 9.308594 7.894531 C 11.085938 7.894531 12.160156 9.042969 12.417969 9.355469 C 13.300781 9.054688 14.269531 8.882813 15.292969 8.882813 C 16.3125 8.882813 17.289063 9.054688 18.175781 9.359375 C 18.429688 9.050781 19.5 7.894531 21.28125 7.894531 C 22.003906 8.617188 21.65625 10.515625 21.382813 11.441406 C 22.207031 12.375 22.695313 13.480469 22.695313 14.625 C 22.695313 17.285156 20.8125 19.246094 16.875 19.65625 C 17.960938 20.21875 18.75 21.8125 18.75 23.003906 L 18.75 25.703125 C 18.75 25.808594 18.726563 25.882813 18.714844 25.96875 C 23.328125 24.351563 26.644531 19.96875 26.644531 14.800781 C 26.644531 8.261719 21.34375 2.960938 14.800781 2.960938 Z "/>
</g>
</svg>
