<?xml version="1.0" encoding="UTF-8"?>
<svg xmlns="http://www.w3.org/2000/svg" xmlns:xlink="http://www.w3.org/1999/xlink" width="30pt" height="30pt"
     viewBox="0 0 30 30" version="1.1">
    <g id="surface1">
        <path style=" stroke:none;fill-rule:nonzero;fill:#000000;fill-opacity:1;"
              d="M 9.867188 2.960938 C 6.058594 2.960938 2.960938 6.058594 2.960938 9.867188 L 2.960938 19.738281 C 2.960938 23.546875 6.058594 26.644531 9.867188 26.644531 L 19.738281 26.644531 C 23.546875 26.644531 26.644531 23.546875 26.644531 19.738281 L 26.644531 9.867188 C 26.644531 6.058594 23.546875 2.960938 19.738281 2.960938 Z M 21.710938 6.90625 C 22.253906 6.90625 22.699219 7.351563 22.699219 7.894531 C 22.699219 8.4375 22.253906 8.882813 21.710938 8.882813 C 21.167969 8.882813 20.722656 8.4375 20.722656 7.894531 C 20.722656 7.351563 21.167969 6.90625 21.710938 6.90625 Z M 14.800781 8.882813 C 18.066406 8.882813 20.722656 11.539063 20.722656 14.800781 C 20.722656 18.066406 18.066406 20.722656 14.800781 20.722656 C 11.539063 20.722656 8.882813 18.066406 8.882813 14.800781 C 8.882813 11.539063 11.539063 8.882813 14.800781 8.882813 Z M 14.800781 10.855469 C 12.621094 10.855469 10.855469 12.621094 10.855469 14.800781 C 10.855469 16.984375 12.621094 18.75 14.800781 18.75 C 16.984375 18.75 18.75 16.984375 18.75 14.800781 C 18.75 12.621094 16.984375 10.855469 14.800781 10.855469 Z "/>
    </g>
</svg>
