<?xml version="1.0" encoding="UTF-8"?>
<svg xmlns="http://www.w3.org/2000/svg" xmlns:xlink="http://www.w3.org/1999/xlink" width="30pt" height="30pt" viewBox="0 0 30 30" version="1.1">
<g id="surface1">
<path style=" stroke:none;fill-rule:nonzero;fill:#000000;fill-opacity:1;" d="M 14.800781 2.960938 C 8.261719 2.960938 2.960938 8.261719 2.960938 14.800781 C 2.960938 21.34375 8.261719 26.644531 14.800781 26.644531 C 21.34375 26.644531 26.644531 21.34375 26.644531 14.800781 C 26.644531 8.261719 21.34375 2.960938 14.800781 2.960938 Z M 21.421875 12.539063 L 13.960938 20 C 13.777344 20.183594 13.523438 20.289063 13.265625 20.289063 C 13.003906 20.289063 12.75 20.183594 12.566406 20 L 9.160156 16.589844 C 8.773438 16.207031 8.773438 15.582031 9.160156 15.195313 C 9.542969 14.808594 10.167969 14.808594 10.554688 15.195313 L 13.265625 17.90625 L 20.027344 11.144531 C 20.410156 10.757813 21.035156 10.757813 21.421875 11.144531 C 21.808594 11.53125 21.808594 12.15625 21.421875 12.539063 Z "/>
</g>
</svg>
