<?xml version="1.0" encoding="UTF-8"?>
<svg xmlns="http://www.w3.org/2000/svg" xmlns:xlink="http://www.w3.org/1999/xlink" width="30pt" height="30pt"
     viewBox="0 0 30 30" version="1.1">
    <g id="surface1">
        <path style=" stroke:none;fill-rule:nonzero;fill:#000000;fill-opacity:1;"
              d="M 27.632813 6.847656 C 26.6875 7.265625 25.671875 7.546875 24.609375 7.675781 C 25.695313 7.023438 26.527344 5.992188 26.921875 4.761719 C 25.90625 5.367188 24.777344 5.804688 23.582031 6.039063 C 22.621094 5.019531 21.25 4.378906 19.738281 4.378906 C 16.832031 4.378906 14.472656 6.734375 14.472656 9.640625 C 14.472656 10.054688 14.519531 10.457031 14.609375 10.839844 C 10.234375 10.621094 6.355469 8.527344 3.757813 5.339844 C 3.308594 6.117188 3.050781 7.019531 3.050781 7.988281 C 3.050781 9.816406 3.972656 11.425781 5.390625 12.367188 C 4.527344 12.339844 3.710938 12.105469 3.003906 11.710938 C 3.003906 11.734375 3.003906 11.753906 3.003906 11.777344 C 3.003906 14.328125 4.820313 16.457031 7.226563 16.9375 C 6.785156 17.058594 6.316406 17.125 5.839844 17.125 C 5.5 17.125 5.167969 17.089844 4.847656 17.027344 C 5.519531 19.121094 7.464844 20.644531 9.769531 20.683594 C 7.964844 22.097656 5.699219 22.9375 3.230469 22.9375 C 2.804688 22.9375 2.386719 22.914063 1.972656 22.863281 C 4.300781 24.359375 7.070313 25.230469 10.042969 25.230469 C 19.726563 25.230469 25.019531 17.207031 25.019531 10.25 C 25.019531 10.023438 25.015625 9.796875 25.003906 9.570313 C 26.03125 8.828125 26.925781 7.902344 27.632813 6.847656 Z "/>
    </g>
</svg>
