<?xml version="1.0" encoding="UTF-8"?>
<svg xmlns="http://www.w3.org/2000/svg" xmlns:xlink="http://www.w3.org/1999/xlink" width="30pt" height="30pt" viewBox="0 0 30 30" version="1.1">
<g id="surface1">
<path style=" stroke:none;fill-rule:nonzero;fill:#000000;fill-opacity:1;" d="M 14.800781 2.960938 C 8.261719 2.960938 2.960938 8.261719 2.960938 14.800781 C 2.960938 21.34375 8.261719 26.644531 14.800781 26.644531 C 21.34375 26.644531 26.644531 21.34375 26.644531 14.800781 C 26.644531 8.261719 21.34375 2.960938 14.800781 2.960938 Z M 15.996094 7.894531 L 15.800781 16.777344 L 13.804688 16.777344 L 13.609375 7.894531 Z M 14.804688 21.894531 C 13.988281 21.894531 13.5 21.460938 13.5 20.730469 C 13.5 19.988281 13.988281 19.550781 14.804688 19.550781 C 15.617188 19.550781 16.105469 19.988281 16.105469 20.730469 C 16.105469 21.460938 15.617188 21.894531 14.804688 21.894531 Z "/>
</g>
</svg>
