<svg id="Layer_1" data-name="Layer 1" xmlns="http://www.w3.org/2000/svg" viewBox="0 0 15.75 15.75"><defs><style>.cls-1{stroke:#000;stroke-miterlimit:10;stroke-width:0.75px;}.cls-2{fill:#f2f2f2;}.cls-3{fill:aqua;}.cls-4{fill:#f0f;}.cls-5{fill:#ff0;}.cls-6{fill:#ed1c24;}.cls-7{fill:lime;}.cls-8{fill:blue;}</style></defs><rect class="cls-1" x="0.38" y="0.38" width="15" height="15"/><path class="cls-2" d="M2.92,8.67h2c1.36,0,2.31.43,2.31,1.54a1.38,1.38,0,0,1-1,1.36v0a1.48,1.48,0,0,1,1.36,1.5c0,1.24-1,1.84-2.54,1.84H2.92Zm1.84,2.67c1.15,0,1.62-.39,1.62-1s-.54-1-1.58-1h-1v2Zm.18,3c1.15,0,1.82-.39,1.82-1.24S6.11,12,4.94,12H3.77v2.36Z" transform="translate(-0.12 -0.13)"/><path class="cls-2" d="M8.15,10.3H9L9.75,13c.11.44.2.86.29,1.3h.05c.1-.44.21-.87.33-1.3l.77-2.69H12L12.79,13c.12.44.23.86.34,1.3h0c.11-.44.2-.86.31-1.3l.73-2.69H15L13.67,15h-1l-.72-2.5c-.12-.44-.21-.87-.33-1.34h0c-.11.47-.21.91-.35,1.35L10.52,15h-1Z" transform="translate(-0.12 -0.13)"/><rect class="cls-3" x="0.88" y="0.88" width="14" height="1"/><rect class="cls-4" x="0.88" y="1.88" width="14" height="1"/><rect class="cls-5" x="0.88" y="2.88" width="14" height="1"/><rect x="0.88" y="3.88" width="14" height="1"/><rect class="cls-6" x="0.88" y="4.88" width="14" height="1"/><rect class="cls-7" x="0.88" y="5.88" width="14" height="1"/><rect class="cls-8" x="0.88" y="6.88" width="14" height="1"/></svg>